<svg xmlns="http://www.w3.org/2000/svg" viewBox="0 0 1401.64 1100"><defs><style>.cls-1{fill:none;}.cls-2{fill:#eff0f1;}.cls-3{fill:#d0d5d8;}.cls-4{fill:#61c3da;}.cls-5{fill:#c1bebc;}.cls-6{fill:#fff;}</style></defs><g id="Layer_2" data-name="Layer 2"><g id="_1" data-name="1"><path class="cls-1" d="M487.43,1019.21a135.44,135.44,0,0,1,53.17,15.41,11.61,11.61,0,0,1-.7-1.19l0,0a27.11,27.11,0,0,1-1.39-3.92q-.69-2.45-1.43-5.87c-1-4.56-2-10.41-3.14-17.38-2.21-13.93-4.65-32.34-7.21-53.81-5.14-42.94-10.8-98.1-16.19-154-4.64-48.06-9.08-96.64-12.82-138.4q-.92,7.63-1.85,15.29c-.94,56.34-3,95.1-3,95.11a1.5,1.5,0,0,1-1.39,1.42s-3.07.21-8.22.5C475.7,827.45,467.93,879.6,461,923.15a132.19,132.19,0,0,1,26.41,96.06Z"/><path class="cls-1" d="M280.53,669.76a12.35,12.35,0,1,0,12.34-12.34A12.34,12.34,0,0,0,280.53,669.76Z"/><path class="cls-1" d="M1187.51,477.77a12.35,12.35,0,1,0,12.34-12.35A12.34,12.34,0,0,0,1187.51,477.77Z"/><circle class="cls-1" cx="212.11" cy="513.73" r="12.34"/><path class="cls-1" d="M1108.75,898.37A135.12,135.12,0,0,1,1181,922.73c.41-.74.81-1.48,1.23-2.22l-2.81-82.41h-9A197.21,197.21,0,0,1,1108.75,898.37Z"/><path class="cls-2" d="M723.89,149.82a26.59,26.59,0,0,0,3.93,5.36c.3-1,.59-1.93.88-2.9A27.94,27.94,0,0,1,723.89,149.82Z"/><path class="cls-2" d="M1042.2,126.27a28,28,0,0,1-28,28h-249l-13.86,9.21h270.94A26.48,26.48,0,0,0,1048.79,137V73.42A26.42,26.42,0,0,0,1041,54.69a27.91,27.91,0,0,1,1.17,8Z"/><path class="cls-3" d="M1181,922.73l1.34.95-.11-3.17C1181.85,921.25,1181.45,922,1181,922.73Z"/><path class="cls-3" d="M1342.31,795.81a144.38,144.38,0,0,0-19,2.49c-.78.9-1.58,1.74-2.39,2.54a140.46,140.46,0,0,1,21-3A6.33,6.33,0,0,1,1342.31,795.81Z"/><path class="cls-3" d="M1300.08,805a167.92,167.92,0,0,0-39.7,21.85,36.46,36.46,0,0,1,3.88-.32,164.75,164.75,0,0,1,37.38-20A8.11,8.11,0,0,1,1300.08,805Z"/><path class="cls-3" d="M1201.35,889.72v3.54l1.49-2.18c12.47-18.14,27.35-36.06,44.68-51.3a7.68,7.68,0,0,1-.68-2.08C1229.14,853.14,1214,871.33,1201.35,889.72Z"/><path class="cls-3" d="M1300.44,946.51c4,0,8.08.16,12.23.45a9.7,9.7,0,0,1-.18-2q-6.13-.44-12-.44c-32.88,0-60.37,9.35-80.9,19.38.35.57.69,1.15,1,1.72C1240.89,955.71,1268,946.51,1300.44,946.51Z"/><path class="cls-2" d="M1267.55,954.69c-4.51-1.16-8.59-.49-11.17,2.12s-3.23,6.66-2.29,11.07a32.25,32.25,0,0,0,20,22c4.29,1.34,8.38,1.09,11.23-1.24s3.89-6.32,3.16-10.93a31,31,0,0,0-20.94-23Z"/><path class="cls-2" d="M1286.07,908.9c-3.32-1.6-7.3-1-11.07,1.06a29.64,29.64,0,0,0-14.23,24c0,4.31,1.39,8.08,4.39,10.22s7.07,2.18,11.23.32a28.26,28.26,0,0,0,15.36-25.92C1291.37,914.05,1289.37,910.5,1286.07,908.9Z"/><path class="cls-2" d="M1312.67,947a14.14,14.14,0,0,0,4.31,7.23,32.12,32.12,0,0,0,27.41,7.45c4.24-1,7.64-3.22,9-6.64s.4-7.42-2.58-11.07a27.56,27.56,0,0,0-14-8.54c-6.08-1.65-12-1.38-16.41.27s-7.3,4.61-7.84,8.24a9.26,9.26,0,0,0-.07,1.05A9.7,9.7,0,0,0,1312.67,947Z"/><path class="cls-2" d="M1256.41,827.64c-.34.09-.67.19-1,.3a9.87,9.87,0,0,1-3.76,1.62c-2.94,1.68-4.68,3.92-4.89,6.42a6.6,6.6,0,0,0,.08,1.72,7.68,7.68,0,0,0,.68,2.08,18,18,0,0,0,6.19,6.51,68.41,68.41,0,0,0,36.47,10.19c5.39-.32,9.65-1.89,11.29-5.2s.19-7.77-3.93-12.14a34.91,34.91,0,0,0-8-6.2,49,49,0,0,0-11.14-4.65,49.56,49.56,0,0,0-11.93-1.8c-.75,0-1.48,0-2.21,0a36.46,36.46,0,0,0-3.88.32A30.28,30.28,0,0,0,1256.41,827.64Z"/><path class="cls-2" d="M1259.75,823.58a44.77,44.77,0,0,0,6.83-31.72c-1-4.69-3.14-8.36-6.59-9.67s-7.56.11-11.32,3.8-7,9.64-8.58,16.76-1,13.93.92,18.81,5.09,7.91,8.75,8.13a7.46,7.46,0,0,0,1.89-.13,9.87,9.87,0,0,0,3.76-1.62A18.51,18.51,0,0,0,1259.75,823.58Z"/><path class="cls-2" d="M1323.31,798.3c.7-.81,1.38-1.64,2-2.52a36.58,36.58,0,0,0,6.53-13.38c1-4.33.71-8.44-1.69-11.25s-6.58-3.63-11.51-2.2a25.42,25.42,0,0,0-7.58,3.83,34.2,34.2,0,0,0-11.85,15.87,25.07,25.07,0,0,0-1.51,8.36,13,13,0,0,0,2.35,8,8.11,8.11,0,0,0,1.56,1.54,7.11,7.11,0,0,0,1.47.89,8.47,8.47,0,0,0,2.52.67,8.72,8.72,0,0,1,.34-1.1c1.35-3.4,5.23-5.49,10.59-5.63a23.74,23.74,0,0,1,3.6.21l.76-.73C1321.73,800,1322.53,799.2,1323.31,798.3Z"/><path class="cls-2" d="M1316.56,801.36c-5.36.14-9.24,2.23-10.59,5.63a8.72,8.72,0,0,0-.34,1.1c-.75,3.18.49,6.79,2.84,10.3a47.05,47.05,0,0,0,26.47,17.54c4.63.9,8.84.47,11.47-2.13s3-7,1.06-11.95-6.32-10.45-12.57-14.6a35.19,35.19,0,0,0-14.74-5.68A23.74,23.74,0,0,0,1316.56,801.36Z"/><path class="cls-2" d="M1395.6,792.79a36.11,36.11,0,0,0-9.5-5.35,49.15,49.15,0,0,0-25.9-2.51,35.73,35.73,0,0,0-10.35,3.43c-4.06,2.15-6.64,4.81-7.54,7.45a6.33,6.33,0,0,0-.35,2,6,6,0,0,0,.09,1.12c.69,3.64,4.5,6.25,9.66,8.15a58.47,58.47,0,0,0,8.75,2.37,92.89,92.89,0,0,0,10.29,1.48,94.38,94.38,0,0,0,10.38.52,58.6,58.6,0,0,0,9-.64c5.43-.88,9.67-2.71,11-6.15S1400.6,796.84,1395.6,792.79Z"/><path class="cls-3" d="M183.44,916.13c0-.06-.08-.13-.12-.18-11.49-9.77-23-18.71-34.36-26.86a8.56,8.56,0,0,1-1,.34,8.21,8.21,0,0,1-1.63.23c11.39,8.13,23,17.06,34.56,26.83a18.78,18.78,0,0,1,4.39,1.7A18.6,18.6,0,0,1,183.44,916.13Z"/><path class="cls-3" d="M77.51,845.48l-.15-.29c-7.78-4-15-7.53-21.47-10.54a10.36,10.36,0,0,1-1.11.38,9.87,9.87,0,0,1-2.15.31c6.34,2.91,13.45,6.33,21.16,10.27A16.68,16.68,0,0,1,77.51,845.48Z"/><path class="cls-3" d="M188.4,920.33c-.2-.08-.4-.18-.6-.28a7,7,0,0,1,2.14,4c0,.1,0,.21,0,.31q8.19,7.26,16.28,15.11c.74-.2,1.5-.4,2.25-.58Q198.56,929.17,188.4,920.33Z"/><path class="cls-3" d="M40,828.14c-.19-.26-.37-.53-.55-.8-6-2.51-10.62-4.33-13.75-5.5a13.37,13.37,0,0,1-.73,1.65l-.11.17c2.68,1,6.51,2.49,11.35,4.49l1-.09A21.41,21.41,0,0,1,40,828.14Z"/><path class="cls-3" d="M132.33,877.58c-13.89-9.24-27.26-17.27-39.63-24.15a10.17,10.17,0,0,1-2.7.45c-.22,0-.44,0-.66,0,13.32,7.33,27.87,16,43,26.13.41.06.82.13,1.22.21C133.13,879.37,132.71,878.5,132.33,877.58Z"/><path class="cls-2" d="M185.27,918.19a11.67,11.67,0,0,1,2.53,1.86c.2.1.4.2.6.28a7,7,0,0,0,2.45.54,7.45,7.45,0,0,0,5.21-2.14,14.34,14.34,0,0,0,2.28-2.69,23.23,23.23,0,0,0,1.9-3.7,31.2,31.2,0,0,0,1.4-4.6,37.2,37.2,0,0,0,.7-5.43,42,42,0,0,0-1.18-12.39,45.81,45.81,0,0,0-4.25-11.09,36.17,36.17,0,0,0-5.5-7.65c-3.83-4-7.89-6-11.43-4.92s-5.79,5.08-6.49,10.74a41.23,41.23,0,0,0,0,9.29,75.67,75.67,0,0,0,1.75,9.89,93,93,0,0,0,2.7,9.06c.55,1.4,1,2.78,1.64,4.06a34.8,34.8,0,0,0,1.81,3.67,23.44,23.44,0,0,0,1.91,3s.08.12.12.18A18.6,18.6,0,0,0,185.27,918.19Z"/><path class="cls-2" d="M187.8,920.05a11.67,11.67,0,0,0-2.53-1.86,18.78,18.78,0,0,0-4.39-1.7l-.82-.2a33.57,33.57,0,0,0-9.86-.52,46,46,0,0,0-21.89,8,33.08,33.08,0,0,0-7.18,6.76c-3.56,4.67-4.47,9.22-2.54,12.32s6.24,4.35,11.45,4.29a56.18,56.18,0,0,0,17.87-3.77A56.18,56.18,0,0,0,184,934.73c3.91-3.22,6.36-6.8,6-10.36,0-.1,0-.21,0-.31A7,7,0,0,0,187.8,920.05Z"/><path class="cls-2" d="M149,889.09c3.06-1.19,5.36-4.06,6.73-7.82a31.87,31.87,0,0,0-5.07-28.75c-2.85-3.4-6.4-5.4-10.06-5s-6.73,3.12-8.63,7.37a28.11,28.11,0,0,0-1.53,16,32.53,32.53,0,0,0,1.93,6.67c.38.92.8,1.79,1.24,2.62a20.29,20.29,0,0,1,3.61,1.07c4.18,1.71,6.9,4.69,7.42,8.29a9.08,9.08,0,0,0,1.72.1,8.21,8.21,0,0,0,1.63-.23A8.56,8.56,0,0,0,149,889.09Z"/><path class="cls-2" d="M137.18,881.27a20.29,20.29,0,0,0-3.61-1.07c-.4-.08-.81-.15-1.22-.21a27.65,27.65,0,0,0-10.85.67,25.37,25.37,0,0,0-13.4,8.15c-2.85,3.56-3.77,7.52-2.43,10.94s4.61,5.71,8.65,6.85a28.85,28.85,0,0,0,26.07-6.76c3-3,4.72-6.54,4.23-10.19a.29.29,0,0,0,0-.09C144.08,886,141.36,883,137.18,881.27Z"/><path class="cls-2" d="M92.7,853.43a11.91,11.91,0,0,0,6.45-5.17,20.86,20.86,0,0,0-3.63-25.37,11.32,11.32,0,0,0-10.36-2.83,12.89,12.89,0,0,0-8,6.92,19.75,19.75,0,0,0-1.82,11.75,20.55,20.55,0,0,0,2,6.46l.15.29A13.82,13.82,0,0,1,82.9,847a11,11,0,0,1,5.61,6.84c.28,0,.56,0,.83,0s.44,0,.66,0A10.17,10.17,0,0,0,92.7,853.43Z"/><path class="cls-2" d="M82.9,847a13.82,13.82,0,0,0-5.39-1.5,16.68,16.68,0,0,0-3.72.13,17.16,17.16,0,0,0-3.41.89,15.5,15.5,0,0,0-9.13,8.58,11.08,11.08,0,0,0,1.1,10.37,15.71,15.71,0,0,0,8.23,6,13,13,0,0,0,16-6,15.69,15.69,0,0,0,2.28-9.92,12.09,12.09,0,0,0-.37-1.71A11,11,0,0,0,82.9,847Z"/><path class="cls-2" d="M55.89,834.65a11.63,11.63,0,0,0,6.42-7.55,23.9,23.9,0,0,0-9.42-25.75c-3.62-2.26-7.55-2.76-10.87-1.2s-5.48,4.83-6.4,8.74a23,23,0,0,0,1,13,24.74,24.74,0,0,0,2.79,5.45c.18.27.36.54.55.8l.43,0a25.48,25.48,0,0,1,3.7.52A11.94,11.94,0,0,1,47.67,830a7.89,7.89,0,0,1,2.38,2.19,7.23,7.23,0,0,1,1.22,3.12,12.38,12.38,0,0,0,1.36,0,9.87,9.87,0,0,0,2.15-.31A10.36,10.36,0,0,0,55.89,834.65Z"/><path class="cls-2" d="M50.05,832.2A7.89,7.89,0,0,0,47.67,830a11.94,11.94,0,0,0-3.57-1.32,25.48,25.48,0,0,0-3.7-.52l-.43,0a21.41,21.41,0,0,0-2.78-.08l-1,.09a20.55,20.55,0,0,0-5.6,1.37,18.87,18.87,0,0,0-9.65,8.3,11.8,11.8,0,0,0-.62,10.62,12.52,12.52,0,0,0,8.23,6.62,18.68,18.68,0,0,0,12-.81,19.76,19.76,0,0,0,5.4-3.23A14.55,14.55,0,0,0,48,848.93a6.06,6.06,0,0,0,1-2c.19-.67.19-1.35.4-2.08s.42-1.49.68-2.27a22.72,22.72,0,0,0,1.29-4.95,8.72,8.72,0,0,0,0-2.28A7.23,7.23,0,0,0,50.05,832.2Z"/><path class="cls-2" d="M25.67,821.84a11.74,11.74,0,0,0-.11-8.59,13.71,13.71,0,0,0-8.31-7.62A13.74,13.74,0,0,0,6,806.52,11.85,11.85,0,0,0,.2,815a15.58,15.58,0,0,0,1.74,9.95,12.16,12.16,0,0,0,6.64,5.91,12.13,12.13,0,0,0,8.87-.58,15.56,15.56,0,0,0,7.38-6.59l.11-.17A13.37,13.37,0,0,0,25.67,821.84Z"/><path class="cls-3" d="M221.45,801.6l0,0,0-.07Z"/><path class="cls-3" d="M259.82,865.9a4.45,4.45,0,0,1-.57-.22c-2.59-1.16-4.06-4.43-4.2-9.06-8.77-16.84-18.08-33.46-28-49.72a9,9,0,0,1-4.55-3.61c9.23,14.91,17.94,30.15,26.2,45.59l.28.24a17.67,17.67,0,0,1,3.52,4.36,9.33,9.33,0,0,1,1.13,4.25c0,.16,0,.3,0,.46.56,1.07,1.12,2.13,1.67,3.2,6.65,12.89,13,26.08,17,39.86L274,899.9C270.5,888.14,265.35,876.87,259.82,865.9Z"/><path class="cls-3" d="M178.82,737.48q-13.57-17-28.38-32.89c-.23,0-.46.06-.69.08a8,8,0,0,1-2.18-.19q16.19,17.14,30.85,35.72c.28.12.58.22.85.35C179.08,739.56,178.93,738.54,178.82,737.48Z"/><path class="cls-3" d="M107.45,663.93a10.1,10.1,0,0,1-1.45,1.4q16.73,13.9,32,29.31a34.53,34.53,0,0,1-1.55-4.34Q122.54,676.53,107.45,663.93Z"/><path class="cls-3" d="M219.34,796c-.18-.73-.35-1.5-.49-2.29q-13.28-20.81-28-40.6a6.71,6.71,0,0,1-1,.26,8,8,0,0,1-.15,1c0,.12-.09.24-.12.36q13.37,17.94,25.52,36.84l.06,0A17.82,17.82,0,0,1,219.34,796Z"/><path class="cls-2" d="M259.25,865.68a4.45,4.45,0,0,0,.57.22c3.31,1.06,7.63-1,12.21-5,4.85-4.23,10.07-10.52,15-18s8.65-14.72,10.63-20.85,2.1-11.12-.62-13.63-7.83-1.88-13.86,1.58a47.89,47.89,0,0,0-9.37,7.23,68.39,68.39,0,0,0-15.57,23.6,47.5,47.5,0,0,0-3,11.46,29.41,29.41,0,0,0-.2,4.3C255.19,861.25,256.66,864.52,259.25,865.68Z"/><path class="cls-2" d="M252.51,853.48a17.67,17.67,0,0,0-3.52-4.36l-.28-.24a28.35,28.35,0,0,0-4.37-3.16c-.42-.25-.81-.47-1.23-.7L242,844.4c-.75-.4-1.54-.8-2.36-1.17a46.39,46.39,0,0,0-11-3.37c-8.07-1.43-15.66-.65-21,1.44s-8.57,5.44-8.61,9.11,2.94,7,7.47,9.7a53.57,53.57,0,0,0,17.53,6,63.88,63.88,0,0,0,9.88,1c.79,0,1.55,0,2.3,0l1.12,0,.92-.1a16.29,16.29,0,0,0,3-.67,18.07,18.07,0,0,0,2.26-1,17.63,17.63,0,0,1,2.47-.71,14.68,14.68,0,0,0,4.9-1.55,6,6,0,0,0,2.79-4.86c0-.16,0-.3,0-.46A9.33,9.33,0,0,0,252.51,853.48Z"/><path class="cls-2" d="M227.06,806.9a6.32,6.32,0,0,0,1.49.28c3.68.22,7.17-2.72,10.07-7.36a64.1,64.1,0,0,0,7.7-37.67c-.84-5.4-2.89-9.47-6.37-10.72s-7.72.7-11.63,5.15-7.38,11.43-9.07,19.66a47.23,47.23,0,0,0-.4,17.48c.14.79.31,1.56.49,2.29.21.31.42.62.59.93a12.1,12.1,0,0,1,1.52,4.64l0,.07a17.07,17.07,0,0,0,1,1.64A9,9,0,0,0,227.06,806.9Z"/><path class="cls-2" d="M219.93,796.94c-.17-.31-.38-.62-.59-.93a17.82,17.82,0,0,0-4.2-4.43l-.06,0a22.7,22.7,0,0,0-7.46-3.6,22.93,22.93,0,0,0-8.34-.68,17.45,17.45,0,0,0-6.85,2.2c-3.82,2.24-5.75,5.73-5.56,9.38s2.16,6.9,4.63,9.44a20.09,20.09,0,0,0,19.7,5.36,14.79,14.79,0,0,0,8.78-5.79,9.41,9.41,0,0,0,1.47-6.25v0A12.1,12.1,0,0,0,219.93,796.94Z"/><path class="cls-2" d="M184.64,743.74c3.63,2.86,5.51,6.34,5.19,9.64a6.71,6.71,0,0,0,1-.26,9.52,9.52,0,0,0,3.33-2,19.89,19.89,0,0,0,2.36-2.57c.37-.49.74-1,1.1-1.57s.75-1.14,1.1-1.75a57,57,0,0,0,4-8.55,100.17,100.17,0,0,0,5.37-21.48,57.4,57.4,0,0,0,.53-9.41q0-1.07-.15-2.07c-.05-.65-.13-1.29-.23-1.9a19.8,19.8,0,0,0-.87-3.38,8.12,8.12,0,0,0-3.49-4.52,6.87,6.87,0,0,0-5.74-.21,13.66,13.66,0,0,0-3.38,1.75c-.57.39-1.16.83-1.75,1.32s-1.14,1-1.72,1.61a39,39,0,0,0-6.47,9,55.21,55.21,0,0,0-6.32,25.26,44.68,44.68,0,0,0,.3,4.87c.11,1.06.26,2.08.45,3.07A24.83,24.83,0,0,1,184.64,743.74Z"/><path class="cls-2" d="M189.83,753.38c.32-3.3-1.56-6.78-5.19-9.64a24.83,24.83,0,0,0-5.37-3.19c-.27-.13-.57-.23-.85-.35a34.85,34.85,0,0,0-10.7-2.46c-7-.48-13.61,1-18.2,4a16.3,16.3,0,0,0-3,2.36,11.07,11.07,0,0,0-2,2.64,7.33,7.33,0,0,0-.75,5.47,10.79,10.79,0,0,0,2.81,4.7,17.19,17.19,0,0,0,2.19,1.92,22.49,22.49,0,0,0,2.61,1.66,39.57,39.57,0,0,0,30,1.85c4.12-1.64,7.18-4.19,8.15-7.6,0-.12.09-.24.12-.36A8,8,0,0,0,189.83,753.38Z"/><path class="cls-2" d="M149.75,704.67c.23,0,.46,0,.69-.08,7-1.07,11.94-11.9,11.17-24.75-.8-13.27-7.4-23.67-14.75-23.23S134.21,668.16,135,681.44a41.92,41.92,0,0,0,1.48,8.86,34.53,34.53,0,0,0,1.55,4.34l.39.85a9.91,9.91,0,0,1,1.47,2.67c2.14,3.38,4.8,5.65,7.67,6.32A8,8,0,0,0,149.75,704.67Z"/><path class="cls-2" d="M134.79,692.16a22.14,22.14,0,0,0-7.5-3,29.65,29.65,0,0,0-18.55,2.3,22,22,0,0,0-6.53,4.71c-3.33,3.58-4.34,7.64-3,11s4.7,5.65,8.59,6.95A32.54,32.54,0,0,0,133.67,711c3.46-2.2,6.14-5.15,6.66-8.81a8.3,8.3,0,0,0-.43-4,9.91,9.91,0,0,0-1.47-2.67A14.38,14.38,0,0,0,134.79,692.16Z"/><path class="cls-2" d="M107.45,663.93a10.28,10.28,0,0,0,2.24-5,13.47,13.47,0,0,0-.55-6.34,17,17,0,0,0-9.79-10.34,13.37,13.37,0,0,0-6.3-.9,10.25,10.25,0,0,0-8.46,6.14,19.78,19.78,0,0,0-1.34,9.95c.34,3,1.11,5.48,2.78,7.22s4,2.66,7,3.17a19.68,19.68,0,0,0,10-.8,10.88,10.88,0,0,0,2.9-1.68A10.1,10.1,0,0,0,107.45,663.93Z"/><path class="cls-4" d="M490.73,290.35a1.49,1.49,0,0,1,1.89,1l13.21,40.59c.18-.1.37-.21.56-.3l.14-.07c-.09-5-.15-10.46-.15-16,0-7.72.12-15.58.48-22.35.4-7.65.6-26.14.77-47.39s.32-45.32.66-64.24c.07-3.8.14-7.39.23-10.71a24.17,24.17,0,0,1-5.89,3.84,31.74,31.74,0,0,1-13.47,2.7c-14.58,0-24.73-3.55-31.6-7.76.43,6.66.95,14.65,1.52,23.45,1.64,25,3.76,56.37,5.68,82.19q.76,10.26,1.22,19.08c.18,1.28.36,2.58.55,3.91Z"/><path class="cls-2" d="M645.28,1080.57a53.16,53.16,0,0,1,9.11,16.43h71.17a47.6,47.6,0,0,1-32.87-38.83,49.2,49.2,0,0,1-.45-5.74c0-.22,0-.48,0-.79,0-1.22.06-2.4.15-3.57h0a47.52,47.52,0,0,1,94.78,0h0c.08,1.17.14,2.35.14,3.57,0,.31,0,.57,0,.79a47.11,47.11,0,0,1-.45,5.74h0A47.57,47.57,0,0,1,754,1097h56.31V838.1h-4.1a12.28,12.28,0,0,1-7.76-2.76A206.08,206.08,0,0,0,762.3,867a29.53,29.53,0,0,1-31.86,47.11A203.61,203.61,0,0,0,710,992.69c-.87,0-1.74-.07-2.62-.07a87.49,87.49,0,0,0-85.78,70.31A59.34,59.34,0,0,1,645.28,1080.57Z"/><path class="cls-2" d="M1078.47,1051.06a48.94,48.94,0,0,1,48.94-48.95h57.64l-2.67-78.43-1.34-.95a135.12,135.12,0,0,0-72.29-24.36A196.31,196.31,0,0,1,841.16,838.1h-9L823.32,1097h287.19A49,49,0,0,1,1078.47,1051.06Z"/><path class="cls-2" d="M1201.35,1002.11h33.92a135,135,0,0,0-14.7-36.5c-.34-.57-.68-1.15-1-1.72a135.65,135.65,0,0,0-18.19-23.74Z"/><path class="cls-2" d="M428.48,1056.55h0l11.77,1.59h0a75.25,75.25,0,0,1,16.34,4.47c14.46-10.46,38.62-17.32,66-17.32a154.89,154.89,0,0,1,23.88,1.81c-.06-2.77-.1-5.39-.13-7.78a13.11,13.11,0,0,1-5.77-4.7,135.44,135.44,0,0,0-53.17-15.41A132.19,132.19,0,0,0,461,923.15c-3.45,21.78-6.69,41.42-9.57,58.2-4.44,25.82-8,44.87-10.31,54.67-.61,2.62-1.12,4.57-1.55,5.88a8.61,8.61,0,0,1-.69,1.64,8.1,8.1,0,0,1-2.71,2.59,14.36,14.36,0,0,1-3.79,1.56,28.54,28.54,0,0,1-4.1.74l-.8,8Z"/><path class="cls-2" d="M385.13,1092.69c-.4-3.78-.55-8.88-.55-14.45,0-6,.18-12.6.4-18.59h0c.25-6.65.57-12.58.78-16.24-3.12-.73-5-1.24-5-1.24a1.5,1.5,0,0,1-1.11-1.48s0-.83.05-2.42.08-3.94.15-7c.12-6.07.3-14.91.51-25.94.43-22.07,1-52.94,1.56-88.13.22-13.82.45-28.32.66-43.2A132.51,132.51,0,0,0,274,899.9l-1.68,1.35a132.85,132.85,0,0,0-29.46,33.91c-1.11,0-2.21,0-3.32,0a128.84,128.84,0,0,0-31,3.78c-.75.18-1.51.38-2.25.58A128.61,128.61,0,0,0,115.39,1097h270.5A27,27,0,0,1,385.13,1092.69Z"/><path class="cls-5" d="M548.42,1087.69c-.7-6.66-1.17-15.51-1.49-24.43-.2-5.53-.34-11.09-.43-16.16a154.89,154.89,0,0,0-23.88-1.81c-27.37,0-51.53,6.86-66,17.32a59.47,59.47,0,0,1,24.54,18,53.16,53.16,0,0,1,9.11,16.43H550c-.11-.36-.22-.74-.32-1.15A65.06,65.06,0,0,1,548.42,1087.69Z"/><path d="M487.11,1097c-.28-.8-.68-1.83-1.22-3a52.64,52.64,0,0,0-7.06-11.5c-7-8.66-18.86-18.13-39-21.34l-11.36-1.54a14.38,14.38,0,0,1-3,.88h-.05a180.19,180.19,0,0,1-23.86,1.89q-4.51,0-9.06-.4c-1.52-.13-3.05-.31-4.59-.52-.19,5.51-.34,11.39-.34,16.82a125.07,125.07,0,0,0,.71,15.51,15.45,15.45,0,0,0,.58,2.76,3.72,3.72,0,0,0,.2.49h98Z"/><path d="M456.63,1062.61a75.25,75.25,0,0,0-16.34-4.47h0l-11.77-1.59a1.5,1.5,0,0,1,.39,2.86l-.4.16,11.36,1.54c20.14,3.21,32,12.68,39,21.34a52.64,52.64,0,0,1,7.06,11.5c.54,1.22.94,2.25,1.22,3h3.17a53.16,53.16,0,0,0-9.11-16.43A59.47,59.47,0,0,0,456.63,1062.61Z"/><path d="M425.43,1060.45a180.19,180.19,0,0,1-23.86,1.89A180.19,180.19,0,0,0,425.43,1060.45Z"/><path d="M401.57,1062.34q-4.51,0-9.06-.4Q397.06,1062.35,401.57,1062.34Z"/><path d="M388.29,1093.75a125.07,125.07,0,0,1-.71-15.51c0-5.43.15-11.31.34-16.82-.56-.08-1.11-.14-1.67-.23a1.51,1.51,0,0,1-1.27-1.54h0c-.22,6-.4,12.56-.4,18.59,0,5.57.15,10.67.55,14.45a27,27,0,0,0,.76,4.31h3.18a3.72,3.72,0,0,1-.2-.49A15.45,15.45,0,0,1,388.29,1093.75Z"/><path class="cls-2" d="M388,1058.41a96.69,96.69,0,0,0,13.54.93,172.44,172.44,0,0,0,22.8-1.78h0l.89-8.88c-.88,0-1.78.06-2.71.06-8.66,0-19.08-1.65-27.37-3.29-2.36-.47-4.54-.93-6.46-1.36,0,.49-.05,1-.08,1.55C388.45,1049,388.23,1053.46,388,1058.41Z"/><path d="M386.25,1061.19c.56.09,1.11.15,1.67.23,1.54.21,3.07.39,4.59.52q4.55.4,9.06.4a180.19,180.19,0,0,0,23.86-1.89h.05a14.38,14.38,0,0,0,3-.88l.4-.16a1.5,1.5,0,0,0-.39-2.86h0l-1-.13.8-8c-1,.11-2,.2-3,.25l-.89,8.88h0a172.44,172.44,0,0,1-22.8,1.78,96.69,96.69,0,0,1-13.54-.93c.2-5,.42-9.44.61-12.77,0-.55.05-1.06.08-1.55l-3-.68c-.21,3.66-.53,9.59-.78,16.24h0A1.51,1.51,0,0,0,386.25,1061.19Z"/><path class="cls-2" d="M549.89,1062c1,.27,2.08.49,3.14.66.81.14,1.62.24,2.44.32,1.35.13,2.7.22,4.07.22,9.63,0,19.71-3.08,28.75-6.55L585,1035.24c-1.83.65-4.41,1.53-7.42,2.4-6,1.75-13.78,3.51-20.87,3.52a30.25,30.25,0,0,1-7.36-.82C549.47,1046.64,549.63,1054.33,549.89,1062Z"/><path d="M546.93,1063.26a1.51,1.51,0,0,1,1.92-1.5c.34.1.69.17,1,.26-.26-7.69-.42-15.38-.5-21.68a20.56,20.56,0,0,1-2.52-.8l-.5-.22c0,2.39.07,5,.13,7.78C546.59,1052.17,546.73,1057.73,546.93,1063.26Z"/><path d="M585,1035.24l3.25,21.43c-9,3.47-19.12,6.55-28.75,6.55h0c10,0,20.55-3.34,29.87-7a1.55,1.55,0,0,1,1.14,0l.73.1-3.37-22.21C587.67,1034.25,586.64,1034.66,585,1035.24Z"/><path d="M555.47,1063c-.82-.08-1.63-.18-2.44-.32C553.84,1062.82,554.65,1062.92,555.47,1063Z"/><path d="M651.22,1097c-.29-.8-.68-1.83-1.22-3a53,53,0,0,0-7.06-11.5c-7-8.66-18.86-18.13-39-21.34l-12.39-1.68-1.53-.2c-9.34,3.61-20,7-30.47,7a42,42,0,0,1-9.54-1.06c.39,10.07,1,19.84,1.87,26a32.07,32.07,0,0,0,1,5,4.65,4.65,0,0,0,.32.78h98Z"/><path d="M589.41,1056.24c-9.32,3.64-19.84,7-29.87,7h0c-1.37,0-2.72-.09-4.07-.22-.82-.08-1.63-.18-2.44-.32-1.06-.17-2.1-.39-3.14-.66-.35-.09-.7-.16-1-.26a1.51,1.51,0,0,0-1.92,1.5c.32,8.92.79,17.77,1.49,24.43a65.06,65.06,0,0,0,1.26,8.16c.1.41.21.79.32,1.15h3.22a4.65,4.65,0,0,1-.32-.78,32.07,32.07,0,0,1-1-5c-.89-6.2-1.48-16-1.87-26a42,42,0,0,0,9.54,1.06c10.5,0,21.13-3.38,30.47-7l1.53.2,12.39,1.68c20.15,3.21,32,12.68,39,21.34A53,53,0,0,1,650,1094c.54,1.22.93,2.25,1.22,3h3.17a53.16,53.16,0,0,0-9.11-16.43,59.34,59.34,0,0,0-23.72-17.64,74.52,74.52,0,0,0-17.16-4.79h0l-13.08-1.77-.73-.1A1.55,1.55,0,0,0,589.41,1056.24Z"/><path d="M499.07,634.47h.11a1.5,1.5,0,0,1,1.32,1.66q-.54,4.7-1.09,9.41c2.72,30.53,5.89,65.51,9.27,101.7,8.74,93.59,18.93,195.28,26.73,248.78,2.22,15.27,4.26,26.64,6,32.63a23.61,23.61,0,0,0,1.2,3.43,9.89,9.89,0,0,0,5.41,4.67,23.89,23.89,0,0,0,8.76,1.41c6.18,0,13.22-1.48,18.92-3.08,4.9-1.37,8.81-2.81,10.39-3.42v-.05c.1-.58.25-1.47.45-2.66.39-2.39,1-6,1.71-10.92,1.48-9.83,3.62-24.87,6.25-45.65,5.26-41.58,12.46-106.16,20.24-198.2q1.13-13.26,2-26.55a97.71,97.71,0,0,1-9.74,5.5c-19.26,9.5-47.66,16.52-86.3,17a1.5,1.5,0,0,1-1.51-1.35c-8.06-82.39-10.75-178.3-10.75-269.61,0-24.9.2-49.46.55-73.31l-2.12.69Z"/><path d="M616.71,747.63q-.87,13.27-2,26.55c-7.78,92-15,156.62-20.24,198.2-2.63,20.78-4.77,35.82-6.25,45.65-.74,4.92-1.32,8.53-1.71,10.92-.2,1.19-.35,2.08-.45,2.66v.05c-1.58.61-5.49,2-10.39,3.42-5.7,1.6-12.74,3.08-18.92,3.08a23.89,23.89,0,0,1-8.76-1.41,9.89,9.89,0,0,1-5.41-4.67,23.61,23.61,0,0,1-1.2-3.43c-1.71-6-3.75-17.36-6-32.63-7.8-53.5-18-155.19-26.73-248.78-3.38-36.19-6.55-71.17-9.27-101.7-.56,4.83-1.14,9.67-1.71,14.51,3.74,41.76,8.18,90.34,12.82,138.4,5.39,55.86,11.05,111,16.19,154,2.56,21.47,5,39.88,7.21,53.81,1.11,7,2.16,12.82,3.14,17.38q.74,3.42,1.43,5.87a27.11,27.11,0,0,0,1.39,3.92l0,0a11.61,11.61,0,0,0,.7,1.19,13.11,13.11,0,0,0,5.77,4.7l.5.22a20.56,20.56,0,0,0,2.52.8,30.25,30.25,0,0,0,7.36.82c7.09,0,14.84-1.77,20.87-3.52,3-.87,5.59-1.75,7.42-2.4,1.6-.58,2.63-1,2.87-1.08l.05,0a1.47,1.47,0,0,0,.91-1.12c0-.06,13.28-74.43,28.84-258.57q1.21-14.48,2.15-29C618.85,746.21,617.81,746.92,616.71,747.63Z"/><path d="M400.51,772.89c-4.87-.34-9.49-.78-13.76-1.34-1.05,120.67-3.82,254.16-4.12,268l2.92.72c2.54.61,6.12,1.42,10.21,2.23,8.19,1.62,18.5,3.23,26.79,3.23a42.47,42.47,0,0,0,7.13-.52,14.6,14.6,0,0,0,4.95-1.65,5.08,5.08,0,0,0,1.72-1.61,7.78,7.78,0,0,0,.39-1c.19-.58.42-1.38.68-2.36.51-2,1.14-4.69,1.86-8.09,1.45-6.8,3.29-16.33,5.42-28.14,4.27-23.63,9.74-56.39,15.75-94.85,6.25-40.09,13.09-86.39,19.75-135-11.07.57-29,1.31-47.53,1.31C421.77,773.84,410.63,773.59,400.51,772.89Z"/><path d="M497.52,635.79a1.5,1.5,0,0,1,1.55-1.32l7.77-208L488,432.62c2.12,17.28,3.84,35.06,4.85,53,2.59,45.88,3.45,92.82,3.45,135,0,9.07,0,17.92-.11,26.5Q496.88,641.47,497.52,635.79Z"/><path d="M380.32,1005.35c-.21,11-.39,19.87-.51,25.94-.07,3-.12,5.39-.15,7s-.05,2.41-.05,2.42a1.5,1.5,0,0,0,1.11,1.48s1.92.51,5,1.24l3,.68c1.92.43,4.1.89,6.46,1.36,8.29,1.64,18.71,3.29,27.37,3.29.93,0,1.83,0,2.71-.06,1.06,0,2.06-.14,3-.25a28.54,28.54,0,0,0,4.1-.74,14.36,14.36,0,0,0,3.79-1.56,8.1,8.1,0,0,0,2.71-2.59,8.61,8.61,0,0,0,.69-1.64c.43-1.31.94-3.26,1.55-5.88,2.27-9.8,5.87-28.85,10.31-54.67,2.88-16.78,6.12-36.42,9.57-58.2,6.91-43.55,14.68-95.7,22.23-150.78l-3.05.16c-6.66,48.6-13.5,94.9-19.75,135-6,38.46-11.48,71.22-15.75,94.85-2.13,11.81-4,21.34-5.42,28.14-.72,3.4-1.35,6.12-1.86,8.09-.26,1-.49,1.78-.68,2.36a7.78,7.78,0,0,1-.39,1,5.08,5.08,0,0,1-1.72,1.61,14.6,14.6,0,0,1-4.95,1.65,42.47,42.47,0,0,1-7.13.52c-8.29,0-18.6-1.61-26.79-3.23-4.09-.81-7.67-1.62-10.21-2.23l-2.92-.72c.3-13.85,3.07-147.34,4.12-268-1-.14-2-.28-3-.43-.3,34.27-.74,69.57-1.22,102.9-.21,14.88-.44,29.38-.66,43.2C381.31,952.41,380.75,983.28,380.32,1005.35Z"/><path d="M499.41,645.54q.55-4.71,1.09-9.41a1.5,1.5,0,0,0-1.32-1.66h-.11a1.5,1.5,0,0,0-1.55,1.32q-.64,5.67-1.32,11.36c-.08,9.79-.2,19.21-.35,28.19q.93-7.65,1.85-15.29C498.27,655.21,498.85,650.37,499.41,645.54Z"/><path class="cls-6" d="M396.85,320.89l32.65-10.62,10.15-77.63-20.28-64.93c-6.44,3.5-13.21,7.41-19.28,11.34l-.39.25-3.8,120a1.38,1.38,0,0,1,.64.16,1.5,1.5,0,0,1,.64,2c-2.42,4.66-4.56,11.38-6.35,18.87s-3.27,15.78-4.44,23.65c-.66,4.43-1.22,8.72-1.7,12.68a30.09,30.09,0,0,1,5.08-2A74.38,74.38,0,0,1,401,352.52c1.41-.18,2.88-.34,4.37-.49l-9.52-29.25A1.49,1.49,0,0,1,396.85,320.89Z"/><path class="cls-6" d="M438.45,448.75a1.5,1.5,0,0,1-1.89-1l-6.49-19.93a199.82,199.82,0,0,1-52.5,8.89c-.08,1.95-.17,3.94-.26,6-.87,19.69-2.07,44.12-3.4,70.63-2.67,53-5.87,114.34-8,162.7-1.43,32.24-2.38,58.73-2.38,73.09,0,2.73,0,5,.11,6.81a30.59,30.59,0,0,0,.31,3.79,4.39,4.39,0,0,0,1.67,2.51,16.21,16.21,0,0,0,4.47,2.49A72.63,72.63,0,0,0,386,768.43c13.05,1.82,30.11,2.41,46.65,2.41,26.3,0,51.33-1.49,57.26-1.87,0-.45.05-1,.08-1.64.1-2,.23-4.83.39-8.55.33-7.45.76-18.25,1.19-31.69.86-26.88,1.72-64.29,1.72-106.44s-.86-89-3.44-134.84c-1-17.68-2.69-35.2-4.77-52.24Zm-15.24,30c-.07.34-.16.75-.29,1.22-.24.95-.6,2.17-1.09,3.63a114,114,0,0,1-4.35,11.08c-3.88,8.64-9.75,19.2-17.8,28a1.5,1.5,0,0,1-2.21-2c10.79-11.82,17.71-27.23,20.87-36.13a56.29,56.29,0,0,0,1.91-6.28,3.15,3.15,0,0,0,.07-.48h0a1.5,1.5,0,0,1,3,0A5.22,5.22,0,0,1,423.21,478.71Z"/><path d="M445.31,152.17a1.29,1.29,0,0,0-.48,0,4.74,4.74,0,0,0-.72.18c-.95.31-2.49.95-4.6,1.9-2.68,1.2-6.24,2.9-10.28,4.93Z"/><path d="M399.19,176.09a1.5,1.5,0,0,1,1.14,2.78c-.21.08-.41.18-.62.27v.16l.39-.25c6.07-3.93,12.84-7.84,19.28-11.34l-.76-2.46a1.49,1.49,0,0,1-.06-.51c-4.28,2.31-8.73,4.82-13,7.41-2.2,1.32-4.36,2.65-6.45,4l.13-.06Z"/><path d="M466,294.31q.11,2.06.21,4l.34-.11C466.34,296.89,466.16,295.59,466,294.31Z"/><path d="M386.75,771.55c4.27.56,8.89,1,13.76,1.34,10.12.7,21.26,1,32.16,1,18.56,0,36.46-.74,47.53-1.31l3.05-.16c5.15-.29,8.21-.5,8.22-.5a1.5,1.5,0,0,0,1.39-1.42s2.05-38.77,3-95.11c.15-9,.27-18.4.35-28.19.07-8.58.11-17.43.11-26.5,0-42.19-.86-89.13-3.45-135-1-18-2.73-35.74-4.85-53l-2.91.95c2.08,17,3.77,34.56,4.77,52.24,2.58,45.81,3.44,92.69,3.44,134.84s-.86,79.56-1.72,106.44c-.43,13.44-.86,24.24-1.19,31.69-.16,3.72-.29,6.6-.39,8.55,0,.65-.06,1.19-.08,1.64-5.93.38-31,1.87-57.26,1.87-16.54,0-33.6-.59-46.65-2.41a72.63,72.63,0,0,1-15.93-3.68,16.21,16.21,0,0,1-4.47-2.49,4.39,4.39,0,0,1-1.67-2.51,30.59,30.59,0,0,1-.31-3.79c-.07-1.79-.11-4.08-.11-6.81,0-14.36,1-40.85,2.38-73.09,2.13-48.36,5.33-109.69,8-162.7,1.33-26.51,2.53-50.94,3.4-70.63.09-2.05.18-4,.26-6-1,0-2,.07-3,.08-.35,8.12-.76,17.16-1.23,26.94-2.13,45.1-5.33,105.61-8,160.26s-4.8,103.42-4.81,125.13c0,2.75,0,5.07.11,6.93a33.31,33.31,0,0,0,.36,4.21,7.34,7.34,0,0,0,2.68,4.26c2.42,2,6.07,3.5,10.68,4.71a95.38,95.38,0,0,0,9.4,1.86C384.73,771.27,385.73,771.41,386.75,771.55Z"/><path class="cls-6" d="M501.37,171.93a21.45,21.45,0,0,0,7.27-5.47c.17-5.71.37-10.38.63-13.61.05-.71.11-1.35.17-1.92-2.45-1-4.18-1.63-4.49-1.74l-.05,0a1.5,1.5,0,0,1-1-1.23l-2.7-21.63c-.45-.19-1.06-.45-1.76-.77a50.53,50.53,0,0,1-5-2.56,14.07,14.07,0,0,1-2.81-2.09,3.62,3.62,0,0,1-1-1.65,1.5,1.5,0,0,1,1.36-1.85l9.6-.6h.22l.42,0a14.12,14.12,0,0,0,1.62-.24,20.63,20.63,0,0,0,5.46-1.93c4.29-2.22,9.51-6.6,13.15-15.69v0c1.92-4.51,3-11.63,3-19.84a109.18,109.18,0,0,0-4.11-29.1c-.38-.65-.86-1.44-1.51-2.41A132.2,132.2,0,0,0,509.48,34.2c0,1,.07,2.09.07,3.12,0,16.38-6,28.64-13.15,34.95A18.71,18.71,0,0,1,489,76.48a10.76,10.76,0,0,1-2.7.4,5.56,5.56,0,0,1-1.8-.28,4.15,4.15,0,0,1-1.46-.91,5.66,5.66,0,0,1-1.43-2.76,16.52,16.52,0,0,1-.37-2.07c-.13-1-.23-2-.38-3a18.42,18.42,0,0,0-1-4.06,11.25,11.25,0,0,0-3.69-4.93A10.6,10.6,0,0,0,474,57.58a3.6,3.6,0,0,0-1.48-.38,1.66,1.66,0,0,0-.78.18A2.3,2.3,0,0,0,471,58a8.56,8.56,0,0,0-1.52,3.24c-.89,3.11-1.35,8-1.34,14.5,0,4.82.24,10.52.7,17,.09,1.25.13,2.43.13,3.54,0,4.56-.71,8-2,10.55a10.49,10.49,0,0,1-3.76,4.25,204.17,204.17,0,0,1,2,25.51,89.82,89.82,0,0,1-.67,11.4,1.9,1.9,0,0,1-.29.78,2.83,2.83,0,0,1-.36.44,5.37,5.37,0,0,1-.78.63,21,21,0,0,1-2.12,1.21c-1.29.65-2.87,1.36-4.5,2.07.13,2.11.32,5.1.56,8.82.08,1.22.16,2.53.25,3.9,6.34,4.39,16.34,8.49,31.84,8.5A28.85,28.85,0,0,0,501.37,171.93Z"/><path d="M503.46,126.47a1.51,1.51,0,0,1-1.45.19l-.82-.35,2.7,21.63a1.5,1.5,0,0,0,1,1.23l.05,0c.31.11,2,.72,4.49,1.74.07-.66.15-1.24.23-1.72A6.29,6.29,0,0,1,510,148a.35.35,0,0,1,0-.08c-1.41-.58-2.54-1-3.26-1.27l-2.7-21.54v0A1.51,1.51,0,0,1,503.46,126.47Z"/><path d="M524,53.07a1.49,1.49,0,0,1-1.45-1h0v0l-.07-.16c-.06-.15-.18-.41-.37-.78s-.38-.71-.65-1.18A109.18,109.18,0,0,1,525.51,79c0,8.21-1.11,15.33-3,19.84v0c-3.64,9.09-8.86,13.47-13.15,15.69a20.63,20.63,0,0,1-5.46,1.93,14.12,14.12,0,0,1-1.62.24l-.42,0h.07a1.51,1.51,0,0,1,1.59,1.37l.12,1.45a23.37,23.37,0,0,0,7.09-2.35c4.87-2.49,10.68-7.52,14.55-17.22h0v0h0c2.17-5.13,3.25-12.51,3.26-21a111.53,111.53,0,0,0-3.34-26.64A1.48,1.48,0,0,1,524,53.07Z"/><path d="M502.63,174.65a24.17,24.17,0,0,0,5.89-3.84c0-1.5.07-3,.12-4.35a21.45,21.45,0,0,1-7.27,5.47,28.85,28.85,0,0,1-12.21,2.42c-15.5,0-25.5-4.11-31.84-8.5.08,1.19.15,2.44.24,3.74,6.87,4.21,17,7.77,31.6,7.76A31.74,31.74,0,0,0,502.63,174.65Z"/><path d="M456.49,152.86c0,.08,0,.18,0,.27,1.63-.71,3.21-1.42,4.5-2.07a21,21,0,0,0,2.12-1.21,5.37,5.37,0,0,0,.78-.63,2.83,2.83,0,0,0,.36-.44,1.9,1.9,0,0,0,.29-.78,89.82,89.82,0,0,0,.67-11.4,204.17,204.17,0,0,0-2-25.51l-.39.22.18.77,0,.24c0,.43.06,1.16.09,2.16s.06,2.27.09,3.71c.06,2.86.12,6.4.17,9.84.11,6.88.2,13.39.2,13.39a1.52,1.52,0,0,1-1.18,1.49L462,143c-.09,1.43-.22,2.84-.39,4.24l-.09.07a13.68,13.68,0,0,1-1.42.84c-1,.54-2.37,1.17-3.81,1.8C456.34,150.43,456.4,151.41,456.49,152.86Z"/><path d="M460.54,138.24c0-2-.06-4.69-.11-7.62-.09-5.85-.2-12.58-.3-16.05,0-.89-.05-1.56-.08-1.92l-.43-1.8a1.51,1.51,0,0,1,.9-1.75,7.11,7.11,0,0,0,3.78-3.62c1-2,1.68-4.94,1.68-9.19q0-1.55-.12-3.33c-.47-6.57-.71-12.33-.71-17.25a84.85,84.85,0,0,1,.6-11.07,21.32,21.32,0,0,1,2-7.24,6.17,6.17,0,0,1,2.65-2.72,4.74,4.74,0,0,1,2.09-.48,6.66,6.66,0,0,1,2.7.64,13.71,13.71,0,0,1,2.75,1.7,14.46,14.46,0,0,1,5,7.17,36,36,0,0,1,1.21,6.68,9.46,9.46,0,0,0,.63,2.71,1.24,1.24,0,0,0,.44.55,1.69,1.69,0,0,0,1,.23,7.83,7.83,0,0,0,1.94-.3A15.74,15.74,0,0,0,494.42,70a30.16,30.16,0,0,0,6-7.48c3.61-6.21,6.18-14.8,6.17-25.22a68.8,68.8,0,0,0-.4-7.31,1.5,1.5,0,0,1,2.61-1.16c8.17,9.1,12.37,14.93,14.49,18.33a46.64,46.64,0,0,0,.49-6.68,37.07,37.07,0,0,0-4.27-17.87c-3.35-6.07-9.08-11.75-19-15.49A60.66,60.66,0,0,0,479.35,3a39.16,39.16,0,0,0-15.51,3,33.85,33.85,0,0,0-13,9.9c-7.55,9.23-12.57,24.27-12.57,47.19a201.62,201.62,0,0,0,1.68,25,1.51,1.51,0,0,1-.3,1.1,110.39,110.39,0,0,0-13.18,21c-2.71,6-3.85,10.92-3.85,14.94A15.81,15.81,0,0,0,424.5,133a14.75,14.75,0,0,0,5.1,5.26c4.31,2.76,10.37,4,16.72,4a53.4,53.4,0,0,0,7.24-.51l7-1.52C460.56,139.71,460.55,139,460.54,138.24Z"/><path d="M463.59,141.42s-.09-6.51-.2-13.39c-.05-3.44-.11-7-.17-9.84,0-1.44-.06-2.7-.09-3.71s-.06-1.73-.09-2.16l0-.24-.18-.77.39-.22a10.49,10.49,0,0,0,3.76-4.25c1.3-2.56,2-6,2-10.55,0-1.11,0-2.29-.13-3.54-.46-6.52-.7-12.22-.7-17,0-6.47.45-11.39,1.34-14.5A8.56,8.56,0,0,1,471,58a2.3,2.3,0,0,1,.74-.59,1.66,1.66,0,0,1,.78-.18,3.6,3.6,0,0,1,1.48.38,10.6,10.6,0,0,1,2.12,1.33,11.25,11.25,0,0,1,3.69,4.93,18.42,18.42,0,0,1,1,4.06c.15,1,.25,2,.38,3a16.52,16.52,0,0,0,.37,2.07A5.66,5.66,0,0,0,483,75.69a4.15,4.15,0,0,0,1.46.91,5.56,5.56,0,0,0,1.8.28,10.76,10.76,0,0,0,2.7-.4,18.71,18.71,0,0,0,7.43-4.21c7.13-6.31,13.14-18.57,13.15-34.95,0-1,0-2.07-.07-3.12a132.2,132.2,0,0,1,10.41,13.31c.65,1,1.13,1.76,1.51,2.41.27.47.49.87.65,1.18s.31.63.37.78l.07.16v0h0a1.49,1.49,0,0,0,2.67.32,1.34,1.34,0,0,0,.19-.4,46.39,46.39,0,0,0,1.38-11.48,40.18,40.18,0,0,0-4.64-19.32c-3.66-6.66-10.05-12.9-20.57-16.85A63.69,63.69,0,0,0,479.35,0a42.22,42.22,0,0,0-16.69,3.24C454.77,6.61,447.85,12.85,443,22.6s-7.74,23-7.74,40.49a203.74,203.74,0,0,0,1.63,24.71,112.32,112.32,0,0,0-13.16,21.1c-2.84,6.25-4.12,11.59-4.12,16.18a19,19,0,0,0,2.29,9.39A19.51,19.51,0,0,0,432,142.84a39.15,39.15,0,0,0,14.29,2.43,56.84,56.84,0,0,0,7.7-.54l.11,0L462,143l.39-.08A1.52,1.52,0,0,0,463.59,141.42Zm-10,.34a53.4,53.4,0,0,1-7.24.51c-6.35,0-12.41-1.25-16.72-4a14.75,14.75,0,0,1-5.1-5.26,15.81,15.81,0,0,1-1.91-7.92c0-4,1.14-9,3.85-14.94a110.39,110.39,0,0,1,13.18-21,1.51,1.51,0,0,0,.3-1.1,201.62,201.62,0,0,1-1.68-25c0-22.92,5-38,12.57-47.19a33.85,33.85,0,0,1,13-9.9,39.16,39.16,0,0,1,15.51-3,60.66,60.66,0,0,1,21.12,4.14c9.92,3.74,15.65,9.42,19,15.49a37.07,37.07,0,0,1,4.27,17.87,46.64,46.64,0,0,1-.49,6.68c-2.12-3.4-6.32-9.23-14.49-18.33A1.5,1.5,0,0,0,506.15,30a68.8,68.8,0,0,1,.4,7.31c0,10.42-2.56,19-6.17,25.22a30.16,30.16,0,0,1-6,7.48,15.74,15.74,0,0,1-6.21,3.56,7.83,7.83,0,0,1-1.94.3,1.69,1.69,0,0,1-1-.23,1.24,1.24,0,0,1-.44-.55,9.46,9.46,0,0,1-.63-2.71A36,36,0,0,0,483,63.71a14.46,14.46,0,0,0-5-7.17,13.71,13.71,0,0,0-2.75-1.7,6.66,6.66,0,0,0-2.7-.64,4.74,4.74,0,0,0-2.09.48,6.17,6.17,0,0,0-2.65,2.72,21.32,21.32,0,0,0-2,7.24,84.85,84.85,0,0,0-.6,11.07c0,4.92.24,10.68.71,17.25q.12,1.79.12,3.33c0,4.25-.68,7.21-1.68,9.19a7.11,7.11,0,0,1-3.78,3.62,1.51,1.51,0,0,0-.9,1.75l.43,1.8c0,.36.05,1,.08,1.92.1,3.47.21,10.2.3,16.05.05,2.93.09,5.64.11,7.62,0,.8,0,1.47,0,2Z"/><path class="cls-6" d="M534.38,359a10.9,10.9,0,0,1-1.23,5.52,24.27,24.27,0,0,1-3.81,4.7,52.64,52.64,0,0,1-5.31,4.56c-1.21.91-2.47,1.79-3.73,2.62l13,39.94a1.51,1.51,0,0,1-1,1.89L512,424.83c-.35,24.16-.56,49.05-.56,74.29,0,90.74,2.66,186,10.61,267.94,28.07-.44,50.54-4.39,67.82-10.18,17.57-5.88,29.78-13.65,37.12-21.44,4.9-5.2,7.62-10.38,8.41-15a24.49,24.49,0,0,0,.22-2.88c0-1.39.08-3.18.08-5.33,0-22.62-2.9-85-7.86-158.78-.9-13.49-1.88-27.37-2.91-41.44-1,1.64-1.65,2.52-1.66,2.54a1.49,1.49,0,0,1-2.31.2s-1.76-1.81-4.36-4.91a116.64,116.64,0,0,1-9,16.47l7.76,1.06a1.5,1.5,0,1,1-.41,3l-11.2-1.53a1.44,1.44,0,0,1-.68-.29,7.06,7.06,0,0,1-.81-.29,9.25,9.25,0,0,1-2.37-1.58,18.94,18.94,0,0,1-3.74-5.13A66.19,66.19,0,0,1,591,506.89a173.59,173.59,0,0,1-3.52-20.95l-3-15.85a1.5,1.5,0,1,1,2.94-.57l2.28,11.81,5.22-9.63c-.57-2-1.06-4-1.43-6a1.33,1.33,0,0,1,0-.4c1.9-21.32,4.38-36.72,6.38-49.88s3.51-24,3.51-36.43a165.07,165.07,0,0,0-1-17.36c-3.25-31-8-67.6-9.13-76.26-.16-1.24-.25-1.91-.25-1.91a1.5,1.5,0,0,1,.92-1.58l-48-118.32-11.57,55.12,23,87.82a1.49,1.49,0,0,1-.43,1.48l-31,29.11a37,37,0,0,1,5.17,8.37A34.92,34.92,0,0,1,534.38,359Zm-10.67,77.17a4.19,4.19,0,1,1-4.18,4.18A4.18,4.18,0,0,1,523.71,436.15Zm4.19,53.29a4.19,4.19,0,1,1-4.19-4.19A4.18,4.18,0,0,1,527.9,489.44Zm-8.37,57.81a4.19,4.19,0,1,1,4.18,4.18A4.18,4.18,0,0,1,519.53,547.25ZM529.09,609a4.19,4.19,0,1,1,4.18-4.18A4.18,4.18,0,0,1,529.09,609Z"/><path d="M528.5,150.92l4.35,1C531.28,151.49,529.82,151.16,528.5,150.92Z"/><path d="M548.79,159.06l-.92-.56c-.27-.17-.54-.31-.81-.47l-.07.34C547.59,158.59,548.19,158.83,548.79,159.06Z"/><path d="M624.9,512c1,14.07,2,28,2.91,41.44,5,73.74,7.86,136.16,7.86,158.78,0,2.15,0,3.94-.08,5.33a24.49,24.49,0,0,1-.22,2.88c-.79,4.59-3.51,9.77-8.41,15-7.34,7.79-19.55,15.56-37.12,21.44-17.28,5.79-39.75,9.74-67.82,10.18-7.95-81.92-10.61-177.2-10.61-267.94,0-25.24.21-50.13.56-74.29l-3,1c-.35,23.85-.55,48.41-.55,73.31,0,91.31,2.69,187.22,10.75,269.61a1.5,1.5,0,0,0,1.51,1.35c38.64-.43,67-7.45,86.3-17a97.71,97.71,0,0,0,9.74-5.5c1.1-.71,2.14-1.42,3.15-2.14a62.8,62.8,0,0,0,9.28-8c5.2-5.51,8.25-11.16,9.19-16.51a28.35,28.35,0,0,0,.26-3.28c0-1.45.08-3.27.08-5.44,0-16.23-1.47-52.44-4.1-98.56-1.81-31.76-4.18-68.21-7-106C626.51,509.47,625.6,510.93,624.9,512Z"/><path class="cls-6" d="M463.23,299.29c-.34-7.17-.81-15.11-1.46-23.83-3.46-46.52-7.56-111.1-8.34-123.56l-31.56,13.74,20.74,66.42a1.58,1.58,0,0,1,.05.65l-10,76.53Z"/><path d="M419.37,167.71l20.28,64.93L429.5,310.27l3.16-1,10-76.53a1.58,1.58,0,0,0-.05-.65l-20.74-66.42,31.56-13.74c.78,12.46,4.88,77,8.34,123.56.65,8.72,1.12,16.66,1.46,23.83l3-1q-.1-2-.21-4-.47-8.83-1.22-19.08c-1.92-25.82-4-57.24-5.68-82.19-.57-8.8-1.09-16.79-1.52-23.45-.09-1.3-.16-2.55-.24-3.74-.09-1.37-.17-2.68-.25-3.9-.24-3.72-.43-6.71-.56-8.82,0-.09,0-.19,0-.27-.09-1.45-.15-2.43-.18-2.92l0-.36a1.5,1.5,0,0,0-2.09-1.28l-8.88,3.87-16.08,7-9.79,4.26a1.53,1.53,0,0,0-.83,1.82Z"/><path d="M1193.36,1100h-65.95a48.81,48.81,0,0,1-16.9-3H823.32l-.05,1.55a1.5,1.5,0,0,1-1.5,1.45h-10a1.49,1.49,0,0,1-1.5-1.5V1097H754a47.51,47.51,0,0,1-28.39,0H105.67a1.5,1.5,0,0,0,0,3H1193.36Z"/><path class="cls-6" d="M381.4,359a361.17,361.17,0,0,1,6.15-37.8c1.91-8.23,4.18-15.69,7-21.08a1.48,1.48,0,0,1,1.38-.8l3.8-120v-.16c-8.41,3.61-17.17,11-25.81,21.72-8.86,11-17.61,25.45-25.85,42.8-11.23,23.65-21.52,52.68-30,85.61a1.51,1.51,0,0,1,.39,1.68l0,0Z"/><path d="M307.75,360.89q-1.65,8.08-3.15,16.39a1.5,1.5,0,0,0,1,1.7l.87.26c0-.37,0-.74,0-1.11A125.41,125.41,0,0,1,307.75,360.89Z"/><path d="M315.69,329.81a1.51,1.51,0,0,1,2-.82,1.45,1.45,0,0,1,.43.28c8.45-32.93,18.74-62,30-85.61,8.24-17.35,17-31.81,25.85-42.8,8.64-10.72,17.4-18.11,25.81-21.72.21-.09.41-.19.62-.27a1.5,1.5,0,0,0-1.14-2.78h0l-.13.06c-9.25,3.83-18.48,11.65-27.5,22.83-13.58,16.85-26.7,41.38-38.24,71.73a556.47,556.47,0,0,0-20.59,67.7c1.64-5.36,2.95-8.56,3-8.6Z"/><path d="M390.83,320.38c1.79-7.49,3.93-14.21,6.35-18.87a1.5,1.5,0,0,0-.64-2,1.38,1.38,0,0,0-.64-.16,1.48,1.48,0,0,0-1.38.8c-2.79,5.39-5.06,12.85-7,21.08A361.17,361.17,0,0,0,381.4,359l.07,0a1.4,1.4,0,0,1,.42-.55,15.42,15.42,0,0,1,2.8-1.78c.48-4,1-8.25,1.7-12.68C387.56,336.16,389,327.87,390.83,320.38Z"/><path class="cls-6" d="M492.64,341a35.69,35.69,0,0,1,7.62-6c1-.53,1.95-1.08,2.89-1.63l-12.92-39.71-91,29.61,9.26,28.48c6.6-.51,13.76-.72,20.93-.72,24.47,0,48.82,2.32,48.84,2.32a1.5,1.5,0,0,1,1.09.64s.37.54.95,1.52c.6-.81,1.29-1.73,2.06-2.72A119.3,119.3,0,0,1,492.64,341Z"/><path class="cls-6" d="M530,415.82,517.68,378a53.08,53.08,0,0,1-5.36,2.82,37,37,0,0,1-7.74,2.06c-3.06.54-6.45,1-9.63,1.32-1.69.18-3.31.33-4.78.46.16.84.32,1.7.47,2.59a1.5,1.5,0,0,1-.26,1.12c-12.19,17.17-31.68,29.25-53.22,37.07q-2.1.77-4.23,1.47l6,18.5Z"/><path d="M506.84,426.5l2.12-.69,3-1,20.36-6.62a1.51,1.51,0,0,0,1-1.89l-13-39.94c-.88.58-1.75,1.13-2.62,1.64L530,415.82l-91,29.61-6-18.5c-.95.32-1.9.62-2.86.92l6.49,19.93a1.5,1.5,0,0,0,1.89,1l46.65-15.18,2.91-.95Z"/><path d="M490.23,293.67l12.92,39.71c.89-.52,1.78-1,2.68-1.48l-13.21-40.59a1.49,1.49,0,0,0-1.89-1l-24.2,7.87-.34.11-3,1-30.57,9.95-3.16,1-32.65,10.62a1.49,1.49,0,0,0-1,1.89L405.41,352l3.06-.27-9.26-28.48Z"/><path class="cls-6" d="M590.57,486.27c0,.45.12,1.1.23,1.93.2,1.65.51,4,.94,6.68a126,126,0,0,0,4.15,18.26,34.76,34.76,0,0,0,4.57,9.76,8.09,8.09,0,0,0,3,2.62,4.57,4.57,0,0,0,.92.27A115.39,115.39,0,0,0,614.13,508c.1-.25.19-.49.28-.73-1.66-2.09-3.52-4.55-5.44-7.32a104.81,104.81,0,0,1-12.79-24.25L590.55,486C590.56,486.11,590.56,486.18,590.57,486.27Z"/><path d="M590.48,485.44a1.5,1.5,0,1,1-2.94.57l0-.07A173.59,173.59,0,0,0,591,506.89a66.19,66.19,0,0,0,5.05,14.66,18.94,18.94,0,0,0,3.74,5.13,9.25,9.25,0,0,0,2.37,1.58,7.06,7.06,0,0,0,.81.29,1.47,1.47,0,0,1-.6-1.4,1.49,1.49,0,0,1,1.69-1.28l3.44.47a116.64,116.64,0,0,0,9-16.47q-1-1.2-2.16-2.64c-.09.24-.18.48-.28.73a115.39,115.39,0,0,1-9.79,17.83,4.57,4.57,0,0,1-.92-.27,8.09,8.09,0,0,1-3-2.62,34.76,34.76,0,0,1-4.57-9.76,126,126,0,0,1-4.15-18.26c-.43-2.7-.74-5-.94-6.68-.11-.83-.18-1.48-.23-1.93,0-.09,0-.16,0-.23l5.63-10.38c-.46-1.31-.88-2.63-1.27-4l-5.22,9.63Z"/><path class="cls-6" d="M594.31,281.74A1.5,1.5,0,0,1,596,283s5.67,42.77,9.4,78.25a167.88,167.88,0,0,1,1,17.67c0,12.64-1.54,23.71-3.55,36.88s-4.45,28.38-6.33,49.48c2.19,11.87,8.47,23.38,14.39,32.06a133,133,0,0,0,10.94,13.94c.25-.38.53-.83.86-1.35,1.21-1.92,3-4.76,5.05-8.4A314.62,314.62,0,0,0,643,471c11.16-25.61,22.3-60.47,22.29-97.41a168.46,168.46,0,0,0-2.8-31,333.88,333.88,0,0,0-31.34-91.06c-14.23-27.49-31.57-51.09-50-67.78-11.38-10.32-23.16-18-34.83-22.35l-.46,2.18,48,118.32A1.56,1.56,0,0,1,594.31,281.74Z"/><path d="M546.37,161.34c11.67,4.37,23.45,12,34.83,22.35,18.42,16.69,35.76,40.29,50,67.78a333.88,333.88,0,0,1,31.34,91.06,168.46,168.46,0,0,1,2.8,31c0,36.94-11.13,71.8-22.29,97.41a314.62,314.62,0,0,1-15.33,30.58c-2.09,3.64-3.84,6.48-5.05,8.4-.33.52-.61,1-.86,1.35a133,133,0,0,1-10.94-13.94c-5.92-8.68-12.2-20.19-14.39-32.06,1.88-21.1,4.34-36.35,6.33-49.48s3.55-24.24,3.55-36.88a167.88,167.88,0,0,0-1-17.67C601.66,325.8,596,283,596,283a1.5,1.5,0,0,0-1.68-1.29,1.56,1.56,0,0,0-.37.1,1.5,1.5,0,0,0-.92,1.58s.09.67.25,1.91c1.13,8.66,5.88,45.27,9.13,76.26a165.07,165.07,0,0,1,1,17.36c0,12.39-1.51,23.27-3.51,36.43s-4.48,28.56-6.38,49.88a1.33,1.33,0,0,0,0,.4c.37,2,.86,4,1.43,6,.39,1.33.81,2.65,1.27,4A104.81,104.81,0,0,0,609,499.91c1.92,2.77,3.78,5.23,5.44,7.32q1.15,1.44,2.16,2.64c2.6,3.1,4.34,4.89,4.36,4.91a1.49,1.49,0,0,0,2.31-.2s.61-.9,1.66-2.54c.7-1.11,1.61-2.57,2.68-4.35a309.71,309.71,0,0,0,18.21-35.51c11.26-25.86,22.54-61.07,22.54-98.61A172,172,0,0,0,665.48,342c-8.09-43.37-25.3-85.13-47-118.23-10.84-16.56-22.79-30.95-35.3-42.29-11.15-10.1-22.75-17.79-34.42-22.4-.6-.23-1.2-.47-1.8-.69Z"/><path class="cls-6" d="M513,329.79a12,12,0,0,1,4.4.87,19.6,19.6,0,0,1,4.8,2.82c.55.43,1.09.9,1.61,1.39l30.35-28.51-22.82-87.3a1.46,1.46,0,0,1,0-.69l12.76-60.79-31.56-7.25v0c-.1.73-.19,1.7-.28,2.87-.18,2.34-.34,5.48-.48,9.26-.28,7.54-.48,17.59-.63,28.81-.31,22.44-.44,49.55-.66,70.71-.14,14.11-.32,25.57-.62,31.3-.36,6.69-.48,14.51-.48,22.19,0,5.12.05,10.19.13,14.82A12.2,12.2,0,0,1,513,329.79Z"/><path d="M509.67,149.21c-.08.48-.16,1.06-.23,1.72s-.12,1.21-.17,1.92c-.26,3.23-.46,7.9-.63,13.61-.05,1.39-.09,2.85-.12,4.35-.09,3.32-.16,6.91-.23,10.71-.34,18.92-.49,43-.66,64.24s-.37,39.74-.77,47.39c-.36,6.77-.48,14.63-.48,22.35,0,5.57.06,11.07.15,16a18.79,18.79,0,0,1,3-1.21c-.08-4.63-.13-9.7-.13-14.82,0-7.68.12-15.5.48-22.19.3-5.73.48-17.19.62-31.3.22-21.16.35-48.27.66-70.71.15-11.22.35-21.27.63-28.81.14-3.78.3-6.92.48-9.26.09-1.17.18-2.14.28-2.87v0l31.56,7.25-12.76,60.79a1.46,1.46,0,0,0,0,.69l22.82,87.3-30.35,28.51a25.09,25.09,0,0,1,2,2.18l31-29.11a1.49,1.49,0,0,0,.43-1.48l-23-87.82,11.57-55.12.46-2.18.62-3,.07-.34.27-1.27A1.5,1.5,0,0,0,546.2,155l-13.35-3.07-4.35-1-16.79-3.86a1.48,1.48,0,0,0-1.69.86.35.35,0,0,0,0,.08A6.29,6.29,0,0,0,509.67,149.21Z"/><path d="M589.29,487.2a1.49,1.49,0,0,0,1.19-1.76l-.79-4.11-2.28-11.81a1.5,1.5,0,1,0-2.94.57l3,15.85,0,.07A1.49,1.49,0,0,0,589.29,487.2Z"/><path d="M604.1,525.87a1.49,1.49,0,0,0-1.69,1.28,1.47,1.47,0,0,0,.6,1.4,1.44,1.44,0,0,0,.68.29l11.2,1.53a1.5,1.5,0,1,0,.41-3l-7.76-1.06Z"/><path d="M523.71,439.15a1.19,1.19,0,1,0,1.19,1.18A1.18,1.18,0,0,0,523.71,439.15Z"/><path d="M523.71,444.52a4.19,4.19,0,1,0-4.18-4.19A4.19,4.19,0,0,0,523.71,444.52Zm0-3a1.19,1.19,0,1,1,1.19-1.19A1.18,1.18,0,0,1,523.71,441.52Z"/><path d="M523.71,488.25a1.19,1.19,0,1,0,1.19,1.19A1.18,1.18,0,0,0,523.71,488.25Z"/><path d="M523.71,485.25a4.19,4.19,0,1,0,4.19,4.19A4.18,4.18,0,0,0,523.71,485.25Zm0,5.37a1.19,1.19,0,1,1,1.19-1.18A1.18,1.18,0,0,1,523.71,490.62Z"/><path d="M523.71,546.06a1.19,1.19,0,1,0,1.19,1.19A1.18,1.18,0,0,0,523.71,546.06Z"/><path d="M527.9,547.25a4.19,4.19,0,1,0-4.19,4.18A4.18,4.18,0,0,0,527.9,547.25Zm-4.19,1.18a1.19,1.19,0,1,1,1.19-1.18A1.18,1.18,0,0,1,523.71,548.43Z"/><path d="M529.09,603.59a1.19,1.19,0,1,0,1.18,1.19A1.19,1.19,0,0,0,529.09,603.59Z"/><path d="M529.09,600.59a4.19,4.19,0,1,0,4.18,4.19A4.19,4.19,0,0,0,529.09,600.59Zm0,5.37a1.19,1.19,0,1,1,1.18-1.18A1.18,1.18,0,0,1,529.09,606Z"/><path d="M421.82,476.27a1.49,1.49,0,0,0-1.49,1.48h0a3.15,3.15,0,0,1-.07.48,56.29,56.29,0,0,1-1.91,6.28c-3.16,8.9-10.08,24.31-20.87,36.13a1.5,1.5,0,0,0,2.21,2c8.05-8.82,13.92-19.38,17.8-28a114,114,0,0,0,4.35-11.08c.49-1.46.85-2.68,1.09-3.63.13-.47.22-.88.29-1.22a5.22,5.22,0,0,0,.11-.94A1.5,1.5,0,0,0,421.82,476.27Z"/><path d="M500.87,122.9l-.26-3-5,.31c.65.41,1.39.83,2.16,1.23C498.84,122,499.94,122.48,500.87,122.9Z"/><path d="M501.89,116.78h-.29l-9.6.6a1.5,1.5,0,0,0-1.36,1.85,3.62,3.62,0,0,0,1,1.65,14.07,14.07,0,0,0,2.81,2.09,50.53,50.53,0,0,0,5,2.56c.7.32,1.31.58,1.76.77l.82.35a1.51,1.51,0,0,0,2.06-1.52v0l-.46-5.51-.12-1.45A1.51,1.51,0,0,0,501.89,116.78Zm-6.28,3.39,5-.31.26,3c-.93-.42-2-.94-3.1-1.5C497,121,496.26,120.58,495.61,120.17Z"/><path class="cls-6" d="M504.05,379.94a33.31,33.31,0,0,0,7.05-1.85,60.32,60.32,0,0,0,16.12-11,21,21,0,0,0,3.35-4.1,8.14,8.14,0,0,0,.81-4,32,32,0,0,0-3.08-12.33c-1.95-4.32-4.76-8.37-7.92-10.79a17,17,0,0,0-4.06-2.41,9,9,0,0,0-3.31-.66,11.79,11.79,0,0,0-5.28,1.49c-1.84.92-3.81,2.18-6.06,3.38a31.75,31.75,0,0,0-6.48,5,93.65,93.65,0,0,0-6.66,7.22c-2.79,3.32-5.19,6.5-6.69,8.56a99,99,0,0,1,7.73,23.25l.6,0C494.33,381.3,499.62,380.74,504.05,379.94Z"/><path d="M504.58,382.9a37,37,0,0,0,7.74-2.06,53.08,53.08,0,0,0,5.36-2.82c.87-.51,1.74-1.06,2.62-1.64,1.26-.83,2.52-1.71,3.73-2.62a52.64,52.64,0,0,0,5.31-4.56,24.27,24.27,0,0,0,3.81-4.7,10.9,10.9,0,0,0,1.23-5.52A34.92,34.92,0,0,0,531,345.42a37,37,0,0,0-5.17-8.37,25.09,25.09,0,0,0-2-2.18c-.52-.49-1.06-1-1.61-1.39a19.6,19.6,0,0,0-4.8-2.82,12,12,0,0,0-4.4-.87,12.2,12.2,0,0,0-3.5.53,18.79,18.79,0,0,0-3,1.21l-.14.07c-.19.09-.38.2-.56.3-.9.46-1.79,1-2.68,1.48s-1.9,1.1-2.89,1.63a35.69,35.69,0,0,0-7.62,6,119.3,119.3,0,0,0-10.3,11.82c-.77,1-1.46,1.91-2.06,2.72.41.72,1,1.7,1.56,2.94,1.5-2.06,3.9-5.24,6.69-8.56a93.65,93.65,0,0,1,6.66-7.22,31.75,31.75,0,0,1,6.48-5c2.25-1.2,4.22-2.46,6.06-3.38a11.79,11.79,0,0,1,5.28-1.49,9,9,0,0,1,3.31.66,17,17,0,0,1,4.06,2.41c3.16,2.42,6,6.47,7.92,10.79A32,32,0,0,1,531.38,359a8.14,8.14,0,0,1-.81,4,21,21,0,0,1-3.35,4.1,60.32,60.32,0,0,1-16.12,11,33.31,33.31,0,0,1-7.05,1.85c-4.43.8-9.72,1.36-13.88,1.72l-.6,0c.21,1,.41,2,.6,3,1.47-.13,3.09-.28,4.78-.46C498.13,383.88,501.52,383.44,504.58,382.9Z"/><path class="cls-6" d="M318.45,331v0l-.07.18c-.06.16-.16.4-.28.72-.24.64-.59,1.59-1,2.82-.84,2.44-2,6-3.09,10.3a134,134,0,0,0-4.5,33.1c0,13.83,2.69,28.59,10.89,41.31a19.34,19.34,0,0,0,6.72,5.95A48.78,48.78,0,0,0,338.48,430c8.93,2.52,20.32,3.88,32.88,3.88a195.21,195.21,0,0,0,64.77-11.22c21-7.6,39.73-19.29,51.44-35.5-3.24-18.47-8.86-28.47-10.33-30.86l-.36,0L473.8,356c-2.66-.22-6.45-.5-11-.79-9.11-.58-21.26-1.16-33.4-1.16-7.42,0-14.83.22-21.54.78a89,89,0,0,0-17.24,2.81,20.15,20.15,0,0,0-6.84,3.18,1.49,1.49,0,0,1-2.31-1.77l-.07,0Z"/><path d="M377.57,436.74a199.82,199.82,0,0,0,52.5-8.89c1-.3,1.91-.6,2.86-.92q2.13-.71,4.23-1.47c21.54-7.82,41-19.9,53.22-37.07a1.5,1.5,0,0,0,.26-1.12c-.15-.89-.31-1.75-.47-2.59-.19-1-.39-2-.6-3a99,99,0,0,0-7.73-23.25c-.61-1.24-1.15-2.22-1.56-2.94-.58-1-.93-1.49-.95-1.52a1.5,1.5,0,0,0-1.09-.64S453.87,351,429.4,351c-7.17,0-14.33.21-20.93.72l-3.06.27c-1.49.15-3,.31-4.37.49a74.38,74.38,0,0,0-11.27,2.23,30.09,30.09,0,0,0-5.08,2,15.42,15.42,0,0,0-2.8,1.78,1.4,1.4,0,0,0-.42.55,1.49,1.49,0,0,0,2.31,1.77,20.15,20.15,0,0,1,6.84-3.18,89,89,0,0,1,17.24-2.81c6.71-.56,14.12-.78,21.54-.78,12.14,0,24.29.58,33.4,1.16,4.55.29,8.34.57,11,.79l3.08.26.36,0c1.47,2.39,7.09,12.39,10.33,30.86-11.71,16.21-30.48,27.9-51.44,35.5a195.21,195.21,0,0,1-64.77,11.22c-12.56,0-23.95-1.36-32.88-3.88a48.78,48.78,0,0,1-11.38-4.59,19.34,19.34,0,0,1-6.72-5.95c-8.2-12.72-10.89-27.48-10.89-41.31A134,134,0,0,1,314,345c1.12-4.33,2.25-7.86,3.09-10.3.42-1.23.77-2.18,1-2.82.12-.32.22-.56.28-.72l.07-.18v0l0,0a1.51,1.51,0,0,0-.39-1.68,1.45,1.45,0,0,0-.43-.28,1.51,1.51,0,0,0-2,.82h0s-1.32,3.24-3,8.6a151.52,151.52,0,0,0-5,22.48,125.41,125.41,0,0,0-1.26,17.24c0,.37,0,.74,0,1.11.14,13.89,3,28.79,11.35,41.83a22.31,22.31,0,0,0,7.73,6.91c5,2.93,11.68,5.13,19.47,6.62a141.73,141.73,0,0,0,26.3,2.26c1.06,0,2.13,0,3.21,0S376.56,436.78,377.57,436.74Z"/><path class="cls-6" d="M820.87,750a187.87,187.87,0,0,1-.94-18.78,185.68,185.68,0,0,1,139.75-180.1l6.69-1.71V428.66H959V542.54a1.5,1.5,0,0,1-1.12,1.46c-83.54,21.32-145.32,97.08-145.32,187.26a192.52,192.52,0,0,0,18.21,82H839A184.6,184.6,0,0,1,820.87,750Z"/><path class="cls-6" d="M1053.76,544a1.5,1.5,0,0,1-1.13-1.46V428.66h-7.39V549.45l6.69,1.71a185.68,185.68,0,0,1,139.75,180.1,187.87,187.87,0,0,1-.94,18.78h0a184.6,184.6,0,0,1-18.14,63.19h8.26a192.52,192.52,0,0,0,18.21-82C1199.07,641.08,1137.29,565.32,1053.76,544Z"/><path class="cls-6" d="M1005.8,924.52a193.41,193.41,0,0,0,161.06-86.42h-9a185.72,185.72,0,0,1-304,0h-9a193.41,193.41,0,0,0,161,86.42Z"/><path d="M1005.8,927.52a196.21,196.21,0,0,0,164.65-89.42h-3.59a193.32,193.32,0,0,1-322.11,0h-3.59A196.08,196.08,0,0,0,1005.8,927.52Z"/><path d="M830.75,813.23a192.52,192.52,0,0,1-18.21-82c0-90.18,61.78-165.94,145.32-187.26a1.5,1.5,0,0,0,1.12-1.46V428.66h-3V541.39c-84.26,22.05-146.44,98.69-146.44,189.87a195.44,195.44,0,0,0,17.9,82Z"/><path d="M1052.63,428.66V542.54a1.5,1.5,0,0,0,1.13,1.46c83.53,21.32,145.31,97.08,145.31,187.26a192.52,192.52,0,0,1-18.21,82h3.31a195.44,195.44,0,0,0,17.9-82c0-91.18-62.17-167.82-146.44-189.87V428.66Z"/><path class="cls-6" d="M968.24,552.07l-7.82,2a182.7,182.7,0,0,0-137.49,177.2c0,5.78.28,11.49.81,17.13h364.13c.53-5.64.81-11.35.81-17.13a182.7,182.7,0,0,0-137.49-177.2l-7.82-2a1.5,1.5,0,0,1-1.13-1.46V428.66H969.37v122A1.5,1.5,0,0,1,968.24,552.07Z"/><path d="M959.68,551.16a185.68,185.68,0,0,0-139.75,180.1,187.87,187.87,0,0,0,.94,18.78h0a1.51,1.51,0,0,1,1.49-1.65h1.38c-.53-5.64-.81-11.35-.81-17.13a182.7,182.7,0,0,1,137.49-177.2l7.82-2a1.5,1.5,0,0,0,1.13-1.46V428.66h-3V549.45Z"/><path d="M1043.37,552.07l7.82,2a182.7,182.7,0,0,1,137.49,177.2c0,5.78-.28,11.49-.81,17.13h1.38a1.51,1.51,0,0,1,1.49,1.65h0a187.87,187.87,0,0,0,.94-18.78,185.68,185.68,0,0,0-139.75-180.1l-6.69-1.71V428.66h-3v122A1.5,1.5,0,0,0,1043.37,552.07Z"/><path class="cls-4" d="M824,751.39a181.44,181.44,0,0,0,18.32,61.84h326.89a181.66,181.66,0,0,0,18.32-61.84Z"/><path class="cls-4" d="M1005.8,914.13a182.75,182.75,0,0,0,148.33-76H857.48A182.74,182.74,0,0,0,1005.8,914.13Z"/><path d="M1005.8,917.13a185.8,185.8,0,0,0,152-79h-3.69a182.7,182.7,0,0,1-296.65,0h-3.69A185.8,185.8,0,0,0,1005.8,917.13Z"/><path d="M1190.74,750a1.51,1.51,0,0,0-1.49-1.65H822.36a1.51,1.51,0,0,0-1.49,1.65h0A184.6,184.6,0,0,0,839,813.23h3.35A181.44,181.44,0,0,1,824,751.39h363.53a181.66,181.66,0,0,1-18.32,61.84h3.35A184.6,184.6,0,0,0,1190.74,750Z"/><rect class="cls-6" x="934.55" y="397.05" width="142.52" height="28.61"/><path d="M959,428.66h119.58a1.52,1.52,0,0,0,1.07-.44,1.49,1.49,0,0,0,.43-1.06V395.55a1.55,1.55,0,0,0-.43-1.06,1.52,1.52,0,0,0-1.07-.44H933.05a1.52,1.52,0,0,0-1.07.44,1.55,1.55,0,0,0-.43,1.06v31.61a1.49,1.49,0,0,0,1.5,1.5H959Zm-24.43-31.61h142.51v28.61H934.55Z"/><circle class="cls-6" cx="781.5" cy="266.46" r="21.28" transform="translate(-3.05 9.1) rotate(-0.67)"/><path d="M791.66,256.3A29.5,29.5,0,0,1,783,235.38a1.52,1.52,0,0,0-.44-1.06,1.5,1.5,0,0,0-1.06-.44h0a1.5,1.5,0,0,0-1.06.44,1.52,1.52,0,0,0-.44,1.06A29.57,29.57,0,0,1,750.42,265a1.52,1.52,0,0,0-1.06.44,1.5,1.5,0,0,0-.44,1.06,1.5,1.5,0,0,0,1.5,1.5A29.57,29.57,0,0,1,780,297.53a1.5,1.5,0,0,0,1.5,1.5h0a1.46,1.46,0,0,0,1.06-.44,1.5,1.5,0,0,0,.44-1.06A29.57,29.57,0,0,1,812.57,268a1.5,1.5,0,0,0,1.06-.44,1.52,1.52,0,0,0,.44-1.06,1.5,1.5,0,0,0-1.5-1.5A29.49,29.49,0,0,1,791.66,256.3ZM781.5,287.74a32.63,32.63,0,0,0-21.29-21.28,32.65,32.65,0,0,0,21.29-21.29,32.66,32.66,0,0,0,21.28,21.29A32.64,32.64,0,0,0,781.5,287.74Z"/><circle class="cls-6" cx="1330.18" cy="647.47" r="21.29" transform="translate(666.24 1969.51) rotate(-89.29)"/><path d="M1299.11,649a29.57,29.57,0,0,1,29.57,29.57,1.48,1.48,0,0,0,.44,1.06,1.52,1.52,0,0,0,1.06.44h0a1.5,1.5,0,0,0,1.5-1.5A29.58,29.58,0,0,1,1361.26,649a1.52,1.52,0,0,0,1.06-.44,1.5,1.5,0,0,0,.44-1.06,1.5,1.5,0,0,0-1.5-1.5,29.58,29.58,0,0,1-29.58-29.57,1.5,1.5,0,0,0-1.5-1.5h0a1.52,1.52,0,0,0-1.06.44,1.5,1.5,0,0,0-.44,1.06A29.57,29.57,0,0,1,1299.11,646a1.5,1.5,0,0,0-1.06.44,1.52,1.52,0,0,0-.44,1.06,1.5,1.5,0,0,0,1.5,1.5Zm31.07-22.79a32.65,32.65,0,0,0,21.29,21.29,32.65,32.65,0,0,0-21.29,21.29,32.63,32.63,0,0,0-21.28-21.29A32.63,32.63,0,0,0,1330.18,626.18Z"/><path class="cls-6" d="M261.8,604.07a32.64,32.64,0,0,1,21.28-21.28A32.66,32.66,0,0,1,261.8,561.5a32.66,32.66,0,0,1-21.28,21.29A32.64,32.64,0,0,1,261.8,604.07Z"/><path d="M229.67,581.73a1.5,1.5,0,0,0-.44,1.06,1.52,1.52,0,0,0,.44,1.06,1.48,1.48,0,0,0,1.06.44,29.57,29.57,0,0,1,29.57,29.57,1.5,1.5,0,0,0,1.5,1.5h0a1.5,1.5,0,0,0,1.5-1.5,29.57,29.57,0,0,1,29.58-29.57,1.52,1.52,0,0,0,1.06-.44,1.55,1.55,0,0,0,.43-1.06,1.53,1.53,0,0,0-.43-1.06,1.52,1.52,0,0,0-1.06-.44,29.57,29.57,0,0,1-29.58-29.57,1.49,1.49,0,0,0-1.5-1.5h0a1.49,1.49,0,0,0-1.5,1.5,29.57,29.57,0,0,1-29.57,29.57A1.48,1.48,0,0,0,229.67,581.73ZM261.8,561.5a32.66,32.66,0,0,0,21.28,21.29,32.64,32.64,0,0,0-21.28,21.28,32.64,32.64,0,0,0-21.28-21.28A32.66,32.66,0,0,0,261.8,561.5Z"/><polygon class="cls-6" points="820.32 1097 829.15 838.1 813.25 838.1 813.25 1097 820.32 1097"/><path d="M829.15,838.1,820.32,1097h-7.06V838.1h-3v260.4a1.49,1.49,0,0,0,1.5,1.5h10a1.5,1.5,0,0,0,1.5-1.45l.05-1.55,8.83-258.9Z"/><polygon class="cls-6" points="1188.05 1002.11 1193.36 1002.11 1198.35 1002.11 1198.35 838.1 1182.46 838.1 1188.05 1002.11"/><polygon points="1201.35 838.1 1198.35 838.1 1198.35 1002.11 1201.35 1002.11 1201.35 940.15 1201.35 893.26 1201.35 889.72 1201.35 838.1"/><polygon points="1182.38 923.68 1185.05 1002.11 1188.05 1002.11 1182.46 838.1 1179.46 838.1 1182.27 920.51 1182.38 923.68"/><path d="M806.16,835.1h399.29a9.35,9.35,0,0,0,9.34-9.34v-.19a9.35,9.35,0,0,0-9.34-9.34H806.16a9.35,9.35,0,0,0-9.34,9.34v.19a9.35,9.35,0,0,0,9.34,9.34Z"/><path d="M810.26,838.1h395.19a12.35,12.35,0,0,0,12.34-12.34v-.19a12.35,12.35,0,0,0-12.34-12.34H806.16a12.35,12.35,0,0,0-12.34,12.34v.19a12.37,12.37,0,0,0,12.34,12.34Zm-13.44-12.34v-.19a9.35,9.35,0,0,1,9.34-9.34h399.29a9.35,9.35,0,0,1,9.34,9.34v.19a9.35,9.35,0,0,1-9.34,9.34H806.16a9.35,9.35,0,0,1-9.34-9.34Z"/><path class="cls-2" d="M769.3,886.11a29.54,29.54,0,1,0-29.54,29.54A29.44,29.44,0,0,0,769.3,886.11Z"/><path class="cls-2" d="M274.26,669.76a18.62,18.62,0,1,0,18.61-18.61A18.61,18.61,0,0,0,274.26,669.76Zm31,0a12.35,12.35,0,1,1-12.35-12.34A12.34,12.34,0,0,1,305.22,669.76Z"/><path class="cls-2" d="M1181.24,477.77a18.62,18.62,0,1,0,18.61-18.61A18.61,18.61,0,0,0,1181.24,477.77Zm31,0a12.35,12.35,0,1,1-12.35-12.35A12.34,12.34,0,0,1,1212.2,477.77Z"/><path class="cls-2" d="M212.11,532.34a18.61,18.61,0,1,0-18.61-18.61A18.62,18.62,0,0,0,212.11,532.34Zm0-31a12.35,12.35,0,1,1-12.34,12.34A12.33,12.33,0,0,1,212.11,501.39Z"/><path d="M1194.86,1097h69.27a45.95,45.95,0,0,0,0-91.89h-69.27Z"/><path d="M1198.35,1002.11h-5a1.5,1.5,0,0,1,1.5,1.5v1.5h69.27a45.95,45.95,0,0,1,0,91.89h-69.27v1.5a1.5,1.5,0,0,1-.44,1.06,1.52,1.52,0,0,1-1.06.44h70.77a48.95,48.95,0,0,0,0-97.89h-65.78Z"/><path class="cls-6" d="M1191.86,1097v-91.89h-64.45a45.95,45.95,0,0,0,0,91.89Z"/><path d="M1185.05,1002.11h-57.64a48.95,48.95,0,1,0,0,97.89h65.95a1.52,1.52,0,0,0,1.06-.44,1.5,1.5,0,0,0,.44-1.06v-94.89a1.5,1.5,0,0,0-1.5-1.5h-8.31ZM1127.41,1097a45.95,45.95,0,0,1,0-91.89h64.45V1097Z"/><path class="cls-6" d="M739.76,1007.1a44.52,44.52,0,0,0-44.24,39.58H784A44.53,44.53,0,0,0,739.76,1007.1Z"/><path d="M693.86,1046.68h1.66a44.51,44.51,0,0,1,88.48,0h1.65a1.51,1.51,0,0,1,1.5,1.39h0a47.52,47.52,0,0,0-94.78,0h0A1.5,1.5,0,0,1,693.86,1046.68Z"/><path d="M784.29,1051.64c0-.66,0-1.31,0-2h-89c0,.65-.06,1.3-.06,2,0,.19,0,.44,0,.74,0,1.38.13,2.74.28,4.09H784c.15-1.36.26-2.71.29-4.09C784.28,1052.08,784.29,1051.83,784.29,1051.64Z"/><path d="M693.05,1057a1.5,1.5,0,0,1,1.13-.51h1.34c-.15-1.35-.26-2.71-.28-4.09,0-.3,0-.55,0-.74,0-.66,0-1.31.06-2h89c0,.65,0,1.3,0,2,0,.19,0,.44,0,.74,0,1.38-.14,2.73-.29,4.09h1.35a1.5,1.5,0,0,1,1.13.51,1.51,1.51,0,0,1,.35,1.19,47.11,47.11,0,0,0,.45-5.74c0-.22,0-.48,0-.79,0-1.22-.06-2.4-.14-3.57h0a1.51,1.51,0,0,0-1.5-1.39H693.86a1.5,1.5,0,0,0-1.49,1.39h0c-.09,1.17-.15,2.35-.15,3.57,0,.31,0,.57,0,.79a49.2,49.2,0,0,0,.45,5.74A1.52,1.52,0,0,1,693.05,1057Z"/><path class="cls-6" d="M739.76,1096.17a44.54,44.54,0,0,0,43.82-36.7H695.94A44.53,44.53,0,0,0,739.76,1096.17Z"/><path d="M786.82,1058.17h0a1.51,1.51,0,0,0-.35-1.19,1.5,1.5,0,0,0-1.13-.51H694.18a1.5,1.5,0,0,0-1.13.51,1.52,1.52,0,0,0-.36,1.19,47.51,47.51,0,0,0,94.13,0Zm-3.24,1.3a44.51,44.51,0,0,1-87.64,0Z"/><path class="cls-6" d="M731,150a1.5,1.5,0,0,1,1,1.85c-3.08,10.36-6.62,21-8.56,26.65l40.52-26.95a1.47,1.47,0,0,1,.83-.25h249.45a25,25,0,0,0,25-25V62.7a25,25,0,0,0-25-25H739a25,25,0,0,0-25,25v63.57A25,25,0,0,0,731,150ZM902.44,116H783.65a1.5,1.5,0,0,1,0-3H902.44a1.5,1.5,0,0,1,0,3ZM980.11,92H783.65a1.5,1.5,0,0,1,0-3H980.11a1.5,1.5,0,0,1,0,3Zm0-24.07H811.62a1.5,1.5,0,0,1,0-3H980.11a1.5,1.5,0,0,1,0,3Z"/><path d="M723.89,149.82a27.94,27.94,0,0,0,4.81,2.46c-.29,1-.58,1.94-.88,2.9-1.87,6.1-3.81,12.06-5.37,16.77-1,2.9-1.79,5.33-2.38,7-.29.86-.52,1.53-.68,2l-.24.7a1.51,1.51,0,0,0,2.25,1.75l30-19.95,13.86-9.21h249a28,28,0,0,0,28-28V62.7a28,28,0,0,0-28-28H739a28,28,0,0,0-28,28v63.57A27.93,27.93,0,0,0,723.89,149.82ZM714,62.7a25,25,0,0,1,25-25h275.26a25,25,0,0,1,25,25v63.57a25,25,0,0,1-25,25H764.77a1.47,1.47,0,0,0-.83.25l-40.52,26.95c1.94-5.68,5.48-16.29,8.56-26.65a1.5,1.5,0,0,0-1-1.85,25,25,0,0,1-17-23.68Z"/><path d="M980.11,64.89H811.62a1.5,1.5,0,0,0,0,3H980.11a1.5,1.5,0,0,0,0-3Z"/><path d="M980.11,89H783.65a1.5,1.5,0,0,0,0,3H980.11a1.5,1.5,0,0,0,0-3Z"/><path d="M902.44,113H783.65a1.5,1.5,0,0,0,0,3H902.44a1.5,1.5,0,0,0,0-3Z"/><path class="cls-6" d="M1142.66,277.45a59.47,59.47,0,1,0-17.43-42.07A59.32,59.32,0,0,0,1142.66,277.45Zm7.38-52.24a1.5,1.5,0,0,1,1.5-1.5h21.51V202.2a1.5,1.5,0,0,1,1.5-1.5h20.35a1.5,1.5,0,0,1,1.5,1.5v21.51h21.51a1.5,1.5,0,0,1,1.5,1.5v20.35a1.5,1.5,0,0,1-.44,1.06,1.46,1.46,0,0,1-1.06.44H1196.4v21.51a1.46,1.46,0,0,1-.44,1.06,1.5,1.5,0,0,1-1.06.44h-20.35a1.5,1.5,0,0,1-1.06-.44,1.52,1.52,0,0,1-.44-1.06V247.06h-21.51a1.5,1.5,0,0,1-1.5-1.5Z"/><path d="M1184.72,297.88a62.5,62.5,0,1,0-62.49-62.5A62.51,62.51,0,0,0,1184.72,297.88Zm0-122a59.51,59.51,0,1,1-42.06,17.43A59.29,59.29,0,0,1,1184.72,175.89Z"/><path class="cls-4" d="M1175.61,244.5a1.52,1.52,0,0,1,.44,1.06v21.51h17.35V245.56a1.5,1.5,0,0,1,1.5-1.5h21.51V226.71H1194.9a1.5,1.5,0,0,1-1.5-1.5V203.7h-17.35v21.51a1.52,1.52,0,0,1-.44,1.06,1.5,1.5,0,0,1-1.06.44H1153v17.35h21.51A1.52,1.52,0,0,1,1175.61,244.5Z"/><path d="M1151.54,247.06h21.51v21.51a1.52,1.52,0,0,0,.44,1.06,1.5,1.5,0,0,0,1.06.44h20.35a1.5,1.5,0,0,0,1.06-.44,1.46,1.46,0,0,0,.44-1.06V247.06h21.51a1.46,1.46,0,0,0,1.06-.44,1.5,1.5,0,0,0,.44-1.06V225.21a1.5,1.5,0,0,0-1.5-1.5H1196.4V202.2a1.5,1.5,0,0,0-1.5-1.5h-20.35a1.5,1.5,0,0,0-1.5,1.5v21.51h-21.51a1.5,1.5,0,0,0-1.5,1.5v20.35a1.5,1.5,0,0,0,1.5,1.5Zm1.5-20.35h21.51a1.5,1.5,0,0,0,1.06-.44,1.52,1.52,0,0,0,.44-1.06V203.7h17.35v21.51a1.5,1.5,0,0,0,1.5,1.5h21.51v17.35H1194.9a1.5,1.5,0,0,0-1.5,1.5v21.51h-17.35V245.56a1.5,1.5,0,0,0-1.5-1.5H1153Z"/></g></g></svg>