<svg xmlns="http://www.w3.org/2000/svg" viewBox="0 0 1538.62 1100"><defs><style>.cls-1{fill:none;}.cls-2{fill:#fff;}.cls-3{fill:#eff0f1;}.cls-4{fill:#61c3da;}.cls-5{fill:#c1bebc;}.cls-6{fill:#d0d5d8;}</style></defs><g id="Layer_2" data-name="Layer 2"><g id="_7" data-name="7"><polygon class="cls-1" points="983.08 362.34 983.08 362.35 983.08 362.35 983.08 362.34"/><path class="cls-1" d="M1409.67,1096.66h6.79c-.19-.74-.43-1.69-.72-2.8A48.42,48.42,0,0,1,1409.67,1096.66Z"/><path class="cls-1" d="M1315.45,1096.66h58.19a50.31,50.31,0,0,1-32.26-45.45h-20.11C1318.28,1074.77,1316.16,1091.18,1315.45,1096.66Z"/><ellipse class="cls-1" cx="919.82" cy="815.5" rx="14.16" ry="14.16"/><path class="cls-2" d="M1011.36,289.42a39.82,39.82,0,0,1,1.13-10.16,20.91,20.91,0,0,0,.75-5.28,9.9,9.9,0,0,0-2.08-6.62,5.63,5.63,0,0,0-4.29-2.05,5.75,5.75,0,0,0-4.18,1.88,10.4,10.4,0,0,0-2.52,6.27c-.48,4.71-.91,8.35-1.42,11.18a18.67,18.67,0,0,1-2,6.33,5,5,0,0,1-2.48,2.17,5.11,5.11,0,0,1-1.81.31c-.2,0-.41,0-.61,0h0a3.32,3.32,0,0,1-1.18-.34,7.81,7.81,0,0,1-1.12-.61,29.67,29.67,0,0,1-2.62-1.92c-2-1.58-4.37-3.71-7.06-6.13-5.37-4.85-11.88-10.86-18-15.71a61.61,61.61,0,0,0-11.12-7.44c-4.41-2.08-8-2.92-10.83-2.92a8.86,8.86,0,0,0-6,1.91,7,7,0,0,0-2.29,4.65l0,.12v0l0,.14c0,.13-.06.32-.1.58-.07.5-.18,1.25-.28,2.19a70.64,70.64,0,0,0-.42,7.72A55.7,55.7,0,0,0,934,295a31.36,31.36,0,0,0,13.92,16.87c14.84,8.44,28.68,19.86,38,30.74a39.28,39.28,0,0,1,30.48-21.15c-.11-.45-.23-.9-.35-1.36C1013.71,310.9,1011.37,299.31,1011.36,289.42Z"/><path d="M985.91,342.58c-9.35-10.88-23.19-22.3-38-30.74A31.36,31.36,0,0,1,934,295a55.7,55.7,0,0,1-3.15-19.27,70.64,70.64,0,0,1,.42-7.72c.1-.94.21-1.69.28-2.19,0-.26.07-.45.1-.58l0-.14v0l0-.12a7,7,0,0,1,2.29-4.65,8.86,8.86,0,0,1,6-1.91c2.8,0,6.42.84,10.83,2.92a61.61,61.61,0,0,1,11.12,7.44c6.11,4.85,12.62,10.86,18,15.71,2.69,2.42,5.09,4.55,7.06,6.13a29.67,29.67,0,0,0,2.62,1.92,7.81,7.81,0,0,0,1.12.61,3.32,3.32,0,0,0,1.18.34h0c.2,0,.41,0,.61,0a5.11,5.11,0,0,0,1.81-.31,5,5,0,0,0,2.48-2.17,18.67,18.67,0,0,0,2-6.33c.51-2.83.94-6.47,1.42-11.18a10.4,10.4,0,0,1,2.52-6.27,5.75,5.75,0,0,1,4.18-1.88,5.63,5.63,0,0,1,4.29,2.05,9.9,9.9,0,0,1,2.08,6.62,20.91,20.91,0,0,1-.75,5.28,39.82,39.82,0,0,0-1.13,10.16c0,9.89,2.35,21.48,4.68,30.65.12.46.24.91.35,1.36,1.12-.12,2.15-.19,3.05-.22-.31-1.16-.62-2.36-.92-3.6-2.15-8.74-4.16-19.35-4.16-28.19a37.43,37.43,0,0,1,1-9.39,23.82,23.82,0,0,0,.85-6,12.92,12.92,0,0,0-2.81-8.58,8.64,8.64,0,0,0-6.56-3.09,8.74,8.74,0,0,0-6.35,2.81,13.41,13.41,0,0,0-3.34,8.05c-.36,3.56-.69,6.49-1,8.86a24.54,24.54,0,0,1-1.79,7.09,2.9,2.9,0,0,1-.88,1.08,1.8,1.8,0,0,1-1,.25h-.36a3.77,3.77,0,0,1-.77-.39,26.44,26.44,0,0,1-2.87-2.11c-4.13-3.36-10.49-9.4-17.15-15.22-3.33-2.92-6.74-5.79-10-8.26a56.58,56.58,0,0,0-9.25-5.9,29.17,29.17,0,0,0-12.11-3.2A11.84,11.84,0,0,0,932,258a10,10,0,0,0-3.29,6.47h0a66.77,66.77,0,0,0-.88,11.23A58.71,58.71,0,0,0,931.15,296a34.38,34.38,0,0,0,15.25,18.43,151.81,151.81,0,0,1,31.41,23.82c2.47,2.46,4.73,4.92,6.74,7.34A30.53,30.53,0,0,1,985.91,342.58Z"/><path class="cls-3" d="M1236.47,1051.21H1074.72a50.28,50.28,0,0,1-32.25,45.45h195.91c0-1,0-2.39,0-4.34C1238.42,1085.38,1238.12,1072,1236.47,1051.21Z"/><path class="cls-3" d="M864.05,1079a138.2,138.2,0,0,1-1.15,17.62h143.54a50.28,50.28,0,0,1-32.25-45.45H911.91a1.5,1.5,0,0,1-1.5-1.5v-5.86h-2a1.5,1.5,0,0,1-1.31-.77l-10.43-18.81a1.45,1.45,0,0,1-.19-.73V999.83a1.48,1.48,0,0,1,.44-1.06,1.5,1.5,0,0,1,1.06-.44h12.47v-25a38.18,38.18,0,0,1,19.87-33.5h0l9.14-5h0l38.38-21a257.26,257.26,0,0,0-96.64-18.5,261.18,261.18,0,0,0-69.85,9.41v69C843,996,864.05,1034.83,864.05,1079Z"/><path class="cls-2" d="M1313.92,1085.1c1-8.12,2.52-19.7,4.32-33.89h-78.76c1.64,20.71,1.94,34.11,1.94,41.11,0,1.93,0,3.37,0,4.34h71c.06-.49.13-1.07.23-1.77C1312.94,1092.65,1313.37,1089.35,1313.92,1085.1Z"/><path class="cls-2" d="M1326,744.53a1.51,1.51,0,0,1-1.34-.88c-2.38-5.33-4.32-12.57-5.91-21.41s-2.85-19.3-3.82-31q-.51-6.33-.92-13.12a188.55,188.55,0,0,1-31.19-4.31c1,15.37,2.07,29,3.38,40.16a191.5,191.5,0,0,0,3.61,22.06,1.5,1.5,0,0,1-1.46,1.85h-1.62c-26.41,0-45.73-.84-59.8-2-.47,16.15-.89,32.92-1.22,49.83H1343c-3-14.76-5.77-28.6-8-41.06C1332,744.63,1329,744.59,1326,744.53Z"/><path d="M1313.69,1100a1.48,1.48,0,0,0,.94-.34h-74.76Z"/><path d="M1318.24,1051.21c-1.8,14.19-3.28,25.77-4.32,33.89-.55,4.25-1,7.55-1.26,9.79-.1.7-.17,1.28-.23,1.77h3c.71-5.48,2.83-21.89,5.82-45.45Z"/><path d="M1225.67,785.71c.33-16.91.75-33.68,1.22-49.83l-3-.25c-.47,16.22-.89,33.08-1.22,50.08Z"/><path d="M1239.48,1051.21h-3c1.65,20.77,2,34.17,2,41.11,0,2,0,3.39,0,4.34h3c0-1,0-2.41,0-4.34C1241.42,1085.32,1241.12,1071.92,1239.48,1051.21Z"/><path class="cls-2" d="M1441.92,1051.21a50.24,50.24,0,0,1-23.48,41.06c.18.74.36,1.42.51,2,.25,1,.45,1.76.6,2.36h73.14c-.35-5.44-1.39-22.09-2.82-45.45Z"/><path class="cls-2" d="M1474.17,726.2c-21.29,7.9-62.94,18.49-133.38,18.48H1338c1.78,9.69,3.82,20.2,6.08,31.35.64,3.17,1.31,6.42,2,9.69h129.59c-.54-15.14-.86-27.68-.86-36.49C1474.81,741.65,1474.58,733.93,1474.17,726.2Z"/><path d="M1418.47,1100h75.84a1.44,1.44,0,0,0,.93-.34h-77.71A1.5,1.5,0,0,0,1418.47,1100Z"/><path d="M1474.17,726.2c.41,7.73.64,15.45.64,23,0,8.81.32,21.35.86,36.49h3c-.54-15.17-.86-27.72-.86-36.49,0-8-.26-16.05-.7-24.14C1476.18,725.44,1475.2,725.82,1474.17,726.2Z"/><path d="M1489.87,1051.21c1.43,23.36,2.47,40,2.82,45.45h3c0-.41,0-.89-.09-1.45-.4-6.45-1.4-22.33-2.73-44Z"/><path d="M1418.44,1092.27c-.89.56-1.78,1.09-2.7,1.59.29,1.11.53,2.06.72,2.8h3.09c-.15-.6-.35-1.39-.6-2.36C1418.8,1093.69,1418.62,1093,1418.44,1092.27Z"/><path d="M1338,744.67l-3,0c2.28,12.46,5,26.3,8,41.06h3.06c-.67-3.27-1.34-6.52-2-9.69C1341.84,764.87,1339.8,754.36,1338,744.67Z"/><path class="cls-4" d="M1312.2,608.83c0-41.33,1.41-86.5,3.27-128.17-.63-8.76-.9-18.05-.9-27.56,0-29.36,2.58-60.85,5.14-84.92-1,1.09-2,2.18-3.07,3.23-5.55,5.77-10.57,10.61-10.57,10.61a1.5,1.5,0,0,1-1.76.24l-25-13.58c.28,13.11.51,28.74.51,45.17,0,24.65-.51,51.09-2.14,73.58.23,28.06.63,57.55,1.28,86.18.79,35.07,2,68.85,3.66,97.08a184.09,184.09,0,0,0,31.2,4.4C1312.67,655.21,1312.2,632.66,1312.2,608.83Z"/><path d="M1313.79,675.09a184.09,184.09,0,0,1-31.2-4.4c.06,1,.12,2.08.19,3.11a188.55,188.55,0,0,0,31.19,4.31Z"/><path class="cls-3" d="M209.41,1068.73c0-65.84,30-124,75.79-159.25V761.15C269.89,774,258.45,789,252.09,805.34a201.38,201.38,0,0,0-46.51,15.37,34,34,0,0,0,23.26,9.15,1.5,1.5,0,0,1,1.5,1.5,1.5,1.5,0,0,1-.44,1.06,1.52,1.52,0,0,1-1.06.44A34.14,34.14,0,0,0,194.69,867a1.52,1.52,0,0,1-.44,1.06,1.5,1.5,0,0,1-1.06.44h0a1.5,1.5,0,0,1-1.06-.44,1.52,1.52,0,0,1-.44-1.06,34,34,0,0,0-10-24.15,34.57,34.57,0,0,0-5.92-4.72c-48,34-79.09,88.35-79.09,149.63a179.51,179.51,0,0,0,36.92,108.89h77.66A214.1,214.1,0,0,1,209.41,1068.73Z"/><path class="cls-5" d="M285.2,1022.11V909.48c-45.84,35.22-75.79,93.41-75.79,159.25a214.1,214.1,0,0,0,1.83,27.93H341.41A77.56,77.56,0,0,1,285.2,1022.11Z"/><path class="cls-6" d="M832.6,645.25A10.06,10.06,0,0,1,831,644q-9.78,10.18-19.73,22v3.13Q822.05,656.19,832.6,645.25Z"/><path class="cls-6" d="M958.2,565.78l.64.34a133.55,133.55,0,0,1,24.83-3.71,5.65,5.65,0,0,1-.16-2,138.4,138.4,0,0,0-26.84,4.18l-.25.36C957,565.21,957.61,565.48,958.2,565.78Z"/><path class="cls-6" d="M854.25,624.4c8.15-7.22,16.12-13.6,23.87-19.25a6.3,6.3,0,0,1,.3-2.7c-7.83,5.64-15.89,12-24.14,19.25C854.31,622.58,854.3,623.49,854.25,624.4Z"/><path class="cls-6" d="M916.25,581.84c3.78-1.88,7.46-3.57,11-5.11a15,15,0,0,1-1.22-1.66c-3.46,1.51-7,3.15-10.7,5s-7.27,3.72-11,5.83a25.73,25.73,0,0,1-1,2.89Q910,585,916.25,581.84Z"/><path class="cls-6" d="M976.18,659.62h0a10.36,10.36,0,0,1,.77-.85,10.38,10.38,0,0,1-2.62-1.07c-25.49,1.19-52.88,4.71-79.74,12.21-.56.91-1.15,1.78-1.75,2.59C920.86,664.41,949.58,660.75,976.18,659.62Z"/><path class="cls-6" d="M863.91,682.63c0-.2.08-.4.14-.6a5.7,5.7,0,0,1,1.15-2.1,216,216,0,0,0-53.89,31.28v2.58A212.65,212.65,0,0,1,863.91,682.63Z"/><path class="cls-6" d="M1037.63,661c-.21-.21-.43-.41-.62-.64a9.41,9.41,0,0,1-1-1.51c-12.22-1-25.93-1.68-40.57-1.68h-1.55a21.15,21.15,0,0,1,3.27,2C1011.81,659.27,1025.48,660,1037.63,661Z"/><path class="cls-6" d="M1061,663.58l3.13.42c8.62,1.2,15.53,2.39,20.27,3.29,2.38.45,4.21.82,5.45,1.09l1.41.3.47.1h.13a16.39,16.39,0,0,1,.13-2c-1.67-.37-15-3.3-35.6-5.82h0A11.43,11.43,0,0,1,1061,663.58Z"/><path class="cls-6" d="M845.64,540.75a5.8,5.8,0,0,1-2.18-.28c-11.34,18.15-22.41,37.21-32.15,56.26v4.42C821.58,580.74,833.45,560.22,845.64,540.75Z"/><path class="cls-6" d="M911,447l3-3.95c3.92-5.07,7.22-9.25,9.74-12.43a7.31,7.31,0,0,1-1.3-1.58c-3.44,4.33-8.42,10.66-14.47,18.59.3-.08.59-.17.9-.24C909.64,447.19,910.34,447.07,911,447Z"/><path class="cls-6" d="M858.31,521c6.48-9.84,12.91-19.28,19.11-28.14,6.07-8.68,11.91-16.8,17.36-24.21l-.95-.86a12.72,12.72,0,0,1-1,1.43,11.41,11.41,0,0,1-2.59,2.28c-4.59,6.31-9.43,13.07-14.43,20.21-6.69,9.57-13.66,19.81-20.65,30.5a1.93,1.93,0,0,0,0,.24C856.12,521.93,857.19,521.45,858.31,521Z"/><path class="cls-3" d="M863.91,682.63c-.61,3.4,1.89,7.36,6.43,11.14,4.82,4,11.92,7.83,20.23,10.66s16.26,4.14,22.52,3.92,10.82-2,12.15-5.45-.83-7.86-5.54-12.2-11.93-8.56-20.53-11.49a71.31,71.31,0,0,0-10.08-2.64c-3.71,3.25-7.76,4.65-11.27,3.41a8.81,8.81,0,0,1-4.53-3.88c-3.71.65-6.53,1.95-8.09,3.83a5.7,5.7,0,0,0-1.15,2.1C864,682.23,864,682.43,863.91,682.63Z"/><path class="cls-3" d="M877.82,680c3.51,1.24,7.56-.16,11.27-3.41a27,27,0,0,0,3.75-4.08c.6-.81,1.19-1.68,1.75-2.59a39,39,0,0,0,3.54-7.47c4.28-12.14,2.12-24-4.82-26.41s-16,5.41-20.31,17.55c-3.12,8.86-2.8,17.53.29,22.53A8.81,8.81,0,0,0,877.82,680Z"/><path class="cls-3" d="M990.63,656a26.49,26.49,0,0,0,4.4-3.44c7.47-7.25,9.36-17.4,4.24-22.68s-15.33-3.69-22.8,3.55-9.36,17.4-4.24,22.68a9.64,9.64,0,0,0,2.1,1.63,10.38,10.38,0,0,0,2.62,1.07C980.22,655.41,985.45,654.48,990.63,656Z"/><path class="cls-3" d="M977,658.76a10.36,10.36,0,0,0-.77.85h0c-4.55,5.77-2.34,15.12,5,20.86s16.89,5.73,21.45,0,2.34-15.13-4.94-20.88l-.48-.34a21.15,21.15,0,0,0-3.27-2,19.74,19.74,0,0,0-3.26-1.26C985.45,654.48,980.22,655.41,977,658.76Z"/><path class="cls-3" d="M1037.63,661a11.37,11.37,0,0,0,8,3,11.31,11.31,0,0,1,7.3-3.46,10.22,10.22,0,0,1,3.5.39h0a27.17,27.17,0,0,0,4-2.8c8.24-6.88,11.09-17,6.37-22.68s-15.21-4.65-23.45,2.23c-7.55,6.3-10.56,15.36-7.37,21.17a9.41,9.41,0,0,0,1,1.51C1037.2,660.63,1037.42,660.83,1037.63,661Z"/><path class="cls-3" d="M1052.9,660.59a11.31,11.31,0,0,0-7.3,3.46,15.1,15.1,0,0,0-1.39,1.58,21.57,21.57,0,0,0-3.81,9.06c-.46,2.81-.3,5.1.93,6.68s3.4,2.31,6.24,2.56a21.41,21.41,0,0,0,9.72-1.43,11.85,11.85,0,0,0,7-7.16,11.38,11.38,0,0,0-3.32-11.76,11.43,11.43,0,0,0-4.62-2.6A10.22,10.22,0,0,0,1052.9,660.59Z"/><path class="cls-3" d="M1091.93,670.39a26.44,26.44,0,0,0,2.56,9.32c1.19,2.4,2.45,3.95,4,4.16s3.14-.92,5-2.89a26.33,26.33,0,0,0,5.06-8.24,13.74,13.74,0,0,0,.38-9.8,8.28,8.28,0,0,0-14.54-2.07,12.21,12.21,0,0,0-2.28,5.92,16.39,16.39,0,0,0-.13,2C1091.88,669.32,1091.89,669.85,1091.93,670.39Z"/><path class="cls-3" d="M983.5,561.41a6.74,6.74,0,0,0,.17,1c.74,3.24,3.79,6,8,8a59.65,59.65,0,0,0,36,3.38c5-1.37,8.77-3.77,9.74-7.33s-1.16-7.61-5.76-11.08-11.65-6.24-19.77-7-15.59.65-20.73,3.2c-4.7,2.33-7.47,5.52-7.72,8.82A6.68,6.68,0,0,0,983.5,561.41Z"/><path class="cls-3" d="M934.66,562.07q1.17-.24,2.46-.42c.85-.11,1.73-.14,2.65-.18a35.57,35.57,0,0,1,5.82.33A42.41,42.41,0,0,1,956.42,565l.25-.36A21.45,21.45,0,0,0,960.82,552c-.1-4.21-1.84-7.74-5-9.69s-7-2-10.74-.74a23.12,23.12,0,0,0-14.8,19.58,16.56,16.56,0,0,0,0,2.34l.1,0A19.08,19.08,0,0,1,934.66,562.07Z"/><path class="cls-3" d="M931.4,580.63c.5.4,1,.79,1.55,1.16s1.08.79,1.65,1.17c1.15.73,2.33,1.54,3.59,2.26,2.49,1.52,5.2,3,8.09,4.39s5.65,2.76,8.37,3.84c1.32.58,2.68,1,4,1.51.64.23,1.31.42,1.93.62s1.24.39,1.86.55c4.89,1.29,9.33,1.59,12.22-.76a7,7,0,0,0,2.4-5.14,12.46,12.46,0,0,0-.31-3.67,18.54,18.54,0,0,0-1.42-4.17c-.33-.72-.71-1.46-1.13-2.22s-.93-1.47-1.45-2.23a35.71,35.71,0,0,0-3.75-4.45,42.66,42.66,0,0,0-10.11-7.37l-.64-.34c-.59-.3-1.19-.57-1.78-.83a42.41,42.41,0,0,0-10.83-3.15,35.57,35.57,0,0,0-5.82-.33c-.92,0-1.8.07-2.65.18s-1.68.26-2.46.42a19.08,19.08,0,0,0-4.19,1.37l-.1,0a12,12,0,0,0-3,1.9,7,7,0,0,0-2.68,5,8.25,8.25,0,0,0,1.38,4.68,15,15,0,0,0,1.22,1.66A28.17,28.17,0,0,0,931.4,580.63Z"/><path class="cls-3" d="M884.56,596a25.2,25.2,0,0,1,10.79-2.67,34.47,34.47,0,0,1,5.39.24,26.36,26.36,0,0,0,2.17-3.84c.14-.3.25-.61.38-.92a25.73,25.73,0,0,0,1-2.89,22.63,22.63,0,0,0,.41-12.25c-1.24-4.48-4.06-7.44-7.64-8.2s-7.28.61-10.48,3A27.92,27.92,0,0,0,876.16,591a13.87,13.87,0,0,0,3.49,9A14.42,14.42,0,0,1,884.56,596Z"/><path class="cls-3" d="M878.12,605.15a6,6,0,0,0,.86,2.48,15.31,15.31,0,0,0,3.87,3.83l4.2,3.18a29.16,29.16,0,0,0,4.93,3c1,.47,2.11,1,3.35,1.42s2.57.91,4.19,1.36a40.23,40.23,0,0,0,17.27,1.25c4.88-.88,8.6-3,9.88-6.49s-.19-7.56-3.8-11.35-9.34-7.18-16.24-9.09a39.16,39.16,0,0,0-5.49-1.13l-.4-.05a34.47,34.47,0,0,0-5.39-.24A25.2,25.2,0,0,0,884.56,596a14.42,14.42,0,0,0-4.91,4.12,8.52,8.52,0,0,0-1.08,1.93c-.06.15-.1.3-.15.44A6.3,6.3,0,0,0,878.12,605.15Z"/><path class="cls-3" d="M833.19,645.64c3.19,1.79,7.35,1.31,11.31-1.6a21.57,21.57,0,0,0,5.45-6,29.06,29.06,0,0,0,4.3-13.64c0-.91.06-1.82,0-2.7,0-.68-.06-1.36-.13-2a21.94,21.94,0,0,0-2.31-7.77c-2.31-4.34-5.85-6.58-9.49-6.35s-6.85,2.64-9.34,5.84a27.5,27.5,0,0,0-3.25,5.43,31.66,31.66,0,0,0-2.17,6.44,30.46,30.46,0,0,0-.28,13.06A15.52,15.52,0,0,0,831,644a10.06,10.06,0,0,0,1.56,1.27C832.79,645.38,833,645.52,833.19,645.64Z"/><path class="cls-3" d="M845.64,540.75h.06a6,6,0,0,0,3.37-1.46,8.31,8.31,0,0,1-3-5.32c-.44-4.26,3.14-8.45,9.06-11.52a1.93,1.93,0,0,1,0-.24,62.79,62.79,0,0,0-1.64-17.69c-2.25-9.59-6.36-17.71-10.74-22.89s-9-7.48-12.34-6.1-5.1,6.05-5.44,12.33.58,14.25,2.57,22.74,4.7,16,7.8,21.52c2.47,4.35,5.23,7.41,8.12,8.35A5.8,5.8,0,0,0,845.64,540.75Z"/><path class="cls-3" d="M846.06,534a8.31,8.31,0,0,0,3,5.32c4.64,4.1,14,6.31,24.58,5.22,14.47-1.5,25.6-8.65,24.84-16s-13.11-12-27.59-10.54a47.63,47.63,0,0,0-12.59,3c-1.12.45-2.19.93-3.19,1.45C849.2,525.52,845.62,529.71,846.06,534Z"/><path class="cls-3" d="M892.8,469.22a12.72,12.72,0,0,0,1-1.43l-1-.86a7.13,7.13,0,0,1-1.43-2.34,3.48,3.48,0,0,1-.21-1.46,6,6,0,0,1,.09-.82,7.72,7.72,0,0,1,.14-.79,15,15,0,0,1,3.38-6.17,22.16,22.16,0,0,1,2.35-2.29,37.12,37.12,0,0,0-.5-4.79,32.21,32.21,0,0,0-6.44-15c-3.07-3.71-6.87-5.65-10.47-4.89s-6.39,3.75-8.1,8.05a31.08,31.08,0,0,0-1.26,16.33c1.07,6.26,3.66,11.84,7.06,15.57a14.66,14.66,0,0,0,5.45,3.94,7.89,7.89,0,0,0,5.49.16,8.33,8.33,0,0,0,1.84-.92A11.41,11.41,0,0,0,892.8,469.22Z"/><path class="cls-3" d="M894.79,455.35a15,15,0,0,0-3.38,6.17,7.72,7.72,0,0,0-.14.79,6,6,0,0,0-.09.82,3.48,3.48,0,0,0,.21,1.46,7.13,7.13,0,0,0,1.43,2.34l1,.86.95.86c1.94,1.79,3.69,3.48,6.51,4.39a25.38,25.38,0,0,0,13.47.31,26.39,26.39,0,0,0,12.37-6.2,14.27,14.27,0,0,0,3.28-4.54,9.77,9.77,0,0,0,.48-1.23,11.38,11.38,0,0,0,.38-1.26,24.2,24.2,0,0,0,.61-2.64,5.73,5.73,0,0,0-.22-2.72,9,9,0,0,0-.61-1.3,13.1,13.1,0,0,0-.89-1.22,14.72,14.72,0,0,0-5.38-3.78A25.36,25.36,0,0,0,911,447c-.7.11-1.4.23-2.1.39-.31.07-.6.16-.9.24a27.47,27.47,0,0,0-10.9,5.47A22.16,22.16,0,0,0,894.79,455.35Z"/><path class="cls-3" d="M923.81,430.58a6.93,6.93,0,0,0,2.46,1.46,11.8,11.8,0,0,0,5.45.32,19,19,0,0,0,5.63-1.84,39.44,39.44,0,0,0,18.37-22.62,19.11,19.11,0,0,0,.63-5.89,11.59,11.59,0,0,0-1.43-5.26,7.09,7.09,0,0,0-4.45-3.28,14.3,14.3,0,0,0-7.11.2c-5.26,1.34-10.87,5-15.35,10.51s-6.9,11.75-7.12,17.18a14.06,14.06,0,0,0,1.26,7c.11.23.24.45.36.65A7.31,7.31,0,0,0,923.81,430.58Z"/><path class="cls-5" d="M811.31,973.76v48.35a77.56,77.56,0,0,1-56.21,74.55H862.9a138.2,138.2,0,0,0,1.15-17.62C864.05,1034.83,843,996,811.31,973.76Z"/><path d="M1315.45,1096.66h-273a49.62,49.62,0,0,1-12.27,3h355.71a49.62,49.62,0,0,1-12.27-3Z"/><path d="M1537.12,1096.66H1409.67a49.7,49.7,0,0,1-12.28,3h139.73a1.5,1.5,0,0,0,0-3Z"/><path d="M1006.44,1096.66H755.1a77.55,77.55,0,0,1-21.35,3h-371a77.55,77.55,0,0,1-21.35-3H123.66a1.5,1.5,0,0,0,0,3h895.05A49.73,49.73,0,0,1,1006.44,1096.66Z"/><path class="cls-2" d="M313.14,238.59a71.69,71.69,0,0,1,71.69-71.69H711.68a71.69,71.69,0,0,1,71.69,71.69v767.3a71.69,71.69,0,0,1-71.69,71.69H384.83a71.69,71.69,0,0,1-71.69-71.69V467.11c-7.94,9.38-16.35,18.4-24.94,27v528a74.55,74.55,0,0,0,74.56,74.55h371a74.55,74.55,0,0,0,74.56-74.55V222.37a74.55,74.55,0,0,0-74.56-74.55h-371a74.55,74.55,0,0,0-74.56,74.55v34.29a75,75,0,0,1,24.94,6.56Z"/><path d="M285.2,1022.11a77.57,77.57,0,0,0,77.56,77.55h371a77.57,77.57,0,0,0,77.56-77.55V222.37a77.55,77.55,0,0,0-77.56-77.55h-371a77.56,77.56,0,0,0-77.56,77.55v34.08c1,.06,2,.12,3,.21V222.37a74.55,74.55,0,0,1,74.56-74.55h371a74.55,74.55,0,0,1,74.56,74.55v799.74a74.55,74.55,0,0,1-74.56,74.55h-371a74.55,74.55,0,0,1-74.56-74.55v-528c-1,1-2,2-3,3v525.08Z"/><path class="cls-2" d="M621.89,532.4A45.36,45.36,0,0,0,662,508.14H581.33l3.2,4.64A45.24,45.24,0,0,0,621.89,532.4Z"/><path class="cls-2" d="M316.14,1005.89a68.68,68.68,0,0,0,68.69,68.69H711.68a68.68,68.68,0,0,0,68.69-68.69V238.59a68.69,68.69,0,0,0-68.69-68.69H384.83a68.69,68.69,0,0,0-68.69,68.69v26.12a71.21,71.21,0,0,1,6.15,3.59c13.17,8.64,25.07,22.53,34.54,43.42a97.76,97.76,0,0,1,8.81,40.8c0,28.19-11.48,56.32-28.57,82.67a308.05,308.05,0,0,1-20.93,28.34ZM695.92,632.5a10.45,10.45,0,1,1,0,20.89H400.59a10.45,10.45,0,1,1,0-20.89Zm-220.1-49.3a10.43,10.43,0,0,1,10.44-10.44h124a10.45,10.45,0,0,1,0,20.89h-124A10.44,10.44,0,0,1,475.82,583.2ZM432.09,702.91a10.45,10.45,0,1,1,0-20.89H664.42a10.45,10.45,0,1,1,0,20.89Zm177.33,44.71a7.08,7.08,0,1,1-7.08-7.08A7.08,7.08,0,0,1,609.42,747.62Zm-54.09,0a7.08,7.08,0,1,1-7.07-7.08A7.08,7.08,0,0,1,555.33,747.62Zm-54.09,0a7.07,7.07,0,1,1-7.07-7.08A7.07,7.07,0,0,1,501.24,747.62ZM431.5,785.71H665a34.6,34.6,0,1,1,0,69.2H431.5a34.6,34.6,0,0,1,0-69.2ZM396.9,912.77a34.6,34.6,0,0,1,34.6-34.6H665a34.6,34.6,0,0,1,0,69.2H431.5A34.61,34.61,0,0,1,396.9,912.77ZM548.26,1057a30.94,30.94,0,1,1,30.94-30.94A30.94,30.94,0,0,1,548.26,1057ZM382.4,257.82H714.11V508.14H665.33a48.31,48.31,0,0,1-83.28,6.34l-4.36-6.34H382.4Z"/><path d="M313.14,1005.89a71.69,71.69,0,0,0,71.69,71.69H711.68a71.69,71.69,0,0,0,71.69-71.69V238.59a71.69,71.69,0,0,0-71.69-71.69H384.83a71.69,71.69,0,0,0-71.69,71.69v24.63c1,.47,2,1,3,1.49V238.59a68.69,68.69,0,0,1,68.69-68.69H711.68a68.69,68.69,0,0,1,68.69,68.69v767.3a68.68,68.68,0,0,1-68.69,68.69H384.83a68.68,68.68,0,0,1-68.69-68.69V463.53q-1.49,1.8-3,3.58Z"/><path d="M528.49,1045.84a27.94,27.94,0,1,0-8.18-19.76A27.86,27.86,0,0,0,528.49,1045.84Z"/><path d="M548.26,995.15a30.94,30.94,0,1,0,30.94,30.93A30.94,30.94,0,0,0,548.26,995.15Zm0,3a27.93,27.93,0,1,1-19.77,8.18A27.84,27.84,0,0,1,548.26,998.15Z"/><path class="cls-2" d="M334.55,433.56c16.91-26.06,28.1-53.69,28.09-81A94.68,94.68,0,0,0,354.1,313c-9.29-20.5-20.83-33.87-33.45-42.15s-26.36-11.49-40.2-11.49c-23.24,0-46.71,9.16-64.68,18.67a218.44,218.44,0,0,0-31.87,20.42l-.14.11a1.5,1.5,0,0,1-1.88,0l-.14-.11-.4-.32c-.37-.29-.91-.71-1.62-1.24-1.41-1.07-3.49-2.6-6.15-4.44a230.87,230.87,0,0,0-22-13.5c-18.18-9.83-42.41-19.6-66.4-19.59-13.84,0-27.58,3.22-40.2,11.49S20.83,292.46,11.54,313A94.68,94.68,0,0,0,3,352.52c0,26.5,10.49,53.26,26.52,78.59s37.55,49.22,59.42,70a673.81,673.81,0,0,0,93.88,73.64l.35-.23c.76-.48,1.87-1.19,3.31-2.14,2.88-1.88,7.05-4.66,12.22-8.24,10.33-7.17,24.65-17.54,40.55-30.36C271.05,508.1,309.2,472.64,334.55,433.56Zm-91.07-10a1.52,1.52,0,0,1-.44,1.06A1.5,1.5,0,0,1,242,425h-38.2v38.19a1.52,1.52,0,0,1-.44,1.06,1.5,1.5,0,0,1-1.06.44H163.36a1.5,1.5,0,0,1-1.5-1.5V425h-38.2a1.5,1.5,0,0,1-1.5-1.5V384.62a1.5,1.5,0,0,1,1.5-1.5h38.2V344.93a1.5,1.5,0,0,1,1.5-1.5h38.92a1.5,1.5,0,0,1,1.06.44,1.52,1.52,0,0,1,.44,1.06v38.19H242a1.5,1.5,0,0,1,1.06.44,1.52,1.52,0,0,1,.44,1.06Z"/><path d="M288.2,494.07c8.59-8.56,17-17.58,24.94-27q1.51-1.78,3-3.58a308.05,308.05,0,0,0,20.93-28.34c17.09-26.35,28.57-54.48,28.57-82.67a97.76,97.76,0,0,0-8.81-40.8c-9.47-20.89-21.37-34.78-34.54-43.42a71.21,71.21,0,0,0-6.15-3.59c-1-.52-2-1-3-1.49a75,75,0,0,0-24.94-6.56c-1-.09-2-.15-3-.21-1.58-.08-3.16-.13-4.75-.13-24.81,0-49.4,10-67.83,19.95a226.27,226.27,0,0,0-29.8,19.17A226.27,226.27,0,0,0,153,276.27c-18.43-9.95-43-19.94-67.83-19.95-14.29,0-28.68,3.35-41.84,12S18.28,290.83,8.81,311.72A97.76,97.76,0,0,0,0,352.52c0,28.19,11.48,56.32,28.57,82.67,25.65,39.53,64,75.13,95.94,100.89A648.17,648.17,0,0,0,182,577.77a1.5,1.5,0,0,0,1.58,0,673.62,673.62,0,0,0,90.89-70.51q5.37-5,10.7-10.23C286.21,496.05,287.21,495.06,288.2,494.07Zm-89.5,70c-5.17,3.58-9.34,6.36-12.22,8.24-1.44.95-2.55,1.66-3.31,2.14l-.35.23a673.81,673.81,0,0,1-93.88-73.64c-21.87-20.75-43.4-44.63-59.42-70S3,379,3,352.52A94.68,94.68,0,0,1,11.54,313c9.29-20.5,20.84-33.87,33.45-42.15s26.36-11.49,40.2-11.49c24,0,48.22,9.76,66.4,19.59a230.87,230.87,0,0,1,22,13.5c2.66,1.84,4.74,3.37,6.15,4.44.71.53,1.25.95,1.62,1.24l.4.32.14.11a1.5,1.5,0,0,0,1.88,0l.14-.11A218.44,218.44,0,0,1,215.77,278c18-9.51,41.44-18.68,64.68-18.67,13.84,0,27.58,3.22,40.2,11.49S344.81,292.46,354.1,313a94.68,94.68,0,0,1,8.54,39.56c0,27.35-11.18,55-28.09,81-25.35,39.08-63.5,74.54-95.3,100.19C223.35,546.57,209,556.94,198.7,564.11Z"/><path class="cls-4" d="M202.28,386.12a1.5,1.5,0,0,1-1.5-1.5V346.43H164.86v38.19a1.52,1.52,0,0,1-.44,1.06,1.5,1.5,0,0,1-1.06.44h-38.2V422h38.2a1.5,1.5,0,0,1,1.5,1.5v38.19h35.92V423.53a1.5,1.5,0,0,1,.44-1.06,1.52,1.52,0,0,1,1.06-.44h38.2V386.12Z"/><path d="M242,383.12h-38.2V344.93a1.52,1.52,0,0,0-.44-1.06,1.5,1.5,0,0,0-1.06-.44H163.36a1.5,1.5,0,0,0-1.5,1.5v38.19h-38.2a1.5,1.5,0,0,0-1.5,1.5v38.91a1.5,1.5,0,0,0,1.5,1.5h38.2v38.19a1.5,1.5,0,0,0,1.5,1.5h38.92a1.5,1.5,0,0,0,1.06-.44,1.52,1.52,0,0,0,.44-1.06V425H242a1.5,1.5,0,0,0,1.06-.44,1.52,1.52,0,0,0,.44-1.06V384.62a1.52,1.52,0,0,0-.44-1.06A1.5,1.5,0,0,0,242,383.12ZM202.28,422a1.52,1.52,0,0,0-1.06.44,1.5,1.5,0,0,0-.44,1.06v38.19H164.86V423.53a1.5,1.5,0,0,0-1.5-1.5h-38.2V386.12h38.2a1.5,1.5,0,0,0,1.06-.44,1.52,1.52,0,0,0,.44-1.06V346.43h35.92v38.19a1.5,1.5,0,0,0,1.5,1.5h38.2V422Z"/><path class="cls-2" d="M905.48,132.12c29.75,13.87,71,22.51,116.65,22.5,32.35,0,62.51-4.34,87.94-11.82a1.52,1.52,0,0,1,1.49.39c10.93,11.08,23.22,22.83,32.22,29.5a41.47,41.47,0,0,0,7.6,4.73,7.15,7.15,0,0,0,2.59.71,1.11,1.11,0,0,0,.61-.14,1.71,1.71,0,0,0,.62-.94,7.6,7.6,0,0,0,.3-2.33,33.82,33.82,0,0,0-1.25-7.84c-.8-3.15-2-6.74-3.32-10.54-2.74-7.6-6.36-16.07-9.84-23.7a1.51,1.51,0,0,1,.71-2c14-6.86,25.2-14.92,32.88-23.71s11.81-18.27,11.81-28.15c0-10.22-4.43-20-12.64-29.08s-20.2-17.29-35.07-24.23C1109,11.63,1067.74,3,1022.13,3c-34.21,0-66,4.85-92.28,13.13s-47.13,20-59.44,33.6c-8.21,9.06-12.64,18.86-12.64,29.08s4.43,20,12.64,29.09S890.6,125.19,905.48,132.12Zm189.17-34.23h-49.39a7.25,7.25,0,1,1,0-14.49h49.39a7.25,7.25,0,1,1,0,14.49ZM950.49,54.57h144.16a7.25,7.25,0,1,1,0,14.5H950.49a7.25,7.25,0,0,1,0-14.5Zm-.88,28.83H999a7.25,7.25,0,1,1,0,14.49H949.61a7.25,7.25,0,1,1,0-14.49Z"/><path d="M928.94,144.35c26.64,8.39,58.7,13.27,93.19,13.27,32.26,0,62.36-4.28,87.92-11.69,8.2,8.29,17.09,16.88,24.86,23.49a108.65,108.65,0,0,0,10.86,8.32,32.06,32.06,0,0,0,4.42,2.44,9.88,9.88,0,0,0,3.78.95,4.09,4.09,0,0,0,2.28-.64h0A4.67,4.67,0,0,0,1158,178a10.37,10.37,0,0,0,.46-3.3,37.21,37.21,0,0,0-1.34-8.58c-2.41-9.46-7.67-22.21-12.74-33.43,13.64-6.85,24.73-14.86,32.52-23.78,8-9.18,12.55-19.38,12.55-30.12,0-11.12-4.85-21.66-13.42-31.1-12.87-14.17-34.12-26-60.76-34.44S1056.62,0,1022.13,0c-46,0-87.64,8.68-117.92,22.78-15.13,7.06-27.44,15.48-36,24.93s-13.42,20-13.42,31.1,4.85,21.66,13.42,31.1C881.06,124.08,902.31,136,928.94,144.35ZM870.41,49.73c12.31-13.58,33.13-25.32,59.44-33.6S987.92,3,1022.13,3c45.61,0,86.89,8.63,116.65,22.5,14.87,6.94,26.86,15.18,35.07,24.23s12.64,18.86,12.64,29.08c0,9.88-4.13,19.35-11.81,28.15s-18.9,16.85-32.88,23.71a1.51,1.51,0,0,0-.71,2c3.48,7.63,7.1,16.1,9.84,23.7,1.37,3.8,2.52,7.39,3.32,10.54a33.82,33.82,0,0,1,1.25,7.84,7.6,7.6,0,0,1-.3,2.33,1.71,1.71,0,0,1-.62.94,1.11,1.11,0,0,1-.61.14,7.15,7.15,0,0,1-2.59-.71,41.47,41.47,0,0,1-7.6-4.73c-9-6.67-21.29-18.42-32.22-29.5a1.52,1.52,0,0,0-1.49-.39c-25.43,7.48-55.59,11.82-87.94,11.82-45.61,0-86.9-8.63-116.65-22.5-14.88-6.93-26.86-15.17-35.07-24.22S857.77,89,857.77,78.81,862.2,58.79,870.41,49.73Z"/><path class="cls-3" d="M950.49,69.07h144.16a7.25,7.25,0,1,0,0-14.5H950.49a7.25,7.25,0,0,0,0,14.5Z"/><path class="cls-3" d="M1094.65,83.4h-49.39a7.25,7.25,0,1,0,0,14.49h49.39a7.25,7.25,0,1,0,0-14.49Z"/><path class="cls-3" d="M949.61,97.89H999a7.25,7.25,0,1,0,0-14.49H949.61a7.25,7.25,0,1,0,0,14.49Z"/><path class="cls-2" d="M1502.62,1048.21v-23.79a1.61,1.61,0,0,1-.2-.74V978.16a1.57,1.57,0,0,1,.2-.74V856.79h-1.5a8.31,8.31,0,0,1-8.31-8.31V822.65a8.32,8.32,0,0,1,8.31-8.32h1.5V788.71H1162.45a1.5,1.5,0,0,1-1.06.44h-53a1.52,1.52,0,0,1-1.06-.44h-33.68a28.11,28.11,0,0,0-24.79,14.87L992.58,908.94a1.49,1.49,0,0,1-.61.61L941.64,937v39a1.59,1.59,0,0,1-.18.71c-.1.18-2.48,4.53-8.83,7.72a1.44,1.44,0,0,1-.67.16H913.41v13.69h6.41a1.52,1.52,0,0,1,1.06.44,1.48,1.48,0,0,1,.44,1.06v42.52a1.5,1.5,0,0,1-1.5,1.5h-6.41v4.36h60.78a50.29,50.29,0,0,1,100.53,0h46.18V815.5a1.5,1.5,0,0,1,.44-1.06,1.52,1.52,0,0,1,1.06-.44h90.53a1.52,1.52,0,0,1,1.06.44,1.5,1.5,0,0,1,.44,1.06v232.71h127a50.29,50.29,0,0,1,100.53,0ZM1109.54,888.87a1.52,1.52,0,0,1-.44,1.06,1.47,1.47,0,0,1-1.06.43h-83.58a1.49,1.49,0,0,1-1.38-2.08l31.26-73.37a1.51,1.51,0,0,1,1.38-.91H1108a1.48,1.48,0,0,1,1.06.44,1.5,1.5,0,0,1,.44,1.06Zm367.83-5.74a1.5,1.5,0,0,1-1.06.44H1235a1.52,1.52,0,0,1-1.06-.44,1.5,1.5,0,0,1-.44-1.06V815.83a1.5,1.5,0,0,1,1.5-1.5h241.3a1.5,1.5,0,0,1,1.06.44,1.52,1.52,0,0,1,.44,1.06v66.24A1.5,1.5,0,0,1,1477.37,883.13Z"/><path d="M1121.34,1050.77a1.52,1.52,0,0,1-.44-1.06v-1.5h-46.18c0,.5,0,1,0,1.5s0,1,0,1.5h47.67A1.54,1.54,0,0,1,1121.34,1050.77Z"/><path d="M939.42,934.84a1.48,1.48,0,0,1,1.48,0,1.51,1.51,0,0,1,.74,1.29V937L992,909.55a1.49,1.49,0,0,0,.61-.61l56.26-105.36a28.11,28.11,0,0,1,24.79-14.87h33.68a1.48,1.48,0,0,1-.44-1.05v-1.95h-33.24a31.1,31.1,0,0,0-27.44,16.46l-56.05,105-12.34,6.74-38.38,21Z"/><path d="M1162.89,787.66a1.51,1.51,0,0,1-.43,1.05h340.16v25.62h3V787.21a1.52,1.52,0,0,0-.44-1.06,1.48,1.48,0,0,0-1.06-.44H1162.89Z"/><path d="M1502.62,856.79V977.42a1.28,1.28,0,0,1,.24-.32,1.5,1.5,0,0,1,1.06-.44h1.7V856.79Z"/><path d="M1503.92,1025.18a1.5,1.5,0,0,1-1.06-.44,1.78,1.78,0,0,1-.24-.32v23.79h-60.7c0,.5,0,1,0,1.5s0,1,0,1.5h62.2a1.48,1.48,0,0,0,1.06-.44,1.52,1.52,0,0,0,.44-1.06v-24.53Z"/><path d="M913.41,998.33V984.64h-1.5a1.5,1.5,0,0,1-1.5-1.5v15.19Z"/><path d="M913.41,1043.85h-3v5.86a1.5,1.5,0,0,0,1.5,1.5h62.28c0-.5,0-1,0-1.5s0-1,0-1.5H913.41Z"/><path d="M1214.43,1048.21v1.5a1.52,1.52,0,0,1-.44,1.06,1.54,1.54,0,0,1-1,.44h128.44c0-.5,0-1,0-1.5s0-1,0-1.5Z"/><polygon class="cls-4" points="1106.54 887.37 1106.54 817 1056.71 817 1026.73 887.37 1106.54 887.37"/><path d="M1109.1,814.44A1.48,1.48,0,0,0,1108,814h-52.32a1.51,1.51,0,0,0-1.38.91l-31.26,73.37a1.49,1.49,0,0,0,1.38,2.08H1108a1.47,1.47,0,0,0,1.06-.43,1.52,1.52,0,0,0,.44-1.06V815.5A1.5,1.5,0,0,0,1109.1,814.44Zm-2.56,2.56v70.36h-79.81l30-70.37Z"/><rect class="cls-4" x="1236.51" y="817.33" width="238.3" height="63.24"/><path d="M1477.81,815.83a1.52,1.52,0,0,0-.44-1.06,1.5,1.5,0,0,0-1.06-.44H1235a1.5,1.5,0,0,0-1.5,1.5v66.24a1.5,1.5,0,0,0,.44,1.06,1.52,1.52,0,0,0,1.06.44h241.3a1.5,1.5,0,0,0,1.5-1.5Zm-241.3,1.5h238.3v63.24h-238.3Z"/><path class="cls-2" d="M1508.22,817.33h-7.1a5.33,5.33,0,0,0-5.31,5.32v25.83a5.33,5.33,0,0,0,5.31,5.31h7.1a5.33,5.33,0,0,0,5.31-5.31V822.65a5.33,5.33,0,0,0-5.31-5.32Z"/><path d="M1502.62,814.33h-1.5a8.32,8.32,0,0,0-8.31,8.32v25.83a8.31,8.31,0,0,0,8.31,8.31h7.1a8.31,8.31,0,0,0,8.31-8.31V822.65a8.32,8.32,0,0,0-8.31-8.32h-5.6Zm10.91,34.15a5.33,5.33,0,0,1-5.31,5.31h-7.1a5.33,5.33,0,0,1-5.31-5.31V822.65a5.33,5.33,0,0,1,5.31-5.32h7.1a5.33,5.33,0,0,1,5.31,5.32Z"/><rect class="cls-2" x="1123.9" y="817" width="87.52" height="231.21"/><path d="M1120.9,1049.71a1.52,1.52,0,0,0,.44,1.06,1.54,1.54,0,0,0,1.05.44h90.55a1.54,1.54,0,0,0,1-.44,1.52,1.52,0,0,0,.44-1.06V815.5a1.5,1.5,0,0,0-.44-1.06,1.52,1.52,0,0,0-1.06-.44H1122.4a1.52,1.52,0,0,0-1.06.44,1.5,1.5,0,0,0-.44,1.06v234.21Zm3-232.71h87.53v231.21H1123.9Z"/><polygon class="cls-2" points="918.32 1040.85 918.32 1001.33 899.44 1001.33 899.44 1023.15 909.25 1040.85 918.32 1040.85"/><path d="M913.41,1043.85h6.41a1.5,1.5,0,0,0,1.5-1.5V999.83a1.48,1.48,0,0,0-.44-1.06,1.52,1.52,0,0,0-1.06-.44H897.94a1.5,1.5,0,0,0-1.06.44,1.48,1.48,0,0,0-.44,1.06v23.71a1.45,1.45,0,0,0,.19.73l10.43,18.81a1.5,1.5,0,0,0,1.31.77h5Zm-14-42.52h18.88v39.52h-9.07l-9.81-17.7Z"/><polygon class="cls-2" points="1109.87 777.77 1109.87 786.16 1159.89 786.16 1159.89 777.77 1153.82 777.77 1115.95 777.77 1109.87 777.77"/><path d="M1106.87,787.66a1.48,1.48,0,0,0,.44,1.05h0a1.52,1.52,0,0,0,1.06.44h53a1.5,1.5,0,0,0,1.06-.44h0a1.51,1.51,0,0,0,.43-1.05V776.27a1.52,1.52,0,0,0-.44-1.06,1.5,1.5,0,0,0-1.06-.44h-6.53l.36,1a1.49,1.49,0,0,1-1.41,2h6.08v8.39h-50v-8.39H1116a1.5,1.5,0,0,1-1.41-2l.37-1h-6.54a1.5,1.5,0,0,0-1.5,1.5v11.39Z"/><path class="cls-4" d="M1151.66,774.77l-7.46-20,0-.13a3,3,0,0,0-.85-1.32,6.93,6.93,0,0,0-2-1.3,15.51,15.51,0,0,0-6.45-1.29,17,17,0,0,0-5.09.75,8.62,8.62,0,0,0-3.33,1.84,2.91,2.91,0,0,0-.85,1.32l0,.13-7.46,20Z"/><path d="M1114.72,777.13a1.5,1.5,0,0,0,1.23.64h37.86a1.49,1.49,0,0,0,1.41-2l-.36-1L1147,753.71h0a6,6,0,0,0-1.61-2.55,11.51,11.51,0,0,0-4.51-2.54,19.64,19.64,0,0,0-6-.9,18.39,18.39,0,0,0-7.72,1.57,10.31,10.31,0,0,0-2.8,1.87,6.11,6.11,0,0,0-1.6,2.55h0l-7.85,21.06-.37,1A1.51,1.51,0,0,0,1114.72,777.13Zm10.89-22.5a2.91,2.91,0,0,1,.85-1.32,8.62,8.62,0,0,1,3.33-1.84,17,17,0,0,1,5.09-.75,15.51,15.51,0,0,1,6.45,1.29,6.93,6.93,0,0,1,2,1.3,3,3,0,0,1,.85,1.32l0,.13,7.46,20h-33.55l7.46-20Z"/><path d="M1391.65,1097a47.29,47.29,0,1,0-33.45-13.85A47.14,47.14,0,0,0,1391.65,1097Zm-28.32-47.29a28.32,28.32,0,1,1,28.32,28.31A28.31,28.31,0,0,1,1363.33,1049.71Z"/><path d="M1415.74,1093.86c.92-.5,1.81-1,2.7-1.59a50.24,50.24,0,0,0,23.48-41.06c0-.5,0-1,0-1.5s0-1,0-1.5a50.29,50.29,0,0,0-100.53,0c0,.5,0,1,0,1.5s0,1,0,1.5a50.31,50.31,0,0,0,32.26,45.45,50.44,50.44,0,0,0,36,0A48.42,48.42,0,0,0,1415.74,1093.86Zm-71.39-44.15a47.29,47.29,0,1,1,13.85,33.44A47.12,47.12,0,0,1,1344.35,1049.71Z"/><path class="cls-2" d="M1391.65,1075a25.32,25.32,0,1,0-17.9-7.41A25.26,25.26,0,0,0,1391.65,1075Z"/><path d="M1391.65,1078a28.31,28.31,0,1,0-28.32-28.31A28.31,28.31,0,0,0,1391.65,1078Zm-25.32-28.31a25.32,25.32,0,1,1,7.42,17.9A25.2,25.2,0,0,1,1366.33,1049.71Z"/><path d="M1024.46,1097A47.3,47.3,0,1,0,991,1083.15,47.18,47.18,0,0,0,1024.46,1097Zm-28.32-47.29a28.32,28.32,0,1,1,28.32,28.31A28.31,28.31,0,0,1,996.14,1049.71Z"/><path d="M1042.47,1096.66a50.28,50.28,0,0,0,32.25-45.45c0-.5,0-1,0-1.5s0-1,0-1.5a50.29,50.29,0,0,0-100.53,0c0,.5,0,1,0,1.5s0,1,0,1.5a50.28,50.28,0,0,0,32.25,45.45,50.42,50.42,0,0,0,36,0Zm-65.32-47A47.3,47.3,0,1,1,991,1083.15,47.09,47.09,0,0,1,977.15,1049.71Z"/><path class="cls-2" d="M1024.46,1075a25.3,25.3,0,1,0-17.91-7.41A25.25,25.25,0,0,0,1024.46,1075Z"/><path d="M1024.46,1078a28.31,28.31,0,1,0-28.32-28.31A28.31,28.31,0,0,0,1024.46,1078Zm-25.32-28.31a25.3,25.3,0,1,1,7.41,17.9A25.23,25.23,0,0,1,999.14,1049.71Z"/><path class="cls-4" d="M913.41,973.33v8.31h18.17a18.79,18.79,0,0,0,7.06-6v-37l-6.92,3.78h0A35.18,35.18,0,0,0,913.41,973.33Z"/><path d="M911.91,984.64H932a1.44,1.44,0,0,0,.67-.16c6.35-3.19,8.73-7.54,8.83-7.72a1.59,1.59,0,0,0,.18-.71v-39.9a1.51,1.51,0,0,0-.74-1.29,1.48,1.48,0,0,0-1.48,0l-9.14,5h0a38.18,38.18,0,0,0-19.87,33.5v9.81a1.5,1.5,0,0,0,1.5,1.5Zm19.81-42.18,6.92-3.78v37a18.79,18.79,0,0,1-7.06,6H913.41v-8.31a35.18,35.18,0,0,1,18.31-30.87Z"/><path class="cls-4" d="M1513.33,979.66h-7.91v42.52h7.91a8.31,8.31,0,0,0,8.31-8.32V988a8.3,8.3,0,0,0-8.31-8.31Z"/><path d="M1503.92,976.66a1.5,1.5,0,0,0-1.06.44,1.28,1.28,0,0,0-.24.32,1.57,1.57,0,0,0-.2.74v45.52a1.61,1.61,0,0,0,.2.74,1.78,1.78,0,0,0,.24.32,1.5,1.5,0,0,0,1.06.44h9.41a11.31,11.31,0,0,0,11.31-11.32V988a11.31,11.31,0,0,0-11.31-11.31h-9.41Zm17.72,37.2a8.31,8.31,0,0,1-8.31,8.32h-7.91V979.66h7.91a8.3,8.3,0,0,1,8.31,8.31Z"/><path class="cls-2" d="M193.18,856.6a37.22,37.22,0,0,1,25.21-25.24,37.18,37.18,0,0,1-25.21-25.24A37.18,37.18,0,0,1,168,831.36,37.2,37.2,0,0,1,193.18,856.6Z"/><path d="M191.67,867a1.52,1.52,0,0,0,.44,1.06,1.5,1.5,0,0,0,1.06.44h0a1.5,1.5,0,0,0,1.06-.44,1.52,1.52,0,0,0,.44-1.06,34.14,34.14,0,0,1,34.15-34.15,1.52,1.52,0,0,0,1.06-.44,1.5,1.5,0,0,0,.44-1.06,1.5,1.5,0,0,0-1.5-1.5,34,34,0,0,1-23.26-9.15c-.3-.28-.6-.56-.89-.85a34,34,0,0,1-10-24.14,1.5,1.5,0,0,0-1.5-1.5h0a1.5,1.5,0,0,0-1.5,1.5,34.14,34.14,0,0,1-34.15,34.14,1.5,1.5,0,0,0-1.5,1.5,1.5,1.5,0,0,0,.44,1.06,1.52,1.52,0,0,0,1.06.44,34,34,0,0,1,18.23,5.28,34.57,34.57,0,0,1,5.92,4.72A34,34,0,0,1,191.67,867Zm1.51-60.89a37.18,37.18,0,0,0,25.21,25.24,37.22,37.22,0,0,0-25.21,25.24A37.2,37.2,0,0,0,168,831.36,37.18,37.18,0,0,0,193.18,806.12Z"/><path class="cls-3" d="M898.46,815.5a21.36,21.36,0,1,0,21.36-21.35A21.36,21.36,0,0,0,898.46,815.5Zm35.52,0a14.17,14.17,0,1,1-14.16-14.16A14.16,14.16,0,0,1,934,815.5Z"/><path class="cls-2" d="M409.16,842.66a31.53,31.53,0,0,0,22.34,9.26H665a31.61,31.61,0,0,0,0-63.21H431.5a31.6,31.6,0,0,0-22.34,53.95Z"/><path d="M396.9,820.31a34.6,34.6,0,0,0,34.6,34.6H665a34.6,34.6,0,1,0,0-69.2H431.5A34.61,34.61,0,0,0,396.9,820.31Zm34.6-31.6H665a31.61,31.61,0,0,1,0,63.21H431.5a31.61,31.61,0,0,1,0-63.21Z"/><path class="cls-4" d="M399.9,912.77a31.62,31.62,0,0,0,31.6,31.6H665a31.6,31.6,0,1,0,0-63.2H431.5a31.6,31.6,0,0,0-31.6,31.6Z"/><path d="M665,947.37a34.6,34.6,0,0,0,0-69.2H431.5a34.6,34.6,0,0,0,0,69.2Zm0-66.2a31.6,31.6,0,0,1,0,63.2H431.5a31.6,31.6,0,1,1,0-63.2Z"/><path class="cls-3" d="M610.25,593.65a10.45,10.45,0,0,0,0-20.89h-124a10.45,10.45,0,0,0,0,20.89Z"/><path class="cls-3" d="M390.14,643a10.44,10.44,0,0,0,10.45,10.44H695.92a10.45,10.45,0,1,0,0-20.89H400.59A10.45,10.45,0,0,0,390.14,643Z"/><path class="cls-3" d="M674.87,692.47A10.45,10.45,0,0,0,664.42,682H432.09a10.45,10.45,0,1,0,0,20.89H664.42A10.44,10.44,0,0,0,674.87,692.47Z"/><path class="cls-5" d="M487.1,747.62a7.07,7.07,0,1,0,7.07-7.08A7.07,7.07,0,0,0,487.1,747.62Z"/><path class="cls-3" d="M541.18,747.62a7.08,7.08,0,1,0,7.08-7.08A7.08,7.08,0,0,0,541.18,747.62Z"/><path class="cls-3" d="M595.27,747.62a7.08,7.08,0,1,0,7.07-7.08A7.08,7.08,0,0,0,595.27,747.62Z"/><path class="cls-3" d="M575,466.68a57.89,57.89,0,0,0,4-22.41c0-.52,0-1.06,0-1.59-1.37,2.23-3.23,5.14-5.48,8.32-4.95,7-11.72,15.27-19.27,20.47s-17.7,8.56-26,10.7c-3.78,1-7.17,1.67-9.75,2.15a60.19,60.19,0,0,0,22.4,4.83,36.55,36.55,0,0,0,21.17-6.32h0A36.24,36.24,0,0,0,575,466.68Z"/><path class="cls-3" d="M562.53,486.13a39.76,39.76,0,0,1-21.62,6c-9.12,0-18.71-2.61-28.19-7.1l-.16-.07a103.85,103.85,0,0,1-10.66-5.87,145.2,145.2,0,0,1-35.26-31.81,86.93,86.93,0,0,1-12-19A38.54,38.54,0,0,1,451,412.76a27.78,27.78,0,0,1,5.69-16.82,43.41,43.41,0,0,1,6.71-7.13,3,3,0,0,1-.23-1.13,3.07,3.07,0,0,1,.83-2.11l7.63-8.14a3.09,3.09,0,0,1,4.8.36l4.49,6.52h0a3.07,3.07,0,0,1,.55,1.75,3.12,3.12,0,0,1-1.92,2.86l-10.33,4.22h0a3.17,3.17,0,0,1-1.17.23,3.08,3.08,0,0,1-2.54-1.34l-.47-.68a40.63,40.63,0,0,0-5.93,6.36A24.81,24.81,0,0,0,454,412.76a35.62,35.62,0,0,0,3.4,14.37A83.9,83.9,0,0,0,469,445.42a142.14,142.14,0,0,0,34.51,31.15,101.92,101.92,0,0,0,10,5.55l.65-.1c.72-.11,1.76-.28,3.06-.51,2.6-.47,6.21-1.21,10.27-2.25,8.13-2.07,18-5.42,25-10.26,6.8-4.67,13.27-12.39,18.07-19.09a145.17,145.17,0,0,0,8.11-12.68c-1.47-17.75-8.29-37.46-18.39-54.72-6.06-10.37-12-17.22-17.62-21.45s-11-5.85-16.19-5.85a29.91,29.91,0,0,0-11.37,2.44c-1.11.46-2.22,1-3.33,1.55l.43.61a3.1,3.1,0,0,1-.29,3.86l-7.64,8.14a3.08,3.08,0,0,1-4.79-.36l-4.49-6.53a3,3,0,0,1-.55-1.74,3.08,3.08,0,0,1,.51-1.69,3,3,0,0,1,1.41-1.17l10.33-4.22a3,3,0,0,1,1.17-.23,3.06,3.06,0,0,1,2.13.87c1.3-.68,2.63-1.31,4-1.86a32.73,32.73,0,0,1,12.51-2.67c5.84,0,11.92,1.89,18,6.45s12.21,11.73,18.41,22.34c10.35,17.71,17.35,37.88,18.81,56.29a1.22,1.22,0,0,1,0,.33c.17,2.25.28,4.47.28,6.65a60.66,60.66,0,0,1-4.29,23.57A39.47,39.47,0,0,1,565,484.41l16.34,23.73H662a45.27,45.27,0,0,0-2.8-46.76l-15.3-22.22a20.28,20.28,0,1,1,2.47-1.7l15.3,22.22A48.09,48.09,0,0,1,670.18,487a48.6,48.6,0,0,1-4.85,21.1h48.78V257.82H382.4V508.14H577.69Zm84.08-197.38,5.31-.77a1.87,1.87,0,0,0,1.39-1l2.37-4.81a1.85,1.85,0,0,1,3.31,0l2.37,4.81a1.87,1.87,0,0,0,1.39,1l5.31.77a1.85,1.85,0,0,1,1,3.15l-3.84,3.74a1.87,1.87,0,0,0-.53,1.63l.91,5.29a1.85,1.85,0,0,1-2.68,1.95l-4.75-2.5a1.85,1.85,0,0,0-1.71,0l-4.75,2.5a1.85,1.85,0,0,1-2.68-1.95l.91-5.29a1.87,1.87,0,0,0-.53-1.63l-3.84-3.74A1.85,1.85,0,0,1,646.61,288.75Zm-54.54,0,5.31-.77a1.87,1.87,0,0,0,1.39-1l2.37-4.81a1.85,1.85,0,0,1,3.31,0l2.37,4.81a1.87,1.87,0,0,0,1.39,1l5.31.77a1.85,1.85,0,0,1,1,3.15l-3.84,3.74a1.87,1.87,0,0,0-.53,1.63l.91,5.29a1.85,1.85,0,0,1-2.68,1.95l-4.75-2.5a1.85,1.85,0,0,0-1.71,0l-4.75,2.5a1.85,1.85,0,0,1-2.68-1.95l.91-5.29a1.87,1.87,0,0,0-.53-1.63l-3.84-3.74A1.85,1.85,0,0,1,592.07,288.75Zm-54.54,0,5.31-.77a1.87,1.87,0,0,0,1.39-1l2.37-4.81a1.85,1.85,0,0,1,3.31,0l2.37,4.81a1.87,1.87,0,0,0,1.39,1l5.31.77a1.84,1.84,0,0,1,1,3.15l-3.84,3.74a1.87,1.87,0,0,0-.53,1.63l.91,5.29a1.85,1.85,0,0,1-2.68,1.95l-4.74-2.5a1.87,1.87,0,0,0-1.72,0l-4.75,2.5a1.85,1.85,0,0,1-2.68-1.95l.91-5.29a1.87,1.87,0,0,0-.53-1.63l-3.84-3.74A1.85,1.85,0,0,1,537.53,288.75Zm-54.54,0,5.31-.77a1.87,1.87,0,0,0,1.39-1l2.37-4.81a1.85,1.85,0,0,1,3.31,0l2.37,4.81a1.87,1.87,0,0,0,1.39,1l5.31.77a1.84,1.84,0,0,1,1,3.15l-3.84,3.74a1.87,1.87,0,0,0-.53,1.63l.91,5.29a1.85,1.85,0,0,1-2.68,1.95l-4.74-2.5a1.87,1.87,0,0,0-1.72,0l-4.75,2.5a1.85,1.85,0,0,1-2.68-1.95l.91-5.29a1.87,1.87,0,0,0-.53-1.63L482,291.9A1.85,1.85,0,0,1,483,288.75Zm-36.44,8.52.91,5.29a1.85,1.85,0,0,1-2.68,1.95L440,302a1.87,1.87,0,0,0-1.72,0l-4.75,2.5a1.85,1.85,0,0,1-2.68-1.95l.91-5.29a1.87,1.87,0,0,0-.53-1.63l-3.84-3.74a1.85,1.85,0,0,1,1-3.15l5.31-.77a1.87,1.87,0,0,0,1.39-1l2.37-4.81a1.85,1.85,0,0,1,3.31,0l2.38,4.81a1.83,1.83,0,0,0,1.39,1l5.3.77a1.85,1.85,0,0,1,1,3.15l-3.85,3.74A1.87,1.87,0,0,0,446.55,297.27Z"/><path class="cls-2" d="M450.93,291.9a1.85,1.85,0,0,0-1-3.15l-5.3-.77a1.83,1.83,0,0,1-1.39-1l-2.38-4.81a1.85,1.85,0,0,0-3.31,0L435.15,287a1.87,1.87,0,0,1-1.39,1l-5.31.77a1.85,1.85,0,0,0-1,3.15l3.84,3.74a1.87,1.87,0,0,1,.53,1.63l-.91,5.29a1.85,1.85,0,0,0,2.68,1.95l4.75-2.5a1.87,1.87,0,0,1,1.72,0l4.74,2.5a1.85,1.85,0,0,0,2.68-1.95l-.91-5.29a1.87,1.87,0,0,1,.53-1.63Z"/><path class="cls-2" d="M485.81,295.64a1.87,1.87,0,0,1,.53,1.63l-.91,5.29a1.85,1.85,0,0,0,2.68,1.95l4.75-2.5a1.87,1.87,0,0,1,1.72,0l4.74,2.5a1.85,1.85,0,0,0,2.68-1.95l-.91-5.29a1.87,1.87,0,0,1,.53-1.63l3.84-3.74a1.84,1.84,0,0,0-1-3.15l-5.31-.77a1.87,1.87,0,0,1-1.39-1l-2.37-4.81a1.85,1.85,0,0,0-3.31,0L489.69,287a1.87,1.87,0,0,1-1.39,1l-5.31.77a1.85,1.85,0,0,0-1,3.15Z"/><path class="cls-2" d="M540.35,295.64a1.87,1.87,0,0,1,.53,1.63l-.91,5.29a1.85,1.85,0,0,0,2.68,1.95l4.75-2.5a1.87,1.87,0,0,1,1.72,0l4.74,2.5a1.85,1.85,0,0,0,2.68-1.95l-.91-5.29a1.87,1.87,0,0,1,.53-1.63L560,291.9a1.84,1.84,0,0,0-1-3.15l-5.31-.77a1.87,1.87,0,0,1-1.39-1l-2.37-4.81a1.85,1.85,0,0,0-3.31,0L544.23,287a1.87,1.87,0,0,1-1.39,1l-5.31.77a1.85,1.85,0,0,0-1,3.15Z"/><path class="cls-2" d="M594.89,295.64a1.87,1.87,0,0,1,.53,1.63l-.91,5.29a1.85,1.85,0,0,0,2.68,1.95l4.75-2.5a1.85,1.85,0,0,1,1.71,0l4.75,2.5a1.85,1.85,0,0,0,2.68-1.95l-.91-5.29a1.87,1.87,0,0,1,.53-1.63l3.84-3.74a1.85,1.85,0,0,0-1-3.15l-5.31-.77a1.87,1.87,0,0,1-1.39-1l-2.37-4.81a1.85,1.85,0,0,0-3.31,0L598.77,287a1.87,1.87,0,0,1-1.39,1l-5.31.77a1.85,1.85,0,0,0-1,3.15Z"/><path class="cls-2" d="M649.43,295.64a1.87,1.87,0,0,1,.53,1.63l-.91,5.29a1.85,1.85,0,0,0,2.68,1.95l4.75-2.5a1.85,1.85,0,0,1,1.71,0l4.75,2.5a1.85,1.85,0,0,0,2.68-1.95l-.91-5.29a1.87,1.87,0,0,1,.53-1.63l3.84-3.74a1.85,1.85,0,0,0-1-3.15l-5.31-.77a1.87,1.87,0,0,1-1.39-1L659,282.16a1.85,1.85,0,0,0-3.31,0L653.31,287a1.87,1.87,0,0,1-1.39,1l-5.31.77a1.85,1.85,0,0,0-1,3.15Z"/><path d="M561.7,484.92h0a1.55,1.55,0,0,1-.12-.22l0-.05a.83.83,0,0,1-.06-.21l0-.07a1.55,1.55,0,0,1,0-.48.34.34,0,0,1,0-.1.65.65,0,0,1,0-.13.57.57,0,0,1,0-.14l0-.09a1.6,1.6,0,0,1,.5-.6,36.55,36.55,0,0,1-21.17,6.32,60.19,60.19,0,0,1-22.4-4.83c-3.08.58-5,.83-5,.84h0a1.52,1.52,0,0,1-.76-.11c9.48,4.49,19.07,7.1,28.19,7.1a39.76,39.76,0,0,0,21.62-6l-.83-1.21Z"/><path d="M511.8,483.87a1.51,1.51,0,0,1,1.29-1.69l.27,0,.17,0a101.92,101.92,0,0,1-10-5.55A142.14,142.14,0,0,1,469,445.42a83.9,83.9,0,0,1-11.63-18.29,35.62,35.62,0,0,1-3.4-14.37,24.81,24.81,0,0,1,5.11-15.05,40.63,40.63,0,0,1,5.93-6.36l-1.33-1.92,1.24-.85-1.24.84a2.92,2.92,0,0,1-.31-.61,43.41,43.41,0,0,0-6.71,7.13A27.78,27.78,0,0,0,451,412.76a38.54,38.54,0,0,0,3.66,15.58,86.93,86.93,0,0,0,12,19,145.2,145.2,0,0,0,35.26,31.81A103.85,103.85,0,0,0,512.56,485,1.47,1.47,0,0,1,511.8,483.87Z"/><path d="M579,436.83a1.49,1.49,0,0,1,2.79.46c-1.46-18.41-8.46-38.58-18.81-56.29-6.2-10.61-12.33-17.78-18.41-22.34s-12.15-6.46-18-6.45A32.73,32.73,0,0,0,514,354.88c-1.34.55-2.67,1.18-4,1.86a3.63,3.63,0,0,1,.41.46l-1.24.85,1.24-.85,1.37,2c1.11-.57,2.22-1.09,3.33-1.55a29.91,29.91,0,0,1,11.37-2.44c5.19,0,10.54,1.63,16.19,5.85s11.56,11.08,17.62,21.45c10.1,17.26,16.92,37,18.39,54.72l.19-.34Z"/><path d="M579,442.68c0,.53,0,1.07,0,1.59a57.89,57.89,0,0,1-4,22.41,36.24,36.24,0,0,1-12.92,16.15,1.5,1.5,0,0,1,2.09.39l.82,1.19a39.47,39.47,0,0,0,12.77-16.57,60.66,60.66,0,0,0,4.29-23.57c0-2.18-.11-4.4-.28-6.65a1.46,1.46,0,0,1-.17.64S580.66,440,579,442.68Z"/><path d="M561.5,483.66a.65.65,0,0,0,0,.13A.65.65,0,0,1,561.5,483.66Z"/><path d="M561.49,484.44a.83.83,0,0,0,.06.21A.83.83,0,0,1,561.49,484.44Z"/><path d="M561.58,483.43l0,.09Z"/><path d="M561.46,484.37a1.55,1.55,0,0,1,0-.48A1.55,1.55,0,0,0,561.46,484.37Z"/><polygon points="561.7 484.92 561.7 484.92 561.7 484.92 561.7 484.92"/><path d="M561.7,484.92a1.55,1.55,0,0,1-.12-.22,1.55,1.55,0,0,0,.12.22Z"/><polygon points="467.93 390.33 468 390.37 468.04 390.36 478.36 386.14 478.4 386.11 478.42 386.06 478.4 386.01 478.4 386.01 473.91 379.49 473.83 379.45 473.77 379.48 466.14 387.62 466.12 387.68 466.14 387.73 466.14 387.73 467.93 390.33"/><path d="M464.9,388.58l-1.24.85,1.33,1.92.47.68a3.08,3.08,0,0,0,2.54,1.34,3.17,3.17,0,0,0,1.17-.23h0l10.33-4.22a3.08,3.08,0,0,0,1.37-4.61h0l-4.49-6.52a3.09,3.09,0,0,0-4.8-.36L464,385.57a3.07,3.07,0,0,0-.83,2.11,3,3,0,0,0,.23,1.13,2.92,2.92,0,0,0,.31.61Zm1.22-.9,0-.06,7.63-8.14.06,0,.08,0L478.4,386h0l0,0,0,.05,0,0L468,390.36h0l-.07,0-1.79-2.6h0Z"/><polygon points="507.93 358.87 507.89 358.87 497.57 363.1 497.53 363.13 497.51 363.18 497.53 363.22 502.02 369.75 502.1 369.79 502.16 369.76 509.79 361.62 509.81 361.56 509.79 361.51 508 358.9 508 358.9 507.93 358.87"/><path d="M509.23,358.05l1.24-.85a3.63,3.63,0,0,0-.41-.46,3.06,3.06,0,0,0-2.13-.87,3,3,0,0,0-1.17.23l-10.33,4.22a3,3,0,0,0-1.41,1.17,3.08,3.08,0,0,0-.51,1.69,3,3,0,0,0,.55,1.74l4.49,6.53a3.08,3.08,0,0,0,4.79.36l7.64-8.14a3.1,3.1,0,0,0,.29-3.86l-.43-.61-1.37-2Zm.56,3.46,0,.05,0,.06-7.63,8.14-.06,0-.08,0-4.49-6.53,0,0,0-.05,0,0,10.32-4.23h0l.07,0h0Z"/><path d="M513.48,485.16h0s1.95-.26,5-.84c2.58-.48,6-1.18,9.75-2.15,8.3-2.14,18.45-5.51,26-10.7S568.58,458,573.53,451c2.25-3.18,4.11-6.09,5.48-8.32,1.65-2.68,2.58-4.4,2.59-4.42a1.46,1.46,0,0,0,.17-.64,1.22,1.22,0,0,0,0-.33,1.49,1.49,0,0,0-2.79-.46l0,.06-.19.34a145.17,145.17,0,0,1-8.11,12.68c-4.8,6.7-11.27,14.42-18.07,19.09-7,4.84-16.92,8.19-25,10.26-4.06,1-7.67,1.78-10.27,2.25-1.3.23-2.34.4-3.06.51l-.65.1-.17,0-.27,0a1.51,1.51,0,0,0-1.29,1.69,1.47,1.47,0,0,0,.76,1.11l.16.07A1.52,1.52,0,0,0,513.48,485.16Z"/><path d="M661.65,459.68l-15.3-22.22q-.58.46-1.2.9c-.42.28-.84.55-1.27.8l15.3,22.22a45.32,45.32,0,1,1-74.65,51.4l-3.2-4.64L565,484.41l-.82-1.19a1.5,1.5,0,0,0-2.09-.39h0a1.6,1.6,0,0,0-.5.6l0,.09a.57.57,0,0,0,0,.14.65.65,0,0,0,0,.13.34.34,0,0,0,0,.1,1.55,1.55,0,0,0,0,.48l0,.07a.83.83,0,0,0,.06.21l0,.05a1.55,1.55,0,0,0,.12.22h0l.83,1.21,15.16,22,4.36,6.34a48.32,48.32,0,1,0,79.6-54.8Z"/><path class="cls-2" d="M643.45,435.89a17.29,17.29,0,1,0-9.79,3.05A17.28,17.28,0,0,0,643.45,435.89Zm-9.8-2.16a12.09,12.09,0,1,1,9.94-18.94h0a12.08,12.08,0,0,1-9.94,18.94Z"/><path d="M646.35,437.46a20.34,20.34,0,1,0-2.47,1.7c.43-.25.85-.52,1.27-.8S646,437.77,646.35,437.46Zm-27-6a17.29,17.29,0,1,1,14.26,7.49A17.25,17.25,0,0,1,619.4,431.45Z"/><path class="cls-2" d="M641.12,416.49a9.1,9.1,0,1,0,1.6,5.14,9.06,9.06,0,0,0-1.6-5.14l1.24-.85Z"/><path d="M640.49,431.6a12.09,12.09,0,0,0,3.1-16.81h0a12.08,12.08,0,1,0-3.1,16.81Zm2.23-10a9.08,9.08,0,1,1-1.6-5.14l1.24-.85-1.24.85A9,9,0,0,1,642.72,421.63Z"/><path class="cls-2" d="M1305.85,378c1.17-1.14,2.8-2.76,4.67-4.65,3-3,6.55-6.71,9.74-10.23,1.27-11.44,2.49-20.87,3.34-27.11-1.06-5-2.23-10.86-3.42-17.22-2.4-12.86-4.85-27.84-6.48-42.63v0a4.85,4.85,0,0,0-.15-.48,21.56,21.56,0,0,0-1.29-2.7,119.35,119.35,0,0,0-10-14.57,24.5,24.5,0,0,0-2.58-2.92,6.93,6.93,0,0,0-1.8-1.27,1.84,1.84,0,0,0-.67-.16,1,1,0,0,0-.53.16,2.54,2.54,0,0,0-.7.66,13.45,13.45,0,0,0-1.65,3.2c-1.11,2.8-2.18,6.63-3.7,10.25a24.82,24.82,0,0,1-3.92,6.67,9.83,9.83,0,0,1-2,1.77,4,4,0,0,1-2.18.71,3.15,3.15,0,0,1-1.55-.41,3.93,3.93,0,0,1-1.14-1,8.71,8.71,0,0,1-1.34-2.77,39.2,39.2,0,0,1-1.27-7.9c-.48-6-.42-13.11-.63-17.61a22.11,22.11,0,0,0-.24-2.62A3.36,3.36,0,0,0,1276,244c-.07-.1-.09-.11-.12-.13a1,1,0,0,0-.49-.08,12.54,12.54,0,0,0-2.88.56c-1.36.36-3.09.88-5.22,1.45a111.1,111.1,0,0,1-18.32,3.26c-1.2.11-2.38.16-3.55.16a44.61,44.61,0,0,1-17.76-3.95,66.9,66.9,0,0,1-11.44-6.45,206.39,206.39,0,0,0,2,22.34c1.8,12.24,5.13,25.44,11,35.59,3.92,6.77,8.94,12.16,15.36,15.18a29,29,0,0,0,12.55,2.7q1,0,2.1-.06l18.09-3.45a1.47,1.47,0,0,1,1.27.34,1.45,1.45,0,0,1,.51,1.2l-.93,19.52c0,.81.59,13.82,1,33l25.57,13.87Z"/><path d="M1277.47,330.92a1.5,1.5,0,0,1,.69,1.2v.07l.93-19.52a1.45,1.45,0,0,0-.51-1.2,1.47,1.47,0,0,0-1.27-.34l-18.09,3.45q-1.07.06-2.1.06a29,29,0,0,1-12.55-2.7c-6.42-3-11.44-8.41-15.36-15.18-5.88-10.15-9.21-23.35-11-35.59a206.39,206.39,0,0,1-2-22.34c-1-.71-2-1.43-3-2.15l-.12-.09c.28,11.07,1.56,28.8,6.43,44.9,2.89,9.52,7,18.48,13.1,25.16a34.15,34.15,0,0,0,10.63,8,32.06,32.06,0,0,0,13.83,3c.78,0,1.56,0,2.36-.07l.19,0,16.34-3.12-.75,15.73.26,0A5.47,5.47,0,0,1,1277.47,330.92Z"/><path d="M1314.69,277.41a1.5,1.5,0,0,1-1-1.2h0c1.63,14.79,4.08,29.77,6.48,42.63,1.19,6.36,2.36,12.19,3.42,17.22.72-5.27,1.18-8.28,1.18-8.29a1.37,1.37,0,0,1,.11-.36c-.81-4.06-1.65-8.43-2.48-13-2.12-11.69-4.2-24.86-5.65-37.86l-.5.54A1.5,1.5,0,0,1,1314.69,277.41Z"/><path d="M1306.07,382s5-4.84,10.57-10.61c1-1.05,2-2.14,3.07-3.23.18-1.72.37-3.39.55-5-3.19,3.52-6.76,7.22-9.74,10.23-1.87,1.89-3.5,3.51-4.67,4.65l-1.08,1.06-25.57-13.87c0,1.13,0,2.28.08,3.45l25,13.58A1.5,1.5,0,0,0,1306.07,382Z"/><path d="M1289.66,172a57.2,57.2,0,0,0-22.45-4.59,60.36,60.36,0,0,0-14.09,1.69c-16.67,4-29.45,12-38,21.21s-13,19.49-13,27.89a22,22,0,0,0,.43,4.37l.25.29c.33.38.82.93,1.46,1.62,1.27,1.37,3.14,3.27,5.49,5.39a72.84,72.84,0,0,0,19.09,12.65,41.63,41.63,0,0,0,16.57,3.7c1.08,0,2.17,0,3.26-.15a108.76,108.76,0,0,0,14.41-2.32c3.74-.87,6.5-1.73,8.64-2.3a15.05,15.05,0,0,1,3.66-.66,4,4,0,0,1,1.69.33,3.27,3.27,0,0,1,1.37,1.15,4.15,4.15,0,0,1,.53,1.05,8.25,8.25,0,0,1,.39,1.61,27,27,0,0,1,.24,2.73c.13,2.85.16,6.61.27,10.44a100.32,100.32,0,0,0,.76,10.83,17.16,17.16,0,0,0,1.21,4.7,2,2,0,0,0,.62.83l.07,0a1.25,1.25,0,0,0,.56-.23,6.79,6.79,0,0,0,1.33-1.23,23.76,23.76,0,0,0,3.83-6.88c1-2.64,1.89-5.44,2.78-7.89a24,24,0,0,1,2-4.37,7.26,7.26,0,0,1,1.55-1.84,4.17,4.17,0,0,1,2.63-1,4.79,4.79,0,0,1,1.83.4,8.05,8.05,0,0,1,1.77,1.06,22.75,22.75,0,0,1,3.83,4,121.18,121.18,0,0,1,10.28,15c.33.6.58,1.11.8,1.56.22-.27.45-.56.7-.89a59,59,0,0,0,5.13-8.09,65.1,65.1,0,0,0,7.47-30.46,71.92,71.92,0,0,0-1.23-13.13,67.47,67.47,0,0,0-18-34.76A27.87,27.87,0,0,1,1289.66,172Z"/><path d="M1216.2,238.83a66.9,66.9,0,0,0,11.44,6.45,44.61,44.61,0,0,0,17.76,3.95c1.17,0,2.35,0,3.55-.16a111.1,111.1,0,0,0,18.32-3.26c2.13-.57,3.86-1.09,5.22-1.45a12.54,12.54,0,0,1,2.88-.56,1,1,0,0,1,.49.08s.05,0,.12.13a3.36,3.36,0,0,1,.37,1.17,22.11,22.11,0,0,1,.24,2.62c.21,4.5.15,11.59.63,17.61a39.2,39.2,0,0,0,1.27,7.9,8.71,8.71,0,0,0,1.34,2.77,3.93,3.93,0,0,0,1.14,1,3.15,3.15,0,0,0,1.55.41,4,4,0,0,0,2.18-.71,9.83,9.83,0,0,0,2-1.77,24.82,24.82,0,0,0,3.92-6.67c1.52-3.62,2.59-7.45,3.7-10.25a13.45,13.45,0,0,1,1.65-3.2,2.54,2.54,0,0,1,.7-.66,1,1,0,0,1,.53-.16,1.84,1.84,0,0,1,.67.16,6.93,6.93,0,0,1,1.8,1.27,24.5,24.5,0,0,1,2.58,2.92,119.35,119.35,0,0,1,10,14.57,21.56,21.56,0,0,1,1.29,2.7,4.85,4.85,0,0,1,.15.48v0h0a1.49,1.49,0,0,0,2.55.83l.5-.54a57.25,57.25,0,0,0,7.4-11,68.07,68.07,0,0,0,7.82-31.86A75.09,75.09,0,0,0,1330.7,220a70.6,70.6,0,0,0-16.59-33.92h-.24a28.35,28.35,0,0,1-4.15-.31,67.47,67.47,0,0,1,18,34.76,71.92,71.92,0,0,1,1.23,13.13,65.1,65.1,0,0,1-7.47,30.46,59,59,0,0,1-5.13,8.09c-.25.33-.48.62-.7.89-.22-.45-.47-1-.8-1.56a121.18,121.18,0,0,0-10.28-15,22.75,22.75,0,0,0-3.83-4,8.05,8.05,0,0,0-1.77-1.06,4.79,4.79,0,0,0-1.83-.4,4.17,4.17,0,0,0-2.63,1,7.26,7.26,0,0,0-1.55,1.84,24,24,0,0,0-2,4.37c-.89,2.45-1.74,5.25-2.78,7.89a23.76,23.76,0,0,1-3.83,6.88,6.79,6.79,0,0,1-1.33,1.23,1.25,1.25,0,0,1-.56.23l-.07,0a2,2,0,0,1-.62-.83,17.16,17.16,0,0,1-1.21-4.7,100.32,100.32,0,0,1-.76-10.83c-.11-3.83-.14-7.59-.27-10.44a27,27,0,0,0-.24-2.73,8.25,8.25,0,0,0-.39-1.61,4.15,4.15,0,0,0-.53-1.05,3.27,3.27,0,0,0-1.37-1.15,4,4,0,0,0-1.69-.33,15.05,15.05,0,0,0-3.66.66c-2.14.57-4.9,1.43-8.64,2.3a108.76,108.76,0,0,1-14.41,2.32c-1.09.1-2.18.15-3.26.15a41.63,41.63,0,0,1-16.57-3.7,72.84,72.84,0,0,1-19.09-12.65c-2.35-2.12-4.22-4-5.49-5.39-.64-.69-1.13-1.24-1.46-1.62l-.25-.29a22,22,0,0,1-.43-4.37c0-8.4,4.36-18.72,13-27.89s21.37-17.21,38-21.21a60.36,60.36,0,0,1,14.09-1.69,57.2,57.2,0,0,1,22.45,4.59,28.65,28.65,0,0,1-1.86-4,60.21,60.21,0,0,0-20.59-3.63,63.54,63.54,0,0,0-14.79,1.77c-17.22,4.14-30.52,12.47-39.53,22.08s-13.76,20.51-13.78,29.94a24.73,24.73,0,0,0,.57,5.36,1.47,1.47,0,0,0,.3.63,86.25,86.25,0,0,0,13.15,12.39l.12.09C1214.19,237.4,1215.18,238.12,1216.2,238.83Z"/><path d="M1296.3,175.82a24.83,24.83,0,1,0-7.28-17.57A24.78,24.78,0,0,0,1296.3,175.82Z"/><path d="M1289.66,172a27.87,27.87,0,0,0,20.06,13.77,28.35,28.35,0,0,0,4.15.31h.24a27.82,27.82,0,1,0-26.31-18A28.65,28.65,0,0,0,1289.66,172Zm24.21-38.6a24.86,24.86,0,1,1-17.57,7.28A24.74,24.74,0,0,1,1313.87,133.41Z"/><path class="cls-2" d="M1315.2,608.83c0,45.72,1.74,86.73,6.46,112.87a97.94,97.94,0,0,0,5.33,19.85q7.08.13,13.8.13c102.32,0,143.23-22.4,149.08-26,0-.16,0-.34-.06-.56l-.53-4.34c-.46-3.8-1.15-9.33-2-16.29-1.78-13.93-4.39-33.56-7.67-56.39q-.42-2.94-.87-6c-1.56,2.23-3.15,4.35-4.73,6.35-16.11,20.31-32.22,28.61-32.34,28.68a1.46,1.46,0,0,1-1,.14s-3.93-.77-9.27-2.13a136.61,136.61,0,0,1-17.88-5.71,34.9,34.9,0,0,1-9.61-5.48,8.37,8.37,0,0,1-2.75-4.12,1.48,1.48,0,0,1,.14-1.07c6.82-12.58,16.17-27.82,23.82-45.27s13.56-37.08,13.56-58.41a113.58,113.58,0,0,0-5.42-34.7c-18.42-58-38.14-73.62-38.28-73.73h0a1.5,1.5,0,0,1,.67-2.66l-15.07-89.88a116.8,116.8,0,0,0-14.71-5.86,123.37,123.37,0,0,0-13.61-3.54l-4.68,48.87a1.44,1.44,0,0,1-.38.85l-11.93,13.33,12.11,20.66a1.52,1.52,0,0,1,.12,1.25c0,.05-11.49,32.62-29,61.34C1316.6,522.66,1315.2,567.67,1315.2,608.83Z"/><path d="M1478.69,632.18q.45,3,.87,6c3.28,22.83,5.89,42.46,7.67,56.39.9,7,1.59,12.49,2,16.29l.53,4.34c0,.22,0,.4.06.56-5.85,3.56-46.76,26-149.08,26q-6.72,0-13.8-.13a97.94,97.94,0,0,1-5.33-19.85c-4.72-26.14-6.46-67.15-6.46-112.87,0-41.16,1.4-86.17,3.26-127.74l-.21.34a1.5,1.5,0,0,1-2.77-.67s0-.07,0-.1c-1.86,41.67-3.27,86.84-3.27,128.17,0,23.83.47,46.38,1.59,66.26l.18,3q.4,6.78.92,13.12c1,11.71,2.22,22.16,3.82,31s3.53,16.08,5.91,21.41a1.51,1.51,0,0,0,1.34.88c3.06.06,6,.1,9,.12l3,0h2.77c70.44,0,112.09-10.58,133.38-18.48,1-.38,2-.76,2.94-1.12,10.49-4.13,15.12-7.29,15.21-7.36a1.48,1.48,0,0,0,.64-1.41s-4.39-37.39-11.77-87.81Q1479.94,630.39,1478.69,632.18Z"/><path d="M1352.23,334.79a123.37,123.37,0,0,1,13.61,3.54,116.8,116.8,0,0,1,14.71,5.86l0-.12-.7-.25-.06,0h0a1.5,1.5,0,0,1,.94-2.85,121.92,121.92,0,0,0-14-5.48,125.77,125.77,0,0,0-14.25-3.68Z"/><path class="cls-2" d="M1255.2,418.58a1.53,1.53,0,0,1,.38-1.08l14.48-16L1258.3,388.4a1.49,1.49,0,0,1-.35-.71l-9.34-46a70.7,70.7,0,0,0-24.92,17.44c-.19.29-.74,1.1-1.61,2.36L1203.2,504.45a1.45,1.45,0,0,1,.86.39,1.5,1.5,0,0,1,0,2.13,48.92,48.92,0,0,1-5.12,4.26c-.52,8.7-1,17.49-1.43,26.31-4.12,83.41-4.61,168.15-4.67,186.92v2.86c.49.2,1.23.47,2.34.8a100.22,100.22,0,0,0,13.42,2.73c13.49,2,37.19,4,77.81,4-1.2-5.37-2.27-12.3-3.24-20.56-1.08-9.24-2-20.12-2.87-32.25-1.68-24.27-2.9-53.56-3.78-84.72-1-35.66-1.58-73.76-1.88-109.54-8.77-14.49-13.6-31.67-16.28-45.3A181.91,181.91,0,0,1,1255.2,418.58Z"/><path d="M1223.34,357a1.5,1.5,0,0,1,.42,2.08l-.07.11a70.7,70.7,0,0,1,24.92-17.44l-.61-3a73.53,73.53,0,0,0-26.54,18.42A1.49,1.49,0,0,1,1223.34,357Z"/><path d="M1221.26,357.4h0a1.5,1.5,0,0,1,.2-.23l0,0h0a22.36,22.36,0,0,0-4.27,6.11c2.12-3,3.49-5,3.94-5.66Z"/><path d="M1226.89,735.88c14.07,1.15,33.39,2,59.8,2h1.62a1.5,1.5,0,0,0,1.46-1.85,191.5,191.5,0,0,1-3.61-22.06c-1.31-11.16-2.43-24.79-3.38-40.16-.07-1-.13-2.07-.19-3.11-1.7-28.23-2.87-62-3.66-97.08-.65-28.63-1-58.12-1.28-86.18v.06a1.5,1.5,0,0,1-1.15,1.35,1.48,1.48,0,0,1-1.63-.67c-.07-.12-.14-.25-.22-.37.3,35.78.87,73.88,1.88,109.54.88,31.16,2.1,60.45,3.78,84.72.84,12.13,1.79,23,2.87,32.25,1,8.26,2,15.19,3.24,20.56-40.62,0-64.32-2-77.81-4a100.22,100.22,0,0,1-13.42-2.73c-1.11-.33-1.85-.6-2.34-.8v-2.86c.06-18.77.55-103.51,4.67-186.92.43-8.82.91-17.61,1.43-26.31-.91.68-2,1.42-3.14,2.21-6,101.59-6,214.83-6,214.85a1.51,1.51,0,0,0,.73,1.29c.29.16,3.86,2.19,17.59,4.24,4.22.62,9.39,1.24,15.72,1.81Z"/><polygon class="cls-2" points="986.06 362.6 986.06 362.6 986.06 362.6 986.06 362.6"/><path class="cls-2" d="M1206.65,382.34c-10.5,13.33-24.89,30.08-40.55,43.78-10.45,9.13-21.45,16.92-32.31,21.41a48.39,48.39,0,0,1-18.39,4.06l-1.43,0h0c-6.11-.25-12.11-2.53-17.9-6.24a82.81,82.81,0,0,1-16.78-14.93c-10.78-12.16-20.68-28.08-29.14-43.93a521.65,521.65,0,0,1-27.7-62.21c-.48,0-1.13-.07-2-.07a35.43,35.43,0,0,0-11.19,1.88,35.9,35.9,0,0,0-14.46,9.25A34,34,0,0,0,987.23,347a26.44,26.44,0,0,0-1.69,9.3,34.72,34.72,0,0,0,.43,5.11,6.51,6.51,0,0,1,.1,1s0,.09,0,.14l0,.16c0,.16.06.39.11.67.11.58.26,1.4.47,2.43.42,2.06,1.06,5,1.91,8.59,1.72,7.22,4.33,17.2,7.89,28.64,7.13,22.89,18.09,51.64,33.3,75.86,10.15,16.15,22.18,30.27,36.15,39.34a65,65,0,0,0,25.87,10.12,198.8,198.8,0,0,0,29.27,2.25c27.33,0,47.38-6.29,60.7-12.66s19.88-12.8,20.18-13.11h0a1.46,1.46,0,0,1,1.26-.41l18.88-142.92C1219.49,365.27,1214,373,1206.65,382.34Z"/><path d="M1199,511.23a48.92,48.92,0,0,0,5.12-4.26,1.5,1.5,0,0,0,0-2.13,1.57,1.57,0,0,0-2.12,0h0c-.3.31-6.87,6.75-20.18,13.11s-33.37,12.66-60.7,12.66a198.8,198.8,0,0,1-29.27-2.25,65,65,0,0,1-25.87-10.12c-14-9.07-26-23.19-36.15-39.34-15.21-24.22-26.17-53-33.3-75.86-3.56-11.44-6.17-21.42-7.89-28.64-.85-3.61-1.49-6.53-1.91-8.59-.21-1-.36-1.85-.47-2.43-.05-.28-.08-.51-.11-.67l0-.16c0-.05,0-.1,0-.14a6.51,6.51,0,0,0-.1-1,34.72,34.72,0,0,1-.43-5.11,26.44,26.44,0,0,1,1.69-9.3,34,34,0,0,1,7.61-11.66,35.9,35.9,0,0,1,14.46-9.25,35.43,35.43,0,0,1,11.19-1.88c.83,0,1.48,0,2,.07a521.65,521.65,0,0,0,27.7,62.21c8.46,15.85,18.36,31.77,29.14,43.93a82.81,82.81,0,0,0,16.78,14.93c5.79,3.71,11.79,6,17.9,6.24h0l1.43,0a48.39,48.39,0,0,0,18.39-4.06c10.86-4.49,21.86-12.28,32.31-21.41,15.66-13.7,30.05-30.45,40.55-43.78,7.39-9.38,12.84-17.07,15.43-20.81.87-1.26,1.42-2.07,1.61-2.36l.07-.11a1.5,1.5,0,0,0-2.3-1.9h0a1.5,1.5,0,0,0-.2.23h0l-.17.26c-.45.68-1.82,2.69-3.94,5.66a426.59,426.59,0,0,1-34,42c-10.3,11.06-21.88,21.94-33.57,30a91.62,91.62,0,0,1-17.48,9.69,45,45,0,0,1-16.68,3.6l-1.31,0h0c-5.43-.22-10.92-2.26-16.4-5.77-9.58-6.12-19-16.72-27.66-29.17-13-18.69-24.28-41.53-32.3-59.68-4-9.07-7.21-17-9.4-22.61-1.09-2.81-1.94-5.06-2.51-6.6-.28-.77-.5-1.37-.64-1.77l-.22-.6a1.51,1.51,0,0,0-1.19-1,23.56,23.56,0,0,0-3.28-.19l-1,0c-.9,0-1.93.1-3.05.22a40.06,40.06,0,0,0-30.48,21.15,30.53,30.53,0,0,0-1.36,3c0,.11-.09.21-.13.32a29.4,29.4,0,0,0-1.88,10.35,32.17,32.17,0,0,0,.28,4.17c.07.54.13,1,.18,1.35s.07.6.07.63a1.16,1.16,0,0,0,0,.17,2.52,2.52,0,0,0,0,.43c.07.53.25,1.52.55,3,2.25,11.23,11.3,49.7,28.65,86.8,8.67,18.56,19.42,36.77,32.5,51.08s28.51,24.71,46.53,27.4a200.86,200.86,0,0,0,29.72,2.29c28.24,0,49-6.62,62.64-13.26a101.45,101.45,0,0,0,12.12-6.93C1197,512.65,1198,511.91,1199,511.23ZM983.08,362.34h0Zm3,.26Z"/><path class="cls-2" d="M1395.62,434.07a1.51,1.51,0,0,1,1.17.29c.28.22,20.55,16.15,39.3,75.19a116.8,116.8,0,0,1,5.56,35.61c0,21.89-6.07,41.93-13.82,59.61-7.62,17.41-16.88,32.56-23.61,44.93a6,6,0,0,0,1.47,1.92,19.49,19.49,0,0,0,3.89,2.71,70.51,70.51,0,0,0,11.74,4.87,188.33,188.33,0,0,0,19.37,5.1l.22-.12c.45-.25,1.11-.64,2-1.17,1.71-1.06,4.16-2.69,7.1-4.93a124.29,124.29,0,0,0,21.64-21.41c15.74-19.87,31.52-51.46,31.52-98.65a239.62,239.62,0,0,0-3-37c-9.48-60.62-38.79-99.59-66.14-123.62-25.35-22.27-49-31.64-53.46-33.29l0,.12Z"/><path d="M1378.82,341.9a1.51,1.51,0,0,0,1,1.9h0l.06,0,.7.25c4.46,1.65,28.11,11,53.46,33.29,27.35,24,56.66,63,66.14,123.62a239.62,239.62,0,0,1,3,37c0,47.19-15.78,78.78-31.52,98.65A124.29,124.29,0,0,1,1450,658.08c-2.94,2.24-5.39,3.87-7.1,4.93-.85.53-1.51.92-2,1.17l-.22.12a188.33,188.33,0,0,1-19.37-5.1,70.51,70.51,0,0,1-11.74-4.87,19.49,19.49,0,0,1-3.89-2.71,6,6,0,0,1-1.47-1.92c6.73-12.37,16-27.52,23.61-44.93,7.75-17.68,13.82-37.72,13.82-59.61a116.8,116.8,0,0,0-5.56-35.61c-18.75-59-39-75-39.3-75.19a1.5,1.5,0,0,0-1.84,2.37h0c.14.11,19.86,15.74,38.28,73.73a113.58,113.58,0,0,1,5.42,34.7c0,21.33-5.92,41-13.56,58.41s-17,32.69-23.82,45.27a1.48,1.48,0,0,0-.14,1.07,8.37,8.37,0,0,0,2.75,4.12,34.9,34.9,0,0,0,9.61,5.48,136.61,136.61,0,0,0,17.88,5.71c5.34,1.36,9.25,2.13,9.27,2.13a1.46,1.46,0,0,0,1-.14c.12-.07,16.23-8.37,32.34-28.68,1.58-2,3.17-4.12,4.73-6.35q1.26-1.78,2.5-3.68c13.36-20.39,25-49.83,24.94-90.48a243,243,0,0,0-3-37.51c-9.73-62.35-40.31-102.29-68.44-126.56s-53.8-32.95-53.92-33h0A1.51,1.51,0,0,0,1378.82,341.9Z"/><path class="cls-2" d="M1327.31,331.19c-.28,1.94-.68,4.77-1.15,8.35-1,7.17-2.23,17.33-3.5,29.31-2.55,24-5.09,55.2-5.09,84.25,0,7.76.19,15.35.6,22.62,14.65-25,24.63-51.88,26.23-56.31l-12.3-21a1.49,1.49,0,0,1,.18-1.76l12.33-13.78,4.86-50.76-.91-.26c-1.31-.36-3.13-.84-5.18-1.32a63.48,63.48,0,0,0-12.71-1.9,13.65,13.65,0,0,0-2.29.17,5,5,0,0,0-.75.2C1327.55,329.51,1327.44,330.24,1327.31,331.19Z"/><path d="M1323.6,336.05c-.85,6.24-2.07,15.67-3.34,27.11-.18,1.63-.37,3.3-.55,5-2.56,24.07-5.14,55.56-5.14,84.92,0,9.51.27,18.8.9,27.56,0,0,0,.06,0,.1a1.5,1.5,0,0,0,2.77.67l.21-.34c17.52-28.72,29-61.29,29-61.34a1.52,1.52,0,0,0-.12-1.25l-12.11-20.66,11.93-13.33a1.44,1.44,0,0,0,.38-.85l4.68-48.87.28-3,.06-.62a1.5,1.5,0,0,0-1.06-1.58s-3.25-1-7.45-2a65.59,65.59,0,0,0-13.39-2,16.63,16.63,0,0,0-2.82.22,6.64,6.64,0,0,0-2.39.86,1.51,1.51,0,0,0-.57.68,1.37,1.37,0,0,0-.11.36S1324.32,330.78,1323.6,336.05Zm4-7a5,5,0,0,1,.75-.2,13.65,13.65,0,0,1,2.29-.17,63.48,63.48,0,0,1,12.71,1.9c2,.48,3.87,1,5.18,1.32l.91.26-4.86,50.76-12.33,13.78a1.49,1.49,0,0,0-.18,1.76l12.3,21c-1.6,4.43-11.58,31.29-26.23,56.31-.41-7.27-.6-14.86-.6-22.62,0-29.05,2.54-60.29,5.09-84.25,1.27-12,2.54-22.14,3.5-29.31.47-3.58.87-6.41,1.15-8.35C1327.44,330.24,1327.55,329.51,1327.63,329Z"/><path class="cls-2" d="M1260.8,386.7l12.39,13.84a1.5,1.5,0,0,1,0,2l-15,16.5c0,.29,0,.65.08,1.13.08,1.14.23,2.81.45,4.9.45,4.19,1.23,10.07,2.56,16.84,2.38,12.2,6.56,27.26,13.67,40.42,1.36-21.28,1.8-45.65,1.8-68.49,0-38.17-1.24-72-1.56-79.89,0-.29,0-.54,0-.76l-.24-.06a9.8,9.8,0,0,0-1.68-.13,34.31,34.31,0,0,0-6.31.78c-2.39.48-4.93,1.14-7.31,1.81-3.7,1-7,2.15-8.68,2.73Z"/><path d="M1248.61,341.73l9.34,46a1.49,1.49,0,0,0,.35.71l11.76,13.14-14.48,16a1.53,1.53,0,0,0-.38,1.08,181.91,181.91,0,0,0,3.17,23.92c2.68,13.63,7.51,30.81,16.28,45.3.08.12.15.25.22.37a1.48,1.48,0,0,0,1.63.67,1.5,1.5,0,0,0,1.15-1.35v-.06c1.63-22.49,2.14-48.93,2.14-73.58,0-16.43-.23-32.06-.51-45.17,0-1.17-.06-2.32-.08-3.45-.45-19.22-1-32.23-1-33v-.07a1.5,1.5,0,0,0-.69-1.2,5.47,5.47,0,0,0-2-.72l-.26,0a12.53,12.53,0,0,0-2-.15,37.89,37.89,0,0,0-7.4.95,147.79,147.79,0,0,0-17.14,5,1.5,1.5,0,0,0-1,1.71l.22,1.09Zm2.37-3.4c1.69-.58,5-1.68,8.68-2.73,2.38-.67,4.92-1.33,7.31-1.81a34.31,34.31,0,0,1,6.31-.78,9.8,9.8,0,0,1,1.68.13l.24.06c0,.22,0,.47,0,.76.32,7.86,1.56,41.72,1.56,79.89,0,22.84-.44,47.21-1.8,68.49-7.11-13.16-11.29-28.22-13.67-40.42-1.33-6.77-2.11-12.65-2.56-16.84-.22-2.09-.37-3.76-.45-4.9,0-.48-.06-.84-.08-1.13l15-16.5a1.5,1.5,0,0,0,0-2L1260.8,386.7Z"/></g></g></svg>