<svg xmlns="http://www.w3.org/2000/svg" viewBox="0 0 1594.86 1100"><defs><style>.cls-1{fill:none;}.cls-2{fill:#d0d5d8;}.cls-3{fill:#eff0f1;}.cls-4{fill:#c1bebc;}.cls-5{fill:#fff;}.cls-6{fill:#61c3da;}</style></defs><g id="Layer_2" data-name="Layer 2"><g id="_2" data-name="2"><path class="cls-1" d="M1292.69,549.27c-3.19-1.59-7.41-3.14-11.36-3.13a12.58,12.58,0,0,0-4.11.64,10.72,10.72,0,0,0-3.71,2.15c-2.31,2.05-4.35,5.51-5.58,11.17a23.62,23.62,0,0,0-.56,4.95,17.14,17.14,0,0,0,1.38,6.91,17.94,17.94,0,0,0,3.66,5.42,32.75,32.75,0,0,0,11.63,7.28,60.61,60.61,0,0,0,9,2.72v-38Z"/><path class="cls-1" d="M1450.13,572.16a17.38,17.38,0,0,0,1.45-7.11,23.57,23.57,0,0,0-.55-4.95,23.26,23.26,0,0,0-3.91-9.35,11.14,11.14,0,0,0-5.38-4,12.6,12.6,0,0,0-4.12-.64,26.44,26.44,0,0,0-11,3l-.62.32v37.94c5.1-1.15,11.25-3.13,16.21-6.4A21,21,0,0,0,1450.13,572.16Z"/><path class="cls-1" d="M229.07,423.39a14.75,14.75,0,1,0-14.76-14.75A14.75,14.75,0,0,0,229.07,423.39Z"/><ellipse class="cls-1" cx="1299.18" cy="443.01" rx="14.75" ry="14.75"/><path d="M1426,549.44l.62-.32a26.44,26.44,0,0,1,11-3,12.6,12.6,0,0,1,4.12.64,11.14,11.14,0,0,1,5.38,4,23.26,23.26,0,0,1,3.91,9.35,23.57,23.57,0,0,1,.55,4.95,17.38,17.38,0,0,1-1.45,7.11,21,21,0,0,1-8,8.82c-5,3.27-11.11,5.25-16.21,6.4v3.07a67.21,67.21,0,0,0,9.17-2.65,37.11,37.11,0,0,0,13.25-8,21.53,21.53,0,0,0,4.5-6.43,20.25,20.25,0,0,0,1.71-8.33,26.71,26.71,0,0,0-.62-5.59c-1.31-6.07-3.59-10.18-6.52-12.77a13.65,13.65,0,0,0-4.74-2.75,15.63,15.63,0,0,0-5.08-.8,28.76,28.76,0,0,0-11.81,3,1.5,1.5,0,0,1,.14.59Z"/><path d="M1275.15,583.49c5.67,3.72,12.44,5.78,17.86,7v-3.07a60.61,60.61,0,0,1-9-2.72,32.75,32.75,0,0,1-11.63-7.28,17.94,17.94,0,0,1-3.66-5.42,17.14,17.14,0,0,1-1.38-6.91,23.62,23.62,0,0,1,.56-4.95c1.23-5.66,3.27-9.12,5.58-11.17a10.72,10.72,0,0,1,3.71-2.15,12.58,12.58,0,0,1,4.11-.64c4,0,8.17,1.54,11.36,3.13l.32.16v-2.68a1.69,1.69,0,0,1,.13-.59,28.68,28.68,0,0,0-11.81-3,15.62,15.62,0,0,0-5.07.8,14.22,14.22,0,0,0-6.81,5,26.4,26.4,0,0,0-4.45,10.54,26.75,26.75,0,0,0-.63,5.59,20.42,20.42,0,0,0,1.72,8.33A24,24,0,0,0,1275.15,583.49Z"/><path class="cls-2" d="M112.59,982.43c-24.39-21.42-41.3-46.5-53-70.91l-.5-.13a8.2,8.2,0,0,1-.34,1.83c-.06.21-.16.41-.24.62a232,232,0,0,0,28.13,44.39c2.83,1.44,4.89,3.44,5.64,6a6.58,6.58,0,0,1,.18.86,210.15,210.15,0,0,0,18.83,18.8q4.86,4.26,10.13,8.33c.17-.7.36-1.4.55-2.11Q117.1,986.39,112.59,982.43Z"/><path class="cls-2" d="M34.91,834.29c.17-.74.39-1.5.64-2.26-.43-2.9-.79-5.61-1.08-8.09-.65-5.56-1-10-1.16-13.08-.07-1.3-.11-2.33-.14-3.11-.22,0-.44,0-.66,0a8.46,8.46,0,0,1-1.34-.16A227.64,227.64,0,0,0,34,835.34c.2.25.39.51.57.77C34.68,835.52,34.78,834.91,34.91,834.29Z"/><path class="cls-2" d="M51.2,892c-3.13-8.16-5.72-16.12-7.86-23.68-2.21-7.81-3.94-15.21-5.3-22a8,8,0,0,1-.76-.66,11,11,0,0,1-.81,3,284.43,284.43,0,0,0,14.34,47.83A27.1,27.1,0,0,1,51.2,892Z"/><path class="cls-2" d="M54.24,1031.27q-2.76-1.3-5.27-2.63a106.26,106.26,0,0,1-17.42-11.37,9.86,9.86,0,0,1-1.23,1.58A108.25,108.25,0,0,0,48,1030.41c2.32,1.23,4.83,2.45,7.5,3.66.3,0,.58,0,.86.06A30.14,30.14,0,0,1,54.24,1031.27Z"/><path class="cls-2" d="M73.63,1038.7a5.32,5.32,0,0,1-.45.38,8.09,8.09,0,0,1-1.81,1,188.23,188.23,0,0,0,45.92,8.18c-.07-.67-.13-1.34-.19-2A186.29,186.29,0,0,1,73.63,1038.7Z"/><path class="cls-3" d="M86.62,958.23a21.21,21.21,0,0,0-3.39-1.36,40.32,40.32,0,0,0-16.31-1.06,40.38,40.38,0,0,0-15.59,4.91c-4.09,2.44-6.87,5.64-7,9.33s2.49,7.14,7.19,9.51,11.37,3.57,18.6,2.71,13.46-3.63,17.43-7c3.67-3.15,5.43-6.79,4.9-10.09a6.58,6.58,0,0,0-.18-.86C91.51,961.67,89.45,959.67,86.62,958.23Z"/><path class="cls-3" d="M98.65,913.82c-4,4-7.68,10.53-9.65,18.31s-1.83,15.25-.21,20.7,4.61,8.94,8.25,9.34,7.28-2.21,10.37-6.48a57.09,57.09,0,0,0,9-35.54c-.69-5.22-2.62-9.24-6-10.62S102.66,909.76,98.65,913.82Z"/><path class="cls-3" d="M59.07,911.39c-3.17-.93-5.72-3.63-7.11-7.59a20.61,20.61,0,0,1-1.1-5.61A35.14,35.14,0,0,0,43.12,894a31.55,31.55,0,0,0-13.82-2.41c-4.15.31-7.93,1.59-10.16,4.55s-2.15,7.2.42,11.58A23.4,23.4,0,0,0,25,913.93a32.24,32.24,0,0,0,8.21,4.78,28,28,0,0,0,16.61,1.64c4.26-1.05,7.37-3.33,8.63-6.51.08-.21.18-.41.24-.62A8.2,8.2,0,0,0,59.07,911.39Z"/><path class="cls-3" d="M59.07,911.39l.5.13c.15,0,.3.09.45.11,3.64.63,7.27-1,10.35-3.83a29.3,29.3,0,0,0,8.24-25.48c-.84-4.1-2.84-7.55-6.16-9.17s-7.33-1-11.11,1.63a25.51,25.51,0,0,0-9.13,13.08,29.51,29.51,0,0,0-1,4.18,27.1,27.1,0,0,0-.39,4.5c0,.56,0,1.11,0,1.65A20.61,20.61,0,0,0,52,903.8C53.35,907.76,55.9,910.46,59.07,911.39Z"/><path class="cls-3" d="M37,845.47c-2.19-2.3-2.87-5.65-2.41-9.36-.18-.26-.37-.52-.57-.77a19.3,19.3,0,0,0-6.42-5.23C19.55,826,10.3,828,7,834.54s.49,15.21,8.55,19.31,17.31,2.13,20.65-4.43c.12-.23.21-.47.31-.71a11,11,0,0,0,.81-3Z"/><path class="cls-3" d="M34.6,836.11c-.46,3.71.22,7.06,2.41,9.36l.27.24a8,8,0,0,0,.76.66c2.55,1.89,6.23,2.27,10.31,1.13,4.66-1.29,9.81-4.6,14-9.56s6.64-10.59,7.16-15.4-.83-8.79-3.86-10.85-7.16-1.93-11.37-.25a32.46,32.46,0,0,0-12.25,9.26A34,34,0,0,0,35.55,832c-.25.76-.47,1.52-.64,2.26S34.68,835.52,34.6,836.11Z"/><path class="cls-3" d="M33.17,807.75c7.07-.25,13-8.94,13.45-19.89.44-11.29-5.17-20.67-12.52-21S20.43,775.54,20,786.82c-.41,10.59,4.5,19.5,11.18,20.8a8.46,8.46,0,0,0,1.34.16C32.73,807.79,33,807.76,33.17,807.75Z"/><path class="cls-3" d="M31.59,1017.21c1.9-3.17,1.9-7,.61-10.74a21.94,21.94,0,0,0-7.56-10.06,22,22,0,0,0-11.73-4.58c-3.91-.25-7.64.79-10.17,3.47s-3.32,6.53-2.32,10.64a21.6,21.6,0,0,0,8.11,11.69A21.62,21.62,0,0,0,22,1022.3a11.81,11.81,0,0,0,8.35-3.45,9.86,9.86,0,0,0,1.23-1.58Z"/><path class="cls-3" d="M64.91,1040.14a15.56,15.56,0,0,1-3.16-1.44,21.89,21.89,0,0,1-5.35-4.57c-.28,0-.56-.05-.86-.06a31.33,31.33,0,0,0-11.2,1.61A29.85,29.85,0,0,0,31.11,1044c-3.06,3.5-4.37,7.52-3.1,11s4.49,5.84,8.85,7a28.7,28.7,0,0,0,15.73-.9,29,29,0,0,0,13.78-9.09,14.35,14.35,0,0,0,2.94-6,7.67,7.67,0,0,0-.78-5.29H68A11.27,11.27,0,0,1,64.91,1040.14Z"/><path class="cls-3" d="M73.63,1038.7a11.59,11.59,0,0,0,2.91-3.87,16.41,16.41,0,0,0,1-2.63,19.71,19.71,0,0,0,.57-2.89A30.22,30.22,0,0,0,68.88,1005a19.74,19.74,0,0,0-2.33-1.78,16.12,16.12,0,0,0-2.48-1.33,11.17,11.17,0,0,0-5.34-1,8.21,8.21,0,0,0-5,2.26,11.23,11.23,0,0,0-1.93,2.43,15.17,15.17,0,0,0-1.42,3.16c-1.53,4.66-1.37,10.8.89,16.79a28.72,28.72,0,0,0,5.09,8.6,21.89,21.89,0,0,0,5.35,4.57,15.56,15.56,0,0,0,3.16,1.44,11.27,11.27,0,0,0,3.06.54h.56a8.3,8.3,0,0,0,2.84-.57,8.09,8.09,0,0,0,1.81-1A5.32,5.32,0,0,0,73.63,1038.7Z"/><path class="cls-3" d="M485.29,994.77a127.6,127.6,0,0,0-13-191.91q-4.84,15.45-10.46,29.09c-21.75,52.92-51.68,85.79-84.27,103.59a138.48,138.48,0,0,1-66.91,17c-1.38,0-2.75,0-4.12-.06s-2.74.06-4.12.06a138.49,138.49,0,0,1-66.92-17c-16.43-9-32.18-21.79-46.56-39.07a163.62,163.62,0,0,0-67,93.68c-.19.71-.38,1.41-.55,2.11a163.42,163.42,0,0,0-4.91,39.89q0,7.13.61,14.11c.06.68.12,1.35.19,2a162.07,162.07,0,0,0,12.6,48.72h252C397.49,1051.64,435.62,1014.45,485.29,994.77Z"/><path class="cls-2" d="M1510.62,754a238.52,238.52,0,0,0-43.19,6.27,26.23,26.23,0,0,1-4.82,3.26,237.4,237.4,0,0,1,50.48-7.64A7.24,7.24,0,0,1,1510.62,754Z"/><path class="cls-2" d="M1554.22,758.25a1,1,0,0,0,.31-2,211,211,0,0,0-23.71-2.36,43,43,0,0,1-5,1.84A206.94,206.94,0,0,1,1554.22,758.25Z"/><path class="cls-2" d="M1451.14,764.68a328,328,0,0,0-58.6,24.67,462.14,462.14,0,0,0-62.3,40.5c.39.55.79,1.09,1.16,1.64,11.28-8.62,23-16.92,35.23-24.65,1-3,4.54-5.05,9.63-6,6.87-4.11,13.86-8,21-11.73a319,319,0,0,1,58.16-23.64A9.8,9.8,0,0,1,1451.14,764.68Z"/><path class="cls-2" d="M1201.44,715.8c2.79-4.34,5.44-8.31,7.87-11.87,4.57-6.7,8.39-12,11-15.53,1.34-1.79,2.38-3.16,3.1-4.08.35-.46.63-.8.81-1s.28-.34.28-.34a1,1,0,0,0,.18-.82,7.28,7.28,0,0,1-1.09-.8,1,1,0,0,0-.65.37h0s-10.61,13.21-24.82,35.49c.85-.41,1.71-.81,2.62-1.16Z"/><path class="cls-2" d="M1152.58,810.19a17,17,0,0,1,2.19-7.26,27.85,27.85,0,0,1,2.13-3.35c6-14.2,12.41-27.55,18.84-39.79,3.78-7.19,7.56-14,11.26-20.38a6.82,6.82,0,0,1-.6-.71,8.32,8.32,0,0,1-.66-1.11c-3.85,6.63-7.81,13.74-11.77,21.27-15.19,28.9-30.38,64-39.74,101.85.57.51,1.12,1,1.68,1.55A405.05,405.05,0,0,1,1152.58,810.19Z"/><path class="cls-2" d="M1474.73,928.54c6.94,0,13.55.27,19.75.72a7,7,0,0,1-.29-1.58,3.38,3.38,0,0,1,0-.45c-6.13-.43-12.63-.69-19.46-.69a243.22,243.22,0,0,0-66.81,9c.31.6.62,1.21.92,1.82A240.84,240.84,0,0,1,1474.73,928.54Z"/><path class="cls-3" d="M1471.45,963c-5-8.11-11.14-14.41-16.7-18s-10.52-4.57-13.44-2.34-3.32,7.17-1.88,13.32,4.72,13.56,9.36,21,9.81,13.72,14.67,17.77,9.45,5.88,12.76,4.26,4.66-6.47,3.9-13.07S1476.47,971.07,1471.45,963Z"/><path class="cls-3" d="M1469.36,885.66a27.08,27.08,0,0,0-4.82.91,33.74,33.74,0,0,0-5.18,1.9A42.49,42.49,0,0,0,1441,905a33.21,33.21,0,0,0-2.43,5,26.53,26.53,0,0,0-1.42,4.7c-1.2,6,.24,10.53,3.43,12.27s7.56.73,12.07-1.55c1.13-.57,2.26-1.24,3.44-2s2.35-1.51,3.51-2.39a78,78,0,0,0,7.18-5.84,81.06,81.06,0,0,0,6.57-6.52c1-1.06,1.89-2.19,2.75-3.24s1.62-2.15,2.31-3.22c2.74-4.24,4.23-8.4,2.81-11.83S1475.47,885.1,1469.36,885.66Z"/><path class="cls-3" d="M1494.48,929.26c.94,3,4,5.58,7.92,7.77a57.18,57.18,0,0,0,8,3.52,105.89,105.89,0,0,0,19.24,4.84,57.93,57.93,0,0,0,8.69.67c5.31-.06,9.71-1.2,11.66-4.36s.81-7.79-3.34-12.55a34,34,0,0,0-8.32-6.73,46.46,46.46,0,0,0-24.73-6.22,34.23,34.23,0,0,0-10.52,2c-5.66,2.13-8.82,5.55-8.87,9a3.38,3.38,0,0,0,0,.45A7,7,0,0,0,1494.48,929.26Z"/><path class="cls-3" d="M1366.63,806.84c0,.12-.09.23-.12.35-1.88,7.13,10.23,16.49,26.84,21.6s31.9,4.13,34.34-2.82c1.2-3.48-1.1-7.81-5.89-12s-12.06-8.07-20.63-10.7-16.8-3.46-23.08-2.71c-.63.07-1.24.17-1.83.27C1371.17,801.79,1367.65,803.84,1366.63,806.84Z"/><path class="cls-3" d="M1382.24,729.71c-3.5-1.1-7.9,1.73-12.07,7.33s-8.1,14-10.59,23.7-3.08,19-2.11,25.88,3.46,11.52,7.06,12.23,7.65-2.52,11.35-8.23,7.12-13.9,9.51-23.26,3.35-18.17,2.85-25S1385.76,730.81,1382.24,729.71Z"/><path class="cls-3" d="M1486.64,793.48c-.43-5.14-3.06-11.38-7.83-16.79s-10.64-8.79-15.69-9.86-9.24.06-11.39,3-2.1,7.13-.71,11.43a41.66,41.66,0,0,0,19.79,22.43c4.09,1.9,8.19,2.51,11.43.72S1487.09,798.65,1486.64,793.48Z"/><path class="cls-3" d="M1472.91,754.26c6.8-9.58,7.44-20.8,1.44-25s-16.38,0-23.17,9.63-7.45,20.79-1.45,25a8.9,8.9,0,0,0,1.41.79,9.8,9.8,0,0,0,4.24.83,16.37,16.37,0,0,0,7.23-2,26.23,26.23,0,0,0,4.82-3.26A32.79,32.79,0,0,0,1472.91,754.26Z"/><path class="cls-3" d="M1553.42,735.29c2.79-4.58,3.67-9,1.78-12.14s-6.23-4.45-11.77-3.83-12.23,3.15-18.6,7.52-11.14,9.72-13.69,14.66-2.9,9.47-.64,12.36l.12.13a7.24,7.24,0,0,0,2.47,1.89,10.65,10.65,0,0,0,3,.89,12.09,12.09,0,0,1,7.27-1.1,16.35,16.35,0,0,1,1.62.3l.79-.22a43,43,0,0,0,5-1.84,56.19,56.19,0,0,0,9.11-5.1A47.3,47.3,0,0,0,1553.42,735.29Z"/><path class="cls-3" d="M1523.38,755.67a12.09,12.09,0,0,0-7.27,1.1,9.45,9.45,0,0,0-3,2.5c-2.3,2.89-2.83,6.7-2.2,10.48a23.09,23.09,0,0,0,15.49,17.54c3.68,1.09,7.53,1,10.68-.89s4.89-5.46,4.84-9.8a21.53,21.53,0,0,0-5.68-13.61,22.37,22.37,0,0,0-11.19-7A16.35,16.35,0,0,0,1523.38,755.67Z"/><path class="cls-3" d="M1592,755.54a24.87,24.87,0,0,0-27.64-6.88c-4,1.8-6.59,4.85-7.06,8.49s1.2,7.21,4,10.11a25.56,25.56,0,0,0,24.67,6.13c3.85-1.24,7-3.61,8.27-7.06S1594.7,759,1592,755.54Z"/><path class="cls-3" d="M1152.58,810.19a7.39,7.39,0,0,0,1.8,5.44c2.54,2.71,7,3,12.06,2.1a49.35,49.35,0,0,0,8.1-2.33,84.71,84.71,0,0,0,17-8.82,49.44,49.44,0,0,0,6.58-5.28c3.69-3.61,6-7.43,5.23-11.06s-4.61-6.25-10.61-7a32.42,32.42,0,0,0-10.19.49,44.42,44.42,0,0,0-21.51,11.15,36.81,36.81,0,0,0-4.15,4.7,27.85,27.85,0,0,0-2.13,3.35A17,17,0,0,0,1152.58,810.19Z"/><path class="cls-3" d="M1150.9,767.28c-7.22-15.47-18.48-25.49-25.15-22.38s-6.22,18.17,1,33.65c.9,1.93,1.89,3.81,2.78,5.37s1.74,2.91,2.51,4.08c1.53,2.37,2.81,4,4,5.66l3.54,4.73a13.14,13.14,0,0,0,4,3.91,5.55,5.55,0,0,0,5.86-.56c2.18-1.4,4.35-4.34,5.49-8.3a24.43,24.43,0,0,0,1-6.53,33.32,33.32,0,0,0-.66-7,46,46,0,0,0-1.86-6.67C1152.59,771.1,1151.8,769.22,1150.9,767.28Z"/><path class="cls-3" d="M1187,739.41c2.21,2.5,5.72,3.65,9.61,3.89a36.16,36.16,0,0,0,25.61-9.89c3-3,4.9-6.59,4.47-10.27s-3.36-6.69-8.14-8.22a23.4,23.4,0,0,0-8.23-1,31.6,31.6,0,0,0-8.88,1.85l-.65.22c-.91.35-1.77.75-2.62,1.16a31.08,31.08,0,0,0-5.83,3.72,23.28,23.28,0,0,0-5.44,6.25c-2.21,3.82-2.56,7.57-1.16,10.44a8.32,8.32,0,0,0,.66,1.11A6.82,6.82,0,0,0,1187,739.41Z"/><path class="cls-3" d="M1183.65,688a25.26,25.26,0,0,0-7.57-5.38c-5.06-2.25-9.48-1.7-12,1s-3,6.82-2.47,11.16a38.87,38.87,0,0,0,1.49,6.76,47.87,47.87,0,0,0,2.75,7,48.75,48.75,0,0,0,3.68,6.59,39.15,39.15,0,0,0,4.28,5.43c3,3.15,6.49,5.43,10.19,5.19s6.86-3.31,8.34-8.65a25.52,25.52,0,0,0,.64-9.26,34,34,0,0,0-9.36-19.82Z"/><path class="cls-3" d="M1235.23,682.84c5.48-1.2,11.91-4.15,18.17-8.53s11.24-9.4,14.25-14.14,4-9.21,2.12-12.37-6.39-4.35-12.16-3.57-12.79,3.57-19.48,8.24-11.72,10.31-14.42,15.46-3.13,9.79-.82,12.64a5.32,5.32,0,0,0,.75.75,7.28,7.28,0,0,0,1.09.8C1227.26,683.59,1231,683.77,1235.23,682.84Z"/><path class="cls-3" d="M1269.77,947.52a74.35,74.35,0,0,1-64.31-111.75,188.59,188.59,0,0,0-68.9,27.1c-.21-.21-.44-.41-.65-.61-.56-.52-1.11-1-1.68-1.55a140.61,140.61,0,0,0-193.05,3.91c1,10.74,1.79,21.14,2.47,31.07q2.28,33.51,3.84,61.75c22.7,14.29,40.68,31.78,52.27,51.38-3.31-18.63-5.55-38.36-5.55-52.37a83.47,83.47,0,0,1,.48-9.66,24.89,24.89,0,0,1,1.6-6.83,6.59,6.59,0,0,1,2.13-2.85,5.46,5.46,0,0,1,3.06-1,5,5,0,0,1,2.52.71,8.19,8.19,0,0,1,2.06,1.74,22.07,22.07,0,0,1,3.29,5.47,90.85,90.85,0,0,1,4.93,15.75c.25,1,.49,2.11.71,3.16v-.79c0-5.75.1-12.09.4-18.12a139,139,0,0,1,1.61-16.38,29.39,29.39,0,0,1,2.16-7.54,6.55,6.55,0,0,1,2.09-2.63,3.52,3.52,0,0,1,1.71-.6h.27a4,4,0,0,1,2.55,1,8.81,8.81,0,0,1,1.87,2.19,31.44,31.44,0,0,1,3,6.84,152.62,152.62,0,0,1,4.66,19.95c.76,4.23,1.41,8.45,2,12.31.54-6.53,1.37-14.07,2.64-20.88a61.39,61.39,0,0,1,4.12-14.3,13,13,0,0,1,3.71-5,5.7,5.7,0,0,1,2.77-1.13l.57,0a5.11,5.11,0,0,1,3,1,7.93,7.93,0,0,1,2.09,2.45,24.28,24.28,0,0,1,2.49,7.45,114.91,114.91,0,0,1,1.48,20.45c0,2.66-.05,5.26-.12,7.66,1.81-5.92,4.13-13,6.59-19.34a77.25,77.25,0,0,1,5.61-11.91,13.5,13.5,0,0,1,3.39-4,4.08,4.08,0,0,1,2.32-.8,3.25,3.25,0,0,1,1.15.21h0a7.33,7.33,0,0,1,3,2.16,10.72,10.72,0,0,1,1.85,3.36,28.11,28.11,0,0,1,1.22,9.14c0,6.26-1.08,13.87-2.41,21.7s-2.92,15.85-4,22.86a86.28,86.28,0,0,0-1.16,12.25,20.93,20.93,0,0,0,.39,4.48,5.44,5.44,0,0,0,1.09,2.47,1.92,1.92,0,0,0,.87.56h0l.16-.05a3.39,3.39,0,0,0,.58-.27,14.41,14.41,0,0,0,1.81-1.31c1.15-1,2.53-2.27,4-3.79-.67-1.43-1.26-2.77-1.76-4a25.62,25.62,0,0,1-2.18-9.17,8.87,8.87,0,0,1,1.57-5.33,10.39,10.39,0,0,1,4.18-3.27h0a4.16,4.16,0,0,1,1.72-.37,6.78,6.78,0,0,1,2.5.57,15.18,15.18,0,0,1,2.52,1.39,44.71,44.71,0,0,1,5.48,4.51l.55.53a41.83,41.83,0,0,1,6.94-5.6,8.46,8.46,0,0,1,4.13-1.4,4.16,4.16,0,0,1,1.72.37,10.53,10.53,0,0,1,4.18,3.27,8.86,8.86,0,0,1,1.56,5.33,25.62,25.62,0,0,1-2.18,9.17c-.49,1.25-1.08,2.59-1.76,4,1.18,1.2,2.28,2.26,3.26,3.13a16.07,16.07,0,0,0,2.66,2,2.5,2.5,0,0,0,.66.28,2,2,0,0,0,.88-.56,4.07,4.07,0,0,0,.78-1.4,17.34,17.34,0,0,0,.7-5.55,87.79,87.79,0,0,0-1.16-12.25c-.7-4.67-1.64-9.8-2.59-15-1.88-10.44-3.79-21.19-3.79-29.54a33.76,33.76,0,0,1,.65-7.13,12.44,12.44,0,0,1,2.41-5.37,7.4,7.4,0,0,1,3-2.16h0a3.3,3.3,0,0,1,1.16-.21,4.05,4.05,0,0,1,2.31.8,9.18,9.18,0,0,1,1.86,1.79A31.63,31.63,0,0,1,1132,929a144.3,144.3,0,0,1,6.65,16.55c1.33,3.87,2.56,7.74,3.62,11.2-.08-2.4-.12-5-.12-7.66,0-4,.11-8.24.42-12.2a63.41,63.41,0,0,1,1.63-10.77,18.91,18.91,0,0,1,2.13-5.29,7.73,7.73,0,0,1,1.88-2.09,5.07,5.07,0,0,1,3-1,5.25,5.25,0,0,1,.56,0,5.73,5.73,0,0,1,2.78,1.13,9.67,9.67,0,0,1,2.16,2.29,26.52,26.52,0,0,1,3.21,7,112,112,0,0,1,3.93,19.62c.49,3.88.87,7.74,1.16,11.29.84-5.88,1.92-12.61,3.22-18.91a113.11,113.11,0,0,1,3.83-14.58,28,28,0,0,1,2.69-5.78,8.73,8.73,0,0,1,1.76-2,4.06,4.06,0,0,1,2.56-1h.27a3.48,3.48,0,0,1,1.7.6,5.26,5.26,0,0,1,1.26,1.23,12.75,12.75,0,0,1,1.71,3.59,58,58,0,0,1,2.07,11,284.82,284.82,0,0,1,1.23,28.89c0,.27,0,.53,0,.8.79-3.64,1.7-7.4,2.75-10.9a50.07,50.07,0,0,1,4.65-11.39,10.89,10.89,0,0,1,3.6-3.84,5,5,0,0,1,2.51-.71,5.41,5.41,0,0,1,3.06,1A6.53,6.53,0,0,1,1206,940a20.29,20.29,0,0,1,1.21,4.22,70.56,70.56,0,0,1,.86,12.27c0,20.25-4.66,52.48-10.52,76-4.24,17-11.73,27.17-13.47,29.37L1185,1097h228.78a189.91,189.91,0,0,0-4.9-159.61c-.3-.61-.61-1.22-.92-1.82a190.51,190.51,0,0,0-64.33-71.51,74.2,74.2,0,0,1-73.82,83.46Z"/><path class="cls-3" d="M1133,1073.17a48.62,48.62,0,0,0-1-5.16,27.8,27.8,0,0,0-2.65-6.82,21.79,21.79,0,0,0-3.43-4.51c-2.59-2.71-5.95-5.28-9.79-10a73,73,0,0,1-8.26-13c-2.74-5.36-4.48-8.71-6.68-12.71-2.2,4-4,7.34-6.68,12.71a78.44,78.44,0,0,1-6.6,10.87C1107.29,1050.55,1123.2,1060.67,1133,1073.17Z"/><path class="cls-4" d="M730.29,1097h28.92c-1.4-10.56-11.25-85.08-18.67-157C735.58,1021.41,731,1087.52,730.29,1097Z"/><path class="cls-4" d="M381.85,1097H560.24a55.48,55.48,0,0,1-3.19-11.11,193.22,193.22,0,0,1-2.66-20.14c-1.36-15.68-2-35.69-2-58.77,0-8.6.09-17.63.24-27a218.58,218.58,0,0,0-67.38,14.8C435.62,1014.45,397.49,1051.64,381.85,1097Z"/><path class="cls-4" d="M1130.78,1096.65l0-.05a2.32,2.32,0,0,0,.08-.22c.07-.2.18-.5.3-.89.25-.78.59-1.94.93-3.4a52.3,52.3,0,0,0,1.37-11.89,50,50,0,0,0-.5-7c-9.78-12.5-25.69-22.62-45.13-28.67-.9,1.21-1.77,2.32-2.62,3.31a94.51,94.51,0,0,1-7.47,7.51,29.07,29.07,0,0,0-3.75,4.22,25.4,25.4,0,0,0-3.7,8.47,48.52,48.52,0,0,0-1.53,12.19,49.4,49.4,0,0,0,2.69,16.45h0a1.89,1.89,0,0,1,.09.34h59.12a1.31,1.31,0,0,1,.09-.34Z"/><path class="cls-4" d="M1017.3,1097l.91-35.18c-1.75-2.2-9.24-12.38-13.48-29.37-1.8-7.26-3.49-15.33-5-23.63-11.59-19.6-29.57-37.09-52.27-51.38,4.68,83.76,5.1,132,5.13,139.56Z"/><path class="cls-5" d="M732.12,823.67c0-4.64.12-8.73.36-12.21a53.63,53.63,0,0,1,1.16-8.56h0a1.5,1.5,0,0,1,1.37-1.13L725.73,651.7c-12.81-.16-25.1-.35-36.36-.56-9.44,233.92-9.44,233.93-9.44,233.93a1.5,1.5,0,0,1-1.71,1.43s-13.09-1.91-30.86-6-40.26-10.35-59.18-19.12c-10.59-4.93-20.08-10.63-27-17.28-3.4,59.74-5.74,117.34-5.74,162.87,0,17.27.34,32.8,1.08,46s1.88,24.2,3.48,32.28a49,49,0,0,0,3.35,11.27h164c0-.6.1-1.39.16-2.36.18-2.45.43-6.07.75-10.72.64-9.3,1.56-22.72,2.66-39.22,2.13-32,4.94-75.48,7.78-122.92-.81-8.32-1.57-16.52-2.27-24.49C733.83,867.77,732.12,841.65,732.12,823.67Z"/><path d="M552.43,1007c0,23.08.6,43.09,2,58.77a193.22,193.22,0,0,0,2.66,20.14,55.48,55.48,0,0,0,3.19,11.11h170c.66-9.48,5.29-75.59,10.25-157-.65-6.26-1.27-12.5-1.88-18.68-2.84,47.44-5.65,91-7.78,122.92-1.1,16.5-2,29.92-2.66,39.22-.32,4.65-.57,8.27-.75,10.72-.06,1-.12,1.76-.16,2.36h-164a49,49,0,0,1-3.35-11.27c-1.6-8.08-2.74-19-3.48-32.28s-1.08-28.78-1.08-46c0-45.53,2.34-103.13,5.74-162.87-1-1-1.95-1.94-2.84-2.94-2.84,49.48-5,97.61-5.66,138.8C552.52,989.35,552.43,998.38,552.43,1007Z"/><path class="cls-5" d="M725.73,651.7,735,801.77a1.4,1.4,0,0,1,.45,0,1.5,1.5,0,0,1,1.09,1.82,51.46,51.46,0,0,0-1.08,8c-.23,3.38-.35,7.41-.35,12,0,16.69,1.5,40.65,3.79,67.53s5.37,56.66,8.55,85.06c6.36,56.81,13.1,108.06,14.59,119.32.05.38.1.71.13,1H949.62c0-.49,0-1.09,0-1.81,0-2.2-.06-5.5-.13-9.86-.14-8.72-.42-21.71-1-38.8-1.13-34.18-3.37-84.74-7.84-150.21-1-14.19-2.25-29.35-3.77-45.1a96.83,96.83,0,0,1-12.78,13c-20.17,17.05-52.22,30.82-99.62,30.82a296.54,296.54,0,0,1-48.74-4.3,1.48,1.48,0,0,1-1.2-1.1c-2.52-9.75-4.23-25.12-5.34-44.94s-1.6-44.07-1.6-71.47c0-35.86.84-77.11,2.22-120.79C755,652,740,651.87,725.73,651.7Z"/><path d="M936.89,850.8c1.52,15.75,2.8,30.91,3.77,45.1,4.47,65.47,6.71,116,7.84,150.21.56,17.09.84,30.08,1,38.8.07,4.36.11,7.66.13,9.86,0,.72,0,1.32,0,1.81H762.18c0-.29-.08-.62-.13-1-1.49-11.26-8.23-62.51-14.59-119.32-3.18-28.4-6.26-58.19-8.55-85.06s-3.79-50.84-3.79-67.53c0-4.59.12-8.62.35-12a51.46,51.46,0,0,1,1.08-8,1.5,1.5,0,0,0-1.09-1.82,1.4,1.4,0,0,0-.45,0,1.5,1.5,0,0,0-1.37,1.13h0a53.63,53.63,0,0,0-1.16,8.56c-.24,3.48-.36,7.57-.36,12.21,0,18,1.71,44.1,4.27,73.2.7,8,1.46,16.17,2.27,24.49.61,6.18,1.23,12.42,1.88,18.68,7.42,71.88,17.27,146.4,18.67,157H952.62c0-7.6-.45-55.8-5.13-139.56q-1.57-28.22-3.84-61.75c-.68-9.93-1.51-20.33-2.47-31.07q-.75-8.52-1.61-17.3Q938.3,849.06,936.89,850.8Z"/><path d="M769.93,649q.24-7.37.49-14.8-29.92,1.68-64.73,1.7-7.73,0-15.71-.09-.24,6.25-.49,12.31C713.32,648.58,741.78,649,769.93,649Z"/><path d="M769.83,652c0-1,.07-2,.1-3-28.15,0-56.61-.44-80.44-.88,0,1-.08,2-.12,3,11.26.21,23.55.4,36.36.56C740,651.87,755,652,769.83,652Z"/><path class="cls-6" d="M770.53,631.2c1.39-40,3.19-81.58,5.18-122.62-3-.56-4.69-.88-4.7-.89a1.49,1.49,0,0,1-1.15-1.07l-.08-.31h-2.27c-16.85,0-37.64-2-50.19-3.5a19.57,19.57,0,0,1-9-3.09,12.07,12.07,0,0,1-4.62-6.21,16.66,16.66,0,0,1-.78-5.24c0-4.51,1.41-9.53,3.61-14.72a103.06,103.06,0,0,1,8.53-15.63,21.81,21.81,0,0,1,8.16-7.09,46.73,46.73,0,0,1,11.46-4.1c8.34-1.94,17.73-2.5,25.87-2.5,2.09,0,4.1,0,6,.1a18.22,18.22,0,0,1,3.68-5.55,1.23,1.23,0,0,1,.31-.24,31.88,31.88,0,0,1,3.15-1.57c-.17-8-.25-16.74-.25-26.14,0-56.56,2.84-135.27,4.93-185.66a37.79,37.79,0,0,1-4.27,2,51.82,51.82,0,0,1-19.32,3.41,91.5,91.5,0,0,1-24.93-3.85c-4-1.16-7.16-2.32-9-3.06,0,4.6,0,9,.06,12.71.05,4.64.12,8.34.23,10.32,0,.18,0,.39,0,.63,0,1.39-.14,4-.39,7.59s-.61,8.29-1.07,13.78c-.91,11-2.2,25.26-3.71,41.1-3,31.67-6.93,69.53-10.45,99.56-2.34,20-4.51,36.55-6.15,45.51-.43,2.39-.83,4.24-1.2,5.53a8.64,8.64,0,0,1-.63,1.66l-.17.27c-2.21,49.12-4.55,103.5-6.92,162.09q-.16,4.23-.33,8.37,7.9.09,15.58.09Q740.55,632.92,770.53,631.2Z"/><path d="M770.42,634.22c0-1,.07-2,.11-3q-30,1.69-64.84,1.72-7.68,0-15.58-.09c0,1-.09,2-.13,3q8,.09,15.71.09Q740.47,635.92,770.42,634.22Z"/><path class="cls-5" d="M236.92,932.91a135.63,135.63,0,0,0,65.48,16.66q2,0,4.08-.06h.08q2,.06,4.08.06a135.62,135.62,0,0,0,65.47-16.66c21.27-11.62,41.45-29.82,58.94-56.2,34.88-52.59,59-137.79,59.13-267.81-40.9-11.71-87.73-36.84-124.53-59.14-33.25-20.14-58.25-38-63.13-41.48-4.88,3.52-29.89,21.34-63.13,41.48-36.8,22.3-83.64,47.43-124.53,59.14.1,97.41,13.66,169.68,35.13,221.91C175.55,883.25,205,915.48,236.92,932.91ZM156.56,631.67c30.08-8.45,64.77-26.54,93.08-43.38s50.28-32.4,55-35.82l1-.7a1.52,1.52,0,0,1,1.77,0l1,.7,2.8,2c2.44,1.72,6,4.21,10.47,7.25,8.95,6.08,21.56,14.38,36.19,23.24,29.24,17.72,66.57,37.7,98.65,46.72a1.5,1.5,0,0,1,1.1,1.44c0,77.71-10.76,135.46-28,177.35s-40.93,67.94-66.76,82A109.83,109.83,0,0,1,309.77,906c-1.08,0-2.17,0-3.25,0s-2.17,0-3.26,0a109.79,109.79,0,0,1-53-13.5c-17.22-9.41-33.51-24.12-47.55-45.3-28.07-42.36-47.19-110.49-47.19-214.1A1.5,1.5,0,0,1,156.56,631.67Z"/><path d="M235.48,935.54a138.49,138.49,0,0,0,66.92,17c1.38,0,2.75,0,4.12-.06s2.74.06,4.12.06a138.48,138.48,0,0,0,66.91-17c32.59-17.8,62.52-50.67,84.27-103.59q5.61-13.63,10.46-29.09c15.56-49.67,24.9-113.7,24.9-195.08a1.5,1.5,0,0,0-1.09-1.44c-40.65-11.43-87.89-36.71-124.89-59.14-18.5-11.22-34.46-21.72-45.79-29.41-5.66-3.85-10.16-7-13.25-9.17l-3.54-2.52-1.22-.88a1.49,1.49,0,0,0-1.77,0l-1.21.88c-6,4.33-33.81,24-69.64,45.33S155.06,595.63,117,606.34a1.49,1.49,0,0,0-1.09,1.44c0,131,24.18,217.11,59.62,270.59a206.38,206.38,0,0,0,13.44,18.1C203.3,913.75,219.05,926.56,235.48,935.54ZM118.86,608.9c40.89-11.71,87.73-36.84,124.53-59.14,33.24-20.14,58.25-38,63.13-41.48,4.88,3.52,29.88,21.34,63.13,41.48,36.8,22.3,83.63,47.43,124.53,59.14-.14,130-24.25,215.22-59.13,267.81-17.49,26.38-37.67,44.58-58.94,56.2a135.62,135.62,0,0,1-65.47,16.66q-2,0-4.08-.06h-.08q-2,.06-4.08.06a135.63,135.63,0,0,1-65.48-16.66C205,915.48,175.55,883.25,154,830.81,132.52,778.58,119,706.31,118.86,608.9Z"/><path class="cls-6" d="M158.47,634.24c.11,76.86,10.81,133.88,27.75,175.08,17,41.4,40.29,66.82,65.43,80.56A106.82,106.82,0,0,0,303.26,903c1.07,0,2.15,0,3.22,0h.08c1.07,0,2.14,0,3.21,0a106.86,106.86,0,0,0,51.62-13.13c16.76-9.16,32.68-23.51,46.48-44.32,27.51-41.48,46.56-108.71,46.69-211.32-32.33-9.31-69.26-29.13-98.3-46.73-25.89-15.69-45.46-29.6-49.74-32.67-4.28,3.07-23.86,17-49.75,32.67C227.73,605.11,190.8,624.93,158.47,634.24Zm121.07,17.09a1.5,1.5,0,0,1,1.5-1.5H332a1.52,1.52,0,0,1,1.07.44,1.55,1.55,0,0,1,.43,1.06v50.45H384a1.5,1.5,0,0,1,1.5,1.5v50.93a1.5,1.5,0,0,1-.44,1.06,1.52,1.52,0,0,1-1.06.44H333.49v50.45a1.49,1.49,0,0,1-1.5,1.5H281a1.52,1.52,0,0,1-1.06-.44,1.5,1.5,0,0,1-.44-1.06V755.71H229.07a1.5,1.5,0,0,1-1.5-1.5V703.28a1.52,1.52,0,0,1,.44-1.06,1.5,1.5,0,0,1,1.06-.44h50.47Z"/><path d="M250.21,892.51a109.79,109.79,0,0,0,53,13.5c1.09,0,2.17,0,3.26,0s2.17,0,3.25,0a109.83,109.83,0,0,0,53.06-13.5c25.83-14.11,49.55-40.16,66.76-82s28-99.64,28-177.35a1.5,1.5,0,0,0-1.1-1.44c-32.08-9-69.41-29-98.65-46.72-14.63-8.86-27.24-17.16-36.19-23.24-4.47-3-8-5.53-10.47-7.25l-2.8-2-1-.7a1.52,1.52,0,0,0-1.77,0l-1,.7c-4.75,3.42-26.71,19-55,35.82s-63,34.93-93.08,43.38a1.5,1.5,0,0,0-1.09,1.44c0,103.61,19.12,171.74,47.19,214.1C216.7,868.39,233,883.1,250.21,892.51Zm106-305c29,17.6,66,37.42,98.3,46.73-.13,102.61-19.18,169.84-46.69,211.32-13.8,20.81-29.72,35.16-46.48,44.32A106.86,106.86,0,0,1,309.77,903c-1.07,0-2.14,0-3.21,0h-.08c-1.07,0-2.15,0-3.22,0a106.82,106.82,0,0,1-51.61-13.13c-25.14-13.74-48.41-39.16-65.43-80.56-16.94-41.2-27.64-98.22-27.75-175.08,32.33-9.31,69.26-29.13,98.3-46.73,25.89-15.69,45.47-29.6,49.75-32.67C310.8,557.91,330.37,571.82,356.26,587.51Z"/><path class="cls-5" d="M230.57,704.78v47.93H281a1.5,1.5,0,0,1,1.06.44,1.52,1.52,0,0,1,.44,1.06v50.45h47.95V754.21a1.5,1.5,0,0,1,1.5-1.5h50.48V704.78H332a1.52,1.52,0,0,1-1.06-.44,1.5,1.5,0,0,1-.44-1.06V652.83H282.54v50.45a1.5,1.5,0,0,1-1.5,1.5Z"/><path d="M228,702.22a1.52,1.52,0,0,0-.44,1.06v50.93a1.5,1.5,0,0,0,1.5,1.5h50.47v50.45a1.5,1.5,0,0,0,.44,1.06,1.52,1.52,0,0,0,1.06.44H332a1.49,1.49,0,0,0,1.5-1.5V755.71H384a1.52,1.52,0,0,0,1.06-.44,1.5,1.5,0,0,0,.44-1.06V703.28a1.5,1.5,0,0,0-1.5-1.5H333.49V651.33a1.55,1.55,0,0,0-.43-1.06,1.52,1.52,0,0,0-1.07-.44H281a1.5,1.5,0,0,0-1.5,1.5v50.45H229.07A1.5,1.5,0,0,0,228,702.22Zm54.53,1.06V652.83h47.95v50.45a1.5,1.5,0,0,0,.44,1.06,1.52,1.52,0,0,0,1.06.44h50.48v47.93H332a1.5,1.5,0,0,0-1.5,1.5v50.45H282.54V754.21a1.52,1.52,0,0,0-.44-1.06,1.5,1.5,0,0,0-1.06-.44H230.57V704.78H281a1.5,1.5,0,0,0,1.5-1.5Z"/><path d="M1185,1097.75a1.5,1.5,0,0,1-1.52,1.54l-51.31-.58a1.47,1.47,0,0,1-1.22-.66,1.51,1.51,0,0,1-.24-1h-59.12a1.5,1.5,0,0,1-1.47,1.71l-51.31.58a1.51,1.51,0,0,1-1.08-.45,1.49,1.49,0,0,1-.43-1.09l0-.75h-935a1.5,1.5,0,1,0,0,3H1438.9a1.5,1.5,0,0,0,0-3H1185Z"/><path class="cls-5" d="M721,220.55c.48.2,1.13.46,2,.78,1.84.69,4.49,1.63,7.71,2.56a88.78,88.78,0,0,0,24.1,3.73,49,49,0,0,0,18.2-3.19,36.49,36.49,0,0,0,5.54-2.81c1.12-26.65,2-44.55,2-45.6-.31-4.27-.45-8.5-.45-12.69,0-4.43.16-8.82.45-13.13a33.17,33.17,0,0,1-4.22,2.29,19.42,19.42,0,0,1-7.76,1.82,12.42,12.42,0,0,1-4.59-.84,14.51,14.51,0,0,1-6.92-5.18,12.48,12.48,0,0,1-2-7.12c0-3.93,1.3-8.06,2.85-12.12s3.38-8,4.56-11.51a19.28,19.28,0,0,0,1.28-6,4.88,4.88,0,0,0-.64-2.65,4.45,4.45,0,0,0-2.27-1.71,9.4,9.4,0,0,0-3.32-.78,2.94,2.94,0,0,0-1.63.42,3.19,3.19,0,0,0-1,1.23,14.79,14.79,0,0,0-1.19,5.21c-.13,1.43-.21,3-.32,4.49a30.25,30.25,0,0,1-.81,5.83,8.5,8.5,0,0,1-1.28,2.8,5,5,0,0,1-3,2,7.56,7.56,0,0,1-1.59.19,3.93,3.93,0,0,1-2.14-.57,3.61,3.61,0,0,1-1.36-1.65,6.11,6.11,0,0,1-.37-1.33,12,12,0,0,1-.14-1.94c0-1.79.25-3.91.48-6.36s.46-5.23.46-8.24a49,49,0,0,0-1-9.92c-10.48-1.81-18.92-4.8-25.67-8.59a49.57,49.57,0,0,1-15.89-13.81,44.34,44.34,0,0,1-2.63-4,271.74,271.74,0,0,0-10.07,28.17c-3.3,11.36-5.48,22.65-5.48,32.5a43.61,43.61,0,0,0,2.82,16.57,23.47,23.47,0,0,0,9.16,11.18l25,7A1.5,1.5,0,0,1,721,169v11.9h0Z"/><path d="M754.8,230.62a51.82,51.82,0,0,0,19.32-3.41,37.79,37.79,0,0,0,4.27-2c.05-1.2.1-2.39.15-3.56a36.49,36.49,0,0,1-5.54,2.81,49,49,0,0,1-18.2,3.19,88.78,88.78,0,0,1-24.1-3.73c-3.22-.93-5.87-1.87-7.71-2.56-.84-.32-1.49-.58-2-.78l0-39.62s0,1.3,0,3.55,0,5.43-.05,9.2c0,7.53-.09,17.39-.09,26.66v3.37c1.88.74,5,1.9,9,3.06A91.5,91.5,0,0,0,754.8,230.62Z"/><path d="M719.58,179.42a1.5,1.5,0,0,1,1.42,1.51V169a1.5,1.5,0,0,0-1.1-1.44l-25-7a23.47,23.47,0,0,1-9.16-11.18,43.61,43.61,0,0,1-2.82-16.57c0-9.85,2.18-21.14,5.48-32.5a271.74,271.74,0,0,1,10.07-28.17c-.66-1.13-1.26-2.28-1.81-3.43A282.51,282.51,0,0,0,685.46,99.5c-3.34,11.53-5.59,23-5.59,33.33a46.7,46.7,0,0,0,3,17.72,26.53,26.53,0,0,0,10.51,12.68,1.92,1.92,0,0,0,.39.17L718,170.17v9.2C718.53,179.39,719.05,179.39,719.58,179.42Z"/><path d="M780.58,150.2c-.29,4.31-.45,8.7-.45,13.13,0,4.19.14,8.42.45,12.69V176a1.5,1.5,0,0,1,1.38-1.42c.5,0,1-.07,1.52-.09-.24-3.73-.36-7.44-.36-11.11,0-5.19.23-10.31.62-15.33A38.51,38.51,0,0,1,780.58,150.2Z"/><path d="M800.1,29.81c-6.59-9.07-14-15.15-21.63-19a54.66,54.66,0,0,0-24.84-5.68c-17.91,0-35.22,7.6-46,14.54A59.51,59.51,0,0,0,699.21,26,15.35,15.35,0,0,0,697,28.53a2.24,2.24,0,0,0-.29.56h0a1.28,1.28,0,0,1-.06.34h0l0,0s0,.12-.06.21-.12.48-.22.86c-.18.76-.43,1.87-.68,3.28a64.3,64.3,0,0,0-1,11.35A52,52,0,0,0,699.12,67c3.48,7.5,9.38,14.75,19.29,20.33,6.62,3.72,15,6.69,25.72,8.44a1.5,1.5,0,0,1,1.22,1.14,51,51,0,0,1,1.25,11.55c0,3.16-.24,6-.48,8.52s-.46,4.57-.46,6.08a9.23,9.23,0,0,0,.12,1.58,1.81,1.81,0,0,0,.26.71l.13.11a1,1,0,0,0,.5.09,4.27,4.27,0,0,0,.94-.12,1.82,1.82,0,0,0,.77-.35,2.79,2.79,0,0,0,.62-.71,8.4,8.4,0,0,0,.93-2.84c.44-2.44.48-5.67.77-8.71a18.65,18.65,0,0,1,1.26-5.68,6.79,6.79,0,0,1,1.89-2.53,5.88,5.88,0,0,1,3.69-1.21,12.41,12.41,0,0,1,4.42,1,7.41,7.41,0,0,1,3.71,2.9,7.85,7.85,0,0,1,1.1,4.25,18.61,18.61,0,0,1-.86,5.13,57.49,57.49,0,0,1-2,5.59c-1.54,3.85-3.36,7.9-4.54,11.73a24.91,24.91,0,0,0-1.29,7.16,9.45,9.45,0,0,0,1.5,5.45,11.44,11.44,0,0,0,5.54,4.06,9.37,9.37,0,0,0,3.48.63,16.43,16.43,0,0,0,6.55-1.57,34.88,34.88,0,0,0,7.43-4.62,73.56,73.56,0,0,0,15.11-17.05c9.46-14.29,16.72-33.66,16.72-53.7A77.74,77.74,0,0,0,811.16,52,29,29,0,0,1,800.1,29.81Z"/><path d="M698.42,72.16a44.34,44.34,0,0,0,2.63,4A49.57,49.57,0,0,0,716.94,90c6.75,3.79,15.19,6.78,25.67,8.59a49,49,0,0,1,1,9.92c0,3-.23,5.78-.46,8.24s-.47,4.57-.48,6.36a12,12,0,0,0,.14,1.94,6.11,6.11,0,0,0,.37,1.33,3.61,3.61,0,0,0,1.36,1.65,3.93,3.93,0,0,0,2.14.57,7.56,7.56,0,0,0,1.59-.19,5,5,0,0,0,3-2,8.5,8.5,0,0,0,1.28-2.8,30.25,30.25,0,0,0,.81-5.83c.11-1.52.19-3.06.32-4.49a14.79,14.79,0,0,1,1.19-5.21,3.19,3.19,0,0,1,1-1.23,2.94,2.94,0,0,1,1.63-.42,9.4,9.4,0,0,1,3.32.78,4.45,4.45,0,0,1,2.27,1.71,4.88,4.88,0,0,1,.64,2.65,19.28,19.28,0,0,1-1.28,6c-1.18,3.47-3,7.46-4.56,11.51s-2.84,8.19-2.85,12.12a12.48,12.48,0,0,0,2,7.12,14.51,14.51,0,0,0,6.92,5.18,12.42,12.42,0,0,0,4.59.84,19.42,19.42,0,0,0,7.76-1.82,33.17,33.17,0,0,0,4.22-2.29,38.51,38.51,0,0,0,3.17-2.2,59.39,59.39,0,0,0,6.78-6.09,97.64,97.64,0,0,0,18.69-29,99.18,99.18,0,0,0,8.19-38.52A80.79,80.79,0,0,0,815,54.54,27.54,27.54,0,0,1,811.16,52a77.74,77.74,0,0,1,3.25,22.4c0,20-7.26,39.41-16.72,53.7a73.56,73.56,0,0,1-15.11,17.05,34.88,34.88,0,0,1-7.43,4.62,16.43,16.43,0,0,1-6.55,1.57,9.37,9.37,0,0,1-3.48-.63,11.44,11.44,0,0,1-5.54-4.06,9.45,9.45,0,0,1-1.5-5.45,24.91,24.91,0,0,1,1.29-7.16c1.18-3.83,3-7.88,4.54-11.73a57.49,57.49,0,0,0,2-5.59,18.61,18.61,0,0,0,.86-5.13,7.85,7.85,0,0,0-1.1-4.25,7.41,7.41,0,0,0-3.71-2.9,12.41,12.41,0,0,0-4.42-1,5.88,5.88,0,0,0-3.69,1.21,6.79,6.79,0,0,0-1.89,2.53,18.65,18.65,0,0,0-1.26,5.68c-.29,3-.33,6.27-.77,8.71a8.4,8.4,0,0,1-.93,2.84,2.79,2.79,0,0,1-.62.71,1.82,1.82,0,0,1-.77.35,4.27,4.27,0,0,1-.94.12,1,1,0,0,1-.5-.09l-.13-.11a1.81,1.81,0,0,1-.26-.71,9.23,9.23,0,0,1-.12-1.58c0-1.51.23-3.6.46-6.08s.48-5.36.48-8.52a51,51,0,0,0-1.25-11.55,1.5,1.5,0,0,0-1.22-1.14C733.44,94,725,91.07,718.41,87.35,708.5,81.77,702.6,74.52,699.12,67a52,52,0,0,1-4.51-21.83,64.3,64.3,0,0,1,1-11.35c.25-1.41.5-2.52.68-3.28.1-.38.17-.67.22-.86s.05-.17.06-.21l0,0h0a1.28,1.28,0,0,0,.06-.34h0a2.24,2.24,0,0,1,.29-.56A15.35,15.35,0,0,1,699.21,26a59.51,59.51,0,0,1,8.39-6.34c10.81-6.94,28.12-14.55,46-14.54a54.66,54.66,0,0,1,24.84,5.68c7.68,3.86,15,9.94,21.63,19,0-.23,0-.45,0-.68a30.08,30.08,0,0,1,.27-3.94A61.64,61.64,0,0,0,779.81,8.12a57.72,57.72,0,0,0-26.18-6c-15.49,0-30.26,5.36-41.23,11.25a82.74,82.74,0,0,0-13.24,8.69,32,32,0,0,0-3.82,3.63,10.88,10.88,0,0,0-1.13,1.57,3.85,3.85,0,0,0-.5,1.39,63.19,63.19,0,0,0-2.1,16.54,54.87,54.87,0,0,0,5,23.54C697.16,69.88,697.76,71,698.42,72.16Z"/><path d="M803.08,29.13a26.14,26.14,0,1,0,7.66-18.48A26,26,0,0,0,803.08,29.13Z"/><path d="M800.08,29.13c0,.23,0,.45,0,.68A29,29,0,0,0,811.16,52,27.54,27.54,0,0,0,815,54.54a29.12,29.12,0,1,0-14.64-29.35A30.08,30.08,0,0,0,800.08,29.13ZM829.22,3a26.14,26.14,0,1,1-18.48,7.65A26,26,0,0,1,829.22,3Z"/><path class="cls-5" d="M851.83,428.13c24.45,0,46.68,1.24,55.2,1.78-6.15-6.94-22.55-25.94-34.19-44-4.86-7.52-8.89-14.86-11-21.2a1.5,1.5,0,0,1,.95-1.9,1.54,1.54,0,0,1,.42-.07l-5.49-166.86c-.19-.07-.38-.16-.56-.22a248,248,0,0,0-36.4-9.59c.74,3.93,2.4,12.81,4.21,22.93,2.44,13.67,5.15,29.58,6.24,38.64a54.34,54.34,0,0,1,.5,6c0,.28,0,.53,0,.77a3.7,3.7,0,0,1-.11.72c-.17.63-.58,2-1.19,4s-1.38,4.51-2.29,7.44c-1.82,5.85-4.13,13.21-6.39,20.42-3.93,12.52-7.74,24.58-8.68,27.56,1,1.38,3.47,5,6.34,9.21,3.67,5.44,7.93,11.91,10.31,16.2a27.26,27.26,0,0,1,1.56,3.14,5.57,5.57,0,0,1,.38,1.35c0,.11,0,.2,0,.3a5.18,5.18,0,0,1-.08.85c0,.3-.12.63-.21,1-.17.76-.43,1.7-.76,2.82-.66,2.24-1.62,5.21-2.87,8.85-2.51,7.29-6.15,17.24-10.72,29.2-4.79,12.51-10.62,27.22-17.23,43.32,1.74-.22,3.51-.43,5.31-.62A459.89,459.89,0,0,1,851.83,428.13Z"/><path class="cls-5" d="M770.61,772.81c0,27.36.49,51.57,1.59,71.3,1.07,19.08,2.72,34,5,43.41a294,294,0,0,0,47.27,4.1c35.12,0,61.49-7.64,80.75-18.43s31.39-24.75,38-37.45c4.42-8.46,6.37-16.37,6.37-22.3,0-.4,0-.8,0-1.18-.73-16.06-8.23-159.91-14.74-291.17-8.2.49-16.58.72-25,.72-54.51,0-111-9.11-131.16-12.69C774.15,602.71,770.61,699.16,770.61,772.81Z"/><path d="M820.34,184s.15.78.41,2.17a248,248,0,0,1,36.4,9.59c.18.06.37.15.56.22v-.06l-.43-.12h0a1.5,1.5,0,0,1,.75-2.91l.08,0a256,256,0,0,0-38.8-10.08l.17.07A1.49,1.49,0,0,1,820.34,184Z"/><path d="M934.86,521.09c6.51,131.26,14,275.11,14.74,291.17,0,.38,0,.78,0,1.18,0,5.93-2,13.84-6.37,22.3-6.63,12.7-18.77,26.66-38,37.45s-45.63,18.43-80.75,18.43a294,294,0,0,1-47.27-4.1c-2.3-9.42-4-24.33-5-43.41-1.1-19.73-1.59-43.94-1.59-71.3,0-73.65,3.54-170.1,8.08-263.69l-3-.54c-2,41-3.79,82.63-5.18,122.62,0,1-.07,2-.11,3q-.25,7.44-.49,14.8c0,1-.07,2-.1,3-1.38,43.68-2.22,84.93-2.22,120.79,0,27.4.49,51.65,1.6,71.47s2.82,35.19,5.34,44.94a1.48,1.48,0,0,0,1.2,1.1,296.54,296.54,0,0,0,48.74,4.3c47.4,0,79.45-13.77,99.62-30.82a96.83,96.83,0,0,0,12.78-13q1.41-1.74,2.68-3.48a81.35,81.35,0,0,0,6.35-10.19c4.6-8.82,6.7-17.12,6.71-23.69h0q0-.68,0-1.32c-.64-14.07-6.46-125.84-12.26-241.45-.83-16.6-1.67-33.28-2.48-49.76Z"/><path class="cls-5" d="M693.45,460.93a41,41,0,0,1-1.59-4.15c-1.17-3.48-2.58-8.39-4.15-14.27-3.12-11.77-6.87-27.42-10.49-43.07-7.22-31.31-13.89-62.59-13.89-62.6a1.53,1.53,0,0,1,.22-1.14l24.76-37.26-23.77-40.67L653.43,440.29a1.44,1.44,0,0,1,.71.22,1.49,1.49,0,0,1,.46,2.07c-.06.09-10.29,16.2-30.11,32.33A144.61,144.61,0,0,1,573,502.21c-5.9,64.19-11.32,132.57-15.13,190-3.38,51.09-5.48,93.51-5.48,116.5a130.73,130.73,0,0,0,.62,15.36,27.93,27.93,0,0,0,6.48,13.82A61.62,61.62,0,0,0,573.52,850c11.4,7.45,26.28,13.61,41.23,18.49A437,437,0,0,0,677,883.27c.3-7.33,1.89-46.78,10.45-258.93,2.36-58.53,4.69-112.86,6.9-161.94l-.14-.16A8.38,8.38,0,0,1,693.45,460.93Z"/><path class="cls-5" d="M665.84,236.3l12.73-39.19a98.57,98.57,0,0,0-10.68,5.57Z"/><path d="M669.33,200.16a1.5,1.5,0,0,1-.63,2l-.81.44v.06a98.57,98.57,0,0,1,10.68-5.57l1.23-3.81a106.85,106.85,0,0,0-12.4,6.18A1.5,1.5,0,0,1,669.33,200.16Z"/><path d="M561.17,844.11c6.93,6.65,16.42,12.35,27,17.28,18.92,8.77,41.4,15,59.18,19.12s30.83,6,30.86,6a1.5,1.5,0,0,0,1.71-1.43s0,0,9.44-233.93c0-1,.08-2,.12-3q.24-6,.49-12.31c0-1,.09-2,.13-3q.17-4.14.33-8.37c2.37-58.59,4.71-113,6.92-162.09a2.19,2.19,0,0,1-.53.53,1.66,1.66,0,0,1-.94.29h0a1.87,1.87,0,0,1-1.12-.4,3,3,0,0,1-.4-.39c-2.21,49.08-4.54,103.41-6.9,161.94C678.89,836.49,677.3,875.94,677,883.27a437,437,0,0,1-62.25-14.81c-15-4.88-29.83-11-41.23-18.49a61.62,61.62,0,0,1-14.08-12.1A27.93,27.93,0,0,1,553,824.05a130.73,130.73,0,0,1-.62-15.36c0-23,2.1-65.41,5.48-116.5,3.81-57.41,9.23-125.79,15.13-190q-1.53.44-3.09.84c-2.21,24.13-4.36,48.83-6.38,73.32-4.05,49.18-7.58,97.47-10.1,138.35s-4,74.35-4,94a131.13,131.13,0,0,0,.65,15.77,31.12,31.12,0,0,0,7.5,15.76c.27.32.56.64.84.95C559.22,842.17,560.17,843.15,561.17,844.11Z"/><path class="cls-5" d="M538.47,144.51c0-6.58.8-14.61.8-21.44a47,47,0,0,0-.53-7.74,11.05,11.05,0,0,0-1.8-4.9,13,13,0,0,0-3.08-2.93,4.45,4.45,0,0,0-2.25-.83,1.53,1.53,0,0,0-.59.12,1,1,0,0,0-.4.32,3.18,3.18,0,0,0-.51,2,6.56,6.56,0,0,0,0,.73,18.19,18.19,0,0,1,.91,5.55,15.75,15.75,0,0,1-3.85,10.44,12.05,12.05,0,0,1-8.92,4.32,10.16,10.16,0,0,1-5.07-1.36,13.66,13.66,0,0,1-4.43-4.22A15.09,15.09,0,0,1,506,116a15.25,15.25,0,0,1,3.23-9.14,19.1,19.1,0,0,1,7-5.75,12.33,12.33,0,0,1,5.17-1.29,7.5,7.5,0,0,1,1,.06,25,25,0,0,0,2.82.16,20.46,20.46,0,0,0,3.2-.24,8.92,8.92,0,0,0,2.18-.61l.19-.1a5.16,5.16,0,0,0-.94-.57l-.13-.07C522.07,93.67,515.91,92,510.94,92a18.89,18.89,0,0,0-9.41,2.4,22.51,22.51,0,0,0-6.31,5.4,29.1,29.1,0,0,0-4.76,8.27h0a1.5,1.5,0,0,1-2.82.08l-.21-.52-.61-1.47c-.54-1.26-1.3-3-2.24-5.11a142.6,142.6,0,0,0-7.2-14,42.68,42.68,0,0,0-5.46-7.51,9.18,9.18,0,0,0-2.66-2,2.55,2.55,0,0,0-1-.24h-.16a.45.45,0,0,0-.14,0l0,0a2.28,2.28,0,0,0-.19,1.09,14.58,14.58,0,0,0,.59,3.51,50.53,50.53,0,0,0,1.65,4.9c1.4,3.58,3.29,7.66,5.25,11.58,3.91,7.84,8.07,15.05,9,16.62l.18.32a1.5,1.5,0,0,1-2.42,1.75l-.35-.4-1-1.13c-.87-1-2.11-2.32-3.58-3.9-2.95-3.16-6.83-7.2-10.54-10.69a71.74,71.74,0,0,0-6.82-5.81A13.64,13.64,0,0,0,457,93.61a1.82,1.82,0,0,0-.4-.13s0,0,0,.08a7.84,7.84,0,0,0,.66,2.59,34.35,34.35,0,0,0,1.92,4c1.63,3,3.86,6.45,6.16,9.8,4.6,6.71,9.49,13,10.57,14.34l.22.27a1.5,1.5,0,0,1-2,2.2l-.33-.21-.93-.6c-.81-.5-2-1.21-3.33-2-2.72-1.63-6.31-3.67-9.72-5.32a42.2,42.2,0,0,0-6.2-2.51,9,9,0,0,0-2.25-.42,19.45,19.45,0,0,0,1.63,1.78c1.53,1.51,3.83,3.5,6.7,5.94,5.75,4.88,13.8,11.56,22.86,20.11,5.78,5.47,9.39,10.15,11.56,14.12a28.23,28.23,0,0,1,1.61,3.46,49.59,49.59,0,0,1,5-3.89c5-3.37,12-6.8,20.25-6.81a30.92,30.92,0,0,1,15.75,4.45,10.06,10.06,0,0,1,2.65,2.39c-.32-2.41-.63-5.69-.81-10.09C538.49,146.31,538.47,145.42,538.47,144.51Z"/><path d="M495.7,161.11a28.23,28.23,0,0,0-1.61-3.46c-2.17-4-5.78-8.65-11.56-14.12-9.06-8.55-17.11-15.23-22.86-20.11-2.87-2.44-5.17-4.43-6.7-5.94a19.45,19.45,0,0,1-1.63-1.78,9,9,0,0,1,2.25.42,42.2,42.2,0,0,1,6.2,2.51c3.41,1.65,7,3.69,9.72,5.32,1.37.81,2.52,1.52,3.33,2l.93.6.33.21a1.5,1.5,0,0,0,2-2.2l-.22-.27c-1.08-1.37-6-7.63-10.57-14.34-2.3-3.35-4.53-6.81-6.16-9.8a34.35,34.35,0,0,1-1.92-4,7.84,7.84,0,0,1-.66-2.59s0,0,0-.08a1.82,1.82,0,0,1,.4.13,13.64,13.64,0,0,1,2.73,1.61,71.74,71.74,0,0,1,6.82,5.81c3.71,3.49,7.59,7.53,10.54,10.69,1.47,1.58,2.71,2.94,3.58,3.9l1,1.13.35.4a1.5,1.5,0,0,0,2.42-1.75l-.18-.32c-.92-1.57-5.08-8.78-9-16.62-2-3.92-3.85-8-5.25-11.58a50.53,50.53,0,0,1-1.65-4.9,14.58,14.58,0,0,1-.59-3.51,2.28,2.28,0,0,1,.19-1.09l0,0a.45.45,0,0,1,.14,0h.16a2.55,2.55,0,0,1,1,.24,9.18,9.18,0,0,1,2.66,2,42.68,42.68,0,0,1,5.46,7.51,142.6,142.6,0,0,1,7.2,14c.94,2.07,1.7,3.85,2.24,5.11l.61,1.47.21.52a1.5,1.5,0,0,0,2.82-.08h0a29.1,29.1,0,0,1,4.76-8.27,22.51,22.51,0,0,1,6.31-5.4,18.89,18.89,0,0,1,9.41-2.4c5,0,11.13,1.7,18.71,6.45l.13.07a5.16,5.16,0,0,1,.94.57l-.19.1a8.92,8.92,0,0,1-2.18.61,20.46,20.46,0,0,1-3.2.24,25,25,0,0,1-2.82-.16,7.5,7.5,0,0,0-1-.06,12.33,12.33,0,0,0-5.17,1.29,19.1,19.1,0,0,0-7,5.75A15.25,15.25,0,0,0,506,116a15.09,15.09,0,0,0,2.84,8.59,13.66,13.66,0,0,0,4.43,4.22,10.16,10.16,0,0,0,5.07,1.36,12.05,12.05,0,0,0,8.92-4.32,15.75,15.75,0,0,0,3.85-10.44,18.19,18.19,0,0,0-.91-5.55,6.56,6.56,0,0,1,0-.73,3.18,3.18,0,0,1,.51-2,1,1,0,0,1,.4-.32,1.53,1.53,0,0,1,.59-.12,4.45,4.45,0,0,1,2.25.83,13,13,0,0,1,3.08,2.93,11.05,11.05,0,0,1,1.8,4.9,47,47,0,0,1,.53,7.74c0,6.83-.79,14.86-.8,21.44,0,.91,0,1.8.06,2.65.18,4.4.49,7.68.81,10.09l.19.23a21.46,21.46,0,0,1,2.33,3.94c.34.72.67,1.49,1,2.3a1.49,1.49,0,0,0,.39-.47,1.52,1.52,0,0,0,.08-1.25h0c-.08-.23-1.33-3.95-1.79-15,0-.8,0-1.64,0-2.52,0-6.35.79-14.4.8-21.44a49.11,49.11,0,0,0-.57-8.25,13.8,13.8,0,0,0-2.41-6.25,15.84,15.84,0,0,0-3.81-3.6,7.34,7.34,0,0,0-3.87-1.3,4.55,4.55,0,0,0-1.85.39,4.24,4.24,0,0,0-2,2,6.86,6.86,0,0,0-.64,3,11.43,11.43,0,0,0,.07,1.15,1.94,1.94,0,0,0,.07.33,14.77,14.77,0,0,1,.82,4.8,12.73,12.73,0,0,1-3.1,8.45,9.06,9.06,0,0,1-6.67,3.31,7.21,7.21,0,0,1-3.59-1,10.54,10.54,0,0,1-3.44-3.31A12.09,12.09,0,0,1,509,116a11.44,11.44,0,0,1,1.24-5.08,15.74,15.74,0,0,1,5.17-5.88,11.34,11.34,0,0,1,6-2.22,4,4,0,0,1,.61,0,28.88,28.88,0,0,0,3.17.18,19,19,0,0,0,5.64-.74,6.44,6.44,0,0,0,2-1,3.25,3.25,0,0,0,.78-.86,2.49,2.49,0,0,0,.37-1.28,2.52,2.52,0,0,0-.28-1.13,3.79,3.79,0,0,0-1-1.24,8.77,8.77,0,0,0-1.43-.89c-7.9-5-14.62-6.89-20.28-6.89a21.84,21.84,0,0,0-11,2.86,27.5,27.5,0,0,0-9.52,9.54c-.53.86-1,1.66-1.34,2.39-1.32-3.07-3.49-7.91-6.05-12.78a77.44,77.44,0,0,0-6.9-11.14,21.88,21.88,0,0,0-3.7-3.87,9.72,9.72,0,0,0-2-1.2,5.53,5.53,0,0,0-2.16-.48,3.87,3.87,0,0,0-.48,0,3.41,3.41,0,0,0-1.4.46,3.25,3.25,0,0,0-1.32,1.67,5.67,5.67,0,0,0-.32,2,18.05,18.05,0,0,0,.78,4.61,77.92,77.92,0,0,0,4,10.31c1.94,4.28,4.21,8.74,6.26,12.61-.94-1-1.93-2-2.94-3-3-3-6.24-6.1-9.08-8.43a34.07,34.07,0,0,0-3.95-2.87,11.86,11.86,0,0,0-1.74-.88,4.77,4.77,0,0,0-1.75-.37,2.67,2.67,0,0,0-1.36.34,2.57,2.57,0,0,0-1,1.09,3.82,3.82,0,0,0-.36,1.69,11.24,11.24,0,0,0,1,3.94,59.09,59.09,0,0,0,4.7,8.7c3,4.83,6.74,10,9.65,13.89-.88-.51-1.8-1-2.76-1.55a88.34,88.34,0,0,0-8-4,34.61,34.61,0,0,0-3.7-1.35,11.79,11.79,0,0,0-3.22-.54,6.07,6.07,0,0,0-.85.06,3.28,3.28,0,0,0-1.55.61,2.18,2.18,0,0,0-.86,1.75,3.15,3.15,0,0,0,.3,1.25,8.82,8.82,0,0,0,1.38,2,53.3,53.3,0,0,0,4.49,4.27c5.77,5.06,15.3,12.68,26.36,23.13,5.61,5.3,9,9.75,11,13.37a24.2,24.2,0,0,1,1.86,4.29C493.81,162.86,494.62,162.06,495.7,161.11Z"/><path class="cls-5" d="M661.23,252.12a1.53,1.53,0,0,1-.13-1.22l4.74-14.6,2-33.62v-.06c-13.26,7.17-26.88,20.45-39.82,36.56-13.21,16.43-25.73,35.78-36.65,54.49a810.73,810.73,0,0,0-39,76.35l-.17.39a1.5,1.5,0,0,1-2.87-.65s0-.51.05-1.49.09-2.42.15-4.28c.12-3.72.27-9.09.43-15.72.32-13.25.64-31.51.64-51.55,0-36.09-1-78-5-106.54-1.3-9.52-2.93-17.56-4.91-23.36a26.75,26.75,0,0,0-3.64-7.51,7.25,7.25,0,0,0-2-1.86,28,28,0,0,0-14.24-4c-7.27,0-13.69,3-18.34,6.15a44,44,0,0,0-7.41,6.2l-.31,1.14c-.27,1-.67,2.42-1.18,4.3-1,3.75-2.45,9.22-4.18,16.09-3.47,13.75-8.09,33.12-12.71,55.56-9.25,44.88-18.48,102.11-18.48,151.32,0,20.29,1.57,39.22,5.33,55.32s9.7,29.36,18.33,38.39a42.08,42.08,0,0,0,21.07,12.22,144.57,144.57,0,0,0,33.76,4.11c36.92,0,65.4-15.3,84.85-30.88s29.81-31.44,30.38-32.32l0,0h0a1.49,1.49,0,0,1,1.36-.69l11.11-182.52Z"/><path d="M573,502.21a144.61,144.61,0,0,0,51.54-27.3c19.82-16.13,30-32.24,30.11-32.33a1.49,1.49,0,0,0-.46-2.07,1.44,1.44,0,0,0-.71-.22,1.49,1.49,0,0,0-1.36.69h0l0,0c-.57.88-10.93,16.73-30.38,32.32s-47.93,30.88-84.85,30.88a144.57,144.57,0,0,1-33.76-4.11A42.08,42.08,0,0,1,482,487.88c-8.63-9-14.58-22.28-18.33-38.39s-5.33-35-5.33-55.32c0-49.21,9.23-106.44,18.48-151.32,4.62-22.44,9.24-41.81,12.71-55.56,1.73-6.87,3.17-12.34,4.18-16.09.51-1.88.91-3.32,1.18-4.3l.31-1.14a44,44,0,0,1,7.41-6.2c4.65-3.13,11.07-6.15,18.34-6.15a28,28,0,0,1,14.24,4,7.25,7.25,0,0,1,2,1.86,26.75,26.75,0,0,1,3.64,7.51c2,5.8,3.61,13.84,4.91,23.36,3.92,28.58,5,70.45,5,106.54,0,20-.32,38.3-.64,51.55-.16,6.63-.31,12-.43,15.72-.06,1.86-.11,3.3-.15,4.28s-.05,1.49-.05,1.49a1.5,1.5,0,0,0,2.87.65l.17-.39a810.73,810.73,0,0,1,39-76.35c10.92-18.71,23.44-38.06,36.65-54.49,12.94-16.11,26.56-29.39,39.82-36.56l.81-.44a1.5,1.5,0,0,0-1.3-2.7l-.09,0c-14.6,7.64-29.14,22.07-42.87,39.4-20.58,26-39.29,58.54-52.88,84.62-8.71,16.7-15.3,30.73-18.92,38.67.38-12,1-36.95,1-65.49,0-29.38-.68-62.58-3.06-89.47-1.19-13.45-2.8-25.32-5-34.41a70,70,0,0,0-2.77-9.12c-.32-.81-.65-1.58-1-2.3a21.46,21.46,0,0,0-2.33-3.94l-.19-.23a10.06,10.06,0,0,0-2.65-2.39,30.92,30.92,0,0,0-15.75-4.45c-8.24,0-15.28,3.44-20.25,6.81a49.59,49.59,0,0,0-5,3.89c-1.08.95-1.89,1.75-2.38,2.27s-.59.63-.6.65a1.4,1.4,0,0,0-.32.57s-9.27,32.65-18.53,77.64S455.33,344.6,455.33,394.17c0,27.26,2.79,52.18,10,71.48,3.61,9.65,8.35,17.9,14.46,24.3A45.15,45.15,0,0,0,502.36,503a147.81,147.81,0,0,0,34.46,4.19,132.21,132.21,0,0,0,33-4.16Q571.42,502.65,573,502.21Z"/><path class="cls-5" d="M785.19,433.34c3.43-.8,7.16-1.48,11.12-2.06,4.93-12,9.45-23.27,13.42-33.44,8.68-22.17,14.86-39.22,17.49-47.73a47.53,47.53,0,0,0,1.35-5,3.13,3.13,0,0,0,0-.35,3,3,0,0,0-.14-.44c-.1-.27-.25-.62-.45-1-.4-.83-1-1.89-1.68-3.1-1.41-2.41-3.3-5.41-5.29-8.46-4-6.1-8.38-12.42-10.13-14.93l-.79-1.12a1.49,1.49,0,0,1-.2-1.31l.58-1.85c.38-1.18.91-2.89,1.57-5,1.32-4.19,3.13-9.91,5.06-16.07,3.87-12.31,8.27-26.34,10.37-33.2.59-1.95,1-3.33,1.15-3.87h0v-.18c0-.13,0-.31,0-.53,0-.95-.13-2.6-.37-4.69s-.58-4.66-1-7.53c-.85-5.75-2-12.75-3.22-19.84-2.43-14.18-5.14-28.75-6.23-34.52-.14-.76-.25-1.36-.34-1.8-10.5-4.6-22.2-7.9-32.14-7.89-.64,0-1.26,0-1.88,0l0,.31c0,1.08-.13,2.69-.22,4.76-.2,4.15-.48,10.17-.81,17.68-.67,15-1.56,36-2.45,59.71-1.78,47.5-3.56,106.2-3.56,150.94,0,9,.07,17.33.23,25A76.21,76.21,0,0,1,785.19,433.34Z"/><path d="M782,174.53a1.5,1.5,0,0,0-1.38,1.42V176c-.05,1-.92,18.95-2,45.6,0,1.17-.1,2.36-.15,3.56-2.09,50.39-4.93,129.1-4.93,185.66,0,9.4.08,18.19.25,26.14.94-.42,1.94-.81,3-1.18-.16-7.63-.23-16-.23-25,0-44.74,1.78-103.44,3.56-150.94.89-23.75,1.78-44.7,2.45-59.71.33-7.51.61-13.53.81-17.68.09-2.07.17-3.68.22-4.76l0-.31c.62,0,1.24,0,1.88,0,9.94,0,21.64,3.29,32.14,7.89.09.44.2,1,.34,1.8,1.09,5.77,3.8,20.34,6.23,34.52,1.22,7.09,2.37,14.09,3.22,19.84.42,2.87.77,5.43,1,7.53s.37,3.74.37,4.69c0,.22,0,.4,0,.53v.18h0c-.14.54-.56,1.92-1.15,3.87-2.1,6.86-6.5,20.89-10.37,33.2-1.93,6.16-3.74,11.88-5.06,16.07-.66,2.1-1.19,3.81-1.57,5l-.58,1.85a1.49,1.49,0,0,0,.2,1.31l.79,1.12c1.75,2.51,6.14,8.83,10.13,14.93,2,3,3.88,6,5.29,8.46.7,1.21,1.28,2.27,1.68,3.1.2.42.35.77.45,1a3,3,0,0,1,.14.44,3.13,3.13,0,0,1,0,.35,47.53,47.53,0,0,1-1.35,5c-2.63,8.51-8.81,25.56-17.49,47.73-4,10.17-8.49,21.43-13.42,33.44,1.13-.17,2.27-.33,3.43-.48,6.61-16.1,12.44-30.81,17.23-43.32,4.57-12,8.21-21.91,10.72-29.2,1.25-3.64,2.21-6.61,2.87-8.85.33-1.12.59-2.06.76-2.82.09-.38.16-.71.21-1a5.18,5.18,0,0,0,.08-.85c0-.1,0-.19,0-.3a5.57,5.57,0,0,0-.38-1.35,27.26,27.26,0,0,0-1.56-3.14c-2.38-4.29-6.64-10.76-10.31-16.2-2.87-4.24-5.37-7.83-6.34-9.21.94-3,4.75-15,8.68-27.56,2.26-7.21,4.57-14.57,6.39-20.42.91-2.93,1.69-5.47,2.29-7.44s1-3.34,1.19-4a3.7,3.7,0,0,0,.11-.72c0-.24,0-.49,0-.77a54.34,54.34,0,0,0-.5-6c-1.09-9.06-3.8-25-6.24-38.64-1.81-10.12-3.47-19-4.21-22.93-.26-1.39-.41-2.17-.41-2.17a1.49,1.49,0,0,0-.86-1.09l-.17-.07c-10.92-4.84-23.14-8.38-33.91-8.39-.64,0-1.28,0-1.91,0S782.47,174.49,782,174.53Z"/><path class="cls-5" d="M741.57,448.5c-6.33.94-12.32,2.52-16.9,5a18.92,18.92,0,0,0-7.06,6.08,101.08,101.08,0,0,0-8.29,15.17c-2.11,5-3.38,9.68-3.37,13.55a12,12,0,0,0,1.43,6.09,9.79,9.79,0,0,0,4.7,4,19.39,19.39,0,0,0,5.6,1.44c12.46,1.52,33.21,3.49,49.83,3.48H769c-.62-2.51-1.49-6.3-2.37-10.83a161.69,161.69,0,0,1-3.2-29.07,60.39,60.39,0,0,1,1.43-14c.18-.7.37-1.39.58-2.06-1.56,0-3.19-.07-4.88-.07A130.79,130.79,0,0,0,741.57,448.5Z"/><path d="M734.71,446.74a46.73,46.73,0,0,0-11.46,4.1,21.81,21.81,0,0,0-8.16,7.09,103.06,103.06,0,0,0-8.53,15.63c-2.2,5.19-3.61,10.21-3.61,14.72a16.66,16.66,0,0,0,.78,5.24,12.07,12.07,0,0,0,4.62,6.21,19.57,19.57,0,0,0,9,3.09c12.55,1.52,33.34,3.5,50.19,3.5h2.27c-.13-.48-.4-1.52-.76-3h-1.51c-16.62,0-37.37-2-49.83-3.48a19.39,19.39,0,0,1-5.6-1.44,9.79,9.79,0,0,1-4.7-4,12,12,0,0,1-1.43-6.09c0-3.87,1.26-8.59,3.37-13.55a101.08,101.08,0,0,1,8.29-15.17,18.92,18.92,0,0,1,7.06-6.08c4.58-2.46,10.57-4,16.9-5a130.79,130.79,0,0,1,19-1.26c1.69,0,3.32,0,4.88.07a26.79,26.79,0,0,1,1.11-3c-1.89-.06-3.9-.1-6-.1C752.44,444.24,743.05,444.8,734.71,446.74Z"/><path class="cls-5" d="M863.2,362.79a1.49,1.49,0,0,1,1.47,1c1.85,5.55,5.42,12.23,9.8,19.14s9.58,14.08,14.67,20.68c10.2,13.2,20,24.15,22.14,26.53l.44.48a1.5,1.5,0,0,1-1.22,2.51l-1.24-.09-3.54-.22c-3.07-.19-7.49-.45-12.88-.7-10.78-.51-25.45-1-41-1-11.71,0-23.92.28-35.35,1.07a203.19,203.19,0,0,0-30.61,4.06,53.4,53.4,0,0,0-13.63,4.79,19.44,19.44,0,0,0-4.44,9,57,57,0,0,0-1.35,13.32,154.93,154.93,0,0,0,2.85,26.93c1.31,7,2.68,12.52,3.22,14.59l2.24.42c2.06.39,5.09.94,8.94,1.6,7.69,1.31,18.65,3.07,31.72,4.83,26.14,3.52,60.72,7,94.43,7,22.59,0,44.8-1.58,63.77-5.77s34.68-11,44.34-21.25a38.78,38.78,0,0,0,10.83-25.47c.08-1.7.13-3.44.13-5.2,0-29.6-12.14-66.88-30.62-104A523.1,523.1,0,0,0,930,253.59c-16.72-19.53-33.59-35.63-48.76-46-8.5-5.83-16.45-9.84-23.48-11.7v.06Z"/><path d="M856.2,193.93a1.5,1.5,0,0,0,1.08,1.82h0l.43.12c7,1.86,15,5.87,23.48,11.7,15.17,10.39,32,26.49,48.76,46A523.1,523.1,0,0,1,998.3,357.1c18.48,37.14,30.63,74.42,30.62,104,0,1.76-.05,3.5-.13,5.2A38.78,38.78,0,0,1,1018,491.79C1008.3,502,992.6,508.85,973.62,513s-41.18,5.78-63.77,5.77c-33.71,0-68.29-3.51-94.43-7-13.07-1.76-24-3.52-31.72-4.83-3.85-.66-6.88-1.21-8.94-1.6l-2.24-.42c-.54-2.07-1.91-7.56-3.22-14.59a154.93,154.93,0,0,1-2.85-26.93,57,57,0,0,1,1.35-13.32,19.44,19.44,0,0,1,4.44-9,53.4,53.4,0,0,1,13.63-4.79,203.19,203.19,0,0,1,30.61-4.06c11.43-.79,23.64-1.07,35.35-1.07,15.56,0,30.23.5,41,1,5.39.25,9.81.51,12.88.7l3.54.22,1.24.09a1.5,1.5,0,0,0,1.22-2.51l-.44-.48c-2.15-2.38-11.94-13.33-22.14-26.53-5.09-6.6-10.29-13.76-14.67-20.68s-8-13.59-9.8-19.14a1.49,1.49,0,0,0-1.47-1,1.54,1.54,0,0,0-.42.07,1.5,1.5,0,0,0-.95,1.9c2.12,6.34,6.15,13.68,11,21.2,11.64,18,28,37,34.19,44-8.52-.54-30.75-1.78-55.2-1.78a459.89,459.89,0,0,0-46.78,2.05c-1.8.19-3.57.4-5.31.62-1.16.15-2.3.31-3.43.48-4,.58-7.69,1.26-11.12,2.06a76.21,76.21,0,0,0-8.5,2.46c-1,.37-2,.76-3,1.18a31.88,31.88,0,0,0-3.15,1.57,1.23,1.23,0,0,0-.31.24,18.22,18.22,0,0,0-3.68,5.55,26.79,26.79,0,0,0-1.11,3c-.21.67-.4,1.36-.58,2.06a60.39,60.39,0,0,0-1.43,14,161.69,161.69,0,0,0,3.2,29.07c.88,4.53,1.75,8.32,2.37,10.83.36,1.48.63,2.52.76,3l.08.31a1.49,1.49,0,0,0,1.15,1.07s1.67.33,4.7.89l3,.54c20.12,3.58,76.65,12.69,131.16,12.69,8.43,0,16.81-.23,25-.72l3-.18c20.15-1.38,39-4.48,54.58-10.15,11.28-4.13,20.81-9.63,27.7-16.91a41.75,41.75,0,0,0,11.64-27.38c.09-1.75.14-3.54.14-5.35,0-23.16-7.18-50.47-18.8-78.71-17.45-42.36-45-86.8-73.68-122.13-14.37-17.67-29-33-42.94-44.76s-27-19.71-38.39-22.65l-.08,0A1.51,1.51,0,0,0,856.2,193.93Z"/><path class="cls-5" d="M682.63,194.3l-18.47,56.88,27.21,46.55a1.5,1.5,0,0,1,0,1.59L666.4,336.83c.09.41.22,1,.38,1.8l1.45,6.68c1.23,5.69,3,13.66,5,22.79,4,18.26,9.25,41.15,13.82,59.66,3.06,12.34,5.84,22.76,7.8,28.47.27.8.53,1.5.77,2.1.27-1.15.57-2.66.9-4.47.86-4.8,1.87-11.75,3-20.19,2.22-16.89,4.83-39.79,7.38-63.78,5.11-48,10-100.32,11-117.62.15-2.3.22-4,.22-4.9,0-.2,0-.36,0-.47-.11-2.08-.18-5.79-.23-10.45s-.06-10.27-.06-16.11c0-15.63.12-32.9.16-38l-1.41,0a48.72,48.72,0,0,0-16.71,2.93A79.91,79.91,0,0,0,682.63,194.3Z"/><path d="M678.57,197.11,665.84,236.3l-4.74,14.6a1.53,1.53,0,0,0,.13,1.22l3.31,5.65,23.77,40.67L663.55,335.7a1.53,1.53,0,0,0-.22,1.14s6.67,31.29,13.89,62.6c3.62,15.65,7.37,31.3,10.49,43.07,1.57,5.88,3,10.79,4.15,14.27a41,41,0,0,0,1.59,4.15,8.38,8.38,0,0,0,.76,1.31l.14.16a3,3,0,0,0,.4.39,1.87,1.87,0,0,0,1.12.4h0a1.66,1.66,0,0,0,.94-.29,2.19,2.19,0,0,0,.53-.53l.17-.27a8.64,8.64,0,0,0,.63-1.66c.37-1.29.77-3.14,1.2-5.53,1.64-9,3.81-25.48,6.15-45.51,3.52-30,7.42-67.89,10.45-99.56,1.51-15.84,2.8-30.12,3.71-41.1.46-5.49.82-10.16,1.07-13.78s.39-6.2.39-7.59c0-.24,0-.45,0-.63-.11-2-.18-5.68-.23-10.32,0-3.74,0-8.11-.06-12.71v-3.37c0-9.27,0-19.13.09-26.66,0-3.77,0-7,.05-9.2s0-3.55,0-3.55h0a1.5,1.5,0,0,0-1.42-1.51c-.53,0-1.05,0-1.58,0l-1.42,0a51.35,51.35,0,0,0-17.72,3.11,83.11,83.11,0,0,0-18.33,9.64,1.57,1.57,0,0,0-.59.78l-.14.43Zm38-14.77,1.41,0c0,5.07-.16,22.34-.16,38,0,5.84,0,11.45.06,16.11s.12,8.37.23,10.45c0,.11,0,.27,0,.47,0,.91-.07,2.6-.22,4.9-1.06,17.3-5.92,69.65-11,117.62-2.55,24-5.16,46.89-7.38,63.78-1.12,8.44-2.13,15.39-3,20.19-.33,1.81-.63,3.32-.9,4.47-.24-.6-.5-1.3-.77-2.1-2-5.71-4.74-16.13-7.8-28.47-4.57-18.51-9.77-41.4-13.82-59.66-2-9.13-3.76-17.1-5-22.79l-1.45-6.68c-.16-.79-.29-1.39-.38-1.8l24.93-37.51a1.5,1.5,0,0,0,0-1.59l-27.21-46.55,18.47-56.88a79.91,79.91,0,0,1,17.24-9A48.72,48.72,0,0,1,716.58,182.34Z"/><path class="cls-5" d="M1320.26,822.69a71.35,71.35,0,1,0,20.91,50.46A71.19,71.19,0,0,0,1320.26,822.69Zm-9.33,62.62a1.5,1.5,0,0,1-.44,1.06,1.48,1.48,0,0,1-1.06.44h-26v26a1.52,1.52,0,0,1-.44,1.06,1.5,1.5,0,0,1-1.06.44H1257.6a1.5,1.5,0,0,1-1.5-1.5v-26h-26a1.52,1.52,0,0,1-1.06-.44,1.5,1.5,0,0,1-.44-1.06V861a1.5,1.5,0,0,1,1.5-1.5h26v-26a1.5,1.5,0,0,1,1.5-1.5h24.33a1.5,1.5,0,0,1,1.06.44,1.52,1.52,0,0,1,.44,1.06v26h26a1.48,1.48,0,0,1,1.06.44,1.52,1.52,0,0,1,.44,1.06Z"/><path d="M1269.77,798.79a74.31,74.31,0,1,0,61.63,32.7c-.37-.55-.77-1.09-1.16-1.64A74.3,74.3,0,0,0,1269.77,798.79Zm71.4,74.36a71.37,71.37,0,1,1-20.91-50.46A71.15,71.15,0,0,1,1341.17,873.15Z"/><path class="cls-6" d="M1281.93,862.49a1.52,1.52,0,0,1-1.06-.44,1.48,1.48,0,0,1-.44-1.06V835H1259.1v26a1.5,1.5,0,0,1-1.5,1.5h-26v21.32h26a1.5,1.5,0,0,1,1.06.44,1.52,1.52,0,0,1,.44,1.06v26h21.33v-26a1.5,1.5,0,0,1,1.5-1.5h26V862.49Z"/><path d="M1309.43,859.49h-26v-26a1.52,1.52,0,0,0-.44-1.06,1.5,1.5,0,0,0-1.06-.44H1257.6a1.5,1.5,0,0,0-1.5,1.5v26h-26a1.5,1.5,0,0,0-1.5,1.5v24.32a1.5,1.5,0,0,0,.44,1.06,1.52,1.52,0,0,0,1.06.44h26v26a1.5,1.5,0,0,0,1.5,1.5h24.33a1.5,1.5,0,0,0,1.06-.44,1.52,1.52,0,0,0,.44-1.06v-26h26a1.48,1.48,0,0,0,1.06-.44,1.5,1.5,0,0,0,.44-1.06V861a1.52,1.52,0,0,0-.44-1.06A1.48,1.48,0,0,0,1309.43,859.49Zm-27.5,24.32a1.5,1.5,0,0,0-1.5,1.5v26H1259.1v-26a1.52,1.52,0,0,0-.44-1.06,1.5,1.5,0,0,0-1.06-.44h-26V862.49h26a1.5,1.5,0,0,0,1.5-1.5V835h21.33v26a1.48,1.48,0,0,0,.44,1.06,1.52,1.52,0,0,0,1.06.44h26v21.32Z"/><path class="cls-5" d="M1153.68,322a46.79,46.79,0,1,0-13.72-33.1A46.68,46.68,0,0,0,1153.68,322Zm5.31-41.16a1.5,1.5,0,0,1,1.5-1.5h16.74V262.65a1.5,1.5,0,0,1,.44-1.06,1.48,1.48,0,0,1,1.06-.44h16.13a1.52,1.52,0,0,1,1.06.44,1.5,1.5,0,0,1,.44,1.06v16.72h16.73a1.5,1.5,0,0,1,1.5,1.5V297a1.5,1.5,0,0,1-.44,1.06,1.52,1.52,0,0,1-1.06.44h-16.73v16.73a1.5,1.5,0,0,1-1.5,1.5h-16.13a1.5,1.5,0,0,1-1.06-.44,1.52,1.52,0,0,1-.44-1.06V298.49h-16.74a1.52,1.52,0,0,1-1.06-.44A1.5,1.5,0,0,1,1159,297Z"/><path d="M1186.79,338.74A49.81,49.81,0,1,0,1137,288.93,49.82,49.82,0,0,0,1186.79,338.74Zm0-96.62a46.83,46.83,0,1,1-33.11,13.71A46.75,46.75,0,0,1,1186.79,242.12Z"/><path class="cls-6" d="M1179.79,295.93a1.52,1.52,0,0,1,.44,1.06v16.73h13.13V297a1.55,1.55,0,0,1,.43-1.06,1.52,1.52,0,0,1,1.07-.44h16.73V282.37h-16.73a1.49,1.49,0,0,1-1.5-1.5V264.15h-13.13v16.72a1.5,1.5,0,0,1-.44,1.06,1.52,1.52,0,0,1-1.06.44H1162v13.12h16.74A1.52,1.52,0,0,1,1179.79,295.93Z"/><path d="M1160.49,298.49h16.74v16.73a1.52,1.52,0,0,0,.44,1.06,1.5,1.5,0,0,0,1.06.44h16.13a1.5,1.5,0,0,0,1.5-1.5V298.49h16.73a1.52,1.52,0,0,0,1.06-.44,1.5,1.5,0,0,0,.44-1.06V280.87a1.5,1.5,0,0,0-1.5-1.5h-16.73V262.65a1.5,1.5,0,0,0-.44-1.06,1.52,1.52,0,0,0-1.06-.44h-16.13a1.48,1.48,0,0,0-1.06.44,1.5,1.5,0,0,0-.44,1.06v16.72h-16.74a1.5,1.5,0,0,0-1.5,1.5V297a1.5,1.5,0,0,0,.44,1.06A1.52,1.52,0,0,0,1160.49,298.49Zm1.5-16.12h16.74a1.52,1.52,0,0,0,1.06-.44,1.5,1.5,0,0,0,.44-1.06V264.15h13.13v16.72a1.49,1.49,0,0,0,1.5,1.5h16.73v13.12h-16.73a1.52,1.52,0,0,0-1.07.44,1.55,1.55,0,0,0-.43,1.06v16.73h-13.13V297a1.5,1.5,0,0,0-1.5-1.5H1162Z"/><ellipse class="cls-5" cx="1088.61" cy="151.91" rx="26.49" ry="26.54" transform="translate(-0.63 4.58) rotate(-0.24)"/><path d="M1051.47,153.41A35.63,35.63,0,0,1,1087.09,189a1.5,1.5,0,0,0,1.5,1.5h0a1.5,1.5,0,0,0,1.06-.44,1.52,1.52,0,0,0,.44-1.06,35.63,35.63,0,0,1,35.62-35.63,1.48,1.48,0,0,0,1.06-.44,1.5,1.5,0,0,0,.44-1.06,1.52,1.52,0,0,0-.44-1.06,1.48,1.48,0,0,0-1.06-.44,35.61,35.61,0,0,1-35.62-35.62,1.5,1.5,0,0,0-1.5-1.5h0a1.52,1.52,0,0,0-1.06.44,1.5,1.5,0,0,0-.44,1.06,35.61,35.61,0,0,1-35.62,35.62,1.5,1.5,0,0,0-1.06.44,1.52,1.52,0,0,0-.44,1.06,1.5,1.5,0,0,0,1.5,1.5Zm37.14-28a38.69,38.69,0,0,0,26.49,26.53,38.72,38.72,0,0,0-26.49,26.54,38.7,38.7,0,0,0-26.49-26.54A38.67,38.67,0,0,0,1088.61,125.38Z"/><path class="cls-5" d="M1125.75,569.75a38.67,38.67,0,0,1-26.49,26.54,38.67,38.67,0,0,1,26.49,26.54,38.68,38.68,0,0,1,26.5-26.54A38.68,38.68,0,0,1,1125.75,569.75Z"/><path d="M1125.77,557.67h0a1.49,1.49,0,0,0-1.5,1.5,35.63,35.63,0,0,1-35.63,35.62,1.5,1.5,0,0,0-1.5,1.5,1.5,1.5,0,0,0,.44,1.06,1.52,1.52,0,0,0,1.06.44,35.64,35.64,0,0,1,35.63,35.63,1.55,1.55,0,0,0,.43,1.06,1.51,1.51,0,0,0,1.07.43h0a1.49,1.49,0,0,0,1.06-.43,1.52,1.52,0,0,0,.44-1.06,35.64,35.64,0,0,1,35.63-35.63,1.52,1.52,0,0,0,1.06-.44,1.5,1.5,0,0,0,.44-1.06,1.5,1.5,0,0,0-1.5-1.5,35.63,35.63,0,0,1-35.63-35.62,1.5,1.5,0,0,0-1.5-1.5Zm0,65.16a38.67,38.67,0,0,0-26.49-26.54,38.67,38.67,0,0,0,26.49-26.54,38.68,38.68,0,0,0,26.5,26.54A38.68,38.68,0,0,0,1125.75,622.83Z"/><ellipse class="cls-5" cx="111.29" cy="494.74" rx="26.49" ry="26.54"/><path d="M74.15,496.24a35.61,35.61,0,0,1,35.62,35.62,1.48,1.48,0,0,0,.44,1.06,1.52,1.52,0,0,0,1.06.44h0a1.5,1.5,0,0,0,1.06-.44,1.48,1.48,0,0,0,.44-1.06,35.63,35.63,0,0,1,35.63-35.62,1.52,1.52,0,0,0,1.06-.44,1.5,1.5,0,0,0,.44-1.06,1.5,1.5,0,0,0-1.5-1.5,35.63,35.63,0,0,1-35.63-35.62,1.48,1.48,0,0,0-.44-1.06,1.5,1.5,0,0,0-1.06-.44h0a1.52,1.52,0,0,0-1.06.44,1.48,1.48,0,0,0-.44,1.06,35.61,35.61,0,0,1-35.62,35.62,1.5,1.5,0,0,0-1.06.44,1.52,1.52,0,0,0-.44,1.06,1.5,1.5,0,0,0,1.5,1.5Zm37.14-28a38.68,38.68,0,0,0,26.49,26.54,38.68,38.68,0,0,0-26.49,26.54A38.67,38.67,0,0,0,84.8,494.74,38.67,38.67,0,0,0,111.29,468.2Z"/><path class="cls-3" d="M1299.18,465.25A22.24,22.24,0,1,0,1276.94,443,22.24,22.24,0,0,0,1299.18,465.25Zm0-37A14.75,14.75,0,1,1,1284.43,443,14.75,14.75,0,0,1,1299.18,428.27Z"/><path class="cls-3" d="M229.07,430.87a22.23,22.23,0,1,0-22.25-22.23A22.24,22.24,0,0,0,229.07,430.87Zm0-37a14.75,14.75,0,1,1-14.76,14.74A14.75,14.75,0,0,1,229.07,393.9Z"/><path class="cls-5" d="M1296,548v45.71a90.9,90.9,0,0,0,29,22,113.61,113.61,0,0,0,34.52,9.89A113.69,113.69,0,0,0,1394,615.7a91,91,0,0,0,29-22V548l-63.47-12.66Z"/><path d="M1293,549.43v44.84a1.52,1.52,0,0,0,.37,1,94.08,94.08,0,0,0,30.27,23.14,116.49,116.49,0,0,0,35.63,10.19,1.34,1.34,0,0,0,.4,0,116.43,116.43,0,0,0,35.62-10.19,94,94,0,0,0,30.28-23.14,1.52,1.52,0,0,0,.37-1V546.75a1.5,1.5,0,0,0-.14-.59,1.48,1.48,0,0,0-1.07-.88l-65-13a1.42,1.42,0,0,0-.58,0l-65,13a1.51,1.51,0,0,0-1.08.88,1.69,1.69,0,0,0-.13.59Zm66.47-14.11L1423,548v45.71a91,91,0,0,1-29,22,113.69,113.69,0,0,1-34.52,9.89A113.61,113.61,0,0,1,1325,615.7a90.9,90.9,0,0,1-29-22V548Z"/><path class="cls-5" d="M1110.48,1032.27a67.7,67.7,0,0,0,8.82,13.59,94.45,94.45,0,0,0,7.28,7.3,32.56,32.56,0,0,1,4.12,4.65,28.34,28.34,0,0,1,4.14,9.44,50.87,50.87,0,0,1,1.64,13,54.86,54.86,0,0,1-2.23,15.54l47.69.53-.91-34.92a1.54,1.54,0,0,1,.36-1h0l.06-.08.27-.34c.24-.3.59-.76,1-1.37a60.22,60.22,0,0,0,3.47-5.48,85.73,85.73,0,0,0,8.38-21.33c5.8-23.25,10.44-55.44,10.43-75.27a78.68,78.68,0,0,0-.45-9.3,22.47,22.47,0,0,0-1.37-6,3.8,3.8,0,0,0-1.09-1.58,2.42,2.42,0,0,0-1.36-.5,2,2,0,0,0-1,.27,4.76,4.76,0,0,0-1.2,1,17,17,0,0,0-2.64,4.17,77.42,77.42,0,0,0-4.58,13.85,240.8,240.8,0,0,0-4.47,23.95c0,.32-.07.49-.07.49a1.5,1.5,0,0,1-3-.25s0-.56.06-1.59.08-2.52.13-4.36c.1-3.69.2-8.8.2-14.46s-.1-12-.4-18a135.75,135.75,0,0,0-1.57-16,27.54,27.54,0,0,0-1.89-6.74,3.92,3.92,0,0,0-1.08-1.47.57.57,0,0,0-.26-.1h0a1,1,0,0,0-.62.27,5,5,0,0,0-1.11,1.25,24.86,24.86,0,0,0-2.53,5.46,130.31,130.31,0,0,0-4.4,17.82c-2.5,13.33-4.07,27.5-4.41,30.64l-.06.63a1.5,1.5,0,0,1-3-.11s0-.32,0-.92-.05-1.47-.1-2.58c-.09-2.2-.24-5.31-.49-8.93a228.85,228.85,0,0,0-2.9-24.6,58.94,58.94,0,0,0-3.88-13.55,10.26,10.26,0,0,0-2.78-3.87,2.64,2.64,0,0,0-1.32-.55l-.24,0a2.07,2.07,0,0,0-1.22.42,5.12,5.12,0,0,0-1.28,1.54,21.85,21.85,0,0,0-2.13,6.52,111.39,111.39,0,0,0-1.42,19.87c0,9.53.64,18.19.79,20.19,0,.29,0,.43,0,.43a1.5,1.5,0,0,1-2.94.52s-.08-.28-.22-.8l-.61-2.22c-.53-1.9-1.3-4.57-2.23-7.68-1.87-6.22-4.42-14.16-7.1-21a74.94,74.94,0,0,0-5.36-11.41,11.1,11.1,0,0,0-2.56-3.09,1.12,1.12,0,0,0-.6-.26h-.08a4.32,4.32,0,0,0-1.78,1.29,7.7,7.7,0,0,0-1.31,2.43,25.13,25.13,0,0,0-1.05,8.14c0,5.93,1,13.43,2.36,21.19s2.92,15.82,4,22.93a88.27,88.27,0,0,1,1.2,12.69,24.26,24.26,0,0,1-.47,5.14,8.22,8.22,0,0,1-1.8,3.83,4.91,4.91,0,0,1-2.32,1.45h0a2.6,2.6,0,0,1-.72.1,4.76,4.76,0,0,1-2.27-.73,17,17,0,0,1-2.24-1.6c-1.07-.89-2.25-2-3.51-3.26-1,2-2.24,4.25-3.62,6.65-3.52,6.16-5.92,10.35-7.84,13.79l.87,1.58C1106,1023.47,1107.73,1026.87,1110.48,1032.27Z"/><path class="cls-5" d="M1090.07,975.39a1.08,1.08,0,0,0-.44.09h0a7.44,7.44,0,0,0-3,2.29,5.9,5.9,0,0,0-1,3.59,23.14,23.14,0,0,0,2,8.06c.35.89.75,1.82,1.2,2.82,3.2-3.37,6.77-7.29,10.22-10.75a39,39,0,0,0-6.32-5.12A5.85,5.85,0,0,0,1090.07,975.39Z"/><path d="M1088.77,992.24c-.45-1-.85-1.93-1.2-2.82a23.14,23.14,0,0,1-2-8.06,5.9,5.9,0,0,1,1-3.59,7.44,7.44,0,0,1,3-2.29h0a1.08,1.08,0,0,1,.44-.09,5.85,5.85,0,0,1,2.6,1,39,39,0,0,1,6.32,5.12l1.13-1.13,1-1-.55-.53a44.71,44.71,0,0,0-5.48-4.51,15.18,15.18,0,0,0-2.52-1.39,6.78,6.78,0,0,0-2.5-.57,4.16,4.16,0,0,0-1.72.37,10.39,10.39,0,0,0-4.18,3.27,8.87,8.87,0,0,0-1.57,5.33,25.62,25.62,0,0,0,2.18,9.17c.5,1.25,1.09,2.59,1.76,4,.35-.35.69-.7,1-1.08S1088.38,992.66,1088.77,992.24Z"/><polygon points="1088.35 972.76 1088.35 972.76 1088.35 972.76 1088.35 972.76"/><polygon points="1123.17 920.99 1123.17 920.99 1123.17 920.99 1123.17 920.99"/><polygon points="1179.3 916.85 1179.3 916.85 1179.3 916.85 1179.3 916.85"/><path d="M1114.31,997.39c1.26,1.25,2.44,2.37,3.51,3.26a17,17,0,0,0,2.24,1.6,4.76,4.76,0,0,0,2.27.73,2.6,2.6,0,0,0,.72-.1h0a4.91,4.91,0,0,0,2.32-1.45,8.22,8.22,0,0,0,1.8-3.83,24.26,24.26,0,0,0,.47-5.14,88.27,88.27,0,0,0-1.2-12.69c-1.06-7.11-2.66-15.16-4-22.93s-2.37-15.26-2.36-21.19a25.13,25.13,0,0,1,1.05-8.14,7.7,7.7,0,0,1,1.31-2.43,4.32,4.32,0,0,1,1.78-1.29h.08a1.12,1.12,0,0,1,.6.26,11.1,11.1,0,0,1,2.56,3.09,74.94,74.94,0,0,1,5.36,11.41c2.68,6.87,5.23,14.81,7.1,21,.93,3.11,1.7,5.78,2.23,7.68l.61,2.22c.14.52.21.8.22.8a1.5,1.5,0,0,0,2.94-.52s0-.14,0-.43c-.15-2-.79-10.66-.79-20.19a111.39,111.39,0,0,1,1.42-19.87,21.85,21.85,0,0,1,2.13-6.52,5.12,5.12,0,0,1,1.28-1.54,2.07,2.07,0,0,1,1.22-.42l.24,0a2.64,2.64,0,0,1,1.32.55,10.26,10.26,0,0,1,2.78,3.87,58.94,58.94,0,0,1,3.88,13.55,228.85,228.85,0,0,1,2.9,24.6c.25,3.62.4,6.73.49,8.93,0,1.11.08,2,.1,2.58s0,.92,0,.92a1.5,1.5,0,0,0,3,.11l.06-.63c.34-3.14,1.91-17.31,4.41-30.64a130.31,130.31,0,0,1,4.4-17.82,24.86,24.86,0,0,1,2.53-5.46,5,5,0,0,1,1.11-1.25,1,1,0,0,1,.62-.27h0a.57.57,0,0,1,.26.1,3.92,3.92,0,0,1,1.08,1.47,27.54,27.54,0,0,1,1.89,6.74,135.75,135.75,0,0,1,1.57,16c.3,6,.4,12.25.4,18s-.1,10.77-.2,14.46c0,1.84-.1,3.33-.13,4.36s-.06,1.59-.06,1.59a1.5,1.5,0,0,0,3,.25s0-.17.07-.49a240.8,240.8,0,0,1,4.47-23.95,77.42,77.42,0,0,1,4.58-13.85,17,17,0,0,1,2.64-4.17,4.76,4.76,0,0,1,1.2-1,2,2,0,0,1,1-.27,2.42,2.42,0,0,1,1.36.5,3.8,3.8,0,0,1,1.09,1.58,22.47,22.47,0,0,1,1.37,6,78.68,78.68,0,0,1,.45,9.3c0,19.83-4.63,52-10.43,75.27a85.73,85.73,0,0,1-8.38,21.33,60.22,60.22,0,0,1-3.47,5.48c-.43.61-.78,1.07-1,1.37l-.27.34-.06.08h0a1.54,1.54,0,0,0-.36,1l.91,34.92-47.69-.53a54.86,54.86,0,0,0,2.23-15.54,50.87,50.87,0,0,0-1.64-13,28.34,28.34,0,0,0-4.14-9.44,32.56,32.56,0,0,0-4.12-4.65,94.45,94.45,0,0,1-7.28-7.3,67.7,67.7,0,0,1-8.82-13.59c-2.75-5.4-4.52-8.8-6.76-12.86l-.87-1.58c-.61,1.07-1.16,2.07-1.69,3l0,.06c2.2,4,3.94,7.35,6.68,12.71a73,73,0,0,0,8.26,13c3.84,4.73,7.2,7.3,9.79,10a21.79,21.79,0,0,1,3.43,4.51,27.8,27.8,0,0,1,2.65,6.82,48.62,48.62,0,0,1,1,5.16,50,50,0,0,1,.5,7,52.3,52.3,0,0,1-1.37,11.89c-.34,1.46-.68,2.62-.93,3.4-.12.39-.23.69-.3.89a2.32,2.32,0,0,1-.08.22l0,.05h0a1.31,1.31,0,0,0-.09.34,1.51,1.51,0,0,0,.24,1,1.47,1.47,0,0,0,1.22.66l51.31.58a1.5,1.5,0,0,0,1.52-1.54l0-.75-.91-35.18c1.74-2.2,9.23-12.38,13.47-29.37,5.86-23.52,10.52-55.75,10.52-76a70.56,70.56,0,0,0-.86-12.27A20.29,20.29,0,0,0,1206,940a6.53,6.53,0,0,0-2.14-2.85,5.41,5.41,0,0,0-3.06-1,5,5,0,0,0-2.51.71,10.89,10.89,0,0,0-3.6,3.84A50.07,50.07,0,0,0,1190,952c-1,3.5-2,7.26-2.75,10.9,0-.27,0-.53,0-.8a284.82,284.82,0,0,0-1.23-28.89,58,58,0,0,0-2.07-11,12.75,12.75,0,0,0-1.71-3.59,5.26,5.26,0,0,0-1.26-1.23,3.48,3.48,0,0,0-1.7-.6H1179a4.06,4.06,0,0,0-2.56,1,8.73,8.73,0,0,0-1.76,2,28,28,0,0,0-2.69,5.78,113.11,113.11,0,0,0-3.83,14.58c-1.3,6.3-2.38,13-3.22,18.91-.29-3.55-.67-7.41-1.16-11.29a112,112,0,0,0-3.93-19.62,26.52,26.52,0,0,0-3.21-7,9.67,9.67,0,0,0-2.16-2.29,5.73,5.73,0,0,0-2.78-1.13,5.25,5.25,0,0,0-.56,0,5.07,5.07,0,0,0-3,1,7.73,7.73,0,0,0-1.88,2.09,18.91,18.91,0,0,0-2.13,5.29,63.41,63.41,0,0,0-1.63,10.77c-.31,4-.42,8.16-.42,12.2,0,2.66,0,5.26.12,7.66-1.06-3.46-2.29-7.33-3.62-11.2A144.3,144.3,0,0,0,1132,929a31.63,31.63,0,0,0-3.47-5.67,9.18,9.18,0,0,0-1.86-1.79,4.05,4.05,0,0,0-2.31-.8,3.3,3.3,0,0,0-1.16.21,7.4,7.4,0,0,0-3,2.16,12.44,12.44,0,0,0-2.41,5.37,33.76,33.76,0,0,0-.65,7.13c0,8.35,1.91,19.1,3.79,29.54.95,5.22,1.89,10.35,2.59,15a87.79,87.79,0,0,1,1.16,12.25,17.34,17.34,0,0,1-.7,5.55,4.07,4.07,0,0,1-.78,1.4,2,2,0,0,1-.88.56,2.5,2.5,0,0,1-.66-.28,16.07,16.07,0,0,1-2.66-2c-1-.87-2.08-1.93-3.26-3.13C1115.28,995.46,1114.82,996.41,1114.31,997.39Z"/><path class="cls-5" d="M1007.64,1031.72c4.57,18.32,13.05,28.42,13.22,28.61h0a1.54,1.54,0,0,1,.36,1l-.9,34.92,47.69-.53a54.86,54.86,0,0,1-2.23-15.54,51.29,51.29,0,0,1,1.63-13,30.47,30.47,0,0,1,2.95-7.54,24.83,24.83,0,0,1,3.87-5.11c2.84-2.95,6-5.34,9.62-9.82a69.51,69.51,0,0,0,7.92-12.51c5.52-10.81,7.07-13.57,16.32-29.72a105.65,105.65,0,0,0,6.59-13.13,22.69,22.69,0,0,0,2-8.06,5.9,5.9,0,0,0-1-3.59,7.51,7.51,0,0,0-3-2.29,1.12,1.12,0,0,0-.44-.09,3.81,3.81,0,0,0-1.38.35,12.16,12.16,0,0,0-2,1.16,42.54,42.54,0,0,0-5.2,4.31c-3.77,3.55-8,8.16-11.75,12.19-2.54,2.69-4.9,5.12-6.92,6.86a15.24,15.24,0,0,1-3.21,2.26,4.1,4.1,0,0,1-1.76.46,2.66,2.66,0,0,1-.72-.1h0a4.94,4.94,0,0,1-2.33-1.45,7,7,0,0,1-1.38-2.4,19.72,19.72,0,0,1-.88-6.57,89.58,89.58,0,0,1,1.19-12.69c.71-4.74,1.66-9.9,2.6-15.11,1.89-10.42,3.75-21.1,3.75-29a30.6,30.6,0,0,0-.59-6.48,9.51,9.51,0,0,0-1.77-4.09,4.39,4.39,0,0,0-1.78-1.29h-.08a1,1,0,0,0-.55.22,6.06,6.06,0,0,0-1.13,1.06,25.49,25.49,0,0,0-2.88,4.53,123.06,123.06,0,0,0-6.12,14.76c-3.92,11-7.16,22.79-7.86,25.39l-.14.53a1.5,1.5,0,0,1-2.94-.52l0-.43c0-.29.06-.71.1-1.25.07-1.08.18-2.64.28-4.54.21-3.79.42-9,.42-14.4,0-4-.11-8.12-.41-12a61.64,61.64,0,0,0-1.54-10.23,16.07,16.07,0,0,0-1.77-4.45,4.58,4.58,0,0,0-1.12-1.28,2,2,0,0,0-1.21-.42l-.25,0a2.61,2.61,0,0,0-1.23.49,6.11,6.11,0,0,0-1.38,1.4,20.83,20.83,0,0,0-2.68,5.48,95.86,95.86,0,0,0-3.79,17.42c-1.81,13-2.3,26.59-2.39,29.6,0,.4,0,.61,0,.61a1.5,1.5,0,0,1-3,.11l-.09-.84c-.06-.55-.15-1.36-.26-2.38-.24-2-.58-4.92-1-8.3-.89-6.78-2.2-15.57-3.85-23.6a111.07,111.07,0,0,0-3.72-14.18,24.82,24.82,0,0,0-2.37-5.13,6.08,6.08,0,0,0-1.13-1.33,1.12,1.12,0,0,0-.68-.31h0a.6.6,0,0,0-.27.1,2.36,2.36,0,0,0-.51.53,10.09,10.09,0,0,0-1.28,2.74,54.29,54.29,0,0,0-1.93,10.35,276.8,276.8,0,0,0-1.21,28.56c0,8.5.22,15.74.33,18.82,0,1,.06,1.59.06,1.59a1.5,1.5,0,0,1-3,.25s0-.25-.1-.74-.16-1.2-.29-2.09c-.26-1.8-.65-4.32-1.17-7.25a181.43,181.43,0,0,0-4.46-19.82,46.9,46.9,0,0,0-4.33-10.67,8.17,8.17,0,0,0-2.53-2.82,2.1,2.1,0,0,0-1-.31,2.4,2.4,0,0,0-1.35.5,3.71,3.71,0,0,0-1.09,1.58,16.31,16.31,0,0,0-1,3.57,67.74,67.74,0,0,0-.82,11.72,277.65,277.65,0,0,0,3,36.35A393.25,393.25,0,0,0,1007.64,1031.72Z"/><polygon points="1079.09 920.99 1079.09 920.99 1079.09 920.99 1079.09 920.99"/><polygon points="1022.96 916.85 1022.96 916.85 1022.96 916.85 1022.96 916.85"/><path d="M1018.21,1061.82l-.91,35.18,0,.75a1.49,1.49,0,0,0,.43,1.09,1.51,1.51,0,0,0,1.08.45l51.31-.58a1.5,1.5,0,0,0,1.47-1.71,1.89,1.89,0,0,0-.09-.34h0a49.4,49.4,0,0,1-2.69-16.45,48.52,48.52,0,0,1,1.53-12.19,25.4,25.4,0,0,1,3.7-8.47,29.07,29.07,0,0,1,3.75-4.22,94.51,94.51,0,0,0,7.47-7.51c.85-1,1.72-2.1,2.62-3.31a78.44,78.44,0,0,0,6.6-10.87c2.73-5.37,4.48-8.71,6.68-12.71l0-.06c.53-1,1.08-2,1.69-3,1.92-3.44,4.32-7.63,7.84-13.79,1.38-2.4,2.58-4.61,3.62-6.65.51-1,1-1.93,1.4-2.84.68-1.43,1.27-2.77,1.76-4a25.62,25.62,0,0,0,2.18-9.17,8.86,8.86,0,0,0-1.56-5.33,10.53,10.53,0,0,0-4.18-3.27,4.16,4.16,0,0,0-1.72-.37,8.46,8.46,0,0,0-4.13,1.4,41.83,41.83,0,0,0-6.94,5.6l-1,1-1.13,1.13c-3.45,3.46-7,7.38-10.22,10.75-.39.42-.79.83-1.18,1.23s-.7.73-1,1.08c-1.49,1.52-2.87,2.83-4,3.79a14.41,14.41,0,0,1-1.81,1.31,3.39,3.39,0,0,1-.58.27l-.16.05h0a1.92,1.92,0,0,1-.87-.56,5.44,5.44,0,0,1-1.09-2.47,20.93,20.93,0,0,1-.39-4.48,86.28,86.28,0,0,1,1.16-12.25c1-7,2.64-15,4-22.86s2.41-15.44,2.41-21.7a28.11,28.11,0,0,0-1.22-9.14,10.72,10.72,0,0,0-1.85-3.36,7.33,7.33,0,0,0-3-2.16,3.25,3.25,0,0,0-1.15-.21,4.08,4.08,0,0,0-2.32.8,13.5,13.5,0,0,0-3.39,4,77.25,77.25,0,0,0-5.61,11.91c-2.46,6.3-4.78,13.42-6.59,19.34.07-2.4.12-5,.12-7.66a114.91,114.91,0,0,0-1.48-20.45,24.28,24.28,0,0,0-2.49-7.45,7.93,7.93,0,0,0-2.09-2.45,5.11,5.11,0,0,0-3-1l-.57,0a5.7,5.7,0,0,0-2.77,1.13,13,13,0,0,0-3.71,5,61.39,61.39,0,0,0-4.12,14.3c-1.27,6.81-2.1,14.35-2.64,20.88-.55-3.86-1.2-8.08-2-12.31a152.62,152.62,0,0,0-4.66-19.95,31.44,31.44,0,0,0-3-6.84,8.81,8.81,0,0,0-1.87-2.19,4,4,0,0,0-2.55-1H1023a3.52,3.52,0,0,0-1.71.6,6.55,6.55,0,0,0-2.09,2.63,29.39,29.39,0,0,0-2.16,7.54,139,139,0,0,0-1.61,16.38c-.3,6-.4,12.37-.4,18.12v.79c-.22-1-.46-2.11-.71-3.16a90.85,90.85,0,0,0-4.93-15.75,22.07,22.07,0,0,0-3.29-5.47,8.19,8.19,0,0,0-2.06-1.74,5,5,0,0,0-2.52-.71,5.46,5.46,0,0,0-3.06,1,6.59,6.59,0,0,0-2.13,2.85,24.89,24.89,0,0,0-1.6,6.83,83.47,83.47,0,0,0-.48,9.66c0,14,2.24,33.74,5.55,52.37,1.48,8.3,3.17,16.37,5,23.63C1009,1049.44,1016.46,1059.62,1018.21,1061.82Zm-21-105.37a67.74,67.74,0,0,1,.82-11.72,16.31,16.31,0,0,1,1-3.57,3.71,3.71,0,0,1,1.09-1.58,2.4,2.4,0,0,1,1.35-.5,2.1,2.1,0,0,1,1,.31,8.17,8.17,0,0,1,2.53,2.82,46.9,46.9,0,0,1,4.33,10.67,181.43,181.43,0,0,1,4.46,19.82c.52,2.93.91,5.45,1.17,7.25.13.89.23,1.6.29,2.09s.1.74.1.74a1.5,1.5,0,0,0,3-.25s0-.56-.06-1.59c-.11-3.08-.33-10.32-.33-18.82a276.8,276.8,0,0,1,1.21-28.56,54.29,54.29,0,0,1,1.93-10.35,10.09,10.09,0,0,1,1.28-2.74,2.36,2.36,0,0,1,.51-.53.6.6,0,0,1,.27-.1h0a1.12,1.12,0,0,1,.68.31,6.08,6.08,0,0,1,1.13,1.33,24.82,24.82,0,0,1,2.37,5.13,111.07,111.07,0,0,1,3.72,14.18c1.65,8,3,16.82,3.85,23.6.45,3.38.79,6.27,1,8.3.11,1,.2,1.83.26,2.38l.09.84a1.5,1.5,0,0,0,3-.11s0-.21,0-.61c.09-3,.58-16.64,2.39-29.6a95.86,95.86,0,0,1,3.79-17.42,20.83,20.83,0,0,1,2.68-5.48,6.11,6.11,0,0,1,1.38-1.4,2.61,2.61,0,0,1,1.23-.49l.25,0a2,2,0,0,1,1.21.42,4.58,4.58,0,0,1,1.12,1.28,16.07,16.07,0,0,1,1.77,4.45,61.64,61.64,0,0,1,1.54,10.23c.3,3.85.41,8,.41,12,0,5.44-.21,10.61-.42,14.4-.1,1.9-.21,3.46-.28,4.54,0,.54-.08,1-.1,1.25l0,.43a1.5,1.5,0,0,0,2.94.52l.14-.53c.7-2.6,3.94-14.34,7.86-25.39a123.06,123.06,0,0,1,6.12-14.76,25.49,25.49,0,0,1,2.88-4.53,6.06,6.06,0,0,1,1.13-1.06,1,1,0,0,1,.55-.22h.08a4.39,4.39,0,0,1,1.78,1.29,9.51,9.51,0,0,1,1.77,4.09,30.6,30.6,0,0,1,.59,6.48c0,7.91-1.86,18.59-3.75,29-.94,5.21-1.89,10.37-2.6,15.11a89.58,89.58,0,0,0-1.19,12.69,19.72,19.72,0,0,0,.88,6.57,7,7,0,0,0,1.38,2.4,4.94,4.94,0,0,0,2.33,1.45h0a2.66,2.66,0,0,0,.72.1,4.1,4.1,0,0,0,1.76-.46,15.24,15.24,0,0,0,3.21-2.26c2-1.74,4.38-4.17,6.92-6.86,3.8-4,8-8.64,11.75-12.19a42.54,42.54,0,0,1,5.2-4.31,12.16,12.16,0,0,1,2-1.16,3.81,3.81,0,0,1,1.38-.35,1.12,1.12,0,0,1,.44.09,7.51,7.51,0,0,1,3,2.29,5.9,5.9,0,0,1,1,3.59,22.69,22.69,0,0,1-2,8.06,105.65,105.65,0,0,1-6.59,13.13c-9.25,16.15-10.8,18.91-16.32,29.72a69.51,69.51,0,0,1-7.92,12.51c-3.63,4.48-6.78,6.87-9.62,9.82a24.83,24.83,0,0,0-3.87,5.11,30.47,30.47,0,0,0-2.95,7.54,51.29,51.29,0,0,0-1.63,13,54.86,54.86,0,0,0,2.23,15.54l-47.69.53.9-34.92a1.54,1.54,0,0,0-.36-1h0c-.17-.19-8.65-10.29-13.22-28.61a393.25,393.25,0,0,1-7.39-38.92A277.65,277.65,0,0,1,997.21,956.45Z"/></g></g></svg>