<svg xmlns="http://www.w3.org/2000/svg" viewBox="0 0 1433.04 987.39"><defs><style>.cls-1{fill:none;}.cls-2{fill:#d0d5d8;}.cls-3{fill:#eff0f1;}.cls-4{fill:#fff;}.cls-5{fill:#61c3da;}.cls-6{fill:#c1bebc;}</style></defs><g id="Layer_2" data-name="Layer 2"><g id="_3" data-name="3"><path class="cls-1" d="M1359.66,984.07,1353,962.73h-39.85a136.47,136.47,0,0,1,3.29,21.34Z"/><path class="cls-1" d="M1368.73,373.9H1355v65.24a12.15,12.15,0,0,1-12.14,12.15h0a12.14,12.14,0,0,1-12.14-12.15V373.9h-40.15v65.24a12.14,12.14,0,0,1-12.14,12.15h0a12.15,12.15,0,0,1-12.14-12.15V373.9h-40.14v65.24A12.15,12.15,0,0,1,1214,451.29h0a12.15,12.15,0,0,1-12.15-12.15V373.9h-13.71v87.67h180.59Z"/><path class="cls-1" d="M1120,667.39a14.74,14.74,0,1,0-14.74-14.74A14.74,14.74,0,0,0,1120,667.39Z"/><path class="cls-1" d="M933.49,666.94c-2.85,39.29-6.61,79.53-11.55,118.56a83.21,83.21,0,0,1,30,9.14C946,751,939.35,704.2,933.49,666.94Z"/><path class="cls-1" d="M495.89,679a14.75,14.75,0,1,0,14.75-14.74A14.74,14.74,0,0,0,495.89,679Z"/><path class="cls-1" d="M105.42,557.26A14.74,14.74,0,1,0,120.16,572,14.74,14.74,0,0,0,105.42,557.26Z"/><path class="cls-1" d="M598.09,177.09l-.32.56c.35.2.69.41,1,.62a19.47,19.47,0,0,1,2.42,1.91v-8.4C600.19,173.44,599.12,175.28,598.09,177.09Z"/><path class="cls-1" d="M430.37,937.28l-.09-.72h0l-.75-6.36-1-.3a1.51,1.51,0,0,1-.89-.77c-4.8-9.59-9.62-23.39-14.45-40.26s-9.62-36.79-14.32-58.57c-9.4-43.55-18.39-94.5-26.2-143.08-2.7-16.8-5.25-33.32-7.64-49.15-5.62.24-11.24.44-16.83.59-9,34.46-19.9,73.6-30.82,111.62-25.84,89.9-51.68,173.44-51.68,173.45v0a22.6,22.6,0,0,1-2.47,4.84c-.36.56-.78,1.14-1.23,1.72a419.6,419.6,0,0,1,68.27-5.41C367.7,924.91,402.31,929.5,430.37,937.28Z"/><path class="cls-2" d="M721.88,684.7c0-.75,0-1.52,0-2.26,0-12.26.66-22.73,1.36-30.42a8,8,0,0,1-2,0c-.7,7.72-1.35,18.19-1.35,30.43,0,.73,0,1.49,0,2.23a19.75,19.75,0,0,1,.8,2.6A27.93,27.93,0,0,1,721.88,684.7Z"/><path class="cls-2" d="M736.45,774.48a11.57,11.57,0,0,1-1.16-.29,8.4,8.4,0,0,1-.41,1.8,175.39,175.39,0,0,0,21.81,42l2-.55A173.83,173.83,0,0,1,736.45,774.48Z"/><path class="cls-2" d="M722.37,700.8a7.69,7.69,0,0,1-1-.82,7.07,7.07,0,0,1-1.13-1.59,282.16,282.16,0,0,0,8.7,58.66,26.85,26.85,0,0,1,1.13-3.58A281.51,281.51,0,0,1,722.37,700.8Z"/><path class="cls-2" d="M670.47,748.31l-.33-.21a6.77,6.77,0,0,1,.38,2.87,6.13,6.13,0,0,1-.28,1.27,264.26,264.26,0,0,0,31.87,48,9.3,9.3,0,0,1,3.51,4.06,209.28,209.28,0,0,0,25,24c.66-.34,1.31-.67,2-1C705.36,805.49,685.27,777.35,670.47,748.31Z"/><path class="cls-2" d="M665.2,739.64a23.88,23.88,0,0,1-.41-3,371.5,371.5,0,0,1-17-44.63c-1.92-6.16-3.63-12.19-5.17-18a15.18,15.18,0,0,1-2.87-8.53,29.69,29.69,0,0,1,0-3.14c-3.15-13.45-5.34-25.55-6.83-35.44q-.48-3.17-.87-6a7.58,7.58,0,0,1-.8.28,6.4,6.4,0,0,1-1.15.18,450,450,0,0,0,9.25,47.84c.07.17.15.33.22.51a12,12,0,0,1,.79,3.45c1.63,6.29,3.47,12.8,5.55,19.47A370.23,370.23,0,0,0,665,741.77q.57.45,1.08.9A18.55,18.55,0,0,1,665.2,739.64Z"/><path class="cls-3" d="M632,620.82c3.13-1.27,5.31-4.91,6.45-10,1.23-5.54,1.22-12.83-.34-20.57s-4.33-14.48-7.6-19.12-7-7.22-10.65-6.72-6.47,4.33-7.91,10-1.55,13.14,0,21.06,4.56,14.79,8.08,19.46c3.14,4.18,6.72,6.57,10,6.37a6.4,6.4,0,0,0,1.15-.18A7.58,7.58,0,0,0,632,620.82Z"/><path class="cls-3" d="M639.75,665.41a15.18,15.18,0,0,0,2.87,8.53,7.39,7.39,0,0,0,2.91,2.19c3.42,1.38,7.59-.07,11.62-3.48a42,42,0,0,0,10.79-15.5c2.86-6.7,4.11-13.8,3.45-19.47a16.2,16.2,0,0,0-2.3-7,7.5,7.5,0,0,0-4.49-3.34c-3.61-.84-7.43,1.07-11.08,4.38a43.66,43.66,0,0,0-10.11,15,45,45,0,0,0-3.69,15.52A29.69,29.69,0,0,0,639.75,665.41Z"/><path class="cls-3" d="M639.32,669.12c-.32-.76-.69-1.49-1.06-2.31-.24-.48-.49-1-.76-1.42l-.41-.68-.39-.74c-.53-1-1.13-1.85-1.7-2.88-.28-.51-.61-.9-.91-1.45s-.64-1-1-1.52a82.76,82.76,0,0,0-5.15-7,66,66,0,0,0-7.26-7.77c-.67-.6-1.34-1.16-2-1.7s-1.39-1.07-2.09-1.55a30.78,30.78,0,0,0-4.17-2.45,16.63,16.63,0,0,0-7.63-1.88,7,7,0,0,0-5.2,2.19,8.8,8.8,0,0,0-2,5.25,22.82,22.82,0,0,0,.67,6.85,36.89,36.89,0,0,0,1.16,3.92c.24.69.51,1.38.8,2.07s.63,1.46,1,2.2a49,49,0,0,0,6,9.6,41.25,41.25,0,0,0,9.81,8.87c1,.57,1.91,1.1,2.84,1.58a23,23,0,0,0,2.87,1.21,22.39,22.39,0,0,0,5.47,1.32c.43.06.84.11,1.25.13s.83,0,1.22,0a19.11,19.11,0,0,0,2.24-.19,10.49,10.49,0,0,0,3.62-1.16,6.58,6.58,0,0,0,3.62-4.35,7.58,7.58,0,0,0,.17-2.13,12,12,0,0,0-.79-3.45C639.47,669.45,639.39,669.29,639.32,669.12Z"/><path class="cls-3" d="M670.14,748.1a11,11,0,0,1-4.06-5.43q-.51-.45-1.08-.9-.84-.67-1.77-1.32a57.87,57.87,0,0,0-8.17-4.62,104.29,104.29,0,0,0-20.5-7,57,57,0,0,0-9.29-1.36c-5.66-.3-10.23.7-12.21,3.84s-.77,7.84,3.34,12.78a38.32,38.32,0,0,0,8.2,7.18,52.55,52.55,0,0,0,24.56,8.42A38,38,0,0,0,660,759c5.53-1.22,9.18-3.72,10.21-6.78a6.13,6.13,0,0,0,.28-1.27A6.77,6.77,0,0,0,670.14,748.1Z"/><path class="cls-3" d="M702.11,800.2a25.21,25.21,0,0,0-5.93-2.91,57.34,57.34,0,0,0-9.11-2.3,91,91,0,0,0-10.77-1.26,92.25,92.25,0,0,0-10.85-.12,57.57,57.57,0,0,0-9.32,1.13c-5.54,1.21-9.69,3.38-10.77,6.92s1.33,7.77,6.6,11.46a38.15,38.15,0,0,0,9.79,4.76,52.58,52.58,0,0,0,25.91,1.65A37.92,37.92,0,0,0,698,816.05c5.69-3,8.6-6.93,8-10.53a7,7,0,0,0-.36-1.26A9.3,9.3,0,0,0,702.11,800.2Z"/><path class="cls-3" d="M666.08,742.67a11,11,0,0,0,4.06,5.43l.33.21a7.2,7.2,0,0,0,1.95.79c3.58.87,7.43-.94,10.89-4.27a43.55,43.55,0,0,0,11.77-30.35c-.3-4.8-1.92-8.73-5.16-10.5s-7.49-1-11.71,2.11-8.31,8.37-10.91,15.07a35.9,35.9,0,0,0-2.51,15.43,23.88,23.88,0,0,0,.41,3A18.55,18.55,0,0,0,666.08,742.67Z"/><path class="cls-3" d="M723.23,652c2.62-.31,5.36-1.82,7.95-4.2a43.76,43.76,0,0,0,12.42-32.26c-.46-5-2.34-8.9-5.7-10.42s-7.56-.33-11.6,3-7.9,8.66-10.46,15.29-3.3,13.22-2.5,18.36,3.12,8.86,6.62,10a7.74,7.74,0,0,0,3.27.29Z"/><path class="cls-3" d="M722.37,700.8c2.65,1.85,6.56,2,11,.79A49.1,49.1,0,0,0,760.79,679c2.28-4.62,2.79-9,.71-12s-6.4-4.14-11.75-3.24-11.71,3.81-17.51,8.59a41.41,41.41,0,0,0-10.36,12.41,27.93,27.93,0,0,0-1.2,2.57c.08.31.17.62.23.93a12.28,12.28,0,0,1-1.2,8.95,8.6,8.6,0,0,0,.54,1.24,7.07,7.07,0,0,0,1.13,1.59A7.69,7.69,0,0,0,722.37,700.8Z"/><path class="cls-3" d="M720.91,688.2c-.06-.31-.15-.62-.23-.93a19.75,19.75,0,0,0-.8-2.6,29.56,29.56,0,0,0-7.61-10.89c-4.77-4.39-10.33-6.91-15.08-7.42s-8.69.89-10.74,3.93-2,7.12-.49,11.2a33.34,33.34,0,0,0,20.8,19.15c4.19,1.12,8.24.88,11.12-1.42a8,8,0,0,0,1.83-2.07A12.28,12.28,0,0,0,720.91,688.2Z"/><path class="cls-3" d="M733.33,766.33a13,13,0,0,1,2,7.86,11.57,11.57,0,0,0,1.16.29,13.26,13.26,0,0,0,8.65-1.68,28.2,28.2,0,0,0,13.83-23.73c-.11-4.26-1.61-8-4.66-10s-7.08-2.07-11.15-.23a25.5,25.5,0,0,0-11,10.51,29.66,29.66,0,0,0-2,4.15,26.85,26.85,0,0,0-1.13,3.58,22.63,22.63,0,0,0-.56,3.46A23.46,23.46,0,0,1,733.33,766.33Z"/><path class="cls-3" d="M733.33,766.33a23.46,23.46,0,0,0-4.94-5.82,31.31,31.31,0,0,0-7.95-5c-6-2.58-12-3.13-16.68-2.06s-7.92,3.69-8.85,7.24.48,7.36,3.2,10.74A33.28,33.28,0,0,0,724,782.72c4.33-.31,8.07-1.86,10-5a7.68,7.68,0,0,0,.8-1.75,8.4,8.4,0,0,0,.41-1.8A13,13,0,0,0,733.33,766.33Z"/><path class="cls-4" d="M690.6,222.24a24.83,24.83,0,0,1-5-10.6,32.16,32.16,0,0,0-2.44-7.8,11.53,11.53,0,0,0-2.82-4,1.92,1.92,0,0,0-1.1-.53.26.26,0,0,0-.19.06,1.1,1.1,0,0,0-.33.41,6.72,6.72,0,0,0-.55,3.06c0,.43,0,.9.07,1.4a63.52,63.52,0,0,0,.84,6.48c.31,1.63.6,2.79.81,3.71a8,8,0,0,1,.24,1.7,2.66,2.66,0,0,1-.3,1.29,2.42,2.42,0,0,1-.95,1,4.25,4.25,0,0,1-.71.35h0a2.24,2.24,0,0,1-.75.13,2.54,2.54,0,0,1-1.27-.36,4.6,4.6,0,0,1-.94-.7,14,14,0,0,1-1.76-2.13,45.88,45.88,0,0,1-3.86-7,87.74,87.74,0,0,1-6.62-21.53A17.1,17.1,0,0,0,659.7,179a8.79,8.79,0,0,0-4.39-3,10.37,10.37,0,0,0-2.8-.38,11.44,11.44,0,0,0-1.73.13c-.07.51-.15,1.18-.24,2a77.51,77.51,0,0,0-.41,8.17,81.1,81.1,0,0,0,3.08,22.39A62.31,62.31,0,0,0,667,233.32c7.25,7.92,13,13.58,17.46,17.63.37-1.64.85-3.29,1.39-4.95a93.73,93.73,0,0,1,5-11.83c1.41-2.83,2.81-5.38,4-7.44A36.58,36.58,0,0,1,690.6,222.24Z"/><path d="M684.41,251c-4.47-4-10.21-9.71-17.46-17.63a62.31,62.31,0,0,1-13.74-24.91A81.1,81.1,0,0,1,650.13,186a77.51,77.51,0,0,1,.41-8.17c.09-.86.17-1.53.24-2a11.44,11.44,0,0,1,1.73-.13,10.37,10.37,0,0,1,2.8.38,8.79,8.79,0,0,1,4.39,3,17.1,17.1,0,0,1,3.24,8.19,87.74,87.74,0,0,0,6.62,21.53,45.88,45.88,0,0,0,3.86,7,14,14,0,0,0,1.76,2.13,4.6,4.6,0,0,0,.94.7,2.54,2.54,0,0,0,1.27.36,2.24,2.24,0,0,0,.75-.13h0a4.25,4.25,0,0,0,.71-.35,2.42,2.42,0,0,0,.95-1,2.66,2.66,0,0,0,.3-1.29,8,8,0,0,0-.24-1.7c-.21-.92-.5-2.08-.81-3.71a63.52,63.52,0,0,1-.84-6.48c-.05-.5-.07-1-.07-1.4a6.72,6.72,0,0,1,.55-3.06,1.1,1.1,0,0,1,.33-.41.26.26,0,0,1,.19-.06,1.92,1.92,0,0,1,1.1.53,11.53,11.53,0,0,1,2.82,4,32.16,32.16,0,0,1,2.44,7.8,24.83,24.83,0,0,0,5,10.6,36.58,36.58,0,0,0,4.18,4.49c.58-1,1.11-1.89,1.56-2.64a34.49,34.49,0,0,1-3.58-4,21.79,21.79,0,0,1-4.25-9.06,30.57,30.57,0,0,0-3.82-10.6,11.42,11.42,0,0,0-2.51-2.93,4.82,4.82,0,0,0-3-1.19,3.35,3.35,0,0,0-1.86.56,4.61,4.61,0,0,0-1.71,2.41,11.32,11.32,0,0,0-.5,3.56c0,.52,0,1.07.08,1.65a62.08,62.08,0,0,0,1.2,8.34c.2.94.38,1.69.51,2.25,0,.12.05.22.07.33l-.15-.15a24.15,24.15,0,0,1-2.68-4.05,82.51,82.51,0,0,1-8.27-24.54,23.19,23.19,0,0,0-2.24-7.1,12.75,12.75,0,0,0-5.5-5.64,12.43,12.43,0,0,0-5.65-1.3,13.07,13.07,0,0,0-3.49.45,1.52,1.52,0,0,0-1,1.16,72,72,0,0,0-.85,11.73,83.92,83.92,0,0,0,3.19,23.22,65.27,65.27,0,0,0,14.42,26.11,260.06,260.06,0,0,0,19,19.06C683.93,253.27,684.14,252.11,684.41,251Z"/><path class="cls-4" d="M606.88,205.34a9.11,9.11,0,0,0,6.47,2.68h0a9.15,9.15,0,0,0,9.15-9.15V158.44c-1.06.67-2.16,1.3-3.29,1.89a99.59,99.59,0,0,1-9.13,4c-1.83.73-3.41,1.36-4.48,1.88a6.45,6.45,0,0,0-1.19.71l-.06,0-.15.21v31.68A9.11,9.11,0,0,0,606.88,205.34Z"/><path class="cls-4" d="M604.2,114.73v15.68c6.62-2.5,12.77-6.15,17.43-8.58l.86-.44v-6.66Z"/><path d="M603.66,119.09a1.5,1.5,0,0,1,.54,1.21l-.38,10.25.38-.14V114.73h-3v4.37c.38-.12.77-.23,1.17-.32A1.54,1.54,0,0,1,603.66,119.09Z"/><path d="M622.5,158.44v40.43a9.15,9.15,0,0,1-9.15,9.15h0a9.15,9.15,0,0,1-9.15-9.15V167.19c-.74,1-1.68,2.43-2.7,4.1l-.3.49v8.4a12.35,12.35,0,0,1,2.88,3.7,1.6,1.6,0,0,1,.12.65s-.3,7.77-1.81,19.56a12.14,12.14,0,0,0,11,6.93h0a12.14,12.14,0,0,0,12.14-12.15V156.2A25.32,25.32,0,0,1,622.5,158.44Z"/><path d="M622.49,114.73v6.66c1.08-.55,2.08-1,3-1.37v-5.29Z"/><rect class="cls-5" x="598.32" y="94.72" width="30.05" height="17.01"/><path d="M604.2,114.73h25.67a1.5,1.5,0,0,0,1.06-.44,1.52,1.52,0,0,0,.44-1.06v-20a1.5,1.5,0,0,0-1.5-1.5h-33a1.52,1.52,0,0,0-1.07.44,1.55,1.55,0,0,0-.43,1.06v20a1.55,1.55,0,0,0,.43,1.06,1.52,1.52,0,0,0,1.07.44h7.37Zm-5.88-20h30v17h-30Z"/><path class="cls-4" d="M602,165.15a4.49,4.49,0,0,1,1.24-1,15.73,15.73,0,0,1,1.6-.83c1.2-.55,2.67-1.13,4.31-1.79a78.54,78.54,0,0,0,10.49-4.8,20.83,20.83,0,0,0,5.43-4.28c1.65-2,2.89-5.24,3.63-8.94A58.69,58.69,0,0,0,629.72,132c0-1.87-.08-3.62-.21-5.12a28.13,28.13,0,0,0-.5-3.63,7.38,7.38,0,0,0-.29-1h-.16a4.9,4.9,0,0,0-1.34.28,20.89,20.89,0,0,0-2.17.9c-1.67.78-3.72,1.9-6,3.15a98.66,98.66,0,0,1-16.33,7.49,1.47,1.47,0,0,1-1.37-.23,1.48,1.48,0,0,1-.59-1.25l.38-10.33a16.45,16.45,0,0,0-4.23,2.43,26.26,26.26,0,0,0-5,5.29,50.87,50.87,0,0,0-6.21,11.86c-1.88,5.45-5.19,15.86-8.3,25.83-.57,1.81-1.13,3.61-1.67,5.37l1.64,0c8,0,13.71,1.39,17.76,3.2,1.09-1.94,2.24-3.93,3.34-5.75C599.76,168.36,601,166.46,602,165.15Z"/><path d="M575.71,173.09c.54-1.76,1.1-3.56,1.67-5.37,3.11-10,6.42-20.38,8.3-25.83A50.87,50.87,0,0,1,591.89,130a26.26,26.26,0,0,1,5-5.29,16.45,16.45,0,0,1,4.23-2.43l-.38,10.33a1.48,1.48,0,0,0,.59,1.25,1.47,1.47,0,0,0,1.37.23A98.66,98.66,0,0,0,619,126.63c2.3-1.25,4.35-2.37,6-3.15a20.89,20.89,0,0,1,2.17-.9,4.9,4.9,0,0,1,1.34-.28h.16a7.38,7.38,0,0,1,.29,1,28.13,28.13,0,0,1,.5,3.63c.13,1.5.21,3.25.21,5.12a58.69,58.69,0,0,1-1.05,11.44c-.74,3.7-2,7-3.63,8.94a20.83,20.83,0,0,1-5.43,4.28,78.54,78.54,0,0,1-10.49,4.8c-1.64.66-3.11,1.24-4.31,1.79a15.73,15.73,0,0,0-1.6.83,4.49,4.49,0,0,0-1.24,1c-1,1.31-2.21,3.21-3.52,5.37-1.1,1.82-2.25,3.81-3.34,5.75a24.32,24.32,0,0,1,2.66,1.38l.32-.56c1-1.81,2.1-3.65,3.11-5.31l.3-.49c1-1.67,2-3.11,2.7-4.1l.15-.21.06,0a6.45,6.45,0,0,1,1.19-.71c1.07-.52,2.65-1.15,4.48-1.88a99.59,99.59,0,0,0,9.13-4c1.13-.59,2.23-1.22,3.29-1.89a25.32,25.32,0,0,0,3-2.24,18.12,18.12,0,0,0,1.85-1.87c2.18-2.63,3.46-6.3,4.27-10.27a61.57,61.57,0,0,0,1.11-12,57.5,57.5,0,0,0-.42-7.27,20.32,20.32,0,0,0-.47-2.55,7.89,7.89,0,0,0-.31-1,3.21,3.21,0,0,0-.5-.89,2.84,2.84,0,0,0-1.16-.82,3.5,3.5,0,0,0-1.3-.23,7.21,7.21,0,0,0-2.27.43c-.26.08-.53.19-.8.29-.92.36-1.92.82-3,1.37l-.86.44c-4.66,2.43-10.81,6.08-17.43,8.58l-.38.14.38-10.25a1.5,1.5,0,0,0-.54-1.21,1.54,1.54,0,0,0-1.29-.31c-.4.09-.79.2-1.17.32a18.94,18.94,0,0,0-6.16,3.28,33.3,33.3,0,0,0-7.76,9.19,57.57,57.57,0,0,0-4.41,9.29l0,0c-2.18,6.32-6.19,19-9.65,30.17l-.68,2.17C573.62,173.16,574.68,173.11,575.71,173.09Z"/><path class="cls-3" d="M192.34,984.07H215l2.95-34.72h0l1.1-12.86h0l.56-6.6q-2-1.32-4.12-2.86a1.49,1.49,0,0,1-.6-1,246.62,246.62,0,0,1-1.62-30.43,93,93,0,0,0-20.92-6v94.48Z"/><path class="cls-3" d="M431.86,950l-1.49-12.67c-28.06-7.78-62.67-12.37-100.13-12.37A419.6,419.6,0,0,0,262,930.32a23.36,23.36,0,0,1-5.07,4.84l-.33,1.76h0l-1.3,7,.78.42h0a119.31,119.31,0,0,0,31.09,10.53,41.12,41.12,0,0,1,14.8,6.49,72.53,72.53,0,0,1,11.7,10.06,94.58,94.58,0,0,1,10.12,12.63H435.89l-4-34.12Z"/><path class="cls-3" d="M770.63,969.44a38.77,38.77,0,0,1,18-20.57c6.63-3.59,15.28-6,26.51-6.33l13.87-1,7.06-.52,1.07-5.6c-5.26-.22-8.63-.4-8.64-.4a1.51,1.51,0,0,1-1.4-1.71v-.11c0-.09,0-.22,0-.4,0-.36.1-.92.18-1.7.14-1.57.34-4,.53-7.6.39-7.13.78-18.63.78-36.11,0-17.25-.38-40.32-1.52-70.73a140.08,140.08,0,0,0-68.37.79l-2,.55a137.88,137.88,0,0,0-24.07,9.27c-.66.32-1.31.65-2,1a139.43,139.43,0,0,0-71.9,155.82H767.63A46.1,46.1,0,0,1,770.63,969.44Z"/><path class="cls-3" d="M1030.27,919.8a1.49,1.49,0,0,1-.84,1.39,39.45,39.45,0,0,1-6.91,2.49l4,14.21c23.1-51.2,76.67-87.08,139.09-87.08,1.93,0,3.86,0,5.78.11V749.58a150.41,150.41,0,0,0-140.12,21.76c-.68,38.36-1.49,75.62-1.49,108.5C1029.74,894.07,1029.89,907.48,1030.27,919.8Z"/><path class="cls-3" d="M977.87,959.9h0c-1-9.51-2-20.56-3-31.29-2.39,0-3.86,0-4,0h0a1.51,1.51,0,0,1-1.5-1.31s-.1-.82-.3-2.38-.49-3.86-.87-6.81c-.75-5.91-1.84-14.45-3.2-25-2.72-21-6.5-50-10.76-81.58-.76-5.58-1.52-11.25-2.3-17a83.21,83.21,0,0,0-30-9.14c-6.79,53.63-15.81,105-27.8,148.41a1.48,1.48,0,0,1-1.21,1.08,93.29,93.29,0,0,1-9.79.88c-.92,8.51-1.84,16.83-2.68,24.17h0c-1.15,10-2.15,18.24-2.81,22.65-.08.52-.15,1-.22,1.38H980.58c-.2-1.31-.44-3.15-.71-5.45C979.31,973.94,978.62,967.4,977.87,959.9Z"/><path class="cls-6" d="M1316.41,984.07a136.47,136.47,0,0,0-3.29-21.34H1212l-6.69,21.34Z"/><path class="cls-6" d="M1026.48,937.89l.85,3.06,4.28.36,14.62,1.23c11.23.32,19.88,2.74,26.5,6.33a38.5,38.5,0,0,1,14.32,13.26,44.61,44.61,0,0,1,6.65,21.94h92.83l-6.69-21.34h-7a1.5,1.5,0,0,1-1.06-.44,1.52,1.52,0,0,1-.44-1.06V850.92c-1.92-.07-3.85-.11-5.78-.11C1103.15,850.81,1049.58,886.69,1026.48,937.89Z"/><polygon points="1202.62 982.52 1208.83 962.73 1182.99 962.73 1189.19 982.52 1202.62 982.52"/><polygon points="1205.28 984.07 1211.97 962.73 1208.83 962.73 1202.62 982.52 1189.19 982.52 1182.99 962.73 1179.84 962.73 1186.53 984.07 1205.28 984.07"/><polygon points="1375.74 982.52 1381.95 962.73 1356.11 962.73 1362.32 982.52 1375.74 982.52"/><polygon points="1381.95 962.73 1375.74 982.52 1362.32 982.52 1356.11 962.73 1352.97 962.73 1359.66 984.07 1378.4 984.07 1385.09 962.73 1381.95 962.73"/><path d="M875.23,978.34c.56-4.26,1.27-10.16,2.06-17-17.67-.21-35-5.21-48.68-16.79l-13.29,1h-.07c-10.87.3-19,2.63-25.21,6a35.38,35.38,0,0,0-13.22,12.23,41.75,41.75,0,0,0-6.18,20.33H874.39c0-.12,0-.24.07-.37C874.66,982.47,874.92,980.64,875.23,978.34Z"/><path d="M769.13,987.39H875.47a1.52,1.52,0,0,0,.6-.12,3.08,3.08,0,0,0,.34-.2H768.21A1.49,1.49,0,0,0,769.13,987.39Z"/><path d="M880.46,960a1.51,1.51,0,0,1-1.49,1.33h-.51c-18.28,0-36.29-5.07-50.34-17.21a1.49,1.49,0,0,1,.87-2.63l-13.87,1c-11.23.32-19.88,2.74-26.51,6.33a38.77,38.77,0,0,0-18,20.57,46.1,46.1,0,0,0-3,14.63h3a41.75,41.75,0,0,1,6.18-20.33A35.38,35.38,0,0,1,790,951.51c6.17-3.34,14.34-5.67,25.21-6h.07l13.29-1c13.68,11.58,31,16.58,48.68,16.79-.79,6.83-1.5,12.73-2.06,17-.31,2.3-.57,4.13-.77,5.36,0,.13-.05.25-.07.37h3c.07-.42.14-.86.22-1.38C878.31,978.28,879.31,970.08,880.46,960Z"/><path class="cls-4" d="M837.42,943.92l-4.43.32c12.72,9.71,28.45,14,44.64,14.12.78-6.87,1.63-14.53,2.48-22.37-3.56.12-7.41.18-11.36.18-10.09,0-20.78-.33-28.6-.63l-1.37,7.16A1.49,1.49,0,0,1,837.42,943.92Z"/><path d="M827.67,942.55a1.51,1.51,0,0,0,.45,1.61c14,12.14,32.06,17.21,50.34,17.21H879a1.51,1.51,0,0,0,1.49-1.33h0c.84-7.34,1.76-15.66,2.68-24.17l-.85,0-2.18.08c-.85,7.84-1.7,15.5-2.48,22.37-16.19-.15-31.92-4.41-44.64-14.12l4.43-.32a1.49,1.49,0,0,0,1.36-1.22l1.37-7.16-3-.13-1.07,5.6-7.06.52A1.5,1.5,0,0,0,827.67,942.55Z"/><path class="cls-4" d="M1006.9,954.21A60.74,60.74,0,0,0,1027.76,944l-1.73-.14a1.48,1.48,0,0,1-1.31-1.09l-5.11-18.36q-2.76.63-5.76,1.14c-6.13,1-12.86,1.72-19.15,2.19-6.47.47-12.46.7-16.83.82,1,10.13,1.94,20.53,2.85,29.64A113.54,113.54,0,0,0,1006.9,954.21Z"/><path d="M977.87,959.9a1.49,1.49,0,0,1,.37-1.14,1.51,1.51,0,0,1,1.07-.51l1.41-.06c-.91-9.11-1.9-19.51-2.85-29.64l-3,.06c1,10.73,2,21.78,3,31.29Z"/><path d="M1024.72,942.76a1.48,1.48,0,0,0,1.31,1.09l1.73.14c.93-.73,1.84-1.49,2.71-2.29a1.48,1.48,0,0,1,1.14-.39l-4.28-.36-.85-3.06-4-14.21c-.93.25-1.91.49-2.91.72Z"/><path d="M1071.3,951.51c-6.16-3.34-14.33-5.67-25.21-6H1046l-14-1.18c-6.83,6.1-15.26,10.15-24.25,12.74A115.89,115.89,0,0,1,981,961.17c.53,5.29,1,10,1.46,13.92.47,4.13.86,7.28,1.14,9h107.09a43.38,43.38,0,0,0-2.79-13.55A35.7,35.7,0,0,0,1071.3,951.51Z"/><path d="M982.53,987.39h109.68a1.47,1.47,0,0,0,.92-.32H981.59A1.53,1.53,0,0,0,982.53,987.39Z"/><path d="M1072.73,948.87c-6.62-3.59-15.27-6-26.5-6.33l-14.62-1.23a1.48,1.48,0,0,0-1.14.39c-.87.8-1.78,1.56-2.71,2.29a60.74,60.74,0,0,1-20.86,10.22,113.54,113.54,0,0,1-26.18,4l-1.41.06a1.51,1.51,0,0,0-1.07.51,1.49,1.49,0,0,0-.37,1.14h0c.75,7.5,1.44,14,2,18.72.27,2.3.51,4.14.71,5.45h3c-.28-1.7-.67-4.85-1.14-9-.43-3.88-.93-8.63-1.46-13.92a115.89,115.89,0,0,0,26.71-4.08c9-2.59,17.42-6.64,24.25-12.74l14,1.18h.09c10.88.3,19.05,2.63,25.21,6a35.7,35.7,0,0,1,16.62,19,43.38,43.38,0,0,1,2.79,13.55h3a44.61,44.61,0,0,0-6.65-21.94A38.5,38.5,0,0,0,1072.73,948.87Z"/><path d="M226.34,936.35l1.33.21c1,.16,2,.29,3.07.39s2.27.2,3.41.26a57.83,57.83,0,0,1-11.69-5.53l-.33,3.79C223.53,935.81,224.94,936.1,226.34,936.35Z"/><path d="M256.57,936.92l.33-1.76-.7.48A1.5,1.5,0,0,1,256.57,936.92Z"/><path d="M219.67,935.39a1.5,1.5,0,0,1,1.25-.23l1.21.31.33-3.79c-.94-.56-1.89-1.16-2.86-1.79l-.56,6.6h0A1.46,1.46,0,0,1,219.67,935.39Z"/><path d="M227.67,936.56l-1.33-.21Z"/><path d="M234.15,937.21h0c-1.14-.06-2.28-.14-3.41-.26C231.87,937.07,233,937.15,234.15,937.21Z"/><path class="cls-4" d="M252.13,944.45l1.08-5.85a78.28,78.28,0,0,1-13.54,1.66l-2.28,0a66.62,66.62,0,0,1-15.51-1.8l-.85,10h0a34.42,34.42,0,0,0,11.16,1.81,37.16,37.16,0,0,0,4.34-.26,51.49,51.49,0,0,0,15.79-4.53A1.46,1.46,0,0,1,252.13,944.45Z"/><path d="M218.64,948.21a1.49,1.49,0,0,1,1.33-.13l1.06.38h0l.85-10a66.62,66.62,0,0,0,15.51,1.8l2.28,0a78.28,78.28,0,0,0,13.54-1.66l-1.08,5.85a1.46,1.46,0,0,0,.19,1A51.49,51.49,0,0,1,236.53,950a53.09,53.09,0,0,0,18.15-5.66,1.47,1.47,0,0,1,1.37,0h0l-.78-.42,1.3-7h0a1.5,1.5,0,0,0-.37-1.28c-.53.34-1.08.66-1.66,1a22,22,0,0,1-10.2,2.39,32.85,32.85,0,0,1-10.19-1.78c-1.14-.06-2.28-.14-3.41-.26s-2.05-.23-3.07-.39l-1.33-.21c-1.4-.25-2.81-.54-4.21-.88l-1.21-.31a1.5,1.5,0,0,0-1.25.23,1.46,1.46,0,0,0-.63,1.1h0l-1.1,12.86A1.49,1.49,0,0,1,218.64,948.21Z"/><path d="M300.27,963.87a38.16,38.16,0,0,0-13.71-6,123.25,123.25,0,0,1-31.21-10.46,52.72,52.72,0,0,1-23.16,5.9,37,37,0,0,1-11.42-1.74L218,984.07H320.13c-1-1.44-2.5-3.45-4.38-5.72A76.21,76.21,0,0,0,300.27,963.87Z"/><path d="M301.94,961.38a41.12,41.12,0,0,0-14.8-6.49,119.31,119.31,0,0,1-31.09-10.53h0a1.47,1.47,0,0,0-1.37,0A53.09,53.09,0,0,1,236.53,950a37.16,37.16,0,0,1-4.34.26A34.42,34.42,0,0,1,221,948.46l-1.06-.38a1.5,1.5,0,0,0-2,1.27h0L215,984.07h3l2.77-32.54a37,37,0,0,0,11.42,1.74,52.72,52.72,0,0,0,23.16-5.9,123.25,123.25,0,0,0,31.21,10.46,38.16,38.16,0,0,1,13.71,6,76.21,76.21,0,0,1,15.48,14.48c1.88,2.27,3.37,4.28,4.38,5.72h3.63a94.58,94.58,0,0,0-10.12-12.63A72.53,72.53,0,0,0,301.94,961.38Z"/><path class="cls-4" d="M434.74,948.76a35,35,0,0,0,12.53,3c.66,0,1.32,0,2,0a38.69,38.69,0,0,0,4.92-.31,41.37,41.37,0,0,0,16.15-5.58c1-.59,1.94-1.22,2.87-1.9l-1.9-13a70.67,70.67,0,0,1-26.37,6.81c-1.54.12-3.08.19-4.63.23-.77,0-1.55,0-2.32,0-1.5,0-3,0-4.5-.11Z"/><path d="M430.37,937.28,431.86,950h0a1.5,1.5,0,0,1,2.15-1.52l.73.33L433.47,938c-.6,0-1.19,0-1.79-.08a1.51,1.51,0,0,1-1.4-1.32h0Z"/><path d="M473.19,930c-8.54,4.66-18.28,7.06-28.27,7.79A70.67,70.67,0,0,0,471.29,931l1.9,13,.71-.51a1.5,1.5,0,0,1,1.47-.2,1.43,1.43,0,0,1,.41.26l.35.2.06,0L474,928.49A1.52,1.52,0,0,1,473.19,930Z"/><path d="M440.29,938.05c1.55,0,3.09-.11,4.63-.23C443.38,937.94,441.84,938,440.29,938.05Z"/><path d="M454.17,951.48a41.37,41.37,0,0,0,16.15-5.58A41.37,41.37,0,0,1,454.17,951.48Z"/><path d="M433.11,934.94c1.62.08,3.24.14,4.86.14q1.13,0,2.25,0c1.5,0,3-.11,4.48-.22s3-.26,4.43-.44l1.73-.25a79.52,79.52,0,0,1-18.2-3Z"/><path d="M466.25,931.67a33.55,33.55,0,0,1-13.63,2.51c-.57,0-1.16,0-1.76,0l-1.73.25c-1.47.18-2.94.33-4.43.44s-3,.18-4.48.22q-1.12,0-2.25,0c-1.62,0-3.24-.06-4.86-.14l-.45-3.84c-1-.28-2.07-.58-3.13-.9l.75,6.36h0a1.51,1.51,0,0,0,1.4,1.32c.6,0,1.19.06,1.79.08,1.5.07,3,.11,4.5.11.77,0,1.55,0,2.32,0,1.55,0,3.09-.11,4.63-.23,10-.73,19.73-3.13,28.27-7.79a1.52,1.52,0,0,0,.76-1.54l-.31-2.15A20.59,20.59,0,0,1,466.25,931.67Z"/><path d="M521.48,963.87a38.09,38.09,0,0,0-13.71-6,119.75,119.75,0,0,1-32.89-11.35,44.23,44.23,0,0,1-22.1,8.16c-1.18.1-2.35.15-3.53.15-.71,0-1.42,0-2.13,0a38.36,38.36,0,0,1-12-2.56l3.76,31.89H541.34c-1-1.44-2.49-3.45-4.37-5.72A76,76,0,0,0,521.48,963.87Z"/><path d="M475.78,943.55a1.43,1.43,0,0,0-.41-.26,1.5,1.5,0,0,0-1.47.2l-.71.51c-.93.68-1.88,1.31-2.87,1.9a41.37,41.37,0,0,1-16.15,5.58,38.69,38.69,0,0,1-4.92.31c-.66,0-1.32,0-2,0a35,35,0,0,1-12.53-3l-.73-.33a1.5,1.5,0,0,0-2.15,1.52h0l4,34.12h3l-3.76-31.89a38.36,38.36,0,0,0,12,2.56c.71,0,1.42,0,2.13,0,1.18,0,2.35,0,3.53-.15a44.23,44.23,0,0,0,22.1-8.16,119.75,119.75,0,0,0,32.89,11.35,38.09,38.09,0,0,1,13.71,6A76,76,0,0,1,537,978.35c1.88,2.27,3.36,4.28,4.37,5.72H545a95.46,95.46,0,0,0-10.12-12.63,72.53,72.53,0,0,0-11.7-10.06,41.09,41.09,0,0,0-14.81-6.49,126.17,126.17,0,0,1-24-7.24c-2.84-1.19-5.05-2.25-6.54-3-.71-.36-1.25-.65-1.63-.86l-.06,0Z"/><path class="cls-5" d="M416.06,888c4.69,16.44,9.4,29.9,14,39.17,9.35,2.86,16.77,4,22.6,4A30.94,30.94,0,0,0,464.91,929a17.7,17.7,0,0,0,6.56-4.73,14.63,14.63,0,0,0,3.36-6.91c0-.31,0-1.22-.09-2.71-.06-1.86-.16-4.61-.29-8.14-.25-7.06-.62-17.27-1.11-29.88-1-25.21-2.41-60-4.22-98.27-2.31-48.77-5.25-103.22-8.67-150.76a302.68,302.68,0,0,1-35.77,6c-17.16,2-36.78,3.47-56.65,4.37q1,6.42,2,13C382.53,732.75,399.28,829.32,416.06,888Z"/><path d="M460.45,627.59c3.42,47.54,6.36,102,8.67,150.76,1.81,38.27,3.24,73.06,4.22,98.27.49,12.61.86,22.82,1.11,29.88.13,3.53.23,6.28.29,8.14.05,1.49.08,2.4.09,2.71a14.63,14.63,0,0,1-3.36,6.91,17.7,17.7,0,0,1-6.56,4.73,30.94,30.94,0,0,1-12.29,2.19c-5.83,0-13.25-1.11-22.6-4-4.56-9.27-9.27-22.73-14-39.17C399.28,829.32,382.53,732.75,370,650.92q-1-6.55-2-13l-3,.13c2.39,15.83,4.94,32.35,7.64,49.15,7.81,48.58,16.8,99.53,26.2,143.08,4.7,21.78,9.51,41.7,14.32,58.57s9.65,30.67,14.45,40.26a1.51,1.51,0,0,0,.89.77l1,.3c1.06.32,2.11.62,3.13.9a79.52,79.52,0,0,0,18.2,3c.6,0,1.19,0,1.76,0a33.55,33.55,0,0,0,13.63-2.51,20.59,20.59,0,0,0,7.39-5.33A19,19,0,0,0,476,923a16.15,16.15,0,0,0,1.85-5.38v-.21s-3.1-93-8.32-191c-1.8-33.8-3.85-68.19-6.11-99.56C462.45,627.08,461.46,627.33,460.45,627.59Z"/><path class="cls-5" d="M261,636.4c-1.5,18.29-2.82,37.43-3.8,56.73a1.47,1.47,0,0,1-.17.62c-15.31,29.08-25.53,66.08-31.9,102.43a594.41,594.41,0,0,0-8.91,98.59A250.23,250.23,0,0,0,217.77,925c11.46,8.28,20.15,11,26.57,11a18.46,18.46,0,0,0,14.37-6.43,22.1,22.1,0,0,0,4.11-6.74c0-.11.34-1.08.89-2.87l2.54-8.29c2.2-7.18,5.37-17.56,9.23-30.31,7.73-25.51,18.24-60.55,29.36-98.65,13.84-47.4,28.64-99.54,40.22-144-8.39.2-16.69.3-24.7.3C296.77,639,275.6,638.17,261,636.4Z"/><path d="M215.48,927q2.11,1.54,4.12,2.86c1,.63,1.92,1.23,2.86,1.79a57.83,57.83,0,0,0,11.69,5.53h0A32.85,32.85,0,0,0,244.34,939a22,22,0,0,0,10.2-2.39c.58-.3,1.13-.62,1.66-1l.7-.48a23.36,23.36,0,0,0,5.07-4.84c.45-.58.87-1.16,1.23-1.72a22.6,22.6,0,0,0,2.47-4.84v0s25.84-83.55,51.68-173.45c10.92-38,21.84-77.16,30.82-111.62l-3.12.08c-11.58,44.42-26.38,96.56-40.22,144-11.12,38.1-21.63,73.14-29.36,98.65-3.86,12.75-7,23.13-9.23,30.31L263.71,920c-.55,1.79-.85,2.76-.89,2.87a22.1,22.1,0,0,1-4.11,6.74A18.46,18.46,0,0,1,244.34,936c-6.42,0-15.11-2.73-26.57-11a250.23,250.23,0,0,1-1.51-30.21,594.41,594.41,0,0,1,8.91-98.59c6.37-36.35,16.59-73.35,31.9-102.43a1.47,1.47,0,0,0,.17-.62c1-19.3,2.3-38.44,3.8-56.73l-2.34-.3-.64-.09c-1.5,18.26-2.82,37.37-3.8,56.65-15.44,29.47-25.66,66.57-32,103a597.47,597.47,0,0,0-9,99.11v.82A246.62,246.62,0,0,0,214.88,926,1.49,1.49,0,0,0,215.48,927Z"/><path class="cls-4" d="M921.88,603.32C905,538.23,901.31,475.46,901.31,433c0-17.37.62-31.33,1.21-40.65l-5.27.06c1.67,33.53,2.73,67,2.73,98.07,0,16.25-.29,31.82-.94,46.38a1.48,1.48,0,0,1-.65,1.17,87.42,87.42,0,0,1-50.23,15.74,94.63,94.63,0,0,1-16.84-1.53c-3.12,47.91-5.46,99.39-5.46,146.23,0,19.9.42,39,1.38,56.56,3.43,62.81,4.39,104.88,4.39,132.32,0,27.76-1,40.55-1.4,44.72l2,.09c2.28.11,5.52.26,9.35.4,7.66.29,17.69.58,27.16.58,4.74,0,9.33-.08,13.41-.25,3.61-.16,6.82-.41,9.34-.75,21.42-78.06,33.33-181.81,39.91-278.31-1.33-8.12-2.6-15.64-3.8-22.39C925.43,619.21,923.48,609.48,921.88,603.32Z"/><path d="M827.85,923.49c-.19,3.56-.39,6-.53,7.6-.08.78-.14,1.34-.18,1.7,0,.18,0,.31,0,.4v.11a1.51,1.51,0,0,0,1.4,1.71s3.38.18,8.64.4l3,.13c7.82.3,18.51.63,28.6.63,4,0,7.8-.06,11.36-.18l2.18-.08.85,0a93.29,93.29,0,0,0,9.79-.88,1.48,1.48,0,0,0,1.21-1.08c12-43.44,21-94.78,27.8-148.41,4.94-39,8.7-79.27,11.55-118.56-.7-4.5-1.4-8.88-2.08-13.08-6.58,96.5-18.49,200.25-39.91,278.31-2.52.34-5.73.59-9.34.75-4.08.17-8.67.25-13.41.25-9.47,0-19.5-.29-27.16-.58-3.83-.14-7.07-.29-9.35-.4l-2-.09c.42-4.17,1.4-17,1.4-44.72,0-27.44-1-69.51-4.39-132.32-1-17.6-1.38-36.66-1.38-56.56,0-46.84,2.34-98.32,5.46-146.23-1-.18-2-.38-3-.58-3.14,48.06-5.49,99.75-5.49,146.81,0,19.94.42,39.06,1.39,56.72,1.26,23.22,2.19,43.59,2.86,61.43,1.14,30.41,1.52,53.48,1.52,70.73C828.63,904.86,828.24,916.36,827.85,923.49Z"/><path class="cls-4" d="M905.42,394.07c-.55,9.23-1.11,22.57-1.11,39,0,42.26,3.68,104.8,20.47,169.54,1.64,6.32,3.6,16.08,5.79,28.38s4.6,27.11,7.13,43.48c5.06,32.75,10.59,71.73,15.72,109.14,9.43,68.77,17.49,132.26,18.73,142.08,2.26,0,7.24-.1,13.44-.39a242.54,242.54,0,0,0,27.76-2.68,62.27,62.27,0,0,0,13.89-3.69c-.36-12.09-.5-25.18-.5-39,0-56.94,2.42-126.84,2.42-192.93,0-29.59-.48-58.41-1.89-84.95q-1.44-27.21-3.51-52.18a195.24,195.24,0,0,1-28.44,2.12A162.14,162.14,0,0,1,940,542.57a1.51,1.51,0,0,1-1-1.23c-.51-4.15-1.49-15.33-2.69-31.51s-2.61-37.32-3.95-61.31c-1-17.75-2-37.07-2.79-57.08-7.7.45-15.86.74-24,.89C905.49,392.89,905.45,393.47,905.42,394.07Z"/><path d="M1023.76,549.78q2,24.93,3.51,52.18c1.41,26.54,1.89,55.36,1.89,84.95,0,66.09-2.42,136-2.42,192.93,0,13.87.14,27,.5,39a62.27,62.27,0,0,1-13.89,3.69,242.54,242.54,0,0,1-27.76,2.68c-6.2.29-11.18.37-13.44.39-1.24-9.82-9.3-73.31-18.73-142.08-5.13-37.41-10.66-76.39-15.72-109.14-2.53-16.37-5-31.19-7.13-43.48s-4.15-22.06-5.79-28.38C908,537.83,904.31,475.29,904.31,433c0-16.39.56-29.73,1.11-39,0-.6.07-1.18.1-1.74l-3,.05c-.59,9.32-1.21,23.28-1.21,40.65,0,42.43,3.69,105.2,20.57,170.29,1.6,6.16,3.55,15.89,5.73,28.15,1.2,6.75,2.47,14.27,3.8,22.39.68,4.2,1.38,8.58,2.08,13.08C939.35,704.2,946,751,951.91,794.64c.78,5.72,1.54,11.39,2.3,17,4.26,31.62,8,60.55,10.76,81.58,1.36,10.52,2.45,19.06,3.2,25,.38,3,.67,5.25.87,6.81s.3,2.37.3,2.38a1.51,1.51,0,0,0,1.5,1.31h0c.17,0,1.64,0,4,0l3-.06c4.37-.12,10.36-.35,16.83-.82,6.29-.47,13-1.16,19.15-2.19q3-.51,5.76-1.14c1-.23,2-.47,2.91-.72a39.45,39.45,0,0,0,6.91-2.49,1.49,1.49,0,0,0,.84-1.39c-.38-12.32-.53-25.73-.53-40,0-32.88.81-70.14,1.49-108.5.5-28,.93-56.53.93-84.43,0-29.62-.48-58.49-1.89-85.11q-1.45-27.37-3.54-52.48Z"/><path class="cls-4" d="M795.12,289a1.52,1.52,0,0,1-1,1.3,1.5,1.5,0,0,1-1.58-.31c-41.76-39.66-85.15-62-92.79-65.78l-.58.94c-.81,1.31-1.92,3.18-3.16,5.43A102.12,102.12,0,0,0,688.65,247a37.73,37.73,0,0,0-2.14,10.68c24.13,35.09,46.23,58.95,66.13,74S790.32,353,805.69,353c.79,0,1.58,0,2.37-.05.37-27.08,1.11-53.78,2.38-77.6h0a1.49,1.49,0,0,1,1.56-1.41l2.78-69.38C805.46,225,797.52,252.61,795.12,289Z"/><path d="M839.89,161.68l.36-.39.34-.38c2-2.23,4-4.23,6-6a112.4,112.4,0,0,0-14.5,15.26C836.29,165.17,839.55,162,839.89,161.68Z"/><path d="M808.06,352.94c-.79,0-1.58.05-2.37.05-15.37,0-33.08-6.24-53.05-21.36s-42-38.91-66.13-74A37.73,37.73,0,0,1,688.65,247a102.12,102.12,0,0,1,7.41-16.38c1.24-2.25,2.35-4.12,3.16-5.43l.58-.94c7.64,3.78,51,26.12,92.79,65.78a1.5,1.5,0,0,0,1.58.31,1.52,1.52,0,0,0,1-1.3c2.4-36.38,10.34-64,19.66-84.44l.09-2.39a1.7,1.7,0,0,1-.44-.08,1.5,1.5,0,0,1-.91-1.92l0,0c-9.83,20.56-18.38,48.47-21.19,85.52C746.66,243,700,221,699.89,220.91a1.5,1.5,0,0,0-1.89.53s-.65,1-1.66,2.65c-.45.75-1,1.63-1.56,2.64-1.19,2.06-2.59,4.61-4,7.44a93.73,93.73,0,0,0-5,11.83c-.54,1.66-1,3.31-1.39,4.95-.27,1.16-.48,2.32-.64,3.46a27.36,27.36,0,0,0-.27,3.67,1.52,1.52,0,0,0,.26.85c24.37,35.48,46.73,59.7,67.07,75.1s38.66,22,54.86,22c.78,0,1.56,0,2.33-.05C808,354.94,808.05,353.94,808.06,352.94Z"/><path class="cls-5" d="M895.4,308.9a23.72,23.72,0,0,1,4.57,5.68,28.58,28.58,0,0,0,14.33,11.85c.67.26,1.32.47,1.94.66a6.37,6.37,0,0,1,1.43-.57,20.18,20.18,0,0,1,4.49-.38c1.57,0,3.39.08,5.41.19-.25-13.13-.38-26.17-.38-38.9,0-11.64.11-23,.36-34,1.35-58.11,14.54-102.9,17.3-111.68-5.18-1.19-10-2.09-14.38-2.77,0,1.26-.06,2.51-.11,3.72a1.5,1.5,0,0,1-.34.91L908.2,169.75a1.47,1.47,0,0,1-1.31.53l-1.35-.15a1.55,1.55,0,0,1-1-.57l-18.79-24.19a1.58,1.58,0,0,1-.31-.8l-.43-5.26c-2.62.59-5.46,1.34-8.47,2.32l-.26.09c1.15,9.95,9.17,80.38,15.57,165.37a5.56,5.56,0,0,1,1.38.41A8.89,8.89,0,0,1,895.4,308.9Z"/><path class="cls-5" d="M929.43,388.45q-.27-6.88-.52-13.84a197.43,197.43,0,0,1-21.1-8.91,1.51,1.51,0,0,1-.81-1.34s0-1.43.11-3.68l-11.8-2.92c.65,10.51,1.25,21.09,1.78,31.68C908,389.36,919.13,389.05,929.43,388.45Z"/><path d="M875.54,139.48a1.52,1.52,0,0,1,.59,1s0,.42.14,1.21l.26-.09c3-1,5.85-1.73,8.47-2.32l-.25-3a95.34,95.34,0,0,0-10.49,2.94l.12,0A1.55,1.55,0,0,1,875.54,139.48Z"/><path d="M905.52,392.33c8.17-.15,16.33-.44,24-.89l-.12-3c-10.3.6-21.47.91-32.34,1,.06,1,.11,2,.16,3l5.27-.06Z"/><path d="M840.59,160.91l-.34.38Z"/><path d="M930.47,139c4.39.68,9.2,1.58,14.38,2.77.32-1,.5-1.56.5-1.57a1.5,1.5,0,0,1,1.59-1h.1c-6-1.42-11.52-2.47-16.52-3.23C930.51,137,930.49,138,930.47,139Z"/><path d="M1359.66,984.07H192.34v1.77a1.52,1.52,0,0,1-.44,1.07,1.56,1.56,0,0,1-.2.16H1419.26a1.5,1.5,0,0,0,0-3h-59.6Z"/><path class="cls-4" d="M912.36,98.46a7.92,7.92,0,0,1-2.9-2.81,12,12,0,0,1-1.39-3.55c-.57-2.44-.68-5-1.05-7.07a9,9,0,0,0-1.11-3.31,3.19,3.19,0,0,0-1.08-1,4.79,4.79,0,0,0-2.19-.56h-.37a3,3,0,0,0-1.6.33,1.07,1.07,0,0,0-.45.67,3.68,3.68,0,0,0-.11,1,19,19,0,0,0,.59,3.83,22,22,0,0,1,.65,4.36,5.45,5.45,0,0,1-.35,2,3.52,3.52,0,0,1-1.5,1.73,4.29,4.29,0,0,1-1.55.51h0a5.76,5.76,0,0,1-.82.06,4.53,4.53,0,0,1-2-.47,4.37,4.37,0,0,1-1.49-1.3,9.57,9.57,0,0,1-1.44-3.65c-.58-2.72-.76-6.06-1.4-9.28a22,22,0,0,0-1.59-5.12,42.85,42.85,0,0,1-4.58.27,34.14,34.14,0,0,1-17.2-4.41,36.66,36.66,0,0,1-9.14-7.47c-.43,5.73-.78,12.36-.78,19.05a132.25,132.25,0,0,0,1.15,18.53c.82,5.72,2.18,10.72,4.15,14.2a11.17,11.17,0,0,0,4.66,4.79,7.71,7.71,0,0,0,3.42.76h14.22a1.5,1.5,0,0,1,1.49,1.37l1.83,22,18.07,23.27,20.92-25c.11-3.35.17-6.91.17-10.63,0-9.77-.4-20.6-1.27-31.14a28.31,28.31,0,0,1-4.07.31A20.69,20.69,0,0,1,912.36,98.46Z"/><path d="M885,139.31l.43,5.26a1.58,1.58,0,0,0,.31.8l18.79,24.19a1.55,1.55,0,0,0,1,.57l1.35.15a1.47,1.47,0,0,0,1.31-.53L930,143.64a1.5,1.5,0,0,0,.34-.91c0-1.21.08-2.46.11-3.72,0-1,0-2,0-3,0-1.47,0-3,0-4.49,0-10-.41-21-1.31-31.75a27.76,27.76,0,0,1-3,.61c.87,10.54,1.27,21.37,1.27,31.14,0,3.72-.06,7.28-.17,10.63l-20.92,25-18.07-23.27-1.83-22a1.5,1.5,0,0,0-1.49-1.37H870.85a7.71,7.71,0,0,1-3.42-.76,11.17,11.17,0,0,1-4.66-4.79c-2-3.48-3.33-8.48-4.15-14.2a132.25,132.25,0,0,1-1.15-18.53c0-6.69.35-13.32.78-19.05-.65-.73-1.28-1.46-1.85-2.2-.31-.39-.6-.78-.89-1.18-.55,6.43-1,14.37-1,22.43,0,9.87.71,19.91,3,27.66a25.25,25.25,0,0,0,4.86,9.65,12,12,0,0,0,3.77,2.91,10.8,10.8,0,0,0,4.73,1.06h12.84l1.06,12.75Z"/><path d="M868.87,68.07a31.2,31.2,0,0,0,15.72,4,40.91,40.91,0,0,0,5.28-.35,1.48,1.48,0,0,1,1.5.76,24.64,24.64,0,0,1,2.52,7.89c.45,2.64.67,5.19,1,7.19a11,11,0,0,0,.86,3.09,2.22,2.22,0,0,0,.56.74,1.3,1.3,0,0,0,.81.23l.4,0a1.46,1.46,0,0,0,.47-.14l.16-.14a1.93,1.93,0,0,0,.19-1,19,19,0,0,0-.59-3.72,22.53,22.53,0,0,1-.65-4.47,6.17,6.17,0,0,1,.3-2,4,4,0,0,1,1.21-1.82,4.21,4.21,0,0,1,1.37-.78,6.82,6.82,0,0,1,2.28-.35h.51a8.55,8.55,0,0,1,2.74.56,6.13,6.13,0,0,1,2.07,1.37,8.46,8.46,0,0,1,2.09,4.07,27.23,27.23,0,0,1,.54,3c.17,1.36.3,2.73.52,4a10.44,10.44,0,0,0,1.46,4.21,4.89,4.89,0,0,0,1.63,1.49,17.81,17.81,0,0,0,8.38,1.81,23.83,23.83,0,0,0,8.55-1.56,16.49,16.49,0,0,0,7-5,14.64,14.64,0,0,0,2.66-5.29c-1.6-8-3.63-12.44-5.25-14.76s-2.81-2.61-2.88-2.64h0a1.5,1.5,0,0,1,0-3h0l.23,0c.2-.05.51-.11.91-.22a17.37,17.37,0,0,0,3.11-1.25A16.64,16.64,0,0,0,944,56.11a26.19,26.19,0,0,0,2.23-11.32,44,44,0,0,0-.28-4.82,21.07,21.07,0,0,0-2.14-7.61A12.93,12.93,0,0,0,940,27.87,17.43,17.43,0,0,0,929.56,25a39,39,0,0,0-12.3,2.25h0a1.5,1.5,0,0,1-2-1.5h0v-.05a2.2,2.2,0,0,1,0-.23c0-.2,0-.5,0-.88a35.31,35.31,0,0,0-1-8.11A19.67,19.67,0,0,0,909.36,7a13.56,13.56,0,0,0-7-3.64,16.74,16.74,0,0,0-3.3-.34,14.86,14.86,0,0,0-6.67,1.57,16.9,16.9,0,0,0-5.2,4.07A18,18,0,0,0,882.66,20a9.79,9.79,0,0,0,1.05,4.63,1.5,1.5,0,0,1-2.4,1.75,18,18,0,0,0-5.53-4,13.11,13.11,0,0,0-5.46-1.19,17.3,17.3,0,0,0-10.62,4.15,26.14,26.14,0,0,0-7.36,9.56,17.34,17.34,0,0,0-1.6,6.83,9,9,0,0,0,.91,4.14l.11.26v0l0,.11c0,.1.08.26.15.46.14.41.36,1,.66,1.75a46.25,46.25,0,0,0,2.9,5.86A37.37,37.37,0,0,0,868.87,68.07Z"/><path d="M858.25,63.21a36.66,36.66,0,0,0,9.14,7.47,34.14,34.14,0,0,0,17.2,4.41,42.85,42.85,0,0,0,4.58-.27,22,22,0,0,1,1.59,5.12c.64,3.22.82,6.56,1.4,9.28a9.57,9.57,0,0,0,1.44,3.65,4.37,4.37,0,0,0,1.49,1.3,4.53,4.53,0,0,0,2,.47,5.76,5.76,0,0,0,.82-.06h0a4.29,4.29,0,0,0,1.55-.51,3.52,3.52,0,0,0,1.5-1.73,5.45,5.45,0,0,0,.35-2,22,22,0,0,0-.65-4.36,19,19,0,0,1-.59-3.83,3.68,3.68,0,0,1,.11-1,1.07,1.07,0,0,1,.45-.67,3,3,0,0,1,1.6-.33h.37a4.79,4.79,0,0,1,2.19.56,3.19,3.19,0,0,1,1.08,1A9,9,0,0,1,907,85c.37,2.09.48,4.63,1.05,7.07a12,12,0,0,0,1.39,3.55,7.92,7.92,0,0,0,2.9,2.81,20.69,20.69,0,0,0,9.85,2.2,28.31,28.31,0,0,0,4.07-.31,27.76,27.76,0,0,0,3-.61,23,23,0,0,0,5.67-2.31A18.6,18.6,0,0,0,940.15,93a18,18,0,0,0,3.31-6.71,1.63,1.63,0,0,0,0-.66c-1.84-9.4-4.26-14.36-6.4-17.07a10.62,10.62,0,0,0-1-1.08,19.55,19.55,0,0,0,10.58-10,29.2,29.2,0,0,0,2.52-12.6,47,47,0,0,0-.29-5.14A24.1,24.1,0,0,0,946.44,31a15.74,15.74,0,0,0-7.58-7.19,22.64,22.64,0,0,0-9.3-1.82,40.76,40.76,0,0,0-11.33,1.78A35.37,35.37,0,0,0,916,12a20.36,20.36,0,0,0-4.56-7.11A16.55,16.55,0,0,0,903,.41a19,19,0,0,0-3.9-.41,17.86,17.86,0,0,0-8,1.88,20.78,20.78,0,0,0-8.38,7.86A20.08,20.08,0,0,0,879.66,20c0,.4,0,.79.06,1.18A18.44,18.44,0,0,0,877,19.67a16.19,16.19,0,0,0-6.69-1.45,18.59,18.59,0,0,0-8.69,2.29,27.79,27.79,0,0,0-9.91,9.3,22.74,22.74,0,0,0-4,12,12,12,0,0,0,1.16,5.31,46.45,46.45,0,0,0,6.61,12.76c.29.4.58.79.89,1.18C857,61.75,857.6,62.48,858.25,63.21Zm-5.64-14.7c-.3-.75-.52-1.34-.66-1.75-.07-.2-.12-.36-.15-.46l0-.11v0l-.11-.26a9,9,0,0,1-.91-4.14,17.34,17.34,0,0,1,1.6-6.83,26.14,26.14,0,0,1,7.36-9.56,17.3,17.3,0,0,1,10.62-4.15,13.11,13.11,0,0,1,5.46,1.19,18,18,0,0,1,5.53,4,1.5,1.5,0,0,0,2.4-1.75A9.79,9.79,0,0,1,882.66,20a18,18,0,0,1,4.58-11.38,16.9,16.9,0,0,1,5.2-4.07A14.86,14.86,0,0,1,899.11,3a16.74,16.74,0,0,1,3.3.34,13.56,13.56,0,0,1,7,3.64,19.67,19.67,0,0,1,4.93,9.45,35.31,35.31,0,0,1,1,8.11c0,.38,0,.68,0,.88a2.2,2.2,0,0,0,0,.23v.05h0a1.5,1.5,0,0,0,2,1.5h0A39,39,0,0,1,929.56,25,17.43,17.43,0,0,1,940,27.87a12.93,12.93,0,0,1,3.82,4.49A21.07,21.07,0,0,1,945.93,40a44,44,0,0,1,.28,4.82A26.19,26.19,0,0,1,944,56.11a16.64,16.64,0,0,1-7.35,7.79,17.37,17.37,0,0,1-3.11,1.25c-.4.11-.71.17-.91.22l-.23,0h0a1.5,1.5,0,0,0,0,3h0c.07,0,1.23.27,2.88,2.64s3.65,6.72,5.25,14.76a14.64,14.64,0,0,1-2.66,5.29,16.49,16.49,0,0,1-7,5,23.83,23.83,0,0,1-8.55,1.56,17.81,17.81,0,0,1-8.38-1.81,4.89,4.89,0,0,1-1.63-1.49,10.44,10.44,0,0,1-1.46-4.21c-.22-1.26-.35-2.63-.52-4a27.23,27.23,0,0,0-.54-3,8.46,8.46,0,0,0-2.09-4.07,6.13,6.13,0,0,0-2.07-1.37,8.55,8.55,0,0,0-2.74-.56h-.51a6.82,6.82,0,0,0-2.28.35,4.21,4.21,0,0,0-1.37.78,4,4,0,0,0-1.21,1.82,6.17,6.17,0,0,0-.3,2,22.53,22.53,0,0,0,.65,4.47,19,19,0,0,1,.59,3.72,1.93,1.93,0,0,1-.19,1l-.16.14a1.46,1.46,0,0,1-.47.14l-.4,0a1.3,1.3,0,0,1-.81-.23,2.22,2.22,0,0,1-.56-.74,11,11,0,0,1-.86-3.09c-.34-2-.56-4.55-1-7.19a24.64,24.64,0,0,0-2.52-7.89,1.48,1.48,0,0,0-1.5-.76,40.91,40.91,0,0,1-5.28.35,31.2,31.2,0,0,1-15.72-4,37.37,37.37,0,0,1-13.36-13.7A46.25,46.25,0,0,1,852.61,48.51Z"/><polygon points="902.78 77.14 902.78 77.14 902.78 77.14 902.78 77.14"/><path class="cls-4" d="M958.22,328a93.32,93.32,0,0,0,14.22-.93,30.57,30.57,0,0,0,10.74-3.43,10.83,10.83,0,0,0,4-3.91,28.68,28.68,0,0,0,3-9.24,69.19,69.19,0,0,0,.88-11.61c0-15.22-3.59-31.53-4-33.46l0-.19a1.5,1.5,0,0,1,1.11-1.8h.11L969.61,147.47l-.51-.19q-2.54-1-5.31-1.77l4.44,40.22a1.5,1.5,0,0,1-.37,1.16l-16.44,18.62,8.27,29.85a1.49,1.49,0,0,1-.26,1.32l-.18.23-.51.67c-.45.6-1.11,1.47-1.92,2.58-1.62,2.21-3.87,5.37-6.37,9.14-5,7.55-11.06,17.54-15.15,27.26-2.74,6.47-4.59,12.82-4.75,18.13a1.46,1.46,0,0,1-.35.9c0,10.18.18,20.53.37,30.93l7.49.55C944.39,327.53,951.44,328,958.22,328Z"/><path class="cls-4" d="M942.63,256a245.53,245.53,0,0,1,14-20.57l-8.29-29.91a1.5,1.5,0,0,1,.32-1.39l16.55-18.74-4.5-40.73a104.18,104.18,0,0,0-12.86-2.34c-.09.28-.19.61-.31,1-.44,1.43-1.08,3.55-1.85,6.3-1.54,5.49-3.6,13.5-5.72,23.53a444.06,444.06,0,0,0-9.39,80.37c-.21,9.07-.32,18.45-.35,28q1-3.06,2.33-6.17A153.73,153.73,0,0,1,942.63,256Z"/><path class="cls-4" d="M939.29,509.61c1.11,15,2,25.79,2.56,30.44a159.28,159.28,0,0,0,53.47,8.85,188.87,188.87,0,0,0,56.87-8.71c-2.88-11.05-23-88.9-36.2-160.88a65.35,65.35,0,0,1-7.1,2.67,84.29,84.29,0,0,1-25.08,3.52c-18.77,0-37.62-4.91-51.86-9.82C933.87,428.65,937,478.41,939.29,509.61Zm50.6-54.95c6.3-1.27,12.57-3.54,17-7.3a1.5,1.5,0,1,1,2,2.28c-5,4.27-11.73,6.62-18.32,8a91.09,91.09,0,0,1-17.61,1.62c-3.78,0-6.23-.2-6.26-.21h0a1.5,1.5,0,1,1,.26-3H967l.31,0c.28,0,.69.05,1.21.07,1,.05,2.55.1,4.39.1A87.88,87.88,0,0,0,989.89,454.66Z"/><path d="M970.41,144.56a90.92,90.92,0,0,1,10.49,5.07A64.6,64.6,0,0,0,970.41,144.56Z"/><path d="M963.55,143.31l.24,2.2q2.78.81,5.31,1.77l-.22-.09,0,0h0a1.49,1.49,0,0,1,1-2.83q-3.45-1.28-7.29-2.3A1.51,1.51,0,0,1,963.55,143.31Z"/><path d="M945.35,140.21s-.18.55-.5,1.57c-2.76,8.78-16,53.57-17.3,111.68-.25,11-.36,22.33-.36,34,0,12.73.13,25.77.38,38.9l3,.19c-.19-10.4-.32-20.75-.37-30.93a1.45,1.45,0,0,1-1.2.55,1.51,1.51,0,0,1-1.45-1.55,47,47,0,0,1,2.65-13c0-9.58.14-19,.35-28a444.06,444.06,0,0,1,9.39-80.37c2.12-10,4.18-18,5.72-23.53.77-2.75,1.41-4.87,1.85-6.3.12-.39.22-.72.31-1a104.18,104.18,0,0,1,12.86,2.34l-.12-1h0a1.49,1.49,0,0,1,1.89-1.6A107.35,107.35,0,0,0,947,139.21h-.1A1.5,1.5,0,0,0,945.35,140.21Z"/><path d="M1016,379.31c13.21,72,33.32,149.83,36.2,160.88a188.87,188.87,0,0,1-56.87,8.71,159.28,159.28,0,0,1-53.47-8.85c-.52-4.65-1.45-15.39-2.56-30.44-2.32-31.2-5.42-81-7.34-133.93l-.25-.08-2.79-1q.24,7,.52,13.84l.12,3c.82,20,1.79,39.33,2.79,57.08,1.34,24,2.76,45.14,3.95,61.31s2.18,27.36,2.69,31.51a1.51,1.51,0,0,0,1,1.23,162.14,162.14,0,0,0,55.37,9.33,195.24,195.24,0,0,0,28.44-2.12l3-.46a164.89,164.89,0,0,0,27.79-6.75,1.52,1.52,0,0,0,.93-1.79s-.19-.71-.54-2.07c-2.64-10.14-14.53-56.38-25.76-108.85-3.64-17-7.2-34.62-10.36-51.9C1017.87,378.43,1016.93,378.88,1016,379.31Z"/><path class="cls-4" d="M849.24,342.09a15.75,15.75,0,0,1-4.64-11.28,25.94,25.94,0,0,1,3.39-11.9,42,42,0,0,1,4.25-6.41c.08-.09.13-.17.14-.18h0a6.4,6.4,0,0,1,2.53-2,7.48,7.48,0,0,1,3.07-.6,15.28,15.28,0,0,1,5.22,1.08,40.22,40.22,0,0,1,5.5,2.56c3.7,2,7.41,4.52,10.54,6.47a37.69,37.69,0,0,0,5.17,2.86c.8.32,1.44.54,1.92.68l.1,0c-.11-.35-.26-.78-.43-1.26a25.29,25.29,0,0,1-1.13-4h0a10.2,10.2,0,0,1-.14-1.68,14,14,0,0,1,.78-4.49,8.49,8.49,0,0,1,2.5-3.84,5,5,0,0,1,.86-.55c0-.14,0-.29,0-.44h0a26.59,26.59,0,0,0-1.56-6.71,67.35,67.35,0,0,0-3.51-8,165.18,165.18,0,0,0-10.49-17.32c-7.7-11.3-15.72-21.05-17.48-23.18l-.36-.42a1.49,1.49,0,0,1-.32-1.28l7.12-33.66-13.8-8.93a1.5,1.5,0,0,1-.68-1.38l4.13-52a80.91,80.91,0,0,0-9.78,9.48l-.1.09,0,.05-.16.15-.6.59c-.52.53-1.28,1.3-2.21,2.29-1.87,2-4.44,4.83-7.22,8.29-5.57,6.93-12,16.31-15.42,26a1.52,1.52,0,0,1-1.48,1l-.09,2.39L812,273.93h0a1.5,1.5,0,0,1,1.42,1.57c-2,38-2.69,83.33-2.69,125.89,0,66.57,1.6,126.28,2,140.16,0,.9,0,1.6.06,2.11.44.19,1,.46,1.83.77a76.78,76.78,0,0,0,7.48,2.59,93,93,0,0,0,26,3.78A84.45,84.45,0,0,0,896.08,536c.61-14.29.9-29.56.9-45.49,0-42-1.94-88.48-4.72-133.51-6.89-1.71-15.54-3.86-26.22-6.53C858,348.44,852.61,345.55,849.24,342.09Zm16.52,117.07a27.72,27.72,0,0,1-5.34.95c-2,.19-4.07.26-6.19.26A152.32,152.32,0,0,1,837,459.21h0a1.5,1.5,0,1,1,.39-3l.38,0,1.08.13c.94.11,2.28.25,3.87.39,3.19.29,7.42.57,11.52.57,2,0,4.07-.07,5.91-.24a25.65,25.65,0,0,0,4.76-.84,1.5,1.5,0,1,1,.86,2.87Z"/><path class="cls-4" d="M850.81,205.54l13.91,9a1.51,1.51,0,0,1,.65,1.57l-7.18,34c2.51,3,14.62,17.81,23.61,32.67a115.65,115.65,0,0,1,6,11.12c-6-76.2-12.95-138.19-14.39-150.7,0-.23,0-.43-.07-.63l-1.18.35a51.73,51.73,0,0,0-7.46,3,67.59,67.59,0,0,0-9.62,5.85Z"/><path d="M831.32,552.27a94.63,94.63,0,0,0,16.84,1.53,87.42,87.42,0,0,0,50.23-15.74,1.48,1.48,0,0,0,.65-1.17c.65-14.56.94-30.13.94-46.38,0-31-1.06-64.54-2.73-98.07,0-1-.1-2-.16-3-.53-10.59-1.13-21.17-1.78-31.68l-3-.76C895,402,897,448.53,897,490.51c0,15.93-.29,31.2-.9,45.49a84.45,84.45,0,0,1-47.92,14.8,93,93,0,0,1-26-3.78,76.78,76.78,0,0,1-7.48-2.59c-.79-.31-1.39-.58-1.83-.77,0-.51,0-1.21-.06-2.11-.4-13.88-2-73.59-2-140.16,0-42.56.65-87.92,2.69-125.89a1.5,1.5,0,0,0-1.42-1.57h0a1.49,1.49,0,0,0-1.56,1.41h0c-1.27,23.82-2,50.52-2.38,77.6,0,1,0,2,0,3-.19,15.21-.27,30.5-.27,45.45,0,76.13,2.09,143.27,2.09,143.28a1.51,1.51,0,0,0,.83,1.3,81.4,81.4,0,0,0,17.68,5.72C829.31,551.89,830.3,552.09,831.32,552.27Z"/><path d="M814.43,202.08a1.7,1.7,0,0,0,.44.08,1.52,1.52,0,0,0,1.48-1c3.43-9.68,9.85-19.06,15.42-26,2.78-3.46,5.35-6.31,7.22-8.29.93-1,1.69-1.76,2.21-2.29l.6-.59.16-.15,0-.05.1-.09a80.91,80.91,0,0,1,9.78-9.48l.24-3h0a1.5,1.5,0,1,1,3,.24l0,.28a67.59,67.59,0,0,1,9.62-5.85,51.73,51.73,0,0,1,7.46-3l1.18-.35c0,.2,0,.4.07.63,1.44,12.51,8.41,74.5,14.39,150.7.8,1.71,1.51,3.38,2.1,5a31,31,0,0,1,1.92,8c0,.07,0,.13,0,.19h0c-6.4-85-14.42-155.42-15.57-165.37-.09-.79-.14-1.21-.14-1.21a1.52,1.52,0,0,0-.59-1,1.55,1.55,0,0,0-1.16-.27l-.12,0a46.89,46.89,0,0,0-10.88,4,73.38,73.38,0,0,0-16.82,11.64c-2,1.81-4,3.81-6,6l-.34.38-.36.39c-.34.34-3.6,3.49-7.83,8.45-.84,1-1.72,2.05-2.63,3.18-5.68,7.06-12.26,16.63-15.89,26.81l0,0A1.5,1.5,0,0,0,814.43,202.08Z"/><path d="M888.87,307.55l.06,0a1.37,1.37,0,0,1-.1-.41C888.85,307.26,888.86,307.41,888.87,307.55Z"/><path class="cls-4" d="M897.42,316.16a24.55,24.55,0,0,0-3.09-4.14,7.65,7.65,0,0,0-2.31-1.78,2.6,2.6,0,0,0-1-.23,1.74,1.74,0,0,0-1.13.43,4.51,4.51,0,0,0-1.11,1.45,10.6,10.6,0,0,0-1,4.54,6.6,6.6,0,0,0,.1,1.16h0a18.45,18.45,0,0,0,.71,2.7c.29.86.59,1.65.81,2.4a5.12,5.12,0,0,1,.27,1.53,2.38,2.38,0,0,1-.32,1.26,2.13,2.13,0,0,1-1.21.93,2.92,2.92,0,0,1-.86.12,6.25,6.25,0,0,1-1.72-.29,21.36,21.36,0,0,1-2.21-.77,33.1,33.1,0,0,1-4.1-2.15c-1.5-.91-3.15-2-4.87-3.07a84.54,84.54,0,0,0-10.52-6,15.32,15.32,0,0,0-5.83-1.56,4.65,4.65,0,0,0-1.86.34,3.36,3.36,0,0,0-1.35,1.08l-1.19-.91,1.19.91-.19.24-.29.36c-.23.29-.53.69-.88,1.17a40.74,40.74,0,0,0-2.45,3.82c-1.74,3.1-3.37,7.13-3.36,11.08a12.69,12.69,0,0,0,3.79,9.19c2.82,2.91,7.63,5.62,15.37,7.56,20.08,5,33,8.22,40.51,10.07,0-.37,0-.74.07-1.12a117,117,0,0,1,2-15.82,36.19,36.19,0,0,1,3.17-9.49,14.45,14.45,0,0,1,1.15-1.79l-.23-.08A31.58,31.58,0,0,1,897.42,316.16Z"/><path d="M907.27,357.63c-7.48-1.85-20.43-5.05-40.51-10.07-7.74-1.94-12.55-4.65-15.37-7.56a12.69,12.69,0,0,1-3.79-9.19c0-3.95,1.62-8,3.36-11.08a40.74,40.74,0,0,1,2.45-3.82c.35-.48.65-.88.88-1.17l.29-.36.19-.24-1.19-.91,1.19.91a3.36,3.36,0,0,1,1.35-1.08,4.65,4.65,0,0,1,1.86-.34,15.32,15.32,0,0,1,5.83,1.56,84.54,84.54,0,0,1,10.52,6c1.72,1.1,3.37,2.16,4.87,3.07a33.1,33.1,0,0,0,4.1,2.15,21.36,21.36,0,0,0,2.21.77,6.25,6.25,0,0,0,1.72.29,2.92,2.92,0,0,0,.86-.12,2.13,2.13,0,0,0,1.21-.93,2.38,2.38,0,0,0,.32-1.26,5.12,5.12,0,0,0-.27-1.53c-.22-.75-.52-1.54-.81-2.4a18.45,18.45,0,0,1-.71-2.7h0a6.6,6.6,0,0,1-.1-1.16,10.6,10.6,0,0,1,1-4.54,4.51,4.51,0,0,1,1.11-1.45A1.74,1.74,0,0,1,891,310a2.6,2.6,0,0,1,1,.23,7.65,7.65,0,0,1,2.31,1.78,24.55,24.55,0,0,1,3.09,4.14,31.58,31.58,0,0,0,16.05,13.17l.23.08a9.09,9.09,0,0,1,1.81-1.85c.23-.17.48-.32.73-.47-.62-.19-1.27-.4-1.94-.66A28.58,28.58,0,0,1,900,314.58a23.72,23.72,0,0,0-4.57-5.68,8.89,8.89,0,0,0-2.18-1.4,5.56,5.56,0,0,0-1.38-.41h0a1.49,1.49,0,0,1-2.89.44l-.06,0a5,5,0,0,0-.86.55,8.49,8.49,0,0,0-2.5,3.84,14,14,0,0,0-.78,4.49,10.2,10.2,0,0,0,.14,1.68,25.29,25.29,0,0,0,1.13,4c.17.48.32.91.43,1.26l-.1,0c-.48-.14-1.12-.36-1.92-.68a37.69,37.69,0,0,1-5.17-2.86c-3.13-1.95-6.84-4.44-10.54-6.47a40.22,40.22,0,0,0-5.5-2.56,15.28,15.28,0,0,0-5.22-1.08,7.48,7.48,0,0,0-3.07.6,6.4,6.4,0,0,0-2.53,2h0s-.06.09-.14.18a42,42,0,0,0-4.25,6.41,25.94,25.94,0,0,0-3.39,11.9,15.75,15.75,0,0,0,4.64,11.28c3.37,3.46,8.71,6.35,16.8,8.38,10.68,2.67,19.33,4.82,26.22,6.53l3,.76,11.8,2.92C907.15,359.78,907.2,358.76,907.27,357.63Z"/><polygon points="884.87 318.11 884.87 318.11 884.87 318.11 884.87 318.11"/><path class="cls-4" d="M988.28,263.41a1.49,1.49,0,0,1,1.7,1.13c0,.06,4.14,17.62,4.14,34.33A70.85,70.85,0,0,1,993.2,311a31.54,31.54,0,0,1-3.38,10.22,14.06,14.06,0,0,1-5.1,5,27.84,27.84,0,0,1-7.45,2.93,80.66,80.66,0,0,1-19,1.85c-6.91,0-14-.46-20.37-.93s-11.93-.92-15.69-.92a18,18,0,0,0-3.77.29,4.11,4.11,0,0,0-2.09,1.51,14.09,14.09,0,0,0-2,3.61,52.19,52.19,0,0,0-2.75,11.07A145.46,145.46,0,0,0,910,363.45l.84.41c1.1.53,2.72,1.29,4.78,2.2,4.12,1.83,10,4.27,17,6.71,14.08,4.87,32.77,9.73,51.13,9.73,12.43,0,24.68-2.22,35.29-8.08s19.64-15.34,25.73-30.14c4.05-9.87,6.76-22.11,7.67-37.19q.45-7.65.45-14.86c0-56.67-20.44-92.61-41.15-114.62-18.93-20.1-38.15-28.51-42.19-30.14Z"/><path d="M967.92,145.25a1.5,1.5,0,0,0,.91,1.92h0l0,0,.22.09.51.19c4,1.63,23.26,10,42.19,30.14,20.71,22,41.14,57.95,41.15,114.62q0,7.22-.45,14.86c-.91,15.08-3.62,27.32-7.67,37.19-6.09,14.8-15.12,24.27-25.73,30.14s-22.86,8.08-35.29,8.08c-18.36,0-37-4.86-51.13-9.73-7-2.44-12.92-4.88-17-6.71-2.06-.91-3.68-1.67-4.78-2.2l-.84-.41a145.46,145.46,0,0,1,1.51-17.83,52.19,52.19,0,0,1,2.75-11.07,14.09,14.09,0,0,1,2-3.61,4.11,4.11,0,0,1,2.09-1.51,18,18,0,0,1,3.77-.29c3.76,0,9.35.46,15.69.92s13.46.93,20.37.93a80.66,80.66,0,0,0,19-1.85,27.84,27.84,0,0,0,7.45-2.93,14.06,14.06,0,0,0,5.1-5A31.54,31.54,0,0,0,993.2,311a70.85,70.85,0,0,0,.92-12.12c0-16.71-4.13-34.27-4.14-34.33a1.49,1.49,0,0,0-1.7-1.13h-.11a1.5,1.5,0,0,0-1.11,1.8l0,.19c.44,1.93,4,18.24,4,33.46a69.19,69.19,0,0,1-.88,11.61,28.68,28.68,0,0,1-3,9.24,10.83,10.83,0,0,1-4,3.91,30.57,30.57,0,0,1-10.74,3.43,93.32,93.32,0,0,1-14.22.93c-6.78,0-13.83-.46-20.16-.92l-7.49-.55-3-.19c-2-.11-3.84-.19-5.41-.19a20.18,20.18,0,0,0-4.49.38,6.37,6.37,0,0,0-1.43.57c-.25.15-.5.3-.73.47a9.09,9.09,0,0,0-1.81,1.85,14.45,14.45,0,0,0-1.15,1.79,36.19,36.19,0,0,0-3.17,9.49,117,117,0,0,0-2,15.82c0,.38-.05.75-.07,1.12-.07,1.13-.12,2.15-.16,3.05-.1,2.25-.11,3.66-.11,3.68a1.51,1.51,0,0,0,.81,1.34,197.43,197.43,0,0,0,21.1,8.91l2.79,1,.25.08c14.24,4.91,33.09,9.81,51.86,9.82a84.29,84.29,0,0,0,25.08-3.52,65.35,65.35,0,0,0,7.1-2.67c.94-.43,1.88-.88,2.8-1.35a57.49,57.49,0,0,0,21.49-18.89c8.29-12,13.83-28.8,15.21-51.8q.46-7.74.46-15c0-29.15-5.35-53-13.41-72.35a144.35,144.35,0,0,0-45.36-59.52,132.22,132.22,0,0,0-16.28-10.73,90.92,90.92,0,0,0-10.49-5.07l-.57-.21h-.05A1.5,1.5,0,0,0,967.92,145.25Z"/><path class="cls-4" d="M368.45,175.83a1.51,1.51,0,0,1,1.16-.3h0l.09,0,.43,0c.38,0,.94.07,1.66.07a26.87,26.87,0,0,0,9.84-1.93A29.58,29.58,0,0,0,394.19,164c7.08-9.23,9.36-20.29,9.36-30.69a92.5,92.5,0,0,0-4.27-26.52c-.26.09-.51.19-.77.27-6.17,2-13.06,2.57-19,3-4,.26-7.57.42-10.19.76a13.6,13.6,0,0,0-3.33.74,1.82,1.82,0,0,0-.58.35,2.84,2.84,0,0,0-.56,1.21,9.8,9.8,0,0,0-.22,2.21,53.17,53.17,0,0,0,1.14,8.69,52.71,52.71,0,0,1,1.19,8.7,9.54,9.54,0,0,1-.17,2,4.52,4.52,0,0,1-.73,1.76,3.19,3.19,0,0,1-1,.93,3.15,3.15,0,0,1-1.57.45,3.12,3.12,0,0,1-1.65-.5,5,5,0,0,1-1.15-1.05,15.78,15.78,0,0,1-1.77-2.85c-1.12-2.15-2.26-4.78-3.63-7a13.35,13.35,0,0,0-3-3.58,5.57,5.57,0,0,0-1.93-1,4.69,4.69,0,0,0-1.21-.2,1.66,1.66,0,0,0-.54.08,1,1,0,0,0-.28.17,2,2,0,0,0-.48,1.1,7.67,7.67,0,0,0-.14,1.57,38.22,38.22,0,0,0,1.27,8.07c.79,3.3,1.86,7.09,3,11.1a28,28,0,0,1,1.24,7.42A9.47,9.47,0,0,1,352,156a7.66,7.66,0,0,1-3.56,3.08,14.44,14.44,0,0,1-3.37,1,32.87,32.87,0,0,1-5.63.41c-2.45,0-5.22-.16-8.33-.42a17.94,17.94,0,0,1-3.72-.7c.44,5.07,1,9.92,1.69,14.35q.48,3.19,1,6.08a291.23,291.23,0,0,1,37.17,4.46l.62-7.39A1.48,1.48,0,0,1,368.45,175.83Z"/><path d="M330.09,179.82q-.51-2.88-1-6.08c-.65-4.43-1.25-9.28-1.69-14.35a13.68,13.68,0,0,1-3.13-1.35c.59,7.3,1.5,14.18,2.48,20.13.09.5.17,1,.25,1.48Z"/><path d="M399.28,106.78a92.5,92.5,0,0,1,4.27,26.52c0,10.4-2.28,21.46-9.36,30.69a29.58,29.58,0,0,1-12.54,9.74,26.87,26.87,0,0,1-9.84,1.93c-.72,0-1.28,0-1.66-.07l-.43,0-.09,0h0a1.51,1.51,0,0,0-1.16.3,1.48,1.48,0,0,0-.57,1.06l-.62,7.39.45.09,2.5.53.53-6.27c.32,0,.67,0,1.07,0a29.89,29.89,0,0,0,11-2.15,32.49,32.49,0,0,0,13.8-10.69c7.61-9.93,10-21.71,10-32.52a95.59,95.59,0,0,0-4.47-27.6C401.17,106.1,400.23,106.46,399.28,106.78Z"/><path d="M334.75,98.24a1.48,1.48,0,0,1,.5,1.11v8.2A1.5,1.5,0,0,1,334,109a62.48,62.48,0,0,1-8.59.55c-.77,0-1.57,0-2.39,0a105.28,105.28,0,0,0-2.44,22.38c0,2,.07,3.23.08,3.5v.05a1.56,1.56,0,0,1,0,.43v0l0,.09c0,.07,0,.19-.07.35s-.14.77-.22,1.35a33.63,33.63,0,0,0-.32,4.56,22,22,0,0,0,1.11,7.27,10.81,10.81,0,0,0,4.42,5.76,12.85,12.85,0,0,0,5.88,1.8c3.07.25,5.76.41,8.08.41a28.44,28.44,0,0,0,5.62-.46,8,8,0,0,0,3.35-1.4,4.06,4.06,0,0,0,1.15-1.42,7,7,0,0,0,.61-3.11,25.25,25.25,0,0,0-1.14-6.6c-1.14-4-2.22-7.83-3-11.22a41.41,41.41,0,0,1-1.35-8.77,10.74,10.74,0,0,1,.25-2.41,5.27,5.27,0,0,1,.95-2.05,3.66,3.66,0,0,1,1.19-1,4.36,4.36,0,0,1,2.05-.48,7.48,7.48,0,0,1,2,.31,9.09,9.09,0,0,1,3.53,2,15.93,15.93,0,0,1,2.62,3.09,58.36,58.36,0,0,1,3.71,6.91,20.28,20.28,0,0,0,1.85,3.25,2.29,2.29,0,0,0,.61.6l.05,0,.08-.08a1,1,0,0,0,.15-.33,5.53,5.53,0,0,0,.19-1.65,51,51,0,0,0-1.14-8.15,55.34,55.34,0,0,1-1.19-9.24,12,12,0,0,1,.31-2.92,5.67,5.67,0,0,1,1.24-2.5,5.17,5.17,0,0,1,2.22-1.33,17.47,17.47,0,0,1,2.91-.65c2.17-.32,4.84-.48,7.82-.66,5.95-.36,13.12-.79,19.45-2.45a27.41,27.41,0,0,0,10.91-5.19,15.35,15.35,0,0,0,3.82-4.81v0a7.45,7.45,0,0,0-.55-2.56,18.73,18.73,0,0,0-1.81-3.51,33.05,33.05,0,0,0-7.51-8c-6.76-5.26-17-9.74-30.87-9.74a73.91,73.91,0,0,0-14.48,1.5,35.27,35.27,0,0,0-18.78,10.12,44.51,44.51,0,0,0-7.67,10.93A67.06,67.06,0,0,1,334.75,98.24Z"/><path d="M327.41,159.39a17.94,17.94,0,0,0,3.72.7c3.11.26,5.88.42,8.33.42a32.87,32.87,0,0,0,5.63-.41,14.44,14.44,0,0,0,3.37-1A7.66,7.66,0,0,0,352,156a9.47,9.47,0,0,0,1.16-4.91,28,28,0,0,0-1.24-7.42c-1.14-4-2.21-7.8-3-11.1a38.22,38.22,0,0,1-1.27-8.07,7.67,7.67,0,0,1,.14-1.57,2,2,0,0,1,.48-1.1,1,1,0,0,1,.28-.17,1.66,1.66,0,0,1,.54-.08,4.69,4.69,0,0,1,1.21.2,5.57,5.57,0,0,1,1.93,1,13.35,13.35,0,0,1,3,3.58c1.37,2.21,2.51,4.84,3.63,7a15.78,15.78,0,0,0,1.77,2.85,5,5,0,0,0,1.15,1.05,3.12,3.12,0,0,0,1.65.5,3.15,3.15,0,0,0,1.57-.45,3.19,3.19,0,0,0,1-.93,4.52,4.52,0,0,0,.73-1.76,9.54,9.54,0,0,0,.17-2,52.71,52.71,0,0,0-1.19-8.7,53.17,53.17,0,0,1-1.14-8.69,9.8,9.8,0,0,1,.22-2.21,2.84,2.84,0,0,1,.56-1.21,1.82,1.82,0,0,1,.58-.35,13.6,13.6,0,0,1,3.33-.74c2.62-.34,6.21-.5,10.19-.76,6-.4,12.86-1,19-3,.26-.08.51-.18.77-.27,1-.32,1.89-.68,2.8-1.08A27,27,0,0,0,407,103a18.89,18.89,0,0,0,6.08-7.09,1.63,1.63,0,0,0,.15-.52,5.62,5.62,0,0,0,0-.58,10.43,10.43,0,0,0-.74-3.6A25.58,25.58,0,0,0,408,83.79,43,43,0,0,0,393.48,73a56.25,56.25,0,0,0-23.94-5,76.71,76.71,0,0,0-15.07,1.56,38.21,38.21,0,0,0-20.34,11,47.41,47.41,0,0,0-8,11.35c.9.57,1.74,1.14,2.52,1.68a44.51,44.51,0,0,1,7.67-10.93,35.27,35.27,0,0,1,18.78-10.12A73.91,73.91,0,0,1,369.54,71c13.9,0,24.11,4.48,30.87,9.74a33.05,33.05,0,0,1,7.51,8,18.73,18.73,0,0,1,1.81,3.51,7.45,7.45,0,0,1,.55,2.56v0a15.35,15.35,0,0,1-3.82,4.81,27.41,27.41,0,0,1-10.91,5.19c-6.33,1.66-13.5,2.09-19.45,2.45-3,.18-5.65.34-7.82.66a17.47,17.47,0,0,0-2.91.65,5.17,5.17,0,0,0-2.22,1.33,5.67,5.67,0,0,0-1.24,2.5,12,12,0,0,0-.31,2.92,55.34,55.34,0,0,0,1.19,9.24,51,51,0,0,1,1.14,8.15,5.53,5.53,0,0,1-.19,1.65,1,1,0,0,1-.15.33l-.08.08-.05,0a2.29,2.29,0,0,1-.61-.6,20.28,20.28,0,0,1-1.85-3.25,58.36,58.36,0,0,0-3.71-6.91,15.93,15.93,0,0,0-2.62-3.09,9.09,9.09,0,0,0-3.53-2,7.48,7.48,0,0,0-2-.31,4.36,4.36,0,0,0-2.05.48,3.66,3.66,0,0,0-1.19,1,5.27,5.27,0,0,0-.95,2.05,10.74,10.74,0,0,0-.25,2.41A41.41,41.41,0,0,0,346,133.3c.81,3.39,1.89,7.21,3,11.22a25.25,25.25,0,0,1,1.14,6.6,7,7,0,0,1-.61,3.11,4.06,4.06,0,0,1-1.15,1.42,8,8,0,0,1-3.35,1.4,28.44,28.44,0,0,1-5.62.46c-2.32,0-5-.16-8.08-.41a12.85,12.85,0,0,1-5.88-1.8,10.81,10.81,0,0,1-4.42-5.76,22,22,0,0,1-1.11-7.27,33.63,33.63,0,0,1,.32-4.56c.08-.58.16-1,.22-1.35s.06-.28.07-.35l0-.09v0a1.56,1.56,0,0,0,0-.43v-.05c0-.27-.08-1.52-.08-3.5A105.28,105.28,0,0,1,323,109.54c-1,0-2-.1-3-.19a108.07,108.07,0,0,0-2.41,22.57c0,1.83.05,3.06.08,3.52a34.88,34.88,0,0,0-.67,6.83,22.1,22.1,0,0,0,2.55,11,13,13,0,0,0,4.39,4.56c.11.08.25.13.37.2A13.68,13.68,0,0,0,327.41,159.39Z"/><path d="M315.51,105.72a52.35,52.35,0,0,0,9.88.86,60.5,60.5,0,0,0,6.86-.36V100l-.21-.17c-.47-.4-1.17-1-2.05-1.65a78.34,78.34,0,0,0-7.35-5c-6.07-3.65-14.1-7.24-21.77-7.23a20.66,20.66,0,0,0-11.06,3c-3.49,2.17-6.77,5.66-9.59,11a54,54,0,0,0-5.69,25.13,83.89,83.89,0,0,0,4.41,26,79,79,0,0,0,9.77,20.15,27,27,0,0,0,6.7,7.1,5.32,5.32,0,0,0,2.71,1h.22a1.44,1.44,0,0,0,.58-.2,3.12,3.12,0,0,0,.73-.65,10.77,10.77,0,0,0,1.6-2.93,57.24,57.24,0,0,0,2.6-11c1.41-9,2.26-20.7,3.33-31.2A153.49,153.49,0,0,1,309.86,115a24,24,0,0,1,2.5-6.88,6.25,6.25,0,0,1,2.12-2.21A1.48,1.48,0,0,1,315.51,105.72Z"/><path d="M323,109.54c.82,0,1.62,0,2.39,0A62.48,62.48,0,0,0,334,109a1.5,1.5,0,0,0,1.27-1.48v-8.2a1.48,1.48,0,0,0-.5-1.11,67.06,67.06,0,0,0-6.14-4.74c-.78-.54-1.62-1.11-2.52-1.68-.61-.39-1.25-.79-1.91-1.19C317.87,86.84,309.46,83,300.87,83a23.69,23.69,0,0,0-12.64,3.48c-4,2.49-7.66,6.44-10.67,12.21a57.05,57.05,0,0,0-6,26.52c0,14.25,4.21,28.37,9.51,39a58.72,58.72,0,0,0,8.46,13,22.35,22.35,0,0,0,4.29,3.79,8.18,8.18,0,0,0,4.33,1.49l.51,0h0a4.64,4.64,0,0,0,2.79-1.35,9.19,9.19,0,0,0,1.81-2.52,30.41,30.41,0,0,0,2.37-7,156.46,156.46,0,0,0,2.63-17.65c1-9.89,1.83-20.74,3-29.44a76,76,0,0,1,2.14-11,17.47,17.47,0,0,1,1.35-3.42,5,5,0,0,1,.89-1.22c1.47.26,2.93.45,4.35.58C321,109.44,322,109.5,323,109.54Zm-10.64-1.44a24,24,0,0,0-2.5,6.88,153.49,153.49,0,0,0-2.68,18.44c-1.07,10.5-1.92,22.16-3.33,31.2a57.24,57.24,0,0,1-2.6,11,10.77,10.77,0,0,1-1.6,2.93,3.12,3.12,0,0,1-.73.65,1.44,1.44,0,0,1-.58.2h-.22a5.32,5.32,0,0,1-2.71-1,27,27,0,0,1-6.7-7.1,79,79,0,0,1-9.77-20.15,83.89,83.89,0,0,1-4.41-26,54,54,0,0,1,5.69-25.13c2.82-5.39,6.1-8.88,9.59-11a20.66,20.66,0,0,1,11.06-3c7.67,0,15.7,3.58,21.77,7.23a78.34,78.34,0,0,1,7.35,5c.88.68,1.58,1.25,2.05,1.65l.21.17v6.18a60.5,60.5,0,0,1-6.86.36,52.35,52.35,0,0,1-9.88-.86,1.48,1.48,0,0,0-1,.17A6.25,6.25,0,0,0,312.36,108.1Z"/><path d="M391.79,198.86a6.46,6.46,0,0,0-1.23-2.09,13.2,13.2,0,0,0-2.34-2.08,33,33,0,0,0-7.58-3.72,122.14,122.14,0,0,0-22-5.18,338.08,338.08,0,0,0-35.41-3.32l-1.8,9.88a125.57,125.57,0,0,1,20.36-1.64,108.39,108.39,0,0,1,32.7,4.78c.88.16,7.47,1.33,17.57,4.13C392,199.37,391.88,199.13,391.79,198.86Z"/><path d="M321.42,192.35l1.8-9.88a338.08,338.08,0,0,1,35.41,3.32,122.14,122.14,0,0,1,22,5.18,33,33,0,0,1,7.58,3.72,13.2,13.2,0,0,1,2.34,2.08,6.46,6.46,0,0,1,1.23,2.09c.09.27.18.51.26.76l3.5,1c-.28-.85-.59-1.75-.91-2.71a9.62,9.62,0,0,0-2-3.28,21.44,21.44,0,0,0-6.78-4.72,75.45,75.45,0,0,0-15.69-5l-2.5-.53-.45-.09a291.23,291.23,0,0,0-37.17-4.46l-3.08-.17c-3.11-.16-5-.22-5-.22a1.49,1.49,0,0,0-1.52,1.23l-2.24,12.27C318.85,192.81,319.93,192.59,321.42,192.35Z"/><path class="cls-4" d="M404.21,289.71a1.49,1.49,0,0,1-.4-2.08,1.44,1.44,0,0,1,.76-.58l-29.85-88.31a104.72,104.72,0,0,0-32.94-5,116,116,0,0,0-23.08,2.2c-6.06,4.14-12,11.49-17.61,21.43S290,240.07,285,254.68c-10,29.21-18.58,66.14-25.54,105.35-13.91,78.43-21.39,166.05-21.39,219.78,0,9.49.23,17.93.7,25.05A121.42,121.42,0,0,0,240.91,622a22.45,22.45,0,0,0,2.08,6.16,3.47,3.47,0,0,0,1,1.25,16.3,16.3,0,0,0,3.6,1.45,55.77,55.77,0,0,0,5.82,1.35c4.55.84,10.37,1.55,17.13,2.11,13.53,1.13,30.88,1.69,49.77,1.69,41.86,0,91.34-2.77,123.88-8.23,10.83-1.82,19.79-3.94,25.87-6.3,3.48-1.34,6-2.79,7.32-4.12a4.1,4.1,0,0,0,1.21-1.9,17.55,17.55,0,0,0,.34-2.69c.08-1.18.12-2.64.12-4.34,0-9.31-1.21-25.78-3.34-46.72s-5.19-46.41-8.85-73.8c-7.33-54.79-17.12-117.33-27-167.13q-1.35-6.85-2.7-13.37l-1.12-.5A231.75,231.75,0,0,1,404.21,289.71ZM446.8,516a15.2,15.2,0,0,1-5.12,3.43,33.26,33.26,0,0,1-6.72,2,81.69,81.69,0,0,1-15.53,1.28,162.39,162.39,0,0,1-19.53-1.26h0a1.5,1.5,0,0,1,.41-3l.39,0,1.16.14c1,.11,2.44.27,4.2.42,3.52.31,8.31.62,13.37.62a89.4,89.4,0,0,0,11.4-.65,36.24,36.24,0,0,0,9.65-2.38A12.3,12.3,0,0,0,444.6,514a1.5,1.5,0,0,1,2.2,2Z"/><path d="M261,636.4c14.56,1.77,35.73,2.64,59.32,2.64,8,0,16.31-.1,24.7-.3l3.12-.08c5.59-.15,11.21-.35,16.83-.59l3-.13c19.87-.9,39.49-2.36,56.65-4.37a302.68,302.68,0,0,0,35.77-6c1-.26,2-.51,2.95-.77l.28-.08a58,58,0,0,0,12.09-4.52,17.07,17.07,0,0,0,3.78-2.7,7.12,7.12,0,0,0,2-3.33A19.69,19.69,0,0,0,482,613c.09-1.28.13-2.79.13-4.54,0-12.71-2.17-37.81-5.79-69.42-5.43-47.4-14.12-109.37-23.67-165.45-3.91-23-8-45.06-12-64.69l-3.36-1.46q1.35,6.51,2.7,13.37c9.83,49.8,19.62,112.34,27,167.13,3.66,27.39,6.71,52.85,8.85,73.8s3.34,37.41,3.34,46.72c0,1.7,0,3.16-.12,4.34a17.55,17.55,0,0,1-.34,2.69,4.1,4.1,0,0,1-1.21,1.9c-1.32,1.33-3.84,2.78-7.32,4.12-6.08,2.36-15,4.48-25.87,6.3-32.54,5.46-82,8.24-123.88,8.23-18.89,0-36.24-.56-49.77-1.69-6.76-.56-12.58-1.27-17.13-2.11a55.77,55.77,0,0,1-5.82-1.35,16.3,16.3,0,0,1-3.6-1.45,3.47,3.47,0,0,1-1-1.25,22.45,22.45,0,0,1-2.08-6.16,121.42,121.42,0,0,1-2.11-17.17c-.47-7.12-.7-15.56-.7-25.05,0-53.73,7.48-141.35,21.39-219.78,7-39.21,15.52-76.14,25.54-105.35,5-14.61,10.38-27.29,16.06-37.34s11.55-17.29,17.61-21.43a116,116,0,0,1,23.08-2.2,104.72,104.72,0,0,1,32.94,5l-.05-.16-.66-.12-.14,0h0a1.48,1.48,0,0,1-1.23-1.72,1.5,1.5,0,0,1,1.72-1.24l.12,0a108.39,108.39,0,0,0-32.7-4.78,125.57,125.57,0,0,0-20.36,1.64c-1.49.24-2.57.46-3.16.58l-.51.12a1.48,1.48,0,0,0-.5.21c-6.75,4.55-12.95,12.32-18.77,22.6-10.17,18-19.17,43.8-27,73.9C248,380,235.1,509,235.1,579.81c0,14.54.54,26.64,1.66,35.51a63.64,63.64,0,0,0,2.14,10.84,17.36,17.36,0,0,0,1.5,3.54,6.2,6.2,0,0,0,2.1,2.31,19,19,0,0,0,4.28,1.75A78.81,78.81,0,0,0,258.06,636l.64.09Z"/><path class="cls-4" d="M404.57,287.05a1.49,1.49,0,0,1,1.32.18l.14.09.42.28,1.67,1.07c1.47.93,3.63,2.25,6.38,3.85a254.06,254.06,0,0,0,22.87,11.69c18.94,8.5,44.27,17,69.62,17a94.75,94.75,0,0,0,31.1-4.93c14.1-4.86,25.09-15,33.68-27.69s14.71-27.92,19.05-42.77a285.2,285.2,0,0,0,10.36-61h0c-.13-.21-.34-.54-.65-1a14.68,14.68,0,0,0-3.42-3.08c-3.42-2.29-9.43-4.7-19.76-4.7a92,92,0,0,0-16.28,1.63c-1.44,16.9-5,31.8-10.43,43.91-5.54,12.38-13,21.88-22.15,27.53a38,38,0,0,1-20.26,5.78c-10.83,0-22.74-4.36-35.37-13.68-42.64-31.49-91.45-41.42-98.19-42.66l.05.16Z"/><path d="M392.05,199.62c-10.1-2.8-16.69-4-17.57-4.13l-.12,0a1.5,1.5,0,0,0-1.72,1.24,1.48,1.48,0,0,0,1.23,1.72h0l.14,0,.66.12c6.74,1.24,55.55,11.17,98.19,42.66,12.63,9.32,24.54,13.68,35.37,13.68a38,38,0,0,0,20.26-5.78c9.14-5.65,16.61-15.15,22.15-27.53,5.41-12.11,9-27,10.43-43.91a92,92,0,0,1,16.28-1.63c10.33,0,16.34,2.41,19.76,4.7a14.68,14.68,0,0,1,3.42,3.08c.31.41.52.74.65,1h0a285.2,285.2,0,0,1-10.36,61c-4.34,14.85-10.47,30.08-19.05,42.77s-19.58,22.83-33.68,27.69a94.75,94.75,0,0,1-31.1,4.93c-25.35,0-50.68-8.47-69.62-17a254.06,254.06,0,0,1-22.87-11.69c-2.75-1.6-4.91-2.92-6.38-3.85l-1.67-1.07-.42-.28-.14-.09a1.49,1.49,0,0,0-1.32-.18,1.44,1.44,0,0,0-.76.58,1.49,1.49,0,0,0,.4,2.08,231.75,231.75,0,0,0,31.93,17.23l1.12.5,3.36,1.46c18.6,7.9,42.32,15.28,66.37,15.28a97.9,97.9,0,0,0,32.08-5.09c15.36-5.3,27.1-16.49,36-30.12,13.4-20.47,20.63-46.54,24.57-67.52,1.18-6.35,2.07-12.24,2.72-17.36,1.51-11.79,1.81-19.53,1.81-19.56a1.6,1.6,0,0,0-.12-.65,12.35,12.35,0,0,0-2.88-3.7,19.47,19.47,0,0,0-2.42-1.91c-.32-.21-.66-.42-1-.62a24.32,24.32,0,0,0-2.66-1.38c-4.05-1.81-9.77-3.21-17.76-3.2l-1.64,0c-1,0-2.09.07-3.19.14A104.49,104.49,0,0,0,559.4,175a1.51,1.51,0,0,0-1.22,1.35c-1.8,22.81-7.55,41.83-16.22,55a49.5,49.5,0,0,1-15.05,15.23,34.93,34.93,0,0,1-18.68,5.34c-10,0-21.31-4-33.59-13.09-28.34-20.92-59.2-32.4-79.09-38.21Z"/><path class="cls-4" d="M1207.53,445.61a9.11,9.11,0,0,0,6.47,2.68h0a9.15,9.15,0,0,0,9.15-9.15V373.9h-18.3v65.24A9.11,9.11,0,0,0,1207.53,445.61Z"/><rect class="cls-4" x="1204.85" y="355" width="18.3" height="7.65"/><path d="M1214,451.29h0a12.15,12.15,0,0,0,12.15-12.15V373.9h-3v65.24a9.15,9.15,0,0,1-9.15,9.15h0a9.15,9.15,0,0,1-9.15-9.15V373.9h-3v65.24A12.15,12.15,0,0,0,1214,451.29Z"/><rect x="1201.85" y="355" width="3" height="7.65"/><rect x="1223.15" y="355" width="3" height="7.65"/><rect class="cls-5" x="1198.98" y="334.99" width="30.05" height="17.01"/><path d="M1204.85,355h25.67a1.5,1.5,0,0,0,1.5-1.5v-20a1.52,1.52,0,0,0-.44-1.06,1.5,1.5,0,0,0-1.06-.44h-33a1.52,1.52,0,0,0-1.07.44,1.55,1.55,0,0,0-.43,1.06v20a1.55,1.55,0,0,0,.43,1.06,1.52,1.52,0,0,0,1.07.44h7.37ZM1199,335h30v17h-30Z"/><path class="cls-4" d="M1272,445.61a9.08,9.08,0,0,0,6.46,2.68h0a9.13,9.13,0,0,0,9.14-9.15V373.9h-18.29v65.24A9.11,9.11,0,0,0,1272,445.61Z"/><rect class="cls-4" x="1269.29" y="355" width="18.3" height="7.65"/><path d="M1278.43,451.29h0a12.14,12.14,0,0,0,12.14-12.15V373.9h-3v65.24a9.13,9.13,0,0,1-9.14,9.15h0a9.15,9.15,0,0,1-9.14-9.15V373.9h-3v65.24A12.15,12.15,0,0,0,1278.43,451.29Z"/><rect x="1266.29" y="355" width="3" height="7.65"/><rect x="1287.58" y="355" width="3" height="7.65"/><rect class="cls-5" x="1263.41" y="334.99" width="30.05" height="17.01"/><path d="M1269.29,355H1295a1.5,1.5,0,0,0,1.5-1.5v-20a1.5,1.5,0,0,0-1.5-1.5h-33a1.5,1.5,0,0,0-1.5,1.5v20a1.5,1.5,0,0,0,1.5,1.5h7.38Zm-5.88-20h30v17h-30Z"/><rect class="cls-4" x="1333.73" y="355" width="18.3" height="7.65"/><path class="cls-4" d="M1336.4,445.61a9.11,9.11,0,0,0,6.47,2.68h0a9.15,9.15,0,0,0,9.14-9.15V373.9h-18.29v65.24A9.14,9.14,0,0,0,1336.4,445.61Z"/><path d="M1342.87,451.29h0A12.15,12.15,0,0,0,1355,439.14V373.9h-3v65.24a9.15,9.15,0,0,1-9.14,9.15h0a9.13,9.13,0,0,1-9.14-9.15V373.9h-3v65.24A12.14,12.14,0,0,0,1342.87,451.29Z"/><rect x="1352.02" y="355" width="3" height="7.65"/><rect x="1330.73" y="355" width="3" height="7.65"/><rect class="cls-5" x="1327.85" y="334.99" width="30.05" height="17.01"/><path d="M1333.73,355h25.67a1.52,1.52,0,0,0,1.06-.44,1.5,1.5,0,0,0,.44-1.06v-20a1.5,1.5,0,0,0-1.5-1.5h-33.05a1.5,1.5,0,0,0-1.5,1.5v20a1.5,1.5,0,0,0,1.5,1.5h7.38Zm-5.88-20h30.05v17h-30.05Z"/><polygon points="1370.23 464.57 1186.64 464.57 1171.78 464.57 1171.78 468.84 1385.09 468.84 1385.09 464.57 1370.23 464.57"/><path d="M1386.59,464.57h-1.5v4.27h3v-5.77a1.5,1.5,0,0,1-1.5,1.5Z"/><path d="M1369.17,464.13a1.48,1.48,0,0,1-.44-1.06v-1.5H1188.14v1.5a1.49,1.49,0,0,1-1.5,1.5h183.59A1.5,1.5,0,0,1,1369.17,464.13Z"/><path d="M1171.78,468.84v-4.27h-1.5a1.52,1.52,0,0,1-1.06-.44,1.48,1.48,0,0,1-.44-1.06v5.77Z"/><path class="cls-4" d="M1185.14,372.4a1.5,1.5,0,0,1,1.5-1.5h183.59a1.5,1.5,0,0,1,1.5,1.5v89.17h13.36V365.64H1171.78v95.93h13.36Z"/><path d="M1170.28,464.57h16.36a1.49,1.49,0,0,0,1.5-1.5V373.9h180.59v89.17a1.48,1.48,0,0,0,.44,1.06,1.5,1.5,0,0,0,1.06.44h16.36a1.5,1.5,0,0,0,1.5-1.5V364.14a1.52,1.52,0,0,0-.44-1.06,1.5,1.5,0,0,0-1.06-.44H1170.28a1.5,1.5,0,0,0-1.5,1.5v98.93a1.48,1.48,0,0,0,.44,1.06A1.52,1.52,0,0,0,1170.28,464.57Zm1.5-98.93h213.31v95.93h-13.36V372.4a1.5,1.5,0,0,0-1.5-1.5H1186.64a1.5,1.5,0,0,0-1.5,1.5v89.17h-13.36Z"/><path class="cls-4" d="M1174.35,959.73h218.21V492.26H1174.35Zm107.81-427.81a74.31,74.31,0,1,1-74.36,74.31A74.33,74.33,0,0,1,1282.16,531.92Z"/><path d="M1392.56,492.26V959.73H1174.35V492.26h-3v469a1.52,1.52,0,0,0,.44,1.06,1.5,1.5,0,0,0,1.06.44h221.21a1.52,1.52,0,0,0,1.07-.44,1.55,1.55,0,0,0,.43-1.06v-469Z"/><rect class="cls-4" x="1134.28" y="471.84" width="295.75" height="17.42"/><path d="M1432.6,469.28a1.52,1.52,0,0,0-1.06-.44H1132.79a1.52,1.52,0,0,0-1.07.44,1.55,1.55,0,0,0-.43,1.06v20.42a1.55,1.55,0,0,0,.43,1.06,1.52,1.52,0,0,0,1.07.44h298.75a1.52,1.52,0,0,0,1.06-.44,1.5,1.5,0,0,0,.44-1.06V470.34A1.52,1.52,0,0,0,1432.6,469.28Zm-298.32,2.56H1430v17.42H1134.28Z"/><path class="cls-4" d="M1231.7,656.65a71.27,71.27,0,1,0-20.9-50.42A71.15,71.15,0,0,0,1231.7,656.65Zm9.32-62.57a1.52,1.52,0,0,1,.44-1.06,1.5,1.5,0,0,1,1.06-.44h26v-26a1.5,1.5,0,0,1,1.5-1.5h24.32a1.5,1.5,0,0,1,1.5,1.5v26h26a1.5,1.5,0,0,1,1.06.44,1.52,1.52,0,0,1,.44,1.06v24.3a1.52,1.52,0,0,1-.44,1.06,1.5,1.5,0,0,1-1.06.44h-26v26a1.5,1.5,0,0,1-1.5,1.5H1270a1.5,1.5,0,0,1-1.5-1.5v-26h-26a1.5,1.5,0,0,1-1.06-.44,1.52,1.52,0,0,1-.44-1.06Z"/><path d="M1282.16,680.54a74.31,74.31,0,1,0-74.36-74.31A74.33,74.33,0,0,0,1282.16,680.54Zm0-145.62a71.34,71.34,0,1,1-50.46,20.89A71.15,71.15,0,0,1,1282.16,534.92Z"/><path class="cls-5" d="M1271.06,617.32a1.5,1.5,0,0,1,.44,1.06v26h21.32v-26a1.5,1.5,0,0,1,1.5-1.5h26v-21.3h-26a1.5,1.5,0,0,1-1.5-1.5v-26H1271.5v26a1.5,1.5,0,0,1-.44,1.06,1.48,1.48,0,0,1-1.06.44h-26v21.3h26A1.48,1.48,0,0,1,1271.06,617.32Z"/><path d="M1242.52,619.88h26v26a1.5,1.5,0,0,0,1.5,1.5h24.32a1.5,1.5,0,0,0,1.5-1.5v-26h26a1.5,1.5,0,0,0,1.06-.44,1.52,1.52,0,0,0,.44-1.06v-24.3a1.52,1.52,0,0,0-.44-1.06,1.5,1.5,0,0,0-1.06-.44h-26v-26a1.5,1.5,0,0,0-1.5-1.5H1270a1.5,1.5,0,0,0-1.5,1.5v26h-26a1.5,1.5,0,0,0-1.06.44,1.52,1.52,0,0,0-.44,1.06v24.3a1.52,1.52,0,0,0,.44,1.06A1.5,1.5,0,0,0,1242.52,619.88Zm1.5-24.3h26a1.48,1.48,0,0,0,1.06-.44,1.5,1.5,0,0,0,.44-1.06v-26h21.32v26a1.5,1.5,0,0,0,1.5,1.5h26v21.3h-26a1.5,1.5,0,0,0-1.5,1.5v26H1271.5v-26a1.5,1.5,0,0,0-.44-1.06,1.48,1.48,0,0,0-1.06-.44h-26Z"/><ellipse class="cls-4" cx="120.16" cy="370.64" rx="26.47" ry="26.54"/><path d="M83,372.14a35.59,35.59,0,0,1,35.59,35.6,1.5,1.5,0,0,0,1.5,1.5h.06a1.5,1.5,0,0,0,1.5-1.5,35.59,35.59,0,0,1,35.59-35.6,1.5,1.5,0,0,0,1.5-1.5,1.52,1.52,0,0,0-.44-1.06,1.5,1.5,0,0,0-1.06-.44,35.58,35.58,0,0,1-35.59-35.59,1.5,1.5,0,0,0-.44-1.06,1.52,1.52,0,0,0-1.06-.44h-.06a1.52,1.52,0,0,0-1.06.44,1.5,1.5,0,0,0-.44,1.06A35.58,35.58,0,0,1,83,369.14a1.5,1.5,0,0,0-1.5,1.5A1.5,1.5,0,0,0,82,371.7,1.52,1.52,0,0,0,83,372.14Zm37.12-28a38.64,38.64,0,0,0,26.47,26.54,38.66,38.66,0,0,0-26.47,26.54,38.66,38.66,0,0,0-26.47-26.54A38.64,38.64,0,0,0,120.16,344.1Z"/><ellipse class="cls-4" cx="1180.94" cy="180.93" rx="26.47" ry="26.54"/><path d="M1143.82,182.43a35.59,35.59,0,0,1,35.6,35.59,1.5,1.5,0,0,0,1.5,1.5h0a1.46,1.46,0,0,0,1.06-.44,1.5,1.5,0,0,0,.44-1.06,35.59,35.59,0,0,1,35.59-35.59,1.52,1.52,0,0,0,1.07-.44,1.55,1.55,0,0,0,.43-1.06,1.49,1.49,0,0,0-1.5-1.5,35.61,35.61,0,0,1-35.59-35.6,1.52,1.52,0,0,0-.44-1.06,1.5,1.5,0,0,0-1.06-.44h0a1.5,1.5,0,0,0-1.06.44,1.52,1.52,0,0,0-.44,1.06,35.61,35.61,0,0,1-35.6,35.6,1.52,1.52,0,0,0-1.06.44,1.5,1.5,0,0,0-.44,1.06,1.5,1.5,0,0,0,1.5,1.5Zm37.12-28a38.65,38.65,0,0,0,26.48,26.54,38.63,38.63,0,0,0-26.48,26.54,38.64,38.64,0,0,0-26.47-26.54A38.66,38.66,0,0,0,1180.94,154.39Z"/><path class="cls-4" d="M573.15,802.76a38.64,38.64,0,0,1-26.47,26.54,38.66,38.66,0,0,1,26.47,26.54,38.66,38.66,0,0,1,26.47-26.54A38.64,38.64,0,0,1,573.15,802.76Z"/><path d="M574.24,791.15a1.52,1.52,0,0,0-1.07-.44h0a1.52,1.52,0,0,0-1.06.44,1.5,1.5,0,0,0-.44,1.06A35.58,35.58,0,0,1,536,827.8a1.5,1.5,0,0,0-1.06.44,1.52,1.52,0,0,0-.44,1.06,1.5,1.5,0,0,0,1.5,1.5,35.59,35.59,0,0,1,35.59,35.6,1.5,1.5,0,0,0,1.5,1.5h0a1.52,1.52,0,0,0,1.07-.44,1.55,1.55,0,0,0,.43-1.06,35.61,35.61,0,0,1,35.6-35.6,1.52,1.52,0,0,0,1.06-.44,1.5,1.5,0,0,0,.44-1.06,1.5,1.5,0,0,0-1.5-1.5,35.59,35.59,0,0,1-35.6-35.59A1.53,1.53,0,0,0,574.24,791.15Zm-1.09,64.69a38.66,38.66,0,0,0-26.47-26.54,38.64,38.64,0,0,0,26.47-26.54,38.64,38.64,0,0,0,26.47,26.54A38.66,38.66,0,0,0,573.15,855.84Z"/><path class="cls-3" d="M105.42,549.78A22.22,22.22,0,1,0,127.65,572,22.22,22.22,0,0,0,105.42,549.78Zm0,37A14.74,14.74,0,1,1,120.16,572,14.75,14.75,0,0,1,105.42,586.73Z"/><path class="cls-3" d="M1120,674.87a22.22,22.22,0,1,0-22.23-22.22A22.23,22.23,0,0,0,1120,674.87Zm0-37a14.74,14.74,0,1,1-14.74,14.73A14.74,14.74,0,0,1,1120,637.92Z"/><path class="cls-3" d="M488.41,679a22.24,22.24,0,1,0,22.23-22.22A22.22,22.22,0,0,0,488.41,679Zm37,0a14.75,14.75,0,1,1-14.74-14.74A14.73,14.73,0,0,1,525.38,679Z"/><path class="cls-4" d="M53.5,749.36V795h85.35V749.36ZM69.93,789a1.5,1.5,0,0,1-3,0V752.89a1.5,1.5,0,0,1,3,0Zm18.5,0a1.5,1.5,0,0,1-3,0V752.89a1.5,1.5,0,0,1,3,0Zm18.49,0a1.5,1.5,0,0,1-3,0V752.89a1.5,1.5,0,0,1,3,0Zm17,1.5a1.5,1.5,0,0,1-1.5-1.5V752.89a1.5,1.5,0,0,1,3,0V789A1.5,1.5,0,0,1,123.91,790.51Z"/><path d="M141.85,795V747.86a1.52,1.52,0,0,0-.44-1.07,1.55,1.55,0,0,0-1.06-.43H52a1.49,1.49,0,0,0-1.5,1.5V795ZM53.5,795V749.36h85.35V795Z"/><path class="cls-4" d="M52,930.68a1.48,1.48,0,0,1-1.06-.44,1.5,1.5,0,0,1-.44-1.06v-60a1.5,1.5,0,0,1,1.5-1.5H189.34V843.06a45,45,0,0,0-45-45H48a45,45,0,0,0-45,45V984.34H189.34V930.68Z"/><path d="M192.34,985.84V929.18a1.5,1.5,0,0,1-.44,1.06,1.52,1.52,0,0,1-1.06.44h-1.5v53.66H3V843.06a45,45,0,0,1,45-45h96.3a45,45,0,0,1,45,45V867.7h1.5a1.52,1.52,0,0,1,1.06.44,1.48,1.48,0,0,1,.44,1.06V843.06a48,48,0,0,0-48-48H48a48,48,0,0,0-48,48V985.84a1.52,1.52,0,0,0,.44,1.07,1.53,1.53,0,0,0,1.06.43H190.84a1.54,1.54,0,0,0,.86-.27,1.56,1.56,0,0,0,.2-.16A1.52,1.52,0,0,0,192.34,985.84Z"/><path d="M68.43,751.39a1.5,1.5,0,0,0-1.5,1.5V789a1.5,1.5,0,0,0,3,0V752.89A1.5,1.5,0,0,0,68.43,751.39Z"/><path d="M86.93,751.39a1.5,1.5,0,0,0-1.5,1.5V789a1.5,1.5,0,0,0,3,0V752.89A1.5,1.5,0,0,0,86.93,751.39Z"/><path d="M105.42,751.39a1.5,1.5,0,0,0-1.5,1.5V789a1.5,1.5,0,0,0,3,0V752.89A1.5,1.5,0,0,0,105.42,751.39Z"/><path d="M123.91,751.39a1.5,1.5,0,0,0-1.5,1.5V789a1.5,1.5,0,0,0,3,0V752.89A1.5,1.5,0,0,0,123.91,751.39Z"/><rect class="cls-5" x="53.5" y="870.7" width="135.84" height="56.98"/><path d="M190.84,867.7H52a1.5,1.5,0,0,0-1.5,1.5v60a1.5,1.5,0,0,0,.44,1.06,1.48,1.48,0,0,0,1.06.44H190.84a1.52,1.52,0,0,0,1.06-.44,1.5,1.5,0,0,0,.44-1.06v-60a1.48,1.48,0,0,0-.44-1.06A1.52,1.52,0,0,0,190.84,867.7Zm-137.34,60v-57H189.34v57Z"/><path d="M444.6,514a12.3,12.3,0,0,1-4.12,2.72,36.24,36.24,0,0,1-9.65,2.38,89.4,89.4,0,0,1-11.4.65c-5.06,0-9.85-.31-13.37-.62-1.76-.15-3.2-.31-4.2-.42l-1.16-.14-.39,0a1.5,1.5,0,0,0-.41,3h0a162.39,162.39,0,0,0,19.53,1.26A81.69,81.69,0,0,0,435,521.43a33.26,33.26,0,0,0,6.72-2A15.2,15.2,0,0,0,446.8,516a1.5,1.5,0,0,0-2.2-2Z"/><path d="M961.89,142a1.5,1.5,0,0,0-1.33,1.65h0l.12,1,4.5,40.73-16.55,18.74a1.5,1.5,0,0,0-.32,1.39l8.29,29.91a245.53,245.53,0,0,0-14,20.57,153.73,153.73,0,0,0-10.1,19.38q-1.31,3.11-2.33,6.17a47,47,0,0,0-2.65,13,1.51,1.51,0,0,0,1.45,1.55,1.52,1.52,0,0,0,1.55-1.45c.16-5.31,2-11.66,4.75-18.13,4.09-9.72,10.13-19.71,15.15-27.26,2.5-3.77,4.75-6.93,6.37-9.14.81-1.11,1.47-2,1.92-2.58l.51-.67.18-.23a1.49,1.49,0,0,0,.26-1.32l-8.27-29.85,16.44-18.62a1.5,1.5,0,0,0,.37-1.16l-4.44-40.22-.24-2.2a1.51,1.51,0,0,0-1-1.27h0A1.51,1.51,0,0,0,961.89,142Z"/><path d="M847.75,206.2a1.5,1.5,0,0,0,.68,1.38l13.8,8.93-7.12,33.66a1.49,1.49,0,0,0,.32,1.28l.36.42c1.76,2.13,9.78,11.88,17.48,23.18a165.18,165.18,0,0,1,10.49,17.32,67.35,67.35,0,0,1,3.51,8,26.59,26.59,0,0,1,1.56,6.71h0a1.37,1.37,0,0,0,.1.41,1.49,1.49,0,0,0,2.89-.44c0-.06,0-.12,0-.19a31,31,0,0,0-1.92-8c-.59-1.62-1.3-3.29-2.1-5a115.65,115.65,0,0,0-6-11.12c-9-14.86-21.1-29.66-23.61-32.67l7.18-34a1.51,1.51,0,0,0-.65-1.57l-13.91-9,4.28-53.77,0-.28a1.5,1.5,0,1,0-3-.24h0l-.24,3Z"/><path d="M967.27,456.05l-.31,0h-.09a1.5,1.5,0,1,0-.26,3h0s2.48.21,6.26.21a91.09,91.09,0,0,0,17.61-1.62c6.59-1.34,13.31-3.69,18.32-8a1.5,1.5,0,1,0-2-2.28c-4.38,3.76-10.65,6-17,7.3a87.88,87.88,0,0,1-17,1.56c-1.84,0-3.35-.05-4.39-.1C968,456.1,967.55,456.07,967.27,456.05Z"/><path d="M864.9,456.29a25.65,25.65,0,0,1-4.76.84c-1.84.17-3.86.24-5.91.24-4.1,0-8.33-.28-11.52-.57-1.59-.14-2.93-.28-3.87-.39l-1.08-.13-.38,0a1.5,1.5,0,1,0-.39,3h0a152.32,152.32,0,0,0,17.24,1.16c2.12,0,4.23-.07,6.19-.26a27.72,27.72,0,0,0,5.34-.95,1.5,1.5,0,1,0-.86-2.87Z"/></g></g></svg>