<svg xmlns="http://www.w3.org/2000/svg" viewBox="0 0 1454.16 1100"><defs><style>.cls-1{fill:none;}.cls-2{fill:#d0d5d8;}.cls-3{fill:#eff0f1;}.cls-4{fill:#c1bebc;}.cls-5{fill:#fff;}.cls-6{fill:#61c3da;}</style></defs><g id="Layer_2" data-name="Layer 2"><g id="_6" data-name="6"><path class="cls-1" d="M139.68,777.88c-5.53-6.15-11.44-12.47-17.37-19.17-12.24,13.82-24.34,26-33.39,38.47-.93,1.27-1.81,2.55-2.67,3.83h72.12A215,215,0,0,0,139.68,777.88Z"/><path class="cls-1" d="M104.9,895.73c5.54,5.6,11.46,11.31,17.41,17.35,7.53-7.64,15-14.75,21.75-21.78a157.31,157.31,0,0,0,14.33-16.83H86.26A180.45,180.45,0,0,0,104.9,895.73Z"/><path class="cls-1" d="M82.55,868.93c.52.86,1.08,1.7,1.63,2.54h76.28a71.56,71.56,0,0,0,6.48-12,55,55,0,0,0,4.1-17.78H73.59C74.19,851.75,77.46,860.58,82.55,868.93Z"/><path class="cls-1" d="M122.32,917.37a232.25,232.25,0,0,0-21.2,24.57h42.39A233.34,233.34,0,0,0,122.32,917.37Z"/><path class="cls-1" d="M1312.81,973.66a16.07,16.07,0,1,0,16.08,16.07A16.08,16.08,0,0,0,1312.81,973.66Z"/><path class="cls-1" d="M161.27,973.58H83.37a137.35,137.35,0,0,0-8.76,34.91H170A137.36,137.36,0,0,0,161.27,973.58Z"/><path class="cls-1" d="M162.06,806.86c-.55-1-1.14-1.9-1.74-2.85h-76c-6.67,10.66-10.81,21.68-10.81,34.31v.34h97.66c0-.12,0-.23,0-.34C171.14,826.81,167.72,816.65,162.06,806.86Z"/><path class="cls-1" d="M158.93,698.13H85.7a166.46,166.46,0,0,0,13.42,25.66h46.36a168.79,168.79,0,0,0,10.08-18.1Q157.33,702,158.93,698.13Z"/><path class="cls-1" d="M75.35,660.23a158.08,158.08,0,0,0,9.15,34.9h75.62a158.08,158.08,0,0,0,9.15-34.9Z"/><path class="cls-1" d="M101.07,726.79c1.31,2,2.63,3.9,4,5.79,5.51,7.72,11.37,14.84,17.26,21.59a260.57,260.57,0,0,0,21.24-27.38Z"/><path class="cls-1" d="M146,945.43c-.11-.17-.23-.33-.35-.49H99A143.77,143.77,0,0,0,89,961.2q-2.37,4.53-4.44,9.39H160A141.49,141.49,0,0,0,146,945.43Z"/><path class="cls-2" d="M1212.7,887a10.68,10.68,0,0,1,.67-2l-.23,0a10.24,10.24,0,0,1-1-.33,251.37,251.37,0,0,0-25.3,32.16v3.66A250.18,250.18,0,0,1,1212.7,887Z"/><path class="cls-2" d="M1258.83,847.69a8.21,8.21,0,0,1-.26-2.23A256.26,256.26,0,0,0,1228.1,869a27.82,27.82,0,0,1-.64,3.27A253.62,253.62,0,0,1,1258.83,847.69Z"/><path class="cls-2" d="M1277,836.67a289.73,289.73,0,0,1,40-18.31c4.47-1.65,8.9-3.16,13.27-4.56a9,9,0,0,1-2.35-1.34c-3.83,1.25-7.7,2.58-11.62,4a291,291,0,0,0-43.19,20c.3,0,.59,0,.89,0A25.29,25.29,0,0,1,1277,836.67Z"/><path class="cls-2" d="M1342.44,810.18a339.2,339.2,0,0,1,49.45-9.76,8,8,0,0,1-.63-1.94,342.57,342.57,0,0,0-46.39,9A22.47,22.47,0,0,1,1342.44,810.18Z"/><path class="cls-2" d="M1250.57,735.7a406.61,406.61,0,0,0-31.37,29.61,21.75,21.75,0,0,1,3.6-.87,405.21,405.21,0,0,1,29.67-27.73,6.66,6.66,0,0,1-1.9-1Z"/><path class="cls-2" d="M1418,646.74c-3.67,1-9,2.48-15.74,4.64a26.68,26.68,0,0,1,3.73.92c3-.95,5.77-1.76,8.11-2.42,1.64-.46,3.09-.86,4.35-1.19a7.2,7.2,0,0,1-.28-.9A9.56,9.56,0,0,1,1418,646.74Z"/><path class="cls-2" d="M1387.17,656.57a456.57,456.57,0,0,0-43.9,18.75,29.74,29.74,0,0,1,3.73.26l.24,0c14.52-7,27.79-12.43,39.07-16.6a9.28,9.28,0,0,1,.65-2.1C1387,656.8,1387.1,656.69,1387.17,656.57Z"/><path class="cls-2" d="M1207.75,777.86q-8.31,9.51-16.25,19.89a25.4,25.4,0,0,1,.38,2.82q7.83-10.38,16.07-19.9c0-.22-.11-.44-.14-.67A11,11,0,0,1,1207.75,777.86Z"/><path class="cls-2" d="M1326.1,684.18c-8.6,4.66-17.47,9.82-26.51,15.54-8.74,5.52-17.62,11.57-26.54,18.16-.35,1.16-.74,2.29-1.18,3.38,9.67-7.25,19.32-13.86,28.79-19.85,8.47-5.36,16.8-10.22,24.89-14.65,0-.21,0-.42,0-.63A9.17,9.17,0,0,1,1326.1,684.18Z"/><path class="cls-2" d="M1167.89,832.48c.57.35,1.12.72,1.67,1.1q4.95-8.24,10.18-16a11.13,11.13,0,0,1-2.13-.41Q1172.63,824.63,1167.89,832.48Z"/><path class="cls-2" d="M1103.51,763.33a5.31,5.31,0,0,1-1.3-.77,5,5,0,0,1-.58-.55,639.21,639.21,0,0,1-9.32,64.5h2A638.35,638.35,0,0,0,1103.51,763.33Z"/><path class="cls-2" d="M1107.58,695a7,7,0,0,1-2-.57c-.23,10.25-.69,22.82-1.54,36.79a38.93,38.93,0,0,1,1.75,4C1106.8,719.86,1107.32,706.09,1107.58,695Z"/><path class="cls-3" d="M1102.21,762.56a5.31,5.31,0,0,0,1.3.77c3,1.27,7.28.31,12.21-2a70.9,70.9,0,0,0,9.17-5.34A134.66,134.66,0,0,0,1144,740.13a71.25,71.25,0,0,0,6.94-8c3.71-5.12,5.46-9.79,3.71-13.06s-6.79-4.35-13.64-2.95a46.14,46.14,0,0,0-11.22,4,64.73,64.73,0,0,0-21.94,18.22l-.74,1a27.2,27.2,0,0,1,.54,2.84c.58,4.4,0,8.11-1.19,10.57s-2.91,3.7-4.73,3.82a5.33,5.33,0,0,1-1.73-.16,7.83,7.83,0,0,0,1.67,5.61A5,5,0,0,0,1102.21,762.56Z"/><path class="cls-3" d="M1101.69,756.56c1.82-.12,3.52-1.34,4.73-3.82s1.77-6.17,1.19-10.57a27.2,27.2,0,0,0-.54-2.84,33.5,33.5,0,0,0-1.27-4.17,38.93,38.93,0,0,0-1.75-4c-.52-1-1.09-2.06-1.71-3.08a54.07,54.07,0,0,0-11.35-13,75.72,75.72,0,0,0-12.86-8.58,73.26,73.26,0,0,0-10.76-4.7A32.09,32.09,0,0,0,1059,700c-2.37-.12-4.36.3-5.72,1.55s-1.93,3.22-1.61,5.8a22.92,22.92,0,0,0,3.63,9,57.67,57.67,0,0,0,8.18,9.93c3.25,3.25,6.84,6.35,10.37,9.29s6.51,5.48,9.24,7.83l7.21,6.29c2.11,1.86,4.06,3.53,5.87,4.83a11.63,11.63,0,0,0,3.76,1.88A5.33,5.33,0,0,0,1101.69,756.56Z"/><path class="cls-3" d="M1107.85,695c7.33.72,14.37-10,15.73-23.88s-3.47-25.75-10.8-26.47-14.36,10-15.72,23.88c-1.22,12.41,2.51,23.19,8.53,25.86a7,7,0,0,0,2,.57Z"/><path class="cls-3" d="M1213.37,885a11.23,11.23,0,0,0-1,4.27,15.51,15.51,0,0,0,3.35,9.64,13.41,13.41,0,0,0,16.82,4.41,15.55,15.55,0,0,0,7.66-6.75,11,11,0,0,0,0-10.46,15.89,15.89,0,0,0-10.12-7.68,17.55,17.55,0,0,0-4.92-.56,19,19,0,0,1-1.54,2.4C1220.66,884.16,1216.84,885.77,1213.37,885Z"/><path class="cls-3" d="M1213.37,885c3.47.78,7.29-.83,10.3-4.73a19,19,0,0,0,1.54-2.4,24,24,0,0,0,2.11-5.09c0-.18.09-.37.14-.55a27.82,27.82,0,0,0,.64-3.27,30.93,30.93,0,0,0,.23-6,29.91,29.91,0,0,0-2.24-9.59,22.18,22.18,0,0,0-4.56-7c-3.55-3.57-7.64-4.66-11-3.32s-5.67,4.67-7.08,8.51a29.1,29.1,0,0,0-1.47,6.2,36.63,36.63,0,0,0,.86,13.62,30.07,30.07,0,0,0,2.24,6c1.7,3.28,4,6,7.12,7.21a10.24,10.24,0,0,0,1,.33Z"/><path class="cls-3" d="M1258.83,847.69c0,.1.05.21.08.31a17,17,0,0,0,2.3,4.34,19.91,19.91,0,0,1,1.2,2.08,7.62,7.62,0,0,0,.95,2.06,6.28,6.28,0,0,0,.42.51l.59.54c.4.35.82.68,1.25,1a27.15,27.15,0,0,0,2.76,1.86,32.39,32.39,0,0,0,6.45,2.89,29.53,29.53,0,0,0,13.42,1.29c4.08-.65,7.68-2.37,9.55-5.55s1.49-7.29-1.12-11.3-7.42-7.78-13.62-9.79a29.87,29.87,0,0,0-6.07-1.27,25.29,25.29,0,0,0-3-.17c-.3,0-.59,0-.89,0a23.73,23.73,0,0,0-3.22.32c-.64.12-1.27.27-1.88.43l-1.88.55a17.67,17.67,0,0,0-4.08,1.69,7.87,7.87,0,0,0-2.57,2.61,6.67,6.67,0,0,0-.92,3.32A8.21,8.21,0,0,0,1258.83,847.69Z"/><path class="cls-3" d="M1274.42,787.64c-3.69-.17-7.12,2.43-9.93,6.44a49,49,0,0,0-7.1,32.61c.89,4.82,2.93,8.6,6.36,10s7.6-.06,11.47-3.87,7.29-10,8.9-17.37,1.06-14.46-.88-19.51S1278.08,787.81,1274.42,787.64Z"/><path class="cls-3" d="M1333.06,814.37a6.62,6.62,0,0,0-.85,1.54c-1.31,3.46.33,7.6,3.65,11.67a58.94,58.94,0,0,0,31.7,18.11c5.19.79,9.6.09,11.91-2.79s2-7.44-.84-12.46-8.09-10.4-15.14-14.43-14.39-5.86-20.12-5.71l-1.12.05c-.32.29-.63.59-1,.85A12.55,12.55,0,0,1,1333.06,814.37Z"/><path class="cls-3" d="M1330.33,813.83a8.5,8.5,0,0,0,2.73.54,12.55,12.55,0,0,0,8.24-3.17c.32-.26.63-.56,1-.85l.19-.17a22.47,22.47,0,0,0,2.43-2.74,29.25,29.25,0,0,0,4.77-9.76,26.86,26.86,0,0,0-.06-15.88c-1.53-4.33-4.38-7.28-8-8s-7.31.95-10.43,4a30.46,30.46,0,0,0-7.65,27.2,13.65,13.65,0,0,0,4.42,7.46,9,9,0,0,0,2.35,1.34Z"/><path class="cls-3" d="M1416.74,809.2c13.6-1,24.2-7.73,23.67-15.07s-12-12.49-25.59-11.51-24.2,7.72-23.67,15.06a7,7,0,0,0,.11.8,8,8,0,0,0,.63,1.94C1394.69,806.25,1404.9,810.05,1416.74,809.2Z"/><path class="cls-3" d="M1191,795.69a22.29,22.29,0,0,0-8.42-12.34c-3.62-2.46-7.58-3-10.89-1.42s-5.48,4.81-6.53,8.58a24.25,24.25,0,0,0,6.65,23.25,15.07,15.07,0,0,0,5.8,3.41,11.13,11.13,0,0,0,2.13.41,10.3,10.3,0,0,0,2.15,0c3.64-.43,6.72-3,8.5-7a20.67,20.67,0,0,0,1.49-10,25.4,25.4,0,0,0-.38-2.82C1191.36,797.07,1191.2,796.38,1191,795.69Z"/><path class="cls-3" d="M1207.75,777.86a11,11,0,0,0,.06,2.14c0,.23.1.45.14.67,1.45,6.9,9.7,11.39,18.88,10.1,9.47-1.34,16.32-8.32,15.29-15.61s-9.54-12.11-19-10.78l-.31.06a21.75,21.75,0,0,0-3.6.87C1212.68,767.47,1208.11,772.42,1207.75,777.86Z"/><path class="cls-3" d="M1273.31,717c2-7.25,1.73-14.29-.06-19.34s-5-8.13-8.6-8.38-7.16,2.18-10.08,5.93A47.41,47.41,0,0,0,1246,726.1c.51,4.17,1.93,7.68,4.53,9.6a6.66,6.66,0,0,0,1.9,1c2.3.83,5,.47,7.81-1a7.09,7.09,0,0,1-.19-1.78c.09-3.67,3.18-6.94,8.25-9.1.73-.31,1.51-.59,2.32-.86.43-.86.84-1.75,1.21-2.67.44-1.09.83-2.22,1.18-3.38C1273.14,717.6,1273.23,717.31,1273.31,717Z"/><path class="cls-3" d="M1260.09,733.89a7.09,7.09,0,0,0,.19,1.78c.7,3,3.31,5.73,7.1,7.94a50.93,50.93,0,0,0,36.19,4c5-1.59,8.52-4.27,9.24-7.89s-1.6-7.47-6.07-10.69-11.11-5.72-18.71-6.56a42.55,42.55,0,0,0-17.37,1.47c-.81.27-1.59.55-2.32.86C1263.27,727,1260.18,730.22,1260.09,733.89Z"/><path class="cls-3" d="M1343.27,675.32c-.69,0-1.38,0-2,.06-.32.35-.65.69-1,1-4,3.83-8.19,5.23-11.52,3.87a10.52,10.52,0,0,0-2.62,3.93,9.17,9.17,0,0,0-.51,2c0,.21,0,.42,0,.63-.46,7.06,7.35,13.8,17.88,15.23,10.84,1.46,20.42-3.26,21.41-10.55s-6.89-14.28-17.6-15.82l-.24,0A29.74,29.74,0,0,0,1343.27,675.32Z"/><path class="cls-3" d="M1340.24,676.38c.33-.31.66-.65,1-1a38.07,38.07,0,0,0,8.51-16.9c1.8-7.67,1.37-15-.51-20.25s-5.1-8.44-8.75-8.62-7.13,2.5-10,6.63a54.22,54.22,0,0,0-7.9,33.57c.72,5,2.6,8.9,6,10.38l.15.06C1332.05,681.61,1336.27,680.21,1340.24,676.38Z"/><path class="cls-3" d="M1401.84,651.31a16.49,16.49,0,0,1-2.1,1.63c-3.68,2.4-7.61,2.91-10.86,1.36a8.8,8.8,0,0,0-1.71,2.27c-.07.12-.15.23-.21.35a9.28,9.28,0,0,0-.65,2.1,13.29,13.29,0,0,0,1.84,9,29.58,29.58,0,0,0,24,14c4.28,0,8.05-1.4,10.2-4.4s2.19-7.06.32-11.23a26.24,26.24,0,0,0-10.81-11.4,30.28,30.28,0,0,0-5.86-2.63,26.68,26.68,0,0,0-3.73-.92Z"/><path class="cls-3" d="M1399.74,652.94a16.49,16.49,0,0,0,2.1-1.63,25,25,0,0,0,6.93-10.71,23.85,23.85,0,0,0,.32-15.29c-1.48-4.2-4.36-7-8-7.72s-7.28.75-10.37,3.38a26.54,26.54,0,0,0-8.22,24.29c.86,4,2.88,7.34,6.18,9a1,1,0,0,0,.16.06C1392.13,655.85,1396.06,655.34,1399.74,652.94Z"/><path class="cls-3" d="M1452.29,631.81c-2.24-2.93-5.86-4.33-9.74-4.65a25.35,25.35,0,0,0-21.73,10.17,13.7,13.7,0,0,0-2.84,9.41,9.56,9.56,0,0,0,.17,1,7.2,7.2,0,0,0,.28.9c1.07,3.13,3.82,5.57,7.79,6.69,4.31,1.24,10,.82,15.48-1.73s9.44-6.67,11.25-10.77S1454.51,634.73,1452.29,631.81Z"/><path class="cls-3" d="M848.22,1097h72a1.48,1.48,0,0,1-.43-1V1069h-58.7a39.88,39.88,0,0,1-16.85-3.72,89.12,89.12,0,0,1,4.16,26.76C848.39,1093.72,848.32,1095.36,848.22,1097Z"/><path class="cls-3" d="M205.89,1092.07c0-23.17,9.17-45.23,25.7-65.28-49.09,8-86.91,35.72-94.51,70.21h69C206,1095.36,205.89,1093.72,205.89,1092.07Z"/><path class="cls-3" d="M821.08,1024.88V869.94c-44.86,8.78-78.31,43-78.31,83.79v.42q-8.88-.4-18-.42t-18,.43C756.64,971.6,796.51,996.1,821.08,1024.88Z"/><path class="cls-3" d="M1088.16,1096a1.47,1.47,0,0,1-.43,1h39.5c-.4-9.54-.88-18.88-1.6-28h-37.47Z"/><path class="cls-4" d="M206.07,1097h68.08l-12.38-98.68a179.18,179.18,0,0,0-30.18,28.47c-16.53,20-25.7,42.11-25.7,65.28C205.89,1093.72,206,1095.36,206.07,1097Z"/><path class="cls-4" d="M673.79,975.48a1.51,1.51,0,0,1-1.7,1.45l-31.69-4.26c-2.49,20.14-5.68,40.21-9.77,58.93-5.56,25.39-12.75,48.25-22.16,65.4H848.22c.1-1.64.17-3.28.17-4.93a89.12,89.12,0,0,0-4.16-26.76A40,40,0,0,1,821.08,1029v-4.16c-24.57-28.78-64.44-53.28-114.28-70.72q-15.52-5.45-32.3-9.93C674.1,964.12,673.79,975.48,673.79,975.48Z"/><path d="M1087.72,1097a1.5,1.5,0,0,1-1.06.44H921.28a1.5,1.5,0,0,1-1.06-.44H608.47c-.42.76-.83,1.52-1.25,2.25a1.52,1.52,0,0,1-1.3.75H275.85a1.5,1.5,0,0,1-1.49-1.31l-.21-1.69H76.88a1.5,1.5,0,0,0,0,3H1135a1.5,1.5,0,0,0,0-3h-47.3Z"/><ellipse class="cls-5" cx="879.93" cy="740.8" rx="29.36" ry="29.45"/><path d="M892.87,727.9a38.87,38.87,0,0,1-11.41-27.54,1.53,1.53,0,0,0-.43-1.06,1.52,1.52,0,0,0-1.06-.44h-.07a1.5,1.5,0,0,0-1.5,1.5,38.94,38.94,0,0,1-38.95,38.94,1.5,1.5,0,0,0-1.5,1.5,1.5,1.5,0,0,0,.44,1.06,1.52,1.52,0,0,0,1.06.44,39,39,0,0,1,38.95,38.94,1.5,1.5,0,0,0,1.5,1.5H880a1.52,1.52,0,0,0,1.06-.44,1.53,1.53,0,0,0,.43-1.06,39,39,0,0,1,38.95-38.94,1.52,1.52,0,0,0,1.06-.44,1.5,1.5,0,0,0,.44-1.06,1.5,1.5,0,0,0-1.5-1.5A38.85,38.85,0,0,1,892.87,727.9Zm-12.94,42.35a42,42,0,0,0-29.36-29.45,42,42,0,0,0,29.36-29.45,42,42,0,0,0,29.36,29.45A42,42,0,0,0,879.93,770.25Z"/><ellipse class="cls-5" cx="41.98" cy="497.28" rx="29.36" ry="29.45"/><path d="M83.51,498.34a1.52,1.52,0,0,0,.44-1.06,1.5,1.5,0,0,0-1.5-1.5,39,39,0,0,1-38.94-38.94,1.48,1.48,0,0,0-.44-1.06,1.5,1.5,0,0,0-1.06-.44h-.07a1.52,1.52,0,0,0-1.06.44,1.48,1.48,0,0,0-.44,1.06A38.8,38.8,0,0,1,29,484.37,38.83,38.83,0,0,1,1.5,495.78a1.5,1.5,0,0,0-1.5,1.5,1.52,1.52,0,0,0,.44,1.06,1.5,1.5,0,0,0,1.06.44A38.82,38.82,0,0,1,29,510.18a38.82,38.82,0,0,1,11.4,27.54,1.5,1.5,0,0,0,.44,1.06,1.52,1.52,0,0,0,1.06.44H42a1.5,1.5,0,0,0,1.5-1.5,38.94,38.94,0,0,1,38.94-38.94A1.5,1.5,0,0,0,83.51,498.34ZM42,526.73a42,42,0,0,0-29.37-29.45A42,42,0,0,0,42,467.83a42,42,0,0,0,29.36,29.45A42,42,0,0,0,42,526.73Z"/><path class="cls-3" d="M1312.81,965.51a24.22,24.22,0,1,0,24.24,24.22A24.23,24.23,0,0,0,1312.81,965.51Zm0,40.28a16.07,16.07,0,1,1,16.08-16.06A16.07,16.07,0,0,1,1312.81,1005.79Z"/><path d="M104.9,895.73a180.45,180.45,0,0,1-18.64-21.26H83.47a1.5,1.5,0,0,1,0-3h.71c-.55-.84-1.11-1.68-1.63-2.54-5.09-8.35-8.36-17.18-9-27.27H72a1.5,1.5,0,0,1-1.45-1.12,57.63,57.63,0,0,0,4.39,20c4.94,12,13.5,22.38,23.48,32.79,6.83,7.11,14.31,14.24,21.81,21.85l2.1-2.14C116.36,907,110.44,901.33,104.9,895.73Z"/><path d="M172.5,658.73s0,.1,0,.15a189.67,189.67,0,0,0,1.66-25.34,1.5,1.5,0,0,0-3,0h0a186.82,186.82,0,0,1-1.48,23.69H171A1.5,1.5,0,0,1,172.5,658.73Z"/><path d="M143.51,941.94h2.82a1.5,1.5,0,0,1,0,3h-.67c.12.16.24.32.35.49a141.49,141.49,0,0,1,14,25.16h1.12a1.5,1.5,0,0,1,.11,3,137.36,137.36,0,0,1,8.74,34.91h1a1.5,1.5,0,0,1,0,3h-.66c.52,5.31.81,10.86.81,16.68a1.5,1.5,0,0,0,3,0c0-28-6.36-50.08-15.9-68.36-9.29-17.79-21.56-32-33.84-44.59-.7.71-1.4,1.43-2.09,2.15A233.34,233.34,0,0,1,143.51,941.94Z"/><path d="M72,838.66h1.5v-.34c0-12.63,4.14-23.65,10.81-34.31h-.82a1.5,1.5,0,0,1,0-3h2.78c.86-1.28,1.74-2.56,2.67-3.83,9-12.44,21.15-24.65,33.39-38.47l-2-2.27c-6,6.76-12,13.17-17.6,19.43-8.87,9.86-16.9,19.38-22.75,29.49s-9.5,20.84-9.49,33c0,.51,0,1,0,1.51A1.49,1.49,0,0,1,72,838.66Z"/><path d="M161.16,698.13h-2.23q-1.6,3.87-3.37,7.56a168.79,168.79,0,0,1-10.08,18.1h.29a1.5,1.5,0,0,1,0,3h-2.22a260.57,260.57,0,0,1-21.24,27.38c.67.76,1.34,1.51,2,2.27,6-6.89,12-14.18,17.71-22.12a174.37,174.37,0,0,0,20.51-37.09A1.5,1.5,0,0,1,161.16,698.13Z"/><path d="M171,660.23h-1.73a158.08,158.08,0,0,1-9.15,34.9h1a1.5,1.5,0,0,1,1.5,1.5,1.47,1.47,0,0,1-.11.56,161.79,161.79,0,0,0,9.91-38.13A1.49,1.49,0,0,1,171,660.23Z"/><path d="M161.16,804h-.84c.6,1,1.19,1.89,1.74,2.85,5.66,9.79,9.08,19.95,9.09,31.46,0,.11,0,.22,0,.34h1.51a1.49,1.49,0,0,1,1.47,1.21c0-.51,0-1,0-1.55,0-13.59-4.59-25.4-11.7-36.58a1.53,1.53,0,0,1,.21.77A1.5,1.5,0,0,1,161.16,804Z"/><path d="M73.63,657.23h1.31a188.93,188.93,0,0,1-1.46-23.69,1.5,1.5,0,0,0-3,0h0A189.79,189.79,0,0,0,72.15,659a2.45,2.45,0,0,1,0-.27A1.5,1.5,0,0,1,73.63,657.23Z"/><path d="M98.3,723.79h.82A166.46,166.46,0,0,1,85.7,698.13H83.47a1.49,1.49,0,0,1-1.33-.82q2,5,4.21,9.67a174.45,174.45,0,0,0,10.57,18.9,1.45,1.45,0,0,1-.12-.59A1.5,1.5,0,0,1,98.3,723.79Z"/><path d="M83.47,695.13h1a158.08,158.08,0,0,1-9.15-34.9H73.63A1.49,1.49,0,0,1,72.16,659a161.47,161.47,0,0,0,9.88,38,1.55,1.55,0,0,1-.07-.43A1.5,1.5,0,0,1,83.47,695.13Z"/><path d="M73.63,1011.49a1.5,1.5,0,1,1,0-3h1a137.35,137.35,0,0,1,8.76-34.91,1.49,1.49,0,0,1-1.4-1.49,1.51,1.51,0,0,1,1.5-1.5H84.6q2.07-4.86,4.44-9.39A143.77,143.77,0,0,1,99,944.94h-.12a1.5,1.5,0,1,1,0-3h2.26a232.25,232.25,0,0,1,21.2-24.57c.69-.72,1.39-1.44,2.09-2.15,5.93-6,11.85-11.73,17.45-17.38,8.87-9,16.92-17.74,22.78-27.34,5.5-9,9.06-18.8,9.47-30a1.5,1.5,0,0,1-1.46,1.17H171a55,55,0,0,1-4.1,17.78,71.56,71.56,0,0,1-6.48,12h.7a1.5,1.5,0,1,1,0,3h-2.77a157.31,157.31,0,0,1-14.33,16.83c-6.74,7-14.22,14.14-21.75,21.78l-2.1,2.14a226.1,226.1,0,0,0-24.06,28.5c-14.71,21.15-25.68,47.7-25.67,84.45a1.5,1.5,0,0,0,3,0c0-5.82.29-11.36.82-16.68Z"/><path d="M139.68,777.88A215,215,0,0,1,158.37,801h2.79a1.48,1.48,0,0,1,1.22.62c-1.34-2.09-2.75-4.16-4.25-6.22-9.32-12.78-21.56-25.12-33.82-39-.66-.76-1.33-1.51-2-2.27-5.89-6.75-11.75-13.87-17.26-21.59-1.35-1.89-2.67-3.82-4-5.79H98.3a1.5,1.5,0,0,1-1.15-.54,257.56,257.56,0,0,0,23.17,30.19l2,2.27C128.24,765.41,134.15,771.73,139.68,777.88Z"/><path d="M73.63,660.23H171a1.49,1.49,0,0,0,1.46-1.17,1,1,0,0,0,0-.18s0-.1,0-.15a1.5,1.5,0,0,0-1.5-1.5H73.63a1.5,1.5,0,0,0-1.5,1.5,2.45,2.45,0,0,0,0,.27s0,0,0,0A1.49,1.49,0,0,0,73.63,660.23Z"/><path d="M83.47,698.13h77.69a1.5,1.5,0,0,0,1.37-.9l0,0a1.47,1.47,0,0,0,.11-.56,1.5,1.5,0,0,0-1.5-1.5H83.47a1.5,1.5,0,0,0-1.5,1.5,1.55,1.55,0,0,0,.07.43,1.86,1.86,0,0,0,.1.25A1.49,1.49,0,0,0,83.47,698.13Z"/><path d="M98.3,726.79h47.47a1.5,1.5,0,0,0,0-3H98.3a1.5,1.5,0,0,0-1.5,1.5,1.45,1.45,0,0,0,.12.59,1.54,1.54,0,0,0,.23.37A1.5,1.5,0,0,0,98.3,726.79Z"/><path d="M172.5,1010a1.5,1.5,0,0,0-1.5-1.5H73.63a1.5,1.5,0,1,0,0,3H171A1.5,1.5,0,0,0,172.5,1010Z"/><path d="M161.16,973.59h.11a1.5,1.5,0,0,0-.11-3H83.47a1.51,1.51,0,0,0-1.5,1.5,1.49,1.49,0,0,0,1.4,1.49h77.79Z"/><path d="M146.33,944.94a1.5,1.5,0,0,0,0-3H98.86a1.5,1.5,0,1,0,0,3h47.47Z"/><path d="M161.16,801H83.47a1.5,1.5,0,0,0,0,3h77.69a1.5,1.5,0,0,0,1.5-1.5,1.53,1.53,0,0,0-.21-.77l-.07-.11A1.48,1.48,0,0,0,161.16,801Z"/><path d="M83.47,871.47a1.5,1.5,0,0,0,0,3h77.69a1.5,1.5,0,1,0,0-3H83.47Z"/><path d="M72,841.66H172.65a1.5,1.5,0,0,0,1.46-1.17,1.75,1.75,0,0,0,0-.33,1.43,1.43,0,0,0,0-.29,1.49,1.49,0,0,0-1.47-1.21H72a1.49,1.49,0,0,0-1.46,1.17,1.24,1.24,0,0,0,0,.33,1.58,1.58,0,0,0,0,.38A1.5,1.5,0,0,0,72,841.66Z"/><path class="cls-5" d="M432.8,240.68c-46.43,22.21-104.21,64.77-149.58,146.4C264,421.7,256.9,456.83,256.89,489.89c0,38.84,9.82,74.81,21.26,103.51a940.15,940.15,0,0,1,84.59-187.95h0a1.49,1.49,0,0,1,1.93-.59l80.05-169.55C440.84,237,436.87,238.73,432.8,240.68Z"/><path d="M278.15,593.4c-11.44-28.7-21.26-64.67-21.26-103.51,0-33.06,7.1-68.19,26.33-102.81,45.37-81.63,103.15-124.19,149.58-146.4,4.07-2,8-3.73,11.92-5.37l.32-.69a1.49,1.49,0,0,1,0-2.7q-6.57,2.75-13.53,6.05c-46.9,22.43-105.22,65.45-150.9,147.65-19.51,35.1-26.71,70.78-26.71,104.27,0,40.89,10.72,78.51,22.83,108C277.19,596.39,277.67,594.89,278.15,593.4Z"/><path class="cls-5" d="M1130.36,421.8c11.86-7.73,21.1-16.17,26.51-23.61,3.63-5,5.48-9.47,5.46-12.81a7.28,7.28,0,0,0-.82-3.51A5.92,5.92,0,0,0,1160,380a8.68,8.68,0,0,0-2.44-1.33,22.15,22.15,0,0,0-7.5-1.07,74.81,74.81,0,0,0-14.83,1.85c-5.51,1.16-11.44,2.79-17.38,4.62-11.89,3.68-23.83,8.2-32.67,11.57a84,84,0,0,1-9,2.94,27,27,0,0,1-6.48,1,8.47,8.47,0,0,1-3.69-.7,4.57,4.57,0,0,1-2.31-2.39,5.63,5.63,0,0,1-.41-2.2,11.39,11.39,0,0,1,.6-3.39,28.61,28.61,0,0,1,1.64-3.9,80,80,0,0,1,5.91-9.58,16,16,0,0,0,3.16-9.17,11.32,11.32,0,0,0-2.87-7.72,9.18,9.18,0,0,0-6.8-3.05A11.29,11.29,0,0,0,1058,360a25.16,25.16,0,0,0-6.94,8.88c-3.24,6.38-9,14-15.76,21.84s-14.62,16-22.07,23.39c-7,6.89-13.57,13.1-18.64,17.76,7.84.35,14.1,2.22,19,5.07a32.27,32.27,0,0,1,11.88,12,45.24,45.24,0,0,1,5.49,17.93c13.3-8.59,31.88-17.94,57.15-25.52A165.2,165.2,0,0,0,1130.36,421.8Z"/><path d="M992,431.81c.91,0,1.79,0,2.66.07,5.07-4.66,11.68-10.87,18.64-17.76,7.45-7.37,15.29-15.52,22.07-23.39s12.52-15.46,15.76-21.84A25.16,25.16,0,0,1,1058,360a11.29,11.29,0,0,1,6.83-2.51,9.18,9.18,0,0,1,6.8,3.05,11.32,11.32,0,0,1,2.87,7.72,16,16,0,0,1-3.16,9.17,80,80,0,0,0-5.91,9.58,28.61,28.61,0,0,0-1.64,3.9,11.39,11.39,0,0,0-.6,3.39,5.63,5.63,0,0,0,.41,2.2,4.57,4.57,0,0,0,2.31,2.39,8.47,8.47,0,0,0,3.69.7,27,27,0,0,0,6.48-1,84,84,0,0,0,9-2.94c8.84-3.37,20.78-7.89,32.67-11.57,5.94-1.83,11.87-3.46,17.38-4.62a74.81,74.81,0,0,1,14.83-1.85,22.15,22.15,0,0,1,7.5,1.07A8.68,8.68,0,0,1,1160,380a5.92,5.92,0,0,1,1.56,1.83,7.28,7.28,0,0,1,.82,3.51c0,3.34-1.83,7.85-5.46,12.81-5.41,7.44-14.65,15.88-26.51,23.61a165.2,165.2,0,0,1-42.2,19.55c-25.27,7.58-43.85,16.93-57.15,25.52.13,1.3.2,2.46.24,3.44,13.13-8.69,31.87-18.3,57.77-26.09,21.57-6.49,40.53-17,54.16-28A89,89,0,0,0,1159.3,400c3.81-5.25,6-10.18,6-14.57a10.24,10.24,0,0,0-1.18-4.94,9.15,9.15,0,0,0-2.34-2.76,13.21,13.21,0,0,0-5.17-2.36,28.39,28.39,0,0,0-6.63-.68,77.13,77.13,0,0,0-15.45,1.92c-16.89,3.56-37.21,11.26-50.5,16.32a78.93,78.93,0,0,1-8.68,2.83,24.09,24.09,0,0,1-5.75.89,7.25,7.25,0,0,1-1.81-.2,2.15,2.15,0,0,1-1.24-.71,2.31,2.31,0,0,1-.36-1.38,8.49,8.49,0,0,1,.46-2.48c1-3,3.46-7.41,7.15-12.67a18.91,18.91,0,0,0,3.7-10.89,14.24,14.24,0,0,0-3.67-9.75,12.16,12.16,0,0,0-9-4,14.39,14.39,0,0,0-8.63,3.11,28,28,0,0,0-7.81,9.92c-3,6-8.66,13.46-15.36,21.24-10.06,11.68-22.56,24.06-32.54,33.5-4.35,4.12-8.21,7.67-11.19,10.38l2.14-.76A1.36,1.36,0,0,1,992,431.81Z"/><path class="cls-6" d="M391.29,939C351.2,933.55,306,927.41,255,920.49L277.17,1097H406.44c-.93-7.5-4.77-39.27-8.62-78.66C395.4,993.52,393,965.68,391.29,939Z"/><path d="M274.15,1097l.21,1.69a1.5,1.5,0,0,0,1.49,1.31H408.13a1.49,1.49,0,0,1-1.48-1.31s-.08-.59-.21-1.69H277.17L255,920.49l-3.08-.41,9.82,78.24Z"/><path class="cls-6" d="M400,1009.47c4.12,43.39,8.48,79.39,9.44,87.25,0,.11,0,.18,0,.28H605c9.58-16.86,17-40.09,22.67-66,4.07-18.61,7.25-38.61,9.73-58.69-38.8-5.22-113.87-15.35-243.11-32.87C395.81,962.83,397.86,987.13,400,1009.47Z"/><path d="M640.4,972.67l-3-.4c-2.48,20.08-5.66,40.08-9.73,58.69-5.67,26-13.09,49.18-22.67,66H409.46c0-.1,0-.17,0-.28-1-7.86-5.32-43.86-9.44-87.25-2.12-22.34-4.17-46.64-5.66-70.07l-3-.42c1.69,26.7,4.11,54.54,6.53,79.36,3.85,39.39,7.69,71.16,8.62,78.66.13,1.1.2,1.69.21,1.69a1.49,1.49,0,0,0,1.48,1.31H605.92a1.52,1.52,0,0,0,1.3-.75c.42-.73.83-1.49,1.25-2.25,9.41-17.15,16.6-40,22.16-65.4C634.72,1012.88,637.91,992.81,640.4,972.67Z"/><path class="cls-5" d="M648.33,200.79h0l.1,0,.38.15c.33.13.84.33,1.49.56,1.31.47,3.21,1.09,5.55,1.72a71.88,71.88,0,0,0,18.21,2.5,47.53,47.53,0,0,0,20.62-4.35c6.76-3.25,13.12-8.6,18.21-17.23,12.71-21.58,19.19-48.81,19.19-74.75a146,146,0,0,0-1.78-22.83,112.25,112.25,0,0,1-19.16-2.78c-7.21-1.57-14.31-3.43-20.44-4.66a57.33,57.33,0,0,0-10.64-1.35,10.74,10.74,0,0,0-5.39,1.07,8,8,0,0,0-2.51,2.4,12.68,12.68,0,0,0-1.6,3.52,35.79,35.79,0,0,0-1.05,9.68c0,5,.48,10.43.48,15.38a42.26,42.26,0,0,1-.44,6.63,15.35,15.35,0,0,1-1.85,5.55,8.87,8.87,0,0,1-2.51,2.74,9.68,9.68,0,0,1-5.14,1.63c-.3,0-.6,0-.89,0a11.58,11.58,0,0,1-3.88-.6,7.79,7.79,0,0,1-2.89-1.78,11.11,11.11,0,0,1-2.86-5.74,36.26,36.26,0,0,1-.61-4.54c-.16-2.08-.25-4.22-.43-6.25a21.21,21.21,0,0,0-1.62-7.18,7.87,7.87,0,0,0-2.15-2.77,9,9,0,0,0-4.38-1.79,5.52,5.52,0,0,0-.87-.08,4,4,0,0,0-2.21.64,6.69,6.69,0,0,0-1.89,2,28.13,28.13,0,0,0-3.07,8.23c-1.74,7-3,16.3-5.39,25.16-1.62,5.91-3.78,11.63-7.08,16.36a26.55,26.55,0,0,1-6.89,6.93,24.68,24.68,0,0,1-11.3,4,78.41,78.41,0,0,1-8.26.47,41.76,41.76,0,0,1-12.51-1.66,326.35,326.35,0,0,1-18.11,34.53c12.19.46,28.36,2.9,44.22,10.93a88.91,88.91,0,0,1,26.89,20.91l12.53-22.81A1.5,1.5,0,0,1,648.33,200.79Z"/><path d="M730.32,86.61a146,146,0,0,1,1.78,22.83c0,25.94-6.48,53.17-19.19,74.75-5.09,8.63-11.45,14-18.21,17.23a47.53,47.53,0,0,1-20.62,4.35,71.88,71.88,0,0,1-18.21-2.5c-2.34-.63-4.24-1.25-5.55-1.72-.65-.23-1.16-.43-1.49-.56l-.38-.15-.1,0h0a1.5,1.5,0,0,0-1.91.65l-12.53,22.81q1.05,1.2,2.07,2.46l12.45-22.66a76.81,76.81,0,0,0,25.67,4.72A50.56,50.56,0,0,0,696,204.12a45.16,45.16,0,0,0,19.5-18.41c13-22.15,19.59-49.84,19.6-76.27a149.64,149.64,0,0,0-1.73-22.8l-1,0C731.69,86.66,731,86.64,730.32,86.61Z"/><path d="M562.78,192.41a326.35,326.35,0,0,0,18.11-34.53,26.16,26.16,0,0,1-2.81-1.07,312.91,312.91,0,0,1-18.79,35.52C560.41,192.34,561.57,192.37,562.78,192.41Z"/><path class="cls-5" d="M562.85,414.56h0a1.49,1.49,0,0,1,1.74-2.18l48.82-155.8c-2.61-1.65-5.34-3.35-8.16-5.08-20.58-12.67-45.88-27.09-64.43-34.06a78.3,78.3,0,0,0-12.07-3.62c-19.4,1.13-37.91,5.38-52.45,9.76a244.66,244.66,0,0,0-29.86,11l-.12.06a1.47,1.47,0,0,1-1.28,0l-.32.69L364.67,404.86l.12.05a1.5,1.5,0,0,1,.54,2.06C302.15,514.41,239.06,669.3,239.06,859.45q0,27.56,1.83,56.1c292.29,39.69,403.49,54.64,426.75,57.76l3.2.42c0-.54,0-1.21,0-2,.06-2.43.15-6,.25-10.68.21-9.31.49-22.84.77-39.76.56-33.84,1.12-81.21,1.12-135.32,0-69.62-.93-150.4-4-227.89-8.37-9.09-16.47-18.42-24.2-27.74A998,998,0,0,1,562.85,414.56ZM648,774.87a1.5,1.5,0,0,1,1.17,1.77,1.52,1.52,0,0,1-1.78,1.17l-.66-.14-1.9-.38c-1.66-.33-4.07-.8-7.07-1.36-4.11-.77-9.36-1.73-15.26-2.73l-57.17-7.12c-3.3-.18-6.46-.28-9.41-.28-1.45,0-2.85,0-4.19.07a1.5,1.5,0,1,1-.1-3c1.38,0,2.81-.08,4.29-.08,16.82,0,39.79,3,58.61,6s33.45,6,33.47,6Z"/><path d="M444.32,233.91a1.5,1.5,0,0,0,.72.71,1.47,1.47,0,0,0,1.28,0l.12-.06a244.66,244.66,0,0,1,29.86-11c14.54-4.38,33.05-8.63,52.45-9.76-.62-.12-1.24-.24-1.82-.32a1.51,1.51,0,0,1-1.2-1A1.49,1.49,0,0,1,526,211l0,0a257.53,257.53,0,0,0-81,20.92h0A1.5,1.5,0,0,0,444.32,233.91Z"/><path d="M255,920.49C306,927.41,351.2,933.55,391.29,939l3,.42c129.24,17.52,204.31,27.65,243.11,32.87l3,.4,31.69,4.26a1.51,1.51,0,0,0,1.7-1.45s.31-11.36.71-31.25c.66-33.3,1.53-90.5,1.53-158.29,0-68.61-.9-148-3.84-224.51q-1.58-1.68-3.14-3.38c3.05,77.49,4,158.27,4,227.89,0,54.11-.56,101.48-1.12,135.32-.28,16.92-.56,30.45-.77,39.76-.1,4.65-.19,8.25-.25,10.68,0,.82,0,1.49,0,2l-3.2-.42c-23.26-3.12-134.46-18.07-426.75-57.76Q239,887,239.06,859.45c0-190.15,63.09-345,126.27-452.48a1.5,1.5,0,0,0-.54-2.06l-.12-.05a1.49,1.49,0,0,0-1.93.59h0a940.15,940.15,0,0,0-84.59,188c-.48,1.49-1,3-1.43,4.48a865.35,865.35,0,0,0-40.66,261.57q0,28.24,1.91,57.52a1.49,1.49,0,0,0,1.3,1.38L252,920.08Z"/><path class="cls-5" d="M565.44,413s.22.39.67,1.13,1.1,1.84,2,3.26c1.74,2.85,4.3,7,7.6,12.19,6.6,10.38,16.14,24.94,27.92,41.63,23.56,33.39,56.07,75.31,91.78,109.41,23.8,22.74,49,42,73.9,52.93,14.21,6.26,28.28,9.8,41.9,9.8q3.32,0,6.6-.28c26.85-2.33,53.08-13.47,77.4-29.08s46.74-35.67,66-55.75c9-9.38,17.24-18.75,24.69-27.67a57.41,57.41,0,0,0,1.13-11.5c0-13.71-4.46-27.07-9.09-37.17a116.12,116.12,0,0,0-9.93-17.7l0-.07h0a1.5,1.5,0,1,1,2.43-1.76,117,117,0,0,1,9.82,17.29c4.89,10.45,9.81,24.58,9.82,39.41a63,63,0,0,1-.4,7,561.42,561.42,0,0,0,38.62-52.88l.08-.13v0c0-.28,0-.69,0-1.22a48.25,48.25,0,0,0-1.19-10.44,37.21,37.21,0,0,0-6.17-14,28.85,28.85,0,0,0-8.78-7.85c-4.92-2.83-11.38-4.69-19.94-4.73-18.42,6.32-40.71,17-63.54,27.95S882.27,485,861.53,492.18c-13.83,4.82-26.45,7.9-37,7.9a36,36,0,0,1-14-2.47,22.57,22.57,0,0,1-10.12-8.19c-5.69-8.35-18.79-26.46-35.48-49.28s-37-50.34-57.11-77.56c-23.59-31.9-46.95-63.37-64-86.33a16,16,0,0,1-2-1.18h0l-.72-.49-2.09-1.41c-1.81-1.22-4.44-3-7.72-5.13-4.75-3.13-10.87-7.1-17.81-11.46l-48.82,155.8A1.46,1.46,0,0,1,565.44,413Z"/><path d="M643.88,276.29l-.08,0c17.06,23,40.42,54.43,64,86.33,20.13,27.22,40.42,54.75,57.11,77.56s29.79,40.93,35.48,49.28a22.57,22.57,0,0,0,10.12,8.19,36,36,0,0,0,14,2.47c10.55,0,23.17-3.08,37-7.9,20.74-7.23,44.2-18.44,67.13-29.42s45.12-21.63,63.54-27.95c8.56,0,15,1.9,19.94,4.73a28.85,28.85,0,0,1,8.78,7.85,37.21,37.21,0,0,1,6.17,14,48.25,48.25,0,0,1,1.19,10.44c0,.53,0,.94,0,1.22v0l-.08.13a561.42,561.42,0,0,1-38.62,52.88,54.23,54.23,0,0,1-.86,5.48,1.5,1.5,0,0,1-2.94-.61c0-.12,0-.24.07-.35-7.45,8.92-15.72,18.29-24.69,27.67-19.21,20.08-41.62,40.14-66,55.75s-50.55,26.75-77.4,29.08q-3.28.28-6.6.28c-13.62,0-27.69-3.54-41.9-9.8-24.86-10.94-50.1-30.19-73.9-52.93-35.71-34.1-68.22-76-91.78-109.41-11.78-16.69-21.32-31.25-27.92-41.63-3.3-5.19-5.86-9.34-7.6-12.19-.87-1.42-1.53-2.52-2-3.26s-.67-1.13-.67-1.13a1.46,1.46,0,0,0-.85-.66,1.49,1.49,0,0,0-1.74,2.18h0a998,998,0,0,0,82,115.75c7.73,9.32,15.83,18.65,24.2,27.74q1.56,1.69,3.14,3.38c16.69,17.85,34.44,34.66,52.62,48.55,14.25,10.88,28.77,20,43.26,26.36s29,10,43.11,10c2.3,0,4.58-.09,6.85-.29,28.41-2.47,55.89-14.5,81.15-31.08,37.88-24.89,70.8-60,94.29-89A552.06,552.06,0,0,0,1031,474.33a1.52,1.52,0,0,0,.22-.68s0-.69,0-1.83c0-.43,0-.95,0-1.51,0-1-.11-2.14-.24-3.44a45.24,45.24,0,0,0-5.49-17.93,32.27,32.27,0,0,0-11.88-12c-4.92-2.85-11.18-4.72-19-5.07-.87,0-1.75-.07-2.66-.07a1.36,1.36,0,0,0-.49.08l-2.14.76c-24.62,8.72-55.28,24.51-84.92,38.29-15.24,7.09-30.2,13.64-43.87,18.41s-26,7.74-36,7.73a33.21,33.21,0,0,1-12.85-2.23,19.53,19.53,0,0,1-8.8-7.13c-6.13-9-20.61-29-38.92-54-35.24-48.12-84.61-114.69-115.46-156.2A11.45,11.45,0,0,1,643.88,276.29Z"/><path class="cls-6" d="M530.07,211a82.55,82.55,0,0,1,11.8,3.6c5.42,2,11.35,4.67,17.55,7.69,12.39,6.05,25.85,13.65,38.29,21.09,24.88,14.89,45.72,29.17,45.73,29.18h0l.08.06.36.22a13.15,13.15,0,0,0,1.27.69,8.51,8.51,0,0,0,3.44,1,2.51,2.51,0,0,0,1.61-.49,3.74,3.74,0,0,0,1.2-2.14,13.5,13.5,0,0,0,.34-3.21,47,47,0,0,0-1.65-10.83c-10.4-27.55-27.2-43.09-44.49-51.87s-35.15-10.7-47.37-10.7a97.39,97.39,0,0,0-14.89,1Z"/><path d="M525.73,212.52a1.51,1.51,0,0,0,1.2,1c.58.08,1.2.2,1.82.32a78.3,78.3,0,0,1,12.07,3.62c18.55,7,43.85,21.39,64.43,34.06,2.82,1.73,5.55,3.43,8.16,5.08,6.94,4.36,13.06,8.33,17.81,11.46,3.28,2.15,5.91,3.91,7.72,5.13l2.09,1.41.72.49h0a16,16,0,0,0,2,1.18l.08,0a11.45,11.45,0,0,0,4.62,1.26h.13a5.91,5.91,0,0,0,2.34-.46,5.59,5.59,0,0,0,2.83-2.89,13,13,0,0,0,1-5.49A50.27,50.27,0,0,0,653,257.08l-.06-.17a106.58,106.58,0,0,0-17-30.2q-1-1.26-2.07-2.46A88.91,88.91,0,0,0,607,203.34c-15.86-8-32-10.47-44.22-10.93-1.21,0-2.37-.07-3.49-.08h-1a95.74,95.74,0,0,0-15.92,1.17,1.5,1.5,0,0,0-.84.47l-15.46,17,0,0A1.49,1.49,0,0,0,525.73,212.52Zm17.65-16.16a97.39,97.39,0,0,1,14.89-1c12.22,0,30.06,1.93,47.37,10.7s34.09,24.32,44.49,51.87a47,47,0,0,1,1.65,10.83,13.5,13.5,0,0,1-.34,3.21,3.74,3.74,0,0,1-1.2,2.14,2.51,2.51,0,0,1-1.61.49,8.51,8.51,0,0,1-3.44-1,13.15,13.15,0,0,1-1.27-.69l-.36-.22-.08-.06h0s-20.85-14.29-45.73-29.18c-12.44-7.44-25.9-15-38.29-21.09-6.2-3-12.13-5.65-17.55-7.69a82.55,82.55,0,0,0-11.8-3.6Z"/><path d="M580.74,154.66a36.88,36.88,0,0,0,12.66,1.88,75.1,75.1,0,0,0,7.93-.45,21.29,21.29,0,0,0,11.18-4.41,27.46,27.46,0,0,0,7.21-9.15c3.79-7.33,5.71-16.7,7.34-25.28a130.57,130.57,0,0,1,3.49-15.38,19.53,19.53,0,0,1,3.08-6.18,8.43,8.43,0,0,1,2.46-2.12,7,7,0,0,1,3.4-.86,8.75,8.75,0,0,1,1.34.11A12.65,12.65,0,0,1,646,94.76a10.53,10.53,0,0,1,3.22,3.54c1.54,2.74,2,6,2.32,9.18.18,2.14.26,4.28.43,6.26a18.44,18.44,0,0,0,1.43,6.61,5.26,5.26,0,0,0,1.83,2.13,7.1,7.1,0,0,0,4,1h.74a6.71,6.71,0,0,0,3.57-1.1,6.25,6.25,0,0,0,2.09-2.64c1.07-2.32,1.44-5.82,1.43-9.82,0-4.77-.47-10.21-.48-15.38a45.59,45.59,0,0,1,.6-8.07,17.62,17.62,0,0,1,2.57-6.82,11.05,11.05,0,0,1,3.45-3.28,13.4,13.4,0,0,1,6.93-1.5,59.17,59.17,0,0,1,11.23,1.41c4.17.84,8.72,1.94,13.4,3,9.35,2.21,19.27,4.38,27.66,4.38a29.34,29.34,0,0,0,11.44-2,14.85,14.85,0,0,0,7.51-6.78,22.78,22.78,0,0,0,2.41-8.29,20.22,20.22,0,0,0,.13-2.33c0-5.48-2.17-11.08-6.08-16.59a74.05,74.05,0,0,0-16.24-15.88c-13.43-10-31.22-18.4-48.26-23.51C671.92,4.93,660.89,3,651.76,3a46.54,46.54,0,0,0-10.59,1.09,21.27,21.27,0,0,0-7.68,3.29c-4.59,3.32-9.67,8.86-14.82,15.89a216.07,216.07,0,0,0-15.43,24.85A345.84,345.84,0,0,0,578,107.88c-4,12.9-6.53,24.76-7,33.82v.1h0v.13c0,.11,0,.28,0,.5a12,12,0,0,0,1.48,5.67C573.77,150.45,576.11,153,580.74,154.66Z"/><path d="M580.89,157.88a41.76,41.76,0,0,0,12.51,1.66,78.41,78.41,0,0,0,8.26-.47,24.68,24.68,0,0,0,11.3-4,26.55,26.55,0,0,0,6.89-6.93c3.3-4.73,5.46-10.45,7.08-16.36,2.43-8.86,3.65-18.19,5.39-25.16a28.13,28.13,0,0,1,3.07-8.23,6.69,6.69,0,0,1,1.89-2,4,4,0,0,1,2.21-.64,5.52,5.52,0,0,1,.87.08,9,9,0,0,1,4.38,1.79,7.87,7.87,0,0,1,2.15,2.77,21.21,21.21,0,0,1,1.62,7.18c.18,2,.27,4.17.43,6.25a36.26,36.26,0,0,0,.61,4.54,11.11,11.11,0,0,0,2.86,5.74,7.79,7.79,0,0,0,2.89,1.78,11.58,11.58,0,0,0,3.88.6c.29,0,.59,0,.89,0a9.68,9.68,0,0,0,5.14-1.63,8.87,8.87,0,0,0,2.51-2.74,15.35,15.35,0,0,0,1.85-5.55,42.26,42.26,0,0,0,.44-6.63c0-5-.48-10.39-.48-15.38a35.79,35.79,0,0,1,1.05-9.68,12.68,12.68,0,0,1,1.6-3.52,8,8,0,0,1,2.51-2.4,10.74,10.74,0,0,1,5.39-1.07,57.33,57.33,0,0,1,10.64,1.35c6.13,1.23,13.23,3.09,20.44,4.66a112.25,112.25,0,0,0,19.16,2.78c.69,0,1.37,0,2,0l1,0c5.73-.12,11-1.21,15.14-4.12A17.55,17.55,0,0,0,754,76.36,25.57,25.57,0,0,0,756.71,67a23.89,23.89,0,0,0,.15-2.67,28.25,28.25,0,0,0-3.07-12.37c-3.44-7-9.49-13.76-17.11-19.91-11.42-9.22-26.4-17.2-41.65-22.9S664.29,0,651.76,0a49.29,49.29,0,0,0-11.28,1.17A24.32,24.32,0,0,0,631.72,5C625.07,9.79,618,18.37,611,29.13c-10.52,16.13-20.88,37.17-28.8,57.7a285.36,285.36,0,0,0-9.77,29.74A127.84,127.84,0,0,0,568,141.49c0,.12,0,.44,0,.94a15.05,15.05,0,0,0,.65,4.27,15.54,15.54,0,0,0,6.52,8.53,21,21,0,0,0,2.91,1.58A26.16,26.16,0,0,0,580.89,157.88ZM571,142.43c0-.22,0-.39,0-.5v-.13h0v-.1c.45-9.06,3-20.92,7-33.82a345.84,345.84,0,0,1,25.22-59.76,216.07,216.07,0,0,1,15.43-24.85c5.15-7,10.23-12.57,14.82-15.89a21.27,21.27,0,0,1,7.68-3.29A46.54,46.54,0,0,1,651.76,3c9.13,0,20.16,1.93,31.52,5.33,17,5.11,34.83,13.52,48.26,23.51a74.05,74.05,0,0,1,16.24,15.88c3.91,5.51,6.08,11.11,6.08,16.59a20.22,20.22,0,0,1-.13,2.33,22.78,22.78,0,0,1-2.41,8.29,14.85,14.85,0,0,1-7.51,6.78,29.34,29.34,0,0,1-11.44,2c-8.39,0-18.31-2.17-27.66-4.38-4.68-1.11-9.23-2.21-13.4-3a59.17,59.17,0,0,0-11.23-1.41,13.4,13.4,0,0,0-6.93,1.5,11.05,11.05,0,0,0-3.45,3.28,17.62,17.62,0,0,0-2.57,6.82,45.59,45.59,0,0,0-.6,8.07c0,5.17.48,10.61.48,15.38,0,4-.36,7.5-1.43,9.82a6.25,6.25,0,0,1-2.09,2.64,6.71,6.71,0,0,1-3.57,1.1h-.74a7.1,7.1,0,0,1-4-1,5.26,5.26,0,0,1-1.83-2.13,18.44,18.44,0,0,1-1.43-6.61c-.17-2-.25-4.12-.43-6.26-.29-3.21-.78-6.44-2.32-9.18A10.53,10.53,0,0,0,646,94.76a12.65,12.65,0,0,0-5.15-1.94,8.75,8.75,0,0,0-1.34-.11,7,7,0,0,0-3.4.86,8.43,8.43,0,0,0-2.46,2.12,19.53,19.53,0,0,0-3.08,6.18,130.57,130.57,0,0,0-3.49,15.38c-1.63,8.58-3.55,17.95-7.34,25.28a27.46,27.46,0,0,1-7.21,9.15,21.29,21.29,0,0,1-11.18,4.41,75.1,75.1,0,0,1-7.93.45,36.88,36.88,0,0,1-12.66-1.88c-4.63-1.71-7-4.21-8.26-6.56A12,12,0,0,1,571,142.43Z"/><path class="cls-6" d="M1204.34,136.35h0c-6.86-11.87-14.91-19.52-23.42-24.24a53.71,53.71,0,0,0-26.36-6.52c-13.39,0-26.34,4.15-36.11,8.46a113.93,113.93,0,0,0-17.09,9.24l-.06,0a1.5,1.5,0,0,1-1.72,0l-.06,0-.21-.14-.85-.56c-.75-.48-1.85-1.17-3.26-2a122.45,122.45,0,0,0-11.83-6.12c-9.88-4.45-23.23-8.88-37-8.88a53.71,53.71,0,0,0-26.36,6.52c-8.51,4.72-16.56,12.37-23.42,24.24a42.23,42.23,0,0,0-5.6,21.51c0,11.1,3.75,23,9.92,35h49.28l13.15-37.1a1.48,1.48,0,0,1,1.29-1,1.5,1.5,0,0,1,1.44.78l34.57,63.77,35.6-52.13a1.54,1.54,0,0,1,1.2-.66,1.51,1.51,0,0,1,1.23.59l19.74,25.74H1200c6.17-12,9.92-23.93,9.91-35A42.23,42.23,0,0,0,1204.34,136.35Z"/><path class="cls-6" d="M1043.41,248.65a523.24,523.24,0,0,0,57,50.14l1.84-1.38c1.76-1.34,4.31-3.31,7.47-5.83,6.32-5,15.08-12.25,24.81-21,19.46-17.47,42.8-41,58.28-65.26q3-4.71,5.6-9.44h-40.82a1.52,1.52,0,0,1-1.19-.59l-18.93-24.68-35.82,52.45a1.5,1.5,0,0,1-2.56-.13L1065,160l-12.38,34.92a1.51,1.51,0,0,1-1.41,1h-48.75q2.16,4,4.64,7.92C1016.87,219.46,1030,234.9,1043.41,248.65Z"/><path d="M1198.44,195.89q-2.58,4.73-5.6,9.44c-15.48,24.21-38.82,47.79-58.28,65.26-9.73,8.74-18.49,16-24.81,21-3.16,2.52-5.71,4.49-7.47,5.83l-1.84,1.38a523.24,523.24,0,0,1-57-50.14c-13.38-13.75-26.54-29.19-36.32-44.84q-2.48-4-4.64-7.92H999q3,5.54,6.48,11.05c15.74,24.61,39.23,48.3,58.8,65.88s35.21,29,35.23,29.05a1.5,1.5,0,0,0,1.78,0A525.68,525.68,0,0,0,1157,253.4c13.92-14.06,27.86-30.05,38.35-46.46q3.53-5.5,6.48-11.05Z"/><path d="M1000.86,192.89c-6.17-12-9.93-23.93-9.92-35a42.23,42.23,0,0,1,5.6-21.51c6.86-11.87,14.91-19.52,23.42-24.24a53.71,53.71,0,0,1,26.36-6.52c13.82,0,27.17,4.43,37,8.88a122.45,122.45,0,0,1,11.83,6.12c1.41.83,2.51,1.52,3.26,2l.85.56.21.14.06,0a1.5,1.5,0,0,0,1.72,0l.06,0a113.93,113.93,0,0,1,17.09-9.24c9.77-4.31,22.72-8.46,36.11-8.46a53.71,53.71,0,0,1,26.36,6.52c8.51,4.72,16.56,12.37,23.42,24.24h0a42.23,42.23,0,0,1,5.6,21.51c0,11.1-3.74,23-9.91,35h3.35c5.91-11.84,9.56-23.69,9.56-35a45.17,45.17,0,0,0-6-23l-1.3.75,1.3-.75c-7.08-12.27-15.54-20.37-24.56-25.37a56.72,56.72,0,0,0-27.82-6.89c-14.46,0-28.16,4.59-38.28,9.14a119.5,119.5,0,0,0-15.84,8.57,119.5,119.5,0,0,0-15.84-8.57c-10.12-4.55-23.82-9.13-38.28-9.14a56.72,56.72,0,0,0-27.82,6.89c-9,5-17.48,13.1-24.56,25.37a45.17,45.17,0,0,0-6,23c0,11.34,3.65,23.19,9.56,35Z"/><path class="cls-3" d="M188.55,291.38S235.81,230,213,208.1s-46.46,7.25-46.46,7.25-35.56-12-43.13,18.74S188.55,291.38,188.55,291.38Z"/><path class="cls-3" d="M1190.84,505.12c-17,17.37,20.75,63.16,20.75,63.16s55.05-22.11,48.49-45.48-33.48-13.28-33.48-13.28S1207.81,487.75,1190.84,505.12Z"/><path d="M966.55,195.89h84.65a1.51,1.51,0,0,0,1.41-1L1065,160l34.13,63a1.5,1.5,0,0,0,2.56.13l35.82-52.45,18.93,24.68a1.52,1.52,0,0,0,1.19.59h78.74a1.5,1.5,0,0,0,0-3h-78l-19.74-25.74a1.51,1.51,0,0,0-1.23-.59,1.54,1.54,0,0,0-1.2.66l-35.6,52.13L1066,155.58a1.5,1.5,0,0,0-1.44-.78,1.48,1.48,0,0,0-1.29,1l-13.15,37.1H966.55a1.5,1.5,0,0,0,0,3Z"/><path d="M980.13,479.7a117,117,0,0,0-9.82-17.29,1.5,1.5,0,1,0-2.43,1.76h0l0,.07a116.12,116.12,0,0,1,9.93,17.7C982.49,492,987,505.4,987,519.11a57.41,57.41,0,0,1-1.13,11.5c0,.11,0,.23-.07.35a1.5,1.5,0,0,0,2.94.61,54.23,54.23,0,0,0,.86-5.48,63,63,0,0,0,.4-7C989.94,504.28,985,490.15,980.13,479.7Z"/><path class="cls-6" d="M565.37,766.08l57.17,7.12c-2.69-.46-5.51-.93-8.44-1.4C598.71,769.33,580.52,766.88,565.37,766.08Z"/><path d="M556,762.8c-1.48,0-2.91,0-4.29.08a1.5,1.5,0,1,0,.1,3c1.34,0,2.74-.07,4.19-.07,2.95,0,6.11.1,9.41.28,15.15.8,33.34,3.25,48.73,5.72,2.93.47,5.75.94,8.44,1.4,5.9,1,11.15,2,15.26,2.73,3,.56,5.41,1,7.07,1.36l1.9.38.66.14a1.52,1.52,0,0,0,1.78-1.17,1.5,1.5,0,0,0-1.17-1.77h0s-14.65-3-33.47-6S572.78,762.81,556,762.8Z"/><rect class="cls-5" x="922.78" y="1069.03" width="162.39" height="25.42"/><path d="M920.21,1097h0a1.5,1.5,0,0,0,1.06.44h165.38a1.5,1.5,0,0,0,1.06-.44h0a1.47,1.47,0,0,0,.43-1V1069h-3v25.42H922.78V1069h-3V1096A1.48,1.48,0,0,0,920.21,1097Z"/><path d="M1146.86,829.51H861.08a37,37,0,0,0-37,37V1029a37,37,0,0,0,37,37h285.78a37,37,0,0,0,37-37V866.5a37,37,0,0,0-37-37Zm21.82,122.77v65.23A35.48,35.48,0,0,1,1133.2,1053H874.74a35.48,35.48,0,0,1-35.48-35.48V878a35.48,35.48,0,0,1,35.48-35.48H1133.2A35.48,35.48,0,0,1,1168.68,878Z"/><path d="M1146.86,826.51H861.08a40,40,0,0,0-40,40V1029a40,40,0,0,0,40,40h285.78a40,40,0,0,0,40-40V866.5a39.92,39.92,0,0,0-17.3-32.92c-.55-.38-1.1-.75-1.67-1.1A39.84,39.84,0,0,0,1146.86,826.51Zm37,202.53a37,37,0,0,1-37,37H861.08a37,37,0,0,1-37-37V866.5a37,37,0,0,1,37-37h285.78a37,37,0,0,1,37,37Z"/><path class="cls-5" d="M1106,971.56a1.51,1.51,0,0,1-2.45-.25l-10.52-19h-13.74l-15.9,27.6a1.51,1.51,0,0,1-1.41.75,1.5,1.5,0,0,1-1.28-.94l-10.9-27.41h-39.4l-11.95,15a1.51,1.51,0,0,1-1.11.56,1.52,1.52,0,0,1-1.16-.47l-14.07-15.05h-25L945,970.69a1.51,1.51,0,0,1-1.26.68,1.53,1.53,0,0,1-1.26-.69l-11.88-18.4H891.54l-.82,1a1.47,1.47,0,0,1-1.14.53H842.94a1.46,1.46,0,0,1-.68-.17v63.9A32.49,32.49,0,0,0,874.74,1050H1133.2a32.47,32.47,0,0,0,32.48-32.48V953.78h-44.44Zm-192.49,41.79A11.48,11.48,0,0,1,902,1024.83H889.91a11.48,11.48,0,0,1-11.48-11.48h0a11.48,11.48,0,0,1,11.48-11.48H902a11.48,11.48,0,0,1,11.48,11.48Zm108,0a11.48,11.48,0,0,1-11.48,11.48H997.91a11.48,11.48,0,0,1-11.48-11.48h0a11.48,11.48,0,0,1,11.48-11.48H1010a11.48,11.48,0,0,1,11.48,11.48Zm108,0h0a11.48,11.48,0,0,1-11.48,11.48h-12.12a11.48,11.48,0,0,1-11.48-11.48h0a11.48,11.48,0,0,1,11.48-11.48H1118A11.48,11.48,0,0,1,1129.51,1013.35Z"/><path class="cls-5" d="M874.55,950.78h14.33l23.79-28.22a1.49,1.49,0,0,1,1.24-.53,1.51,1.51,0,0,1,1.16.69l19.11,29.56h19.38L966,933.4a1.49,1.49,0,0,1,2.34-.2l17.85,19.08h20.34L1036,915.47a1.49,1.49,0,0,1,2.56.38l14.5,36.43h22.8l9.2-15.95a1.5,1.5,0,0,1,2.61,0l8.82,15.93h22.11l.84-1a1.47,1.47,0,0,1,1.14-.53h45.13V878a32.49,32.49,0,0,0-32.48-32.49H874.74A32.5,32.5,0,0,0,842.26,878V951a1.59,1.59,0,0,1,.68-.17Z"/><path d="M1133.2,842.55H874.74A35.48,35.48,0,0,0,839.26,878v139.48A35.48,35.48,0,0,0,874.74,1053H1133.2a35.48,35.48,0,0,0,35.48-35.48V952.28a1.5,1.5,0,0,1-1.5,1.5h-1.5v63.73A32.47,32.47,0,0,1,1133.2,1050H874.74a32.49,32.49,0,0,1-32.48-32.48v-63.9a1.49,1.49,0,0,1,0-2.66V878a32.5,32.5,0,0,1,32.48-32.49H1133.2A32.49,32.49,0,0,1,1165.68,878v72.75h1.5a1.5,1.5,0,0,1,1.5,1.5V878A35.48,35.48,0,0,0,1133.2,842.55Z"/><polygon class="cls-5" points="1105.13 967.96 1118.57 952.28 1096.45 952.28 1105.13 967.96"/><polygon class="cls-5" points="1086.3 940.13 1079.3 952.28 1093.03 952.28 1086.3 940.13"/><polygon class="cls-5" points="997.19 964.01 1006.56 952.28 986.22 952.28 997.19 964.01"/><polygon class="cls-5" points="1053.03 952.28 1062.34 975.7 1075.83 952.28 1053.03 952.28"/><polygon class="cls-5" points="943.77 967.12 953.56 952.28 934.18 952.28 943.77 967.12"/><polygon class="cls-5" points="1036.7 919.36 1010.4 952.28 1049.8 952.28 1036.7 919.36"/><polygon class="cls-5" points="967.48 936.64 957.16 952.28 982.11 952.28 967.48 936.64"/><polygon class="cls-5" points="913.65 926.05 891.54 952.28 930.61 952.28 913.65 926.05"/><path d="M1167.18,950.78h-46.63a1.47,1.47,0,0,0-1.14.53l-.84,1L1105.13,968l-8.67-15.68-8.82-15.93a1.5,1.5,0,0,0-2.61,0l-9.2,15.95-13.49,23.42L1053,952.28l-14.5-36.43a1.49,1.49,0,0,0-2.56-.38l-29.41,36.81L997.19,964l-11-11.73L968.37,933.2a1.49,1.49,0,0,0-2.34.2l-12.47,18.88-9.79,14.84-9.59-14.84-19.11-29.56a1.51,1.51,0,0,0-1.16-.69,1.49,1.49,0,0,0-1.24.53l-23.79,28.22H842.94a1.59,1.59,0,0,0-.68.17,1.49,1.49,0,0,0,0,2.66,1.46,1.46,0,0,0,.68.17h46.64a1.47,1.47,0,0,0,1.14-.53l.82-1,22.11-26.23,17,26.23,11.88,18.4a1.53,1.53,0,0,0,1.26.69,1.51,1.51,0,0,0,1.26-.68l12.15-18.41,10.32-15.64,14.63,15.64,14.07,15.05a1.52,1.52,0,0,0,1.16.47,1.51,1.51,0,0,0,1.11-.56l11.95-15,26.3-32.92,13.1,32.92,10.9,27.41a1.5,1.5,0,0,0,1.28.94,1.51,1.51,0,0,0,1.41-.75l15.9-27.6,7-12.15,6.73,12.15,10.52,19a1.51,1.51,0,0,0,2.45.25l15.24-17.78h45.94a1.5,1.5,0,0,0,0-3Z"/><path class="cls-6" d="M902,1004.87H889.91a8.48,8.48,0,0,0-8.48,8.48h0a8.47,8.47,0,0,0,8.48,8.48H902a8.47,8.47,0,0,0,8.48-8.48h0a8.48,8.48,0,0,0-8.48-8.48Z"/><path d="M902,1001.87H889.91a11.48,11.48,0,0,0-11.48,11.48h0a11.48,11.48,0,0,0,11.48,11.48H902a11.48,11.48,0,0,0,11.48-11.48h0A11.48,11.48,0,0,0,902,1001.87Zm8.48,11.48a8.47,8.47,0,0,1-8.48,8.48H889.91a8.47,8.47,0,0,1-8.48-8.48h0a8.48,8.48,0,0,1,8.48-8.48H902a8.48,8.48,0,0,1,8.48,8.48Z"/><path class="cls-5" d="M1010,1004.87H997.91a8.48,8.48,0,0,0-8.48,8.48h0a8.47,8.47,0,0,0,8.48,8.48H1010a8.47,8.47,0,0,0,8.48-8.48h0a8.48,8.48,0,0,0-8.48-8.48Z"/><path d="M1010,1001.87H997.91a11.48,11.48,0,0,0-11.48,11.48h0a11.48,11.48,0,0,0,11.48,11.48H1010a11.48,11.48,0,0,0,11.48-11.48h0A11.48,11.48,0,0,0,1010,1001.87Zm8.48,11.48a8.47,8.47,0,0,1-8.48,8.48H997.91a8.47,8.47,0,0,1-8.48-8.48h0a8.48,8.48,0,0,1,8.48-8.48H1010a8.48,8.48,0,0,1,8.48,8.48Z"/><path class="cls-5" d="M1118,1004.87h-12.12a8.48,8.48,0,0,0-8.48,8.48h0a8.47,8.47,0,0,0,8.48,8.48H1118a8.47,8.47,0,0,0,8.48-8.48h0a8.48,8.48,0,0,0-8.48-8.48Z"/><path d="M1105.91,1001.87a11.48,11.48,0,0,0-11.48,11.48h0a11.48,11.48,0,0,0,11.48,11.48H1118a11.48,11.48,0,0,0,11.48-11.48h0a11.48,11.48,0,0,0-11.48-11.48Zm20.6,11.48a8.47,8.47,0,0,1-8.48,8.48h-12.12a8.47,8.47,0,0,1-8.48-8.48h0a8.48,8.48,0,0,1,8.48-8.48H1118a8.48,8.48,0,0,1,8.48,8.48Z"/></g></g></svg>