<svg xmlns="http://www.w3.org/2000/svg" viewBox="0 0 1643.16 1059.02"><defs><style>.cls-1{fill:none;}.cls-2{fill:#d0d5d8;}.cls-3{fill:#eff0f1;}.cls-4{fill:#c1bebc;}.cls-5{fill:#fff;}.cls-6{fill:#61c3da;}</style></defs><g id="Layer_2" data-name="Layer 2"><g id="_9" data-name="9"><path class="cls-1" d="M769.3,980.31H577.71a184.05,184.05,0,0,1-3.05,75.09h144a49.76,49.76,0,0,1-.73-8.36C717.9,1022,737,998.87,769.3,980.31Z"/><path class="cls-1" d="M590.48,949.74H774.21L624.05,839a121.35,121.35,0,0,1-33.57,110.78Z"/><path class="cls-1" d="M1275.71,956.87c23.44-7.27,50.29-11.4,78.83-11.4h2.33c-14.63-30.16-43.24-91.71-76.19-176.21C1264,726.56,1253,678.8,1244.36,632c-8.35,90.21-20.08,190.36-36.06,276.12A201.68,201.68,0,0,1,1275.71,956.87Z"/><path class="cls-1" d="M755.38,561.87a42.49,42.49,0,0,0-42.5-42.49H532.26a42.47,42.47,0,0,0-42.5,42.49v41.84H755.38Z"/><path class="cls-1" d="M619.2,821.87,773.05,708.36H463.88l46.16,34A121.28,121.28,0,0,1,619.2,821.87Z"/><path class="cls-1" d="M975.27,519.94a13.13,13.13,0,1,0-13.13,13.13A13.13,13.13,0,0,0,975.27,519.94Z"/><path class="cls-1" d="M346,768.59a13.13,13.13,0,1,0-13.13,13.13A13.12,13.12,0,0,0,346,768.59Z"/><path class="cls-2" d="M1443.35,856.94c3.51-6.33,7.28-12.9,11.32-19.61,4.15-6.92,8.59-14,13.29-21.1a7.06,7.06,0,0,1-.92-.15,6.9,6.9,0,0,1-1.1-.41c-5.57,8.45-10.77,16.83-15.57,25q-3.66,6.2-7,12.17A30,30,0,0,1,1443.35,856.94Z"/><path class="cls-2" d="M1514.15,756.94a12.14,12.14,0,0,1-1.82-1A409.78,409.78,0,0,0,1484,790c-.06,1.29-.17,2.55-.33,3.79A414.47,414.47,0,0,1,1514.15,756.94Z"/><path class="cls-2" d="M1530.47,740.7a255.44,255.44,0,0,1,27.92-22.59s-.09-.06-.12-.1a8.18,8.18,0,0,1-1.22-1.41A257.16,257.16,0,0,0,1530.41,738,26.37,26.37,0,0,1,1530.47,740.7Z"/><path class="cls-2" d="M1432.69,877a6.74,6.74,0,0,1-1.66-1.14c-4.06,7.93-7.6,15.22-10.59,21.62l.7,3.26C1424.32,893.82,1428.17,885.8,1432.69,877Z"/><path class="cls-2" d="M1602.47,820.39l-.73.43c-6.28,3.71-15.64,9.3-26.85,16.9-.12.34-.24.67-.37,1,.92-.11,1.86-.19,2.82-.23,5.76-3.88,11-7.21,15.57-10,4.34-2.68,8-4.87,11-6.6l-.15-.14C1603.33,821.32,1602.89,820.87,1602.47,820.39Z"/><path class="cls-2" d="M1557.33,850.26A405.66,405.66,0,0,0,1520,882a24.48,24.48,0,0,1-1.39,3.53l.71-.09c10.14-9.89,20.23-18.63,29.82-26.28q4.26-3.39,8.37-6.5l-.09-.38A6.51,6.51,0,0,1,1557.33,850.26Z"/><path class="cls-2" d="M1481.94,924.63a20.73,20.73,0,0,1-.16,3.55A348.14,348.14,0,0,1,1507,898a13.9,13.9,0,0,1-1-1.84A355.44,355.44,0,0,0,1481.94,924.63Z"/><path class="cls-2" d="M1464.76,949.64q-4.68,7.54-9,15.57l1.84.82q3.82-7,7.92-13.72c0-.11-.11-.2-.16-.3A8,8,0,0,1,1464.76,949.64Z"/><path class="cls-3" d="M1471.52,939.74a11.38,11.38,0,0,1-2.34-.1c-.36.38-.71.75-1,1.13-2.44,2.93-3.64,6-3.4,8.87a8,8,0,0,0,.56,2.37c0,.1.11.19.16.3,1.49,3.22,5,5.25,9.33,6.09a36.41,36.41,0,0,0,29.33-8.81c3.28-3.22,5.09-7,4.38-10.57s-3.87-6.4-8.56-7.81-10.86-1.4-17.19.5c-.72.21-1.42.45-2.11.71-.13.31-.25.62-.39.92C1478.39,937.2,1475.17,939.47,1471.52,939.74Z"/><path class="cls-3" d="M1481.94,924.63a22.32,22.32,0,0,0-1-5.86,19.93,19.93,0,0,0-8.91-11.52c-3.75-2.06-7.69-2.08-10.83-.2a13.89,13.89,0,0,0-6,8.69,20.21,20.21,0,0,0,6.45,20.33,15,15,0,0,0,7.56,3.57,11.38,11.38,0,0,0,2.34.1c3.65-.27,6.87-2.54,8.75-6.4.14-.3.26-.61.39-.92a17.35,17.35,0,0,0,1.12-4.24A20.73,20.73,0,0,0,1481.94,924.63Z"/><path class="cls-3" d="M1518.17,886.34c-2.48,4.55-6.05,7-9.7,6.68a8.42,8.42,0,0,1-2.87-.76,5.37,5.37,0,0,0,0,2.7,8.7,8.7,0,0,0,.41,1.15,13.9,13.9,0,0,0,1,1.84c.39.6.81,1.19,1.2,1.79a19.53,19.53,0,0,0,3.78,4.64,24.77,24.77,0,0,0,3.63,2.48,45,45,0,0,0,4.5,2.28,58,58,0,0,0,10.69,3.51c15.5,3.53,29.4.57,31-6.6s-9.61-15.85-25.11-19.38a59.25,59.25,0,0,0-11.16-1.47,48.85,48.85,0,0,0-5,.11l-1.28.13-.71.09C1518.44,885.8,1518.32,886.09,1518.17,886.34Z"/><path class="cls-3" d="M1518.17,886.34c.15-.25.27-.54.4-.81A24.48,24.48,0,0,0,1520,882a28.54,28.54,0,0,0,.9-3.8,35.11,35.11,0,0,0,.11-10.11c-1-7.12-3.93-13.17-7.51-16.87s-7.66-5.12-11.11-3.89-5.75,4.71-7,9.06a41.53,41.53,0,0,0,4,29.72,15.24,15.24,0,0,0,6.27,6.15,8.42,8.42,0,0,0,2.87.76C1512.12,893.31,1515.69,890.89,1518.17,886.34Z"/><path class="cls-3" d="M1571.85,843.34c-2.65,3.29-6.22,5-9.86,4.54a10.49,10.49,0,0,1-3.41-1,8.22,8.22,0,0,0-1.25,3.38,6.51,6.51,0,0,0,.05,2l.09.38c.81,3.46,4,6.09,8,8.11a42.21,42.21,0,0,0,7,2.67,58.1,58.1,0,0,0,8.2,1.77,59.1,59.1,0,0,0,8.37.73,43,43,0,0,0,7.52-.48c4.63-.77,8.55-2.44,10.25-5.73s.58-7.65-3.36-11.81a27.9,27.9,0,0,0-7.81-5.63,38,38,0,0,0-11-3.43,38.57,38.57,0,0,0-7.37-.38c-1,0-1.9.12-2.82.23A17.55,17.55,0,0,1,1571.85,843.34Z"/><path class="cls-3" d="M1562,847.88c3.64.42,7.21-1.25,9.86-4.54a17.55,17.55,0,0,0,2.67-4.63c.13-.32.25-.65.37-1a23.14,23.14,0,0,0,1.22-8,21.12,21.12,0,0,0-4.79-13.4c-2.79-3.17-6.41-4.7-10-4.14s-6.63,3-8.69,6.23a22.31,22.31,0,0,0,.47,23.53,14.32,14.32,0,0,0,5.52,4.89A10.49,10.49,0,0,0,1562,847.88Z"/><path class="cls-3" d="M1643.1,810.16c-.42-3.65-3.24-6.69-7.58-8.53a28.69,28.69,0,0,0-16.33-1.2,32.26,32.26,0,0,0-8.39,2.86,26.79,26.79,0,0,0-3.44,2.07c-.52.38-1,.75-1.69,1.22s-1.46,1-2.14,1.59a10.42,10.42,0,0,0-2.86,3.84,7.36,7.36,0,0,0-.47,4,9,9,0,0,0,2.27,4.43c.42.48.86.93,1.27,1.34l.15.14a8.41,8.41,0,0,0,2.91,1.83,10.53,10.53,0,0,1,3.48,2.07,2.43,2.43,0,0,0,.77.66,5.87,5.87,0,0,0,1.54.4,27.23,27.23,0,0,0,3.7.39,34.19,34.19,0,0,0,8.06-.65,30.48,30.48,0,0,0,13.78-6.27C1641.53,817.39,1643.52,813.82,1643.1,810.16Z"/><path class="cls-3" d="M1434.57,877.79a10.5,10.5,0,0,1,3.81,2.56,4.79,4.79,0,0,0,1.19.7,13.49,13.49,0,0,0,1.92.58,42.12,42.12,0,0,0,4.49.84,53,53,0,0,0,10.1.31c7.1-.45,13.48-2.16,18.13-4.69s7.56-5.86,7.54-9.54-3-7-8-9.3-11.83-3.54-19.34-3.07a48,48,0,0,0-10.49,1.82l-.7.23a21.88,21.88,0,0,1-.77,3.74c-1.45,4.83-4.35,8-8,8.55a9.48,9.48,0,0,1-5.86-1.1v0a7.36,7.36,0,0,0,2.16,6.14l.25.23a6.74,6.74,0,0,0,1.66,1.14C1433.28,877.26,1433.9,877.51,1434.57,877.79Z"/><path class="cls-3" d="M1434.49,870.52c3.62-.59,6.52-3.72,8-8.55a21.88,21.88,0,0,0,.77-3.74c.06-.42.08-.85.12-1.29a30,30,0,0,0,0-4.14,35.18,35.18,0,0,0-1.68-8.67c-2.16-6.56-6-11.81-10-14.81s-8.22-3.83-11.48-2.16-5.09,5.42-5.68,9.94a38.89,38.89,0,0,0,9.47,28.78,17.58,17.58,0,0,0,4.6,3.54A9.48,9.48,0,0,0,1434.49,870.52Z"/><path class="cls-3" d="M1468,816.23a8.29,8.29,0,0,0,5.71-1.8,7.14,7.14,0,0,1-.91-3.18c-.17-4.17,3.55-8,9.5-10.72l0-.08a46,46,0,0,0,1.34-6.65c.16-1.24.27-2.5.33-3.79,0-.54.07-1.07.07-1.62a45.79,45.79,0,0,0-1.47-12.09,33.17,33.17,0,0,0-4-9.35c-3.26-5.08-7.32-7.47-10.87-6.63s-6.1,4.58-7.75,9.56a48.57,48.57,0,0,0-1.86,8.41,82.39,82.39,0,0,0-.23,19.6,48.5,48.5,0,0,0,1.67,8.44c1.37,4.48,3.43,8,6.41,9.34a6.9,6.9,0,0,0,1.1.41A7.06,7.06,0,0,0,1468,816.23Z"/><path class="cls-3" d="M1472.76,811.25a7.14,7.14,0,0,0,.91,3.18c3.11,5.69,13.81,9.58,26.36,9.1,14.78-.57,26.53-7,26.24-14.35s-12.49-12.85-27.27-12.28a45.85,45.85,0,0,0-16.74,3.63C1476.31,803.2,1472.59,807.08,1472.76,811.25Z"/><path class="cls-3" d="M1515.88,757.53a9.31,9.31,0,0,0,7.16-1.34,9.77,9.77,0,0,1-1.16-3.5c-.46-3.63,1.47-7.27,5.35-9.93a19,19,0,0,1,3.22-1.76c0-.1,0-.2,0-.3a26.37,26.37,0,0,0-.06-2.66s0-.08,0-.12a24.67,24.67,0,0,0-2.3-8.5,18.88,18.88,0,0,0-4.5-6c-3.47-3-7.46-3.74-10.83-2.33s-5.7,4.5-7.17,7.91a23.45,23.45,0,0,0-1.75,11.22,23.65,23.65,0,0,0,3.64,10.73,17,17,0,0,0,4.84,5.05,12.14,12.14,0,0,0,1.82,1A10.37,10.37,0,0,0,1515.88,757.53Z"/><path class="cls-3" d="M1527.23,742.76c-3.88,2.66-5.81,6.3-5.35,9.93a9.77,9.77,0,0,0,1.16,3.5,15.55,15.55,0,0,0,5.29,5.39,29.59,29.59,0,0,0,25.73,2.21c3.76-1.59,6.81-4.12,7.88-7.66s-.21-7.41-3.58-10.69-8.8-5.8-15.13-6.35a26.75,26.75,0,0,0-12.78,1.91A19,19,0,0,0,1527.23,742.76Z"/><path class="cls-3" d="M1558.39,718.11c2.71,2.42,6.41,3.2,10.08,3a23.67,23.67,0,0,0,19.15-11.76c1.82-3.28,2.79-7,1.76-10.55s-4.06-6.15-8.49-7.06-10.12,0-15.32,3.21a24.89,24.89,0,0,0-6.42,5.69,18.81,18.81,0,0,0-3.39,6.56,10.85,10.85,0,0,0,1.29,9.35,8.18,8.18,0,0,0,1.22,1.41S1558.35,718.07,1558.39,718.11Z"/><path class="cls-4" d="M1427.24,955.06,1441,983.9a1.52,1.52,0,0,1,.08,1.09,140.59,140.59,0,0,1-9.09,21.27c-6.23,11.94-15.83,26.55-29.46,37.26a68.41,68.41,0,0,1-22.35,11.88h137.39a55.24,55.24,0,0,0,2.25-15.56c0-29.88-24.33-56.52-62.3-73.81l-1.84-.82A211.15,211.15,0,0,0,1427.24,955.06Z"/><path class="cls-4" d="M1115.88,955.76c-.23-17.53-.48-39.5-.58-64.54a200.2,200.2,0,0,0-80.93,22,92.32,92.32,0,0,1,8.38,27.44A455,455,0,0,1,1115.88,955.76Z"/><path class="cls-4" d="M1345.71,1015.75c8.11-11,20-21.19,35.15-30.59l-.55-1.34h0l-6.78-16.45c-1.63,0-3.29-.09-5-.19a1.49,1.49,0,0,1-1.24-.81s-3.77-7.23-10.39-20.89h-2.33c-28.54,0-55.39,4.13-78.83,11.4a201.68,201.68,0,0,0-67.41-48.73c-5.48,29.39-11.46,57.09-18,82.13,22.84,16.6,36,36,36,56.77a49.75,49.75,0,0,1-.72,8.36h107.54c0-1-.08-2-.08-3C1333,1039.3,1337.41,1027,1345.71,1015.75Z"/><path class="cls-5" d="M986.45,194.37a58.4,58.4,0,0,0-1.8-6.36,5.75,5.75,0,0,0-.94-1.71.71.71,0,0,0-.22-.18h0a1.39,1.39,0,0,0-.42-.1H983l-.06,0a2.18,2.18,0,0,0-.41.7c-.34.77-.63,2-1,3.29a8.86,8.86,0,0,1-1.23,2.51,4.57,4.57,0,0,1-1.31,1.19,4.25,4.25,0,0,1-2.15.56h-.11a5.75,5.75,0,0,1-2.71-.88,16.15,16.15,0,0,1-2.55-1.93c-1.73-1.55-3.62-3.59-5.75-5.8-4.23-4.43-9.39-9.53-15.51-12.61a8,8,0,0,0-3.56-1,4,4,0,0,0-2.17.61,5.19,5.19,0,0,0-1.66,1.84,15,15,0,0,0-1.56,7.4c0,6.22,2.27,14.44,7.13,21.7,5.34,8,14.75,15.34,23,20.66,3.91,2.52,7.56,4.6,10.41,6.13.31-1,.65-2,1-3a54.51,54.51,0,0,1,5.23-9.86,71.16,71.16,0,0,1,4.4-5.93,39.11,39.11,0,0,1-2.12-4.31A88.89,88.89,0,0,1,986.45,194.37Z"/><polygon points="984.54 183.31 984.54 183.31 984.54 183.31 984.54 183.31"/><path d="M981.8,230.44c-2.85-1.53-6.5-3.61-10.41-6.13-8.27-5.32-17.68-12.64-23-20.66-4.86-7.26-7.14-15.48-7.13-21.7a15,15,0,0,1,1.56-7.4,5.19,5.19,0,0,1,1.66-1.84,4,4,0,0,1,2.17-.61,8,8,0,0,1,3.56,1c6.12,3.08,11.28,8.18,15.51,12.61,2.13,2.21,4,4.25,5.75,5.8a16.15,16.15,0,0,0,2.55,1.93,5.75,5.75,0,0,0,2.71.88h.11a4.25,4.25,0,0,0,2.15-.56,4.57,4.57,0,0,0,1.31-1.19,8.86,8.86,0,0,0,1.23-2.51c.41-1.26.7-2.52,1-3.29a2.18,2.18,0,0,1,.41-.7l.06,0h.05a1.39,1.39,0,0,1,.42.1h0a.71.71,0,0,1,.22.18,5.75,5.75,0,0,1,.94,1.71,58.4,58.4,0,0,1,1.8,6.36,88.89,88.89,0,0,0,3.89,13,39.11,39.11,0,0,0,2.12,4.31c.82-1,1.54-1.82,2.09-2.42-.14-.25-.28-.51-.41-.77-2.38-4.8-3.72-10.5-4.87-15.21a57.4,57.4,0,0,0-1.75-6.17,10.58,10.58,0,0,0-1.12-2.26,4,4,0,0,0-1.86-1.55,4.18,4.18,0,0,0-1.47-.29,3.1,3.1,0,0,0-2,.69,4,4,0,0,0-1,1.24,12.13,12.13,0,0,0-.91,2.38,15.57,15.57,0,0,1-1.08,3.09,2,2,0,0,1-.58.7,1.2,1.2,0,0,1-.71.2h0a2.75,2.75,0,0,1-1.26-.47,22.15,22.15,0,0,1-4-3.39c-2.36-2.37-5.19-5.52-8.5-8.64a50.15,50.15,0,0,0-11.52-8.4,11,11,0,0,0-4.91-1.32,7,7,0,0,0-3.78,1.08,9.22,9.22,0,0,0-3.53,4.76,20.69,20.69,0,0,0-1.08,7c0,6.93,2.45,15.59,7.64,23.37,6,8.91,16.07,16.54,24.7,22,4,2.53,7.65,4.59,10.45,6.09C981.24,232.43,981.5,231.43,981.8,230.44Z"/><path class="cls-3" d="M590.48,949.74A121.35,121.35,0,0,0,624.05,839l-5.58-4.12L462.73,949.74Z"/><path class="cls-3" d="M378.27,1055.4A42.86,42.86,0,0,1,372,980.31h-1.83a15.29,15.29,0,1,1,0-30.57h75.7L610.05,828.62,493.82,742.87a121.29,121.29,0,0,0-104.22,84.5A183.14,183.14,0,0,0,249.1,902v60.89h18.38a1.5,1.5,0,1,1,0,3H238.69v26.8h8.23a1.5,1.5,0,0,1,0,3H214.07q-.6,7.38-.61,14.91a185.88,185.88,0,0,0,1.18,20.69,87.19,87.19,0,0,1,10.59,24.16Z"/><path class="cls-3" d="M577.71,980.31H419a42.85,42.85,0,0,1-6.25,75.09h161.9a184.05,184.05,0,0,0,3.05-75.09Z"/><path class="cls-3" d="M510,742.41l108.43,80,.73-.54A121.28,121.28,0,0,0,510,742.41Z"/><path d="M120.36,47.18H243.6v-1.5a1.5,1.5,0,0,1,1.5-1.5H118.86a1.5,1.5,0,0,1,0,3h-1.5v932.5c1,0,2,.09,3,.14Z"/><path d="M246.6,45.68v1.5h36a1.5,1.5,0,0,0,0-3H245.1A1.5,1.5,0,0,1,246.6,45.68Z"/><path class="cls-5" d="M184.07,1004c-19.36-13.36-44.19-21.41-71.27-21.41s-51.92,8-71.28,21.41c-18.8,13-32.41,30.93-38.05,51.4H222.12C216.48,1034.93,202.87,1017,184.07,1004Z"/><path d="M.6,1058.09.51,1058Z"/><path d="M.87,1058.26l-.09,0Z"/><path d="M.32,1057.82l0,0-.08-.09Z"/><path d="M1.5,1055.4h2c5.64-20.47,19.25-38.44,38.05-51.4,19.36-13.36,44.19-21.41,71.28-21.41s51.91,8,71.27,21.41c18.8,13,32.41,30.93,38.05,51.4h3.11a87.19,87.19,0,0,0-10.59-24.16,103,103,0,0,0-28.86-29.71c-18.06-12.46-40.69-20.36-65.42-21.71-1-.05-2-.11-3-.14-1.51,0-3-.09-4.56-.09-27.68,0-53.1,8.22-73,21.94s-34.27,33-39.78,55v0A1.5,1.5,0,0,1,1.5,1055.4Z"/><path d="M1.17,1058.36l-.07,0Z"/><path d="M0,1056.88s0-.05,0-.08S0,1056.86,0,1056.88Z"/><path d="M.18,1057.59l0-.08Z"/><path d="M0,1057.22H0Z"/><path d="M120.36,45.68a1.5,1.5,0,0,0-1.5-1.5H52.14a1.5,1.5,0,0,0,0,3h66.72A1.5,1.5,0,0,0,120.36,45.68Z"/><path d="M243.6,45.68v81.44h3V45.68a1.5,1.5,0,1,0-3,0Z"/><path class="cls-6" d="M275.14,267.81a8.75,8.75,0,0,0,2.57-6.22V138.92a8.79,8.79,0,0,0-8.79-8.8H221.28a8.81,8.81,0,0,0-8.8,8.8V261.59a8.81,8.81,0,0,0,8.8,8.8h47.64A8.75,8.75,0,0,0,275.14,267.81Zm-19.36-27.33a15.45,15.45,0,0,1-21.37,0,35,35,0,0,1-8.3-11.2c-4.65-9.32-7.47-22-7.47-36A90.15,90.15,0,0,1,223,164.79c2.76-8.16,6.65-14.73,11.43-18.79a15.45,15.45,0,0,1,21.37,0,35.07,35.07,0,0,1,8.31,11.19c4.64,9.33,7.46,22,7.46,36.05a90.2,90.2,0,0,1-4.34,28.45C264.46,229.85,260.56,236.41,255.78,240.48Z"/><path d="M221.28,127.12a11.8,11.8,0,0,0-11.8,11.8V261.59a11.8,11.8,0,0,0,11.8,11.8H250l-.31-.49-.13-.2h0a1.5,1.5,0,1,1,2.52-1.62s.53.82,1.44,2.31h15.44a11.79,11.79,0,0,0,11.79-11.8V138.92a11.79,11.79,0,0,0-11.79-11.8H221.28Zm0,143.27a8.81,8.81,0,0,1-8.8-8.8V138.92a8.81,8.81,0,0,1,8.8-8.8h47.64a8.79,8.79,0,0,1,8.79,8.8V261.59a8.79,8.79,0,0,1-8.79,8.8Z"/><path class="cls-5" d="M268.55,193.24a87.42,87.42,0,0,0-4.18-27.5c-2.63-7.81-6.35-13.93-10.53-17.46a12.5,12.5,0,0,0-17.49,0,32.32,32.32,0,0,0-7.56,10.25c-4.38,8.78-7.15,21.1-7.15,34.71a87.35,87.35,0,0,0,4.18,27.49c2.63,7.81,6.36,13.93,10.53,17.46a12.47,12.47,0,0,0,17.49,0A32.16,32.16,0,0,0,261.4,228C265.79,219.16,268.56,206.85,268.55,193.24Z"/><path d="M264.09,157.19A35.07,35.07,0,0,0,255.78,146a15.45,15.45,0,0,0-21.37,0c-4.78,4.06-8.67,10.63-11.43,18.79a90.15,90.15,0,0,0-4.34,28.45c0,14,2.82,26.72,7.47,36a35,35,0,0,0,8.3,11.2,15.45,15.45,0,0,0,21.37,0c4.78-4.07,8.68-10.63,11.43-18.79a90.2,90.2,0,0,0,4.34-28.45C271.55,179.22,268.73,166.52,264.09,157.19Zm-10.25,81a12.47,12.47,0,0,1-17.49,0c-4.17-3.53-7.9-9.65-10.53-17.46a87.35,87.35,0,0,1-4.18-27.49c0-13.61,2.77-25.93,7.15-34.71a32.32,32.32,0,0,1,7.56-10.25,12.5,12.5,0,0,1,17.49,0c4.18,3.53,7.9,9.65,10.53,17.46a87.42,87.42,0,0,1,4.18,27.5c0,13.61-2.76,25.92-7.15,34.71A32.16,32.16,0,0,1,253.84,238.19Z"/><path d="M252,271.08a1.5,1.5,0,1,0-2.52,1.62h0l.13.2.31.49a375.2,375.2,0,0,1,24,46c11.29,25.81,22.2,58.87,22.19,89.81a116.45,116.45,0,0,1-1.32,17.82c-3.69,23.76-14.59,43.89-26,63.19a1.5,1.5,0,0,0,2.59,1.53c11.46-19.36,22.6-39.85,26.41-64.26a119,119,0,0,0,1.35-18.28c0-32.65-11.8-67.13-23.54-93.51a381.5,381.5,0,0,0-22.09-42.34C252.57,271.9,252.05,271.09,252,271.08Z"/><path class="cls-3" d="M905.59,965a15.28,15.28,0,0,1-15.29,15.28H872.09a42.85,42.85,0,0,1-6.24,75.09h187a48.8,48.8,0,0,1,3.52-16.8,41.09,41.09,0,0,1,19.23-21.26c7-3.68,16-6.15,27.71-6.48l22.37-1.64a2.57,2.57,0,0,1,.51-1,2.88,2.88,0,0,1-.14-.82,1.6,1.6,0,0,1,0-.23v-4.11c-3.26-.14-5.78-.27-7.21-.34a2.74,2.74,0,0,1-2.61-2.73,2.83,2.83,0,0,1,0-.29c0-.21,0-.74.06-1.47s0-1.7,0-2.87c0-6.79-.23-20.59-.48-39.6a455,455,0,0,0-73.13-15.06,92.32,92.32,0,0,0-8.38-27.44,93.75,93.75,0,0,0-50.43-46.4H916.27a93.31,93.31,0,0,0-59.57,81.55c-2,.43-3.87.88-5.79,1.33H890.3A15.28,15.28,0,0,1,905.59,965Z"/><path class="cls-3" d="M717.9,1047a49.76,49.76,0,0,0,.73,8.36H831.35a42.85,42.85,0,0,1-6.24-75.09H769.3C737,998.87,717.9,1022,717.9,1047Z"/><path class="cls-3" d="M1190.33,990.27c-.92,3.55-1.85,7.06-2.8,10.5a2.74,2.74,0,0,1-2.26,2c-2.67.38-6,.64-9.64.81-.26,2.36-.55,4.93-.86,7.76l-1.49-.17,1.49.17a2.68,2.68,0,0,1-.47,1.24,2.6,2.6,0,0,1,.2,1c0,.1,0,.2,0,.3-1.73,15.62-3.34,29.57-4.39,37.19-.25,1.83-.46,3.27-.65,4.33h56.13a49.75,49.75,0,0,0,.72-8.36C1226.3,1026.29,1213.17,1006.87,1190.33,990.27Z"/><polygon class="cls-3" points="1125.88 1009.47 1125.63 1009.42 1127.11 1009.7 1125.88 1009.46 1125.88 1009.47"/><path d="M1390.9,983.26a22.34,22.34,0,0,0,10.41-2.53,32.17,32.17,0,0,0,8.63-6.72c.52-.55,1-1.12,1.51-1.7a104,104,0,0,0,10.8-16.11c.41-.7.8-1.4,1.2-2.11l-3.56-7.43a60.35,60.35,0,0,1-6.19,7.31,42.84,42.84,0,0,1-19.59,11.27,69.52,69.52,0,0,1-17.32,2.15l6,14.61A29,29,0,0,0,1390.9,983.26Z"/><path d="M1380.59,982.24a1.5,1.5,0,0,1,1.55-.42l.66.18-6-14.61h-1.14l-2.12,0,6.78,16.45A1.48,1.48,0,0,1,1380.59,982.24Z"/><path d="M1419.89,946.66l3.56,7.43.38-.67a1.53,1.53,0,0,1,1.36-.77,1.49,1.49,0,0,1,1.3.86l-4.62-9.67Q1420.9,945.29,1419.89,946.66Z"/><path d="M1422.25,956.2a104,104,0,0,1-10.8,16.11A104,104,0,0,0,1422.25,956.2Z"/><path class="cls-5" d="M1399.9,1041.8a98.47,98.47,0,0,0,21.18-23,146.11,146.11,0,0,0,17-34.13l-13-27.27a126.68,126.68,0,0,1-8.88,13.89c-3.84,5.05-8.19,9.41-13.47,12.12a25.41,25.41,0,0,1-11.78,2.86,30.6,30.6,0,0,1-6.73-.8,1.49,1.49,0,0,1-.66,1.59c-14.07,8.57-25.16,17.73-33.06,27.48.27,0,.66,0,1.13,0a21.22,21.22,0,0,1,7.18,1.25,15,15,0,0,1,8,6.57,1.5,1.5,0,1,1-2.59,1.51,12,12,0,0,0-6.4-5.27,18.32,18.32,0,0,0-6.14-1.06,8.92,8.92,0,0,0-1.23.06h0a1.5,1.5,0,0,1-1.54-.92c-.23.3-.46.59-.68.89-8,10.88-12.09,22.45-12.09,34.92,0,1,0,2,.08,2.93l33.34-.73A62.51,62.51,0,0,0,1399.9,1041.8Zm-22.37-46.91s.47,0,1.22,0a32.4,32.4,0,0,1,11.93,2.22,1.5,1.5,0,1,1-1.15,2.77,29.58,29.58,0,0,0-10.78-2c-.59,0-1,0-1,0h0a1.5,1.5,0,1,1-.2-3Zm-11.57,12a17.3,17.3,0,0,0-2.36.14h0a1.5,1.5,0,0,1-.46-3,20.23,20.23,0,0,1,2.82-.17,22.3,22.3,0,0,1,12.51,3.58,1.5,1.5,0,0,1-1.69,2.48A19.36,19.36,0,0,0,1366,1006.87Z"/><path d="M1425.19,952.65a1.53,1.53,0,0,0-1.36.77l-.38.67c-.4.71-.79,1.41-1.2,2.11a104,104,0,0,1-10.8,16.11c-.5.58-1,1.15-1.51,1.7a32.17,32.17,0,0,1-8.63,6.72,22.34,22.34,0,0,1-10.41,2.53,29,29,0,0,1-8.1-1.26l-.66-.18a1.5,1.5,0,0,0-1.55.42,1.48,1.48,0,0,0-.28,1.58h0l.55,1.34c-15.2,9.4-27,19.55-35.15,30.59-8.3,11.29-12.68,23.55-12.67,36.69,0,1,0,2,.08,3h47.1a68.41,68.41,0,0,0,22.35-11.88c13.63-10.71,23.23-25.32,29.46-37.26a140.59,140.59,0,0,0,9.09-21.27,1.52,1.52,0,0,0-.08-1.09l-13.8-28.84-.75-1.55A1.49,1.49,0,0,0,1425.19,952.65ZM1336,1052.44c0-12.47,4.11-24,12.09-34.92.22-.3.45-.59.68-.89a1.39,1.39,0,0,1-.12-.41,1.51,1.51,0,0,1,1.32-1.66l.44,0c7.9-9.75,19-18.91,33.06-27.48a1.49,1.49,0,0,0,.66-1.59,30.6,30.6,0,0,0,6.73.8,25.41,25.41,0,0,0,11.78-2.86c5.28-2.71,9.63-7.07,13.47-12.12a126.68,126.68,0,0,0,8.88-13.89l13,27.27a146.11,146.11,0,0,1-17,34.13,98.47,98.47,0,0,1-21.18,23,62.51,62.51,0,0,1-30.44,12.84l-33.34.73C1336.07,1054.39,1336,1053.41,1336,1052.44Z"/><path d="M1129.08,1007.25c.56.26,1.13.49,1.7.73s.89.39,1.34.57,1.07.38,1.61.57l1.37.47c.54.17,1.09.31,1.64.47l1.39.38c.56.14,1.13.25,1.69.37s.93.21,1.4.3l1.75.28,1.38.22c.61.08,1.22.13,1.83.2l1.36.14c.67.06,1.34.09,2,.12l1.21.08c.92,0,1.85.05,2.78.05h.8q2,0,4-.09c.53,0,1.07-.07,1.6-.1.94-.06,1.86-.11,2.8-.19l1.89-.18c.85-.08,1.7-.16,2.56-.26.68-.07,1.36-.17,2-.25l2.55-.33c.28-2.57.54-4.93.79-7.1-3.82.13-8,.18-12.22.18-11.11,0-22.9-.37-31.3-.7v4.07Z"/><path d="M1126.61,1007.79a2.75,2.75,0,0,1,1.72-.6,2.8,2.8,0,0,1,1.16.26c.42.19.86.35,1.29.53-.57-.24-1.14-.47-1.7-.73v-4.07l-3-.12v4.11a1.6,1.6,0,0,0,0,.23,2.88,2.88,0,0,0,.14.82A2.4,2.4,0,0,1,1126.61,1007.79Z"/><path d="M1158.37,1012.11q-2,.09-4,.09Q1156.35,1012.2,1158.37,1012.11Z"/><path d="M1153.55,1012.2c-.93,0-1.86,0-2.78-.05C1151.69,1012.18,1152.62,1012.2,1153.55,1012.2Z"/><path d="M1162.77,1011.82c-.94.08-1.86.13-2.8.19C1160.91,1012,1161.83,1011.9,1162.77,1011.82Z"/><path d="M1149.56,1012.07c-.68,0-1.35-.06-2-.12C1148.21,1012,1148.88,1012,1149.56,1012.07Z"/><path d="M1167.22,1011.38c-.86.1-1.71.18-2.56.26C1165.51,1011.56,1166.36,1011.48,1167.22,1011.38Z"/><path d="M1169.26,1011.13l2.12-.27h0l.39,0a2.74,2.74,0,0,1,2.54,1.74,2.68,2.68,0,0,0,.47-1.24l-1.49-.17,1.49.17c.31-2.83.6-5.4.86-7.76l-3,.13c-.25,2.17-.51,4.53-.79,7.1Z"/><path d="M1146.18,1011.81c-.61-.07-1.22-.12-1.83-.2C1145,1011.69,1145.57,1011.74,1146.18,1011.81Z"/><path d="M1133.73,1009.12c-.54-.19-1.08-.37-1.61-.57C1132.65,1008.75,1133.19,1008.93,1133.73,1009.12Z"/><path d="M1136.74,1010.06c-.55-.16-1.1-.3-1.64-.47C1135.64,1009.76,1136.19,1009.9,1136.74,1010.06Z"/><path d="M1143,1011.39l-1.75-.28Z"/><path d="M1139.82,1010.81c-.56-.12-1.13-.23-1.69-.37C1138.69,1010.58,1139.26,1010.69,1139.82,1010.81Z"/><path class="cls-5" d="M1168,1043.92c1-7.77,2.19-18.44,3.47-30.05a129.74,129.74,0,0,1-17.44,1.34c-8.86,0-17.49-1.3-25.53-4.93a2.75,2.75,0,0,1-2.42,1.92l-3.56.26a14.68,14.68,0,0,1,4.51,3.79,9.7,9.7,0,0,1,2,5.94v.19a1.5,1.5,0,1,1-3-.06v-.13a6.61,6.61,0,0,0-1.08-3.63,9.92,9.92,0,0,0-2.72-2.72,18.72,18.72,0,0,0-6.23-2.72,4.32,4.32,0,0,0-.71-.13l-7.38.54a13.33,13.33,0,0,1,3.11,6.5,1.5,1.5,0,0,1-2.94.59,9.84,9.84,0,0,0-2.79-5.48,5.65,5.65,0,0,0-2.09-1.27,69.91,69.91,0,0,0-16.65,2.36l.52.44a14.74,14.74,0,0,1,4.32,7.44,1.49,1.49,0,0,1-1.06,1.83,1.51,1.51,0,0,1-1.84-1.07,12.72,12.72,0,0,0-2.41-4.92,8.86,8.86,0,0,0-2.41-2.06,3.7,3.7,0,0,0-.63-.31h0a1.39,1.39,0,0,1-.28-.12A46.9,46.9,0,0,0,1077,1020a37.9,37.9,0,0,0-14.12,12.66,44.27,44.27,0,0,0-7,22.75h110.54c.1-.53.22-1.26.36-2.17C1167.1,1051,1167.52,1047.85,1168,1043.92Z"/><path d="M1174.49,1013.88c0-.1,0-.2,0-.3a2.6,2.6,0,0,0-.2-1,2.74,2.74,0,0,0-2.54-1.74l-.39,0h0l-2.12.27c-.68.08-1.36.18-2,.25-.86.1-1.71.18-2.56.26l-1.89.18c-.94.08-1.86.13-2.8.19-.53,0-1.07.08-1.6.1q-2,.09-4,.09h-.8c-.93,0-1.86,0-2.78-.05l-1.21-.08c-.68,0-1.35-.06-2-.12l-1.36-.14c-.61-.07-1.22-.12-1.83-.2l-1.38-.22-1.75-.28c-.47-.09-.93-.2-1.4-.3s-1.13-.23-1.69-.37l-1.39-.38c-.55-.16-1.1-.3-1.64-.47l-1.37-.47c-.54-.19-1.08-.37-1.61-.57s-.9-.38-1.34-.57-.87-.34-1.29-.53a2.8,2.8,0,0,0-1.16-.26,2.75,2.75,0,0,0-1.72.6,2.4,2.4,0,0,0-.41.43,2.57,2.57,0,0,0-.51,1l-22.37,1.64c-11.69.33-20.73,2.8-27.71,6.48a41.09,41.09,0,0,0-19.23,21.26,48.8,48.8,0,0,0-3.52,16.8h3a44.27,44.27,0,0,1,7-22.75A37.9,37.9,0,0,1,1077,1020a46.9,46.9,0,0,1,5.79-2.54,1.51,1.51,0,0,1-.65-1.77,1.49,1.49,0,0,1,1.9-.94,9,9,0,0,1,2.54,1.49,69.91,69.91,0,0,1,16.65-2.36l-.11,0h0a1.5,1.5,0,0,1,.6-2.93,7.81,7.81,0,0,1,3.21,1.66,10.32,10.32,0,0,1,1,1l7.38-.54h0a1.5,1.5,0,0,1-1.54-1.38,1.51,1.51,0,0,1,1.39-1.61h.16a4.56,4.56,0,0,1,.87.1c.33.06.7.14,1.13.25a24.21,24.21,0,0,1,3,1,23.83,23.83,0,0,1,2.15,1.07l3.56-.26a2.75,2.75,0,0,0,2.42-1.92c8,3.63,16.67,4.93,25.53,4.93a129.74,129.74,0,0,0,17.44-1.34c-1.28,11.61-2.5,22.28-3.47,30.05-.48,3.93-.9,7.12-1.23,9.31-.14.91-.26,1.64-.36,2.17h3c.19-1.06.4-2.5.65-4.33C1171.15,1043.45,1172.76,1029.5,1174.49,1013.88Zm-48.86-4.46.25,0h0l1.23.24Z"/><path class="cls-5" d="M1228.11,535.74a1.5,1.5,0,0,1,1.21-1.72l-12.91-70.08c.17,9.92.27,19.7.27,29.25,0,17.28-.31,33.86-1,49.35a1.48,1.48,0,0,1-.65,1.17,92.81,92.81,0,0,1-53.4,16.73,102,102,0,0,1-28.5-4.12c-5.06,44.57-9.39,92.51-11.41,138.43-2.71,61.8-3.46,123.54-3.46,175.16,0,62.78,1.1,110.58,1.1,125.45,0,1.18,0,2.16,0,2.93,0,.61,0,1.08-.06,1.45,5.45.27,24.11,1.14,41.1,1.14,9.53,0,18.56-.28,24.3-1.07,24.45-89,41.68-216.47,53.32-333q2.32-23.25,4.35-45.79c-5.28-29.51-9.75-58.44-14.24-85.27Z"/><path d="M1116.36,995.36c0,1.17,0,2.13,0,2.87s0,1.26-.06,1.47a2.83,2.83,0,0,0,0,.29,2.74,2.74,0,0,0,2.61,2.73c1.43.07,4,.2,7.21.34l3,.12c8.4.33,20.19.7,31.3.7,4.25,0,8.4,0,12.22-.18l3-.13c3.68-.17,7-.43,9.64-.81a2.74,2.74,0,0,0,2.26-2c1-3.44,1.88-6.95,2.8-10.5,6.51-25,12.49-52.74,18-82.13,16-85.76,27.71-185.91,36.06-276.12q-1-5.52-2-11-2,22.5-4.35,45.79c-11.64,116.54-28.87,244-53.32,333-5.74.79-14.77,1.08-24.3,1.07-17,0-35.65-.87-41.1-1.14,0-.37,0-.84.06-1.45,0-.77,0-1.75,0-2.93,0-14.87-1.1-62.67-1.1-125.45,0-51.62.75-113.36,3.46-175.16,2-45.92,6.35-93.86,11.41-138.43q-1.55-.45-2.91-.9c-5.1,44.77-9.47,93-11.5,139.2-2.71,61.86-3.46,123.64-3.46,175.29q0,11,0,21.31c.1,25,.35,47,.58,64.54C1116.13,974.77,1116.36,988.57,1116.36,995.36Z"/><path class="cls-5" d="M1229.34,534a1.5,1.5,0,0,1,1.73,1.23c12.14,72.56,24.06,160.29,52.4,232.93,44.83,114.94,81.6,187.38,86,196l0,.09c2.13.12,4.18.18,6.13.18,10.31,0,18.19-1.57,24.63-4.58s11.48-7.47,16.11-13.46a106.38,106.38,0,0,0,8.61-13.51c-1.25-5.7-12-55-24.16-115.26-12.92-64.17-27.41-140.83-33.67-190.94-2.77-22.11-5.48-46.94-8.32-72.27a210.16,210.16,0,0,1-40.61,4,172.26,172.26,0,0,1-58.89-9.92,1.52,1.52,0,0,1-1-1.23c-.53-4.42-1.58-16.31-2.85-33.53s-2.78-39.72-4.21-65.25c-1.07-18.92-2.1-39.51-3-60.84-11,.65-23,1-34.57,1.07,1.26,25.4,2.2,50.78,2.64,75.22L1229.32,534Z"/><path d="M1358.85,554.38c2.84,25.33,5.55,50.16,8.32,72.27,6.26,50.11,20.75,126.77,33.67,190.94C1413,877.9,1423.75,927.15,1425,932.85a106.38,106.38,0,0,1-8.61,13.51c-4.63,6-9.68,10.45-16.11,13.46s-14.32,4.58-24.63,4.58c-2,0-4-.06-6.13-.18l0-.09c-4.41-8.57-41.18-81-86-196-28.34-72.64-40.26-160.37-52.4-232.93a1.5,1.5,0,0,0-1.73-1.23h0a1.5,1.5,0,0,0-1.21,1.72h0c4.49,26.83,9,55.76,14.24,85.27q1,5.49,2,11c8.68,46.78,19.66,94.54,36.32,137.25,33,84.5,61.56,146.05,76.19,176.21,6.62,13.66,10.38,20.88,10.39,20.89a1.49,1.49,0,0,0,1.24.81c1.74.1,3.4.16,5,.19l2.12,0h1.14a69.52,69.52,0,0,0,17.32-2.15A42.84,42.84,0,0,0,1413.7,954a60.35,60.35,0,0,0,6.19-7.31q1-1.36,2-2.82c2.06-3.07,4-6.41,6-10a1.47,1.47,0,0,0,.15-1s-.18-.8-.51-2.34c-1-4.43-3.26-15-6.4-29.72l-.7-3.26c-5-23.46-11.9-56.5-19.1-92.6-12.25-61.45-25.34-131.74-31.2-178.57-2.77-22.16-5.49-47.07-8.34-72.5C1360.84,554,1359.87,554.18,1358.85,554.38Z"/><path class="cls-5" d="M48.81,591.71c-1.76,4.83-3.69,11.48-5.53,18.52-3.69,14.1-7.07,29.8-8.38,36.07-.3,1.41-.49,2.33-.56,2.66v279.4A30.31,30.31,0,0,0,37.48,942a20.32,20.32,0,0,0,7.89,8.68,13.52,13.52,0,0,0,13.55,0,18.75,18.75,0,0,0,5.67-5.1,28.94,28.94,0,0,0,5.35-17.26V649l-.32-1.56c-.23-1.11-.57-2.71-1-4.69-.85-4-2-9.4-3.44-15.41-2.79-12-6.38-26.27-9.52-35a43.65,43.65,0,0,0-2.5-5.92,7.5,7.5,0,0,0-1-1.53h0a6.89,6.89,0,0,0-.88,1.27A39.14,39.14,0,0,0,48.81,591.71Zm6.55,59.82a1.5,1.5,0,0,1,1.5,1.5V937.32a1.5,1.5,0,0,1-1.5,1.5H48.93a1.48,1.48,0,0,1-1.06-.44,1.52,1.52,0,0,1-.44-1.06V653a1.52,1.52,0,0,1,.44-1.06,1.48,1.48,0,0,1,1.06-.44Z"/><path d="M43.89,953.33a16.5,16.5,0,0,0,16.5,0,23.26,23.26,0,0,0,9.09-9.93,33.23,33.23,0,0,0,3.46-15V648.81a1.53,1.53,0,0,0,0-.3s-3.35-16.44-7.44-32.9c-2-8.23-4.28-16.46-6.39-22.69A57.21,57.21,0,0,0,56,585.27a11.66,11.66,0,0,0-1.54-2.38,4.2,4.2,0,0,0-1-.83,2.55,2.55,0,0,0-1.37-.42,2.58,2.58,0,0,0-1.37.42,5.81,5.81,0,0,0-1.69,1.82,32.22,32.22,0,0,0-2.75,5.9c-1.64,4.34-3.39,10.16-5.09,16.46-5.11,18.92-9.86,42.26-9.87,42.27a1.53,1.53,0,0,0,0,.3V928.36a31.9,31.9,0,0,0,6,19.06A21.46,21.46,0,0,0,43.89,953.33ZM52.14,584.8h0a7.5,7.5,0,0,1,1,1.53,43.65,43.65,0,0,1,2.5,5.92c3.14,8.78,6.73,23,9.52,35,1.39,6,2.59,11.46,3.44,15.41.42,2,.76,3.58,1,4.69l.32,1.56v279.4a28.94,28.94,0,0,1-5.35,17.26,18.75,18.75,0,0,1-5.67,5.1,13.52,13.52,0,0,1-13.55,0A20.32,20.32,0,0,1,37.48,942a30.31,30.31,0,0,1-3.14-13.68V649c.07-.33.26-1.25.56-2.66,1.31-6.27,4.69-22,8.38-36.07,1.84-7,3.77-13.69,5.53-18.52a39.14,39.14,0,0,1,2.45-5.64A6.89,6.89,0,0,1,52.14,584.8Z"/><rect class="cls-5" x="50.43" y="654.53" width="3.43" height="281.29"/><path d="M47.87,652a1.52,1.52,0,0,0-.44,1.06V937.32a1.52,1.52,0,0,0,.44,1.06,1.48,1.48,0,0,0,1.06.44h6.43a1.5,1.5,0,0,0,1.5-1.5V653a1.5,1.5,0,0,0-1.5-1.5H48.93A1.48,1.48,0,0,0,47.87,652Zm2.56,283.85V654.53h3.43V935.82Z"/><path d="M378.27,1055.4H1.5A1.5,1.5,0,0,0,0,1056.56a2,2,0,0,0,0,.24s0,.06,0,.08v0a1.63,1.63,0,0,0,0,.31H0a1.4,1.4,0,0,0,.09.29l0,.08a1.18,1.18,0,0,0,.11.19l.08.09.14.15.09.07a1.88,1.88,0,0,0,.18.12l.09,0,.23.08.07,0a1.86,1.86,0,0,0,.33,0H388.27A42.68,42.68,0,0,1,378.27,1055.4Z"/><path d="M831.35,1055.4H412.76a42.54,42.54,0,0,1-10,3H841.35A42.83,42.83,0,0,1,831.35,1055.4Z"/><path d="M1333.12,1055.4H865.85a42.76,42.76,0,0,1-10,3h726.79a1.5,1.5,0,0,0,0-3H1333.12Z"/><path class="cls-5" d="M1105.09,278.72a1.52,1.52,0,0,1-.95,1.3,1.5,1.5,0,0,1-1.58-.31c-45.26-43-97.88-65.64-105.47-68.77l-.63.69c-.82.92-2,2.26-3.24,3.92a55.94,55.94,0,0,0-7.59,13,29.45,29.45,0,0,0-2.2,10.08c26.35,38.31,51.54,65.3,74.44,82.67s43.62,25.18,60.78,25.17h.41c.39-28.72,1.17-57,2.53-82.29h0a1.5,1.5,0,0,1,1.56-1.42l3-74.18C1116.15,210.45,1107.65,239.86,1105.09,278.72Z"/><path d="M1152.9,143.31l.37-.41.39-.43q3.18-3.54,6.34-6.41a119.42,119.42,0,0,0-15.43,16.24C1149.08,147,1152.54,143.66,1152.9,143.31Z"/><path d="M1119.06,346.5h-.41c-17.16,0-37.8-7.73-60.78-25.17s-48.09-44.36-74.44-82.67a29.45,29.45,0,0,1,2.2-10.08,55.94,55.94,0,0,1,7.59-13c1.27-1.66,2.42-3,3.24-3.92l.63-.69c7.59,3.13,60.21,25.77,105.47,68.77a1.5,1.5,0,0,0,1.58.31,1.52,1.52,0,0,0,.95-1.3c2.56-38.86,11.06-68.27,21-90.11l.09-2.39a1.14,1.14,0,0,1-.44-.08,1.49,1.49,0,0,1-.91-1.91v0c-10.47,21.91-19.58,51.67-22.54,91.19-48.92-45.48-105-67.56-105.07-67.6a1.52,1.52,0,0,0-1.62.33s-.42.43-1.09,1.17-1.27,1.42-2.09,2.42a71.16,71.16,0,0,0-4.4,5.93,54.51,54.51,0,0,0-5.23,9.86c-.38,1-.72,2-1,3s-.56,2-.77,3a28.21,28.21,0,0,0-.61,5.67,1.52,1.52,0,0,0,.26.85c26.59,38.72,52.05,66.06,75.38,83.76s44.52,25.78,62.59,25.78h.37C1119,348.5,1119,347.5,1119.06,346.5Z"/><path class="cls-6" d="M1233.76,319.58a6.32,6.32,0,0,1,1.86-.82,20.59,20.59,0,0,1,4.76-.4c1.69,0,3.67.08,5.86.21-.27-14-.41-27.93-.41-41.51,0-12.39.12-24.5.39-36.14,1.43-62.06,15.57-109.84,18.43-118.93-5.6-1.28-10.79-2.26-15.52-3,0,1.38-.07,2.75-.12,4.07a1.48,1.48,0,0,1-.34.91l-23.22,27.79a1.52,1.52,0,0,1-1.31.53l-1.44-.17a1.48,1.48,0,0,1-1-.61l-14.36-19.93a1.56,1.56,0,0,1-.28-.88V118.15a98.15,98.15,0,0,0-15.24,3.67l-.35.12c1.25,10.76,10.56,92.49,17.52,188.76,5.39,1.47,10.87,3.36,15.83,5.25C1228.07,317.2,1231.12,318.45,1233.76,319.58Z"/><path class="cls-6" d="M1247.66,369.78a207.65,207.65,0,0,1-22.5-9.5,1.5,1.5,0,0,1-.81-1.35s0-1.57.12-4a20.92,20.92,0,0,0-4.58-.64,7,7,0,0,0-2,.25,11.82,11.82,0,0,0-3.14,1.74c-.81.56-1.69,1.22-2.67,1.89q.83,13.75,1.53,27.59c11.62-.08,23.58-.41,34.6-1.06Q1247.92,377.27,1247.66,369.78Z"/><path d="M1190.71,119.7a1.5,1.5,0,0,1,.59,1s0,.41.14,1.21l.35-.12a98.15,98.15,0,0,1,15.24-3.67v-3a101.93,101.93,0,0,0-17.59,4.34l.11,0A1.5,1.5,0,0,1,1190.71,119.7Z"/><path d="M1248.22,384.66c-11,.65-23,1-34.6,1.06l.15,3c11.61-.08,23.54-.42,34.57-1.07Z"/><path d="M1153.66,142.47l-.39.43Z"/><path d="M1249.13,119c4.73.73,9.92,1.71,15.52,3,.32-1,.5-1.56.51-1.57a1.49,1.49,0,0,1,1.59-1h.08c-6.41-1.52-12.31-2.63-17.65-3.45C1249.17,117,1249.15,118,1249.13,119Z"/><path class="cls-5" d="M1240.88,94.22a9.06,9.06,0,0,1-3.42-1.78,7.31,7.31,0,0,1-1.92-2.7,13.89,13.89,0,0,1-.9-3.21,49.37,49.37,0,0,1-.49-6.54,24.42,24.42,0,0,0-.27-3.2,2.37,2.37,0,0,0-.11-.41,2.58,2.58,0,0,0-.3.2,36.51,36.51,0,0,0-7.45,6.67h0a1.5,1.5,0,0,1-2.68-.65l-4.6-27.29A72.51,72.51,0,0,1,1206.22,52c-4.73-1.64-9.5-3.63-13.76-5.57-5.32-2.41-9.83-4.72-12.49-6.12-.13.61-.27,1.23-.4,1.86-2.16,10.11-4.31,23-4.31,34.06a52.31,52.31,0,0,0,1.37,12.92c1,3.67,2.46,6.5,4.51,8.25a9.16,9.16,0,0,0,5,2.13l22.39-.28a1.47,1.47,0,0,1,1.07.43,1.49,1.49,0,0,1,.45,1.07v29.45l13.66,19L1246,122.46c.12-3.57.18-7.37.18-11.34,0-5.27-.11-10.83-.34-16.49-.43,0-.87.06-1.31.06A13.62,13.62,0,0,1,1240.88,94.22Z"/><path d="M1207,118.15v12.56a1.56,1.56,0,0,0,.28.88l14.36,19.93a1.48,1.48,0,0,0,1,.61l1.44.17a1.52,1.52,0,0,0,1.31-.53L1248.67,124a1.48,1.48,0,0,0,.34-.91c0-1.32.09-2.69.12-4.07,0-1,0-2,0-3,0-1.59,0-3.2,0-4.85,0-5.4-.11-11.11-.35-16.91a24.47,24.47,0,0,1-3,.42c.23,5.66.34,11.22.34,16.49,0,4-.06,7.77-.18,11.34l-22.34,26.74-13.66-19V100.77a1.49,1.49,0,0,0-.45-1.07,1.47,1.47,0,0,0-1.07-.43l-22.39.28a9.16,9.16,0,0,1-5-2.13c-2.05-1.75-3.55-4.58-4.51-8.25a52.31,52.31,0,0,1-1.37-12.92c0-11,2.15-24,4.31-34.06.13-.63.27-1.25.4-1.86-1.6-.85-2.52-1.36-2.53-1.37h0l-.21-.11c-.2.88-.4,1.78-.6,2.71-2.18,10.24-4.37,23.28-4.37,34.69,0,6.64.73,12.73,2.75,17.48a16,16,0,0,0,4.18,6,12.15,12.15,0,0,0,6.64,2.85h.19l21-.26v15.86Z"/><path class="cls-5" d="M1278.76,320.33a98.6,98.6,0,0,0,15.14-1,32.48,32.48,0,0,0,11.46-3.65,11.75,11.75,0,0,0,4.33-4.2,30.54,30.54,0,0,0,3.24-9.87,72.75,72.75,0,0,0,.94-12.37c0-16.21-3.82-33.57-4.29-35.63,0-.13,0-.2,0-.2a1.5,1.5,0,0,1,1.11-1.8l.11,0L1290.86,128l-.5-.19a98.39,98.39,0,0,0-22.74-5.28c-.1.32-.22.69-.35,1.14-.48,1.52-1.15,3.78-2,6.71-1.64,5.85-3.84,14.38-6.09,25.05a472.27,472.27,0,0,0-10,85.55c-.27,11.61-.39,23.7-.39,36.07,0,13.64.15,27.62.41,41.7,2.5.17,5.2.38,8.06.59C1264,319.84,1271.54,320.33,1278.76,320.33Z"/><path class="cls-5" d="M1258.51,513.52c1.19,16.07,2.19,27.54,2.73,32.46a169.73,169.73,0,0,0,57,9.44,200.62,200.62,0,0,0,60.64-9.3c-3-11.46-24.49-94.6-38.58-171.42a68.64,68.64,0,0,1-7.65,2.9,90.19,90.19,0,0,1-26.66,3.74c-20,0-40.13-5.25-55.29-10.49C1252.74,427.27,1256.05,480.28,1258.51,513.52Z"/><path d="M1291.67,125.11a96.14,96.14,0,0,1,11.18,5.4A67.8,67.8,0,0,0,1291.67,125.11Z"/><path d="M1265.16,120.42s-.19.55-.51,1.57c-2.86,9.09-17,56.87-18.43,118.93-.27,11.64-.39,23.75-.39,36.14,0,13.58.14,27.5.41,41.51l3,.19c-.26-14.08-.41-28.06-.41-41.7,0-12.37.12-24.46.39-36.07a472.27,472.27,0,0,1,10-85.55c2.25-10.67,4.45-19.2,6.09-25.05.82-2.93,1.49-5.19,2-6.71.13-.45.25-.82.35-1.14a98.39,98.39,0,0,1,22.74,5.28l-.23-.09-.05,0a1.49,1.49,0,0,1,1-2.83,103.62,103.62,0,0,0-24.21-5.46h-.08A1.49,1.49,0,0,0,1265.16,120.42Z"/><path d="M1340.3,374.7c14.09,76.82,35.58,160,38.58,171.42a200.62,200.62,0,0,1-60.64,9.3,169.73,169.73,0,0,1-57-9.44c-.54-4.92-1.54-16.39-2.73-32.46-2.46-33.24-5.77-86.25-7.81-142.67l-.13,0-2.91-1q.25,7.49.56,14.88l.12,3c.87,21.33,1.9,41.92,3,60.84,1.43,25.53,2.93,48,4.21,65.25s2.32,29.11,2.85,33.53a1.52,1.52,0,0,0,1,1.23,172.26,172.26,0,0,0,58.89,9.92,210.16,210.16,0,0,0,40.61-4c1-.2,2-.4,3-.61a155.18,155.18,0,0,0,19.4-5.28,1.5,1.5,0,0,0,.93-1.79s-.2-.75-.57-2.19c-2.81-10.8-15.47-60-27.42-115.85-3.87-18.1-7.66-36.89-11-55.3C1342.18,373.83,1341.25,374.28,1340.3,374.7Z"/><path class="cls-5" d="M1185.93,361.43l-.08,0a20.55,20.55,0,0,1-11.16-10,32.42,32.42,0,0,1-3.37-15,40,40,0,0,1,3.15-15.67c2-4.7,5-8.65,8.88-10.88a17.86,17.86,0,0,1,8.83-1.89,60.9,60.9,0,0,1,13.71,2c-6.71-92.64-15.59-171.65-17.28-186.36,0-.29-.07-.54-.09-.78l-1.37.4a55.81,55.81,0,0,0-8,3.23,78.56,78.56,0,0,0-24.09,19l-.09.1-.06.05-.16.16-.64.63c-.56.56-1.37,1.39-2.36,2.44-2,2.11-4.72,5.15-7.69,8.83-5.93,7.37-12.77,17.37-16.43,27.68a1.47,1.47,0,0,1-1.47,1l-.09,2.39-3,74.18h0a1.51,1.51,0,0,1,1.42,1.58c-2.17,40.4-2.87,88.67-2.87,134,0,70.85,1.7,134.4,2.13,149.17,0,1,.05,1.77.07,2.31.47.21,1.14.5,2,.85,1.85.75,4.56,1.75,8,2.76a99.13,99.13,0,0,0,27.73,4,89.83,89.83,0,0,0,51.09-15.79c.66-15.23,1-31.49,1-48.46,0-41.93-1.82-88.09-4.48-133.21a24.26,24.26,0,0,1-12.33,3.25A37.58,37.58,0,0,1,1185.93,361.43Z"/><path d="M1133.13,556.32a102,102,0,0,0,28.5,4.12,92.81,92.81,0,0,0,53.4-16.73,1.48,1.48,0,0,0,.65-1.17c.69-15.49,1-32.07,1-49.35,0-9.55-.1-19.33-.27-29.25-.44-24.44-1.38-49.82-2.64-75.22l-.15-3q-.7-13.82-1.53-27.59c-.5.35-1,.71-1.58,1.06s-.86.53-1.31.79c2.66,45.12,4.48,91.28,4.48,133.21,0,17-.3,33.23-1,48.46a89.83,89.83,0,0,1-51.09,15.79,99.13,99.13,0,0,1-27.73-4c-3.42-1-6.13-2-8-2.76-.86-.35-1.53-.64-2-.85,0-.54,0-1.31-.07-2.31-.43-14.77-2.13-78.32-2.13-149.17,0-45.29.7-93.56,2.87-134a1.51,1.51,0,0,0-1.42-1.58h0a1.5,1.5,0,0,0-1.56,1.42h0c-1.36,25.26-2.14,53.57-2.53,82.29,0,1,0,2,0,3-.21,16.33-.3,32.77-.3,48.83,0,81,2.23,152.48,2.23,152.49a1.49,1.49,0,0,0,.83,1.3,70.33,70.33,0,0,0,8.44,3.3Q1131.59,555.87,1133.13,556.32Z"/><path d="M1125.77,186.14a1.14,1.14,0,0,0,.44.08,1.47,1.47,0,0,0,1.47-1c3.66-10.31,10.5-20.31,16.43-27.68,3-3.68,5.7-6.72,7.69-8.83,1-1.05,1.8-1.88,2.36-2.44l.64-.63.16-.16.06-.05.09-.1a78.56,78.56,0,0,1,24.09-19,55.81,55.81,0,0,1,8-3.23l1.37-.4c0,.24,0,.49.09.78,1.69,14.71,10.57,93.72,17.28,186.36l2.23.57c.28.07.56.16.84.24-7-96.27-16.27-178-17.52-188.76-.09-.8-.14-1.21-.14-1.21a1.5,1.5,0,0,0-1.75-1.31l-.11,0a49.25,49.25,0,0,0-11.57,4.24A78.38,78.38,0,0,0,1160,136.06q-3.15,2.88-6.34,6.41l-.39.43-.37.41c-.36.35-3.82,3.7-8.33,9q-1.35,1.57-2.8,3.37c-6,7.52-13,17.7-16.9,28.51v0A1.49,1.49,0,0,0,1125.77,186.14Z"/><path class="cls-5" d="M1207.35,313.36a62.3,62.3,0,0,0-15.17-2.43,15,15,0,0,0-7.33,1.49c-3.09,1.76-5.77,5.18-7.62,9.47a36.85,36.85,0,0,0-2.91,14.48,29.54,29.54,0,0,0,3,13.59,17.54,17.54,0,0,0,9.53,8.61,34.29,34.29,0,0,0,10,1.66,20.91,20.91,0,0,0,9.63-2.22,48.05,48.05,0,0,0,6.54-4.23,14.7,14.7,0,0,1,4-2.15,10,10,0,0,1,2.87-.38,22,22,0,0,1,4.73.6c0-.41.06-.83.08-1.26a124.59,124.59,0,0,1,2.17-16.82,39,39,0,0,1,3.37-10.08,15.26,15.26,0,0,1,1.18-1.84l-.48-.21A189.8,189.8,0,0,0,1207.35,313.36Z"/><path d="M1217.9,354.5a7,7,0,0,1,2-.25,20.92,20.92,0,0,1,4.58.64c0-.9.09-1.92.15-3a22,22,0,0,0-4.73-.6,10,10,0,0,0-2.87.38,14.7,14.7,0,0,0-4,2.15,48.05,48.05,0,0,1-6.54,4.23,20.91,20.91,0,0,1-9.63,2.22,34.29,34.29,0,0,1-10-1.66,17.54,17.54,0,0,1-9.53-8.61,29.54,29.54,0,0,1-3-13.59,36.85,36.85,0,0,1,2.91-14.48c1.85-4.29,4.53-7.71,7.62-9.47a15,15,0,0,1,7.33-1.49,62.3,62.3,0,0,1,15.17,2.43,189.8,189.8,0,0,1,23.59,8.28l.48.21a9.47,9.47,0,0,1,1.94-2c.13-.1.27-.18.4-.27-2.64-1.13-5.69-2.38-9-3.63-5-1.89-10.44-3.78-15.83-5.25-.28-.08-.56-.17-.84-.24l-2.23-.57a60.9,60.9,0,0,0-13.71-2,17.86,17.86,0,0,0-8.83,1.89c-3.86,2.23-6.83,6.18-8.88,10.88a40,40,0,0,0-3.15,15.67,32.42,32.42,0,0,0,3.37,15,20.55,20.55,0,0,0,11.16,10l.08,0a37.58,37.58,0,0,0,10.94,1.8A24.26,24.26,0,0,0,1209.2,360c.45-.26.89-.52,1.31-.79s1.08-.71,1.58-1.06c1-.67,1.86-1.33,2.67-1.89A11.82,11.82,0,0,1,1217.9,354.5Z"/><path class="cls-5" d="M1310.76,251.59a1.5,1.5,0,0,1,1.7,1.13c0,.06,4.4,18.75,4.41,36.52a76.55,76.55,0,0,1-1,12.88A33.49,33.49,0,0,1,1312.3,313a14.84,14.84,0,0,1-5.39,5.28,29.61,29.61,0,0,1-7.91,3.11c-5.91,1.49-13,2-20.24,2s-14.93-.5-21.68-1-12.69-1-16.7-1a18.86,18.86,0,0,0-4,.31,4.45,4.45,0,0,0-2.28,1.64,15.32,15.32,0,0,0-2.16,3.87A55.61,55.61,0,0,0,1229,339a156,156,0,0,0-1.61,19.06l1,.46c1.17.57,2.89,1.37,5.08,2.35,4.39,1.94,10.66,4.54,18.15,7.13,15,5.19,34.89,10.37,54.44,10.37,13.24,0,26.29-2.37,37.6-8.62s20.94-16.35,27.42-32.12c4.31-10.51,7.21-23.55,8.17-39.6.33-5.44.48-10.71.48-15.82,0-60.34-21.76-98.61-43.82-122-20.25-21.5-40.79-30.44-45-32.12Z"/><path d="M1289.17,125.79a1.5,1.5,0,0,0,.91,1.92l.05,0,.23.09.5.19c4.19,1.68,24.73,10.62,45,32.12,22.06,23.44,43.81,61.71,43.82,122.05,0,5.11-.15,10.38-.48,15.82-1,16.05-3.86,29.09-8.17,39.6-6.48,15.77-16.11,25.87-27.42,32.12s-24.36,8.62-37.6,8.62c-19.55,0-39.46-5.18-54.44-10.37-7.49-2.59-13.76-5.19-18.15-7.13-2.19-1-3.91-1.78-5.08-2.35l-1-.46A156,156,0,0,1,1229,339a55.61,55.61,0,0,1,2.94-11.79,15.32,15.32,0,0,1,2.16-3.87,4.45,4.45,0,0,1,2.28-1.64,18.86,18.86,0,0,1,4-.31c4,0,10,.49,16.7,1s14.32,1,21.68,1,14.33-.48,20.24-2a29.61,29.61,0,0,0,7.91-3.11,14.84,14.84,0,0,0,5.39-5.28,33.49,33.49,0,0,0,3.59-10.85,76.55,76.55,0,0,0,1-12.88c0-17.77-4.4-36.46-4.41-36.52a1.5,1.5,0,0,0-1.7-1.13l-.11,0a1.5,1.5,0,0,0-1.11,1.8s0,.07,0,.2c.47,2.06,4.29,19.42,4.29,35.63a72.75,72.75,0,0,1-.94,12.37,30.54,30.54,0,0,1-3.24,9.87,11.75,11.75,0,0,1-4.33,4.2,32.48,32.48,0,0,1-11.46,3.65,98.6,98.6,0,0,1-15.14,1c-7.22,0-14.73-.49-21.46-1-2.86-.21-5.56-.42-8.06-.59l-3-.19c-2.19-.13-4.17-.21-5.86-.21a20.59,20.59,0,0,0-4.76.4,6.32,6.32,0,0,0-1.86.82c-.13.09-.27.17-.4.27a9.47,9.47,0,0,0-1.94,2,15.26,15.26,0,0,0-1.18,1.84,39,39,0,0,0-3.37,10.08,124.59,124.59,0,0,0-2.17,16.82c0,.43,0,.85-.08,1.26-.06,1.12-.11,2.14-.15,3-.11,2.47-.12,4-.12,4a1.5,1.5,0,0,0,.81,1.35,207.65,207.65,0,0,0,22.5,9.5l2.91,1,.13,0c15.16,5.24,35.27,10.48,55.29,10.49a90.19,90.19,0,0,0,26.66-3.74,68.64,68.64,0,0,0,7.65-2.9c1-.42,1.88-.87,2.81-1.34A61.16,61.16,0,0,0,1366,353.25c8.81-12.76,14.71-30.61,16.18-55.07.33-5.5.48-10.83.48-16,0-31-5.69-56.38-14.26-77a153.58,153.58,0,0,0-48.24-63.3,140.91,140.91,0,0,0-17.31-11.4,96.14,96.14,0,0,0-11.18-5.4c-.36-.15-.57-.22-.58-.22h0A1.5,1.5,0,0,0,1289.17,125.79Z"/><path d="M1178.84,36.31l.06,0,.16.09.48.26,1.82,1c1.56.82,3.8,2,6.48,3.29a181.74,181.74,0,0,0,19.37,8.23,65.45,65.45,0,0,0,13,3.3,1.5,1.5,0,0,1,1.3,1.24c2.52,14.92,3.71,22,4.28,25.34a48.49,48.49,0,0,1,5.93-4.93,5.92,5.92,0,0,1,1.1-.64,3.25,3.25,0,0,1,1.23-.26,2.43,2.43,0,0,1,1.64.63,3.32,3.32,0,0,1,.83,1.26A10,10,0,0,1,1237,78c.16,2.09.13,4.64.4,6.93a12.47,12.47,0,0,0,1,3.93,4.09,4.09,0,0,0,1,1.32,6.06,6.06,0,0,0,2.3,1.18,10.52,10.52,0,0,0,2.86.36,21.09,21.09,0,0,0,5.52-.85c.71-.2,1.32-.4,1.79-.57V90c0-.89-.08-2.2-.14-3.84-.13-3.28-.31-7.91-.56-13.29-.49-10.76-1.23-24.52-2.21-36.51-.66-8-1.42-15.21-2.28-20.18a7,7,0,0,0-1.61-3.34,13.64,13.64,0,0,0-3.63-2.9,42.5,42.5,0,0,0-12.38-4.22c-10-2.07-22.68-2.68-34-2.68-12.8,0-23.87.78-27.51,1.06a.34.34,0,0,1,0,.1c0,.87-.09,2.12-.09,3.64a62.52,62.52,0,0,0,1,11.41A31.44,31.44,0,0,0,1172.94,31,15.67,15.67,0,0,0,1178.84,36.31Z"/><path d="M1177.44,39s.93.52,2.53,1.37c2.66,1.4,7.17,3.71,12.49,6.12,4.26,1.94,9,3.93,13.76,5.57a72.51,72.51,0,0,0,12.52,3.29l4.6,27.29a1.5,1.5,0,0,0,2.68.65h0a36.51,36.51,0,0,1,7.45-6.67,2.58,2.58,0,0,1,.3-.2,2.37,2.37,0,0,1,.11.41,24.42,24.42,0,0,1,.27,3.2,49.37,49.37,0,0,0,.49,6.54,13.89,13.89,0,0,0,.9,3.21,7.31,7.31,0,0,0,1.92,2.7,9.06,9.06,0,0,0,3.42,1.78,13.62,13.62,0,0,0,3.68.47c.44,0,.88,0,1.31-.06a24.47,24.47,0,0,0,3-.42c.79-.16,1.54-.34,2.2-.53a26.15,26.15,0,0,0,2.93-1,1.5,1.5,0,0,0,.91-1.43s-.44-13.81-1.32-30.15c-.44-8.17-1-17-1.64-25s-1.43-15.3-2.32-20.44a10,10,0,0,0-2.27-4.76c-2-2.41-5.09-4.2-8.8-5.62-5.57-2.13-12.67-3.42-20.29-4.2A229.85,229.85,0,0,0,1195,0c-15.84,0-29,1.17-29,1.18a1.49,1.49,0,0,0-1.35,1.34s-.21,2.11-.21,5.28a59.3,59.3,0,0,0,2.14,16.46,30,30,0,0,0,3.91,8.48,18.64,18.64,0,0,0,6.76,6.11l.21.11Zm-9-19.75a62.52,62.52,0,0,1-1-11.41c0-1.52,0-2.77.09-3.64a.34.34,0,0,0,0-.1C1171.16,3.78,1182.23,3,1195,3c11.34,0,24,.61,34,2.68a42.5,42.5,0,0,1,12.38,4.22,13.64,13.64,0,0,1,3.63,2.9,7,7,0,0,1,1.61,3.34c.86,5,1.62,12.19,2.28,20.18,1,12,1.72,25.75,2.21,36.51.25,5.38.43,10,.56,13.29.06,1.64.1,2.95.14,3.84v.31c-.47.17-1.08.37-1.79.57a21.09,21.09,0,0,1-5.52.85,10.52,10.52,0,0,1-2.86-.36,6.06,6.06,0,0,1-2.3-1.18,4.09,4.09,0,0,1-1-1.32,12.47,12.47,0,0,1-1-3.93c-.27-2.29-.24-4.84-.4-6.93a10,10,0,0,0-.52-2.84,3.32,3.32,0,0,0-.83-1.26,2.43,2.43,0,0,0-1.64-.63,3.25,3.25,0,0,0-1.23.26,5.92,5.92,0,0,0-1.1.64,48.49,48.49,0,0,0-5.93,4.93c-.57-3.35-1.76-10.42-4.28-25.34a1.5,1.5,0,0,0-1.3-1.24,65.45,65.45,0,0,1-13-3.3A181.74,181.74,0,0,1,1187.84,41c-2.68-1.31-4.92-2.47-6.48-3.29l-1.82-1-.48-.26-.16-.09-.06,0a15.67,15.67,0,0,1-5.9-5.27A31.44,31.44,0,0,1,1168.42,19.21Z"/><path class="cls-5" d="M848.75,863.86h147.6a47.2,47.2,0,0,0,47.2-47.2v-2.95a47.2,47.2,0,0,0-47.2-47.2H848.75a47.2,47.2,0,0,0-47.2,47.2v2.95a47.2,47.2,0,0,0,47.2,47.2Zm170.91-35.56a1.5,1.5,0,0,1-1.5,1.5h-4.08v4.08a1.5,1.5,0,0,1-3,0V829.8H1007a1.5,1.5,0,0,1,0-3h4.08v-4.07a1.5,1.5,0,0,1,3,0v4.07h4.08A1.5,1.5,0,0,1,1019.66,828.3Zm-15.36-34.7h4.07v-4.07a1.5,1.5,0,0,1,3,0v4.07h4.08a1.5,1.5,0,0,1,0,3h-4.08v4.07a1.5,1.5,0,0,1-3,0V796.6h-4.07a1.5,1.5,0,0,1,0-3ZM996,836a1.5,1.5,0,0,1-1.5,1.5h-4.07v4.07a1.5,1.5,0,1,1-3,0v-4.07h-4.08a1.5,1.5,0,0,1,0-3h4.08v-4.08a1.5,1.5,0,0,1,3,0v4.08h4.07A1.5,1.5,0,0,1,996,836ZM980.88,798H985v-4.08a1.5,1.5,0,1,1,3,0V798H992a1.5,1.5,0,0,1,0,3H988V805a1.5,1.5,0,0,1-3,0V801h-4.08a1.5,1.5,0,1,1,0-3Zm-102.21,3.16a21.75,21.75,0,0,1,21.74-21.73h44.28a21.73,21.73,0,0,1,21.73,21.73v28.15A21.73,21.73,0,0,1,944.69,851H900.41a21.75,21.75,0,0,1-21.74-21.73Zm-25.49,5.2h4.08v-4.08a1.5,1.5,0,0,1,3,0v4.08h4.07a1.5,1.5,0,0,1,0,3h-4.07v4.07a1.5,1.5,0,0,1-3,0v-4.07h-4.08a1.5,1.5,0,1,1,0-3Zm0,33.77h4.08V836a1.5,1.5,0,0,1,3,0v4.07h4.07a1.5,1.5,0,0,1,0,3h-4.07v4.08a1.5,1.5,0,1,1-3,0v-4.08h-4.08a1.5,1.5,0,0,1,0-3Zm-12.93-9.65a1.5,1.5,0,0,1-1.5,1.5h-4.07V836a1.5,1.5,0,0,1-3,0v-4.08H827.6a1.5,1.5,0,0,1,0-3h4.08v-4.07a1.5,1.5,0,0,1,3,0v4.07h4.07A1.5,1.5,0,0,1,840.25,830.43Zm-13.8-35.27h4.08v-4.08a1.5,1.5,0,0,1,3,0v4.08h4.07a1.5,1.5,0,0,1,0,3h-4.07v4.07a1.5,1.5,0,0,1-3,0v-4.07h-4.08a1.5,1.5,0,0,1,0-3Z"/><path d="M996.35,866.86a50.2,50.2,0,0,0,50.2-50.2v-2.95a50.2,50.2,0,0,0-50.2-50.2H848.75a50.2,50.2,0,0,0-50.2,50.2v2.95a50.2,50.2,0,0,0,50.2,50.2h147.6Zm-194.8-53.15a47.2,47.2,0,0,1,47.2-47.2h147.6a47.2,47.2,0,0,1,47.2,47.2v2.95a47.2,47.2,0,0,1-47.2,47.2H848.75a47.2,47.2,0,0,1-47.2-47.2Z"/><path class="cls-5" d="M900.41,848h44.28a18.71,18.71,0,0,0,18.73-18.73V801.11a18.71,18.71,0,0,0-18.73-18.73H900.41a18.73,18.73,0,0,0-18.74,18.73v28.15A18.73,18.73,0,0,0,900.41,848Z"/><path d="M900.41,851h44.28a21.73,21.73,0,0,0,21.73-21.73V801.11a21.73,21.73,0,0,0-21.73-21.73H900.41a21.75,21.75,0,0,0-21.74,21.73v28.15A21.75,21.75,0,0,0,900.41,851Zm-18.74-49.88a18.73,18.73,0,0,1,18.74-18.73h44.28a18.71,18.71,0,0,1,18.73,18.73v28.15A18.71,18.71,0,0,1,944.69,848H900.41a18.73,18.73,0,0,1-18.74-18.73Z"/><path d="M857.26,847.16a1.5,1.5,0,1,0,3,0v-4.08h-3Z"/><path d="M860.26,836a1.5,1.5,0,0,0-3,0v4.07h3Z"/><path d="M853.18,843.08h11.15a1.5,1.5,0,0,0,0-3H853.18a1.5,1.5,0,0,0,0,3Z"/><path d="M834.68,824.86a1.5,1.5,0,0,0-3,0v4.07h3Z"/><path d="M831.68,836a1.5,1.5,0,0,0,3,0v-4.08h-3Z"/><path d="M834.68,828.93H827.6a1.5,1.5,0,0,0,0,3h11.15a1.5,1.5,0,0,0,0-3Z"/><path d="M860.26,802.23a1.5,1.5,0,0,0-3,0v4.08h3Z"/><path d="M857.26,813.38a1.5,1.5,0,0,0,3,0v-4.07h-3Z"/><path d="M853.18,809.31h11.15a1.5,1.5,0,0,0,0-3H853.18a1.5,1.5,0,1,0,0,3Z"/><path d="M830.53,802.23a1.5,1.5,0,0,0,3,0v-4.07h-3Z"/><path d="M833.53,791.08a1.5,1.5,0,0,0-3,0v4.08h3Z"/><path d="M826.45,798.16H837.6a1.5,1.5,0,0,0,0-3H826.45a1.5,1.5,0,0,0,0,3Z"/><path d="M1014.08,822.73a1.5,1.5,0,0,0-3,0v4.07h3Z"/><path d="M1011.08,833.88a1.5,1.5,0,0,0,3,0V829.8h-3Z"/><path d="M1011.08,826.8H1007a1.5,1.5,0,0,0,0,3h11.16a1.5,1.5,0,1,0,0-3h-7.08Z"/><path d="M987.47,841.58a1.5,1.5,0,1,0,3,0v-4.07h-3Z"/><path d="M990.47,830.43a1.5,1.5,0,0,0-3,0v4.08h3Z"/><path d="M987.47,834.51h-4.08a1.5,1.5,0,0,0,0,3h11.15a1.5,1.5,0,0,0,0-3h-7.07Z"/><path d="M1008.37,800.67a1.5,1.5,0,0,0,3,0V796.6h-3Z"/><path d="M1011.37,789.53a1.5,1.5,0,0,0-3,0v4.07h3Z"/><path d="M1004.3,796.6h11.15a1.5,1.5,0,0,0,0-3H1004.3a1.5,1.5,0,0,0,0,3Z"/><path d="M985,805a1.5,1.5,0,0,0,3,0V801h-3Z"/><path d="M988,793.87a1.5,1.5,0,1,0-3,0V798h3Z"/><path d="M980.88,801H992a1.5,1.5,0,0,0,0-3H980.88a1.5,1.5,0,1,0,0,3Z"/><path class="cls-5" d="M218.63,757.84h-6a21.41,21.41,0,0,0-21.42,21.42V962.84H246.1V779.26a21.42,21.42,0,0,0-21.42-21.42Z"/><path d="M249.1,962.84V779.26a24.42,24.42,0,0,0-24.42-24.42h-4.55v1.5a1.5,1.5,0,0,1-1.5,1.5h6.05a21.42,21.42,0,0,1,21.42,21.42V962.84H191.17V779.26a21.41,21.41,0,0,1,21.42-21.42h6a1.5,1.5,0,0,1-1.5-1.5v-1.5h-4.54a24.42,24.42,0,0,0-24.42,24.42V962.84Z"/><path d="M197.45,965.15a1.55,1.55,0,0,1,.43-1.06,1.52,1.52,0,0,1,1.07-.44h38.24a1.5,1.5,0,0,1,1.5,1.5v.69h28.79a1.5,1.5,0,1,0,0-3h-96a1.5,1.5,0,1,0,0,3h26Z"/><path d="M248.42,994.14a1.5,1.5,0,0,0-1.5-1.5h-8.23v1.5a1.5,1.5,0,0,1-.44,1.06,1.52,1.52,0,0,1-1.06.44H199a1.49,1.49,0,0,1-1.5-1.5v-1.5h-5.39a1.5,1.5,0,0,0,0,3h54.86A1.5,1.5,0,0,0,248.42,994.14Z"/><path d="M218.63,757.84h0a1.5,1.5,0,0,0,1.5-1.5V736.57a1.5,1.5,0,0,0-3,0v19.77A1.5,1.5,0,0,0,218.63,757.84Z"/><rect class="cls-5" x="200.45" y="966.65" width="35.24" height="25.99"/><path d="M197.88,995.2a1.52,1.52,0,0,0,1.07.44h38.24a1.52,1.52,0,0,0,1.06-.44,1.5,1.5,0,0,0,.44-1.06v-29a1.5,1.5,0,0,0-1.5-1.5H199a1.52,1.52,0,0,0-1.07.44,1.55,1.55,0,0,0-.43,1.06v29A1.53,1.53,0,0,0,197.88,995.2Zm2.57-28.55h35.24v26H200.45Z"/><path d="M820.41,988a39.85,39.85,0,1,0,45.64-7.66h-34.9A40,40,0,0,0,820.41,988Z"/><path d="M865.85,1055.4a42.85,42.85,0,0,0,6.24-75.09h-6a39.85,39.85,0,1,1-34.9,0h-6a42.85,42.85,0,0,0,16.24,78.09,42.64,42.64,0,0,0,14.49,0A42.76,42.76,0,0,0,865.85,1055.4Z"/><path d="M367.33,988a39.87,39.87,0,1,0,56.38,0A40.13,40.13,0,0,0,413,980.31H378.06A40.08,40.08,0,0,0,367.33,988Z"/><path d="M412.76,1055.4A42.85,42.85,0,0,0,419,980.31h-6A40.13,40.13,0,0,1,423.71,988a39.83,39.83,0,1,1-45.65-7.66h-6a42.85,42.85,0,0,0,16.25,78.09,42.64,42.64,0,0,0,14.49,0A42.54,42.54,0,0,0,412.76,1055.4Z"/><polygon points="619.2 821.87 618.47 822.41 626.89 828.62 789.9 708.36 773.05 708.36 619.2 821.87"/><polygon points="618.47 834.84 610.05 828.62 445.89 949.74 462.73 949.74 618.47 834.84"/><polygon points="618.47 834.84 624.05 838.96 774.21 949.74 791.05 949.74 626.89 828.62 618.47 822.41 510.04 742.41 463.88 708.36 447.04 708.36 493.82 742.87 610.05 828.62 618.47 834.84"/><path class="cls-6" d="M1061.46,654.53H390.55a1.5,1.5,0,0,1-1-.35l-222.38-189a37.1,37.1,0,0,0,4.58,51.22L360.81,681h665.1A37.14,37.14,0,0,0,1061.46,654.53Z"/><path d="M1063.42,654.53h-2A37.14,37.14,0,0,1,1025.91,681h15.24a40.18,40.18,0,0,0,23.73-27.56A1.49,1.49,0,0,1,1063.42,654.53Z"/><path d="M360.81,681l-189-164.56a37.1,37.1,0,0,1-4.58-51.22l-1.16-1a1.51,1.51,0,0,1-.16-2.13,40.12,40.12,0,0,0,3.93,56.59L356.24,681Z"/><path class="cls-5" d="M760.38,634a5,5,0,0,1-5-5V606.71H489.76v23.73a5,5,0,0,1-10,0V606.71H389.14a1.5,1.5,0,0,1-1-.37L220.54,460.4a37.11,37.11,0,0,0-51.37,2.51L391.1,651.53h671.11a37.1,37.1,0,0,0-36.3-44.82H765.38V629A5,5,0,0,1,760.38,634Z"/><path d="M166,464.19l1.16,1,222.38,189a1.5,1.5,0,0,0,1,.35h672.87a1.49,1.49,0,0,0,1.46-1.14h0a40.1,40.1,0,0,0-39-49.68H765.38v3h260.53a37,37,0,0,1,36.3,44.82H391.1L169.17,462.91a37.11,37.11,0,0,1,51.37-2.51L388.15,606.34a1.5,1.5,0,0,0,1,.37h90.62v-3H389.7L222.51,458.14a40.13,40.13,0,0,0-56.63,3.92,1.51,1.51,0,0,0,.16,2.13Z"/><rect x="489.76" y="603.71" width="265.63" height="3"/><path d="M479.76,606.71v23.73a5,5,0,0,0,10,0V561.87a42.47,42.47,0,0,1,42.5-42.49H712.88a42.49,42.49,0,0,1,42.5,42.49V629a5,5,0,0,0,10,0V561.87a52.49,52.49,0,0,0-52.5-52.49H532.26a52.48,52.48,0,0,0-52.5,52.49v44.84Z"/><path class="cls-5" d="M185.24,702.22a10.64,10.64,0,0,0,7.56,3.14h859.53a10.71,10.71,0,1,0,0-21.41H192.8a10.7,10.7,0,0,0-7.56,18.27Z"/><path d="M773.05,708.36h279.28a13.71,13.71,0,1,0,0-27.41H192.8a13.71,13.71,0,0,0,0,27.41H773.05ZM192.8,684h859.53a10.71,10.71,0,0,1,0,21.41H192.8a10.71,10.71,0,0,1,0-21.41Z"/><path class="cls-5" d="M899,956.34a12.23,12.23,0,0,0-8.69-3.6H370.19a12.29,12.29,0,1,0,0,24.57H890.3a12.28,12.28,0,0,0,8.69-21Z"/><path d="M590.48,949.74H370.19a15.29,15.29,0,1,0,0,30.57H890.3a15.29,15.29,0,1,0,0-30.57H590.48ZM890.3,977.31H370.19a12.29,12.29,0,1,1,0-24.57H890.3a12.29,12.29,0,1,1,0,24.57Z"/><path class="cls-5" d="M1467,589.1a34.63,34.63,0,0,1,23-23,34.6,34.6,0,0,1-23-23,34.58,34.58,0,0,1-23,23A34.62,34.62,0,0,1,1467,589.1Z"/><path d="M1434,567.61a31.55,31.55,0,0,1,31.55,31.54,1.49,1.49,0,0,0,1.5,1.5h0a1.52,1.52,0,0,0,1.06-.44,1.5,1.5,0,0,0,.44-1.06,31.55,31.55,0,0,1,31.54-31.54,1.5,1.5,0,0,0,1.5-1.5,1.52,1.52,0,0,0-.44-1.06,1.5,1.5,0,0,0-1.06-.44,31.55,31.55,0,0,1-31.54-31.54,1.5,1.5,0,0,0-.44-1.06,1.52,1.52,0,0,0-1.06-.44h0a1.49,1.49,0,0,0-1.5,1.5A31.55,31.55,0,0,1,1434,564.61a1.5,1.5,0,0,0-1.5,1.5,1.5,1.5,0,0,0,.44,1.06A1.52,1.52,0,0,0,1434,567.61Zm33-24.48a34.6,34.6,0,0,0,23,23,34.63,34.63,0,0,0-23,23,34.62,34.62,0,0,0-23-23A34.58,34.58,0,0,0,1467,543.13Z"/><path class="cls-5" d="M728.22,371.39a34.62,34.62,0,0,1,23-23,34.64,34.64,0,0,1-23-23,34.64,34.64,0,0,1-23,23A34.62,34.62,0,0,1,728.22,371.39Z"/><path d="M695.17,349.91a31.55,31.55,0,0,1,31.54,31.54,1.5,1.5,0,0,0,.44,1.06,1.52,1.52,0,0,0,1.06.44h0a1.52,1.52,0,0,0,1.06-.44,1.5,1.5,0,0,0,.44-1.06,31.53,31.53,0,0,1,31.54-31.54,1.5,1.5,0,0,0,1.5-1.5,1.5,1.5,0,0,0-.44-1.06,1.52,1.52,0,0,0-1.06-.44,31.53,31.53,0,0,1-31.54-31.54,1.5,1.5,0,0,0-.44-1.06,1.52,1.52,0,0,0-1.06-.44h0a1.52,1.52,0,0,0-1.06.44,1.5,1.5,0,0,0-.44,1.06,31.55,31.55,0,0,1-31.54,31.54,1.5,1.5,0,0,0-1.5,1.5,1.52,1.52,0,0,0,.44,1.06A1.5,1.5,0,0,0,695.17,349.91Zm33.05-24.48a34.64,34.64,0,0,0,23,23,34.62,34.62,0,0,0-23,23,34.62,34.62,0,0,0-23-23A34.64,34.64,0,0,0,728.22,325.43Z"/><path class="cls-3" d="M352.7,768.59a19.8,19.8,0,1,0-19.8,19.79A19.8,19.8,0,0,0,352.7,768.59Zm-32.93,0a13.13,13.13,0,1,1,13.13,13.13A13.13,13.13,0,0,1,319.77,768.59Z"/><path class="cls-3" d="M981.94,519.94a19.8,19.8,0,1,0-19.8,19.79A19.79,19.79,0,0,0,981.94,519.94Zm-32.93,0a13.13,13.13,0,1,1,13.13,13.13A13.13,13.13,0,0,1,949,519.94Z"/><path d="M1350.35,1017.55h0a8.92,8.92,0,0,1,1.23-.06,18.32,18.32,0,0,1,6.14,1.06,12,12,0,0,1,6.4,5.27,1.5,1.5,0,1,0,2.59-1.51,15,15,0,0,0-8-6.57,21.22,21.22,0,0,0-7.18-1.25c-.47,0-.86,0-1.13,0l-.44,0a1.51,1.51,0,0,0-1.32,1.66,1.39,1.39,0,0,0,.12.41A1.5,1.5,0,0,0,1350.35,1017.55Z"/><path d="M1378.86,1009.54a1.5,1.5,0,0,0-.39-2.09,22.3,22.3,0,0,0-12.51-3.58,20.23,20.23,0,0,0-2.82.17,1.5,1.5,0,0,0,.46,3h0a17.3,17.3,0,0,1,2.36-.14,19.36,19.36,0,0,1,10.82,3.06A1.49,1.49,0,0,0,1378.86,1009.54Z"/><path d="M1377.73,997.88h0c.07,0,.43,0,1,0a29.58,29.58,0,0,1,10.78,2,1.5,1.5,0,1,0,1.15-2.77,32.4,32.4,0,0,0-11.93-2.22c-.75,0-1.19,0-1.22,0a1.5,1.5,0,1,0,.2,3Z"/><path d="M1083.08,1017.58a3.7,3.7,0,0,1,.63.31,8.86,8.86,0,0,1,2.41,2.06,12.72,12.72,0,0,1,2.41,4.92,1.51,1.51,0,0,0,1.84,1.07,1.49,1.49,0,0,0,1.06-1.83,14.74,14.74,0,0,0-4.32-7.44l-.52-.44a9,9,0,0,0-2.54-1.49,1.49,1.49,0,0,0-1.9.94,1.51,1.51,0,0,0,.65,1.77,1.39,1.39,0,0,0,.28.12Z"/><path d="M1108.12,1020.62a1.5,1.5,0,0,0,2.94-.59,13.33,13.33,0,0,0-3.11-6.5,10.32,10.32,0,0,0-1-1,7.81,7.81,0,0,0-3.21-1.66,1.5,1.5,0,0,0-.6,2.93h0l.11,0a5.65,5.65,0,0,1,2.09,1.27A9.84,9.84,0,0,1,1108.12,1020.62Z"/><path d="M1122.27,1015.84a9.92,9.92,0,0,1,2.72,2.72,6.61,6.61,0,0,1,1.08,3.63v.13a1.5,1.5,0,1,0,3,.06v-.19a9.7,9.7,0,0,0-2-5.94,14.68,14.68,0,0,0-4.51-3.79,23.83,23.83,0,0,0-2.15-1.07,24.21,24.21,0,0,0-3-1c-.43-.11-.8-.19-1.13-.25a4.56,4.56,0,0,0-.87-.1h-.16a1.51,1.51,0,0,0-1.39,1.61,1.5,1.5,0,0,0,1.54,1.38h0a4.32,4.32,0,0,1,.71.13A18.72,18.72,0,0,1,1122.27,1015.84Z"/></g></g></svg>