<svg xmlns="http://www.w3.org/2000/svg" viewBox="0 0 1640.92 1100"><defs><style>.cls-1{fill:none;}.cls-2{fill:#eff0f1;}.cls-3{fill:#fff;}.cls-4{fill:#c1bebc;}.cls-5{fill:#d0d5d8;}.cls-6{fill:#61c3da;}</style></defs><g id="Layer_2" data-name="Layer 2"><g id="_10" data-name="10"><path class="cls-1" d="M604.27,823.25q-3.39,5.12-6.82,10.25c3.09.36,6.16.75,9.21,1.21Q605.48,829,604.27,823.25Z"/><rect class="cls-1" x="965.24" y="821.1" width="62.35" height="21.08"/><path class="cls-1" d="M841.7,660.27a14.53,14.53,0,1,0,14.53-14.52A14.53,14.53,0,0,0,841.7,660.27Z"/><path class="cls-2" d="M1427.47,411.77a40.56,40.56,0,0,1-40.56,40.56H727.69a40.89,40.89,0,0,1-8.34-.86,39,39,0,0,0,33.35,18.71h659.22A39.05,39.05,0,0,0,1451,431.13V59.91a39.07,39.07,0,0,0-27.74-37.38,40.38,40.38,0,0,1,4.23,18Z"/><path class="cls-3" d="M701.13,438.33a37.46,37.46,0,0,0,26.56,11h659.22a37.56,37.56,0,0,0,37.56-37.56V40.56A37.56,37.56,0,0,0,1386.91,3H727.69a37.56,37.56,0,0,0-37.56,37.56V256.7c1.39-.71,2.76-1.46,4.09-2.29,8.08-5,15-12.09,21.1-20.48,12.11-16.76,20.56-38.63,27.24-58.53a1.53,1.53,0,0,1,1.59-1c1.37.15,2.74.33,4.1.53.67-2.77,1.53-6,2.61-9.51,3.29-10.61,8.61-23.66,16.95-33.5,5.55-6.54,12.5-11.68,21.07-13.51h0a38.37,38.37,0,0,1,9.15-1.32,13.56,13.56,0,0,1,5.45,1,6,6,0,0,1,3.1,2.75,5.18,5.18,0,0,1,.58,2.44,5.29,5.29,0,0,1,0,.8h0a3.45,3.45,0,0,1-.71,1.67,4.87,4.87,0,0,1-1.25,1.11,13.49,13.49,0,0,1-3.18,1.36c-2.33.73-5.05,1.34-7.24,2.28a9.86,9.86,0,0,0-2.62,1.55,72.87,72.87,0,0,1,4.81,9.53,26.63,26.63,0,0,1,2.18,9.71,14.26,14.26,0,0,1-1.73,7,17,17,0,0,1-5.55,5.8,56,56,0,0,0-13.75,14.14c-1.15,1.64-2.2,3.31-3.16,5,.79.39,1.59.77,2.36,1.19a1.52,1.52,0,0,1,.78,1.51c-1,7.79-3.65,16.18-6.86,24.28s-7,15.89-10.08,22.43c-12.25,28.46-27.8,53.26-46.39,71a113.82,113.82,0,0,1-24.59,18.14v90.09A37.46,37.46,0,0,0,701.13,438.33Zm185-53.38A65.88,65.88,0,1,1,952,319.07,65.88,65.88,0,0,1,886.14,385Zm77.67-223.83c-5.9-5.86-11.89-12.06-18.19-18.27-13.2,12.84-28,25.66-46.59,35.37-19.08,10-42.13,16.59-71.36,16.59a1.5,1.5,0,0,1,0-3c6.1,0,11.92-.3,17.48-.85V90.56a174.07,174.07,0,0,0-17.48-.87,1.5,1.5,0,0,1,0-3c38.36,0,66.08,11.45,88.15,26.8a235.44,235.44,0,0,1,29.8,25.16c8-7.84,15.42-15.68,22.86-22.82,10.87-10.42,21.73-19.35,34.22-24.51a60.18,60.18,0,0,1,20.91-4.57,1.76,1.76,0,0,1,.39-.06,1.66,1.66,0,0,1,.33,0c.53,0,1.06,0,1.59,0,12.65,0,23.84,3.8,34.39,9.9s20.49,14.49,30.78,23.75c6.55,5.9,13.26,12.16,20.34,18.42A268.22,268.22,0,0,1,1143,114.54a1.39,1.39,0,0,1,.38-.25,182.6,182.6,0,0,1,19.72-11q4.89-2.33,10.1-4.39a.9.9,0,0,1,.27-.11,168.31,168.31,0,0,1,39.68-10.31h.07a197.18,197.18,0,0,1,26.55-1.75,1.5,1.5,0,0,1,0,3A196.67,196.67,0,0,0,1215,91.23v99a194.88,194.88,0,0,0,24.81,1.55,1.5,1.5,0,0,1,0,3,197.67,197.67,0,0,1-26.46-1.73l-.18,0a168.45,168.45,0,0,1-39.8-10.35h0a181.86,181.86,0,0,1-38.72-21.42c-8.31-5.93-15.93-12.22-23.13-18.52-14.49,12.81-27.39,25.61-40.74,35.35-2.15,1.56-4.31,3-6.5,4.43a.41.41,0,0,1-.11.07c-11.67,7.43-24,12.21-38.16,12.21l-1.62,0a1.53,1.53,0,0,1-.3,0,1.86,1.86,0,0,1-.34,0c-11.69-.42-21.89-4.13-31.3-9.88C982.33,178.78,973.16,170.38,963.81,161.12ZM1247,355.31a10.81,10.81,0,0,1-10.59-8.65h-49.66l-36.8,32.5a1.49,1.49,0,0,1-1.75.17l-42.78-25.24a1.49,1.49,0,0,1-.64-.8l-46.36,4.43-30.87,28.95a10.87,10.87,0,1,1-2.06-2.19L1056,355.9l-19.35-44.59a1.5,1.5,0,0,1,.38-1.73l37.23-32.88a1.51,1.51,0,0,1,1.75-.17l42.78,25.25a1.49,1.49,0,0,1,.64.8l46.29-4.42,39.94-44.35a10.87,10.87,0,1,1,2.68,1.51l-40.13,44.56,19,43.78h49.07A10.8,10.8,0,1,1,1247,355.31Zm128.06,21.53A23.14,23.14,0,0,1,1352,400h-28.41a23.14,23.14,0,0,1-23.14-23.14V302.23a23.14,23.14,0,0,1,23.14-23.14H1352a23.14,23.14,0,0,1,23.14,23.14Zm-8.86-146.59h-57a10.36,10.36,0,1,1,0-20.72h57a10.36,10.36,0,0,1,0,20.72Zm0-70.28h-57a10.36,10.36,0,1,1,0-20.71h57a10.36,10.36,0,1,1,0,20.71Zm0-70.28h-57a10.36,10.36,0,1,1,0-20.71h57a10.36,10.36,0,1,1,0,20.71Z"/><path class="cls-3" d="M965.92,122.52c-5.86,5.81-11.83,12-18.16,18.23,8,7.88,15.43,15.7,22.79,22.75a163,163,0,0,0,17.69,15.05V103C980.66,108.4,973.38,115.13,965.92,122.52Z"/><path class="cls-3" d="M884.75,181.48a1,1,0,0,1,0-.17V100.2a.78.78,0,0,1,0-.16,143.68,143.68,0,0,0-36.6-9.17v99.76A144.1,144.1,0,0,0,884.75,181.48Z"/><path class="cls-3" d="M1142.45,118.45q-3.14,2.07-6.15,4.22c-8.08,5.77-15.54,11.91-22.6,18.08a273.32,273.32,0,0,0,28.75,22.31Z"/><path class="cls-3" d="M1172.38,179.08V102.42a173.54,173.54,0,0,0-26.93,14.08V165a177.12,177.12,0,0,0,18.94,10.55C1167,176.77,1169.65,178,1172.38,179.08Z"/><path class="cls-3" d="M1212,91.64a164.8,164.8,0,0,0-36.57,9.58v79.06a164.94,164.94,0,0,0,36.57,9.58Z"/><path class="cls-3" d="M914.11,165.55c.19-.12.36-.26.54-.38V116.36a151,151,0,0,0-17-10.41q-4.77-2.49-9.91-4.68v79A147,147,0,0,0,914.11,165.55Z"/><path class="cls-3" d="M993.92,99.17c-.9.55-1.79,1.14-2.68,1.73v79.72a74.69,74.69,0,0,0,12.6,6.79,57.25,57.25,0,0,0,18.66,4.29V89.8C1011.92,90.42,1002.67,93.84,993.92,99.17Z"/><path class="cls-3" d="M943.47,140.76a243.15,243.15,0,0,0-25.82-22.27V163A244.24,244.24,0,0,0,943.47,140.76Z"/><path class="cls-3" d="M1058.81,182.31c1-.58,2-1.2,3-1.83V101c-11.15-7-22.69-11.32-35.9-11.33h-.42V191.8h.42C1038,191.81,1048.57,188.22,1058.81,182.31Z"/><path class="cls-3" d="M1089.08,158.94c6.44-5.8,13.06-12,20.08-18.19-14.46-12.8-27.22-25.45-40.24-34.92q-2-1.48-4.1-2.86v75.55C1072.92,173.08,1080.86,166.33,1089.08,158.94Z"/><path d="M690.13,256.7V40.56A37.56,37.56,0,0,1,727.69,3h659.22a37.56,37.56,0,0,1,37.56,37.56V411.77a37.56,37.56,0,0,1-37.56,37.56H727.69a37.56,37.56,0,0,1-37.56-37.56V321.68c-1,.53-2,1-3,1.54v88.55a40.52,40.52,0,0,0,40.56,40.56h659.22a40.56,40.56,0,0,0,40.56-40.56V40.56A40.57,40.57,0,0,0,1386.91,0H727.69a40.56,40.56,0,0,0-40.56,40.56V258.1C688.15,257.66,689.15,257.2,690.13,256.7Z"/><path class="cls-2" d="M660.69,1033.66a1.61,1.61,0,0,1,.16-.38l-6.2-23.64a5.34,5.34,0,0,1-1.11-.79,11.36,11.36,0,0,1-1.39-1.61,31.87,31.87,0,0,1-2.75-4.84,142,142,0,0,1-6.15-16.19c-4.43-13.53-9.49-32.31-14.92-54.59-6.82-28-14.22-61.45-21.67-96.91-3-.46-6.12-.85-9.21-1.21C588,847.7,578.31,862,568.78,875.82c-30.73,44.74-59.92,85.51-75.8,107.5l.11.1a1.49,1.49,0,0,1,.54,1.07,1.46,1.46,0,0,1-.41,1.12l-8,8.45-.29.4c73.79,5.74,136.4,20.89,175.28,41.37C660.5,1034.45,660.69,1033.66,660.69,1033.66Z"/><path class="cls-2" d="M47.9,1092c-.95,1.66-1.87,3.34-2.78,5H58A30.75,30.75,0,0,1,47.9,1092Z"/><path class="cls-2" d="M369.14,693.23V919.74A74.16,74.16,0,0,1,392.25,916c20.65,0,39.9,8.7,56.14,23.7,5.11-14.62,12-32.49,20-52.53,12-29.78,26.66-64.34,42.21-100.08a113.41,113.41,0,0,0-52.05-22,105.13,105.13,0,0,0-102.15-96.82A30.73,30.73,0,0,1,369.14,693.23Z"/><path class="cls-2" d="M699.61,1001.88a5.47,5.47,0,0,1-1.35,1.09l6.75,31.58a1,1,0,0,1,.13.16,147.26,147.26,0,0,1,7.77,13.18,29.94,29.94,0,0,1,2.25,5.51h0l0,0a1.22,1.22,0,0,0,.15.22,4.93,4.93,0,0,0,.73.73,21,21,0,0,0,2.94,2,100.86,100.86,0,0,0,10.07,4.92c8,3.52,18.06,7.32,26.39,10.48,5.55,2.11,10.33,3.92,13.32,5.21a10.07,10.07,0,0,1,4.75,3.81,9.18,9.18,0,0,1,1.38,5,20.51,20.51,0,0,1-2.79,9.28c-.38.7-.75,1.33-1.09,1.89h33.54s0-.06,0-.08V992.25a255,255,0,0,0-101-121.46c-.91,71-3.59,130.21-3.59,130.22A1.53,1.53,0,0,1,699.61,1001.88Z"/><path class="cls-4" d="M653.34,1090.23a9.19,9.19,0,0,1-.77-2.8,26.45,26.45,0,0,1-.21-3.62,107.77,107.77,0,0,1,1.31-14.35c.78-5.41,1.82-11.19,2.86-16.49,1.46-7.43,2.91-13.92,3.66-17.14-38.88-20.48-101.49-35.63-175.28-41.37-2.79,3.84-4.33,5.93-4.33,5.93a1.48,1.48,0,0,1-.83.57,4.46,4.46,0,0,1-1,.1h-.16l-8.37,8.81s0,.07,0,.1a150.42,150.42,0,0,1-1.32,15.25,30.53,30.53,0,0,1-1.37,5.79h0v.21a7.4,7.4,0,0,0,.51,2.21,32.55,32.55,0,0,0,1.58,3.66c1.37,2.79,3.32,6.22,5.57,9.91,4.5,7.4,10.2,15.9,14.9,22.93,3.13,4.69,5.82,8.73,7.45,11.4a10.36,10.36,0,0,1,1.67,5.42,9.5,9.5,0,0,1-2.4,6.1,19.35,19.35,0,0,1-4.9,4l-.26.15H660.27a13.34,13.34,0,0,1-2.77-1.54A13.78,13.78,0,0,1,653.34,1090.23Z"/><path class="cls-4" d="M406.6,1044.11c-5-4.12-7.91-7.18-9.54-10.17a12,12,0,0,1-1.52-5.93,18.76,18.76,0,0,1,.25-2.87,8.4,8.4,0,0,1,.78-2.31,21.22,21.22,0,0,1,1.49-2.53,63,63,0,0,1,4.63-5.95c3.71-4.3,8.48-9.16,13.2-13.76,9.45-9.18,18.7-17.25,18.71-17.27a1.5,1.5,0,0,1,1.81-.1l2.58-3a6.26,6.26,0,0,1-.36-1.16,11.34,11.34,0,0,1-.17-2.09c0-3,.78-7.23,2.19-12.69s3.48-12.13,6.1-19.84c.52-1.54,1.07-3.13,1.64-4.74-16.24-15-35.49-23.7-56.14-23.7a74.16,74.16,0,0,0-23.11,3.73V1067.4a30.78,30.78,0,0,1-22.36,29.6H479.85l-51.29-36.53C418.63,1053.4,411.58,1048.23,406.6,1044.11Z"/><path class="cls-5" d="M1558.23,745a8.69,8.69,0,0,1,0-2.1,211.43,211.43,0,0,0-33.89,14.32,39.09,39.09,0,0,1-2.9,3.85A209.81,209.81,0,0,1,1558.23,745Z"/><path class="cls-5" d="M1393.85,910.89l0-.09a6.1,6.1,0,0,1-.2-4.09c-3.31,7-6.34,13.76-9.09,20.27a466.84,466.84,0,0,0-22.36,65.3l1.91.58A481.17,481.17,0,0,1,1393.85,910.89Z"/><path class="cls-5" d="M1456.32,813.89q5.94-6.63,12.33-12.95a251.35,251.35,0,0,1,39.65-32,7.6,7.6,0,0,1-2.89-.52,255.83,255.83,0,0,0-40.58,33.55c-2.88,2.91-5.69,5.88-8.43,8.88A29.07,29.07,0,0,1,1456.32,813.89Z"/><path class="cls-5" d="M1405.14,888.25c1.15-2.16,2.32-4.32,3.53-6.49A394.48,394.48,0,0,1,1438.2,836c0-.11,0-.23-.07-.34a7.07,7.07,0,0,1,.12-2.38l-.4-.14a398.75,398.75,0,0,0-32.75,51C1405.17,885.54,1405.18,886.92,1405.14,888.25Z"/><path class="cls-5" d="M1426.22,1009.48q-6.79,5.94-13.42,12.53c.47.47.93,1,1.39,1.44q6.21-6.19,12.58-11.8a8.49,8.49,0,0,1-.54-2A1.09,1.09,0,0,1,1426.22,1009.48Z"/><path class="cls-5" d="M1536.89,949c-4.63,1.39-9.39,3-14.23,4.66,1.11.15,2.25.35,3.39.61l.55.14q5.54-1.89,10.86-3.5a322.69,322.69,0,0,1,42.22-9.71,6.6,6.6,0,0,1-.83-1.89A322.34,322.34,0,0,0,1536.89,949Z"/><path class="cls-5" d="M1500.73,962.34a294.39,294.39,0,0,0-58.79,34.36,33.26,33.26,0,0,1,3.65-.23,293.09,293.09,0,0,1,55-31.88A8.13,8.13,0,0,1,1500.73,962.34Z"/><path class="cls-2" d="M1441.94,996.7q-.68.07-1.32.18l-.11,0q-.29.58-.57,1.14c-3.12,6-7,9.38-10.6,8.89a5.85,5.85,0,0,1-2.63-1.08,7.71,7.71,0,0,0-.49,3.63,1.09,1.09,0,0,0,0,.18,8.49,8.49,0,0,0,.54,2c1.06,2.76,3.46,5.06,6.45,6.89a32.91,32.91,0,0,0,6.22,2.87,41.34,41.34,0,0,0,7.29,1.79,40.25,40.25,0,0,0,7.48.52,32,32,0,0,0,6.81-.83c4.2-1,7.79-3,9.37-6.32s.6-7.51-2.89-11.37a24.14,24.14,0,0,0-6.9-5.19,32.93,32.93,0,0,0-9.75-3.14,33.91,33.91,0,0,0-5.26-.4A33.26,33.26,0,0,0,1441.94,996.7Z"/><path class="cls-2" d="M1429.34,1006.93c3.64.49,7.48-2.89,10.6-8.89q.29-.56.57-1.14c2.84-5.91,5-14,5.62-23.13.68-9.67-.44-18.53-2.68-24.9s-5.55-10.27-9.22-10.3-7,3.75-9.61,9.77-4.42,14.32-5.08,23.53,0,17.67,1.68,24c1.26,4.71,3.12,8.25,5.49,10A5.85,5.85,0,0,0,1429.34,1006.93Z"/><path class="cls-2" d="M1522.66,953.66a35.79,35.79,0,0,0-3.93-.31,30.74,30.74,0,0,1-7.1,6.34c-3.89,2.42-7.72,3.18-10.72,2a6.06,6.06,0,0,0-.16.61s0,.05,0,.07a8.13,8.13,0,0,0-.15,2.25c.47,6.52,8.61,13.22,19.66,15.69a40.17,40.17,0,0,0,4.57.74,30.06,30.06,0,0,0,4.25.16,17.57,17.57,0,0,0,5.86-1.18c1.54-.62,3-1.39,4.57-2.09a21.14,21.14,0,0,0,4.72-2.58,6,6,0,0,0,2.19-5.16,12.29,12.29,0,0,0-3.71-7.34,27.53,27.53,0,0,0-8-5.56,40.74,40.74,0,0,0-4.16-1.73,37.69,37.69,0,0,0-3.9-1.13l-.55-.14C1524.91,954,1523.77,953.81,1522.66,953.66Z"/><path class="cls-2" d="M1511.63,959.69a30.74,30.74,0,0,0,7.1-6.34,41.6,41.6,0,0,0,5-7.41c3.25-6.23,4.68-12.62,4.4-17.76s-2.21-9-5.57-10.51-7.51-.33-11.52,2.57a42.53,42.53,0,0,0-15.65,30c-.09,4.94,1.32,9,4.47,10.91a6.5,6.5,0,0,0,1.09.54C1503.91,962.87,1507.74,962.11,1511.63,959.69Z"/><path class="cls-2" d="M1631.52,925c-5.8-2.25-13.88-3.41-22.7-2.79s-16.66,2.91-22.09,6-8.49,6.83-8,10.47q0,.33.12.66a6.6,6.6,0,0,0,.83,1.89c1.56,2.44,4.83,4.37,9.18,5.7,5.78,1.77,13.47,2.5,21.84,1.91s15.87-2.4,21.35-5,8.91-5.91,8.87-9.6S1637.34,927.27,1631.52,925Z"/><path class="cls-2" d="M1393.81,910.8l0,.09c1.54,3.31,6.3,4.78,12.7,4.79s14.63-1.46,23.25-4.16,16.14-6.18,21.46-9.87,8.38-7.66,7.67-11.28-5.14-6.16-11.91-7.08-15.8-.15-25.2,2.8a66.53,66.53,0,0,0-17.34,8.22c-1.16,5.83-3.73,9.89-7.42,10.73a6.57,6.57,0,0,1-2.86,0,10.68,10.68,0,0,0-.59,1.66A6.1,6.1,0,0,0,1393.81,910.8Z"/><path class="cls-2" d="M1397.06,905c3.69-.84,6.26-4.9,7.42-10.73a37.35,37.35,0,0,0,.66-6.06c0-1.33,0-2.71,0-4.13a58.5,58.5,0,0,0-1.41-9.87c-3.51-15.37-12.17-26.51-19.35-24.87s-10.14,15.43-6.63,30.8c3.06,13.37,10,23.53,16.49,24.87A6.57,6.57,0,0,0,1397.06,905Z"/><path class="cls-2" d="M1438.71,833.4c-.16,0-.31-.11-.46-.16a7.07,7.07,0,0,0-.12,2.38c0,.11,0,.23.07.34a7.06,7.06,0,0,0,3.09,4.41,17.14,17.14,0,0,0,7.58,2.63,37.23,37.23,0,0,0,10.33-.21,65.41,65.41,0,0,0,10.88-2.66,75.1,75.1,0,0,0,16.16-7.44,31.34,31.34,0,0,0,5.23-4.05,9.45,9.45,0,0,0,2.84-4.83,6.6,6.6,0,0,0-1.66-5.48,15.71,15.71,0,0,0-7.17-4.47,31.25,31.25,0,0,0-11.26-1.41,46.37,46.37,0,0,0-12.53,2.38,55.63,55.63,0,0,0-5.87,2.34,24.67,24.67,0,0,1-6.52,12.74C1446.08,833,1442.25,834.36,1438.71,833.4Z"/><path class="cls-2" d="M1438.71,833.4c3.54,1,7.37-.36,10.59-3.49a24.67,24.67,0,0,0,6.52-12.74c.08-.37.16-.74.23-1.12.12-.72.2-1.45.27-2.16a29.07,29.07,0,0,0,.08-3.08,23,23,0,0,0-2.36-10c-2.06-4-5.27-6.46-8.94-6.67s-7.12,1.77-9.82,5a28,28,0,0,0-4.32,26.48c1.43,3.57,3.77,6.36,6.89,7.54l.4.14C1438.4,833.29,1438.55,833.36,1438.71,833.4Z"/><path class="cls-2" d="M1513,767.73a9.19,9.19,0,0,1,1.66-2.18,10.84,10.84,0,0,1,5.06-2.75c.55-.56,1.09-1.16,1.63-1.78a39.09,39.09,0,0,0,2.9-3.85,45.42,45.42,0,0,0,3.33-5.93c5.85-12.49,5.18-25.14-1.49-28.26s-16.8,4.47-22.64,17-5.18,25.14,1.48,28.26l.44.18a7.6,7.6,0,0,0,2.89.52A11.79,11.79,0,0,0,1513,767.73Z"/><path class="cls-2" d="M1513,767.73a12,12,0,0,0-1,8.42,23.28,23.28,0,0,0,21.68,17c4.29-.1,7.81-1.91,9.69-5.06s1.85-7,.57-10.75a23.45,23.45,0,0,0-19-14.93,15.45,15.45,0,0,0-5.24.36,10.84,10.84,0,0,0-5.06,2.75A9.19,9.19,0,0,0,1513,767.73Z"/><path class="cls-2" d="M1558.23,745a7.53,7.53,0,0,0,.16.95c.93,3.57,3.9,6.23,7.76,7.85a29,29,0,0,0,26.69-3.35c3.35-2.53,5.57-5.84,5.58-9.53s-2.29-7-6.26-9.3a27.26,27.26,0,0,0-30,3.76,12.36,12.36,0,0,0-4,7.52A8.69,8.69,0,0,0,1558.23,745Z"/><path class="cls-2" d="M1364.07,992.86l-1.91-.58a130.49,130.49,0,0,0-76.8,1.38c-7.19-29.56-24.44-55.7-48.34-75.31v178.57s0,0,0,.08h203.08a90,90,0,0,0,.51-9.47c0-24.37-9.92-46.7-26.41-64.08-.46-.49-.92-1-1.39-1.44A116.49,116.49,0,0,0,1364.07,992.86Z"/><path d="M701.82,1034l-6.33-29.6a37.87,37.87,0,0,1-3.87,1.32c-5.92,1.72-16.16,3.53-33.8,4.23l5.95,22.65Z"/><path d="M662.21,1032.51l1.56,0-5.95-22.65-2.11.08a1.66,1.66,0,0,1-.59-.1,5.19,5.19,0,0,1-.47-.25l6.2,23.64A1.48,1.48,0,0,1,662.21,1032.51Z"/><path d="M704,1034a1.46,1.46,0,0,1,1.06.51L698.26,1003a17.89,17.89,0,0,1-2.77,1.39l6.33,29.6Z"/><path class="cls-3" d="M790.15,161.54a14.06,14.06,0,0,0,4.59-4.77,11.31,11.31,0,0,0,1.36-5.54,23.72,23.72,0,0,0-2-8.6,74.37,74.37,0,0,0-5.19-10.1,1.49,1.49,0,0,1,.11-1.69,12,12,0,0,1,5.26-3.47c2-.76,4.08-1.28,5.85-1.8a19.2,19.2,0,0,0,2.91-1,3.74,3.74,0,0,0,.85-.56.62.62,0,0,0,.21-.34,2.88,2.88,0,0,0,0-.41,2.34,2.34,0,0,0-.24-1.07,2.57,2.57,0,0,0-.86-.94c-.85-.61-2.45-1.13-5-1.13a35.33,35.33,0,0,0-8.42,1.23h-.05c-7.54,1.6-13.78,6-19,12s-9.25,13.32-12.37,20.65a140.9,140.9,0,0,0-7,21.51,90.37,90.37,0,0,1,21,6.4c1-1.79,2.17-3.6,3.42-5.39A58.59,58.59,0,0,1,790.15,161.54Z"/><path d="M791.82,164a17,17,0,0,0,5.55-5.8,14.26,14.26,0,0,0,1.73-7,26.63,26.63,0,0,0-2.18-9.71,72.87,72.87,0,0,0-4.81-9.53,9.86,9.86,0,0,1,2.62-1.55c2.19-.94,4.91-1.55,7.24-2.28a13.49,13.49,0,0,0,3.18-1.36,4.87,4.87,0,0,0,1.25-1.11,3.45,3.45,0,0,0,.71-1.67h0a5.29,5.29,0,0,0,0-.8,5.18,5.18,0,0,0-.58-2.44,6,6,0,0,0-3.1-2.75,13.56,13.56,0,0,0-5.45-1,38.37,38.37,0,0,0-9.15,1.32h0c-8.57,1.83-15.52,7-21.07,13.51-8.34,9.84-13.66,22.89-16.95,33.5-1.08,3.51-1.94,6.74-2.61,9.51,1,.15,2,.33,3,.51a140.9,140.9,0,0,1,7-21.51c3.12-7.33,7.19-14.73,12.37-20.65s11.42-10.35,19-12h.05a35.33,35.33,0,0,1,8.42-1.23c2.58,0,4.18.52,5,1.13a2.57,2.57,0,0,1,.86.94,2.34,2.34,0,0,1,.24,1.07,2.88,2.88,0,0,1,0,.41.62.62,0,0,1-.21.34,3.74,3.74,0,0,1-.85.56,19.2,19.2,0,0,1-2.91,1c-1.77.52-3.86,1-5.85,1.8a12,12,0,0,0-5.26,3.47,1.49,1.49,0,0,0-.11,1.69,74.37,74.37,0,0,1,5.19,10.1,23.72,23.72,0,0,1,2,8.6,11.31,11.31,0,0,1-1.36,5.54,14.06,14.06,0,0,1-4.59,4.77,58.59,58.59,0,0,0-14.54,14.9c-1.25,1.79-2.39,3.6-3.42,5.39.91.41,1.82.84,2.72,1.29,1-1.65,2-3.32,3.16-5A56,56,0,0,1,791.82,164Z"/><path class="cls-3" d="M712.64,301.37c18.2-17.36,33.6-41.85,45.73-70.06l0-.05c3.13-6.55,6.85-14.29,10-22.26,3-7.6,5.5-15.4,6.52-22.52A87.32,87.32,0,0,0,745,177.53c-5,14.66-10.89,30.38-18.64,44.43-8,14.42-17.81,27.11-30.58,35a55.08,55.08,0,0,1-29.55,8.35,66.67,66.67,0,0,1-10.86-.91,1.92,1.92,0,0,1-.32-.09,78.72,78.72,0,0,1-21.94-13.88,209.58,209.58,0,0,1-17.83-18.17c-9-9.94-18-20-29.65-28.06.22.25.45.48.67.73,2.37,2.62,4.91,6.74,7.74,12.23s5.9,12.34,9.19,20.37c6.6,16.07,14.06,36.83,22,60.64,3.14,9.36,6.35,19.2,9.61,29.39A83.11,83.11,0,0,0,650.14,329C673.52,329,694.44,318.75,712.64,301.37Z"/><path d="M585.64,204.21c11.67,8,20.68,18.12,29.65,28.06a209.58,209.58,0,0,0,17.83,18.17,78.72,78.72,0,0,0,21.94,13.88,1.92,1.92,0,0,0,.32.09,66.67,66.67,0,0,0,10.86.91A55.08,55.08,0,0,0,695.79,257c12.77-7.9,22.63-20.59,30.58-35,7.75-14.05,13.68-29.77,18.64-44.43a87.32,87.32,0,0,1,29.91,8.95c-1,7.12-3.5,14.92-6.52,22.52-3.16,8-6.88,15.71-10,22.26l0,.05c-12.13,28.21-27.53,52.7-45.73,70.06S673.52,329,650.14,329a83.11,83.11,0,0,1-15.26-1.44c.34,1.08.68,2.15,1,3.23A85.9,85.9,0,0,0,650.14,332a83.13,83.13,0,0,0,37-8.79c1-.5,2-1,3-1.54a113.82,113.82,0,0,0,24.59-18.14c18.59-17.75,34.14-42.55,46.39-71,3.12-6.54,6.87-14.34,10.08-22.43s5.89-16.49,6.86-24.28a1.52,1.52,0,0,0-.78-1.51c-.77-.42-1.57-.8-2.36-1.19s-1.81-.88-2.72-1.29a90.37,90.37,0,0,0-21-6.4c-1-.18-2-.36-3-.51-1.36-.2-2.73-.38-4.1-.53a1.53,1.53,0,0,0-1.59,1c-6.68,19.9-15.13,41.77-27.24,58.53-6.06,8.39-13,15.49-21.1,20.48-1.33.83-2.7,1.58-4.09,2.29-1,.5-2,1-3,1.4a52.08,52.08,0,0,1-20.89,4.22,64,64,0,0,1-10.19-.84c-10.72-4.43-19.18-11.18-27-19-11.81-11.69-22.13-25.68-36.5-37a92.93,92.93,0,0,0-16.26-10.33A102.79,102.79,0,0,1,585.64,204.21Z"/><path class="cls-3" d="M620.52,884.68C630.86,931.13,640.59,970,648.05,991a84.55,84.55,0,0,0,5.39,12.67,12.77,12.77,0,0,0,2.14,3,3.93,3.93,0,0,0,.41.33c16.57-.57,26.71-2.12,32.79-3.64,5.22-1.29,7.43-2.57,8.19-3.11,0-.63.07-1.7.14-3.21.1-2.52.26-6.22.44-10.93.36-9.43.85-22.92,1.33-39.19,1-32.54,1.94-76.17,1.94-120.53,0-39.17-.76-78.91-2.93-112.07a241.45,241.45,0,0,1-31.42,7.56c-8.05,15.28-18.86,33.56-31.25,53.4-8.88,14.22-18.57,29.22-28.62,44.46C611.27,842.26,616,864.21,620.52,884.68Z"/><path d="M697.89,714.3c2.17,33.16,2.93,72.9,2.93,112.07,0,44.36-1,88-1.94,120.53-.48,16.27-1,29.76-1.33,39.19-.18,4.71-.34,8.41-.44,10.93-.07,1.51-.11,2.58-.14,3.21-.76.54-3,1.82-8.19,3.11-6.08,1.52-16.22,3.07-32.79,3.64a3.93,3.93,0,0,1-.41-.33,12.77,12.77,0,0,1-2.14-3A84.55,84.55,0,0,1,648.05,991c-7.46-21-17.19-59.89-27.53-106.34-4.56-20.47-9.25-42.42-13.92-65-.77,1.18-1.55,2.35-2.33,3.53q1.2,5.76,2.39,11.46c7.45,35.46,14.85,68.94,21.67,96.91,5.43,22.28,10.49,41.06,14.92,54.59a142,142,0,0,0,6.15,16.19,31.87,31.87,0,0,0,2.75,4.84,11.36,11.36,0,0,0,1.39,1.61,5.34,5.34,0,0,0,1.11.79,5.19,5.19,0,0,0,.47.25,1.66,1.66,0,0,0,.59.1l2.11-.08c17.64-.7,27.88-2.51,33.8-4.23a37.87,37.87,0,0,0,3.87-1.32,17.89,17.89,0,0,0,2.77-1.39,5.47,5.47,0,0,0,1.35-1.09,1.53,1.53,0,0,0,.33-.87s2.68-59.24,3.59-130.22c.18-14.46.29-29.4.29-44.42,0-35.53-.62-71.54-2.36-102.75-.2-3.49-.41-6.91-.63-10.28Z"/><path d="M468.18,1007.62l6.78-7.13A47.68,47.68,0,0,1,467.9,998c-5.86-2.57-14.43-7.24-26.72-15.67L438.8,985Z"/><path d="M493.63,984.49a1.49,1.49,0,0,0-.54-1.07l-.11-.1c-3.15,4.36-5.77,8-7.78,10.74l8-8.45A1.46,1.46,0,0,0,493.63,984.49Z"/><path d="M436.51,983.27,438.8,985l2.38-2.75-1.49-1a1.56,1.56,0,0,1-.41-.44,4.6,4.6,0,0,1-.29-.59l-2.58,3S436.48,983.24,436.51,983.27Z"/><path d="M469.62,1008.72a1.51,1.51,0,0,1,.57,1.14l8.37-8.81a16,16,0,0,1-3.6-.56l-6.78,7.13Z"/><path class="cls-3" d="M494.47,1090.92a6.42,6.42,0,0,0,1.7-4.17,7.41,7.41,0,0,0-1.23-3.86c-1.28-2.11-3.33-5.21-5.74-8.83s-5.23-7.8-8.05-12.09c-5.66-8.59-11.4-17.62-14.44-23.93a28.9,28.9,0,0,1-1.9-4.76,7.78,7.78,0,0,1-.32-2.06,3.64,3.64,0,0,1,.22-1.31h0a24.25,24.25,0,0,0,1.07-4.39c.31-1.8.56-3.83.76-5.81.38-3.87.57-7.55.63-9.09L435.65,986.4l-1.42,1.26c-1.48,1.32-3.57,3.2-6,5.43-4.87,4.47-11.12,10.36-16.63,16a130.08,130.08,0,0,0-9.37,10.53,28,28,0,0,0-3,4.48,5.78,5.78,0,0,0-.52,1.46,16.38,16.38,0,0,0-.21,2.41,9.07,9.07,0,0,0,1.16,4.5,24.1,24.1,0,0,0,4.65,5.63c4.66,4.45,12.74,10.48,25.95,19.89l54.49,38.81.44-.16a30.55,30.55,0,0,0,2.82-1.19A19.64,19.64,0,0,0,494.47,1090.92Z"/><path d="M496.77,1092.85a9.5,9.5,0,0,0,2.4-6.1,10.36,10.36,0,0,0-1.67-5.42c-1.63-2.67-4.32-6.71-7.45-11.4-4.7-7-10.4-15.53-14.9-22.93-2.25-3.69-4.2-7.12-5.57-9.91a32.55,32.55,0,0,1-1.58-3.66,7.4,7.4,0,0,1-.51-2.21V1031h0a30.53,30.53,0,0,0,1.37-5.79A150.42,150.42,0,0,0,470.2,1010s0-.06,0-.1a1.51,1.51,0,0,0-.57-1.14l-1.44-1.1L438.8,985l-2.29-1.76s-.07,0-.1,0a1.5,1.5,0,0,0-1.81.1s-9.26,8.09-18.71,17.27c-4.72,4.6-9.49,9.46-13.2,13.76a63,63,0,0,0-4.63,5.95,21.22,21.22,0,0,0-1.49,2.53,8.4,8.4,0,0,0-.78,2.31,18.76,18.76,0,0,0-.25,2.87,12,12,0,0,0,1.52,5.93c1.63,3,4.57,6,9.54,10.17s12,9.29,22,16.36L479.85,1097h11.76l.26-.15A19.35,19.35,0,0,0,496.77,1092.85Zm-11.54,3.83-.44.16L430.3,1058c-13.21-9.41-21.29-15.44-25.95-19.89a24.1,24.1,0,0,1-4.65-5.63,9.07,9.07,0,0,1-1.16-4.5,16.38,16.38,0,0,1,.21-2.41,5.78,5.78,0,0,1,.52-1.46,28,28,0,0,1,3-4.48,130.08,130.08,0,0,1,9.37-10.53c5.51-5.68,11.76-11.57,16.63-16,2.44-2.23,4.53-4.11,6-5.43l1.42-1.26,31.52,24.23c-.06,1.54-.25,5.22-.63,9.09-.2,2-.45,4-.76,5.81a24.25,24.25,0,0,1-1.07,4.39h0a3.64,3.64,0,0,0-.22,1.31,7.78,7.78,0,0,0,.32,2.06,28.9,28.9,0,0,0,1.9,4.76c3,6.31,8.78,15.34,14.44,23.93,2.82,4.29,5.63,8.46,8.05,12.09s4.46,6.72,5.74,8.83a7.41,7.41,0,0,1,1.23,3.86,6.42,6.42,0,0,1-1.7,4.17,19.64,19.64,0,0,1-6.42,4.57A30.55,30.55,0,0,1,485.23,1096.68Z"/><path class="cls-3" d="M543.2,720.66c-32.65,73.24-66.28,151-85.54,202.34-6.59,17.55-11.5,32-14.1,42-1.39,5.34-2.11,9.45-2.1,11.94a7.77,7.77,0,0,0,.12,1.52,2.75,2.75,0,0,0,.14.51c12.81,8.86,21.58,13.65,27.39,16.19,5.59,2.46,8.43,2.83,9.47,2.86l.67-.92,3.12-4.3c2.72-3.74,6.68-9.19,11.61-16,9.86-13.69,23.62-32.92,39.24-55.12,31.23-44.39,69.86-100.63,99.45-148,11.82-18.91,22.19-36.43,30.07-51.19a323.52,323.52,0,0,1-51,3.84A441.48,441.48,0,0,1,543.2,720.66Z"/><path d="M448.39,939.71c-.57,1.61-1.12,3.2-1.64,4.74-2.62,7.71-4.68,14.38-6.1,19.84S438.47,974,438.46,977a11.34,11.34,0,0,0,.17,2.09,6.26,6.26,0,0,0,.36,1.16,4.6,4.6,0,0,0,.29.59,1.56,1.56,0,0,0,.41.44l1.49,1c12.29,8.43,20.86,13.1,26.72,15.67a47.68,47.68,0,0,0,7.06,2.54,16,16,0,0,0,3.6.56h.16a4.46,4.46,0,0,0,1-.1,1.48,1.48,0,0,0,.83-.57s1.54-2.09,4.33-5.93l.29-.4c2-2.77,4.63-6.38,7.78-10.74,15.88-22,45.07-62.76,75.8-107.5C578.31,862,588,847.7,597.45,833.5q3.43-5.13,6.82-10.25c.78-1.18,1.56-2.35,2.33-3.53,10-15.24,19.74-30.24,28.62-44.46,12.39-19.84,23.2-38.12,31.25-53.4l-3.73.62c-7.88,14.76-18.25,32.28-30.07,51.19-29.59,47.39-68.22,103.63-99.45,148-15.62,22.2-29.38,41.43-39.24,55.12-4.93,6.84-8.89,12.29-11.61,16l-3.12,4.3-.67.92c-1,0-3.88-.4-9.47-2.86-5.81-2.54-14.58-7.33-27.39-16.19a2.75,2.75,0,0,1-.14-.51,7.77,7.77,0,0,1-.12-1.52c0-2.49.71-6.6,2.1-11.94,2.6-10,7.51-24.49,14.1-42,19.26-51.3,52.89-129.1,85.54-202.34l-3.07-.5-6,13.44c-7.91,17.83-15.83,35.81-23.52,53.5-15.55,35.74-30.21,70.3-42.21,100.08C460.36,907.22,453.5,925.09,448.39,939.71Z"/><path class="cls-3" d="M571.86,317.06l18-32.64-38.48-45.61a1.48,1.48,0,0,1-.23-.38L527.2,182.59s0,0,0-.06a2,2,0,0,1-.08-.33s0-.06,0-.09a1.35,1.35,0,0,1,0-.4l0-.09c0-.06,0-.13.06-.2l.85-2,.37-.89c-1.71-.11-3.33-.16-4.86-.16a66.74,66.74,0,0,0-9.79.69,1.77,1.77,0,0,1-.46.15l19.08,114.05a1.41,1.41,0,0,1,.94.14,1.49,1.49,0,0,1,.63,2l-.24.47c-.16.31-.4.77-.7,1.37-.61,1.18-1.48,2.9-2.55,5-2.13,4.27-5,10.18-8.12,16.76-6.18,13.17-13.08,29.07-15.94,39.74a36.82,36.82,0,0,0-1.36,7.55h0v.33a20.41,20.41,0,0,0,1.52,6.89,58,58,0,0,0,4.47,8.94A150.23,150.23,0,0,0,527.29,404a258.31,258.31,0,0,0,49.78,43.21,1.47,1.47,0,0,1,.56.65,11.13,11.13,0,0,1,.63,2.08,107.26,107.26,0,0,1,19.6,8.05c4.56,2.55,8.65,5.52,11.43,9.08,4.63,5.95,7.82,13.85,9.9,21.65a86.75,86.75,0,0,1,3,21.07,27.35,27.35,0,0,1-.48,5.67,1.49,1.49,0,0,1-1.3,1.17,19.11,19.11,0,0,1-2,.1,33.77,33.77,0,0,1-11.09-2.15A34.93,34.93,0,0,1,597,508.82a40.77,40.77,0,0,1-7.55-9.14c-2.22-3.41-4.23-6.92-6.12-9.66a19.94,19.94,0,0,0-3.57-4.18c-3.74-3-6.85-5.53-9.26-7.5l-.32.6a1.51,1.51,0,0,1-1.29.78h-.62A196.78,196.78,0,0,1,527,474.67a175.75,175.75,0,0,1-28.8-9.15c-.33,19.19-.52,38.26-.52,56.82,0,61,2,116.57,7.69,152.61,1.88,12,4.17,21.85,6.87,28.94a35.53,35.53,0,0,0,4.64,8.89c36.56,7.63,68.09,10.54,94.94,10.54,79.84,0,118.24-25.72,124-29.9-.15-.57-.36-1.39-.64-2.45l-2.58-9.81c-2.25-8.52-5.51-20.83-9.57-36-8.13-30.36-19.46-72.19-32.29-118.09-8.57-30.69-17.81-63.19-27.21-95.3L572,318.73A1.52,1.52,0,0,1,571.86,317.06ZM666.08,559a1.49,1.49,0,0,1-.48,2.06,28.94,28.94,0,0,1-6.12,2.68,77.61,77.61,0,0,1-7.93,2.07c-5.73,1.21-12.19,2.11-18.26,2.78-12.14,1.34-22.74,1.74-22.76,1.74h0a1.5,1.5,0,1,1-.11-3l.8,0,2.27-.11c2-.11,4.71-.27,8-.52,1.24-.09,2.57-.2,3.94-.32l33.47-5.57A25.11,25.11,0,0,0,664,558.5,1.5,1.5,0,0,1,666.08,559Z"/><path class="cls-3" d="M562.78,198.79a84.57,84.57,0,0,1-1.06,11.58l-.12.63c9.51,12.24,19.73,28.75,28.54,50.57C608.64,307.4,642.38,380,657.92,413,641,355.76,623.86,301.22,609.55,262.22c-6.81-18.56-13-33.6-18.17-43.68-2.75-5.37-5.25-9.34-7.29-11.59a94.33,94.33,0,0,0-17.66-15.37Z"/><path d="M512.93,176.21h0a1.5,1.5,0,0,1,.84,2.82,66.74,66.74,0,0,1,9.79-.69c1.53,0,3.15,0,4.86.16l1.22-2.92c-2.16-.17-4.19-.24-6.08-.24A59.88,59.88,0,0,0,508.74,177a1.52,1.52,0,0,0-1.09,1.32l.85-.51A11.42,11.42,0,0,1,512.93,176.21Z"/><path d="M543.2,720.66a441.48,441.48,0,0,0,68.58,5.66,323.52,323.52,0,0,0,51-3.84l3.73-.62a241.45,241.45,0,0,0,31.42-7.56l2.94-1c25.54-8.5,37.44-18.06,37.56-18.16a1.53,1.53,0,0,0,.51-1.54S709.64,581.35,676,464.19c-13.18-45.86-27-92.46-40.07-133.39-.35-1.08-.69-2.15-1-3.23-3.26-10.19-6.47-20-9.61-29.39-8-23.81-15.43-44.57-22-60.64-3.29-8-6.37-14.88-9.19-20.37s-5.37-9.61-7.74-12.23c-.22-.25-.45-.48-.67-.73a102.79,102.79,0,0,0-9.37-9,92.88,92.88,0,0,0-8.48-6.34l-1.36,2.7A94.33,94.33,0,0,1,584.09,207c2,2.25,4.54,6.22,7.29,11.59,5.19,10.08,11.36,25.12,18.17,43.68,14.31,39,31.43,93.54,48.37,150.76,3.81,8.09,6.53,13.83,7.66,16.2l.58,1.23a1.5,1.5,0,0,1-2.52,1.59l-.19-.24c9.4,32.11,18.64,64.61,27.21,95.3C703.49,573,714.82,614.79,723,645.15c4.06,15.18,7.32,27.49,9.57,36L735.1,691c.28,1.06.49,1.88.64,2.45-5.72,4.18-44.12,29.9-124,29.9-26.85,0-58.38-2.91-94.94-10.54a35.53,35.53,0,0,1-4.64-8.89c-2.7-7.09-5-16.93-6.87-28.94-5.66-36-7.7-91.59-7.69-152.61,0-18.56.19-37.63.52-56.82-1-.41-2-.86-3-1.3-.35,19.63-.54,39.14-.54,58.12,0,46.55,1.18,89.92,4.26,124,1.54,17,3.55,31.77,6.14,43.45A109.66,109.66,0,0,0,509.4,705a36.43,36.43,0,0,0,5.44,10.14,1.52,1.52,0,0,0,.85.52q12.62,2.64,24.44,4.55Z"/><path d="M1236.58,1098a1.5,1.5,0,0,1-1.06.44H806.07a1.49,1.49,0,0,1-1.49-1.42H771c-.91,1.46-1.63,2.39-1.65,2.42a1.54,1.54,0,0,1-1.19.58H700.54c-10.24,0-18-.09-24.1-.39a66,66,0,0,1-13.62-1.72,21,21,0,0,1-2.55-.89H346.78a30.8,30.8,0,0,1-8.42,1.17H66.42A30.8,30.8,0,0,1,58,1097H1.5a1.5,1.5,0,0,0,0,3H1451a1.5,1.5,0,0,0,0-3H1237A1.52,1.52,0,0,1,1236.58,1098Z"/><path class="cls-3" d="M559.07,207.84a89.14,89.14,0,0,0,.72-9.49,1.56,1.56,0,0,1,.17-.63l18.45-36.48a1.5,1.5,0,0,1,1.94-.69h0l.08,0,.31.13,1.19.47c1,.39,2.51.91,4.29,1.43a47.83,47.83,0,0,0,13,2.09,24.78,24.78,0,0,0,6.82-.88,15.46,15.46,0,0,0,5.83-3.05,9.78,9.78,0,0,0,2.38-3.66,32.24,32.24,0,0,0,1.82-6.42,99.7,99.7,0,0,0,1.42-18.15c0-14.3-2-30.62-5.12-41.05-.35-1.19-.72-2.31-1.1-3.33a21.74,21.74,0,0,1-4.53.44,37,37,0,0,1-4.14-.25,5.89,5.89,0,0,0-.69,0,3,3,0,0,0-1.61.39,2.82,2.82,0,0,0-1,1.15,14.6,14.6,0,0,0-1.09,5.57c-.1,1.65-.12,3.53-.13,5.55,0,2.7,0,5.66-.19,8.74a50.73,50.73,0,0,1-2.11,12.53A27.82,27.82,0,0,1,585.22,137a23.75,23.75,0,0,1-13.91,4.61,30,30,0,0,1-15.42-4.79l-1.36,4.81-1.81,26.68a1.49,1.49,0,0,1-1.08,1.34A44.46,44.46,0,0,1,540.31,171a45.14,45.14,0,0,1-5.41-.34c-2.1,5.13-3.67,8.88-4.43,10.69C534.1,183.6,545.68,191.44,559.07,207.84Z"/><path d="M527.1,182.2a2,2,0,0,0,.08.33A2,2,0,0,1,527.1,182.2Z"/><path d="M527.09,182.11a1.79,1.79,0,0,1,0-.4A1.35,1.35,0,0,0,527.09,182.11Z"/><path d="M528.42,178.5l-.37.89-.85,2c0,.07,0,.14-.06.2a1.45,1.45,0,0,1,.43-.72,1.5,1.5,0,0,1,1.72-.22s.44.24,1.18.7c.76-1.81,2.33-5.56,4.43-10.69-1-.12-2-.28-3-.49l-1.45,3.51-.77,1.87Z"/><path d="M612.74,87.79c-.45.14-.93.27-1.43.38.38,1,.75,2.14,1.1,3.33,3.11,10.43,5.13,26.75,5.12,41.05a99.7,99.7,0,0,1-1.42,18.15,32.24,32.24,0,0,1-1.82,6.42,9.78,9.78,0,0,1-2.38,3.66,15.46,15.46,0,0,1-5.83,3.05,24.78,24.78,0,0,1-6.82.88,47.83,47.83,0,0,1-13-2.09c-1.78-.52-3.26-1-4.29-1.43l-1.19-.47-.31-.13-.08,0h0a1.5,1.5,0,0,0-1.94.69L560,197.72a1.56,1.56,0,0,0-.17.63,89.14,89.14,0,0,1-.72,9.49c.84,1,1.68,2.07,2.53,3.16l.12-.63a84.57,84.57,0,0,0,1.06-11.58l3.65-7.21,1.36-2.7,12.67-25c1.1.43,2.81,1,4.94,1.67a50.73,50.73,0,0,0,13.86,2.21,27.58,27.58,0,0,0,7.65-1,18.43,18.43,0,0,0,6.94-3.65,12.53,12.53,0,0,0,3.21-4.78,44.32,44.32,0,0,0,2.66-11.2,116.87,116.87,0,0,0,.81-14.53,179.7,179.7,0,0,0-3.15-33.29,81,81,0,0,0-3.23-12A12.18,12.18,0,0,1,612.74,87.79Z"/><path class="cls-3" d="M587.36,262.69c-19.4-48-45.58-69.86-55.48-76.79L553.78,237l39,46.23A1.53,1.53,0,0,1,593,285l-18,32.66,83.1,102.72C644.26,391.07,607.16,311.73,587.36,262.69Z"/><path d="M590.14,261.57c-8.81-21.82-19-38.33-28.54-50.57-.85-1.09-1.69-2.14-2.53-3.16-13.39-16.4-25-24.24-28.6-26.46-.74-.46-1.15-.68-1.18-.7a1.5,1.5,0,0,0-1.72.22,1.45,1.45,0,0,0-.43.72l0,.09a1.79,1.79,0,0,0,0,.4s0,.06,0,.09a2,2,0,0,0,.08.33s0,0,0,.06l23.91,55.84a1.48,1.48,0,0,0,.23.38l38.48,45.61-18,32.64a1.52,1.52,0,0,0,.15,1.67l91.44,113,.19.24a1.5,1.5,0,0,0,2.52-1.59l-.58-1.23c-1.13-2.37-3.85-8.11-7.66-16.2C642.38,380,608.64,307.4,590.14,261.57ZM575,317.63,593,285a1.53,1.53,0,0,0-.17-1.7l-39-46.23-21.9-51.14c9.9,6.93,36.08,28.77,55.48,76.79,19.8,49,56.9,128.38,70.72,157.66Z"/><path class="cls-3" d="M585.78,488.32c1.33,1.93,2.67,4.14,4.05,6.37,2.75,4.47,5.74,9.08,9.07,11.83a32,32,0,0,0,9.44,5.22,30.83,30.83,0,0,0,10.07,2c.2,0,.38,0,.58,0a30.67,30.67,0,0,0,.22-3.91,83.87,83.87,0,0,0-2.92-20.3c-2-7.54-5.11-15.13-9.36-20.58a33.93,33.93,0,0,0-9.72-7.84,87.1,87.1,0,0,0-13-5.92c-2-.73-3.87-1.38-5.69-2a33.47,33.47,0,0,1-1.33,8.45,76.29,76.29,0,0,1-2.89,8.35c-.89,2.17-1.77,4.11-2.5,5.62,2.47,2,5.76,4.7,9.77,7.92A22.68,22.68,0,0,1,585.78,488.32Z"/><path d="M583.31,490c1.89,2.74,3.9,6.25,6.12,9.66a40.77,40.77,0,0,0,7.55,9.14,34.93,34.93,0,0,0,10.34,5.74,33.77,33.77,0,0,0,11.09,2.15,19.11,19.11,0,0,0,2-.1,1.49,1.49,0,0,0,1.3-1.17,27.35,27.35,0,0,0,.48-5.67,86.75,86.75,0,0,0-3-21.07c-2.08-7.8-5.27-15.7-9.9-21.65-2.78-3.56-6.87-6.53-11.43-9.08a107.26,107.26,0,0,0-19.6-8.05,16.17,16.17,0,0,1,.32,3.15s0,.06,0,.09c1.82.59,3.74,1.24,5.69,2a87.1,87.1,0,0,1,13,5.92,33.93,33.93,0,0,1,9.72,7.84c4.25,5.45,7.36,13,9.36,20.58a83.87,83.87,0,0,1,2.92,20.3,30.67,30.67,0,0,1-.22,3.91c-.2,0-.38,0-.58,0a30.83,30.83,0,0,1-10.07-2,32,32,0,0,1-9.44-5.22c-3.33-2.75-6.32-7.36-9.07-11.83-1.38-2.23-2.72-4.44-4.05-6.37a22.68,22.68,0,0,0-4.16-4.82c-4-3.22-7.3-5.89-9.77-7.92-.59,1.24-1.08,2.19-1.37,2.76,2.41,2,5.52,4.49,9.26,7.5A19.94,19.94,0,0,1,583.31,490Z"/><path class="cls-3" d="M513.19,179.2a8.35,8.35,0,0,0-3.22,1.19,28.84,28.84,0,0,0-4.55,3.29A95.66,95.66,0,0,0,493.79,196c-8.57,10.53-18.43,25.36-27.73,42.74-18.61,34.76-35,79.74-35,121a130.67,130.67,0,0,0,3.74,32A96.93,96.93,0,0,0,463.19,440c12.77,11.85,27.95,19.9,42.8,25.34a195.86,195.86,0,0,0,62,11.34l.32-.64c.47-.92,1.11-2.23,1.82-3.8a78.76,78.76,0,0,0,4.26-11.46,30.71,30.71,0,0,0,1.24-7.75,10.6,10.6,0,0,0-.57-3.65c-24.07-15.77-47.74-38.68-61.33-57.54-4.56-6.33-8-12.2-9.91-17.28a22.93,22.93,0,0,1-1.72-8c0-.14,0-.29,0-.44h0a38.33,38.33,0,0,1,1.46-8.23c.85-3.16,2-6.72,3.41-10.49,2.77-7.56,6.4-16,10-23.92C524.16,307.73,531.3,294,531.3,294a1.48,1.48,0,0,1,1.09-.78l-19.08-114Z"/><path d="M498.16,465.52a175.75,175.75,0,0,0,28.8,9.15,196.78,196.78,0,0,0,41.29,5.05h.62a1.51,1.51,0,0,0,1.29-.78l.32-.6c.29-.57.78-1.52,1.37-2.76.73-1.51,1.61-3.45,2.5-5.62a76.29,76.29,0,0,0,2.89-8.35,33.47,33.47,0,0,0,1.33-8.45s0-.06,0-.09a16.17,16.17,0,0,0-.32-3.15,11.13,11.13,0,0,0-.63-2.08,1.47,1.47,0,0,0-.56-.65A258.31,258.31,0,0,1,527.29,404,150.23,150.23,0,0,1,511,382.48a58,58,0,0,1-4.47-8.94,20.41,20.41,0,0,1-1.52-6.89v-.33h0a36.82,36.82,0,0,1,1.36-7.55c2.86-10.67,9.76-26.57,15.94-39.74,3.08-6.58,6-12.49,8.12-16.76,1.07-2.13,1.94-3.85,2.55-5,.3-.6.54-1.06.7-1.37l.24-.47a1.49,1.49,0,0,0-.63-2,1.41,1.41,0,0,0-.94-.14,1.48,1.48,0,0,0-1.09.78s-7.14,13.72-14.36,29.56c-3.61,7.92-7.24,16.36-10,23.92-1.39,3.77-2.56,7.33-3.41,10.49a38.33,38.33,0,0,0-1.46,8.23c0,.15,0,.3,0,.44a22.93,22.93,0,0,0,1.72,8c1.92,5.08,5.35,10.95,9.91,17.28,13.59,18.86,37.26,41.77,61.33,57.54a10.6,10.6,0,0,1,.57,3.65,30.71,30.71,0,0,1-1.24,7.75,78.76,78.76,0,0,1-4.26,11.46c-.71,1.57-1.35,2.88-1.82,3.8l-.32.64a195.86,195.86,0,0,1-62-11.34c-14.85-5.44-30-13.49-42.8-25.34a96.93,96.93,0,0,1-28.39-48.29,130.67,130.67,0,0,1-3.74-32c0-41.28,16.39-86.26,35-121,9.3-17.38,19.16-32.21,27.73-42.74a95.66,95.66,0,0,1,11.63-12.33,28.84,28.84,0,0,1,4.55-3.29,8.35,8.35,0,0,1,3.22-1.19l.12,0a1.77,1.77,0,0,0,.46-.15,1.5,1.5,0,0,0-.84-2.82h0a11.42,11.42,0,0,0-4.43,1.56l-.85.51a51.85,51.85,0,0,0-9.14,7.82c-6.51,6.75-14.13,16.64-21.94,28.79a345.74,345.74,0,0,0-33,66.7c-9.2,25.2-15.49,52.3-15.49,78.18a133.14,133.14,0,0,0,3.84,32.71,99.86,99.86,0,0,0,29.25,49.76,123.51,123.51,0,0,0,34,22C496.17,464.66,497.16,465.11,498.16,465.52Z"/><polygon points="502.06 366.21 502.06 366.21 502.06 366.2 502.06 366.21"/><path d="M540.31,168a45.46,45.46,0,0,0,9.5-1l1.74-25.75a1.45,1.45,0,0,1,.05-.3l1.95-6.9a1.51,1.51,0,0,1,.92-1,1.47,1.47,0,0,1,1.35.16c4.6,3.07,9.95,5.39,15.49,5.38a20.74,20.74,0,0,0,12.19-4.07,23.74,23.74,0,0,0,6.68-7.08,29.12,29.12,0,0,0,3.45-8.5c1.46-6,1.47-12.37,1.49-17.93a52.61,52.61,0,0,1,.61-9.74,8.88,8.88,0,0,1,1.77-4.05,5.31,5.31,0,0,1,1.86-1.41,6.28,6.28,0,0,1,2.59-.52,7.47,7.47,0,0,1,1,.07,33.45,33.45,0,0,0,3.79.23,13,13,0,0,0,6.63-1.38,5.14,5.14,0,0,0,2.35-2.85,7,7,0,0,0,.35-2.27,11.62,11.62,0,0,0-.71-3.84h0a1.58,1.58,0,0,1-.09-.31h0l0-.08c0-.08,0-.19-.07-.35s-.2-.77-.38-1.34a24.6,24.6,0,0,0-2-4.55,25.54,25.54,0,0,0-11.69-10.74,37.9,37.9,0,0,0-16.27-3.23c-6.79,0-15.12,1.28-25.3,4.52-3.08,1-6.92,3.36-11,6.8a103.53,103.53,0,0,0-12.71,13.08A144.66,144.66,0,0,0,514,114.93c-3.42,8.39-5.49,16.6-5.48,23.67a26.34,26.34,0,0,0,2,10.56c3.5,8,8.53,12.61,13.9,15.35A35.2,35.2,0,0,0,540.31,168Z"/><path d="M534.9,170.69a45.14,45.14,0,0,0,5.41.34,44.46,44.46,0,0,0,11.33-1.38,1.49,1.49,0,0,0,1.08-1.34l1.81-26.68,1.36-4.81a30,30,0,0,0,15.42,4.79A23.75,23.75,0,0,0,585.22,137a27.82,27.82,0,0,0,10.6-14.76,50.73,50.73,0,0,0,2.11-12.53c.18-3.08.18-6,.19-8.74,0-2,0-3.9.13-5.55a14.6,14.6,0,0,1,1.09-5.57,2.82,2.82,0,0,1,1-1.15,3,3,0,0,1,1.61-.39,5.89,5.89,0,0,1,.69,0,37,37,0,0,0,4.14.25,21.74,21.74,0,0,0,4.53-.44c.5-.11,1-.24,1.43-.38a12.18,12.18,0,0,0,1.41-.57A8.51,8.51,0,0,0,617.84,84a9.33,9.33,0,0,0,1.27-4.88,14.5,14.5,0,0,0-.87-4.81A27.16,27.16,0,0,0,612.58,63a28.85,28.85,0,0,0-10.17-7.81,41,41,0,0,0-17.54-3.51c-7.17,0-15.8,1.35-26.21,4.67a29.83,29.83,0,0,0-7.83,4.11,87.79,87.79,0,0,0-15.1,14.13,152.63,152.63,0,0,0-20.81,31.14c-5.61,11.3-9.36,22.86-9.37,32.89a29.35,29.35,0,0,0,2.22,11.76c3.74,8.57,9.35,13.82,15.29,16.83a34.39,34.39,0,0,0,8.8,3C532.89,170.41,533.9,170.57,534.9,170.69Zm-24.38-21.53a26.34,26.34,0,0,1-2-10.56c0-7.07,2.06-15.28,5.48-23.67a144.66,144.66,0,0,1,21.83-35.87A103.53,103.53,0,0,1,548.57,66c4.08-3.44,7.92-5.82,11-6.8,10.18-3.24,18.51-4.52,25.3-4.52a37.9,37.9,0,0,1,16.27,3.23,25.54,25.54,0,0,1,11.69,10.74,24.6,24.6,0,0,1,2,4.55c.18.57.3,1,.38,1.34s.06.27.07.35l0,.08h0a1.58,1.58,0,0,0,.09.31h0a11.62,11.62,0,0,1,.71,3.84,7,7,0,0,1-.35,2.27,5.14,5.14,0,0,1-2.35,2.85,13,13,0,0,1-6.63,1.38,33.45,33.45,0,0,1-3.79-.23,7.47,7.47,0,0,0-1-.07,6.28,6.28,0,0,0-2.59.52,5.31,5.31,0,0,0-1.86,1.41,8.88,8.88,0,0,0-1.77,4.05,52.61,52.61,0,0,0-.61,9.74c0,5.56,0,12-1.49,17.93a29.12,29.12,0,0,1-3.45,8.5,23.74,23.74,0,0,1-6.68,7.08,20.74,20.74,0,0,1-12.19,4.07c-5.54,0-10.89-2.31-15.49-5.38a1.47,1.47,0,0,0-1.35-.16,1.51,1.51,0,0,0-.92,1L551.6,141a1.45,1.45,0,0,0-.05.3L549.81,167a45.46,45.46,0,0,1-9.5,1,35.2,35.2,0,0,1-15.89-3.52C519.05,161.77,514,157.13,510.52,149.16Z"/><path class="cls-3" d="M771.92,1085.83a6.14,6.14,0,0,0-.91-3.41,7.12,7.12,0,0,0-3.4-2.67c-3.55-1.52-10-3.92-17.15-6.65s-15.18-5.83-21.94-8.76a106.46,106.46,0,0,1-11.35-5.55,17.94,17.94,0,0,1-3.84-2.85,4.22,4.22,0,0,1-1.08-1.8,23.93,23.93,0,0,0-1.67-4.19c-.79-1.64-1.77-3.44-2.76-5.17-1.94-3.38-3.92-6.48-4.76-7.78l-39.73-1.45c-.13.54-.29,1.24-.48,2.09-.47,2.08-1.13,5-1.85,8.46-1.46,6.89-3.2,15.78-4.36,23.79a105.9,105.9,0,0,0-1.28,13.92,24.26,24.26,0,0,0,.18,3.21,6.48,6.48,0,0,0,.48,1.86,10.88,10.88,0,0,0,3.25,4.17,15.86,15.86,0,0,0,6.46,2.44c6.18,1.22,16.66,1.51,34.81,1.51h66.9l.34-.48c.46-.69,1.09-1.68,1.71-2.83C770.74,1091.38,771.94,1088.37,771.92,1085.83Z"/><path d="M774.92,1085.83a9.18,9.18,0,0,0-1.38-5,10.07,10.07,0,0,0-4.75-3.81c-3-1.29-7.77-3.1-13.32-5.21-8.33-3.16-18.35-7-26.39-10.48a100.86,100.86,0,0,1-10.07-4.92,21,21,0,0,1-2.94-2,4.93,4.93,0,0,1-.73-.73,1.22,1.22,0,0,1-.15-.22l0,0h0a29.94,29.94,0,0,0-2.25-5.51,147.26,147.26,0,0,0-7.77-13.18,1,1,0,0,0-.13-.16A1.46,1.46,0,0,0,704,1034l-2.13-.08-38.05-1.4-1.56,0a1.48,1.48,0,0,0-1.36.77,1.61,1.61,0,0,0-.16.38s-.19.79-.5,2.17c-.75,3.22-2.2,9.71-3.66,17.14-1,5.3-2.08,11.08-2.86,16.49a107.77,107.77,0,0,0-1.31,14.35,26.45,26.45,0,0,0,.21,3.62,9.19,9.19,0,0,0,.77,2.8,13.78,13.78,0,0,0,4.16,5.23,13.34,13.34,0,0,0,2.77,1.54,21,21,0,0,0,2.55.89,66,66,0,0,0,13.62,1.72c6.06.3,13.86.39,24.1.39H768.2a1.54,1.54,0,0,0,1.19-.58s.74-1,1.65-2.42c.34-.56.71-1.19,1.09-1.89A20.51,20.51,0,0,0,774.92,1085.83Zm-7.14,10.69-.34.48h-66.9c-18.15,0-28.63-.29-34.81-1.51a15.86,15.86,0,0,1-6.46-2.44,10.88,10.88,0,0,1-3.25-4.17,6.48,6.48,0,0,1-.48-1.86,24.26,24.26,0,0,1-.18-3.21,105.9,105.9,0,0,1,1.28-13.92c1.16-8,2.9-16.9,4.36-23.79.72-3.44,1.38-6.38,1.85-8.46.19-.85.35-1.55.48-2.09l39.73,1.45c.84,1.3,2.82,4.4,4.76,7.78,1,1.73,2,3.53,2.76,5.17a23.93,23.93,0,0,1,1.67,4.19,4.22,4.22,0,0,0,1.08,1.8,17.94,17.94,0,0,0,3.84,2.85,106.46,106.46,0,0,0,11.35,5.55c6.76,2.93,14.74,6,21.94,8.76s13.6,5.13,17.15,6.65a7.12,7.12,0,0,1,3.4,2.67,6.14,6.14,0,0,1,.91,3.41c0,2.54-1.18,5.55-2.43,7.86C768.87,1094.84,768.24,1095.83,767.78,1096.52Z"/><path d="M1055.8,818.1V800.4H937v17.7h6a1.5,1.5,0,0,1,1.06.44,1.52,1.52,0,0,1,.44,1.06v21.63h17.71V819.6a1.55,1.55,0,0,1,.43-1.06,1.52,1.52,0,0,1,1.07-.44h65.35a1.5,1.5,0,0,1,1.5,1.5v21.63h17.7V819.6a1.5,1.5,0,0,1,1.5-1.5Z"/><path d="M965.24,842.18V821.1h62.35v21.08h23.7V821.1h6a1.46,1.46,0,0,0,1.06-.44,1.5,1.5,0,0,0,.44-1.06V798.9a1.52,1.52,0,0,0-.44-1.06,1.5,1.5,0,0,0-1.06-.44H935.52a1.5,1.5,0,0,0-1.5,1.5v20.7a1.5,1.5,0,0,0,.44,1.06,1.52,1.52,0,0,0,1.06.44h6v21.08Zm83-22.58v21.63h-17.7V819.6a1.5,1.5,0,0,0-1.5-1.5H963.74a1.52,1.52,0,0,0-1.07.44,1.55,1.55,0,0,0-.43,1.06v21.63H944.53V819.6a1.52,1.52,0,0,0-.44-1.06,1.5,1.5,0,0,0-1.06-.44h-6V800.4H1055.8v17.7h-6a1.5,1.5,0,0,0-1.5,1.5Z"/><rect x="1156.95" y="845.18" width="77.07" height="250.24"/><path d="M1157,843.68v1.5H1234v250.24H1157v1.5a1.47,1.47,0,0,1-.44,1.06,1.5,1.5,0,0,1-1.06.44h80.07a1.5,1.5,0,0,0,1.06-.44,1.52,1.52,0,0,0,.43-1s0-.06,0-.08V843.68a1.5,1.5,0,0,0-1.5-1.5h-80.07a1.5,1.5,0,0,1,1.06.44A1.52,1.52,0,0,1,1157,843.68Z"/><path class="cls-3" d="M807.57,845.18v250.24H1154V845.18H807.57Zm103.11,95.56a1.5,1.5,0,0,1,1.5-1.5h27.33V911.92a1.5,1.5,0,0,1,.44-1.06,1.48,1.48,0,0,1,1.06-.44h59.13a1.52,1.52,0,0,1,1.06.44,1.5,1.5,0,0,1,.44,1.06v27.32H1029a1.52,1.52,0,0,1,1.06.44,1.5,1.5,0,0,1,.44,1.06v59.12a1.5,1.5,0,0,1-1.5,1.5h-27.33v27.32a1.52,1.52,0,0,1-.44,1.06,1.5,1.5,0,0,1-1.06.44H941a1.48,1.48,0,0,1-1.06-.44,1.52,1.52,0,0,1-.44-1.06v-27.32H912.18a1.5,1.5,0,0,1-1.06-.44,1.52,1.52,0,0,1-.44-1.06Z"/><path d="M804.58,1097a1.49,1.49,0,0,0,1.49,1.42h349.38a1.5,1.5,0,0,0,1.06-.44,1.47,1.47,0,0,0,.44-1.06V843.68a1.52,1.52,0,0,0-.44-1.06,1.5,1.5,0,0,0-1.06-.44H806.07a1.5,1.5,0,0,0-1.5,1.5v253.24S804.58,1097,804.58,1097Zm83.06-251.82H1154v250.24H807.57V845.18Z"/><path class="cls-6" d="M942.07,998.8a1.5,1.5,0,0,1,.44,1.06v27.32h56.13V999.86a1.5,1.5,0,0,1,1.5-1.5h27.33V942.24h-27.33a1.5,1.5,0,0,1-1.06-.44,1.52,1.52,0,0,1-.44-1.06V913.42H942.51v27.32a1.5,1.5,0,0,1-.44,1.06,1.52,1.52,0,0,1-1.06.44H913.68v56.12H941A1.52,1.52,0,0,1,942.07,998.8Z"/><path d="M912.18,1001.36h27.33v27.32a1.52,1.52,0,0,0,.44,1.06,1.48,1.48,0,0,0,1.06.44h59.13a1.5,1.5,0,0,0,1.06-.44,1.52,1.52,0,0,0,.44-1.06v-27.32H1029a1.5,1.5,0,0,0,1.5-1.5V940.74a1.5,1.5,0,0,0-.44-1.06,1.52,1.52,0,0,0-1.06-.44h-27.33V911.92a1.5,1.5,0,0,0-.44-1.06,1.52,1.52,0,0,0-1.06-.44H941a1.48,1.48,0,0,0-1.06.44,1.5,1.5,0,0,0-.44,1.06v27.32H912.18a1.5,1.5,0,0,0-1.5,1.5v59.12a1.52,1.52,0,0,0,.44,1.06A1.5,1.5,0,0,0,912.18,1001.36Zm1.5-59.12H941a1.52,1.52,0,0,0,1.06-.44,1.5,1.5,0,0,0,.44-1.06V913.42h56.13v27.32a1.52,1.52,0,0,0,.44,1.06,1.5,1.5,0,0,0,1.06.44h27.33v56.12h-27.33a1.5,1.5,0,0,0-1.5,1.5v27.32H942.51V999.86a1.5,1.5,0,0,0-.44-1.06,1.52,1.52,0,0,0-1.06-.44H913.68Z"/><path class="cls-3" d="M281.07,440.29a38.07,38.07,0,0,1,26-26,38.1,38.1,0,0,1-26-26,38.14,38.14,0,0,1-26,26A38.1,38.1,0,0,1,281.07,440.29Z"/><path d="M244.5,415.78a35,35,0,0,1,35.05,35.05,1.5,1.5,0,0,0,1.5,1.5h0a1.5,1.5,0,0,0,1.5-1.5,35,35,0,0,1,35.05-35.05,1.5,1.5,0,0,0,1.06-.44,1.51,1.51,0,0,0,0-2.13,1.53,1.53,0,0,0-1.06-.43,35,35,0,0,1-35.05-35.06,1.5,1.5,0,0,0-1.5-1.5h0a1.5,1.5,0,0,0-1.5,1.5,35,35,0,0,1-35.05,35.06,1.55,1.55,0,0,0-1.06.43,1.51,1.51,0,0,0,1.06,2.57Zm36.57-27.52a38.1,38.1,0,0,0,26,26,38.07,38.07,0,0,0-26,26,38.1,38.1,0,0,0-26-26A38.14,38.14,0,0,0,281.07,388.26Z"/><path class="cls-3" d="M1434.23,542.8a38.1,38.1,0,0,1-26,26,38.14,38.14,0,0,1,26,26,38.1,38.1,0,0,1,26-26A38.07,38.07,0,0,1,1434.23,542.8Z"/><path d="M1435.74,532.27a1.5,1.5,0,0,0-1.5-1.5h0a1.5,1.5,0,0,0-1.06.44,1.52,1.52,0,0,0-.44,1.06,35,35,0,0,1-35.06,35.05,1.5,1.5,0,0,0-1.5,1.5,1.48,1.48,0,0,0,.44,1.06,1.52,1.52,0,0,0,1.06.44,35.06,35.06,0,0,1,35.06,35.06,1.52,1.52,0,0,0,.44,1.06,1.5,1.5,0,0,0,1.06.44h0a1.5,1.5,0,0,0,1.5-1.5,35.06,35.06,0,0,1,35-35.06,1.5,1.5,0,0,0,1.06-.44,1.48,1.48,0,0,0,.44-1.06,1.52,1.52,0,0,0-.44-1.06,1.5,1.5,0,0,0-1.06-.44,35,35,0,0,1-35-35.05Zm-1.51,62.57a38.14,38.14,0,0,0-26-26,38.1,38.1,0,0,0,26-26,38.07,38.07,0,0,0,26,26A38.1,38.1,0,0,0,1434.23,594.84Z"/><path class="cls-2" d="M834.33,660.27a21.9,21.9,0,1,0,21.9-21.89A21.9,21.9,0,0,0,834.33,660.27Zm36.42,0a14.53,14.53,0,1,1-14.52-14.52A14.52,14.52,0,0,1,870.75,660.27Z"/><path class="cls-3" d="M282.56,666a31.34,31.34,0,0,1,.18,3.24v15h44a22.89,22.89,0,0,1,22.89,22.89v346.33a22.89,22.89,0,0,1-22.89,22.89H78.08a22.89,22.89,0,0,1-22.89-22.89V707.15a22.89,22.89,0,0,1,22.89-22.89h44v-15a31.34,31.34,0,0,1,.18-3.24h0c0-.2.06-.38.08-.57H66.42a27.77,27.77,0,0,0-27.78,27.77V1067.4a27.77,27.77,0,0,0,27.78,27.77H338.36a27.77,27.77,0,0,0,27.78-27.77V693.23a27.77,27.77,0,0,0-27.78-27.77H282.48c0,.19.06.37.08.57Z"/><path d="M66.42,1098.17H338.36a30.76,30.76,0,0,0,30.78-30.77V693.23a30.78,30.78,0,0,0-30.78-30.77H281.93a29.39,29.39,0,0,1,.55,3h55.88a27.77,27.77,0,0,1,27.78,27.77V1067.4a27.77,27.77,0,0,1-27.78,27.77H66.42a27.77,27.77,0,0,1-27.78-27.77V693.23a27.77,27.77,0,0,1,27.78-27.77H122.3a29.39,29.39,0,0,1,.55-3H66.42a30.78,30.78,0,0,0-30.78,30.77V1067.4a30.76,30.76,0,0,0,30.78,30.77Z"/><path class="cls-3" d="M64,693.08a19.85,19.85,0,0,0-5.83,14.07v346.33a19.89,19.89,0,0,0,19.89,19.89H326.7a19.89,19.89,0,0,0,19.89-19.89V707.15a19.89,19.89,0,0,0-19.89-19.89h-44v4.93a1.52,1.52,0,0,1-.44,1.06,1.5,1.5,0,0,1-1.06.44H123.54a1.5,1.5,0,0,1-1.5-1.5v-4.93h-44A19.8,19.8,0,0,0,64,693.08Zm91.56,232.8a1.5,1.5,0,0,1,0-3H325.44a1.5,1.5,0,0,1,0,3Zm169.86-87.45H155.58a1.5,1.5,0,0,1,0-3H325.44a1.5,1.5,0,0,1,0,3Zm0,174.89H155.58a1.5,1.5,0,0,1,0-3H325.44a1.5,1.5,0,0,1,0,3ZM155.58,748H325.44a1.5,1.5,0,1,1,0,3H155.58a1.5,1.5,0,0,1,0-3ZM89.49,729.58a1.48,1.48,0,0,1,.44-1.06,1.52,1.52,0,0,1,1.06-.44h39.84a1.49,1.49,0,0,1,1.5,1.5v39.83a1.49,1.49,0,0,1-1.5,1.5H91a1.52,1.52,0,0,1-1.06-.44,1.5,1.5,0,0,1-.44-1.06Zm0,87.44a1.5,1.5,0,0,1,.44-1.06,1.52,1.52,0,0,1,1.06-.44h39.84a1.49,1.49,0,0,1,1.5,1.5v39.83a1.49,1.49,0,0,1-1.5,1.5H91a1.52,1.52,0,0,1-1.06-.44,1.5,1.5,0,0,1-.44-1.06Zm0,87.44a1.5,1.5,0,0,1,.44-1.06A1.52,1.52,0,0,1,91,903h39.84a1.49,1.49,0,0,1,1.5,1.5v39.83a1.49,1.49,0,0,1-1.5,1.5H91a1.52,1.52,0,0,1-1.06-.44,1.5,1.5,0,0,1-.44-1.06Zm0,87.44a1.5,1.5,0,0,1,1.5-1.5h39.84a1.52,1.52,0,0,1,1.07.44,1.55,1.55,0,0,1,.43,1.06v39.84a1.55,1.55,0,0,1-.43,1.06,1.52,1.52,0,0,1-1.07.44H91a1.5,1.5,0,0,1-1.5-1.5Z"/><path d="M282.74,687.26h44a19.89,19.89,0,0,1,19.89,19.89v346.33a19.89,19.89,0,0,1-19.89,19.89H78.08a19.89,19.89,0,0,1-19.89-19.89V707.15a19.89,19.89,0,0,1,19.89-19.89h44v-3h-44a22.89,22.89,0,0,0-22.89,22.89v346.33a22.89,22.89,0,0,0,22.89,22.89H326.7a22.89,22.89,0,0,0,22.89-22.89V707.15a22.89,22.89,0,0,0-22.89-22.89h-44Z"/><path class="cls-3" d="M253.56,643.09H236.78a1.52,1.52,0,0,1-1.06-.44,1.5,1.5,0,0,1-.44-1.06v-3.35a26.19,26.19,0,0,0-26.18-26.18H195.68a26.19,26.19,0,0,0-26.18,26.18v3.35a1.5,1.5,0,0,1-.44,1.06,1.52,1.52,0,0,1-1.06.44H151.22a26.19,26.19,0,0,0-25.77,21.6H279.33A26.17,26.17,0,0,0,253.56,643.09Z"/><path d="M122.3,665.46c0,.19,0,.37-.08.57h0a1.51,1.51,0,0,1,1.5-1.34h1.73a26.19,26.19,0,0,1,25.77-21.6H168a1.52,1.52,0,0,0,1.06-.44,1.5,1.5,0,0,0,.44-1.06v-3.35a26.19,26.19,0,0,1,26.18-26.18H209.1a26.19,26.19,0,0,1,26.18,26.18v3.35a1.5,1.5,0,0,0,.44,1.06,1.52,1.52,0,0,0,1.06.44h16.78a26.17,26.17,0,0,1,25.77,21.6h1.74a1.51,1.51,0,0,1,1.49,1.34h0c0-.2-.06-.38-.08-.57a29.11,29.11,0,0,0-28.92-25.37H238.28v-1.85a29.18,29.18,0,0,0-29.18-29.18H195.68a29.18,29.18,0,0,0-29.18,29.18v1.85H151.22a29.11,29.11,0,0,0-28.92,25.37Z"/><path d="M279.74,669.27c0-.53,0-1.06-.05-1.58H125.09c0,.52,0,1,0,1.58v21.42h154.7Z"/><path d="M122,669.27v22.92a1.5,1.5,0,0,0,1.5,1.5h157.7a1.5,1.5,0,0,0,1.06-.44,1.52,1.52,0,0,0,.44-1.06V669.27a31.34,31.34,0,0,0-.18-3.24h0a1.51,1.51,0,0,0-1.49-1.34H123.72a1.51,1.51,0,0,0-1.5,1.34h0A31.34,31.34,0,0,0,122,669.27Zm3,21.42V669.27c0-.53,0-1.06,0-1.58h154.6c0,.52.05,1,.05,1.58v21.42Z"/><rect class="cls-6" x="92.49" y="731.08" width="36.84" height="36.83"/><path d="M91,770.91h39.84a1.49,1.49,0,0,0,1.5-1.5V729.58a1.49,1.49,0,0,0-1.5-1.5H91a1.52,1.52,0,0,0-1.06.44,1.48,1.48,0,0,0-.44,1.06v39.83a1.5,1.5,0,0,0,.44,1.06A1.52,1.52,0,0,0,91,770.91Zm1.5-39.83h36.84v36.83H92.49Z"/><rect class="cls-6" x="92.49" y="818.52" width="36.84" height="36.83"/><path d="M91,858.35h39.84a1.49,1.49,0,0,0,1.5-1.5V817a1.49,1.49,0,0,0-1.5-1.5H91a1.52,1.52,0,0,0-1.06.44,1.5,1.5,0,0,0-.44,1.06v39.83a1.5,1.5,0,0,0,.44,1.06A1.52,1.52,0,0,0,91,858.35Zm1.5-39.83h36.84v36.83H92.49Z"/><rect class="cls-3" x="92.49" y="905.96" width="36.84" height="36.83"/><path d="M91,945.79h39.84a1.49,1.49,0,0,0,1.5-1.5V904.46a1.49,1.49,0,0,0-1.5-1.5H91a1.52,1.52,0,0,0-1.06.44,1.5,1.5,0,0,0-.44,1.06v39.83a1.5,1.5,0,0,0,.44,1.06A1.52,1.52,0,0,0,91,945.79ZM92.49,906h36.84v36.83H92.49Z"/><rect class="cls-6" x="92.49" y="993.4" width="36.84" height="36.83"/><path d="M91,1033.24h39.84a1.52,1.52,0,0,0,1.07-.44,1.55,1.55,0,0,0,.43-1.06V991.9a1.55,1.55,0,0,0-.43-1.06,1.52,1.52,0,0,0-1.07-.44H91a1.5,1.5,0,0,0-1.5,1.5v39.84a1.5,1.5,0,0,0,1.5,1.5Zm1.5-39.84h36.84v36.84H92.49Z"/><path d="M155.58,751H325.44a1.5,1.5,0,1,0,0-3H155.58a1.5,1.5,0,0,0,0,3Z"/><path d="M325.44,835.43H155.58a1.5,1.5,0,0,0,0,3H325.44a1.5,1.5,0,0,0,0-3Z"/><path d="M326.94,924.38a1.5,1.5,0,0,0-1.5-1.5H155.58a1.5,1.5,0,0,0,0,3H325.44A1.5,1.5,0,0,0,326.94,924.38Z"/><path d="M325.44,1010.32H155.58a1.5,1.5,0,0,0,0,3H325.44a1.5,1.5,0,0,0,0-3Z"/><path class="cls-3" d="M658.55,560.88l.32-.11-33.47,5.57c5.81-.5,12.58-1.23,19-2.26A99.54,99.54,0,0,0,658.55,560.88Z"/><path d="M658.55,560.88a99.54,99.54,0,0,1-14.17,3.2c-6.4,1-13.17,1.76-19,2.26-1.37.12-2.7.23-3.94.32-3.26.25-6,.41-8,.52l-2.27.11-.8,0a1.5,1.5,0,1,0,.11,3h0s10.62-.4,22.76-1.74c6.07-.67,12.53-1.57,18.26-2.78a77.61,77.61,0,0,0,7.93-2.07,28.94,28.94,0,0,0,6.12-2.68A1.5,1.5,0,0,0,664,558.5a25.11,25.11,0,0,1-5.15,2.27Z"/><path class="cls-2" d="M970.57,649.12h312.65v-13.4H1258.4a12.64,12.64,0,0,1-4.85,1h-15.84a12.61,12.61,0,0,1-4.85-1H970.57Z"/><path class="cls-2" d="M1014.45,567.74V593L995.9,624.34a7.53,7.53,0,0,0,6.49,11.37c1.17,0,19.74,0,20.12,0h17.87a7.53,7.53,0,0,0,6.48-11.37L1028.32,593V567.74Z"/><path class="cls-2" d="M1083.43,567.74V593l-18.55,31.33a7.53,7.53,0,0,0,6.49,11.37c1.17,0,19.74,0,20.12,0h17.87a7.53,7.53,0,0,0,6.48-11.37L1097.3,593V567.74Z"/><path class="cls-2" d="M1200.25,612.25a33.69,33.69,0,0,0-25.51-32.68v-33h-16.33v33a33.67,33.67,0,0,0-16,56.15h48.28A33.5,33.5,0,0,0,1200.25,612.25Z"/><path class="cls-2" d="M1253.55,636.69A12.68,12.68,0,0,0,1266.22,624V590.35H1225V624a12.7,12.7,0,0,0,12.68,12.68Z"/><path d="M917.65,163v2.81a1.5,1.5,0,1,1-3,0v-.66c-.18.12-.35.26-.54.38a147,147,0,0,1-26.38,14.69v1.07a1.49,1.49,0,0,1-3,.17,144.1,144.1,0,0,1-36.6,9.15v1a1.5,1.5,0,1,1-3,0V191c-5.56.55-11.38.85-17.48.85a1.5,1.5,0,0,0,0,3c29.23,0,52.28-6.63,71.36-16.59,18.59-9.71,33.39-22.53,46.59-35.37l-2.15-2.09A244.24,244.24,0,0,1,917.65,163Z"/><path d="M1213.45,193.09h-.15a197.67,197.67,0,0,0,26.46,1.73,1.5,1.5,0,0,0,0-3,194.88,194.88,0,0,1-24.81-1.55v1.33A1.5,1.5,0,0,1,1213.45,193.09Z"/><path d="M965.92,122.52c7.46-7.39,14.74-14.12,22.32-19.55v-2.78a1.5,1.5,0,0,1,3,0v.71c.89-.59,1.78-1.18,2.68-1.73,8.75-5.33,18-8.75,28.58-9.37V88.19a1.49,1.49,0,0,1,1.11-1.44,60.18,60.18,0,0,0-20.91,4.57c-12.49,5.16-23.35,14.09-34.22,24.51-7.44,7.14-14.9,15-22.86,22.82l2.14,2.1C954.09,134.52,960.06,128.33,965.92,122.52Z"/><path d="M1025.5,88.19V89.7h.42c13.21,0,24.75,4.34,35.9,11.33v-.83a1.5,1.5,0,0,1,3,0V103q2.06,1.38,4.1,2.86c13,9.47,25.78,22.12,40.24,34.92.74-.67,1.51-1.33,2.27-2-7.08-6.26-13.79-12.52-20.34-18.42-10.29-9.26-20.23-17.64-30.78-23.75s-21.74-9.9-34.39-9.9c-.53,0-1.06,0-1.59,0A1.5,1.5,0,0,1,1025.5,88.19Z"/><path d="M1172.38,181.31v-2.23c-2.73-1.12-5.4-2.31-8-3.55A177.12,177.12,0,0,1,1145.45,165v.27a1.5,1.5,0,0,1-3,0v-2.19a273.32,273.32,0,0,1-28.75-22.31l-2.27,2c7.2,6.3,14.82,12.59,23.13,18.52a181.86,181.86,0,0,0,38.72,21.42A1.5,1.5,0,0,1,1172.38,181.31Z"/><path d="M1212,191.59v-1.73a164.94,164.94,0,0,1-36.57-9.58v1a1.5,1.5,0,0,1-1.5,1.5,1.47,1.47,0,0,1-.56-.11,168.45,168.45,0,0,0,39.8,10.35A1.49,1.49,0,0,1,1212,191.59Z"/><path d="M1215,89.91v1.32a196.67,196.67,0,0,1,24.81-1.54,1.5,1.5,0,0,0,0-3,197.18,197.18,0,0,0-26.55,1.75,2,2,0,0,1,.24,0A1.5,1.5,0,0,1,1215,89.91Z"/><path d="M1089.08,158.94c-8.22,7.39-16.16,14.14-24.26,19.58v2.8a1.48,1.48,0,0,1-.63,1.21c2.19-1.39,4.35-2.87,6.5-4.43,13.35-9.74,26.25-22.54,40.74-35.35l2.27-2c7.06-6.17,14.52-12.31,22.6-18.08q3-2.15,6.15-4.22v-2.78a1.46,1.46,0,0,1,.54-1.13,268.22,268.22,0,0,0-31.56,24.22c-.76.66-1.53,1.32-2.27,2C1102.14,147,1095.52,153.14,1089.08,158.94Z"/><path d="M1022.5,193.31V191.7a57.25,57.25,0,0,1-18.66-4.29,74.69,74.69,0,0,1-12.6-6.79v.7a1.5,1.5,0,0,1-3,0v-2.77a163,163,0,0,1-17.69-15.05c-7.36-7.05-14.79-14.87-22.79-22.75l-2.14-2.1a235.44,235.44,0,0,0-29.8-25.16C893.75,98.14,866,86.68,827.67,86.69a1.5,1.5,0,0,0,0,3,174.07,174.07,0,0,1,17.48.87v-.65a1.5,1.5,0,1,1,3,0v1a143.68,143.68,0,0,1,36.6,9.17,1.48,1.48,0,0,1,1.48-1.34,1.5,1.5,0,0,1,1.5,1.5v1.07q5.13,2.19,9.91,4.68a151,151,0,0,1,17,10.41v-.1a1.5,1.5,0,0,1,3,0v2.23a243.15,243.15,0,0,1,25.82,22.27l2.15,2.09c6.3,6.21,12.29,12.41,18.19,18.27,9.35,9.26,18.52,17.66,28.55,23.77,9.41,5.75,19.61,9.46,31.3,9.88A1.51,1.51,0,0,1,1022.5,193.31Z"/><path d="M1145.45,115.67v.83a173.54,173.54,0,0,1,26.93-14.08v-2.23a1.48,1.48,0,0,1,.81-1.32q-5.2,2.07-10.1,4.39a182.6,182.6,0,0,0-19.72,11,1.62,1.62,0,0,1,.58-.12A1.5,1.5,0,0,1,1145.45,115.67Z"/><path d="M1175.38,100.19v1A164.8,164.8,0,0,1,1212,91.64V89.91a1.49,1.49,0,0,1,1.19-1.46,168.31,168.31,0,0,0-39.68,10.31,1.42,1.42,0,0,1,.42-.07A1.5,1.5,0,0,1,1175.38,100.19Z"/><path d="M1061.82,181.32v-.84c-1,.63-2,1.25-3,1.83-10.24,5.91-20.85,9.5-32.89,9.5h-.42v1.51a1.5,1.5,0,0,1-1.2,1.47l1.62,0c14.17,0,26.49-4.78,38.16-12.21a1.41,1.41,0,0,1-.76.22A1.5,1.5,0,0,1,1061.82,181.32Z"/><path d="M1212,89.91V191.59a1.49,1.49,0,0,0,1.17,1.46l.18,0h.15a1.5,1.5,0,0,0,1.5-1.5V89.91a1.5,1.5,0,0,0-1.5-1.5,2,2,0,0,0-.24,0h-.07A1.49,1.49,0,0,0,1212,89.91Z"/><path d="M1172.38,100.19v81.12a1.5,1.5,0,0,0,.9,1.38h0a1.47,1.47,0,0,0,.56.11,1.5,1.5,0,0,0,1.5-1.5V100.19a1.5,1.5,0,0,0-1.5-1.5,1.42,1.42,0,0,0-.42.07.9.9,0,0,0-.27.11A1.48,1.48,0,0,0,1172.38,100.19Z"/><path d="M1142.45,115.67v49.58a1.5,1.5,0,0,0,3,0V115.67a1.5,1.5,0,0,0-1.5-1.5,1.62,1.62,0,0,0-.58.12,1.39,1.39,0,0,0-.38.25A1.46,1.46,0,0,0,1142.45,115.67Z"/><path d="M846.65,193.09a1.5,1.5,0,0,0,1.5-1.5V89.91a1.5,1.5,0,1,0-3,0V191.59A1.5,1.5,0,0,0,846.65,193.09Z"/><path d="M884.73,181.31a1,1,0,0,0,0,.17,1.49,1.49,0,0,0,3-.17V100.2a1.5,1.5,0,0,0-1.5-1.5,1.48,1.48,0,0,0-1.48,1.34.78.78,0,0,0,0,.16Z"/><path d="M914.65,165.83a1.5,1.5,0,1,0,3,0V116.26a1.5,1.5,0,0,0-3,0v49.57Z"/><path d="M1064.82,181.32V100.19a1.5,1.5,0,0,0-3,0v81.13a1.5,1.5,0,0,0,1.5,1.5,1.41,1.41,0,0,0,.76-.22.41.41,0,0,0,.11-.07A1.48,1.48,0,0,0,1064.82,181.32Z"/><path d="M991.24,100.19a1.5,1.5,0,0,0-3,0v81.13a1.5,1.5,0,0,0,3,0V100.19Z"/><path d="M1022.5,88.19V193.31a1.51,1.51,0,0,0,1.16,1.46,1.86,1.86,0,0,0,.34,0,1.53,1.53,0,0,0,.3,0,1.5,1.5,0,0,0,1.2-1.47V88.19a1.5,1.5,0,0,0-1.17-1.46,1.66,1.66,0,0,0-.33,0,1.76,1.76,0,0,0-.39.06A1.49,1.49,0,0,0,1022.5,88.19Z"/><path class="cls-6" d="M1371.44,74.13a7.35,7.35,0,0,0-5.21-2.15h-57a7.36,7.36,0,1,0,0,14.71h57a7.36,7.36,0,0,0,5.21-12.56Z"/><path d="M1366.23,69h-57a10.36,10.36,0,1,0,0,20.71h57a10.36,10.36,0,1,0,0-20.71Zm0,17.71h-57a7.36,7.36,0,1,1,0-14.71h57a7.36,7.36,0,1,1,0,14.71Z"/><path class="cls-6" d="M1371.44,144.41a7.35,7.35,0,0,0-5.21-2.15h-57a7.36,7.36,0,1,0,0,14.71h57a7.36,7.36,0,0,0,5.21-12.56Z"/><path d="M1366.23,139.26h-57a10.36,10.36,0,1,0,0,20.71h57a10.36,10.36,0,1,0,0-20.71Zm0,17.71h-57a7.36,7.36,0,1,1,0-14.71h57a7.36,7.36,0,1,1,0,14.71Z"/><path class="cls-3" d="M1371.44,214.69a7.32,7.32,0,0,0-5.21-2.16h-57a7.36,7.36,0,0,0,0,14.72h57a7.36,7.36,0,0,0,5.21-12.56Z"/><path d="M1366.23,209.53h-57a10.36,10.36,0,1,0,0,20.72h57a10.36,10.36,0,0,0,0-20.72Zm0,17.72h-57a7.36,7.36,0,0,1,0-14.72h57a7.36,7.36,0,1,1,0,14.72Z"/><rect class="cls-2" x="1300.4" y="279.09" width="74.69" height="120.89" rx="23.14"/><path class="cls-2" d="M886.14,253.19A65.88,65.88,0,1,0,952,319.07,65.88,65.88,0,0,0,886.14,253.19Zm-35,89.34a16,16,0,1,1,16-16A16,16,0,0,1,851.15,342.53ZM878.31,283a11.92,11.92,0,1,1,11.92,11.92A11.92,11.92,0,0,1,878.31,283Zm21.23,76.68a10.81,10.81,0,1,1,10.81-10.81A10.81,10.81,0,0,1,899.54,359.65Zm40.16-40.58a10.81,10.81,0,1,1-10.8-10.81A10.8,10.8,0,0,1,939.7,319.07Z"/><path class="cls-3" d="M883.92,289.28a8.93,8.93,0,1,0-2.61-6.31A8.91,8.91,0,0,0,883.92,289.28Z"/><path d="M902.15,283a11.92,11.92,0,1,0-11.92,11.92A11.91,11.91,0,0,0,902.15,283Zm-11.92-8.92a8.91,8.91,0,1,1-6.31,2.61A8.87,8.87,0,0,1,890.23,274.05Z"/><path class="cls-6" d="M860.36,317.31a13,13,0,1,0,3.81,9.2A13,13,0,0,0,860.36,317.31Z"/><path d="M851.15,310.5a16,16,0,1,0,16,16A16,16,0,0,0,851.15,310.5Zm0,29a13,13,0,1,1,9.21-3.81A12.94,12.94,0,0,1,851.15,339.53Z"/><path class="cls-3" d="M905.06,343.32a7.8,7.8,0,1,0,2.29,5.52A7.79,7.79,0,0,0,905.06,343.32Z"/><path d="M899.54,338a10.81,10.81,0,1,0,10.81,10.8A10.8,10.8,0,0,0,899.54,338Zm0,18.61a7.82,7.82,0,1,1,5.52-2.29A7.76,7.76,0,0,1,899.54,356.65Z"/><path class="cls-3" d="M934.42,313.55a7.8,7.8,0,1,0,2.29,5.52A7.8,7.8,0,0,0,934.42,313.55Z"/><path d="M918.09,319.07a10.81,10.81,0,1,0,10.81-10.81A10.81,10.81,0,0,0,918.09,319.07Zm10.81,7.81a7.81,7.81,0,1,1,5.52-13.33,7.8,7.8,0,0,1,0,11A7.76,7.76,0,0,1,928.9,326.88Z"/><path class="cls-6" d="M1039.83,311.11l18.91,43.57,46.51-4.45L1115.54,304a1.48,1.48,0,0,1,.23-.51l-40.34-23.81Z"/><path d="M1104.75,352.47l.5-2.24-46.51,4.45-18.91-43.57,35.6-31.44,40.34,23.81a1.54,1.54,0,0,1,1.09-.66l2.57-.24a1.49,1.49,0,0,0-.64-.8L1076,276.53a1.51,1.51,0,0,0-1.75.17L1037,309.58a1.5,1.5,0,0,0-.38,1.73L1056,355.9l.77-.72a1.49,1.49,0,0,1,2.12.07,1.51,1.51,0,0,1-.07,2.12l-.37.35,46.36-4.43A1.52,1.52,0,0,1,1104.75,352.47Z"/><polygon class="cls-3" points="1118.23 305.71 1107.91 352.06 1148.82 376.19 1184.41 344.75 1165.51 301.19 1118.23 305.71"/><path d="M1184.72,345.16a1.5,1.5,0,0,1,1.5-1.5h1l-19-43.78-.65.72a1.5,1.5,0,1,1-2.23-2l.39-.43-46.29,4.42-2.57.24a1.54,1.54,0,0,0-1.09.66,1.48,1.48,0,0,0-.23.51l-10.29,46.24-.5,2.24a1.52,1.52,0,0,0,.06.82,1.49,1.49,0,0,0,.64.8l42.78,25.24a1.49,1.49,0,0,0,1.75-.17l36.8-32.5h-.56A1.5,1.5,0,0,1,1184.72,345.16Zm-19.22-44,18.91,43.57-35.6,31.43-40.9-24.13,10.32-46.35Z"/><path d="M1236.27,343.66h-50a1.5,1.5,0,0,0,0,3h50.22a11,11,0,0,1-.22-2.16A7.89,7.89,0,0,1,1236.27,343.66Z"/><path d="M1165.44,300.71a1.51,1.51,0,0,0,2.12-.11l.65-.72,40.13-44.56a11,11,0,0,1-2.68-1.51l-39.94,44.35-.39.43A1.51,1.51,0,0,0,1165.44,300.71Z"/><path d="M1058.89,355.25a1.49,1.49,0,0,0-2.12-.07l-.77.72-30.48,28.58a11,11,0,0,1,2.06,2.19l30.87-28.95.37-.35A1.51,1.51,0,0,0,1058.89,355.25Z"/><path class="cls-6" d="M1024.27,387.37a7.8,7.8,0,1,0,2.29,5.52A7.8,7.8,0,0,0,1024.27,387.37Z"/><path d="M1025.52,384.48a10.7,10.7,0,0,0-6.77-2.4,10.83,10.83,0,1,0,8.83,4.59A11,11,0,0,0,1025.52,384.48Zm-6.77,16.22a7.81,7.81,0,1,1,5.52-13.33,7.8,7.8,0,0,1,0,11A7.76,7.76,0,0,1,1018.75,400.7Z"/><path class="cls-6" d="M1252.55,339a7.8,7.8,0,1,0,2.29,5.52A7.76,7.76,0,0,0,1252.55,339Z"/><path d="M1247,333.69a10.8,10.8,0,0,0-10.76,10,7.89,7.89,0,0,0,0,.84,11,11,0,0,0,.22,2.16,10.81,10.81,0,1,0,10.59-13Zm0,18.62a7.82,7.82,0,1,1,5.52-2.29A7.76,7.76,0,0,1,1247,352.31Z"/><path class="cls-6" d="M1212.25,253.06a7.8,7.8,0,1,0-5.53-2.29A7.76,7.76,0,0,0,1212.25,253.06Z"/><path d="M1212.25,256.06a10.83,10.83,0,1,0-6.59-2.25,11,11,0,0,0,2.68,1.51A10.79,10.79,0,0,0,1212.25,256.06Zm-5.53-5.29a7.81,7.81,0,1,1,5.53,2.29A7.79,7.79,0,0,1,1206.72,250.77Z"/></g></g></svg>