<svg xmlns="http://www.w3.org/2000/svg" viewBox="0 0 1424.63 1239.7"><defs><style>.cls-1{fill:none;}.cls-2{fill:#d0d5d8;}.cls-3{fill:#eff0f1;}.cls-4{fill:#fff;}.cls-5{fill:#c1bebc;}.cls-6{fill:#61c3da;}</style></defs><g id="Layer_2" data-name="Layer 2"><g id="_8" data-name="8"><path class="cls-1" d="M438.07,892.81c-.93,24-1.9,48.54-2.87,72.75-.6,14.85-1.19,29.55-1.78,43.89,3.26,1.46,6.42,3,9.48,4.74C441.31,975.1,439.62,933.07,438.07,892.81Z"/><path class="cls-1" d="M619.52,1174a121.89,121.89,0,0,1-1.1,16.32c13.48-42.37,58.54-73.52,112.07-73.52a134,134,0,0,1,31.22,3.66c13.54-39.92,56.37-69.1,107.15-69.1,42.28,0,79,20.23,98,50a177.48,177.48,0,0,1,37.72-31.21L952.76,966.48q-3.79.1-7.62.1c-39.07,0-75.3-8-105.11-21.64s-53.22-33-66.56-55.72a93.93,93.93,0,0,1-6.23-12.71H727.36A35.84,35.84,0,0,0,702,887l-137.17,137.3a38.77,38.77,0,0,1-27.49,11.4,39.2,39.2,0,0,1-7.32-.7c-.44,8.73-.83,17.15-1.16,25.21C580.35,1069.65,619.52,1117,619.52,1174Zm64.32-158.24a20.71,20.71,0,1,1-20.69,20.71A20.7,20.7,0,0,1,683.84,1015.78Z"/><ellipse class="cls-1" cx="263.14" cy="919.75" rx="13.72" ry="13.74"/><path class="cls-1" d="M1107.91,788.22l53.23-69.45h-241L864,798.68H1082.6A35.88,35.88,0,0,0,1107.91,788.22Z"/><ellipse class="cls-1" cx="1237.7" cy="1022.75" rx="13.72" ry="13.74"/><path class="cls-1" d="M683.84,1050.22a13.74,13.74,0,1,0-13.72-13.73A13.73,13.73,0,0,0,683.84,1050.22Z"/><path d="M1197.78,9.14,1285.22,3a1.5,1.5,0,0,0-.21-3l-88.19,6.2a1.51,1.51,0,0,0-1.17.69l-57.84,91.3,2.77,1.23Z"/><path d="M1227.48,43.13,1296,38.32a1.5,1.5,0,1,0-.2-3l-69.24,4.87a1.51,1.51,0,0,0-1.16.69l-47.51,75,2.78,1.22Z"/><path class="cls-2" d="M180.84,918.16c-4.68-17.73-8.76-35.45-12.31-52.59a6.87,6.87,0,0,1-2.44-1.92q2.46,12,5.27,24.36,3,13.13,6.44,26.44a36.7,36.7,0,0,1,2.85,4.56C180.71,918.73,180.77,918.45,180.84,918.16Z"/><path class="cls-2" d="M186.51,938.65a6.15,6.15,0,0,1-.85-.31,7.33,7.33,0,0,1-1.62-1c5.63,19.53,12,38.84,19.25,57.17a34.79,34.79,0,0,1,.83-3.39C197.57,974.24,191.72,956.55,186.51,938.65Z"/><path class="cls-2" d="M214.46,1015.74a9,9,0,0,1-2.12.17l.24.53c13.07,28.67,28.51,53.82,46.77,72,.11-.83.23-1.65.36-2.47C242.18,1068.15,227.19,1043.67,214.46,1015.74Z"/><path class="cls-2" d="M160.85,825c-2.88-16.76-5.22-32.32-7.1-46a5.82,5.82,0,0,1-2.11-.69c2.14,15.74,4.91,34,8.41,53.74.94,1.05,1.81,2.11,2.61,3.19Q161.72,830.06,160.85,825Z"/><path class="cls-2" d="M148,729.91c-.24-2.53-.42-4.48-.53-5.8s-.17-2-.17-2a.9.9,0,0,0-.08-.28,7.13,7.13,0,0,1-1.23.09l-.64,0a1.14,1.14,0,0,0,0,.37h0s.74,9.51,2.55,25.55q.67-2,1.56-4.08C148.78,738.11,148.31,733.44,148,729.91Z"/><path class="cls-2" d="M68.33,1166a10.61,10.61,0,0,1-2.82.14c-.35,0-.69-.1-1-.17,19.86,12.46,46.46,25.45,78,32,.24-.63.48-1.26.74-1.89C113.28,1189.89,87.79,1177.85,68.33,1166Z"/><path class="cls-2" d="M56.68,1160a16.37,16.37,0,0,1-1-2.24,247.31,247.31,0,0,1-20.17-15.52c-2.08-1.79-3.81-3.34-5.18-4.61a9.14,9.14,0,0,1-1,1.31c-.08.09-.18.15-.26.24a239,239,0,0,0,26.26,20.76c.6.19,1.19.4,1.76.63C56.92,1160.35,56.79,1160.17,56.68,1160Z"/><path class="cls-3" d="M57,1160.54c-.57-.23-1.16-.44-1.76-.63a26.1,26.1,0,0,0-8-1.13c-10.5.13-18.95,6.2-18.86,13.55s8.68,13.22,19.19,13.1,18.94-6.2,18.86-13.56a10.19,10.19,0,0,0-2.1-5.93A11.47,11.47,0,0,1,57,1160.54Z"/><path class="cls-3" d="M68.33,1166a13.57,13.57,0,0,0,7.07-3.86,21.25,21.25,0,0,0,4-23.16,12.6,12.6,0,0,0-7.94-7.11,11.42,11.42,0,0,0-10.4,2.78,20.32,20.32,0,0,0-6.44,11.93,21,21,0,0,0,1,11.17,16.37,16.37,0,0,0,1,2.24c.11.2.24.38.36.57a11.47,11.47,0,0,0,7.37,5.4h.07c.34.07.68.13,1,.17A10.61,10.61,0,0,0,68.33,1166Z"/><path class="cls-3" d="M30.29,1137.6a13.81,13.81,0,0,0,1.67-9.4,29,29,0,0,0-5.11-12.55,29.1,29.1,0,0,0-10-9.16c-3.67-1.92-7.58-2.67-11-1.21s-5.52,5-5.84,9.71S1.3,1125.58,5,1130.87s8.64,8.81,13.17,10.14,8.34.59,10.88-1.86c.08-.09.18-.15.26-.24A9.14,9.14,0,0,0,30.29,1137.6Z"/><path class="cls-2" d="M171.09,1133.73a6.55,6.55,0,0,1-2.47.29c.07.16.13.31.19.47,8.13,6.32,16.55,12.29,25.21,17.78.79-.29,1.59-.58,2.41-.86C187.73,1146,179.27,1140,171.09,1133.73Z"/><path class="cls-2" d="M157,1122.34a480.18,480.18,0,0,1-45.63-44.65,9.87,9.87,0,0,1-5.26-3.25c.11.23.22.47.31.7a503.26,503.26,0,0,0,39.89,40.5q5.89,5.33,12.06,10.47l.47.18A28.28,28.28,0,0,1,157,1122.34Z"/><path class="cls-2" d="M104.1,1071.45a20.79,20.79,0,0,1-1.56-3.81,597.07,597.07,0,0,1-37.1-47.9c-1.08-1.56-2.1-3.06-3.09-4.51a6.9,6.9,0,0,1-.92.69,5.5,5.5,0,0,1-.77.38c3.21,4.73,6.94,10.06,11.17,15.85,7.91,10.81,17.55,23.2,28.63,36.13A20,20,0,0,1,104.1,1071.45Z"/><path class="cls-3" d="M159.84,1127.9c-.34-.51-.67-1.05-1-1.61l-.47-.18a38.43,38.43,0,0,0-14.76-1.93c-7.31.41-13.78,2.65-18.1,5.7s-6.54,6.85-5.9,10.46,3.93,6.41,8.52,8.2a41.64,41.64,0,0,0,17,2.25,41.5,41.5,0,0,0,16.61-4.14c4.37-2.29,7.32-5.41,7.56-9.09a7.55,7.55,0,0,0-.48-3.07c-.06-.16-.12-.31-.19-.47C165.53,1133.84,162.39,1131.68,159.84,1127.9Z"/><path class="cls-3" d="M159.84,1127.9c2.55,3.78,5.69,5.94,8.78,6.12a6.55,6.55,0,0,0,2.47-.29c3.24-1,5.73-4.08,7.44-8.24a48,48,0,0,0-.43-33.09c-2-4.45-4.8-7.66-8.46-8.22s-7.38,1.76-10.28,6.3-4.84,11.26-4.75,18.77a38.58,38.58,0,0,0,2.41,13.09,28.28,28.28,0,0,0,1.84,4C159.17,1126.85,159.5,1127.39,159.84,1127.9Z"/><path class="cls-3" d="M104.1,1071.45a20,20,0,0,0-3.64-3.17A34.21,34.21,0,0,0,86.21,1063c-12.57-1.88-23.64,2.49-24.73,9.77s8.22,14.7,20.79,16.58,23.65-2.49,24.73-9.77a8.44,8.44,0,0,0-.56-4.39c-.09-.23-.2-.47-.31-.7A15.68,15.68,0,0,1,104.1,1071.45Z"/><path class="cls-3" d="M106.13,1074.44a9.87,9.87,0,0,0,5.26,3.25,6.41,6.41,0,0,0,.76.16c7.3.93,14.42-7.79,15.91-19.47s-3.23-21.9-10.53-22.83-14.43,7.79-15.91,19.47a30.53,30.53,0,0,0,.92,12.62,20.79,20.79,0,0,0,1.56,3.81A15.68,15.68,0,0,0,106.13,1074.44Z"/><path class="cls-3" d="M62.35,1015.23c2.45-2.19,3.31-6.37,3-11.5A64.43,64.43,0,0,0,60,983.83c-3.06-7.19-6.79-13.35-10.66-17.62s-7.9-6.61-11.47-5.65-5.91,5.14-6.5,11.31.64,14.25,4.11,22.4,8.44,14.67,13.29,18.49c4.48,3.55,8.79,4.84,11.89,3.54a5.5,5.5,0,0,0,.77-.38A6.9,6.9,0,0,0,62.35,1015.23Z"/><path class="cls-3" d="M214.46,1015.74a14.83,14.83,0,0,0,7.28-4.45,40.31,40.31,0,0,0,8.17-13.36,43.84,43.84,0,0,0,2.21-7.22c.27-1.1.42-2.26.59-3.31.07-.54.11-1.09.16-1.62s.09-1,.11-1.57c0-1.07,0-2.05,0-3.06a23.38,23.38,0,0,0-.41-2.89,10.32,10.32,0,0,0-2.42-4.93,7.39,7.39,0,0,0-5-2.29,10.3,10.3,0,0,0-3.35.31,15,15,0,0,0-3.7,1.39c-.62.33-1.26.7-1.91,1.12a22.44,22.44,0,0,0-1.86,1.39,27.09,27.09,0,0,0-3.59,3.53,34.38,34.38,0,0,0-5.55,9.41c-.38,1-.71,2-1,2.92a34.79,34.79,0,0,0-.83,3.39c-.18,1-.32,1.91-.41,2.83.65.73,1.28,1.47,1.83,2.19,3.6,4.79,4.82,9.37,3,12.55a5.71,5.71,0,0,1-.87,1.15,8.33,8.33,0,0,0,4.17,2.49,8,8,0,0,0,1.36.2A9,9,0,0,0,214.46,1015.74Z"/><path class="cls-3" d="M207.68,1012.07c1.85-3.18.63-7.76-3-12.55-.55-.72-1.18-1.46-1.83-2.19a53.38,53.38,0,0,0-15.29-11.39c-7.51-3.83-15.06-5.79-21-5.9s-10.42,1.58-11.91,4.94.19,7.75,4,12.16,9.69,8.89,16.84,12.53,14.23,5.81,20,6.3c5,.42,9.11-.43,11.31-2.75A5.71,5.71,0,0,0,207.68,1012.07Z"/><path class="cls-3" d="M186.51,938.65c6.69,2,16-5.51,21.29-17.43,5.49-12.44,4.49-24.93-2.24-27.9s-16.64,4.69-22.14,17.12a42.94,42.94,0,0,0-2.58,7.72c-.07.29-.13.57-.19.85a30.08,30.08,0,0,1,1.45,3.21c1.71,4.58,1.78,8.86-.51,11.75l-.08.09a9.29,9.29,0,0,0,2.53,3.27,7.33,7.33,0,0,0,1.62,1A6.15,6.15,0,0,0,186.51,938.65Z"/><path class="cls-3" d="M182.1,922.22a30.08,30.08,0,0,0-1.45-3.21,36.7,36.7,0,0,0-2.85-4.56,46.59,46.59,0,0,0-5.41-6.21,39.44,39.44,0,0,0-14.34-9.16c-4.65-1.54-8.93-1.44-11.73,1s-3.52,6.68-2.21,11.71,4.67,10.75,9.8,15.69,11,8.1,16.06,9.2,9.24.22,11.54-2.58l.08-.09C183.88,931.08,183.81,926.8,182.1,922.22Z"/><path class="cls-3" d="M168.53,865.57a5.89,5.89,0,0,0,.58.24c3.49,1.19,7.66-.77,11.67-4.72s7.89-9.94,10.87-17,4.53-14,4.55-19.69-1.5-10-4.8-11.64-7.73-.24-12.2,3.53-8.94,9.92-12.12,17.48c-.75,1.79-1.38,3.57-1.93,5.33a30.7,30.7,0,0,1,2.86,6.58c1.71,5.82.82,10.46-2.16,12.56a6.94,6.94,0,0,1-2,1,12.22,12.22,0,0,0,2.23,4.48A6.87,6.87,0,0,0,168.53,865.57Z"/><path class="cls-3" d="M165.85,858.2c3-2.1,3.87-6.74,2.16-12.56a30.7,30.7,0,0,0-2.86-6.58c-.49-.87-1-1.75-1.63-2.63l-.86-1.2c-.8-1.08-1.67-2.14-2.61-3.19a47.23,47.23,0,0,0-4.8-4.66,45.57,45.57,0,0,0-10.39-6.53,33.15,33.15,0,0,0-9.85-2.78c-6-.65-10.44,1-12,4.36s-.2,7.62,2.65,12a49.78,49.78,0,0,0,5.35,6.7,84.2,84.2,0,0,0,15,12.51,49.46,49.46,0,0,0,7.54,4.08c3.85,1.61,7.46,2.31,10.3,1.44A6.94,6.94,0,0,0,165.85,858.2Z"/><path class="cls-3" d="M154,779c3.72.24,7.19-3,10.47-7.62.82-1.16,1.61-2.43,2.45-3.76s1.64-2.76,2.4-4.25c1.63-3,3.21-6.19,4.77-9.63s3-6.71,4.23-9.87c.64-1.55,1.15-3.12,1.68-4.59s.92-2.92,1.27-4.31c1.4-5.5,1.6-10.23-1-12.9a6.83,6.83,0,0,0-5.49-1.79,13.5,13.5,0,0,0-3.82.79,21.88,21.88,0,0,0-4.28,2,30.33,30.33,0,0,0-4.53,3.19,39.92,39.92,0,0,0-4.5,4.37,50.63,50.63,0,0,0-7.76,12c-.17.37-.33.75-.49,1.13q-.89,2-1.56,4.08a49.49,49.49,0,0,0-1.94,8,22.46,22.46,0,0,1,1.61,2.41c2.46,4.37,2.74,8.62.68,11.65a7.85,7.85,0,0,1-1.43,1.56c.14.41.29.81.43,1.19a13.69,13.69,0,0,0,1.88,3.42,8.31,8.31,0,0,0,2.57,2.3,5.82,5.82,0,0,0,2.11.69Z"/><path class="cls-3" d="M148.19,769.83c2.06-3,1.78-7.28-.68-11.65a22.46,22.46,0,0,0-1.61-2.41,32.42,32.42,0,0,0-11.63-9.35c-6.13-3-12.47-4-17.4-3.25s-8.49,3.11-9.62,6.6.21,7.43,3,11.05a38.38,38.38,0,0,0,27.35,13.4c3.69,0,6.94-.89,9.15-2.83A7.85,7.85,0,0,0,148.19,769.83Z"/><path class="cls-3" d="M147.2,721.83c6.79-1.05,12.2-11.19,12.31-23.59.11-13.14-5.76-23.85-13.12-23.92S133,684.86,132.86,698c-.11,12.76,5.42,23.22,12.47,23.88l.64,0A7.13,7.13,0,0,0,147.2,721.83Z"/><path class="cls-4" d="M801.48,385.59c13-1.28,27.31-2.53,37.82-4.9a34.78,34.78,0,0,0,17.29-9.1c4-4.09,6.14-8.89,6.14-13.54a16,16,0,0,0-4.26-10.69,9.1,9.1,0,0,0-4-2.54,16.91,16.91,0,0,0-5.43-.79c-4.94,0-10.81,1.51-16,3.33s-9.65,3.88-12,4.93c-.67.3-1.15.52-1.53.65l-.36.11a3.48,3.48,0,0,1-.35,0,3,3,0,0,1-.34,0,1.5,1.5,0,0,1-1-.72,1.5,1.5,0,0,1,0-1.44,2.76,2.76,0,0,1,.17-.27,1.92,1.92,0,0,1,.22-.24,3.27,3.27,0,0,1,.35-.3c.25-.19.58-.42,1-.73,2.39-1.66,3.19-3.56,3.2-5.12a3.8,3.8,0,0,0-1-2.6,3.1,3.1,0,0,0-2.37-1c-1.2,0-2.85.59-4.74,2.48a27.68,27.68,0,0,1-4.68,3.54c-1.93,1.23-4.22,2.5-6.72,3.8-5,2.59-10.86,5.26-16.47,7.67-4,1.71-7.84,3.3-11.16,4.63.63,1.15,1.22,2.33,1.76,3.52a73.15,73.15,0,0,1,4.61,14.11c.6,2.69,1,5.22,1.36,7.45l.57-.1C788.85,386.89,795,386.24,801.48,385.59Z"/><path d="M775.36,362.73c3.32-1.33,7.17-2.92,11.16-4.63,5.61-2.41,11.47-5.08,16.47-7.67,2.5-1.3,4.79-2.57,6.72-3.8a27.68,27.68,0,0,0,4.68-3.54c1.89-1.89,3.54-2.49,4.74-2.48a3.1,3.1,0,0,1,2.37,1,3.8,3.8,0,0,1,1,2.6c0,1.56-.81,3.46-3.2,5.12-.45.31-.78.54-1,.73a3.27,3.27,0,0,0-.35.3,1.92,1.92,0,0,0-.22.24,2.76,2.76,0,0,0-.17.27,1.5,1.5,0,0,0,0,1.44,1.5,1.5,0,0,0,1,.72,3,3,0,0,0,.34,0,3.48,3.48,0,0,0,.35,0l.36-.11c.38-.13.86-.35,1.53-.65,2.34-1.05,6.81-3.12,12-4.93s11-3.34,16-3.33a16.91,16.91,0,0,1,5.43.79,9.1,9.1,0,0,1,4,2.54,16,16,0,0,1,4.26,10.69c0,4.65-2.13,9.45-6.14,13.54a34.78,34.78,0,0,1-17.29,9.1c-10.51,2.37-24.86,3.62-37.82,4.9-6.49.65-12.63,1.3-17.82,2.12l-.57.1c.15,1.06.28,2.06.39,3,2.08-.34,4.35-.66,6.75-.95,7.55-.94,16.44-1.69,25.21-2.61A221.89,221.89,0,0,0,840,383.61a37.75,37.75,0,0,0,18.77-9.92c4.46-4.54,7-10.06,7-15.64a18.93,18.93,0,0,0-5-12.68,12.14,12.14,0,0,0-5.23-3.39,19.72,19.72,0,0,0-6.4-1c-6.63,0-14.08,2.34-20.05,4.63-1.53.59-3,1.18-4.26,1.73a7.88,7.88,0,0,0,.69-3.16,6.84,6.84,0,0,0-1.75-4.63,6.14,6.14,0,0,0-4.58-2c-2.22,0-4.6,1.08-6.86,3.36a25.61,25.61,0,0,1-4.16,3.13,123.46,123.46,0,0,1-12.33,6.55c-7.12,3.37-15,6.69-21.2,9.16l-.78.31Q774.63,361.4,775.36,362.73Z"/><path class="cls-3" d="M868.86,1051.38c-50.78,0-93.61,29.18-107.15,69.1a134,134,0,0,0-31.22-3.66c-53.53,0-98.59,31.15-112.07,73.52q-.46,3.5-1.12,6.92c15.48,12.11,25.16,25.41,27.74,39.44H776.55a115.33,115.33,0,0,1,163.18-96.25,177.2,177.2,0,0,1,27.13-39C947.91,1071.61,911.14,1051.38,868.86,1051.38Z"/><path class="cls-5" d="M776.55,1236.7H882.86a27,27,0,0,1-14.61-24v0a27,27,0,0,1,27-27h28.7a176,176,0,0,1,15.81-45.28,115.33,115.33,0,0,0-163.18,96.25Z"/><path class="cls-3" d="M468.55,1213.52c0-9.06.55-18.9,1.1-26.45-2-.21-4-.47-5.81-.8-5.33-1-9.92-2.4-13.29-4.55a1.55,1.55,0,0,1-.69-1.2s-3.24-75.22-7-166.33c-3.06-1.69-6.22-3.28-9.48-4.74-3.8,93.22-7.15,171.07-7.15,171.07a1.53,1.53,0,0,1-.58,1.12,23.61,23.61,0,0,1-8.61,4c1.91,4.39,4.46,10.13,7.63,17A50,50,0,0,1,429,1223.4a61.07,61.07,0,0,1-1.46,13.3h43.87a20.88,20.88,0,0,1-1.69-5.63A106.32,106.32,0,0,1,468.55,1213.52Z"/><path class="cls-3" d="M357.72,1233c0-4,1-9.63,2.45-15.88s3.4-13.1,5.33-19.47,3.8-12.05,5.24-16.33a93,93,0,0,1-13.75-5.42,1.51,1.51,0,0,1-.83-1.33s0-.62,0-1.83,0-3-.07-5.37c-.08-4.71-.22-11.64-.48-20.49-.51-17.71-1.47-43.13-3.26-74-1.25-21.49-2.91-45.63-5.11-71.62-46,10.45-81,43.7-87.51,84.7-.13.82-.25,1.64-.36,2.47a88.31,88.31,0,0,0,7.75,49.19c-30.16,3-53.1,7.69-70.67,13.78-.82.28-1.62.57-2.41.86-29.9,10.88-43.57,26-50.81,43.76-.26.63-.5,1.26-.74,1.89-4.51,11.93-6.34,25-8.36,38.78H358.16A13,13,0,0,1,357.72,1233Z"/><path class="cls-3" d="M617.3,1197.26q.66-3.42,1.12-6.92a121.89,121.89,0,0,0,1.1-16.32c0-57-39.17-104.37-90.67-113.78-1.43,35.21-1.8,63.81-1.8,83.88,0,15.86.23,26.39.34,30.66,0,1.43.07,2.15.07,2.15a1.54,1.54,0,0,1-.57,1.23,28.13,28.13,0,0,1-7.81,4,68,68,0,0,1-7.22,2.12,36.12,36.12,0,0,0,1,3.68,32.84,32.84,0,0,0,8.65,13.8l1.39,0a74.36,74.36,0,0,1,29.27,5.58,62.06,62.06,0,0,1,18.76,12.32,57.76,57.76,0,0,1,12.47,17.06H645C642.46,1222.67,632.78,1209.37,617.3,1197.26Z"/><path d="M426,1223.4a47,47,0,0,0-4-19.51c-3.31-7.21-6-13.18-7.9-17.66a55.89,55.89,0,0,1-9.65.78,110.66,110.66,0,0,1-25.58-3.42c-1.78-.44-3.53-.91-5.23-1.41-.71,2.11-1.54,4.59-2.42,7.32-2.71,8.38-5.95,19.08-8.11,28.29-1.44,6.14-2.38,11.64-2.37,15.2a13.24,13.24,0,0,0,.15,2.17,4.25,4.25,0,0,0,.38,1.24.92.92,0,0,0,.19.25c.05,0,0,0,.18,0h62.8c.17-.69.4-1.7.62-3A59.23,59.23,0,0,0,426,1223.4Z"/><path d="M424.71,1202.64c-3.17-6.91-5.72-12.65-7.63-17l-.76.19c-.73.17-1.48.31-2.24.44,1.95,4.48,4.59,10.45,7.9,17.66a47,47,0,0,1,4,19.51,59.23,59.23,0,0,1-.92,10.34c-.22,1.26-.45,2.27-.62,3h3.08a61.07,61.07,0,0,0,1.46-13.3A50,50,0,0,0,424.71,1202.64Z"/><path d="M361.25,1236.4a4.25,4.25,0,0,1-.38-1.24,13.24,13.24,0,0,1-.15-2.17c0-3.56.93-9.06,2.37-15.2,2.16-9.21,5.4-19.91,8.11-28.29.88-2.73,1.71-5.21,2.42-7.32-1-.28-1.93-.57-2.88-.87-1.44,4.28-3.34,10.07-5.24,16.33s-3.87,13.23-5.33,19.47-2.45,11.85-2.45,15.88a13,13,0,0,0,.44,3.71h3.46c-.14,0-.13,0-.18,0A.92.92,0,0,1,361.25,1236.4Z"/><path d="M574.52,1228.06a58.84,58.84,0,0,0-23.52-18,71.17,71.17,0,0,0-28.1-5.35l-2,0a1.48,1.48,0,0,1-1-.39,35.67,35.67,0,0,1-9.89-15.48,39.06,39.06,0,0,1-1.08-4c-.28.06-.55.13-.83.18a140.54,140.54,0,0,1-26.65,2.54c-3,0-6-.11-8.81-.31v.09c-.54,7.48-1.08,17.2-1.08,26.09,0,3.76.1,7.38.33,10.6a53.1,53.1,0,0,0,1.13,8.24,12.7,12.7,0,0,0,1.2,3.31,2.87,2.87,0,0,0,.66.83.73.73,0,0,0,.48.2H580.07c-.16-.31-.33-.65-.53-1A55,55,0,0,0,574.52,1228.06Z"/><path d="M570.93,1219.64a62.06,62.06,0,0,0-18.76-12.32,74.36,74.36,0,0,0-29.27-5.58l-1.39,0a32.84,32.84,0,0,1-8.65-13.8,36.12,36.12,0,0,1-1-3.68c-1,.23-1.93.45-2.93.65a39.06,39.06,0,0,0,1.08,4,35.67,35.67,0,0,0,9.89,15.48,1.48,1.48,0,0,0,1,.39l2,0a71.17,71.17,0,0,1,28.1,5.35,58.84,58.84,0,0,1,23.52,18,55,55,0,0,1,5,7.62c.2.37.37.71.53,1h3.33A57.76,57.76,0,0,0,570.93,1219.64Z"/><path d="M474.21,1235.67a12.7,12.7,0,0,1-1.2-3.31,53.1,53.1,0,0,1-1.13-8.24c-.23-3.22-.33-6.84-.33-10.6,0-8.89.54-18.61,1.08-26.09v-.09c-1-.08-2-.17-3-.27-.55,7.55-1.1,17.39-1.1,26.45a106.32,106.32,0,0,0,1.13,17.55,20.88,20.88,0,0,0,1.69,5.63h4a.73.73,0,0,1-.48-.2A2.87,2.87,0,0,1,474.21,1235.67Z"/><path d="M462.86,242.42a18.19,18.19,0,0,0,7.73-3.6,8.17,8.17,0,0,0,2.5-3.7,65.72,65.72,0,0,0,2.82-16l-.25.2a54.65,54.65,0,0,1-13.32,15.58v7.66Z"/><path d="M410.14,224.4a25.22,25.22,0,0,0,2.19,5.69,13.8,13.8,0,0,0,3.5,4.31,20.81,20.81,0,0,0,2.35,1.57l-.12-2.8A53.06,53.06,0,0,1,410.14,224.4Z"/><path d="M475.91,219.08a65.72,65.72,0,0,1-2.82,16,8.17,8.17,0,0,1-2.5,3.7,18.19,18.19,0,0,1-7.73,3.6l-.52.1v3.08a31.64,31.64,0,0,0,4.63-1.3,17.93,17.93,0,0,0,5.61-3.23,11.18,11.18,0,0,0,3.36-5A69.91,69.91,0,0,0,479,216.32C477.86,217.44,476.81,218.36,475.91,219.08Z"/><path d="M418.18,236a20.81,20.81,0,0,1-2.35-1.57,13.8,13.8,0,0,1-3.5-4.31,25.22,25.22,0,0,1-2.19-5.69l-.57-.77A65.62,65.62,0,0,1,406,217.8a48.69,48.69,0,0,0,1.21,7.08,29.07,29.07,0,0,0,2.53,6.65,16.86,16.86,0,0,0,4.28,5.22,26.28,26.28,0,0,0,4.36,2.7Z"/><path class="cls-4" d="M552.38,771.15a173.21,173.21,0,0,1-77.54,39,1.53,1.53,0,0,1-1.3-.32c-2.16-1.86-3.87-4.89-5.45-9a99,99,0,0,1-4.19-15.49c-2.49-12.37-4.4-28.72-5.86-48-2.92-38.57-4-88.88-4-142.24,0-24.82.23-50.3.62-75.57-3.9.41-7.93.73-12,1V703a1.5,1.5,0,0,1,1.5,1.5c0,15.42-1.12,52.84-2.79,100.35-.54,15.28-1.14,31.61-1.77,48.58,1.21,32.45,2.57,67.24,3.94,101.6,4.32,108.21,8.78,212,9.3,224.21,0,.14,0,.26,0,.38a36.35,36.35,0,0,0,11.53,3.74,100.4,100.4,0,0,0,17.09,1.33,141.81,141.81,0,0,0,19.91-1.43,87.25,87.25,0,0,0,16.7-3.88,27.62,27.62,0,0,0,6.37-3.09c-.09-3-.38-14.11-.38-32.13,0-24.8.56-62.59,3-109.79a38.91,38.91,0,0,1-17.21-65l23.38-23.4c2.88-32.86,6.64-68.19,11.54-105.32Q549.64,803.62,552.38,771.15Z"/><path d="M552.38,771.15q-2.79,32.51-7.62,69.43c-4.9,37.13-8.66,72.46-11.54,105.32l3.3-3.31c2.84-31.8,6.5-65.88,11.22-101.61q5.12-38.85,7.89-72.74C554.57,769.21,553.48,770.19,552.38,771.15Z"/><path d="M524.05,1144.12c0,18,.29,29.18.38,32.13a27.62,27.62,0,0,1-6.37,3.09,87.25,87.25,0,0,1-16.7,3.88,141.81,141.81,0,0,1-19.91,1.43,100.4,100.4,0,0,1-17.09-1.33,36.35,36.35,0,0,1-11.53-3.74c0-.12,0-.24,0-.38-.52-12.19-5-116-9.3-224.21-1.37-34.36-2.73-69.15-3.94-101.6-.48,12.83-1,26-1.5,39.42,1.55,40.26,3.24,82.29,4.83,121.38,3.72,91.11,7,166.33,7,166.33a1.55,1.55,0,0,0,.69,1.2c3.37,2.15,8,3.6,13.29,4.55,1.85.33,3.8.59,5.81.8,1,.1,2,.19,3,.27,2.85.2,5.81.31,8.81.31a140.54,140.54,0,0,0,26.65-2.54c.28,0,.55-.12.83-.18,1-.2,2-.42,2.93-.65a68,68,0,0,0,7.22-2.12,28.13,28.13,0,0,0,7.81-4,1.54,1.54,0,0,0,.57-1.23s0-.72-.07-2.15c-.11-4.27-.34-14.8-.34-30.66,0-20.07.37-48.67,1.8-83.88.33-8.06.72-16.48,1.16-25.21-1-.19-2-.43-3-.7C524.61,1081.53,524.05,1119.32,524.05,1144.12Z"/><path class="cls-4" d="M420.13,521.1h-3.08q-.14,6.21-.3,12.43c-2.14,85.84-6,171.63-13,223.55-2,14.85-4.25,26.92-6.82,35.52a44.28,44.28,0,0,1-4.47,10.75,1.51,1.51,0,0,1-1.72.62,232.64,232.64,0,0,1-68.59-35.45c2.26,22.43,5.29,46.41,9.25,72,25.64,166.15,27.65,319.76,27.78,333a106.43,106.43,0,0,0,20.41,7.07,107.81,107.81,0,0,0,24.87,3.34,49.53,49.53,0,0,0,11.2-1.14,22,22,0,0,0,7.67-3.21c.06-1.36.2-4.64.41-9.57.29-6.65.7-16.32,1.21-28.36,1-24.09,2.43-57.69,4-95.74,3.14-76.11,6.91-170,9.42-241.28,1.67-47.5,2.79-84.94,2.79-100.25a1.5,1.5,0,0,1,1.5-1.5V520.49C435.31,520.91,427.73,521.1,420.13,521.1Z"/><path d="M355.59,1146.87c.26,8.85.4,15.78.48,20.49,0,2.35.06,4.15.07,5.37s0,1.83,0,1.83a1.51,1.51,0,0,0,.83,1.33,93,93,0,0,0,13.75,5.42c.95.3,1.9.59,2.88.87,1.7.5,3.45,1,5.23,1.41a110.66,110.66,0,0,0,25.58,3.42,55.89,55.89,0,0,0,9.65-.78c.76-.13,1.51-.27,2.24-.44l.76-.19a23.61,23.61,0,0,0,8.61-4,1.53,1.53,0,0,0,.58-1.12s3.35-77.85,7.15-171.07c.59-14.34,1.18-29,1.78-43.89,1-24.21,1.94-48.79,2.87-72.75.51-13.39,1-26.59,1.5-39.42.63-17,1.23-33.3,1.77-48.58,1.67-47.51,2.79-84.93,2.79-100.35a1.5,1.5,0,0,0-3,0c0,15.31-1.12,52.75-2.79,100.25-2.51,71.25-6.28,165.17-9.42,241.28-1.57,38-3,71.65-4,95.74-.51,12-.92,21.71-1.21,28.36-.21,4.93-.35,8.21-.41,9.57a22,22,0,0,1-7.67,3.21,49.53,49.53,0,0,1-11.2,1.14,107.81,107.81,0,0,1-24.87-3.34,106.43,106.43,0,0,1-20.41-7.07c-.13-13.29-2.14-166.9-27.78-333-4-25.63-7-49.61-9.25-72-1.11-.83-2.19-1.66-3.25-2.48,2.28,23.28,5.4,48.23,9.53,75,8.73,56.55,14.71,111.65,18.82,160.26,2.2,26,3.86,50.13,5.11,71.62C354.12,1103.74,355.08,1129.16,355.59,1146.87Z"/><path class="cls-6" d="M452,366.75c0-.24,0-.49,0-.74,0-6.62.59-16.46,1.47-27.53s2.07-23.35,3.25-34.83c.24-2.31.48-4.6.71-6.83l-15.41,10.41a1.49,1.49,0,0,1-1.8-.09l-14.79-12.4c1.3,12.49,2.65,26.25,3.63,38.52.88,11.07,1.48,20.9,1.48,27.52v.75c0,.6-.07,1.65-.17,3.17s-.25,3.51-.43,5.88c-.37,4.75-.9,11.07-1.52,18.42-1.26,14.7-2.93,33.52-4.6,52.07l-.18,2c10.46.54,20.34.85,28.38,1v-36C452.06,386.58,452.06,369.51,452,366.75Z"/><path class="cls-6" d="M454.72,516.48l.06-3.78a1.46,1.46,0,0,1-1.46.68,1.5,1.5,0,0,1-1.28-1.49s0-8.86,0-22.2a227.81,227.81,0,0,1-33.68,11.9c-.7,7.61-1.14,12.31-1.16,12.6l-.09,3.9h3A329.55,329.55,0,0,0,454.72,516.48Z"/><path d="M442.63,520.49c4.11-.25,8.14-.57,12-1,0-1,0-2,.05-3a329.55,329.55,0,0,1-34.59,1.62h-3c0,1,0,2-.07,3h3.08C427.73,521.1,435.31,520.91,442.63,520.49Z"/><path class="cls-4" d="M457.89,292.92c1.23-11.51,2.35-21.31,3-26.89l-.91-.64a1.5,1.5,0,0,1-.64-1.23V237a37.11,37.11,0,0,1-7.17,3.62,31.45,31.45,0,0,1-10.94,2,33.16,33.16,0,0,1-17.55-5.24c-.85-.53-1.68-1.11-2.51-1.71l1,24.17a1.47,1.47,0,0,1-.47,1.14c.7,6.06,1.95,16.92,3.28,29.48l16.3,13.67Z"/><path d="M420.49,254.77a1.47,1.47,0,0,1,.64,1s.23,1.88.61,5.14a1.47,1.47,0,0,0,.47-1.14l-1-24.17c-1.06-.78-2.1-1.6-3.11-2.48l.12,2.8.15,3.48.65,15.17.3-.07A1.45,1.45,0,0,1,420.49,254.77Z"/><path d="M462.34,242.52v-7.66q-1.47,1.14-3,2.13v27.17a1.5,1.5,0,0,0,.64,1.23l.91.64c.37-3.16.59-5,.59-5a1.51,1.51,0,0,1,.64-1.06,1.55,1.55,0,0,1,.22-.12V242.52Z"/><path d="M442.06,307.23l15.41-10.41q.21-2,.42-3.9l-16.57,11.19L425,290.44c.15,1.41.3,2.85.45,4.3l14.79,12.4A1.49,1.49,0,0,0,442.06,307.23Z"/><path class="cls-4" d="M458,502.54c-.56,30.77-.91,62.15-.91,92.54,0,70,1.86,134.7,7.26,174.3,1.79,13.19,4,23.6,6.58,30.37A22.22,22.22,0,0,0,475,807a170.49,170.49,0,0,0,82.42-44.56c19.36-18.87,30.75-38.82,35.24-50.77a34.87,34.87,0,0,0,2.17-7.94,21.15,21.15,0,0,0,.07-2.32c0-5.41-.64-18-1.84-35.45s-3-39.71-5.19-64.59c-4.25-47.44-10.22-104.33-17.3-155.09a75.2,75.2,0,0,1-8.22-15,1.49,1.49,0,0,1,.81-1.89l-66-153-15.26,48.65c.61,1.73,2.87,8.22,5.47,15.94,3,9,6.55,19.7,8.42,26.35.54,1.91.94,3.48,1.17,4.64a9.53,9.53,0,0,1,.2,1.6,3.29,3.29,0,0,1-.08.66v0c-.06.2-.26.88-.61,2s-.83,2.74-1.43,4.72c-1.2,4-2.88,9.48-4.87,16-4,13.07-9.2,30.24-14.4,47.32-.33,1.06-.65,2.13-1,3.2a4.5,4.5,0,0,1,.16.44l3.59-.2c6.13-.36,14.08-.93,21.32-1.8a113.77,113.77,0,0,0,12.75-2.11,22.93,22.93,0,0,0,4.55-1.52,11.15,11.15,0,0,1,4.87-1.29,6.31,6.31,0,0,1,4.59,1.83,6,6,0,0,1,1.67,4.21,7.06,7.06,0,0,1-1.67,4.5l0,.05c2.36-.18,5.16-.34,8.12-.34a58.49,58.49,0,0,1,10.63.86,23.44,23.44,0,0,1,9.28,3.57,11.55,11.55,0,0,1,4,4.82,18.69,18.69,0,0,1,1.55,7.33A17,17,0,0,1,558,476a20.53,20.53,0,0,1-5.67,6.53c-4.8,3.68-11.47,5.89-19.17,5.89a41.32,41.32,0,0,1-4.25-.22,217.29,217.29,0,0,1-24.14-4.4c-8.47-1.92-16.94-4-23.95-5.31-2.78-.53-5.32-.94-7.54-1.19-.08.4-.17.79-.26,1.19a1.47,1.47,0,0,1-.72,1q-4.29,2.44-8.74,4.72C461.34,491.45,459.42,497.75,458,502.54Z"/><path d="M570.53,446.3c7.08,50.76,13.05,107.65,17.3,155.09,2.23,24.88,4,47.16,5.19,64.59s1.85,30,1.84,35.45a21.15,21.15,0,0,1-.07,2.32,34.87,34.87,0,0,1-2.17,7.94c-4.49,11.95-15.88,31.9-35.24,50.77A170.49,170.49,0,0,1,475,807a22.22,22.22,0,0,1-4.07-7.27c-2.59-6.77-4.79-17.18-6.58-30.37-5.4-39.6-7.26-104.32-7.26-174.3,0-30.39.35-61.77.91-92.54l-3,9.79a1.18,1.18,0,0,1-.19.37l-.06,3.78c0,1,0,2-.05,3-.39,25.27-.62,50.75-.62,75.57,0,53.36,1.07,103.67,4,142.24,1.46,19.29,3.37,35.64,5.86,48a99,99,0,0,0,4.19,15.49c1.58,4.09,3.29,7.12,5.45,9a1.53,1.53,0,0,0,1.3.32,173.21,173.21,0,0,0,77.54-39c1.1-1,2.19-1.94,3.25-2.91,4.28-3.93,8.21-7.92,11.79-11.9a163.19,163.19,0,0,0,22.28-31.23,101.3,101.3,0,0,0,5.72-12.37,37.73,37.73,0,0,0,2.36-8.68c.06-.63.08-1.48.08-2.63,0-4.27-.37-12.58-1.08-24-2.49-40.06-9.08-118.35-18.16-192.34-1.4-11.41-2.86-22.72-4.37-33.77C572.88,449.58,571.64,447.91,570.53,446.3Z"/><path class="cls-4" d="M385.76,369.7c-.08-.35-.14-.6-.15-.63h0a2.13,2.13,0,0,1-.09-.69,8.6,8.6,0,0,1,.2-1.6c.12-.62.29-1.36.5-2.2.43-1.68,1-3.79,1.76-6.19,1.44-4.79,3.36-10.71,5.28-16.49,3.37-10.16,6.74-19.85,7.51-22L385.46,271l-46.18,110.3a1.5,1.5,0,0,1,.91,1.54s0,0,0,.14,0,.26,0,.46c0,.41-.08,1-.13,1.78-.09,1.53-.18,3.73-.18,6.36a97.38,97.38,0,0,0,1.74,18.91c1.37,6.85,3.79,13.67,7.8,18.75a10.08,10.08,0,0,0,2.79,2.32,29.42,29.42,0,0,0,4.71,2.23,88,88,0,0,0,13.92,3.75A293.22,293.22,0,0,0,400,441.4c-3.09-15.78-6.19-31.55-8.72-44.33C388.45,383,386.36,372.5,385.76,369.7Z"/><polygon class="cls-4" points="385.62 369.07 385.62 369.07 385.62 369.07 385.62 369.07"/><path class="cls-4" d="M371.05,508.17c-18.12,0-35.1-3.28-49.31-10.64a70.57,70.57,0,0,1-17.2-12.38q-1.55,13.61-2.94,27.32c-9.84,95.95-15,191.92-16.05,213.16-.1,1.86-.16,3.13-.19,3.79l.09.13c.28.36.71.91,1.28,1.61,1.13,1.39,2.83,3.43,5.1,5.94a218,218,0,0,0,20.27,19.59,231.86,231.86,0,0,0,78.39,44,46.6,46.6,0,0,0,3.54-9,164.44,164.44,0,0,0,3.77-16.3c2.38-12.77,4.46-29.16,6.27-48.16,3.63-38,6.2-86.53,8-137.81.87-24.72,1.57-50.09,2.13-75.24-.16-.79-.94-4.81-2.16-11.05A181.5,181.5,0,0,1,371.05,508.17Z"/><path d="M322.12,768.51A232.64,232.64,0,0,0,390.71,804a1.51,1.51,0,0,0,1.72-.62,44.28,44.28,0,0,0,4.47-10.75c2.57-8.6,4.82-20.67,6.82-35.52,7-51.92,10.89-137.71,13-223.55q.17-6.21.3-12.43c0-1,.05-2,.07-3l.09-3.9v0a1.5,1.5,0,0,1-3,.15l0-.16c-.56,25.15-1.26,50.52-2.13,75.24-1.81,51.28-4.38,99.79-8,137.81-1.81,19-3.89,35.39-6.27,48.16a164.44,164.44,0,0,1-3.77,16.3,46.6,46.6,0,0,1-3.54,9,231.86,231.86,0,0,1-78.39-44,218,218,0,0,1-20.27-19.59c-2.27-2.51-4-4.55-5.1-5.94-.57-.7-1-1.25-1.28-1.61l-.09-.13c0-.66.09-1.93.19-3.79,1.07-21.24,6.21-117.21,16.05-213.16q1.39-13.7,2.94-27.32-1.4-1.36-2.7-2.82c-3.93,34.5-7.22,70-9.93,103-6.53,79.66-9.57,144.51-9.58,144.52a1.56,1.56,0,0,0,.29,1c.06.07,9.38,12.73,27.53,28.19,2.7,2.3,5.62,4.67,8.72,7.06C319.93,766.85,321,767.68,322.12,768.51Z"/><path d="M882.86,1236.7H21.37a1.5,1.5,0,1,0,0,3H895.22A26.87,26.87,0,0,1,882.86,1236.7Z"/><path class="cls-4" d="M470.72,219.71,473,201.38a1.47,1.47,0,0,1,.49-.93h0l0,0,.17-.15.63-.62c.55-.54,1.3-1.34,2.14-2.32a32,32,0,0,0,5-7.73,17.74,17.74,0,0,0,1.13-3.61c.09-1.45.14-2.9.14-4.36a4.92,4.92,0,0,0-.43-1.5c-.16-.29-.24-.32-.26-.33a.34.34,0,0,0-.15,0,3,3,0,0,0-1.09.32,16.08,16.08,0,0,0-1.77,1,48.37,48.37,0,0,1-4.35,2.71,7.44,7.44,0,0,1-3.34.94,4.14,4.14,0,0,1-2.25-.62,5.2,5.2,0,0,1-1.76-1.87,10.14,10.14,0,0,0-4.61-3.78,36.9,36.9,0,0,0-9.12-2.64c-7.52-1.35-17.8-1.85-30.43-1.85a39.23,39.23,0,0,1-15.94-3,28.9,28.9,0,0,1-6.1-3.61,69.52,69.52,0,0,0-1.46,14.16,73.48,73.48,0,0,0,7.2,31.65c4.54,9.37,11,17.07,18.38,21.67a30.16,30.16,0,0,0,16,4.79,28.31,28.31,0,0,0,9.9-1.81c7.65-2.82,14.57-8.86,20-16.89A1.51,1.51,0,0,1,470.72,219.71Z"/><path d="M409.57,223.63l.57.77a53.06,53.06,0,0,0,7.92,8.77c1,.88,2.05,1.7,3.11,2.48.83.6,1.66,1.18,2.51,1.71a33.16,33.16,0,0,0,17.55,5.24,31.45,31.45,0,0,0,10.94-2,37.11,37.11,0,0,0,7.17-3.62q1.53-1,3-2.13a54.65,54.65,0,0,0,13.32-15.58,25.47,25.47,0,0,1-2.69,1.91,1.52,1.52,0,0,1-1.59,0,2.18,2.18,0,0,1-.28-.25c-5.4,8-12.32,14.07-20,16.89a28.31,28.31,0,0,1-9.9,1.81,30.16,30.16,0,0,1-16-4.79c-7.42-4.6-13.84-12.3-18.38-21.67a73.48,73.48,0,0,1-7.2-31.65,69.52,69.52,0,0,1,1.46-14.16,26,26,0,0,1-2.57-2.24,71.24,71.24,0,0,0-1.89,16.4A75.91,75.91,0,0,0,406,217.8,65.62,65.62,0,0,0,409.57,223.63Z"/><path d="M482.9,183.4a10.39,10.39,0,0,0-.13-1.68h0a.43.43,0,0,0,0-.11c0,1.46-.05,2.91-.14,4.36A13.32,13.32,0,0,0,482.9,183.4Z"/><path d="M473.08,135.15a1.49,1.49,0,0,1-1.18-.2l-17.17-11.19a1.48,1.48,0,0,1-.68-1.21,1.42,1.42,0,0,1,.06-.42c-4.07-1.14-8.45-2.12-13.16-3a36.37,36.37,0,0,0-6.56-.62,31.94,31.94,0,0,0-17.69,5.35,47.73,47.73,0,0,0-12.26,12,73.45,73.45,0,0,0-9.48,18c.08.26.21.65.4,1.13a23.42,23.42,0,0,0,2,3.92,24.88,24.88,0,0,0,11.05,9.27A36.24,36.24,0,0,0,423.19,171a239,239,0,0,1,24.6,1c6.83.73,12.25,1.89,16.23,3.77a13.05,13.05,0,0,1,5.92,5,2.22,2.22,0,0,0,.73.83,1.19,1.19,0,0,0,.69.18,3.62,3.62,0,0,0,1.4-.34,14.86,14.86,0,0,0,1.89-1c1.35-.83,2.77-1.89,4.19-2.68a6.67,6.67,0,0,1,3.07-1,3.3,3.3,0,0,1,1.44.32,3.44,3.44,0,0,1,1.2,1,6.89,6.89,0,0,1,1.19,3.21h0a13.89,13.89,0,0,1,.16,2.13,18.73,18.73,0,0,1-1.67,7.37,32.19,32.19,0,0,1-3.56,6.1,42.55,42.55,0,0,1-4.74,5.42l-1.8,14.37.37-.3a44.44,44.44,0,0,0,6.93-7.35c5.07-6.73,10.18-17.21,10.31-32.44v-1c0-11.07-1.41-19.87-4.13-26.9a37.6,37.6,0,0,0-12-16.51l-.2-.14L474,134.42A1.49,1.49,0,0,1,473.08,135.15Z"/><path d="M401.15,167.33a28.9,28.9,0,0,0,6.1,3.61,39.23,39.23,0,0,0,15.94,3c12.63,0,22.91.5,30.43,1.85a36.9,36.9,0,0,1,9.12,2.64,10.14,10.14,0,0,1,4.61,3.78,5.2,5.2,0,0,0,1.76,1.87,4.14,4.14,0,0,0,2.25.62,7.44,7.44,0,0,0,3.34-.94,48.37,48.37,0,0,0,4.35-2.71,16.08,16.08,0,0,1,1.77-1,3,3,0,0,1,1.09-.32.34.34,0,0,1,.15,0s.1,0,.26.33a4.92,4.92,0,0,1,.43,1.5.43.43,0,0,1,0,.11h0a10.39,10.39,0,0,1,.13,1.68,13.32,13.32,0,0,1-.29,2.57,17.74,17.74,0,0,1-1.13,3.61,32,32,0,0,1-5,7.73c-.84,1-1.59,1.78-2.14,2.32l-.63.62-.17.15,0,0h0a1.47,1.47,0,0,0-.49.93l-2.31,18.33a1.51,1.51,0,0,0,.38,1.19,2.18,2.18,0,0,0,.28.25,1.52,1.52,0,0,0,1.59,0,25.47,25.47,0,0,0,2.69-1.91l.25-.2c.9-.72,1.95-1.64,3.1-2.76a50.18,50.18,0,0,0,4.82-5.5c5.39-7.15,10.79-18.32,10.91-34.23v-1.05c0-10.07-1.14-18.43-3.42-25.42a43.65,43.65,0,0,0-7.08-13.55,40.53,40.53,0,0,0-7.4-7.23L475.37,132l.2.14a37.6,37.6,0,0,1,12,16.51c2.72,7,4.13,15.83,4.13,26.9v1c-.13,15.23-5.24,25.71-10.31,32.44a44.44,44.44,0,0,1-6.93,7.35l-.37.3,1.8-14.37a42.55,42.55,0,0,0,4.74-5.42,32.19,32.19,0,0,0,3.56-6.1,18.73,18.73,0,0,0,1.67-7.37,13.89,13.89,0,0,0-.16-2.13h0a6.89,6.89,0,0,0-1.19-3.21,3.44,3.44,0,0,0-1.2-1,3.3,3.3,0,0,0-1.44-.32,6.67,6.67,0,0,0-3.07,1c-1.42.79-2.84,1.85-4.19,2.68a14.86,14.86,0,0,1-1.89,1,3.62,3.62,0,0,1-1.4.34,1.19,1.19,0,0,1-.69-.18,2.22,2.22,0,0,1-.73-.83,13.05,13.05,0,0,0-5.92-5c-4-1.88-9.4-3-16.23-3.77a239,239,0,0,0-24.6-1,36.24,36.24,0,0,1-14.74-2.79,24.88,24.88,0,0,1-11.05-9.27,23.42,23.42,0,0,1-2-3.92c-.19-.48-.32-.87-.4-1.13a73.45,73.45,0,0,1,9.48-18,47.73,47.73,0,0,1,12.26-12,31.94,31.94,0,0,1,17.69-5.35,36.37,36.37,0,0,1,6.56.62c4.71.88,9.09,1.86,13.16,3a1.46,1.46,0,0,1,.55-.83l2.07-1.53a144.87,144.87,0,0,0-15.23-3.59,39.66,39.66,0,0,0-7.11-.67,34.93,34.93,0,0,0-19.58,6c-8.12,5.38-13.79,13.34-17.47,19.93A71.75,71.75,0,0,0,392,153.38a1.55,1.55,0,0,0,0,.8,24.74,24.74,0,0,0,5.76,10c.28.31.58.62.89.92A26,26,0,0,0,401.15,167.33Z"/><path d="M502.21,112.71a17.44,17.44,0,1,0-28.4-5.56L489,95.94a1.5,1.5,0,0,1,2.39,1.21v5.59a1.42,1.42,0,0,1-.19.73l-7.35,13.25a17.34,17.34,0,0,0,18.37-4Z"/><path d="M473.81,107.15a17.55,17.55,0,1,1,10,9.57l-1.47,2.65a20.2,20.2,0,0,0,7.51,1.45A20.53,20.53,0,1,0,471.36,109Z"/><polygon points="488.38 102.35 488.38 100.12 458.18 122.43 472.19 131.56 488.38 102.35"/><path d="M454.66,121.3a1.46,1.46,0,0,0-.55.83,1.42,1.42,0,0,0-.06.42,1.48,1.48,0,0,0,.68,1.21L471.9,135a1.5,1.5,0,0,0,2.13-.53l1.34-2.43,1.47-2.65,5.53-10,1.47-2.65,7.35-13.25a1.42,1.42,0,0,0,.19-.73V97.15A1.5,1.5,0,0,0,489,95.94l-15.18,11.21L471.36,109l-14.63,10.81Zm3.52,1.13,30.2-22.31v2.23l-16.19,29.21Z"/><path class="cls-4" d="M756.17,244.6c3.22,10.44,6.58,20.28,10.52,27.48,2.62,4.81,5.5,8.41,8.59,10.3a10.48,10.48,0,0,0,5.59,1.64,16.28,16.28,0,0,0,9-2.28,13.61,13.61,0,0,0,5-6c2.33-5.09,2.8-12.23,2.79-19.41,0-1.53,0-3.07,0-4.6h0v-.38a17.14,17.14,0,0,1,2.1-8.73,13.4,13.4,0,0,1,4.94-4.86,19.24,19.24,0,0,1,9.16-2.3l.6,0,.61,0a20.31,20.31,0,0,1,4.39.5,16.31,16.31,0,0,1,6.13,2.69,13,13,0,0,1,3.57,4,17,17,0,0,1,2.11,8.73c0,.12,0,.24,0,.37h0c0,1.52,0,3.06,0,4.6a81.94,81.94,0,0,0,.68,11.72,25.56,25.56,0,0,0,3.06,9.49,12.83,12.83,0,0,0,4,4.19A16.34,16.34,0,0,0,848,284a10.48,10.48,0,0,0,5.59-1.64,19.79,19.79,0,0,0,5.08-4.82c3.25-4.21,6.14-10.29,8.79-17.34,5.32-14.1,9.72-32,15.09-46.88,4.37-12.09,7.52-24.17,7.52-35.23a43.15,43.15,0,0,0-4.68-20.49C882,151.38,876.81,145.75,869,141a36.84,36.84,0,0,0-19.37-5.77c-9.68,0-18.08,4.19-24.13,8.52a55.64,55.64,0,0,0-9.87,8.92h0a1.51,1.51,0,0,1-1.17.56,1.49,1.49,0,0,1-1.16-.56h0l0,0-.12-.14-.47-.54c-.42-.47-1.06-1.15-1.88-2a58.48,58.48,0,0,0-7.09-6c-6.06-4.39-14.58-8.72-24.41-8.72A36.84,36.84,0,0,0,759.88,141c-7.87,4.8-13.1,10.42-16.4,16.66a43.15,43.15,0,0,0-4.68,20.49c0,11.06,3.15,23.14,7.52,35.23C749.85,223.1,753,234.16,756.17,244.6Z"/><path d="M758.6,261.28c2.71,7.18,5.66,13.48,9.22,18.11a22.54,22.54,0,0,0,5.89,5.54,13.38,13.38,0,0,0,7.16,2.09,19.19,19.19,0,0,0,10.67-2.76,15.77,15.77,0,0,0,4.94-5.15,28.47,28.47,0,0,0,3.46-10.62,83.65,83.65,0,0,0,.72-12.16c0-1.56,0-3.11,0-4.64h0v-.33a14,14,0,0,1,1.7-7.22,9.87,9.87,0,0,1,2.75-3.06,13.59,13.59,0,0,1,5-2.19,17.83,17.83,0,0,1,3.74-.42H815a16.19,16.19,0,0,1,7.66,1.91,10.15,10.15,0,0,1,3.84,3.76,14.1,14.1,0,0,1,1.7,7.22c0,.11,0,.23,0,.34h0c0,1.53,0,3.09,0,4.65,0,7.3.4,14.76,3.06,20.64a16.52,16.52,0,0,0,6.06,7.28A19.19,19.19,0,0,0,848,287a13.41,13.41,0,0,0,7.16-2.09c3.8-2.35,6.89-6.37,9.65-11.41,4.13-7.57,7.51-17.53,10.75-28s6.34-21.52,9.81-31.13c4.42-12.26,7.69-24.62,7.7-36.25a46.18,46.18,0,0,0-5-21.89c-3.57-6.75-9.24-12.8-17.49-17.82a39.85,39.85,0,0,0-20.93-6.21c-10.73,0-19.8,4.68-26.18,9.29a61.26,61.26,0,0,0-9,8,60.19,60.19,0,0,0-9-8c-6.37-4.61-15.44-9.28-26.17-9.29a39.82,39.82,0,0,0-20.93,6.21c-8.26,5-13.93,11.07-17.49,17.82a46.18,46.18,0,0,0-5,21.89c0,11.63,3.27,24,7.7,36.25C748.79,229,753.19,246.92,758.6,261.28ZM743.48,157.62c3.3-6.24,8.53-11.86,16.4-16.66a36.84,36.84,0,0,1,19.37-5.77c9.83,0,18.35,4.33,24.41,8.72a58.48,58.48,0,0,1,7.09,6c.82.83,1.46,1.51,1.88,2l.47.54.12.14,0,0h0a1.49,1.49,0,0,0,1.16.56,1.51,1.51,0,0,0,1.17-.56h0a55.64,55.64,0,0,1,9.87-8.92c6-4.33,14.45-8.52,24.13-8.52A36.84,36.84,0,0,1,869,141c7.86,4.79,13.09,10.42,16.4,16.66A43.15,43.15,0,0,1,890,178.11c0,11.06-3.15,23.14-7.52,35.23-5.37,14.86-9.77,32.78-15.09,46.88-2.65,7-5.54,13.13-8.79,17.34a19.79,19.79,0,0,1-5.08,4.82A10.48,10.48,0,0,1,848,284a16.34,16.34,0,0,1-9.05-2.28,12.83,12.83,0,0,1-4-4.19,25.56,25.56,0,0,1-3.06-9.49,81.94,81.94,0,0,1-.68-11.72c0-1.54,0-3.08,0-4.6h0c0-.13,0-.25,0-.37a17,17,0,0,0-2.11-8.73,13,13,0,0,0-3.57-4,16.31,16.31,0,0,0-6.13-2.69,20.31,20.31,0,0,0-4.39-.5l-.61,0-.6,0a19.24,19.24,0,0,0-9.16,2.3,13.4,13.4,0,0,0-4.94,4.86,17.14,17.14,0,0,0-2.1,8.73v.38h0c0,1.53,0,3.07,0,4.6,0,7.18-.46,14.32-2.79,19.41a13.61,13.61,0,0,1-5,6,16.28,16.28,0,0,1-9,2.28,10.48,10.48,0,0,1-5.59-1.64c-3.09-1.89-6-5.49-8.59-10.3-3.94-7.2-7.3-17-10.52-27.48s-6.32-21.5-9.85-31.26c-4.37-12.09-7.53-24.17-7.52-35.23A43.15,43.15,0,0,1,743.48,157.62Z"/><ellipse class="cls-4" cx="1272.25" cy="919.75" rx="24.37" ry="24.29" transform="translate(-1.36 1.89) rotate(-0.09)"/><path d="M1270.75,954.33a1.5,1.5,0,0,0,1.5,1.5,1.5,1.5,0,0,0,1.06-.44,1.47,1.47,0,0,0,.44-1.06,33,33,0,0,1,33-33.05,1.46,1.46,0,0,0,1.06-.44,1.5,1.5,0,0,0,.44-1.06v-.06a1.5,1.5,0,0,0-.44-1.06,1.46,1.46,0,0,0-1.06-.44,33,33,0,0,1-33-33.05,1.46,1.46,0,0,0-.44-1.06,1.5,1.5,0,0,0-1.06-.44,1.5,1.5,0,0,0-1.5,1.5,33,33,0,0,1-33,33.05,1.48,1.48,0,0,0-1.06.44,1.5,1.5,0,0,0-.44,1.06v.06a1.5,1.5,0,0,0,.44,1.06,1.48,1.48,0,0,0,1.06.44,33,33,0,0,1,33,33.05Zm-22.87-34.58a36.09,36.09,0,0,0,24.37-24.29,36.11,36.11,0,0,0,24.37,24.29A36.11,36.11,0,0,0,1272.25,944,36.09,36.09,0,0,0,1247.88,919.75Z"/><ellipse class="cls-4" cx="206.41" cy="577.71" rx="24.37" ry="24.29" transform="translate(-1.63 0.58) rotate(-0.16)"/><path d="M171.86,579.25a33,33,0,0,1,33,33,1.5,1.5,0,0,0,.44,1.06,1.52,1.52,0,0,0,1.06.44,1.5,1.5,0,0,0,1.5-1.5,33,33,0,0,1,33.05-33,1.5,1.5,0,0,0,1.5-1.5v-.07a1.5,1.5,0,0,0-.44-1.06,1.52,1.52,0,0,0-1.06-.44,33,33,0,0,1-33.05-33,1.52,1.52,0,0,0-.44-1.06,1.5,1.5,0,0,0-1.06-.44,1.5,1.5,0,0,0-1.5,1.5,33,33,0,0,1-33,33,1.5,1.5,0,0,0-1.5,1.5v.07a1.5,1.5,0,0,0,1.5,1.5ZM182,577.71a36.09,36.09,0,0,0,24.37-24.28,36.11,36.11,0,0,0,24.37,24.28A36.13,36.13,0,0,0,206.41,602,36.11,36.11,0,0,0,182,577.71Z"/><path class="cls-4" d="M690.58,158.76A36.11,36.11,0,0,1,715,134.48a36.15,36.15,0,0,1-24.37-24.29,36.11,36.11,0,0,1-24.36,24.29A36.08,36.08,0,0,1,690.58,158.76Z"/><path d="M656,136a33,33,0,0,1,33.05,33,1.49,1.49,0,0,0,1.5,1.5,1.49,1.49,0,0,0,1.49-1.5,33,33,0,0,1,33-33,1.5,1.5,0,0,0,1.06-.44,1.46,1.46,0,0,0,.44-1.06v-.07a1.47,1.47,0,0,0-.44-1.06,1.5,1.5,0,0,0-1.06-.44,33,33,0,0,1-33-33,1.49,1.49,0,0,0-1.49-1.5,1.49,1.49,0,0,0-1.5,1.5,33,33,0,0,1-33.05,33,1.5,1.5,0,0,0-1.06.44,1.52,1.52,0,0,0-.44,1.06v.07a1.52,1.52,0,0,0,.44,1.06A1.5,1.5,0,0,0,656,136Zm10.18-1.53a36.11,36.11,0,0,0,24.36-24.29A36.15,36.15,0,0,0,715,134.48a36.11,36.11,0,0,0-24.37,24.28A36.08,36.08,0,0,0,666.22,134.48Z"/><path class="cls-3" d="M683.84,1057.19a20.71,20.71,0,1,0-20.69-20.7A20.69,20.69,0,0,0,683.84,1057.19Zm0-34.44a13.74,13.74,0,1,1-13.72,13.74A13.73,13.73,0,0,1,683.84,1022.75Z"/><path class="cls-3" d="M263.14,940.46a20.71,20.71,0,1,0-20.69-20.71A20.7,20.7,0,0,0,263.14,940.46Zm0-34.45a13.74,13.74,0,1,1-13.72,13.74A13.73,13.73,0,0,1,263.14,906Z"/><path class="cls-3" d="M1217,1022.75A20.69,20.69,0,1,0,1237.7,1002,20.69,20.69,0,0,0,1217,1022.75Zm34.41,0A13.73,13.73,0,1,1,1237.7,1009,13.74,13.74,0,0,1,1251.43,1022.75Z"/><path d="M1097.2,1044c2.66,0,5.31.07,7.94.19l-53.86-99.73-1,.48c-27,12.37-59.3,20.07-94.2,21.41l51.1,102.31A175.82,175.82,0,0,1,1097.2,1044Z"/><path d="M1007.15,1068.66l-51.1-102.31c-1.09,0-2.19.1-3.29.13l51.82,103.73Z"/><path d="M1051.28,944.46l53.86,99.73c1.18,0,2.35.12,3.52.19L1054,943.17C1053.1,943.61,1052.19,944,1051.28,944.46Z"/><path d="M1114.64,887a90.81,90.81,0,0,0,5.38-11,39.54,39.54,0,0,1-6.45.55H770.48A90.4,90.4,0,0,0,775.64,887Z"/><path d="M773.46,887.71a1.5,1.5,0,0,1,1.3-.75h.88a90.4,90.4,0,0,1-5.16-10.45h-3.24a93.93,93.93,0,0,0,6.23,12.71A1.48,1.48,0,0,1,773.46,887.71Z"/><path d="M1120,876a90.81,90.81,0,0,1-5.38,11h.88a1.51,1.51,0,0,1,1.3.76,1.49,1.49,0,0,1,0,1.5,92.57,92.57,0,0,0,6.75-14C1122.4,875.5,1121.22,875.76,1120,876Z"/><path class="cls-4" d="M1049,942.21c28.37-13,50.71-31.15,63.86-52.25H777.42c13.15,21.1,35.48,39.26,63.86,52.25,29.37,13.46,65.2,21.37,103.86,21.37S1019.62,955.67,1049,942.21Z"/><path d="M1116.82,887.72a1.51,1.51,0,0,0-1.3-.76H774.76a1.5,1.5,0,0,0-1.29,2.26C786.81,912,810.22,931.28,840,944.94s66,21.64,105.11,21.64q3.83,0,7.62-.1c1.1,0,2.2-.09,3.29-.13,34.9-1.34,67.19-9,94.2-21.41l1-.48c.91-.43,1.82-.85,2.72-1.29,28-13.53,50-32.17,62.81-53.95h0A1.49,1.49,0,0,0,1116.82,887.72ZM777.42,890h335.44c-13.15,21.1-35.49,39.26-63.86,52.25-29.38,13.46-65.2,21.37-103.86,21.37s-74.49-7.91-103.86-21.37C812.9,929.22,790.57,911.06,777.42,890Z"/><path d="M1333.94,565l0,0,.82.87,12-23a33.57,33.57,0,0,1-13.11-4.15,35.41,35.41,0,0,1-3.32-2.13l-10.19,19.55A38.66,38.66,0,0,1,1333.94,565Z"/><path d="M1346.81,542.88l-12,23c.75.79,1.45,1.6,2.12,2.43l13.18-25.29H1350A31.36,31.36,0,0,1,1346.81,542.88Z"/><path d="M1320.19,556.15l10.19-19.55c-.83-.6-1.64-1.22-2.41-1.88l-10.66,20.46C1318.28,555.46,1319.24,555.79,1320.19,556.15Z"/><path class="cls-4" d="M1214.16,682a18.37,18.37,0,0,1,0,36.74h-49.22l-54.7,71.36-.13.15a38.85,38.85,0,0,1-27.49,11.4H861.86l-25.19,35.8a18.36,18.36,0,0,1-30-21.15L817,801.68H696.4A35.84,35.84,0,0,0,671,812.2L512,971.42a35.9,35.9,0,1,0,50.74,50.79l137.17-137.3a38.85,38.85,0,0,1,27.49-11.4h386.21A35.86,35.86,0,0,0,1138.89,863l192.85-244.95.12-.13a35.95,35.95,0,0,0,0-50.8h0a35.84,35.84,0,0,0-50.67-.06L1193.08,682h21.08Z"/><path d="M1334.8,565.91,1334,565l0,0a38.66,38.66,0,0,0-13.75-8.86c-1-.36-1.91-.69-2.88-1a39.39,39.39,0,0,0-10.88-1.54A38.68,38.68,0,0,0,1279,565l-.13.15L1189.3,682h3.78l88.1-114.93a35.84,35.84,0,0,1,50.67.06h0a35.95,35.95,0,0,1,0,50.8l-.12.13L1138.89,863a35.86,35.86,0,0,1-25.32,10.47H727.36a38.85,38.85,0,0,0-27.49,11.4L562.7,1022.21A35.9,35.9,0,0,1,512,971.42L671,812.2a35.84,35.84,0,0,1,25.37-10.52H817l2.11-3H696.4a38.85,38.85,0,0,0-27.49,11.4L536.52,942.59l-3.3,3.31-23.38,23.4a38.9,38.9,0,0,0,17.21,65c1,.27,2,.51,3,.7a39.2,39.2,0,0,0,7.32.7,38.77,38.77,0,0,0,27.49-11.4L702,887a35.84,35.84,0,0,1,25.37-10.52h386.21A39.54,39.54,0,0,0,1120,876c1.2-.2,2.38-.46,3.54-.77a38.89,38.89,0,0,0,17.51-10.08l.11-.13,192.88-245a38.94,38.94,0,0,0,2.86-51.66C1336.25,567.51,1335.55,566.7,1334.8,565.91Z"/><path d="M1110.09,790.28l.13-.15,54.7-71.36h-3.78l-53.23,69.45a35.88,35.88,0,0,1-25.31,10.46H864l-2.11,3H1082.6A38.85,38.85,0,0,0,1110.09,790.28Z"/><polygon class="cls-6" points="1403.33 382.69 1403.33 382.69 1403.33 382.69 1403.33 382.69"/><path class="cls-6" d="M1377,522.06l41.9-96.24a32.66,32.66,0,0,0,2.69-13,33.82,33.82,0,0,0-18.3-30.12h0a30.28,30.28,0,0,0-13.59-3.27,29.38,29.38,0,0,0-27,18l-41.9,96.24a32.63,32.63,0,0,0-2.69,13,33.87,33.87,0,0,0,17.05,29.46,30.39,30.39,0,0,0,14.84,3.94A29.41,29.41,0,0,0,1377,522.06Z"/><path d="M1404.68,380h0a33.29,33.29,0,0,0-14.94-3.59,32.4,32.4,0,0,0-29.77,19.8l-41.9,96.23a35.67,35.67,0,0,0-2.94,14.22A37.09,37.09,0,0,0,1328,534.72c.77.66,1.58,1.28,2.41,1.88a35.41,35.41,0,0,0,3.32,2.13,33.57,33.57,0,0,0,13.11,4.15,31.36,31.36,0,0,0,3.2.18h.09a32.41,32.41,0,0,0,29.69-19.79l41.9-96.24a35.7,35.7,0,0,0,2.94-14.22A36.8,36.8,0,0,0,1404.68,380ZM1350,540.06a30.39,30.39,0,0,1-14.84-3.94,33.87,33.87,0,0,1-17.05-29.46,32.63,32.63,0,0,1,2.69-13l41.9-96.24a29.38,29.38,0,0,1,27-18,30.28,30.28,0,0,1,13.59,3.27h0a33.82,33.82,0,0,1,18.3,30.12,32.66,32.66,0,0,1-2.69,13L1377,522.06A29.41,29.41,0,0,1,1350,540.06Z"/><path class="cls-4" d="M1267.41,1185.73a173.8,173.8,0,0,0-340.43,0Z"/><path d="M1105.14,1044.19c-2.63-.12-5.28-.19-7.94-.19a175.82,175.82,0,0,0-90.05,24.66l-2.57,1.55a176.9,176.9,0,0,0-80.66,115.52H927a173.8,173.8,0,0,1,340.43,0h3.06c-15.58-77.21-81.38-136.19-161.81-141.35C1107.49,1044.31,1106.32,1044.24,1105.14,1044.19Z"/><path d="M1299.17,1188.73h-404a24,24,0,0,0-24,24v0a24,24,0,0,0,24,24h404a24,24,0,0,0,24-24v0a24,24,0,0,0-24-24Z"/><path d="M1267.41,1185.73H895.22a27,27,0,0,0-27,27v0a27,27,0,0,0,27,27h404a27,27,0,0,0,27-27v0a27,27,0,0,0-27-27h-31.76Zm55.73,27a24,24,0,0,1-24,24h-404a24,24,0,0,1-24-24v0a24,24,0,0,1,24-24h404a24,24,0,0,1,24,24Z"/><path class="cls-6" d="M809.11,818.05a15.36,15.36,0,1,0,25.1,17.7l84-119.34a1.5,1.5,0,0,1,1.22-.64h294.74a15.37,15.37,0,0,0,0-30.74H910.66a15.39,15.39,0,0,0-12.55,6.52Z"/><path d="M817,801.68l-10.31,14.65a18.36,18.36,0,1,0,30,21.15l25.19-35.8,2.11-3,56.21-79.91h294a18.37,18.37,0,0,0,0-36.74H910.66a18.38,18.38,0,0,0-15,7.8L819.07,798.68ZM910.66,685h303.48a15.37,15.37,0,0,1,0,30.74H919.4a1.5,1.5,0,0,0-1.22.64l-84,119.34a15.36,15.36,0,1,1-25.1-17.7l89-126.5A15.39,15.39,0,0,1,910.66,685Z"/><polygon class="cls-6" points="1129.1 97.63 1120.99 108.58 1184.3 136.51 1186.9 123.13 1129.1 97.63"/><path d="M1119.27,107.82l1.72.76,8.11-11,57.8,25.5-2.6,13.38,1.72.76a1.51,1.51,0,0,1,.87,1.66h0l3.18-16.4a1.49,1.49,0,0,0-.86-1.66l-8.59-3.79-2.78-1.22-37.26-16.44-2.77-1.23-8.6-3.79a1.51,1.51,0,0,0-1.81.48l-9.94,13.42A1.48,1.48,0,0,1,1119.27,107.82Z"/><path d="M1183.71,139.53l-64.55-28.48L1108.83,125a151.41,151.41,0,0,1,71.62,31.32Z"/><path d="M1108.83,125l10.33-13.94,64.55,28.48-3.26,16.78c.9.72,1.76,1.45,2.64,2.18l3.8-19.56h0a1.51,1.51,0,0,0-.87-1.66l-1.72-.76L1121,108.58l-1.72-.76a1.48,1.48,0,0,0-1.81.48l-12,16.22C1106.58,124.66,1107.7,124.82,1108.83,125Z"/><path class="cls-4" d="M1141.07,136.84a146.46,146.46,0,0,0-54.38-10.53c-51.93,0-100.52,28.07-123.57,75.11l.08.15a5.55,5.55,0,0,0,.76.92,26.43,26.43,0,0,0,3.57,2.85,145.46,145.46,0,0,0,14,8.14c11.95,6.3,28.76,14.16,48,22.61,38.54,16.91,86.93,36.2,126.22,50.31,26.18,9.4,48.37,16.51,60.75,19.05a40.52,40.52,0,0,0,7.58,1,7.62,7.62,0,0,0,1.32-.09,3.07,3.07,0,0,0,.41-.11,130.9,130.9,0,0,0,6-39C1231.75,212.18,1197.26,159.27,1141.07,136.84Z"/><path d="M962.27,199.63a1.49,1.49,0,0,1,.83,1.74s0,0,0,0c23-47,71.64-75.11,123.57-75.11a146.46,146.46,0,0,1,54.38,10.53c56.19,22.43,90.68,75.34,90.67,130.39a130.9,130.9,0,0,1-6,39l0,0a1.5,1.5,0,0,1,2.74,1.17h0a133.77,133.77,0,0,0,6.16-40.19c0-41.27-19-81.29-51.65-108.74-.88-.73-1.74-1.46-2.64-2.18A151.41,151.41,0,0,0,1108.83,125c-1.13-.17-2.25-.33-3.38-.47a146.47,146.47,0,0,0-18.76-1.21c-53.09,0-102.84,28.74-126.38,77A1.49,1.49,0,0,1,962.27,199.63Z"/><path class="cls-6" d="M957.89,217.91a22.41,22.41,0,0,0,3.41,3.19,113.38,113.38,0,0,0,13.41,8.67c11.51,6.58,27.75,14.57,46.45,23,37.4,16.95,84.66,35.87,123.91,49.63,26.16,9.16,48.81,16,62.47,18.5a51.43,51.43,0,0,0,8.83,1,11.89,11.89,0,0,0,2.48-.2,2.8,2.8,0,0,0,1.16-.43.39.39,0,0,0,.12-.13l0-.06c.78-1.75,1.54-3.51,2.25-5.29.84-2.12,1.6-4.24,2.33-6.37h-.68a36.5,36.5,0,0,1-6.06-.67c-2.43-.44-5.27-1.07-8.49-1.89-6.44-1.64-14.39-4-23.46-6.93-18.13-5.86-40.74-14-64.59-23.1-47.7-18.21-100.33-40.31-132-55.95-9-4.47-16.35-8.41-21.4-11.62a38.82,38.82,0,0,1-6.11-4.55l-.29-.3c-.94,2-1.85,4.11-2.7,6.22-.71,1.79-1.37,3.58-2,5.39l0,.06v.08a1.53,1.53,0,0,0,.17.58A5.69,5.69,0,0,0,957.89,217.91Z"/><path d="M954.84,218.82a22.14,22.14,0,0,0,5,5c4.39,3.39,11.1,7.46,19.6,12,29.72,16,81.35,38.26,129.33,56.52,24,9.13,47,17.26,66,23.11,9.47,2.93,17.92,5.29,25,6.92s12.65,2.55,16.59,2.55a12.91,12.91,0,0,0,4-.49,5,5,0,0,0,1.52-.77,3.42,3.42,0,0,0,1-1.33h0c.8-1.78,1.58-3.58,2.31-5.41q1.88-4.74,3.38-9.52h0a1.5,1.5,0,0,0-2.74-1.17l0,0a3.07,3.07,0,0,1-.41.11,7.62,7.62,0,0,1-1.32.09,40.52,40.52,0,0,1-7.58-1c-12.38-2.54-34.57-9.65-60.75-19.05-39.29-14.11-87.68-33.4-126.22-50.31-19.27-8.45-36.08-16.31-48-22.61a145.46,145.46,0,0,1-14-8.14,26.43,26.43,0,0,1-3.57-2.85,5.55,5.55,0,0,1-.76-.92l-.08-.15s0,0,0,0a1.49,1.49,0,0,0-2.79-1h0q-2.2,4.5-4.09,9.23c-.73,1.84-1.41,3.67-2.05,5.51h0a3.45,3.45,0,0,0-.2,1.13A4.9,4.9,0,0,0,954.84,218.82Zm2.14-2.69,0-.06c.63-1.81,1.29-3.6,2-5.39.85-2.11,1.76-4.18,2.7-6.22l.29.3a38.82,38.82,0,0,0,6.11,4.55c5,3.21,12.37,7.15,21.4,11.62,31.63,15.64,84.26,37.74,132,55.95,23.85,9.11,46.46,17.24,64.59,23.1,9.07,2.93,17,5.29,23.46,6.93,3.22.82,6.06,1.45,8.49,1.89a36.5,36.5,0,0,0,6.06.67h.68c-.73,2.13-1.49,4.25-2.33,6.37-.71,1.78-1.47,3.54-2.25,5.29l0,.06a.39.39,0,0,1-.12.13,2.8,2.8,0,0,1-1.16.43,11.89,11.89,0,0,1-2.48.2,51.43,51.43,0,0,1-8.83-1c-13.66-2.46-36.31-9.34-62.47-18.5-39.25-13.76-86.51-32.68-123.91-49.63-18.7-8.48-34.94-16.47-46.45-23a113.38,113.38,0,0,1-13.41-8.67,22.41,22.41,0,0,1-3.41-3.19,5.69,5.69,0,0,1-.75-1.12,1.53,1.53,0,0,1-.17-.58Z"/><path class="cls-4" d="M563.19,429.36a1.51,1.51,0,0,1,1.93.89h0l0,0,.07.19c.07.17.17.43.31.76.28.66.71,1.63,1.3,2.84a81.85,81.85,0,0,0,5.54,9.56A74.24,74.24,0,0,0,596.89,467a65,65,0,0,0,28,8.33c1.33.1,2.68.14,4,.14,13.8,0,29.94-4.63,46.41-11.72s33.28-16.61,48.51-26.3A600.34,600.34,0,0,0,780.91,396c0-.45-.06-1.1-.13-1.93-.13-1.68-.38-4.09-.82-6.91a77.56,77.56,0,0,0-5.57-19.65A37.84,37.84,0,0,0,766.66,356a24.32,24.32,0,0,0-4-.31,69.54,69.54,0,0,0-13.8,1.76c-5.33,1.13-11.3,2.76-17.62,4.74-12.65,3.95-26.74,9.29-40.19,14.79-26.91,11-51.26,22.66-56.6,25.25-.72.34-1.09.52-1.09.53a1.51,1.51,0,0,1-2-.64l-.18-.33-.53-1c-.47-.85-1.17-2.1-2.07-3.69-1.8-3.17-4.41-7.68-7.66-13.05-6.5-10.73-15.56-24.89-25.74-38.53l-.15-.26A113.81,113.81,0,0,0,567.81,309a136,136,0,0,0-32.3-21.23,151.3,151.3,0,0,0-38.12-12.35l-.3,1,66,153Z"/><path d="M497.39,275.46a151.3,151.3,0,0,1,38.12,12.35A136,136,0,0,1,567.81,309,113.81,113.81,0,0,1,595,345.3l.15.26c10.18,13.64,19.24,27.8,25.74,38.53,3.25,5.37,5.86,9.88,7.66,13.05.9,1.59,1.6,2.84,2.07,3.69l.53,1,.18.33a1.51,1.51,0,0,0,2,.64s.37-.19,1.09-.53C639.75,399.65,664.1,388,691,377c13.45-5.5,27.54-10.84,40.19-14.79,6.32-2,12.29-3.61,17.62-4.74a69.54,69.54,0,0,1,13.8-1.76,24.32,24.32,0,0,1,4,.31,37.84,37.84,0,0,1,7.73,11.48A77.56,77.56,0,0,1,780,387.14c.44,2.82.69,5.23.82,6.91.07.83.11,1.48.13,1.93a600.34,600.34,0,0,1-57.1,41.42c-15.23,9.69-32,19.21-48.51,26.3s-32.61,11.73-46.41,11.72c-1.37,0-2.72,0-4-.14a65,65,0,0,1-28-8.33,74.24,74.24,0,0,1-24.53-23.3,81.85,81.85,0,0,1-5.54-9.56c-.59-1.21-1-2.18-1.3-2.84-.14-.33-.24-.59-.31-.76l-.07-.19,0,0h0a1.51,1.51,0,0,0-1.93-.89l-.07,0a1.49,1.49,0,0,0-.81,1.89,75.2,75.2,0,0,0,8.22,15c1.11,1.61,2.35,3.28,3.72,5,.61.76,1.24,1.52,1.9,2.29a74.25,74.25,0,0,0,19.25,16,68.16,68.16,0,0,0,29.23,8.72c1.4.09,2.82.14,4.26.14,14.93,0,32-5.1,49.21-12.67,25.85-11.35,52.15-28.33,72-42.47s33.28-25.46,33.3-25.47a1.49,1.49,0,0,0,.53-1.19s-.06-2.3-.46-5.84c-.11-.91-.24-1.91-.39-3-.32-2.23-.76-4.76-1.36-7.45a73.15,73.15,0,0,0-4.61-14.11c-.54-1.19-1.13-2.37-1.76-3.52q-.74-1.34-1.56-2.61a35.61,35.61,0,0,0-5.38-6.6,1.59,1.59,0,0,0-.74-.38,26.27,26.27,0,0,0-5.06-.44,74.43,74.43,0,0,0-15.52,2.07c-20.65,4.57-49.36,15.88-73,26.07-20,8.6-36.24,16.39-40.82,18.61a528.57,528.57,0,0,0-35.64-55.57,116.71,116.71,0,0,0-28.36-37.53c-16.38-14.5-34.65-23-48.83-27.92a144.86,144.86,0,0,0-22.17-5.86Z"/><path class="cls-4" d="M494.08,373.57a5.8,5.8,0,0,0-.1-.8c-.08-.44-.2-1-.36-1.64-.32-1.31-.78-3-1.35-4.93-1.14-3.87-2.7-8.77-4.35-13.81-3.29-10.07-7-20.69-8.42-24.91l-.66-1.89a1.54,1.54,0,0,1,0-.95L495.63,271l-31.37-7.92,0,.26c-.15,1.28-.37,3.13-.64,5.46-.54,4.67-1.29,11.23-2.11,18.82-1.66,15.2-3.65,34.53-5,51.08-.88,11-1.47,20.83-1.47,27.29,0,.24,0,.48,0,.72,0,2.79,0,19.84,0,41.35v36.06c7.32.13,12.76.15,15.14.15h1.33a1.56,1.56,0,0,1,.48.08,2.4,2.4,0,0,1,.47.23c9.22-30.24,18.59-61,21-69.14C493.82,374.46,494,373.82,494.08,373.57Z"/><path class="cls-4" d="M455,501.82c1.28-4.21,2.92-9.59,4.81-15.76-1.59.78-3.19,1.53-4.8,2.28C455.05,493.54,455,498.12,455,501.82Z"/><path d="M452,511.89a1.5,1.5,0,0,0,1.28,1.49,1.46,1.46,0,0,0,1.46-.68,1.18,1.18,0,0,0,.19-.37l3-9.79c1.46-4.79,3.38-11.09,5.58-18.33-1.22.63-2.46,1.24-3.69,1.85-1.89,6.17-3.53,11.55-4.81,15.76,0-3.7,0-8.28,0-13.48q-1.5.69-3,1.35C452,503,452,511.89,452,511.89Z"/><path d="M461.48,261.05s-.22,1.82-.59,5c-.65,5.58-1.77,15.38-3,26.89q-.21,1.92-.42,3.9c-.23,2.23-.47,4.52-.71,6.83-1.18,11.48-2.36,23.76-3.25,34.83S452,359.39,452,366c0,.25,0,.5,0,.74,0,2.76,0,19.83,0,41.33v36l3,.06V408.08c0-21.51,0-38.56,0-41.35,0-.24,0-.48,0-.72,0-6.46.59-16.26,1.47-27.29,1.33-16.55,3.32-35.88,5-51.08.82-7.59,1.57-14.15,2.11-18.82.27-2.33.49-4.18.64-5.46l0-.26L495.63,271l-16.81,53.62a1.54,1.54,0,0,0,0,.95l.66,1.89c1.46,4.22,5.13,14.84,8.42,24.91,1.65,5,3.21,9.94,4.35,13.81.57,1.94,1,3.62,1.35,4.93.16.65.28,1.2.36,1.64a5.8,5.8,0,0,1,.1.8c-.07.25-.26.89-.56,1.88-2.45,8.1-11.82,38.9-21,69.14a4,4,0,0,1,.51.37,6.08,6.08,0,0,1,1.37,1.83c.12.24.24.5.35.78.33-1.07.65-2.14,1-3.2,5.2-17.08,10.43-34.25,14.4-47.32,2-6.53,3.67-12,4.87-16,.6-2,1.09-3.58,1.43-4.72s.55-1.83.61-2v0a3.29,3.29,0,0,0,.08-.66,9.53,9.53,0,0,0-.2-1.6c-.23-1.16-.63-2.73-1.17-4.64-1.87-6.65-5.38-17.32-8.42-26.35-2.6-7.72-4.86-14.21-5.47-15.94l15.26-48.65.3-1,.9-2.89.68-2.16a1.51,1.51,0,0,0-.12-1.18,1.53,1.53,0,0,0-.94-.73l-34.57-8.73a1.5,1.5,0,0,0-1,.1,1.55,1.55,0,0,0-.22.12A1.51,1.51,0,0,0,461.48,261.05Z"/><path class="cls-4" d="M427.58,361.51v-.73c0-5.64-.45-13.86-1.16-23.21s-1.66-19.85-2.67-30.12c-2-20.54-4.29-40.15-5.19-47.84-.08-.68-.15-1.25-.2-1.74l-29.91,7.56a1.57,1.57,0,0,1,.37.71,1.49,1.49,0,0,1-1.17,1.77h0l16.15,51.5a1.54,1.54,0,0,1,0,.95l-.45,1.29c-.29.83-.71,2-1.22,3.51-1,3-2.43,7.07-3.95,11.57-3,9-6.54,19.68-8.38,26.21-.52,1.86-.91,3.39-1.11,4.4a7,7,0,0,0-.14,1,1.8,1.8,0,0,0,.05.19c0,.12.06.27.09.45.08.36.18.84.31,1.44.25,1.21.59,2.88,1,5,.83,4.17,2,10,3.35,16.85,2.7,13.65,6.22,31.56,9.72,49.42l6,.47c3.9.29,7.8.53,11.64.75,3-33.11,6-67.61,6.73-78.39C427.52,363,427.57,362,427.58,361.51Z"/><path class="cls-4" d="M415.28,502.39l-.31.07c.07.37.14.72.2,1.07C415.21,503.16,415.24,502.78,415.28,502.39Z"/><path d="M415.28,502.39c0,.39-.07.77-.11,1.14-.06-.35-.13-.7-.2-1.07-1,.25-2,.48-2.92.71,1.22,6.24,2,10.26,2.16,11.05l0,.16a1.5,1.5,0,0,0,3-.15v0c0-.29.46-5,1.16-12.6Z"/><path d="M387.05,265h0a1.5,1.5,0,0,1,1.4.45l29.91-7.56c.05.49.12,1.06.2,1.74.9,7.69,3.16,27.3,5.19,47.84,1,10.27,2,20.77,2.67,30.12s1.16,17.57,1.16,23.21v.73c0,.44-.06,1.5-.16,3-.72,10.78-3.75,45.28-6.73,78.39l3,.16.18-2c1.67-18.55,3.34-37.37,4.6-52.07.62-7.35,1.15-13.67,1.52-18.42.18-2.37.33-4.35.43-5.88s.16-2.57.17-3.17v-.75c0-6.62-.6-16.45-1.48-27.52-1-12.27-2.33-26-3.63-38.52-.15-1.45-.3-2.89-.45-4.3-1.33-12.56-2.58-23.42-3.28-29.48-.38-3.26-.61-5.13-.61-5.14a1.47,1.47,0,0,0-.64-1,1.45,1.45,0,0,0-1.21-.22l-.3.07-34.27,8.66a1.5,1.5,0,0,0-.94.73,1.48,1.48,0,0,0-.13,1.18l.2.62C385.86,265.22,387,265,387.05,265Z"/><path d="M390,375.41c-.42-2.09-.76-3.76-1-5-.13-.6-.23-1.08-.31-1.44,0-.18-.07-.33-.09-.45a1.8,1.8,0,0,1-.05-.19,7,7,0,0,1,.14-1c.2-1,.59-2.54,1.11-4.4,1.84-6.53,5.34-17.2,8.38-26.21,1.52-4.5,2.92-8.6,3.95-11.57.51-1.48.93-2.68,1.22-3.51l.45-1.29a1.54,1.54,0,0,0,0-.95l-16.15-51.5h0l-.17,0-.7.17-.09,0L385.46,271l15.32,48.88c-.77,2.2-4.14,11.89-7.51,22-1.92,5.78-3.84,11.7-5.28,16.49-.72,2.4-1.33,4.51-1.76,6.19-.21.84-.38,1.58-.5,2.2a8.6,8.6,0,0,0-.2,1.6,2.13,2.13,0,0,0,.09.69h0s.07.28.15.63c.6,2.8,2.69,13.28,5.47,27.37,2.53,12.78,5.63,28.55,8.72,44.33l3.11.28c-3.5-17.86-7-35.77-9.72-49.42C392,385.38,390.82,379.58,390,375.41Zm-4.37-6.34Z"/><path class="cls-4" d="M497,479c11.08,2.56,23,5.34,32.19,6.28,1.34.13,2.66.2,3.94.2A30.46,30.46,0,0,0,547,482.35a19.09,19.09,0,0,0,8.33-7.75,14,14,0,0,0,1.7-6.68,15.66,15.66,0,0,0-1.31-6.15,8.42,8.42,0,0,0-3-3.56,17,17,0,0,0-5-2.33,48.11,48.11,0,0,0-13.15-1.54c-3.08,0-6,.17-8.44.37s-4.32.42-5.41.51c-.32,0-.56,0-.8,0h-.19a1.45,1.45,0,0,1-.31,0A1.73,1.73,0,0,1,519,455a1.45,1.45,0,0,1-.42-.37,1.57,1.57,0,0,1-.33-.94,1.37,1.37,0,0,1,.12-.57,1.83,1.83,0,0,1,.19-.35,1.62,1.62,0,0,1,.31-.3,1.82,1.82,0,0,1,.32-.19l.41-.17,1.15-.35a6.83,6.83,0,0,0,3.46-2.09,4,4,0,0,0,1-2.58,3,3,0,0,0-.82-2.12,3.29,3.29,0,0,0-2.44-.92,8,8,0,0,0-3.53,1,25.59,25.59,0,0,1-5.18,1.74c-2.07.51-4.45,1-7,1.36-5.16.8-11.1,1.41-16.74,1.88-5.15.42-10.05.72-13.85.92a33.33,33.33,0,0,1,.39,5.41,94.41,94.41,0,0,1-2.14,18c2.26.27,4.77.68,7.49,1.19C486.11,476.47,491.46,477.69,497,479Z"/><path d="M504.75,483.82a217.29,217.29,0,0,0,24.14,4.4,41.32,41.32,0,0,0,4.25.22c7.7,0,14.37-2.21,19.17-5.89A20.53,20.53,0,0,0,558,476a17,17,0,0,0,2.06-8.1,18.69,18.69,0,0,0-1.55-7.33,11.55,11.55,0,0,0-4-4.82,23.44,23.44,0,0,0-9.28-3.57,58.49,58.49,0,0,0-10.63-.86c-3,0-5.76.16-8.12.34l0-.05a7.06,7.06,0,0,0,1.67-4.5,6,6,0,0,0-1.67-4.21,6.31,6.31,0,0,0-4.59-1.83,11.15,11.15,0,0,0-4.87,1.29,22.93,22.93,0,0,1-4.55,1.52A113.77,113.77,0,0,1,499.78,446c-7.24.87-15.19,1.44-21.32,1.8l-3.59.2a16.25,16.25,0,0,1,.75,3c3.8-.2,8.7-.5,13.85-.92,5.64-.47,11.58-1.08,16.74-1.88,2.58-.4,5-.85,7-1.36a25.59,25.59,0,0,0,5.18-1.74,8,8,0,0,1,3.53-1,3.29,3.29,0,0,1,2.44.92,3,3,0,0,1,.82,2.12,4,4,0,0,1-1,2.58,6.83,6.83,0,0,1-3.46,2.09l-1.15.35-.41.17a1.82,1.82,0,0,0-.32.19,1.62,1.62,0,0,0-.31.3,1.83,1.83,0,0,0-.19.35,1.37,1.37,0,0,0-.12.57,1.57,1.57,0,0,0,.33.94,1.45,1.45,0,0,0,.42.37,1.73,1.73,0,0,0,.44.18,1.45,1.45,0,0,0,.31,0H520c.24,0,.48,0,.8,0,1.09-.09,3-.31,5.41-.51s5.36-.37,8.44-.37a48.11,48.11,0,0,1,13.15,1.54,17,17,0,0,1,5,2.33,8.42,8.42,0,0,1,3,3.56,15.66,15.66,0,0,1,1.31,6.15,14,14,0,0,1-1.7,6.68,19.09,19.09,0,0,1-8.33,7.75,30.46,30.46,0,0,1-13.87,3.09c-1.28,0-2.6-.07-3.94-.2C520,484.3,508.09,481.52,497,479c-5.55-1.27-10.9-2.49-15.65-3.4-2.72-.51-5.23-.92-7.49-1.19-.19,1-.39,1.94-.61,2.95,2.22.25,4.76.66,7.54,1.19C487.81,479.84,496.28,481.9,504.75,483.82Z"/><path class="cls-4" d="M386.64,268.15c-.62.16-1.51.4-2.63.73a96.83,96.83,0,0,0-9.93,3.62,127.28,127.28,0,0,0-31.24,19.06c-23.41,19.27-48.73,53.36-56.24,113.07A157.21,157.21,0,0,0,285.33,424c0,14.72,2.44,27.12,6.79,37.45a65.13,65.13,0,0,0,18.34,25.07c15.46,12.94,36.9,18.69,60.59,18.68,32.3,0,68.67-10.7,99.17-28,2.1-9.63,2.8-16.29,2.79-20.83a21.44,21.44,0,0,0-1-7.47,4.85,4.85,0,0,0-.93-1.63h-.89c-7.78,0-47.69-.18-80.13-3.86-10.82-1.23-20.81-2.85-28.56-5a44.25,44.25,0,0,1-10.91-4.33,13.25,13.25,0,0,1-3.59-3c-4.43-5.65-6.94-12.89-8.39-20a101.24,101.24,0,0,1-1.79-19.5c0-5.41.37-9,.38-9.05a1.49,1.49,0,0,1,1.64-1.34,1.6,1.6,0,0,1,.43.11L385.46,271Z"/><path d="M304.54,485.15a70.57,70.57,0,0,0,17.2,12.38c14.21,7.36,31.19,10.64,49.31,10.64a181.5,181.5,0,0,0,41-5c1-.23,1.94-.46,2.92-.71l.31-.07,3.09-.8a227.81,227.81,0,0,0,33.68-11.9q1.5-.66,3-1.35c1.61-.75,3.21-1.5,4.8-2.28,1.23-.61,2.47-1.22,3.69-1.85q4.44-2.26,8.74-4.72a1.47,1.47,0,0,0,.72-1c.09-.4.18-.79.26-1.19.22-1,.42-2,.61-2.95a94.41,94.41,0,0,0,2.14-18,33.33,33.33,0,0,0-.39-5.41,16.25,16.25,0,0,0-.75-3,4.5,4.5,0,0,0-.16-.44c-.11-.28-.23-.54-.35-.78A6.08,6.08,0,0,0,473,445a4,4,0,0,0-.51-.37,2.4,2.4,0,0,0-.47-.23,1.56,1.56,0,0,0-.48-.08H470.2c-2.38,0-7.82,0-15.14-.15l-3-.06c-8-.17-17.92-.48-28.38-1l-3-.16c-3.84-.22-7.74-.46-11.64-.75l-6-.47L400,441.4a293.22,293.22,0,0,1-29.16-3.89,88,88,0,0,1-13.92-3.75,29.42,29.42,0,0,1-4.71-2.23,10.08,10.08,0,0,1-2.79-2.32c-4-5.08-6.43-11.9-7.8-18.75a97.38,97.38,0,0,1-1.74-18.91c0-2.63.09-4.83.18-6.36.05-.77.09-1.37.13-1.78,0-.2,0-.35,0-.46s0-.14,0-.14a1.5,1.5,0,0,0-.91-1.54,1.6,1.6,0,0,0-.43-.11,1.49,1.49,0,0,0-1.64,1.34s-.38,3.64-.38,9.05a101.24,101.24,0,0,0,1.79,19.5c1.45,7.13,4,14.37,8.39,20a13.25,13.25,0,0,0,3.59,3,44.25,44.25,0,0,0,10.91,4.33c7.75,2.15,17.74,3.77,28.56,5,32.44,3.68,72.35,3.86,80.13,3.86h.89a4.85,4.85,0,0,1,.93,1.63,21.44,21.44,0,0,1,1,7.47c0,4.54-.69,11.2-2.79,20.83-30.5,17.26-66.87,28-99.17,28-23.69,0-45.13-5.74-60.59-18.68a65.13,65.13,0,0,1-18.34-25.07c-4.35-10.33-6.79-22.73-6.79-37.45a157.21,157.21,0,0,1,1.27-19.34c7.51-59.71,32.83-93.8,56.24-113.07a127.28,127.28,0,0,1,31.24-19.06,96.83,96.83,0,0,1,9.93-3.62c1.12-.33,2-.57,2.63-.73l.09,0,.7-.17.17,0h0a1.49,1.49,0,0,0,1.17-1.77,1.57,1.57,0,0,0-.37-.71,1.5,1.5,0,0,0-1.4-.45h0s-1.19.24-3.21.83c-7,2-24.36,8.17-42.91,23.43-23.94,19.69-49.74,54.6-57.3,115a157.34,157.34,0,0,0-1.3,19.72c0,15,2.49,27.86,7,38.62a69.19,69.19,0,0,0,12.49,19.74Q303.15,483.79,304.54,485.15Z"/></g></g></svg>