<svg xmlns="http://www.w3.org/2000/svg" viewBox="0 0 1412.43 1100"><defs><style>.cls-1{fill:none;}.cls-2{fill:#d0d5d8;}.cls-3{fill:#eff0f1;}.cls-4{fill:#c1bebc;}.cls-5{fill:#fff;}.cls-6{fill:#61c3da;}</style></defs><g id="Layer_2" data-name="Layer 2"><g id="_5" data-name="5"><path class="cls-1" d="M1053.44,935.59q-2.07-12.89-4.26-26.89c-6.2-39.74-13-85.64-19.58-133.82-5.08-.27-8.09-.48-8.1-.48a1.5,1.5,0,0,1-1.39-1.42s-2-38.27-3-93.87q-.92-7.46-1.8-14.9c-2.38,26.57-5.05,55.93-7.87,86.14-5.6,59.95-11.81,123.25-17.58,174.77,3.21-.22,6.45-.34,9.72-.34A137.4,137.4,0,0,1,1053.44,935.59Z"/><path class="cls-1" d="M450,589.91a67.9,67.9,0,0,1-19.34-16.81c-.5-.63-1-1.27-1.48-1.91a60,60,0,0,1-11.58,18.37c3.4-.08,7.09-.13,11-.13C435.08,589.43,442.28,589.57,450,589.91Z"/><path class="cls-1" d="M199.53,983.18a153.11,153.11,0,0,1,123.24-62.09q6.74,0,13.33.58c11.48-43,25.16-91.69,37.6-133.44H203.45l-18,79.48L160,979.53c3.12-.26,6.27-.4,9.46-.4A113.37,113.37,0,0,1,199.53,983.18Z"/><circle class="cls-1" cx="91.3" cy="903.23" r="13.11"/><path class="cls-1" d="M469.81,1014.39a303.13,303.13,0,0,1,62.52-12.71c-4.67-23.18-10.19-49.26-15.21-76.24-7.94-42.71-14.62-87.71-14.67-127.29L447.7,895.23Z"/><path class="cls-1" d="M441.54,977.45,430,926.62,415.5,952.31A154.53,154.53,0,0,1,441.54,977.45Z"/><path class="cls-2" d="M1181.38,992a9,9,0,0,1-1.91-1.08c-1.41,15.45-2.42,31-2.86,46.24l2,.25C1179,1022.45,1180,1007.18,1181.38,992Z"/><path class="cls-2" d="M1184.29,964.26c2-16.66,4.32-32.92,6.79-48.22a6.7,6.7,0,0,1-2.41,2.41c-2.29,14.38-4.45,29.56-6.31,45.11.4.5.79,1,1.15,1.52C1183.77,964.8,1184,964.52,1184.29,964.26Z"/><path class="cls-2" d="M1196.55,884.44c2.53-13.68,5-26,7.21-36.39a11.14,11.14,0,0,1-1.24,1,8.88,8.88,0,0,1-1.16.66c-2.17,10.35-4.6,22.49-7.06,35.89.56-.33,1.14-.65,1.73-.94Z"/><path class="cls-2" d="M1208.42,826.86c.72-3.14,1.35-5.82,1.85-7.94l1.06-4.38c.25-1,.37-1.51.38-1.51a1,1,0,0,0-.12-.76,10.5,10.5,0,0,1-1.49-.23,1,1,0,0,0-.33.5h0s-1.49,5.91-3.83,16.2c.16.41.32.82.45,1.22A15,15,0,0,1,1208.42,826.86Z"/><path class="cls-2" d="M1315,936.87c5.57-5.17,11-9.72,16.26-13.69,0-.21,0-.41.09-.62a10,10,0,0,1-2-.45c-5,3.88-10.34,8.3-15.72,13.29a222.58,222.58,0,0,0-16,16.52,24.74,24.74,0,0,1-.84,4.06A220.14,220.14,0,0,1,1315,936.87Z"/><path class="cls-2" d="M1345.78,913c2.7-1.73,5.26-3.27,7.62-4.62,5.09-2.94,9.29-5,12.2-6.39,1.34-.63,2.39-1.09,3.16-1.41a.5.5,0,0,1,0-.13,11,11,0,0,1-.38-1.86,159.08,159.08,0,0,0-21.75,11.54,21.52,21.52,0,0,1-1.12,2.88Z"/><path class="cls-2" d="M1282,975.51a9.42,9.42,0,0,1-.4-1.52,9.11,9.11,0,0,1-.13-1.27,224.77,224.77,0,0,0-16.62,28.73,26.64,26.64,0,0,1,.65,3.27A222,222,0,0,1,1282,975.51Z"/><path class="cls-2" d="M1252.87,1038.13a9.44,9.44,0,0,1-1.48-2c-2.3,7.61-4.31,15.6-6,24l1.8,1.2C1248.79,1053.23,1250.7,1045.5,1252.87,1038.13Z"/><path class="cls-2" d="M1321.09,785.13l-.3,0c-7.9,12.77-16.16,26.41-24.52,40.62,0,1.36,0,2.69,0,4,9.18-15.67,18.27-30.67,26.91-44.63A6.86,6.86,0,0,1,1321.09,785.13Z"/><path class="cls-2" d="M1223.75,965c-11.68,27.07-20.94,52.91-26.13,75.75l2,.46c5.15-22.66,14.36-48.43,26-75.42,7.87-18.24,16.86-37,26.45-55.84a12.74,12.74,0,0,1-1.61-1.23C1240.75,927.65,1231.69,946.6,1223.75,965Z"/><path class="cls-2" d="M1364.5,720.61l1.14-1.71c5.19-7.78,9.38-14,12.32-18.27l-.15-.08a6.69,6.69,0,0,1-1.4-1.21c-2.93,4.29-7.14,10.51-12.36,18.34a18.67,18.67,0,0,1-1.92,4.77A18.13,18.13,0,0,1,1364.5,720.61Z"/><path class="cls-2" d="M1359.65,725.68a12.25,12.25,0,0,1-1.91,1.52c-6.72,10.22-14.59,22.34-23.18,35.89,0,1.38,0,2.73-.18,4,9-14.3,17.32-27.09,24.39-37.83A7.79,7.79,0,0,1,1359.65,725.68Z"/><path class="cls-2" d="M1281.68,850.93q-7.77,13.67-15.41,27.72c.2,1,.38,2,.53,3,0,.06,0,.11,0,.17,5.3-9.8,10.69-19.52,16.12-29.08a6.53,6.53,0,0,1-1.11-1.51C1281.77,851.14,1281.73,851,1281.68,850.93Z"/><path class="cls-3" d="M1253,1038.22c2.64,2.6,6.25,3.64,9.66,4a22.54,22.54,0,0,0,5.06,0,18.15,18.15,0,0,0,4.82-1.17,17.82,17.82,0,0,0,4.34-2.4,22.63,22.63,0,0,0,3.72-3.43c2.23-2.61,4.19-5.82,4.38-9.51a9,9,0,0,0-1.34-5.21,9.75,9.75,0,0,0-1.9-2.24,12.28,12.28,0,0,0-2.7-1.82,17.34,17.34,0,0,0-7.38-1.78,22.89,22.89,0,0,0-6.91.92,18.79,18.79,0,0,1-2.21,4.85c-2.48,3.84-6,5.83-9.66,5.55a9.88,9.88,0,0,1-1.11-.16,12.24,12.24,0,0,0-.66,1.5,12.1,12.1,0,0,0-.76,3.16,9.56,9.56,0,0,0,.12,2.94,8.9,8.9,0,0,0,1,2.66,9.44,9.44,0,0,0,1.48,2Z"/><path class="cls-3" d="M1262.5,1020.49a18.79,18.79,0,0,0,2.21-4.85,25.87,25.87,0,0,0,.86-10.64c0-.09,0-.18,0-.28a26.64,26.64,0,0,0-.65-3.27,22.46,22.46,0,0,0-6-10.73c-3.33-3.12-7.25-4.2-10.72-3s-6,4.2-7.49,7.88a26.86,26.86,0,0,0,3,24.65,13.52,13.52,0,0,0,8.07,5.67,9.88,9.88,0,0,0,1.11.16C1256.49,1026.32,1260,1024.33,1262.5,1020.49Z"/><path class="cls-3" d="M1282,975.51a13,13,0,0,0,6.57,6.92,26.47,26.47,0,0,0,26.19-2.14c3.31-2.47,5.48-5.77,5.51-9.46s-2.15-7-5.87-9.38a24,24,0,0,0-14.62-3.17,26,26,0,0,0-4.12.65,19.45,19.45,0,0,1-2.6,4.28c-2.68,3.31-6.2,5.11-9.86,4.77-.19,0-.38-.07-.57-.1a10,10,0,0,0-1.16,4.84,9.11,9.11,0,0,0,.13,1.27A9.42,9.42,0,0,0,1282,975.51Z"/><path class="cls-3" d="M1293.08,963.21a19.45,19.45,0,0,0,2.6-4.28,22.9,22.9,0,0,0,1.07-2.95,24.74,24.74,0,0,0,.84-4.06c.09-.71.16-1.44.19-2.19a23.1,23.1,0,0,0-3.62-13.81c-2.41-3.5-5.78-5.58-9.46-5.53s-7,2.19-9.39,5.5a24.76,24.76,0,0,0-1,25.87c2,3.3,4.94,5.6,8.36,6.12.19,0,.38.08.57.1C1286.88,968.32,1290.4,966.52,1293.08,963.21Z"/><path class="cls-3" d="M1337.9,915a21.58,21.58,0,0,1,7.56-2,21.52,21.52,0,0,0,1.12-2.88c.14-.46.28-.92.39-1.39a19.7,19.7,0,0,0-1.35-13.55,11.27,11.27,0,0,0-8.66-6.36,13,13,0,0,0-10,3.57,20.29,20.29,0,0,0-5.21,21.93,12.9,12.9,0,0,0,7.3,7.67l.27.09a10,10,0,0,0,2,.45C1332,919.54,1334.23,916.83,1337.9,915Z"/><path class="cls-3" d="M1337.9,915c-3.67,1.79-6,4.5-6.57,7.52,0,.21-.07.41-.09.62a7.93,7.93,0,0,0-.09,1c0,3.69,2.17,7,5.29,9.67a31,31,0,0,0,25.3,6.07c4-.95,7.44-2.91,9.1-6.22s1-7.36-1.87-11.18-8-7.24-14.33-8.76a28.37,28.37,0,0,0-8.86-.72h-.32A21.58,21.58,0,0,0,1337.9,915Z"/><path class="cls-3" d="M1368.76,900.6a11.7,11.7,0,0,0,7.57,7.33,20,20,0,0,0,22.85-8.65,11.7,11.7,0,0,0,.78-10.63,12.56,12.56,0,0,0-8.19-6.7,19.64,19.64,0,0,0-21.35,8.08,13,13,0,0,0-2.09,8.58,11,11,0,0,0,.38,1.86A.5.5,0,0,0,1368.76,900.6Z"/><path class="cls-3" d="M1377.81,700.55l.15.08c6.27,3.71,18.13-4.13,26.61-17.64s10.41-27.81,4.18-31.72-18.21,3.94-26.75,17.55c-7.83,12.47-10,25.42-5.59,30.52A6.69,6.69,0,0,0,1377.81,700.55Z"/><path class="cls-3" d="M1401,722.86c-4-3.25-10.27-5.74-17.42-6.31s-13.7.92-18.18,3.5c-.32.18-.63.37-.93.56a18.13,18.13,0,0,0-2.37,1.84,17.22,17.22,0,0,1-1.15,1.76,14.56,14.56,0,0,1-1.33,1.47,7.79,7.79,0,0,0-.88,3.61,5.72,5.72,0,0,0,0,.58c.31,3.67,3.18,6.75,7.28,9a42.57,42.57,0,0,0,31.37,2.47c4.41-1.59,7.72-4.18,8.61-7.76S1405.08,726.11,1401,722.86Z"/><path class="cls-3" d="M1361,724.21a17.22,17.22,0,0,0,1.15-1.76,18.67,18.67,0,0,0,1.92-4.77,22.93,22.93,0,0,0,.58-7.93,20.61,20.61,0,0,0-6.46-13.43c-3.3-2.85-7.18-3.68-10.63-2.44s-6,4.13-7.54,7.44a21.26,21.26,0,0,0,2.18,21.62,13.84,13.84,0,0,0,8.87,5.78,9.68,9.68,0,0,0,6.69-1.52,12.25,12.25,0,0,0,1.91-1.52A14.56,14.56,0,0,0,1361,724.21Z"/><path class="cls-3" d="M1327.76,782.63a6.36,6.36,0,0,0,0,1.31c.25,3.68,3.52,6.78,8.49,9a54,54,0,0,0,38,0c5-2.18,8.23-5.29,8.48-9s-2.63-7.21-7.61-9.86-12-4.36-19.89-4.35-14.91,1.73-19.88,4.38a22.47,22.47,0,0,0-3.17,2,21.74,21.74,0,0,1-1.1,2.27A17,17,0,0,1,1327.76,782.63Z"/><path class="cls-3" d="M1334.38,759.27a38.71,38.71,0,0,0-2.55-10.33,27.76,27.76,0,0,0-4.63-7.7c-3.54-4.07-7.64-5.71-11.11-4.57s-5.82,4.7-7.14,9.24a47.76,47.76,0,0,0,3.26,31.63c2.16,4.06,5,7,8.58,7.54l.3,0a6.86,6.86,0,0,0,2.07-.08,9.42,9.42,0,0,0,4.6-2.42,17,17,0,0,0,3.27-4.25,21.74,21.74,0,0,0,1.1-2.27,30.34,30.34,0,0,0,1.86-6.21c.16-.9.29-1.83.39-2.78.13-1.3.18-2.65.18-4S1334.51,760.56,1334.38,759.27Z"/><path class="cls-3" d="M1286.77,848.7a7.74,7.74,0,0,1-5.52-1.44,6.42,6.42,0,0,0,.43,3.67c0,.1.09.21.15.32a6.53,6.53,0,0,0,1.11,1.51c2.13,2.22,5.83,3.28,10.11,3.86q1,.14,2,.21c.67,0,1.38.14,2.08.18,1.4,0,2.88.16,4.38.15,3,.09,6.19,0,9.53-.14s6.51-.31,9.51-.64c1.49-.11,3-.34,4.35-.51.69-.09,1.39-.24,2.06-.35s1.32-.23,2-.37c5.07-1.11,9.26-2.85,10.74-6.26a6.86,6.86,0,0,0-.35-5.7,12.33,12.33,0,0,0-2.08-3.15,19.77,19.77,0,0,0-3.36-3.07c-.67-.49-1.38-1-2.15-1.45s-1.58-.88-2.43-1.31a35.46,35.46,0,0,0-5.66-2.18,43.24,43.24,0,0,0-27.19,1.11l-.47.19C1294.92,841.85,1291.57,848,1286.77,848.7Z"/><path class="cls-3" d="M1296.27,825.7a60.72,60.72,0,0,0-.67-7.05c-2.4-15.47-10.24-27.11-17.51-26s-11.23,14.58-8.83,30.06c1.79,11.57,6.63,21,12,24.53a7.74,7.74,0,0,0,5.52,1.44c4.8-.74,8.15-6.85,9.18-15.37.15-1.17.25-2.39.3-3.65S1296.31,827.06,1296.27,825.7Z"/><path class="cls-3" d="M1256.77,911.25a7.46,7.46,0,0,1-4.18-1c1.39,2.81,4.39,4.86,8.2,6.13a41,41,0,0,0,31.07-3.72c4-2.48,6.62-5.71,6.72-9.4s-2.5-7.1-7-9.44-11-3.51-18-2.68a36.93,36.93,0,0,0-6.28,1.32,36.73,36.73,0,0,1-1.86,9.7C1263.51,907.54,1260.43,911,1256.77,911.25Z"/><path class="cls-3" d="M1266.27,878.65a42.57,42.57,0,0,0-6.65-16.25c-3.33-4.61-7.25-7-10.85-6.24s-6.22,4.46-7.66,9.76-1.75,12.19-.68,19.57,3.32,13.91,6.21,18.58a21.13,21.13,0,0,0,3.79,4.65A12.74,12.74,0,0,0,1252,910l.55.32a7.46,7.46,0,0,0,4.18,1c3.66-.3,6.74-3.71,8.62-9.07a36.73,36.73,0,0,0,1.86-9.7,51.64,51.64,0,0,0-.43-10.64c0-.06,0-.11,0-.17C1266.65,880.64,1266.47,879.64,1266.27,878.65Z"/><path class="cls-3" d="M1202.73,983.52c7.64-8.7,9.35-19.69,3.82-24.55-5.16-4.52-14.79-2.11-22.26,5.29-.27.26-.52.54-.78.82.25.36.5.73.73,1.09a24.63,24.63,0,0,1,3.67,9.29,13.32,13.32,0,0,1-.74,7.46,7.11,7.11,0,0,1-4,3.88,10.72,10.72,0,0,1-5.46.4c-.42-.06-.84-.14-1.26-.23a9.07,9.07,0,0,0,2.42,3.51c.19.16.39.29.59.44a9,9,0,0,0,1.91,1.08C1187.23,994.39,1196.11,991.05,1202.73,983.52Z"/><path class="cls-3" d="M1183.18,986.8a7.11,7.11,0,0,0,4-3.88,13.32,13.32,0,0,0,.74-7.46,24.63,24.63,0,0,0-3.67-9.29c-.23-.36-.48-.73-.73-1.09-.36-.52-.75-1-1.15-1.52a33.5,33.5,0,0,0-6-5.85,34,34,0,0,0-9.63-5.09,26.1,26.1,0,0,0-8.57-1.41c-5.12.09-9,1.94-10.59,5.23s-.64,7.48,2,11.52a45.35,45.35,0,0,0,10.8,11,47.62,47.62,0,0,0,11.74,6.65,29.89,29.89,0,0,0,4.41,1.32c.42.09.84.17,1.26.23A10.72,10.72,0,0,0,1183.18,986.8Z"/><path class="cls-3" d="M1191.08,916a12.09,12.09,0,0,0,1.51-4.45,12.1,12.1,0,0,1-1.71.2,6.68,6.68,0,0,1-5.18-2,8.53,8.53,0,0,1-1-1.33,10.07,10.07,0,0,1-.8-1.68,12.27,12.27,0,0,1-.59-4.47,19.17,19.17,0,0,1,3.69-10c.38-.52.78-1,1.21-1.52a60.52,60.52,0,0,0-3-5.41c-4.6-7.37-10.34-13-15.6-16.08s-10-3.69-12.9-1.42-3.45,6.93-2.29,12.57,4,12.34,8.17,19,8.9,12.18,13.46,15.72,9,5.09,12.29,3.5l.35-.19A6.7,6.7,0,0,0,1191.08,916Z"/><path class="cls-3" d="M1183.27,902.31a12.27,12.27,0,0,0,.59,4.47,10.07,10.07,0,0,0,.8,1.68,8.53,8.53,0,0,0,1,1.33,6.68,6.68,0,0,0,5.18,2,12.1,12.1,0,0,0,1.71-.2c1.19-.23,2.33-.59,3.43-.9l1.19-.34,1.17-.27a12.05,12.05,0,0,1,2.11-.12,17.87,17.87,0,0,0,3.62-.13,12.67,12.67,0,0,0,3.55-1.18,38.51,38.51,0,0,0,5.38-3.22,26.76,26.76,0,0,0,5.42-5,12.87,12.87,0,0,0,2.78-5.93,7.91,7.91,0,0,0-1.07-5.35,13,13,0,0,0-3.79-3.82,19,19,0,0,0-4.94-2.39,17.69,17.69,0,0,0-6.44-.71,24.25,24.25,0,0,0-8.45,2.21l-.52.23c-.59.29-1.17.61-1.73.94a24.36,24.36,0,0,0-6.13,5.13c-.43.49-.83,1-1.21,1.52A19.17,19.17,0,0,0,1183.27,902.31Z"/><path class="cls-3" d="M1203.76,848.05a12.16,12.16,0,0,0,3.3-5.76,11.74,11.74,0,0,1-1.4-2.84,12.5,12.5,0,0,1,.73-9.49c-.13-.4-.29-.81-.45-1.22-.24-.6-.49-1.21-.78-1.8a23.72,23.72,0,0,0-8.33-9.7c-3.35-2.14-7.12-3.1-10.64-2s-6,4.18-7.06,8.45a24.22,24.22,0,0,0,12.38,25.63c3.49,1.64,7,1.77,9.85.39a8.88,8.88,0,0,0,1.16-.66A11.14,11.14,0,0,0,1203.76,848.05Z"/><path class="cls-3" d="M1205.66,839.45a11.74,11.74,0,0,0,1.4,2.84c3.35,5,10.31,7.3,17,5.07,7.82-2.61,12.27-10.39,9.94-17.37s-10.56-10.52-18.38-7.91a16.22,16.22,0,0,0-7.18,4.78,15,15,0,0,0-2,3.1A12.5,12.5,0,0,0,1205.66,839.45Z"/><path class="cls-3" d="M1211.66,812.28a14.33,14.33,0,0,0,9.86-3.67,19.77,19.77,0,0,0,6.56-19.78,14.23,14.23,0,0,0-5.7-8.83c-3.06-2-7-2.16-10.84-.18s-7.42,6-9.21,11.44-1.36,10.85.54,14.68a10.83,10.83,0,0,0,7.23,6.1,10.5,10.5,0,0,0,1.49.23Z"/><path class="cls-3" d="M117.83,1094.84a1.49,1.49,0,0,1-.33-1.23l20.42-110A113.21,113.21,0,0,0,56.26,1092.3c0,1,0,1.94.05,2.9h62A1.43,1.43,0,0,1,117.83,1094.84Z"/><path class="cls-3" d="M1046.33,1066.07a68.71,68.71,0,0,1,25.68-9.21h0l11.62-1.57h0l.95-.13-.79-7.83c-.63-.07-1.25-.16-1.85-.26a17.14,17.14,0,0,1-5.93-2,6.87,6.87,0,0,1-3.36-4.19c-.22-.66-.46-1.5-.72-2.51-.53-2-1.15-4.73-1.88-8.11-1.44-6.77-3.25-16.19-5.36-27.86-3.19-17.62-7-40.37-11.29-66.78a137.4,137.4,0,0,0-53.81-10.81c-3.27,0-6.51.12-9.72.34-3.12,27.87-6.12,52.3-8.83,70.88-2.2,15.14-4.21,26.37-6,32.59a25.72,25.72,0,0,1-1.37,3.87l0,0a12.67,12.67,0,0,1-6.39,5.81c0,.52,0,1,0,1.6C1001.11,1042.92,1029.72,1052.69,1046.33,1066.07Z"/><path class="cls-3" d="M314.84,1035.74a51.49,51.49,0,0,1-4.19-3.53,1.49,1.49,0,0,1-.46-1.25c.35-3.33,1.21-8.23,2.49-14.5s3-13.89,5-22.6c4.12-17.4,9.63-39.13,15.92-62.94.81-3,1.63-6.14,2.46-9.25q-6.59-.57-13.33-.58a153.11,153.11,0,0,0-123.24,62.09,113.37,113.37,0,0,0-30.07-4c-3.19,0-6.34.14-9.46.4l-26,114.68a1.47,1.47,0,0,1-.79,1H298.3l7.77-28Z"/><path class="cls-3" d="M592.41,1040.42h-8.48c.47,2.83,1,6.08,1.74,9.83,5.16.09,10.62.34,16.18.87,14.28,1.38,29.15,4.57,40.73,11.67a49.62,49.62,0,0,1,18.34,20A44.29,44.29,0,0,1,665,1094.2a1.51,1.51,0,0,1-.18,1H828.54c-.07-.73-.11-1.47-.11-2.21,0-26.73,41.87-48.93,96.88-53.29l1-6.48,0,0a1.51,1.51,0,0,1-.91-1.12s-4.23-23.77-10.71-77.61c-19.2,15.87-32.77,37-37.74,60.9-66.32-32.59-111.88,21.88-127.76,56.5-21.23-36.44-79.1-64.13-150.33-70.52-2.89,23.34-4.9,37.78-4.9,37.78A1.51,1.51,0,0,1,592.41,1040.42Z"/><path class="cls-3" d="M468.05,1094.21,441.54,977.45a154.53,154.53,0,0,0-26-25.14l-54.07,95.88a1.49,1.49,0,0,1-1.33.76c-1.62,0-3.21-.09-4.8-.17-.31,1.47-.61,3-.93,4.6,3.31.06,6.29.17,9,.39a57.23,57.23,0,0,1,15.54,3.14,88.29,88.29,0,0,1,16.25,8.28,49.48,49.48,0,0,1,18.34,20,47.62,47.62,0,0,1,3.78,10h51.52A1.5,1.5,0,0,1,468.05,1094.21Z"/><path class="cls-3" d="M546.85,1040.42h-6a1.49,1.49,0,0,1-1.48-1.25c-1.89-11.23-4.34-23.86-7.09-37.49a303.13,303.13,0,0,0-62.52,12.71l14.7,79.22a1.52,1.52,0,0,1-.32,1.23,1.6,1.6,0,0,1-.46.36h61.12l1.25-34.27Z"/><path class="cls-3" d="M1178.61,1037.41l-2-.25a217,217,0,0,0-25.31-1.46q-9.91,0-19.44.87c0,.24,0,.48,0,.69,0,1.57,0,2.39,0,2.39a1.51,1.51,0,0,1-1.11,1.48s-1.89.5-5,1.22c.21,3.62.52,9.46.77,16,.22,5.92.39,12.4.39,18.34,0,3.39-.06,6.6-.19,9.43a63,63,0,0,1-.68,7.21,18,18,0,0,1-.41,1.86H1274c-3.46-12.74-13-24.35-26.81-33.87l-1.8-1.2c-12.41-8.15-28.07-14.67-45.84-18.92l-2-.46C1191.51,1039.36,1185.16,1038.24,1178.61,1037.41Z"/><path class="cls-4" d="M910,1056.86h0l12.9-1.74,2.34-15.41c-55,4.36-96.88,26.56-96.88,53.29,0,.74,0,1.48.11,2.21h32.15a52.35,52.35,0,0,1,9-16.21C876.91,1070,889.41,1060.12,910,1056.86Z"/><path class="cls-4" d="M1046.33,1066.07c-16.61-13.38-45.22-23.15-79-26.16-.09,6.43-.25,14.25-.53,22h0c-.37,10.51-1,20.88-1.9,27.66a36.73,36.73,0,0,1-1.09,5.52l0,.1h58.9a52.57,52.57,0,0,1,9-16.21A57.5,57.5,0,0,1,1046.33,1066.07Z"/><path class="cls-5" d="M393.64,334.62a1.5,1.5,0,0,1,1.87-.42h0l.07,0,.32.14a11.91,11.91,0,0,0,1.29.45,16.5,16.5,0,0,0,4.63.67,16.75,16.75,0,0,0,9.94-3.34c3.64-2.61,7.49-7.17,10.87-15a118.87,118.87,0,0,0,9.18-44.38v-.26l-.37.17a17.92,17.92,0,0,1-6.88,1.23,51.81,51.81,0,0,1-6.57-.55,49.14,49.14,0,0,0-6-.52,11.4,11.4,0,0,0-6.23,1.52,10.53,10.53,0,0,0-4.21,4.51,12.24,12.24,0,0,0-1,5.35,39,39,0,0,0,.54,5.65,39,39,0,0,1,.57,5.41,8.31,8.31,0,0,1-.62,3.42,5.29,5.29,0,0,1-2.54,2.62h0a5,5,0,0,1-2.26.56,4.88,4.88,0,0,1-3.2-1.27,11.43,11.43,0,0,1-2.21-2.69,69.2,69.2,0,0,1-3.27-6.57,18.49,18.49,0,0,0-1.84-3.25,2.23,2.23,0,0,0-.68-.64l-.06,0h0a1.73,1.73,0,0,0-.25.16,1.81,1.81,0,0,0-.43.58,5.62,5.62,0,0,0-.4,1.27,21.53,21.53,0,0,0-.32,4.23c0,3.73.43,8.53.43,13.2a42.2,42.2,0,0,1-.52,7.21,15.84,15.84,0,0,1-2.24,6.16,9.2,9.2,0,0,1-3.06,2.92l-.09.05a16.86,16.86,0,0,1-7.55,1.72,27.94,27.94,0,0,1-11.78-3,51.41,51.41,0,0,1-5.71-3.22c-1.5,8.45-3.11,15.65-4.74,21.76,8.14.87,20.6,2.29,31.06,3.92,3.51.55,6.78,1.12,9.61,1.7.11-.46.22-.93.34-1.38A29.18,29.18,0,0,1,393.64,334.62Z"/><path d="M431.82,272.51v.26a118.87,118.87,0,0,1-9.18,44.38c-3.38,7.83-7.23,12.39-10.87,15a16.75,16.75,0,0,1-9.94,3.34,16.5,16.5,0,0,1-4.63-.67,11.91,11.91,0,0,1-1.29-.45l-.32-.14-.07,0h0a1.5,1.5,0,0,0-1.87.42,29.18,29.18,0,0,0-4.44,10.09c-.12.45-.23.92-.34,1.38,1,.22,2,.43,2.92.65.11-.42.21-.84.32-1.25a29.58,29.58,0,0,1,3.27-8.11,19.54,19.54,0,0,0,6.46,1.11,19.8,19.8,0,0,0,11.69-3.9c4.18-3,8.33-8.06,11.88-16.25a122,122,0,0,0,9.42-45.57c0-.68,0-1.35,0-2A14.89,14.89,0,0,1,431.82,272.51Z"/><path d="M348.19,340.47c1.63-6.11,3.24-13.31,4.74-21.76-.93-.6-1.84-1.23-2.71-1.86-1.59,9.18-3.32,16.87-5.05,23.31Z"/><path class="cls-5" d="M560.47,1059.78a121.54,121.54,0,0,0,21.5-1.63,59.19,59.19,0,0,0,14.55-4.45c-4.16-.28-8.24-.43-12.11-.48A1.5,1.5,0,0,1,583,1052c-.85-4.51-1.52-8.33-2.06-11.58h-31l-.69,19.12C552.89,1059.67,556.67,1059.78,560.47,1059.78Z"/><path d="M546.58,1059.89a1.46,1.46,0,0,1,1.08-.4l1.5,0,.69-19.12h-3l-.75,20.51A1.52,1.52,0,0,1,546.58,1059.89Z"/><path d="M584.41,1053.22c3.87,0,8,.2,12.11.48a59.19,59.19,0,0,1-14.55,4.45,121.54,121.54,0,0,1-21.5,1.63,121.54,121.54,0,0,0,21.5-1.63,54.77,54.77,0,0,0,19-6.81,1.5,1.5,0,0,1,.92-.22c-5.56-.53-11-.78-16.18-.87-.7-3.75-1.27-7-1.74-9.83h-3c.54,3.25,1.21,7.07,2.06,11.58A1.5,1.5,0,0,0,584.41,1053.22Z"/><path class="cls-5" d="M661.29,1091.74a47.5,47.5,0,0,0-20.28-26.4c-10.8-6.64-25.09-9.81-39-11.18a58,58,0,0,1-19.53,6.94,118.17,118.17,0,0,1-19.26,1.66l-2.78,0c-3.86,0-7.67-.11-11.42-.25l-1.17,32,113.77-1.6C661.55,1092.62,661.43,1092.2,661.29,1091.74Z"/><path d="M665,1094.2a44.29,44.29,0,0,0-4.08-11.36,49.62,49.62,0,0,0-18.34-20c-11.58-7.1-26.45-10.29-40.73-11.67a1.5,1.5,0,0,0-.92.22,54.77,54.77,0,0,1-19,6.81,121.54,121.54,0,0,1-21.5,1.63c-3.8,0-7.58-.11-11.31-.24l-1.5,0a1.46,1.46,0,0,0-1.08.4,1.52,1.52,0,0,0-.48,1l-1.25,34.27h120A1.51,1.51,0,0,0,665,1094.2Zm-116-31.67c3.75.14,7.56.25,11.42.25l2.78,0a118.17,118.17,0,0,0,19.26-1.66,58,58,0,0,0,19.53-6.94c13.88,1.37,28.17,4.54,39,11.18a47.5,47.5,0,0,1,20.28,26.4c.14.46.26.88.36,1.24l-113.77,1.6Z"/><path class="cls-5" d="M312.33,1066.24c16,0,31.81-2.75,45.63-9.77-1.7-.06-3.5-.1-5.42-.12a1.5,1.5,0,0,1-1.46-1.79q.62-3.15,1.2-6a87.05,87.05,0,0,1-19.22-3.55,60,60,0,0,1-15.63-7.42l-7.95,28.58C310.43,1066.21,311.38,1066.24,312.33,1066.24Z"/><path d="M352.28,1048.58q-.58,2.84-1.2,6a1.5,1.5,0,0,0,1.46,1.79c1.92,0,3.72.06,5.42.12-13.82,7-29.64,9.77-45.63,9.77-.95,0-1.9,0-2.85,0l7.95-28.58c-.88-.6-1.74-1.22-2.59-1.87l-8.77,31.51a1.5,1.5,0,0,1,1.5-1.09c1.59,0,3.18.08,4.76.08,17.77,0,35.35-3.38,50.19-12.26a1.46,1.46,0,0,1,.89-.21c-2.75-.22-5.73-.33-9-.39.32-1.6.62-3.13.93-4.6C354.28,1048.73,353.28,1048.66,352.28,1048.58Z"/><path class="cls-5" d="M410.87,1086.59a46.68,46.68,0,0,0-17.24-18.85,85.85,85.85,0,0,0-15.7-8,53.65,53.65,0,0,0-14.31-2.93c-15.37,9-33.32,12.43-51.29,12.44-1.22,0-2.45,0-3.68-.07l-7.23,26h112.8c-.09-.32-.19-.67-.31-1.06A47.21,47.21,0,0,0,410.87,1086.59Z"/><path d="M395.2,1065.19a88.29,88.29,0,0,0-16.25-8.28,57.23,57.23,0,0,0-15.54-3.14,1.46,1.46,0,0,0-.89.21c-14.84,8.88-32.42,12.26-50.19,12.26-1.58,0-3.17,0-4.76-.08a1.5,1.5,0,0,0-1.5,1.09l-7.77,28h3.12l7.23-26c1.23,0,2.46.07,3.68.07,18,0,35.92-3.39,51.29-12.44a53.65,53.65,0,0,1,14.31,2.93,85.85,85.85,0,0,1,15.7,8,46.68,46.68,0,0,1,17.24,18.85,47.21,47.21,0,0,1,3,7.55c.12.39.22.74.31,1.06h3.1a47.62,47.62,0,0,0-3.78-10A49.48,49.48,0,0,0,395.2,1065.19Z"/><path d="M297.48,1098.2A1.48,1.48,0,0,0,299,1100l117.21-1.64a1.59,1.59,0,0,0,.64-.16Z"/><path class="cls-5" d="M317,1010.39c-1.95,8.92-3.26,15.85-3.77,20.13a54.14,54.14,0,0,0,20.7,11.65,91.33,91.33,0,0,0,25.3,3.76L429,922.27l-12.39-54.56-18-79.48H376.83c-6.39,21.42-13.11,44.69-19.7,68.11C340.26,916.29,324.26,977.21,317,1010.39Z"/><path class="cls-5" d="M446.84,890.64,502.5,792a233,233,0,0,1,4-41.05c-17,2.44-32.9,4.26-47.88,5.53a31.15,31.15,0,0,1,1.29,8.85,23,23,0,0,1-22.95,23h-9.11l14.64,78.87Z"/><path d="M333.64,930.92c-6.29,23.81-11.8,45.54-15.92,62.94-2.05,8.71-3.76,16.33-5,22.6s-2.14,11.17-2.49,14.5a1.49,1.49,0,0,0,.46,1.25,51.49,51.49,0,0,0,4.19,3.53c.85.65,1.71,1.27,2.59,1.87a60,60,0,0,0,15.63,7.42,87.05,87.05,0,0,0,19.22,3.55c1,.08,2,.15,3,.2,1.59.08,3.18.15,4.8.17a1.49,1.49,0,0,0,1.33-.76l54.07-95.88L430,926.62l-1-4.35-69.74,123.66a91.33,91.33,0,0,1-25.3-3.76,54.14,54.14,0,0,1-20.7-11.65c.51-4.28,1.82-11.21,3.77-20.13,7.23-33.18,23.23-94.1,40.1-154,6.59-23.42,13.31-46.69,19.7-68.11H373.7c-12.44,41.75-26.12,90.4-37.6,133.44C335.27,924.78,334.45,927.87,333.64,930.92Z"/><path d="M447.7,895.23l54.75-97.08v-.45c0-1.93,0-3.84.05-5.75l-55.66,98.69Z"/><polygon class="cls-5" points="379.77 641.26 379.77 641.26 379.77 641.27 379.77 641.26"/><path class="cls-5" d="M509.45,748.09a1.5,1.5,0,0,1,.38,1.34c-3.07,14.5-4.38,30.83-4.38,48.27,0,39.36,6.66,84.4,14.62,127.19,7.84,42.21,16.94,82.22,22.09,112.53H591.1c0-.22.07-.47.11-.76.18-1.35.45-3.35.8-5.94.69-5.17,1.67-12.69,2.86-22.08,2.36-18.78,5.52-45,8.68-74.95,6.31-59.81,12.62-134.23,12.62-192.54,0-16.07-.48-30.92-1.57-43.88s-2.78-24-5.19-32.57a59.12,59.12,0,0,0-3.23-8.92l-.61,0a15.38,15.38,0,0,1-6.38-1.51,27.66,27.66,0,0,1-5.92-3.81,63,63,0,0,1-10.22-11.24,122.44,122.44,0,0,1-9.57-15.51c-5.87-1.31-48.73-11-109.22-27.86a62.79,62.79,0,0,1-7.52-2.61c-10.23-.61-19.77-.83-28.17-.83-5.3,0-10.15.09-14.43.22-4.39,2.1-45.3,21.43-86.77,31.4-14.63,3.51-29.34,5.87-42.59,5.87-10,0-19.14-1.33-26.84-4.58a34.19,34.19,0,0,1-16.68-14.2A157.58,157.58,0,0,0,238,642.43c0,19.23,4.1,39.91,16.6,58.24,8.62,12.63,21.24,24.19,39.39,33.44H428.72a31.2,31.2,0,0,1,28.5,18.51c.13.29.24.59.36.89,15.75-1.32,32.57-3.25,50.56-5.87A1.48,1.48,0,0,1,509.45,748.09Zm-128-101.18a22.74,22.74,0,0,1-6.87,9.76,21.77,21.77,0,0,1-9.71,4.39,1.5,1.5,0,0,1-.56-2.95,18.76,18.76,0,0,0,2.12-.53l12.95-14.06a15.62,15.62,0,0,0,.44-2.26h0a1.5,1.5,0,0,1,3,.29A22.68,22.68,0,0,1,381.4,646.91Z"/><path d="M607.29,655.68c-.37.05-.74.08-1.11.1a59.12,59.12,0,0,1,3.23,8.92c2.41,8.52,4.1,19.6,5.19,32.57s1.57,27.81,1.57,43.88c0,58.31-6.31,132.73-12.62,192.54-3.16,29.91-6.32,56.17-8.68,74.95-1.19,9.39-2.17,16.91-2.86,22.08-.35,2.59-.62,4.59-.8,5.94,0,.29-.08.54-.11.76H542.16c-5.15-30.31-14.25-70.32-22.09-112.53-8-42.79-14.62-87.83-14.62-127.19,0-17.44,1.31-33.77,4.38-48.27a1.5,1.5,0,0,0-.38-1.34,1.48,1.48,0,0,0-1.31-.45c-18,2.62-34.81,4.55-50.56,5.87.39,1,.73,1.92,1,2.92,15-1.27,30.91-3.09,47.88-5.53a233,233,0,0,0-4,41.05c0,1.91-.05,3.82-.05,5.75v.45c.05,39.58,6.73,84.58,14.67,127.29,5,27,10.54,53.06,15.21,76.24,2.75,13.63,5.2,26.26,7.09,37.49a1.49,1.49,0,0,0,1.48,1.25h51.51a1.51,1.51,0,0,0,1.49-1.29s2-14.44,4.9-37.78c2.23-18,5-41.29,7.73-67.35,6.32-59.86,12.64-134.33,12.64-192.85,0-21.51-.86-40.86-2.89-56.58a145.22,145.22,0,0,0-4-20.68,61.37,61.37,0,0,0-3.58-9.8c-.08.21-.14.41-.22.62A1.5,1.5,0,0,1,607.29,655.68Z"/><path d="M293.94,734.11c-18.15-9.25-30.77-20.81-39.39-33.44-12.5-18.33-16.6-39-16.6-58.24a157.58,157.58,0,0,1,3.31-31.29c-.37-.62-.74-1.24-1.07-1.89s-.74-1.58-1.08-2.4A163.75,163.75,0,0,0,235,642.43a113.53,113.53,0,0,0,6.94,40.33c7.28,19.27,21.28,37.59,45.71,51.35Z"/><path d="M456.74,593.26a62.07,62.07,0,0,1-6.79-3.35c-7.67-.34-14.87-.48-21.38-.48-3.93,0-7.62.05-11,.13-.85.91-1.73,1.8-2.65,2.65a1.51,1.51,0,0,1-.37.25l-.39.19c4.28-.13,9.13-.22,14.43-.22C437,592.43,446.51,592.65,456.74,593.26Z"/><path class="cls-5" d="M392.82,350.1c-2.9-.8-7.14-1.63-11.94-2.41s-10.19-1.53-15.45-2.2c-10.52-1.33-20.53-2.36-24.45-2.74l-.46-.05L338,353.19c1.57,0,3.17.05,4.81.05,5.64,0,11.67-.16,17.82-.16a155.31,155.31,0,0,1,23.56,1.45,62.54,62.54,0,0,1,19.22,5.91,10.7,10.7,0,0,0-1.59-4.48C400.36,353.75,397.8,351.49,392.82,350.1Z"/><path d="M338,353.19l2.55-10.49.46.05c3.92.38,13.93,1.41,24.45,2.74,5.26.67,10.64,1.42,15.45,2.2s9,1.61,11.94,2.41c5,1.39,7.54,3.65,9,5.86a10.7,10.7,0,0,1,1.59,4.48c.75.39,1.49.79,2.22,1.22.3.17.58.36.87.54,0-.11,0-.23,0-.35a13.94,13.94,0,0,0-2.17-7.5c-1.82-2.87-5.14-5.62-10.69-7.14-.57-.16-1.19-.31-1.84-.47-.9-.22-1.88-.43-2.92-.65-2.83-.58-6.1-1.15-9.61-1.7-10.46-1.63-22.92-3.05-31.06-3.92l-3-.31-5.65-.57a1.49,1.49,0,0,0-1.6,1.14l-3,12.36C335.91,353.13,336.93,353.17,338,353.19Z"/><path class="cls-6" d="M406.27,510.22c-5.89-.45-8.94-2.59-9.11-2.72a1.49,1.49,0,0,1-.52-.67l-21.95-56.94a1.5,1.5,0,0,1,1.92-1.94l30.45-81.73A40.51,40.51,0,0,0,400,362.1c-11.35-5.18-25.52-6-39.35-6-6.1,0-12.12.16-17.82.16-4,0-7.92-.08-11.55-.36-23.7,23.42-45.08,61.77-61.35,104.36-16.37,42.85-27.59,90-31,130.57a41.22,41.22,0,0,0,4,17.09A29.46,29.46,0,0,0,252.49,619c8.05,5.62,19.33,8,32.29,8,24.19,0,54-8.14,78.77-16.82s44.53-17.89,48.81-19.93l.65-.31a56.63,56.63,0,0,0,14.05-21.57,116.51,116.51,0,0,1-14.65-31.24A187.86,187.86,0,0,1,406.27,510.22Z"/><path d="M240.19,609.25c.33.65.7,1.27,1.07,1.89a34.19,34.19,0,0,0,16.68,14.2c7.7,3.25,16.86,4.58,26.84,4.58,13.25,0,28-2.36,42.59-5.87,41.47-10,82.38-29.3,86.77-31.4l.39-.19a1.51,1.51,0,0,0,.37-.25c.92-.85,1.8-1.74,2.65-2.65a60,60,0,0,0,11.58-18.37c-.71-1-1.4-1.92-2.07-2.9A56.63,56.63,0,0,1,413,589.86l-.65.31c-4.28,2-24,11.24-48.81,19.93S309,626.93,284.78,626.92c-13,0-24.24-2.34-32.29-8a29.46,29.46,0,0,1-9.62-11.06,41.22,41.22,0,0,1-4-17.09c3.43-40.58,14.65-87.72,31-130.57,16.27-42.59,37.65-80.94,61.35-104.36,3.63.28,7.5.36,11.55.36,5.7,0,11.72-.16,17.82-.16,13.83,0,28,.84,39.35,6a40.51,40.51,0,0,1,7.11,4.12h0l-.31-.24,0,0h0a1.5,1.5,0,1,1,1.77-2.42s1.45,1.06,3.82,3.07a41.22,41.22,0,0,0-5.84-4.41c-.29-.18-.57-.37-.87-.54-.73-.43-1.47-.83-2.22-1.22a62.54,62.54,0,0,0-19.22-5.91,155.31,155.31,0,0,0-23.56-1.45c-6.15,0-12.18.16-17.82.16-1.64,0-3.24,0-4.81-.05-1,0-2.06-.06-3.06-.1-1.42-.06-2.8-.14-4.13-.25a1.51,1.51,0,0,0-1.18.42c-24.39,23.9-46,62.78-62.52,105.91s-27.77,90.54-31.22,131.49v.18a46.14,46.14,0,0,0,3.26,16C239.45,607.67,239.8,608.48,240.19,609.25Z"/><path class="cls-5" d="M377.2,648.86a22.7,22.7,0,0,0,2.13-5.34l-12.95,14.06a18.21,18.21,0,0,0,6.17-3.17A18.7,18.7,0,0,0,377.2,648.86Z"/><path d="M381.41,639.92a1.5,1.5,0,0,0-1.64,1.34h0a15.62,15.62,0,0,1-.44,2.26,22.7,22.7,0,0,1-2.13,5.34,18.7,18.7,0,0,1-4.65,5.55,18.21,18.21,0,0,1-6.17,3.17,18.76,18.76,0,0,1-2.12.53,1.5,1.5,0,0,0,.56,2.95,21.77,21.77,0,0,0,9.71-4.39,24.12,24.12,0,0,0,8.23-15.12A1.5,1.5,0,0,0,381.41,639.92Zm-1.64,1.35Z"/><polygon class="cls-5" points="120.78 1092.38 131.3 1092.38 182.06 868.88 162.26 868.88 120.78 1092.38"/><path d="M117.83,1094.84a1.43,1.43,0,0,0,.45.36h14.89a1.47,1.47,0,0,0,.79-1l26-114.68,25.4-111.82a1.51,1.51,0,0,1-1.47,1.17h-1.88l-50.75,223.5H120.78l41.48-223.5H161a1.47,1.47,0,0,1-1.15-.55,1.48,1.48,0,0,1-.33-1.23L137.92,983.59l-20.42,110A1.49,1.49,0,0,0,117.83,1094.84Z"/><polygon points="162.81 865.88 182.74 865.88 200.37 788.23 177.22 788.23 162.81 865.88"/><path d="M159.86,868.33a1.47,1.47,0,0,0,1.15.55h22.92a1.51,1.51,0,0,0,1.47-1.17l18-79.48h-3.08l-17.63,77.65H162.81l14.41-77.65h-3.05L159.53,867.1A1.48,1.48,0,0,0,159.86,868.33Z"/><polygon points="439.2 865.88 424.79 788.23 401.64 788.23 419.27 865.88 439.2 865.88"/><path d="M416.91,866.44a1.47,1.47,0,0,1,1.17-.56H441a1.5,1.5,0,0,1,1.48,1.22l-14.64-78.87h-3l14.41,77.65H419.27l-17.63-77.65h-3.07l18,79.48A1.49,1.49,0,0,1,416.91,866.44Z"/><polygon class="cls-5" points="439.75 868.88 419.96 868.88 470.71 1092.38 481.23 1092.38 439.75 868.88"/><path d="M484.51,1093.61l-14.7-79.22L447.7,895.23l-.86-4.59-4.36-23.54a1.5,1.5,0,0,0-1.48-1.22H418.08a1.47,1.47,0,0,0-1.17.56,1.49,1.49,0,0,0-.3,1.27L429,922.27l1,4.35,11.55,50.83,26.51,116.76a1.5,1.5,0,0,0,.79,1h14.89a1.6,1.6,0,0,0,.46-.36A1.52,1.52,0,0,0,484.51,1093.61Zm-13.8-1.23L420,868.88h19.8l41.47,223.5Z"/><path d="M598.53,207.72h9.06v-1.5h0a1.5,1.5,0,0,1,3,0v1.5h9.07a67.22,67.22,0,0,0,67.22-67.2V38.44a1.5,1.5,0,0,0-1.5-1.5H667.44v3h16.44V140.52a64.2,64.2,0,0,1-64.22,64.2H598.53a64.2,64.2,0,0,1-64.22-64.2V39.94h16.28v-3H532.81a1.5,1.5,0,0,0-1.06.44,1.52,1.52,0,0,0-.44,1.06V140.52A67.2,67.2,0,0,0,598.53,207.72Z"/><path d="M609.09,204.72a1.5,1.5,0,0,0-1.5,1.5h0v85.66a54.32,54.32,0,0,0,108.63,0v-75.1a36,36,0,0,1,36-36h0a36,36,0,0,1,36.06,36v24.95c.49,0,1,0,1.5,0s1,0,1.5,0V216.78a39.06,39.06,0,0,0-39.06-39h0a39,39,0,0,0-39,39v75.1a51.32,51.32,0,0,1-102.63,0V206.22A1.5,1.5,0,0,0,609.09,204.72Z"/><path class="cls-6" d="M805.36,251.12a21.95,21.95,0,1,0,6.44,15.53A21.88,21.88,0,0,0,805.36,251.12Z"/><path d="M788.33,241.73a25,25,0,1,0,3,0c-.5,0-1,0-1.5,0S788.82,241.7,788.33,241.73Zm1.5,46.89a22,22,0,1,1,15.53-6.44A21.93,21.93,0,0,1,789.83,288.62Z"/><path class="cls-5" d="M553.59,41.39l20.9,3a2.57,2.57,0,0,0,1.37-.4A3.57,3.57,0,0,0,577,42.8,8.58,8.58,0,0,0,578,38.44a9.46,9.46,0,0,0-.61-3.45,4.42,4.42,0,0,0-1.57-2.12,2.57,2.57,0,0,0-1.38-.4l-20.89,3Z"/><path d="M550.59,42.69a1.51,1.51,0,0,0,1.28,1.49l22.35,3.22.21,0a5.56,5.56,0,0,0,3-.88A7.35,7.35,0,0,0,580.22,43a12.46,12.46,0,0,0,.82-4.56,11.58,11.58,0,0,0-1.49-5.92,6.76,6.76,0,0,0-2.08-2.18,5.56,5.56,0,0,0-3-.88l-.21,0L551.87,32.7a1.51,1.51,0,0,0-1.28,1.49v8.5Zm23.89-10.22a2.57,2.57,0,0,1,1.38.4A4.42,4.42,0,0,1,577.43,35a9.46,9.46,0,0,1,.61,3.45A8.58,8.58,0,0,1,577,42.8,3.57,3.57,0,0,1,575.86,44a2.57,2.57,0,0,1-1.37.4l-20.9-3V35.48Z"/><path class="cls-5" d="M664.44,35.48l-20.9-3a2.57,2.57,0,0,0-1.37.4,3.57,3.57,0,0,0-1.12,1.21A8.58,8.58,0,0,0,640,38.44a9.26,9.26,0,0,0,.61,3.45A4.36,4.36,0,0,0,642.17,44a2.57,2.57,0,0,0,1.37.4l20.9-3Z"/><path d="M667.44,34.19a1.51,1.51,0,0,0-1.29-1.49l-22.34-3.22-.21,0a5.62,5.62,0,0,0-3.05.88,7.33,7.33,0,0,0-2.74,3.54,12.46,12.46,0,0,0-.82,4.56,11.48,11.48,0,0,0,1.49,5.92,6.63,6.63,0,0,0,2.07,2.18,5.62,5.62,0,0,0,3.05.88l.21,0,22.34-3.22a1.51,1.51,0,0,0,1.29-1.49v-8.5Zm-23.9,10.22a2.57,2.57,0,0,1-1.37-.4,4.36,4.36,0,0,1-1.57-2.12,9.26,9.26,0,0,1-.61-3.45,8.58,8.58,0,0,1,1.06-4.36,3.57,3.57,0,0,1,1.12-1.21,2.57,2.57,0,0,1,1.37-.4l20.9,3v5.91Z"/><path d="M1125.26,1096.53a3.21,3.21,0,0,1-1.13,1.34,2.15,2.15,0,0,1-1.14.33h-99.21a1.48,1.48,0,0,1-1.18-.58,1.5,1.5,0,0,1-.27-1.28s.11-.45.33-1.14h-58.9a7.22,7.22,0,0,1-.9,2,2.58,2.58,0,0,1-1,.86,2.07,2.07,0,0,1-.84.18H861.8a1.5,1.5,0,0,1-1.45-1.86s.11-.45.34-1.14H41.63a1.5,1.5,0,0,0,0,3H1293.54a1.5,1.5,0,0,0,0-3h-167.8A8,8,0,0,1,1125.26,1096.53Z"/><path d="M1034.32,1080.47a50.68,50.68,0,0,0-8.49,14.73h96.73a3.93,3.93,0,0,0,.22-.54,21.65,21.65,0,0,0,.71-4c.38-3.53.53-8.5.53-14s-.14-11.14-.33-16.57a97.36,97.36,0,0,1-13.46.91h0a176.81,176.81,0,0,1-23.54-1.87h0a14.52,14.52,0,0,1-3-.86l-11.2,1.51C1052.91,1062.94,1041.23,1072,1034.32,1080.47Z"/><path d="M1125.36,1059.9c-.56.09-1.12.15-1.67.23.19,5.43.33,11.23.33,16.57s-.15,10.42-.53,14a21.65,21.65,0,0,1-.71,4,3.93,3.93,0,0,1-.22.54h-96.73a50.68,50.68,0,0,1,8.49-14.73c6.91-8.43,18.59-17.53,38.16-20.65l11.2-1.51-.4-.16a1.51,1.51,0,0,1,.39-2.87l-11.62,1.57h0a68.71,68.71,0,0,0-25.68,9.21,57.5,57.5,0,0,0-14.68,12.92,52.57,52.57,0,0,0-9,16.21c-.22.69-.33,1.11-.33,1.14a1.5,1.5,0,0,0,.27,1.28,1.48,1.48,0,0,0,1.18.58H1123a2.15,2.15,0,0,0,1.14-.33,3.21,3.21,0,0,0,1.13-1.34,8,8,0,0,0,.48-1.33,18,18,0,0,0,.41-1.86,63,63,0,0,0,.68-7.21c.13-2.83.19-6,.19-9.43,0-5.94-.17-12.42-.39-18.34A1.51,1.51,0,0,1,1125.36,1059.9Z"/><path d="M1110.23,1061h0a176.81,176.81,0,0,1-23.54-1.87h0A176.81,176.81,0,0,0,1110.23,1061Z"/><path class="cls-3" d="M1110.23,1058a94,94,0,0,0,13.35-.92c-.23-5.68-.49-10.72-.68-14.09-1.89.42-4,.88-6.36,1.34-8.18,1.62-18.46,3.24-27,3.25-.91,0-1.79,0-2.65-.07l.88,8.74A172.58,172.58,0,0,0,1110.23,1058Z"/><path d="M1122.9,1043c.19,3.37.45,8.41.68,14.09a94,94,0,0,1-13.35.92,172.58,172.58,0,0,1-22.48-1.75l-.88-8.74c-1,0-2.07-.12-3-.23l.79,7.83-.95.13h0a1.51,1.51,0,0,0-.39,2.87l.4.16a14.52,14.52,0,0,0,3,.86h0a176.81,176.81,0,0,0,23.54,1.87h0a97.36,97.36,0,0,0,13.46-.91c.55-.08,1.11-.14,1.67-.23a1.51,1.51,0,0,0,1.27-1.54c-.25-6.55-.56-12.39-.77-16Z"/><path class="cls-3" d="M926,1055.41c7.7,2.95,16.15,5.62,24.43,6.29.69,0,1.38.1,2.07.13l1.86,0a37.69,37.69,0,0,0,9.5-1.17c.26-7.58.41-15.15.5-21.36a30.43,30.43,0,0,1-7.26.81c-7,0-14.65-1.75-20.6-3.48-3-.86-5.49-1.71-7.29-2.36Z"/><path d="M923.7,1055a1.55,1.55,0,0,1,1.14,0c8,3.12,16.87,6,25.55,6.72-8.28-.67-16.73-3.34-24.43-6.29l3.21-21.11c-1.66-.59-2.69-1-2.88-1.08l-1,6.48L923,1055.11Z"/><path d="M963.82,1060.69c.35-.09.7-.16,1-.26a1.51,1.51,0,0,1,1.92,1.49h0c.28-7.76.44-15.58.53-22,0-.55,0-1.08,0-1.6l-.5.23a19.27,19.27,0,0,1-2.51.79C964.23,1045.54,964.08,1053.11,963.82,1060.69Z"/><path d="M963.71,1063.83a41.89,41.89,0,0,1-9.39,1c-10.37,0-20.86-3.33-30.08-6.89l-13.74,1.85c-19.57,3.12-31.24,12.22-38.16,20.65a50.68,50.68,0,0,0-8.49,14.73h96.7a8.51,8.51,0,0,0,.6-1.83,61.32,61.32,0,0,0,1.18-7.65C963,1079.77,963.4,1071.9,963.71,1063.83Z"/><path d="M964.88,1089.58c.94-6.78,1.53-17.15,1.9-27.66h0a1.51,1.51,0,0,0-1.92-1.49c-.34.1-.69.17-1,.26a37.69,37.69,0,0,1-9.5,1.17l-1.86,0c-.69,0-1.38-.08-2.07-.13-8.68-.71-17.56-3.6-25.55-6.72a1.55,1.55,0,0,0-1.14,0l-.73.1-12.9,1.74h0c-20.63,3.26-33.13,13.11-40.36,22.13a52.35,52.35,0,0,0-9,16.21c-.23.69-.33,1.11-.34,1.14a1.5,1.5,0,0,0,1.45,1.86H961a2.07,2.07,0,0,0,.84-.18,2.58,2.58,0,0,0,1-.86,7.22,7.22,0,0,0,.9-2l0-.1A36.73,36.73,0,0,0,964.88,1089.58Zm-4.33,5.62h-96.7a50.68,50.68,0,0,1,8.49-14.73c6.92-8.43,18.59-17.53,38.16-20.65l13.74-1.85c9.22,3.56,19.71,6.89,30.08,6.89a41.89,41.89,0,0,0,9.39-1c-.31,8.07-.75,15.94-1.38,21.89a61.32,61.32,0,0,1-1.18,7.65A8.51,8.51,0,0,1,960.55,1095.2Z"/><path d="M1013.89,638.77h.11l-6.87-183.63-2.59,0c.17,16.47.26,33.21.26,50.12,0,90.1-2.65,184.75-10.61,266a1.5,1.5,0,0,1-1.51,1.35c-28.61-.32-51.52-4.3-69.22-10.22a113.59,113.59,0,0,1-25.55-11.92q.86,13.08,2,26.17c14.39,170.28,26.79,245.36,28.28,254v0l2,.75c1.76.63,4.25,1.47,7.15,2.31,5.79,1.69,13.26,3.36,19.76,3.36a23.54,23.54,0,0,0,8.65-1.39,9.8,9.8,0,0,0,5.33-4.61,22.75,22.75,0,0,0,1.18-3.37c.43-1.52.89-3.4,1.37-5.61.95-4.42,2-10.15,3.07-17,2.17-13.68,4.57-31.82,7.1-53,5.07-42.33,10.65-96.75,16-151.86,5.11-52.92,10-106.48,13.92-150.61q-.55-4.65-1.08-9.28A1.49,1.49,0,0,1,1013.89,638.77Z"/><path d="M926.25,1033.2l0,0c.19.07,1.22.49,2.88,1.08s4.33,1.5,7.29,2.36c5.95,1.73,13.61,3.47,20.6,3.48a30.43,30.43,0,0,0,7.26-.81,19.27,19.27,0,0,0,2.51-.79l.5-.23a12.67,12.67,0,0,0,6.39-5.81l0,0a25.72,25.72,0,0,0,1.37-3.87c1.76-6.22,3.77-17.45,6-32.59,2.71-18.58,5.71-43,8.83-70.88,5.77-51.52,12-114.82,17.58-174.77,2.82-30.21,5.49-59.57,7.87-86.14q-.87-7.26-1.71-14.5c-3.94,44.13-8.81,97.69-13.92,150.61-5.32,55.11-10.9,109.53-16,151.86-2.53,21.17-4.93,39.31-7.1,53-1.09,6.84-2.12,12.57-3.07,17-.48,2.21-.94,4.09-1.37,5.61a22.75,22.75,0,0,1-1.18,3.37,9.8,9.8,0,0,1-5.33,4.61,23.54,23.54,0,0,1-8.65,1.39c-6.5,0-14-1.67-19.76-3.36-2.9-.84-5.39-1.68-7.15-2.31l-2-.75v0c-1.49-8.67-13.89-83.75-28.28-254q-1.11-13.08-2-26.17c-1.1-.71-2.15-1.42-3.15-2.14q.91,14.26,2.12,28.56c6.63,78.44,12.84,136.68,17.75,177.56,6.48,53.84,10.71,77.57,10.71,77.61A1.51,1.51,0,0,0,926.25,1033.2Z"/><path d="M1063.94,980.59c4.38,25.45,7.93,44.25,10.14,53.78.59,2.54,1.09,4.42,1.46,5.54a6.82,6.82,0,0,0,.39,1,5,5,0,0,0,1.68,1.59,11.67,11.67,0,0,0,3,1.2,35.37,35.37,0,0,0,8.94.94c7.68,0,17.1-1.4,24.9-2.89,6.7-1.28,12.2-2.63,14.48-3.2-.29-13.76-3-145.42-4.06-264.45-13,1.71-29.37,2.26-45.3,2.26-18.31,0-36-.73-46.89-1.29C1043.79,856.33,1055.43,931.08,1063.94,980.59Z"/><path d="M1011.86,455.17c-1.58,0-3.15,0-4.73,0L1014,638.77a1.49,1.49,0,0,1,1.55,1.32q.62,5.42,1.26,10.85-.1-12.53-.11-25.79c0-41.64.85-87.95,3.41-133.23.7-12.41,1.75-24.73,3-36.86C1019.38,455.13,1015.61,455.17,1011.86,455.17Z"/><path d="M1016.81,650.94q-.64-5.43-1.26-10.85a1.49,1.49,0,0,0-1.55-1.32h-.11a1.49,1.49,0,0,0-1.32,1.66q.52,4.64,1.08,9.28.84,7.24,1.71,14.5.89,7.44,1.8,14.9C1017,670.14,1016.89,660.72,1016.81,650.94Z"/><path d="M1126,773.93l-1.15.15c1,119,3.77,250.69,4.06,264.45-2.28.57-7.78,1.92-14.48,3.2-7.8,1.49-17.22,2.89-24.9,2.89a35.37,35.37,0,0,1-8.94-.94,11.67,11.67,0,0,1-3-1.2,5,5,0,0,1-1.68-1.59,6.82,6.82,0,0,1-.39-1c-.37-1.12-.87-3-1.46-5.54-2.21-9.53-5.76-28.33-10.14-53.78-8.51-49.51-20.15-124.26-31.29-205.54l-3.05-.17c6.6,48.18,13.38,94.08,19.58,133.82q2.17,14,4.26,26.89c4.25,26.41,8.1,49.16,11.29,66.78,2.11,11.67,3.92,21.09,5.36,27.86.73,3.38,1.35,6.1,1.88,8.11.26,1,.5,1.85.72,2.51a6.87,6.87,0,0,0,3.36,4.19,17.14,17.14,0,0,0,5.93,2c.6.1,1.22.19,1.85.26,1,.11,2,.18,3,.23.86,0,1.74.07,2.65.07,8.56,0,18.84-1.63,27-3.25,2.33-.46,4.47-.92,6.36-1.34l3-.68c3.07-.72,4.94-1.21,5-1.22a1.51,1.51,0,0,0,1.11-1.48s0-.82,0-2.39c0-.21,0-.45,0-.69-.44-21.18-3-148-4-262.91Z"/><path class="cls-6" d="M1007.32,340.17l13-40a1.5,1.5,0,0,1,1.89-1l23.86,7.76c.19-1.29.37-2.57.54-3.82q.46-8.72,1.2-18.84c2.57-34.45,5.49-79,7.11-104.21-6.78,4.15-16.79,7.65-31.17,7.64a31.43,31.43,0,0,1-13.3-2.66,24.17,24.17,0,0,1-5.78-3.74c.15,5.95.27,12.78.37,20.11.3,22.16.43,48.91.65,69.79.14,13.91.32,25.22.61,30.76.35,6.68.48,14.44.48,22,0,5.5-.07,10.92-.16,15.81l.14.06Z"/><path class="cls-6" d="M1011.86,452.17q5.79,0,11.6-.12.67-6.26,1.43-12.44l-20.63-6.71q.13,9.54.24,19.21Q1008.18,452.17,1011.86,452.17Z"/><path d="M1051,158a14.25,14.25,0,0,0,1.35.81c1,.54,2.36,1.17,3.82,1.81l0-.33s0-.08,0-.12l-1-.32a22.12,22.12,0,0,0-4.31-2.07,1.1,1.1,0,0,0,0,.18Z"/><path d="M1011.86,455.17c3.75,0,7.52,0,11.27-.11l.33-3q-5.81.12-11.6.12-3.69,0-7.36-.06c0,1,0,2,0,3l2.59,0C1008.71,455.16,1010.28,455.17,1011.86,455.17Z"/><path class="cls-5" d="M1115.77,330.07a1.5,1.5,0,0,1,.09,1.14l-9.38,28.84a85.73,85.73,0,0,1,15.41,2.68,31,31,0,0,1,5,1.92,341.69,341.69,0,0,0-5.7-34.32c-1.85-8-4.07-15.2-6.62-20.1a1.5,1.5,0,0,1,.64-2,1.53,1.53,0,0,1,.64-.17l-3.75-118.4c-2.29-1.48-4.68-3-7.12-4.44-4-2.43-8.24-4.8-12.29-7l-20,64.06,10,76.58,32.21,10.48A1.47,1.47,0,0,1,1115.77,330.07Z"/><path class="cls-5" d="M1075.72,454.57a1.51,1.51,0,0,1-.74.87,1.53,1.53,0,0,1-1.15.09l-46-15c-2,16.81-3.71,34.09-4.69,51.53-2.56,45.2-3.41,91.46-3.41,133.06,0,72.79,2.61,131.27,3.26,144.74,0,.64.06,1.17.08,1.6l3.52.22c3.09.18,7.53.42,12.9.66,10.74.49,25.21,1,40.08,1,10.71,0,21.64-.25,31.54-.93s18.75-1.8,25.26-3.5c4.33-1.11,7.62-2.53,9.37-4a4.35,4.35,0,0,0,1.64-2.47,30.25,30.25,0,0,0,.3-3.73c.07-1.77.11-4,.11-6.72,0-21.27-2.11-69.42-4.74-123.33s-5.8-113.64-7.9-158.16c-.46-9.73-.87-18.73-1.22-26.78a198,198,0,0,1-51.78-8.77Zm-36.61,49.69a4.15,4.15,0,1,1-4.15,4.15A4.15,4.15,0,0,1,1039.11,504.26Zm-4.15,61.2a4.15,4.15,0,1,1,4.15,4.15A4.15,4.15,0,0,1,1035,565.46Zm6.8,62.44a4.15,4.15,0,1,1,4.15-4.15A4.15,4.15,0,0,1,1041.76,627.9Zm0-163.8a4.15,4.15,0,1,1,4.15-4.15A4.15,4.15,0,0,1,1041.76,464.1Zm47.1,21a5.16,5.16,0,0,1-.12-.93h0a1.5,1.5,0,0,1,3,0h0v.07l0,.3c0,.25.13.6.24,1,.22.85.56,2,1,3.39a112.32,112.32,0,0,0,4.19,10.65c3.74,8.33,9.42,18.51,17,26.86a1.5,1.5,0,1,1-2.22,2c-11.16-12.24-18.1-27.87-21.28-36.87A52.43,52.43,0,0,1,1088.86,485.08Z"/><path d="M1092.67,178.2c4,2.2,8.24,4.57,12.29,7,2.44,1.47,4.83,3,7.12,4.44v-.16c-.21-.09-.41-.19-.62-.27h0a1.5,1.5,0,0,1,1.14-2.78l.11,0c-6.11-3.92-12.83-7.79-19.2-11.24a1.54,1.54,0,0,1-.06.52Z"/><path d="M1073.41,165.15c-1.47-.67-2.71-1.21-3.67-1.6-.49-.19-.9-.35-1.25-.47a5.43,5.43,0,0,0-1-.26,1.48,1.48,0,0,0-.47,0l15.88,6.92C1079.26,167.88,1076,166.32,1073.41,165.15Z"/><path d="M1046.44,307.05c.06-1.28.13-2.59.2-3.93-.17,1.25-.35,2.53-.54,3.82Z"/><path d="M1133.9,443.69c.35,8.05.76,17.05,1.22,26.78,2.1,44.52,5.26,104.23,7.9,158.16s4.74,102.06,4.74,123.33c0,2.69,0,4.95-.11,6.72a30.25,30.25,0,0,1-.3,3.73,4.35,4.35,0,0,1-1.64,2.47c-1.75,1.5-5,2.92-9.37,4-6.51,1.7-15.37,2.82-25.26,3.5s-20.83.93-31.54.93c-14.87,0-29.34-.48-40.08-1-5.37-.24-9.81-.48-12.9-.66l-3.52-.22c0-.43,0-1-.08-1.6-.65-13.47-3.26-71.95-3.26-144.74,0-41.6.85-87.86,3.41-133.06,1-17.44,2.65-34.72,4.69-51.53l-2.91-.95q-.75,6.18-1.43,12.44l-.33,3c-1.27,12.13-2.32,24.45-3,36.86-2.56,45.28-3.41,91.59-3.41,133.23q0,13.25.11,25.79c.08,9.78.2,19.2.35,28.17.93,55.6,3,93.86,3,93.87a1.5,1.5,0,0,0,1.39,1.42s3,.21,8.1.48l3.05.17c10.93.56,28.58,1.29,46.89,1.29,15.93,0,32.34-.55,45.3-2.26l1.15-.15,1.85-.27a69.9,69.9,0,0,0,14.56-3.54,19.15,19.15,0,0,0,5.25-3,7.3,7.3,0,0,0,2.65-4.22,32.7,32.7,0,0,0,.35-4.15q.11-2.76.11-6.84c0-14.29-.94-40.42-2.35-72.25-2.1-47.75-5.26-108.27-7.9-160.59-1.31-26.15-2.5-50.26-3.35-69.68-.09-1.94-.17-3.83-.25-5.67Z"/><path class="cls-5" d="M1011.74,182.32a28.27,28.27,0,0,0,12,2.39c15.29,0,25.15-4.05,31.41-8.38.35-5.46.62-9.76.8-12.53l-1-.42c-1.62-.71-3.12-1.42-4.29-2a12.63,12.63,0,0,1-1.68-1.07,3.22,3.22,0,0,1-.71-.75,2,2,0,0,1-.29-.78,89.31,89.31,0,0,1-.66-11.25c0-9.82,1.29-19.7,2.39-28.18a15.3,15.3,0,0,1-3.59-1.49,22,22,0,0,1-7-6.55,19.77,19.77,0,0,1-3.23-9.94c-.3-3.4-.2-6.79-.56-9.85a17.17,17.17,0,0,0-1.47-5.63,12.5,12.5,0,0,0-5.89-5.74c-9.54-1.37-17.83-6.61-23.79-11.49a72.16,72.16,0,0,1-9.48-9.31c-5.53,8.16-7.86,18.88-7.86,29.05a58.21,58.21,0,0,0,4,21.88l0,0c3.53,8.82,8.57,13.15,12.77,15.37a19.25,19.25,0,0,0,7.51,2.27h.28l9.49.6a1.45,1.45,0,0,1,1.11.6,1.49,1.49,0,0,1,.25,1.24,3.66,3.66,0,0,1-1,1.64,10.58,10.58,0,0,1-1.47,1.22,30.63,30.63,0,0,1-3.71,2.16c-1.68.86-3.31,1.57-4.25,2l-2.67,21.33a1.51,1.51,0,0,1-1,1.24h0l-.15.06-.63.22c-.54.2-1.33.5-2.3.89l-1.34.55c.07.6.13,1.27.19,2,.18,2.38.34,5.51.47,9.25,0,1.28.09,2.63.14,4A20.89,20.89,0,0,0,1011.74,182.32Z"/><path d="M1011.21,127.9a19.25,19.25,0,0,1-7.51-2.27c-4.2-2.22-9.24-6.55-12.77-15.37l0,0a58.21,58.21,0,0,1-4-21.88c0-10.17,2.33-20.89,7.86-29l-.23-.28a1.59,1.59,0,0,1-.3-.66,16.67,16.67,0,0,1-.26-2.88c0-.07,0-.13,0-.19a40.77,40.77,0,0,0-5.36,8.95,60.27,60.27,0,0,0-4.72,24.11c0,8.62,1.57,16.82,4.2,23h0v0h0c3.82,9.58,9.56,14.54,14.37,17a23.12,23.12,0,0,0,7,2.32l.12-1.45A1.5,1.5,0,0,1,1011.21,127.9Z"/><path d="M1003.49,159.59c.07.32.12.67.18,1.08s.08.62.11,1l1.34-.55c1-.39,1.76-.69,2.3-.89l.63-.22.15-.06h0a1.51,1.51,0,0,0,1-1.24l2.67-21.33-.83.35a1.5,1.5,0,0,1-2.05-1.52v0l-2.65,21.24c-.72.27-1.82.68-3.2,1.25a.47.47,0,0,1,.06.09A5.53,5.53,0,0,1,1003.49,159.59Z"/><path d="M1023.78,187.71c14.38,0,24.39-3.49,31.17-7.64.08-1.3.16-2.55.24-3.74-6.26,4.33-16.12,8.38-31.41,8.38a28.27,28.27,0,0,1-12-2.39,20.89,20.89,0,0,1-7.16-5.38c0,1.4.08,2.85.12,4.37a24.17,24.17,0,0,0,5.78,3.74A31.43,31.43,0,0,0,1023.78,187.71Z"/><path d="M1049.77,119.3c-1.1,8.48-2.39,18.36-2.39,28.18a89.31,89.31,0,0,0,.66,11.25,2,2,0,0,0,.29.78,3.22,3.22,0,0,0,.71.75,12.63,12.63,0,0,0,1.68,1.07c1.17.63,2.67,1.34,4.29,2l1,.42,0-.27c.09-1.46.15-2.44.18-2.91-1.46-.64-2.81-1.27-3.82-1.81A14.25,14.25,0,0,1,1051,158l0,0a1.1,1.1,0,0,1,0-.18,85.33,85.33,0,0,1-.58-10.3c0-9.55,1.26-19.27,2.35-27.75A12.6,12.6,0,0,1,1049.77,119.3Z"/><path d="M1011.41,127.91h0Z"/><path class="cls-5" d="M980.3,424.65a1.53,1.53,0,0,1-.09-1.15L993,384.1a58,58,0,0,1-8.92-7.07,24.4,24.4,0,0,1-3.77-4.64,10.94,10.94,0,0,1-1.21-5.47,34.36,34.36,0,0,1,3.3-13.38,36.27,36.27,0,0,1,5.09-8.25l-30.59-28.72a1.49,1.49,0,0,1-.42-1.47l22.66-86.66-11.41-54.36L920.37,290.79a1.5,1.5,0,0,1,.92,1.58s-.09.66-.25,1.88-.39,3-.68,5.26c-.58,4.5-1.39,10.86-2.32,18.32-1.86,14.91-4.18,34.2-6,51.68a160.3,160.3,0,0,0-.94,17.12c0,12.23,1.49,23,3.47,35.95s4.42,28.19,6.29,49.23a1.34,1.34,0,0,1,0,.4,60.54,60.54,0,0,1-1.42,6l5.13,9.45,2.24-11.6a1.5,1.5,0,1,1,2.94.57l-3,15.64c-.06.54-.44,4.26-1.24,9.29A127.15,127.15,0,0,1,921.27,520a37,37,0,0,1-5,10.5,10.72,10.72,0,0,1-4.09,3.51,5.89,5.89,0,0,1-.8.29,1.44,1.44,0,0,1-.68.29l-11.06,1.51a1.5,1.5,0,1,1-.4-3l7.62-1a117.82,117.82,0,0,1-8.88-16.2c-2.55,3-4.26,4.8-4.28,4.82a1.56,1.56,0,0,1-1.21.45,1.5,1.5,0,0,1-1.1-.65s-.59-.87-1.61-2.46c-2.64,35.81-4.86,70.26-6.58,100.43-2.6,45.47-4,81.22-4,97.09,0,2.12,0,3.89.08,5.26a23.57,23.57,0,0,0,.22,2.84c.78,4.52,3.46,9.64,8.29,14.76s11.8,10.24,21,14.8c18.27,9,45.43,15.83,82.51,16.4,7.84-80.84,10.47-174.84,10.47-264.38,0-24.91-.2-49.47-.55-73.31l-20.08-6.53A1.48,1.48,0,0,1,980.3,424.65Z"/><path d="M980.64,162.58l4.32-1C983.65,161.83,982.2,162.15,980.64,162.58Z"/><path d="M966.61,168.62l-.79.45-.9.56,1.76-.68Z"/><path d="M897.91,750.49a113.59,113.59,0,0,0,25.55,11.92c17.7,5.92,40.61,9.9,69.22,10.22a1.5,1.5,0,0,0,1.51-1.35c8-81.3,10.61-175.95,10.61-266,0-16.91-.09-33.65-.26-50.12,0-1,0-2,0-3q-.11-9.67-.24-19.21l-3-1c.35,23.84.55,48.4.55,73.31,0,89.54-2.63,183.54-10.47,264.38-37.08-.57-64.24-7.39-82.51-16.4-9.24-4.56-16.21-9.68-21-14.8s-7.51-10.24-8.29-14.76a23.57,23.57,0,0,1-.22-2.84c0-1.37-.08-3.14-.08-5.26,0-15.87,1.45-51.62,4-97.09,1.72-30.17,3.94-64.62,6.58-100.43-.7-1.1-1.61-2.56-2.68-4.35-1.14,15.3-2.21,30.37-3.19,45-4.89,72.83-7.76,134.38-7.76,156.89,0,2.15,0,3.94.08,5.37a27.7,27.7,0,0,0,.26,3.24c.93,5.28,3.94,10.87,9.07,16.31a62.76,62.76,0,0,0,9.16,7.88C895.76,749.07,896.81,749.78,897.91,750.49Z"/><path class="cls-5" d="M1069.65,242.32a1.72,1.72,0,0,1,.06-.64l20.46-65.53-31.1-13.54c-.78,12.36-4.82,76-8.23,121.9q-1,12.9-1.44,23.51l30.13,9.8Z"/><path d="M1056.19,160.62c0,.47-.09,1.45-.18,2.91l0,.27c-.18,2.77-.45,7.07-.8,12.53-.08,1.19-.16,2.44-.24,3.74-1.62,25.24-4.54,69.76-7.11,104.21q-.75,10.14-1.2,18.84c-.07,1.34-.14,2.65-.2,3.93l3,1q.49-10.62,1.44-23.51c3.41-45.87,7.45-109.54,8.23-121.9l31.1,13.54-20.46,65.53a1.72,1.72,0,0,0-.06.64l9.88,75.5,3.16,1-10-76.58,20-64.06.77-2.44a1.54,1.54,0,0,0,.06-.52,1.5,1.5,0,0,0-.9-1.3l-9.65-4.2-15.88-6.92-8.76-3.81a1.5,1.5,0,0,0-1.38.09,1.52,1.52,0,0,0-.7,1.07s0,.08,0,.12Z"/><path class="cls-5" d="M1115.83,308a1.51,1.51,0,0,1,1.38.81c2.76,5.31,5,12.68,6.88,20.8s3.37,17,4.53,25.2c.6,4.28,1.11,8.37,1.54,12.1l62.1-27.63,0,0h0a1.52,1.52,0,0,1,.37-1.67,533.09,533.09,0,0,0-17.79-56.73c-11.32-29.74-24.17-53.71-37.29-70-8.53-10.58-17.17-17.87-25.46-21.43v.16Z"/><path d="M1110.63,187.25a1.51,1.51,0,0,0,.82,2h0c.21.08.41.18.62.27,8.29,3.56,16.93,10.85,25.46,21.43,13.12,16.26,26,40.23,37.29,70a533.09,533.09,0,0,1,17.79,56.73,1.5,1.5,0,0,1,2.41.53s1.33,3.26,3,8.64c-8.8-36.75-19.93-69-32.23-94.93-8.21-17.28-16.94-31.73-25.88-42.82s-18-18.77-27.17-22.55l-.11,0A1.5,1.5,0,0,0,1110.63,187.25Z"/><path d="M1204.1,385.83c0,.36,0,.74,0,1.1l.85-.24a1.5,1.5,0,0,0,1-1.7c-1-5.49-2-10.9-3.11-16.23A124.62,124.62,0,0,1,1204.1,385.83Z"/><path d="M1128.62,354.85c-1.16-8.21-2.66-17.08-4.53-25.2s-4.12-15.49-6.88-20.8a1.51,1.51,0,0,0-1.38-.81,1.53,1.53,0,0,0-.64.17,1.5,1.5,0,0,0-.64,2c2.55,4.9,4.77,12.11,6.62,20.1a341.69,341.69,0,0,1,5.7,34.32,15.42,15.42,0,0,1,2.8,1.78,1.4,1.4,0,0,1,.42.55l.07,0C1129.73,363.22,1129.22,359.13,1128.62,354.85Z"/><path class="cls-5" d="M1000.92,388.51a52.22,52.22,0,0,1-5.27-2.77L983.52,423l89.81,29.2,5.93-18.21c-1.39-.46-2.78-.95-4.16-1.45-21.26-7.72-40.5-19.64-52.54-36.59a1.52,1.52,0,0,1-.26-1.12c.15-.86.31-1.71.46-2.54-4.19-.36-9.59-.93-14.2-1.75A36.13,36.13,0,0,1,1000.92,388.51Z"/><path class="cls-5" d="M1022.74,302.5,1010,341.66c.93.53,1.87,1.08,2.84,1.59a35.32,35.32,0,0,1,7.53,5.9,101.24,101.24,0,0,1,7.15,7.89c2,2.41,3.73,4.68,5,6.44.55-1,.89-1.45.92-1.48a1.49,1.49,0,0,1,1.09-.63s24-2.29,48.21-2.29c7.06,0,14.13.2,20.64.71l9.13-28.08Z"/><path d="M1022.24,299.18a1.5,1.5,0,0,0-1.89,1l-13,40c.9.47,1.78,1,2.67,1.49l12.75-39.16,89.8,29.21-9.13,28.08.86.06,2.21.2,9.38-28.84a1.5,1.5,0,0,0-.09-1.14,1.47,1.47,0,0,0-.87-.75l-32.21-10.48-3.16-1L1049.4,308l-3-1-.34-.11Z"/><path d="M1024.89,439.61l2.91.95,46,15a1.53,1.53,0,0,0,1.15-.09,1.51,1.51,0,0,0,.74-.87l6.4-19.65c-1-.3-1.91-.6-2.86-.92l-5.93,18.21L983.52,423l12.13-37.27c-.87-.52-1.75-1.06-2.62-1.64l-12.82,39.4a1.53,1.53,0,0,0,.09,1.15,1.48,1.48,0,0,0,.87.74l20.08,6.53,3,1Z"/><path class="cls-5" d="M910.11,531.52a4.78,4.78,0,0,0,2.24-1.14,13.71,13.71,0,0,0,2.88-3.75,54.13,54.13,0,0,0,4.62-12.54,163.71,163.71,0,0,0,3.84-21.78l-5.53-10.19A103.6,103.6,0,0,1,905.54,506c-1.89,2.72-3.72,5.15-5.36,7.2.09.24.17.47.28.72A113.18,113.18,0,0,0,910.11,531.52Z"/><path d="M910.33,531.6a1.49,1.49,0,0,1,1.69,1.28,1.47,1.47,0,0,1-.6,1.4,5.89,5.89,0,0,0,.8-.29,10.72,10.72,0,0,0,4.09-3.51,37,37,0,0,0,5-10.5,127.15,127.15,0,0,0,4.21-18.47c.8-5,1.18-8.75,1.24-9.29l0,.07a1.5,1.5,0,1,1-2.94-.57l.79-4.11-5.13-9.45q-.57,2-1.26,4l5.53,10.19a163.71,163.71,0,0,1-3.84,21.78,54.13,54.13,0,0,1-4.62,12.54,13.71,13.71,0,0,1-2.88,3.75,4.78,4.78,0,0,1-2.24,1.14,113.18,113.18,0,0,1-9.65-17.58c-.11-.25-.19-.48-.28-.72-.77,1-1.49,1.85-2.16,2.65a117.82,117.82,0,0,0,8.88,16.2Z"/><path class="cls-5" d="M967.76,174.08l-.46-2.16c-11.51,4.31-23.13,11.87-34.35,22-12.12,11-23.77,25-34.34,41.15-21.16,32.31-38,73.21-45.93,115.59a166.54,166.54,0,0,0-2.76,30.63c0,35.3,10.31,68.69,21,93.72a291.47,291.47,0,0,0,22,42.17c.57-.63,1.31-1.46,2.19-2.49,2.12-2.49,5-6.07,8-10.42,6-8.66,12.53-20.36,14.77-32.45C916,451,913.56,436,911.59,423s-3.5-23.92-3.5-36.4a166.24,166.24,0,0,1,.95-17.44c3.68-35,9.28-77.21,9.28-77.21a1.5,1.5,0,0,1,1.68-1.29,1.2,1.2,0,0,1,.37.1Z"/><path d="M889.82,518c1,1.59,1.6,2.44,1.61,2.46a1.5,1.5,0,0,0,1.1.65,1.56,1.56,0,0,0,1.21-.45s1.73-1.78,4.28-4.82c.67-.8,1.39-1.68,2.16-2.65,1.64-2.05,3.47-4.48,5.36-7.2a103.6,103.6,0,0,0,12.62-23.9q.69-2,1.26-4a60.54,60.54,0,0,0,1.42-6,1.34,1.34,0,0,0,0-.4c-1.87-21-4.32-36.24-6.29-49.23s-3.47-23.72-3.47-35.95a160.3,160.3,0,0,1,.94-17.12c1.83-17.48,4.15-36.77,6-51.68.93-7.46,1.74-13.82,2.32-18.32.29-2.25.52-4,.68-5.26s.25-1.88.25-1.88a1.5,1.5,0,0,0-.92-1.58,1.2,1.2,0,0,0-.37-.1,1.5,1.5,0,0,0-1.68,1.29s-5.6,42.2-9.28,77.21a166.24,166.24,0,0,0-.95,17.44c0,12.48,1.53,23.41,3.5,36.4s4.4,28,6.26,48.83c-2.24,12.09-8.76,23.79-14.77,32.45-3,4.35-5.9,7.93-8,10.42-.88,1-1.62,1.86-2.19,2.49a291.47,291.47,0,0,1-22-42.17c-10.65-25-21-58.42-21-93.72a166.54,166.54,0,0,1,2.76-30.63c7.91-42.38,24.77-83.28,45.93-115.59C909.18,219,920.83,204.94,933,194c11.22-10.17,22.84-17.73,34.35-22l-.62-3-1.76.68c-11.52,4.55-23,12.13-34,22.11-18.52,16.79-35.81,40.34-50,67.72a332.43,332.43,0,0,0-31.22,90.69,169.26,169.26,0,0,0-2.81,31.18c0,37.05,11.13,71.8,22.25,97.31a305.05,305.05,0,0,0,18,35C888.21,515.47,889.12,516.93,889.82,518Z"/><path class="cls-5" d="M995.89,339a11.88,11.88,0,0,1,4.35-.86,12.06,12.06,0,0,1,3.43.52c.08-4.57.14-9.54.14-14.6,0-7.58-.13-15.29-.47-21.89-.41-7.71-.6-25.91-.77-46.9s-.32-44.73-.65-63.37c-.22-12.42-.52-22.6-1-28.11-.08-1.1-.17-2-.27-2.7l-31.1,7.15,12.59,60a1.6,1.6,0,0,1,0,.69L959.64,315l29.94,28.11a20.12,20.12,0,0,1,1.57-1.36A19.79,19.79,0,0,1,995.89,339Z"/><path d="M967.3,171.92l.46,2.16,11.41,54.36L956.51,315.1a1.49,1.49,0,0,0,.42,1.47l30.59,28.72a23.74,23.74,0,0,1,2.06-2.18L959.64,315l22.52-86.14a1.6,1.6,0,0,0,0-.69l-12.59-60,31.1-7.15c.1.69.19,1.6.27,2.7.44,5.51.74,15.69,1,28.11.33,18.64.48,42.38.65,63.37s.36,39.19.77,46.9c.34,6.6.47,14.31.47,21.89,0,5.06-.06,10-.14,14.6a18.41,18.41,0,0,1,3,1.21c.09-4.89.16-10.31.16-15.81,0-7.61-.13-15.37-.48-22-.29-5.54-.47-16.85-.61-30.76-.22-20.88-.35-47.63-.65-69.79-.1-7.33-.22-14.16-.37-20.11,0-1.52-.08-3-.12-4.37s-.09-2.75-.14-4c-.13-3.74-.29-6.87-.47-9.25-.06-.75-.12-1.42-.19-2,0-.35-.07-.68-.11-1s-.11-.76-.18-1.08a5.53,5.53,0,0,0-.23-.87.47.47,0,0,0-.06-.09,1.48,1.48,0,0,0-1.68-.84L985,161.59l-4.32,1-13.16,3a1.49,1.49,0,0,0-1.13,1.77l.26,1.24.07.33Z"/><path d="M923.76,491.72a1.5,1.5,0,1,0,2.94.57l0-.07,3-15.64a1.5,1.5,0,1,0-2.94-.57l-2.24,11.6Z"/><path d="M912,532.88a1.49,1.49,0,0,0-1.69-1.28l-3.43.47-7.62,1a1.5,1.5,0,1,0,.4,3l11.06-1.51a1.44,1.44,0,0,0,.68-.29A1.47,1.47,0,0,0,912,532.88Z"/><path d="M1041.76,458.8a1.16,1.16,0,0,0-1.15,1.15,1.15,1.15,0,1,0,1.15-1.15Z"/><path d="M1041.76,455.8a4.15,4.15,0,1,0,4.15,4.15A4.16,4.16,0,0,0,1041.76,455.8Zm0,5.3a1.15,1.15,0,0,1-1.15-1.15,1.15,1.15,0,0,1,2.3,0A1.14,1.14,0,0,1,1041.76,461.1Z"/><path d="M1039.11,509.56a1.15,1.15,0,1,0-1.15-1.15A1.15,1.15,0,0,0,1039.11,509.56Z"/><path d="M1039.11,512.56a4.15,4.15,0,1,0-4.15-4.15A4.15,4.15,0,0,0,1039.11,512.56Zm0-5.3a1.15,1.15,0,1,1-1.15,1.15A1.15,1.15,0,0,1,1039.11,507.26Z"/><path d="M1039.11,566.61a1.15,1.15,0,1,0-1.15-1.15A1.15,1.15,0,0,0,1039.11,566.61Z"/><path d="M1043.26,565.46a4.15,4.15,0,1,0-4.15,4.15A4.14,4.14,0,0,0,1043.26,565.46Zm-4.15-1.15a1.15,1.15,0,0,1,0,2.3,1.15,1.15,0,1,1,0-2.3Z"/><path d="M1041.76,622.6a1.15,1.15,0,1,0,1.15,1.15A1.15,1.15,0,0,0,1041.76,622.6Z"/><path d="M1041.76,619.6a4.15,4.15,0,1,0,4.15,4.15A4.15,4.15,0,0,0,1041.76,619.6Zm0,5.3a1.15,1.15,0,0,1,0-2.3,1.15,1.15,0,1,1,0,2.3Z"/><path d="M1112.08,528.46a1.5,1.5,0,1,0,2.22-2c-7.63-8.35-13.31-18.53-17-26.86a112.32,112.32,0,0,1-4.19-10.65c-.46-1.38-.8-2.54-1-3.39-.11-.43-.19-.78-.24-1l0-.3v-.07h0a1.5,1.5,0,0,0-3,0h0a5.16,5.16,0,0,0,.12.93,52.43,52.43,0,0,0,1.94,6.51C1094,500.59,1100.92,516.22,1112.08,528.46Z"/><path d="M1017.36,131.29l-4.86-.31-.25,3,0,0a49.58,49.58,0,0,0,4.48-2.26Z"/><path d="M1009.65,137.5a1.51,1.51,0,0,0,1.45.19l.83-.35c.94-.4,2.57-1.11,4.25-2a30.63,30.63,0,0,0,3.71-2.16,10.58,10.58,0,0,0,1.47-1.22,3.66,3.66,0,0,0,1-1.64,1.49,1.49,0,0,0-.25-1.24,1.45,1.45,0,0,0-1.11-.6l-9.49-.6h-.28a1.5,1.5,0,0,0-1.58,1.37l-.12,1.45-.46,5.42v0A1.5,1.5,0,0,0,1009.65,137.5Zm2.63-3.59,0,0,.25-3,4.86.31-.6.36A49.58,49.58,0,0,1,1012.28,133.91Z"/><path class="cls-5" d="M1018.27,351.3a32.85,32.85,0,0,0-6.84-5.4c-2.23-1.18-4.17-2.42-6-3.33a11.57,11.57,0,0,0-5.2-1.47,8.76,8.76,0,0,0-3.26.66,16.28,16.28,0,0,0-4,2.37c-3.12,2.38-5.89,6.38-7.82,10.64a31.78,31.78,0,0,0-3,12.15,8,8,0,0,0,.8,3.94,21,21,0,0,0,3.3,4,48.2,48.2,0,0,0,4.93,4.23,59.46,59.46,0,0,0,11,6.64,29.35,29.35,0,0,0,5.87,1.62c2.46.48,5.27.89,8,1.22,2.59.3,5.13.55,7.32.73a97.75,97.75,0,0,1,7.62-22.92c-.74-1-1.69-2.31-2.82-3.77A116.82,116.82,0,0,0,1018.27,351.3Z"/><path d="M979.13,366.92a10.94,10.94,0,0,0,1.21,5.47,24.4,24.4,0,0,0,3.77,4.64A58,58,0,0,0,993,384.1c.87.58,1.75,1.12,2.62,1.64a52.22,52.22,0,0,0,5.27,2.77,36.13,36.13,0,0,0,7.64,2c4.61.82,10,1.39,14.2,1.75.2-1,.4-2,.6-3-2.19-.18-4.73-.43-7.32-.73-2.76-.33-5.57-.74-8-1.22a29.35,29.35,0,0,1-5.87-1.62,59.46,59.46,0,0,1-11-6.64,48.2,48.2,0,0,1-4.93-4.23,21,21,0,0,1-3.3-4,8,8,0,0,1-.8-3.94,31.78,31.78,0,0,1,3-12.15c1.93-4.26,4.7-8.26,7.82-10.64a16.28,16.28,0,0,1,4-2.37,8.76,8.76,0,0,1,3.26-.66,11.57,11.57,0,0,1,5.2,1.47c1.82.91,3.76,2.15,6,3.33a32.85,32.85,0,0,1,6.84,5.4,116.82,116.82,0,0,1,9.89,11.35c1.13,1.46,2.08,2.75,2.82,3.77.62-1.25,1.15-2.22,1.57-2.94-1.31-1.76-3-4-5-6.44a101.24,101.24,0,0,0-7.15-7.89,35.32,35.32,0,0,0-7.53-5.9c-1-.51-1.91-1.06-2.84-1.59s-1.77-1-2.67-1.49l-.53-.28-.14-.06a18.41,18.41,0,0,0-3-1.21,12.06,12.06,0,0,0-3.43-.52,11.88,11.88,0,0,0-4.35.86,19.79,19.79,0,0,0-4.74,2.79,20.12,20.12,0,0,0-1.57,1.36,23.74,23.74,0,0,0-2.06,2.18,36.27,36.27,0,0,0-5.09,8.25A34.36,34.36,0,0,0,979.13,366.92Z"/><path class="cls-5" d="M1130.16,367l-.07,0a1.49,1.49,0,0,1-2.31,1.77,19.74,19.74,0,0,0-6.74-3.14,70.54,70.54,0,0,0-10.66-2.1,224.48,224.48,0,0,0-27.61-1.43c-21,0-42,1.74-46.86,2.18l-.35,0c-.18.3-.43.71-.73,1.25a56.79,56.79,0,0,0-2.8,5.79,106.88,106.88,0,0,0-6.66,23.39c11.55,16,30.08,27.51,50.76,35a192.63,192.63,0,0,0,63.92,11.07,137.07,137.07,0,0,0,25.41-2.18c7.46-1.42,13.73-3.53,18.27-6.17a19.07,19.07,0,0,0,6.62-5.87c8.09-12.55,10.75-27.11,10.75-40.75,0-24.16-8.34-45.29-8.84-46.5h0Z"/><path d="M1193.06,337.32a1.51,1.51,0,0,0-.82,2h0l0,0h0c.5,1.21,8.84,22.34,8.84,46.5,0,13.64-2.66,28.2-10.75,40.75a19.07,19.07,0,0,1-6.62,5.87c-4.54,2.64-10.81,4.75-18.27,6.17a137.07,137.07,0,0,1-25.41,2.18,192.63,192.63,0,0,1-63.92-11.07c-20.68-7.5-39.21-19-50.76-35a106.88,106.88,0,0,1,6.66-23.39,56.79,56.79,0,0,1,2.8-5.79c.3-.54.55-1,.73-1.25l.35,0c4.9-.44,25.88-2.18,46.86-2.18a224.48,224.48,0,0,1,27.61,1.43,70.54,70.54,0,0,1,10.66,2.1,19.74,19.74,0,0,1,6.74,3.14,1.49,1.49,0,0,0,2.31-1.77,1.4,1.4,0,0,0-.42-.55,15.42,15.42,0,0,0-2.8-1.78,31,31,0,0,0-5-1.92,85.73,85.73,0,0,0-15.41-2.68l-2.21-.2-.86-.06c-6.51-.51-13.58-.71-20.64-.71-24.16,0-48.19,2.28-48.21,2.29a1.49,1.49,0,0,0-1.09.63s-.37.53-.92,1.48c-.42.72-1,1.69-1.57,2.94a97.75,97.75,0,0,0-7.62,22.92c-.2,1-.4,2-.6,3-.15.83-.31,1.68-.46,2.54a1.52,1.52,0,0,0,.26,1.12c12,17,31.28,28.87,52.54,36.59,1.38.5,2.77,1,4.16,1.45,1,.32,1.9.62,2.86.92a198,198,0,0,0,51.78,8.77l3,.08,3.14,0c12.61,0,24.09-1.35,33.26-3.93a51.74,51.74,0,0,0,11.93-4.83,22,22,0,0,0,7.63-6.83c8.29-12.86,11.07-27.57,11.21-41.28,0-.36,0-.74,0-1.1a124.62,124.62,0,0,0-1.25-17.07,148.81,148.81,0,0,0-4.87-22c-1.63-5.38-3-8.6-3-8.64A1.5,1.5,0,0,0,1193.06,337.32Z"/><path class="cls-5" d="M428.72,737.11H193.92a1.51,1.51,0,0,1-1.45-1.11L110.15,434.25a10,10,0,0,0-9.68-7.4H100a7.24,7.24,0,0,0-7.24,7.22,6.77,6.77,0,0,0,.09,1.09l47.88,316.57H453.42A28.15,28.15,0,0,0,428.72,737.11Z"/><path d="M138.34,752.26a1.49,1.49,0,0,1,1.14-.53h1.29L92.89,435.16a6.77,6.77,0,0,1-.09-1.09,7.24,7.24,0,0,1,7.24-7.22h.43a10,10,0,0,1,9.68,7.4L192.47,736a1.51,1.51,0,0,0,1.45,1.11h234.8a28.15,28.15,0,0,1,24.7,14.62h2.43a1.51,1.51,0,0,1,1.37.89,31.2,31.2,0,0,0-28.5-18.51H195.06l-82-300.65a13,13,0,0,0-12.58-9.61H100a10.2,10.2,0,0,0-10.12,11.76L138,753.46A1.48,1.48,0,0,1,138.34,752.26Z"/><path d="M141.22,754.73l4.62,30.5H437a20,20,0,0,0,19.95-20,28,28,0,0,0-2.06-10.55Z"/><path d="M177.22,788.23H437a23,23,0,0,0,22.95-23,31.15,31.15,0,0,0-1.29-8.85c-.3-1-.64-2-1-2.92-.12-.3-.23-.6-.36-.89a1.51,1.51,0,0,0-1.37-.89H139.48a1.5,1.5,0,0,0-1.48,1.73L143.06,787a1.51,1.51,0,0,0,1.49,1.28h32.67Zm277.62-33.5a28,28,0,0,1,2.06,10.55,20,20,0,0,1-19.95,20H145.84l-4.62-30.5Z"/><path d="M1054.24,34.83a45.82,45.82,0,0,0-17.86-3.44A56.05,56.05,0,0,0,1015,35.67c-6.39,2.68-11.67,6.49-14.78,10.77a15.37,15.37,0,0,0-3.21,9,12.34,12.34,0,0,0,.17,2l.36.43c.41.48,1,1.18,1.83,2a73.12,73.12,0,0,0,6.81,6.36C1012,71,1020,76,1028.76,77.18a1.59,1.59,0,0,1,.47.14,15.4,15.4,0,0,1,8.84,11.57c.87,4.45.5,9.06,1,13.2a15.75,15.75,0,0,0,2.58,7.43,19.15,19.15,0,0,0,6,5.69,11.06,11.06,0,0,0,5.44,1.54,6.42,6.42,0,0,0,4.74-1.74c.05-.05.2-.25.4-.53s.44-.67.73-1.13c.57-.92,1.28-2.15,2.09-3.65a125.53,125.53,0,0,0,5.5-11.69c3.82-9.32,7.37-21.17,7.36-32.19a44.16,44.16,0,0,0-.69-7.94A29.93,29.93,0,0,1,1054.24,34.83Z"/><path d="M994.27,58.36a1.59,1.59,0,0,0,.3.66l.23.28a72.16,72.16,0,0,0,9.48,9.31c6,4.88,14.25,10.12,23.79,11.49a12.5,12.5,0,0,1,5.89,5.74,17.17,17.17,0,0,1,1.47,5.63c.36,3.06.26,6.45.56,9.85a19.77,19.77,0,0,0,3.23,9.94,22,22,0,0,0,7,6.55,15.3,15.3,0,0,0,3.59,1.49,12.6,12.6,0,0,0,3,.43l.37,0a9.41,9.41,0,0,0,7-2.73,7.57,7.57,0,0,0,.64-.84,69.5,69.5,0,0,0,4-6.9,128.85,128.85,0,0,0,8-19.24,80.88,80.88,0,0,0,4.26-24.22,48.45,48.45,0,0,0-.48-6.94,26.57,26.57,0,0,1-3.21-1,44.16,44.16,0,0,1,.69,7.94c0,11-3.54,22.87-7.36,32.19a125.53,125.53,0,0,1-5.5,11.69c-.81,1.5-1.52,2.73-2.09,3.65-.29.46-.53.84-.73,1.13s-.35.48-.4.53a6.42,6.42,0,0,1-4.74,1.74,11.06,11.06,0,0,1-5.44-1.54,19.15,19.15,0,0,1-6-5.69,15.75,15.75,0,0,1-2.58-7.43c-.52-4.14-.15-8.75-1-13.2a15.4,15.4,0,0,0-8.84-11.57,1.59,1.59,0,0,0-.47-.14C1020,76,1012,71,1006.18,66.29a73.12,73.12,0,0,1-6.81-6.36c-.8-.85-1.42-1.55-1.83-2l-.36-.43a12.34,12.34,0,0,1-.17-2,15.37,15.37,0,0,1,3.21-9c3.11-4.28,8.39-8.09,14.78-10.77a56.05,56.05,0,0,1,21.38-4.28,45.82,45.82,0,0,1,17.86,3.44,31.19,31.19,0,0,1-.37-3.38,49.46,49.46,0,0,0-17.49-3.06,57.24,57.24,0,0,0-28.92,7.75,33,33,0,0,0-9.66,8.53A18.37,18.37,0,0,0,994,55.29c0,.06,0,.12,0,.19A16.67,16.67,0,0,0,994.27,58.36Z"/><path d="M1064.71,48.91a26.88,26.88,0,1,0-7.88-19A26.85,26.85,0,0,0,1064.71,48.91Z"/><path d="M1054.24,34.83a29.93,29.93,0,0,0,19,23.05,26.57,26.57,0,0,0,3.21,1,29.89,29.89,0,1,0-22.61-29c0,.52,0,1,0,1.56A31.19,31.19,0,0,0,1054.24,34.83Zm2.59-4.94a26.9,26.9,0,1,1,7.88,19A26.78,26.78,0,0,1,1056.83,29.89Z"/><path d="M359.92,319.22a25,25,0,0,0,10.5,2.74,14,14,0,0,0,6.18-1.39,6.32,6.32,0,0,0,2-2,11.2,11.2,0,0,0,1.35-3.1,32.67,32.67,0,0,0,.9-8.61c0-4.49-.43-9.26-.43-13.2a29,29,0,0,1,.2-3.74,9.89,9.89,0,0,1,.83-3.09,4.68,4.68,0,0,1,1.27-1.61,3.53,3.53,0,0,1,2.15-.81,3.17,3.17,0,0,1,1.69.5A5.36,5.36,0,0,1,387.8,286a15.43,15.43,0,0,1,1.82,2.9c1.1,2.18,2.15,4.79,3.3,6.8a8.75,8.75,0,0,0,2.25,2.83,1.7,1.7,0,0,0,1,.35,2,2,0,0,0,.92-.25,2.27,2.27,0,0,0,1.14-1.17,5.32,5.32,0,0,0,.36-2.19,35.85,35.85,0,0,0-.54-5,41.57,41.57,0,0,1-.57-6.09,15.33,15.33,0,0,1,1.33-6.63,13.59,13.59,0,0,1,5.35-5.78,14.42,14.42,0,0,1,7.81-2,51,51,0,0,1,6.42.55,51.68,51.68,0,0,0,6.19.52,16.51,16.51,0,0,0,4.37-.53,11.76,11.76,0,0,0,4-2c2.59-2,5.09-5.45,7.21-11.59a85.45,85.45,0,0,0,3.41-14.64,14.68,14.68,0,0,1-5.13-2.41,17.28,17.28,0,0,1-4.21-4.72c-2.23-3.52-3.67-7.53-5.85-11a19.37,19.37,0,0,0-5.65-6.1c-3.28-2.22-8-3.75-15.22-3.75a65.8,65.8,0,0,0-7.63.48c-11.32,1.32-19.06,3.94-24.26,7.25a21.28,21.28,0,0,0-9.35,11.59,29.08,29.08,0,0,0-1.29,9,79.23,79.23,0,0,0,.93,10.62,1.49,1.49,0,0,1-1.65,1.69,32.44,32.44,0,0,0-3.58-.21,19.12,19.12,0,0,0-10.94,3,19.71,19.71,0,0,0-6.53,7.76c-3.19,6.39-4.14,14.84-4.14,22.26a102,102,0,0,0,1.41,16.66l.11.13c.27.28.67.7,1.18,1.21,1,1,2.5,2.47,4.31,4.06A63.39,63.39,0,0,0,359.92,319.22Z"/><path d="M352.93,318.71a51.41,51.41,0,0,0,5.71,3.22,27.94,27.94,0,0,0,11.78,3,16.86,16.86,0,0,0,7.55-1.72l.09-.05a9.2,9.2,0,0,0,3.06-2.92,15.84,15.84,0,0,0,2.24-6.16,42.2,42.2,0,0,0,.52-7.21c0-4.67-.43-9.47-.43-13.2a21.53,21.53,0,0,1,.32-4.23,5.62,5.62,0,0,1,.4-1.27,1.81,1.81,0,0,1,.43-.58,1.73,1.73,0,0,1,.25-.16h0l.06,0a2.23,2.23,0,0,1,.68.64,18.49,18.49,0,0,1,1.84,3.25,69.2,69.2,0,0,0,3.27,6.57,11.43,11.43,0,0,0,2.21,2.69,4.88,4.88,0,0,0,3.2,1.27,5,5,0,0,0,2.26-.56h0A5.29,5.29,0,0,0,401,298.7a8.31,8.31,0,0,0,.62-3.42,39,39,0,0,0-.57-5.41,39,39,0,0,1-.54-5.65,12.24,12.24,0,0,1,1-5.35,10.53,10.53,0,0,1,4.21-4.51,11.4,11.4,0,0,1,6.23-1.52,49.14,49.14,0,0,1,6,.52,51.81,51.81,0,0,0,6.57.55,17.92,17.92,0,0,0,6.88-1.23l.37-.17a14.89,14.89,0,0,0,3-1.76,19,19,0,0,0,1.56-1.33,27.88,27.88,0,0,0,6.09-10.07,87.14,87.14,0,0,0,4.33-18.12,1.51,1.51,0,0,0-1.23-1.7,12.29,12.29,0,0,1-4.83-1.85,12.73,12.73,0,0,1-2.91-2.77,38.56,38.56,0,0,1-3.88-6.87C432,224.21,430,220,426,216.64a21.7,21.7,0,0,0-7.45-4,36.66,36.66,0,0,0-11.08-1.49,68.9,68.9,0,0,0-8,.5,74.75,74.75,0,0,0-18.94,4.39c-7.47,3-12.21,7-15,11.7A28.18,28.18,0,0,0,362,242.52a69.5,69.5,0,0,0,.72,9.16c-.69,0-1.36-.06-2-.06a22.08,22.08,0,0,0-12.61,3.53,21.39,21.39,0,0,0-6.09,6.34,36.3,36.3,0,0,0-4.72,12.65,72.6,72.6,0,0,0-1.19,13.52,104.1,104.1,0,0,0,1.54,17.64,1.48,1.48,0,0,0,.35.72,85.24,85.24,0,0,0,10.32,9.4c.63.48,1.28,1,1.94,1.43C351.09,317.48,352,318.11,352.93,318.71Zm-11.16-13c-.51-.51-.91-.93-1.18-1.21l-.11-.13a102,102,0,0,1-1.41-16.66c0-7.42.95-15.87,4.14-22.26a19.71,19.71,0,0,1,6.53-7.76,19.12,19.12,0,0,1,10.94-3,32.44,32.44,0,0,1,3.58.21,1.49,1.49,0,0,0,1.65-1.69,79.23,79.23,0,0,1-.93-10.62,29.08,29.08,0,0,1,1.29-9,21.28,21.28,0,0,1,9.35-11.59c5.2-3.31,12.94-5.93,24.26-7.25a65.8,65.8,0,0,1,7.63-.48c7.27,0,11.94,1.53,15.22,3.75a19.37,19.37,0,0,1,5.65,6.1c2.18,3.49,3.62,7.5,5.85,11a17.28,17.28,0,0,0,4.21,4.72,14.68,14.68,0,0,0,5.13,2.41,85.45,85.45,0,0,1-3.41,14.64c-2.12,6.14-4.62,9.63-7.21,11.59a11.76,11.76,0,0,1-4,2,16.51,16.51,0,0,1-4.37.53,51.68,51.68,0,0,1-6.19-.52,51,51,0,0,0-6.42-.55,14.42,14.42,0,0,0-7.81,2,13.59,13.59,0,0,0-5.35,5.78,15.33,15.33,0,0,0-1.33,6.63,41.57,41.57,0,0,0,.57,6.09,35.85,35.85,0,0,1,.54,5,5.32,5.32,0,0,1-.36,2.19,2.27,2.27,0,0,1-1.14,1.17,2,2,0,0,1-.92.25,1.7,1.7,0,0,1-1-.35,8.75,8.75,0,0,1-2.25-2.83c-1.15-2-2.2-4.62-3.3-6.8a15.43,15.43,0,0,0-1.82-2.9,5.36,5.36,0,0,0-1.21-1.06,3.17,3.17,0,0,0-1.69-.5,3.53,3.53,0,0,0-2.15.81,4.68,4.68,0,0,0-1.27,1.61,9.89,9.89,0,0,0-.83,3.09,29,29,0,0,0-.2,3.74c0,3.94.44,8.71.43,13.2a32.67,32.67,0,0,1-.9,8.61,11.2,11.2,0,0,1-1.35,3.1,6.32,6.32,0,0,1-2,2,14,14,0,0,1-6.18,1.39,25,25,0,0,1-10.5-2.74,63.39,63.39,0,0,1-13.84-9.5C344.27,308.13,342.79,306.7,341.77,305.66Z"/><path class="cls-5" d="M34.51,759.76a34.55,34.55,0,0,1-22.93,23,34.55,34.55,0,0,1,22.93,23,34.55,34.55,0,0,1,22.93-23A34.55,34.55,0,0,1,34.51,759.76Z"/><path d="M67.52,784.22a1.5,1.5,0,0,0,1.5-1.5,1.52,1.52,0,0,0-.44-1.06,1.5,1.5,0,0,0-1.06-.44A31.51,31.51,0,0,1,36,749.72a1.5,1.5,0,0,0-1.5-1.5h0a1.52,1.52,0,0,0-1.06.44,1.5,1.5,0,0,0-.44,1.06A31.39,31.39,0,0,1,23.78,772,31.39,31.39,0,0,1,1.5,781.22a1.5,1.5,0,0,0-1.06.44A1.52,1.52,0,0,0,0,782.72a1.5,1.5,0,0,0,1.5,1.5,31.39,31.39,0,0,1,22.28,9.23A31.39,31.39,0,0,1,33,815.72a1.5,1.5,0,0,0,.44,1.06,1.52,1.52,0,0,0,1.06.44h0a1.46,1.46,0,0,0,1.06-.44,1.5,1.5,0,0,0,.44-1.06,31.51,31.51,0,0,1,31.5-31.5Zm-33,21.46a34.55,34.55,0,0,0-22.93-23,34.55,34.55,0,0,0,22.93-23,34.55,34.55,0,0,0,22.93,23A34.55,34.55,0,0,0,34.51,805.68Z"/><path class="cls-5" d="M1245.13,550.41a34.58,34.58,0,0,1,22.94-23,34.59,34.59,0,0,1-22.94-23,34.56,34.56,0,0,1-22.93,23A34.55,34.55,0,0,1,1245.13,550.41Z"/><path d="M1212.12,529a31.5,31.5,0,0,1,31.5,31.5,1.48,1.48,0,0,0,.44,1.06,1.52,1.52,0,0,0,1.06.44h0a1.5,1.5,0,0,0,1.5-1.5,31.51,31.51,0,0,1,31.5-31.5,1.48,1.48,0,0,0,1.06-.44,1.5,1.5,0,0,0,.44-1.06,1.52,1.52,0,0,0-.44-1.06,1.48,1.48,0,0,0-1.06-.44,31.51,31.51,0,0,1-31.5-31.5,1.5,1.5,0,0,0-1.5-1.5h0a1.52,1.52,0,0,0-1.06.44,1.5,1.5,0,0,0-.44,1.06,31.5,31.5,0,0,1-31.5,31.5,1.5,1.5,0,0,0-1.5,1.5,1.5,1.5,0,0,0,.44,1.06A1.52,1.52,0,0,0,1212.12,529Zm33-24.45a34.59,34.59,0,0,0,22.94,23,34.58,34.58,0,0,0-22.94,23,34.55,34.55,0,0,0-22.93-23A34.56,34.56,0,0,0,1245.13,504.5Z"/><path class="cls-3" d="M91.3,923a19.77,19.77,0,1,0-19.77-19.76A19.77,19.77,0,0,0,91.3,923Zm0-32.87a13.11,13.11,0,1,1-13.11,13.11A13.11,13.11,0,0,1,91.3,890.12Z"/><path class="cls-5" d="M433,571.22c8.07,10.1,18.5,18,32.12,21.76,56.95,15.89,98.28,25.39,107.7,27.51l2,.46a1.5,1.5,0,0,1,1,.8l.07.15.22.44L577,624c.76,1.41,1.87,3.4,3.26,5.68a90.53,90.53,0,0,0,11.06,14.87,31.11,31.11,0,0,0,9.11,7,12.28,12.28,0,0,0,5.13,1.24l.42,0c2.93-8.28,4.34-15.25,4.34-21.15a28.52,28.52,0,0,0-2.11-11.24,26.46,26.46,0,0,0-6.23-8.84c-5.54-5.31-13.93-9.56-25-13.42a272.29,272.29,0,0,1-43.79-19.91c-16.38-9.32-33.15-21.38-46.13-36.41-8.65-10-15.61-21.35-19.59-34.06-3.44-11-6.12-19.55-8.22-26.23-10.94,10.92-20.43,17.9-28.49,22.25-8.89,4.8-16.06,6.38-21.47,6.53.36,2.28.77,4.61,1.23,7C414.16,535.87,420.85,556.08,433,571.22Z"/><path d="M459.28,481.51c2.1,6.68,4.78,15.24,8.22,26.23,4,12.71,10.94,24,19.59,34.06,13,15,29.75,27.09,46.13,36.41A272.29,272.29,0,0,0,577,598.12c11,3.86,19.44,8.11,25,13.42a26.46,26.46,0,0,1,6.23,8.84,28.52,28.52,0,0,1,2.11,11.24c0,5.9-1.41,12.87-4.34,21.15l-.42,0a12.28,12.28,0,0,1-5.13-1.24,31.11,31.11,0,0,1-9.11-7,90.53,90.53,0,0,1-11.06-14.87c-1.39-2.28-2.5-4.27-3.26-5.68l-.88-1.66-.22-.44-.07-.15a1.5,1.5,0,0,0-1-.8l-2-.46c-9.42-2.12-50.75-11.62-107.7-27.51-13.62-3.8-24.05-11.66-32.12-21.76-12.1-15.14-18.79-35.35-22.4-54-.46-2.35-.87-4.68-1.23-7l-.85,0c-.77,0-1.5,0-2.2-.09a187.86,187.86,0,0,0,6.14,26.83,116.51,116.51,0,0,0,14.65,31.24c.67,1,1.36,2,2.07,2.9.49.64,1,1.28,1.48,1.91A67.9,67.9,0,0,0,450,589.91a62.07,62.07,0,0,0,6.79,3.35,62.79,62.79,0,0,0,7.52,2.61c60.49,16.88,103.35,26.55,109.22,27.86a122.44,122.44,0,0,0,9.57,15.51,63,63,0,0,0,10.22,11.24,27.66,27.66,0,0,0,5.92,3.81,15.38,15.38,0,0,0,6.38,1.51l.61,0c.37,0,.74,0,1.11-.1a1.5,1.5,0,0,0,1.2-1c.08-.21.14-.41.22-.62,3.07-8.63,4.62-16,4.62-22.47a31.51,31.51,0,0,0-2.35-12.4c-2.34-5.55-6.42-10.09-12-13.94s-12.58-7-21-10c-15-5.26-38.19-15.1-59.43-29.78a155,155,0,0,1-29.21-25.66c-8.44-9.77-15.17-20.76-19-33-3.71-11.84-6.53-20.87-8.69-27.76C460.87,479.91,460.07,480.72,459.28,481.51Z"/><path class="cls-6" d="M377.49,448.81l21.77,56.47.15.09a13.41,13.41,0,0,0,1.74.77,21.84,21.84,0,0,0,7.32,1.17c4.95,0,11.89-1.34,20.9-6.19s19.83-13.06,32.75-26.85c-.37-33.48-13.7-60.18-27.23-78.72a149.23,149.23,0,0,0-27.83-29.33h0L376.61,448A1.52,1.52,0,0,1,377.49,448.81Z"/><path d="M406.39,363.86a1.5,1.5,0,0,0,.33,2.1h0l0,0,.31.24a149.23,149.23,0,0,1,27.83,29.33c13.53,18.54,26.86,45.24,27.23,78.72-12.92,13.79-23.84,22.05-32.75,26.85s-15.95,6.18-20.9,6.19a21.84,21.84,0,0,1-7.32-1.17,13.41,13.41,0,0,1-1.74-.77l-.15-.09-21.77-56.47a1.52,1.52,0,0,0-.88-.86,1.5,1.5,0,0,0-1.92,1.94l21.95,56.94a1.49,1.49,0,0,0,.52.67c.17.13,3.22,2.27,9.11,2.72.7,0,1.43.09,2.2.09l.85,0c5.41-.15,12.58-1.73,21.47-6.53,8.06-4.35,17.55-11.33,28.49-22.25.79-.79,1.59-1.6,2.39-2.43,1-1,2-2.1,3.06-3.21a1.51,1.51,0,0,0,.4-1c-.23-35.11-14.4-62.94-28.48-82a159.48,159.48,0,0,0-24.34-26.27c-2.37-2-3.79-3.05-3.82-3.07A1.51,1.51,0,0,0,406.39,363.86Z"/></g></g></svg>